<svg id="Layer_1" xmlns="http://www.w3.org/2000/svg" xmlns:xlink="http://www.w3.org/1999/xlink" viewBox="0 0 161 150.3"><style>.st0{clip-path:url(#SVGID_1_)}.st1{fill:#01579b}.st2{fill:#fff;fill-opacity:.2}.st3{fill:#eee}.st4{clip-path:url(#SVGID_2_)}.st5{fill:#00b0ff}.st6{clip-path:url(#SVGID_1_);fill:#e0e0e0}.st7{fill:#0091ea}.st8,.st9{clip-path:url(#SVGID_1_);fill:#bf360c;fill-opacity:5e-2}.st9{fill:#fff;fill-opacity:.1}.st10{clip-path:url(#SVGID_3_)}.st11{fill:#fff;fill-opacity:5e-2}.st12{fill:#212121;fill-opacity:2e-2}.st13{clip-path:url(#SVGID_1_);fill:#bf360c;fill-opacity:.15}</style><defs><path id="SVGID_7_" d="M156.5 53.4l-6.5-4.8V21.9c0-6.1-5-10.6-11.1-10.6H98.8l-12-9.1C85 .9 82.7 0 80.2 0c-2.4 0-4.7 1-6.5 2.3l-12 9H21.6c-6.1 0-10.6 4.5-10.6 10.6v26.7l-6.5 4.8c-2.7 2-4.5 5.2-4.5 8.9v77c0 6.1 4.5 11.1 10.6 11.1h139.3c6.1 0 11.1-5 11.1-11.1v-77c0-3.7-1.8-6.9-4.5-8.9z"/></defs><clipPath id="SVGID_1_"><use xlink:href="#SVGID_7_" overflow="visible"/></clipPath><g class="st0"><path class="st1" d="M-.4 62.3l80.6 77 80.7-77zM156.4 53.4L86.8 2.1C85 .8 82.7-.1 80.3-.1c-2.4 0-4.7.8-6.5 2.1L4.1 53.4c-2.7 2-4.5 4.9-4.5 8.9h161.3c0-4-1.7-6.9-4.5-8.9z"/><path class="st2" d="M4.1 54.3L73.7 3C75.5 1.7 77.8.9 80.2.9c2.4 0 4.7.8 6.5 2.1l69.7 51.3c2.5 1.8 4.1 4.7 4.4 7.9h.1c0-3.6-1.8-6.9-4.5-8.9L86.8 2C85 .7 82.7-.1 80.3-.1c-2.4 0-4.7.8-6.5 2.1L4.1 53.4c-2.7 2-4.5 5.2-4.5 8.9h.1c.2-3.3 1.9-6.2 4.4-8z"/></g><g class="st0"><g id="XMLID_21_"><image width="162" height="151" id="XMLID_23_" xlink:href="A24CA6FCAB86B372.html" transform="translate(3 3.468)" overflow="visible" opacity=".2"/><path id="XMLID_22_" class="st3" d="M138.9 139.2H21.6c-6.1 0-11-4.9-11-11V21.9c0-6.1 4.9-11 11-11h117.3c6.1 0 11 4.9 11 11v106.3c0 6.1-4.9 11-11 11z"/></g></g><g class="st0"><defs><path id="SVGID_9_" d="M11 62.3h139v77H11z"/></defs><clipPath id="SVGID_2_"><use xlink:href="#SVGID_9_" overflow="visible"/></clipPath><g class="st4"><path class="st5" d="M82.4 58.3H63v8h11.2c-.3 2-1.5 4.5-4.1 6.3-1.7 1.1-4 2-7 2-5.4 0-9.9-3.6-11.5-8.5-.4-1.2-.6-2.6-.6-3.9s.2-2.7.6-3.9c1.6-4.9 6.2-8.5 11.5-8.5 3.9 0 6.5 1.8 7.8 3l5.9-5.8c-3.6-3.3-7.8-5.4-13.8-5.4v-.3h0v.3c-8 0-14.9 4.6-18.3 11.4-1.4 2.8-2.2 5.9-2.2 9.3 0 3.3.7 6.5 2.1 9.3C48.1 78.2 55 82.8 63 82.9v.5h0v-.5c6 0 10.3-1.8 13.7-5 3.9-3.6 6.2-9 6.2-15.3 0-1.7-.2-3.3-.5-4.3zM117.8 52.8c-3.4-6.7-10.4-11.5-18.4-11.5H87v42h12.4c8.1 0 15-4.9 18.4-11.6 1.4-2.8 2.2-6.1 2.2-9.5s-.8-6.6-2.2-9.4zm-6.9 13.3v-.2c-1.6 4.9-6.2 8.3-11.5 8.3H95v-25h4.4c5.4 0 9.9 3.9 11.5 8.7v.1c.4 1.2.6 2.6.6 4 0 1.5-.2 2.9-.6 4.1z"/></g></g><path class="st6" d="M11 21.9c0-6.1 4.5-10.6 10.6-10.6h117.3c6.1 0 11.1 4.5 11.1 10.6v40.4H11V21.9z"/><g class="st0"><g id="XMLID_17_"><image width="173" height="111" id="XMLID_19_" xlink:href="A24CA6FCAB86B376.html" transform="translate(-8 54.468)" overflow="visible" opacity=".2"/><path id="XMLID_18_" class="st7" d="M149.9 150.2H-.4v-88z"/></g></g><path class="st8" d="M149.9 150.2L-.4 62.2v.9l148.7 87.1z"/><g class="st0"><g id="XMLID_13_"><image width="173" height="111" id="XMLID_15_" xlink:href="A24CA6FCAB86B371.html" transform="translate(3 54.468)" overflow="visible" opacity=".2"/><path id="XMLID_14_" class="st5" d="M10.6 150.2h150.3v-88z"/></g></g><path class="st9" d="M10.6 150.2h1.5l148.8-87.1v-.9z"/><g class="st0"><defs><path id="SVGID_11_" d="M11 21.9c0-6.1 4.5-10.6 10.6-10.6h117.3c6.1 0 11.1 4.5 11.1 10.6v40.4H11V21.9z"/></defs><clipPath id="SVGID_3_"><use xlink:href="#SVGID_11_" overflow="visible"/></clipPath><g class="st10"><path class="st7" d="M82.4 58.3H63v8h11.2c-.3 2-1.5 4.5-4.1 6.3-1.7 1.1-4 2-7 2-5.4 0-9.9-3.6-11.5-8.5-.4-1.2-.6-2.6-.6-3.9s.2-2.7.6-3.9c1.6-4.9 6.2-8.5 11.5-8.5 3.9 0 6.5 1.8 7.8 3l5.9-5.8c-3.6-3.3-7.8-5.4-13.8-5.4v-.3h0v.3c-8 0-14.9 4.6-18.3 11.4-1.4 2.8-2.2 5.9-2.2 9.3 0 3.3.7 6.5 2.1 9.3C48.1 78.2 55 82.8 63 82.9v.5h0v-.5c6 0 10.3-1.8 13.7-5 3.9-3.6 6.2-9 6.2-15.3 0-1.7-.2-3.3-.5-4.3zM117.8 52.8c-3.4-6.7-10.4-11.5-18.4-11.5H87v42h12.4c8.1 0 15-4.9 18.4-11.6 1.4-2.8 2.2-6.1 2.2-9.5s-.8-6.6-2.2-9.4zm-6.9 13.3v-.2c-1.6 4.9-6.2 8.3-11.5 8.3H95v-25h4.4c5.4 0 9.9 3.9 11.5 8.7v.1c.4 1.2.6 2.6.6 4 0 1.5-.2 2.9-.6 4.1z"/></g></g><g class="st0"><path class="st11" d="M10.6 62.2h139.3v.9H10.6z"/><path class="st12" d="M10.6 61.3h139.3v.9H10.6z"/></g><path class="st13" d="M149.9 149.3H10.6c-6.1 0-11-5-11-11v.9c0 6 4.9 11 11 11h139.3c6.1 0 11-5 11-11v-.9c0 6.1-4.9 11-11 11z"/></svg>