<svg xmlns="http://www.w3.org/2000/svg" width="326" height="57" viewBox="0 0 326 57"><path fill="#757575" d="M181.01 42.6V5.69h11.29c5.64 0 10.16 1.7 13.58 5.1 3.42 3.4 5.13 7.85 5.13 13.35 0 5.53-1.71 9.99-5.13 13.38-3.42 3.39-7.95 5.08-13.58 5.08h-11.29zm4.74-32.38v27.84h6.55c4.3 0 7.68-1.23 10.16-3.69 2.47-2.46 3.71-5.87 3.71-10.23 0-4.33-1.24-7.73-3.71-10.21-2.47-2.47-5.86-3.71-10.16-3.71h-6.55zM226.04 43.42c-3.71 0-6.77-1.27-9.18-3.81s-3.61-5.76-3.61-9.64c0-3.85 1.17-7.05 3.51-9.61 2.34-2.56 5.33-3.84 8.97-3.84 3.75 0 6.73 1.21 8.94 3.63 2.22 2.42 3.32 5.82 3.32 10.18l-.05.52H218.1c.07 2.47.89 4.47 2.47 5.98 1.58 1.51 3.47 2.27 5.67 2.27 3.02 0 5.4-1.51 7.11-4.54l4.23 2.06c-1.13 2.13-2.71 3.8-4.72 5-2 1.2-4.28 1.8-6.82 1.8zm-7.58-16.5h14.49c-.14-1.75-.85-3.2-2.14-4.36-1.29-1.15-3.02-1.73-5.18-1.73-1.79 0-3.32.55-4.61 1.65-1.3 1.11-2.15 2.59-2.56 4.44zM261.02 35.58c0 2.2-.96 4.06-2.89 5.57-1.93 1.51-4.35 2.27-7.27 2.27-2.54 0-4.78-.66-6.7-1.98-1.93-1.32-3.3-3.07-4.12-5.23l4.23-1.8c.62 1.51 1.52 2.69 2.71 3.53 1.19.84 2.48 1.26 3.89 1.26 1.51 0 2.78-.33 3.79-.98 1.01-.65 1.52-1.43 1.52-2.32 0-1.62-1.24-2.8-3.71-3.56l-4.33-1.08c-4.92-1.24-7.37-3.61-7.37-7.11 0-2.3.94-4.15 2.81-5.54 1.87-1.39 4.27-2.09 7.19-2.09 2.23 0 4.25.53 6.06 1.6 1.8 1.07 3.07 2.49 3.79 4.28l-4.23 1.75c-.48-1.06-1.26-1.9-2.35-2.5-1.08-.6-2.29-.9-3.63-.9-1.24 0-2.35.31-3.32.93-.98.62-1.47 1.37-1.47 2.27 0 1.44 1.36 2.47 4.07 3.09l3.81.98c5.01 1.22 7.52 3.75 7.52 7.56zM270.43 8.62c0 .93-.33 1.72-.98 2.37-.65.65-1.44.98-2.37.98-.93 0-1.72-.33-2.37-.98a3.23 3.23 0 0 1-.98-2.37c0-.93.33-1.72.98-2.37a3.23 3.23 0 0 1 2.37-.98c.93 0 1.72.33 2.37.98.66.66.98 1.45.98 2.37zm-.98 8.72V42.6h-4.74V17.34h4.74zM285.59 54.56c-1.41 0-2.73-.18-3.97-.54a12.97 12.97 0 0 1-3.38-1.52c-1.01-.65-1.88-1.43-2.6-2.32a9.814 9.814 0 0 1-1.65-2.99l4.48-1.86a7.16 7.16 0 0 0 2.68 3.56c1.27.89 2.75 1.34 4.43 1.34 2.58 0 4.59-.77 6.03-2.32 1.44-1.55 2.16-3.68 2.16-6.39V39.1h-.21c-.89 1.34-2.11 2.4-3.63 3.17-1.53.77-3.19 1.16-4.97 1.16-3.3 0-6.13-1.29-8.51-3.87-2.34-2.65-3.51-5.84-3.51-9.59s1.17-6.92 3.51-9.54c2.37-2.61 5.21-3.92 8.51-3.92 1.79 0 3.44.39 4.97 1.16 1.53.77 2.74 1.83 3.63 3.17h.21v-3.51h4.54v24.18c0 4.05-1.15 7.23-3.45 9.54-2.33 2.34-5.42 3.51-9.27 3.51zm.15-15.47c2.34 0 4.24-.84 5.72-2.53 1.55-1.68 2.32-3.88 2.32-6.6 0-2.65-.77-4.83-2.32-6.55-1.51-1.72-3.42-2.58-5.72-2.58-2.27 0-4.18.86-5.72 2.58-1.55 1.72-2.32 3.9-2.32 6.55 0 2.68.77 4.86 2.32 6.55 1.55 1.72 3.46 2.58 5.72 2.58zM303.13 17.34h4.54v3.51h.21c.72-1.24 1.83-2.27 3.33-3.09 1.49-.82 3.05-1.24 4.67-1.24 3.09 0 5.47.89 7.14 2.65 1.67 1.77 2.5 4.29 2.5 7.55V42.6h-4.74V27.03c-.1-4.12-2.18-6.19-6.24-6.19-1.89 0-3.47.77-4.74 2.29-1.27 1.53-1.91 3.36-1.91 5.49V42.6h-4.74V17.34z"/><path fill="#4285F4" d="M.79 22.28c0-11.65 9.8-21.14 21.45-21.14 6.44 0 11.03 2.53 14.49 5.83l-4.07 4.07c-2.47-2.32-5.83-4.12-10.41-4.12-8.51 0-15.16 6.86-15.16 15.36 0 8.51 6.65 15.36 15.16 15.36 5.52 0 8.66-2.22 10.67-4.23 1.65-1.65 2.73-4.02 3.14-7.27H22.24v-5.77h19.44c.21 1.03.31 2.27.31 3.61 0 4.33-1.19 9.69-5 13.51-3.71 3.87-8.45 5.93-14.74 5.93C10.59 43.42.79 33.93.79 22.28z"/><path fill="#EA4335" d="M57.69 16.2c-7.53 0-13.66 5.72-13.66 13.61 0 7.84 6.13 13.61 13.66 13.61s13.66-5.77 13.66-13.61c0-7.89-6.14-13.61-13.66-13.61zm0 21.86c-4.12 0-7.68-3.4-7.68-8.25 0-4.9 3.56-8.25 7.68-8.25 4.12 0 7.68 3.35 7.68 8.25 0 4.85-3.56 8.25-7.68 8.25z"/><path fill="#FBBC05" d="M87.49 16.2c-7.53 0-13.66 5.72-13.66 13.61 0 7.84 6.13 13.61 13.66 13.61s13.66-5.77 13.66-13.61c0-7.89-6.13-13.61-13.66-13.61zm0 21.86c-4.12 0-7.68-3.4-7.68-8.25 0-4.9 3.56-8.25 7.68-8.25s7.68 3.35 7.68 8.25c0 4.85-3.56 8.25-7.68 8.25z"/><path fill="#4285F4" d="M124.07 17.03v2.22h-.21c-1.34-1.6-3.92-3.04-7.17-3.04-6.8 0-13.04 5.98-13.04 13.66 0 7.63 6.24 13.56 13.04 13.56 3.25 0 5.83-1.44 7.17-3.09h.21v1.96c0 5.21-2.78 7.99-7.27 7.99-3.66 0-5.93-2.63-6.86-4.85l-5.21 2.17c1.49 3.61 5.46 8.04 12.06 8.04 7.01 0 12.94-4.12 12.94-14.18V17.03h-5.66zm-6.86 21.03c-4.12 0-7.58-3.45-7.58-8.2 0-4.79 3.45-8.3 7.58-8.3 4.07 0 7.27 3.51 7.27 8.3 0 4.75-3.19 8.2-7.27 8.2z"/><path fill="#34A853" d="M133.87 2.59h5.98v40h-5.98z"/><path fill="#EA4335" d="M156.24 38.06c-3.04 0-5.21-1.39-6.6-4.12l18.2-7.53-.62-1.55c-1.13-3.04-4.59-8.66-11.65-8.66-7.01 0-12.84 5.52-12.84 13.61 0 7.63 5.77 13.61 13.51 13.61 6.24 0 9.85-3.81 11.34-6.03l-4.64-3.09c-1.55 2.26-3.66 3.76-6.7 3.76zm-.46-16.6c2.37 0 4.38 1.19 5.05 2.89l-12.17 5.05c-.15-5.26 4.07-7.94 7.12-7.94z"/><path fill="none" d="M.5 1.11h167.54v54.77H.5z"/></svg>