<?xml version="1.0" encoding="utf-8"?>
<!-- Generator: Adobe Illustrator 20.1.0, SVG Export Plug-In . SVG Version: 6.00 Build 0)  -->
<svg version="1.1" id="Layer_1" xmlns="http://www.w3.org/2000/svg" xmlns:xlink="http://www.w3.org/1999/xlink" x="0px" y="0px"
	 width="725px" height="275px" viewBox="0 0 725 275" style="enable-background:new 0 0 725 275;" xml:space="preserve">
<style type="text/css">
	.st0{fill:none;stroke:#B5772B;stroke-width:3;stroke-miterlimit:10;}
	.st1{fill:#414142;}
	.st2{fill:none;stroke:#7C2163;stroke-width:3;stroke-linecap:round;stroke-miterlimit:10;}
	.st3{fill:none;stroke:#4FBEED;stroke-width:3;stroke-linecap:round;stroke-miterlimit:10;}
	.st4{fill:none;stroke:#148944;stroke-width:3;stroke-linecap:round;stroke-miterlimit:10;}
	.st5{fill:#148944;}
	.st6{fill:#7C2163;}
	.st7{fill:#FCB329;}
	.st8{fill:#4FBEED;}
	.st9{fill:none;stroke:#221F1F;stroke-width:3;stroke-miterlimit:10;}
	.st10{fill:#FFFFFF;}
	.st11{fill:none;stroke:#FFFFFF;stroke-width:0.5;stroke-miterlimit:10;}
	.st12{fill:#D8D9D9;}
	.st13{fill:none;stroke:#B2B3B3;stroke-width:0.5;stroke-miterlimit:10;stroke-dasharray:2.5,1.5;}
	.st14{fill:none;stroke:#B2B3B3;stroke-width:0.5;stroke-miterlimit:10;stroke-dasharray:2.5,1;}
	.st15{fill:none;stroke:#B2B3B3;stroke-width:0.5;stroke-miterlimit:10;}
	.st16{fill:#676767;}
	.st17{fill:#414142;stroke:#FFFFFF;stroke-width:0.5;stroke-miterlimit:10;}
	.st18{fill:#C49256;}
	.st19{fill:#B5772B;}
</style>
<line class="st0" x1="497.7" y1="42.7" x2="497.7" y2="76.5"/>
<g>
	<path class="st1" d="M96.7,231.8h3.3v0.7h-2.5v2h2.3v0.6h-2.3v2.7h-0.8V231.8z"/>
	<path class="st1" d="M101.8,232.3c0,0.3-0.2,0.5-0.5,0.5c-0.3,0-0.5-0.2-0.5-0.5c0-0.3,0.2-0.5,0.5-0.5
		C101.6,231.8,101.8,232,101.8,232.3z M100.9,237.9v-4.4h0.8v4.4H100.9z"/>
	<path class="st1" d="M102.8,237.9c0-0.3,0-0.7,0-1.1v-5.3h0.8v2.7h0c0.3-0.5,0.8-0.8,1.5-0.8c1.1,0,1.8,0.9,1.8,2.2
		c0,1.6-1,2.3-2,2.3c-0.6,0-1.1-0.2-1.5-0.8h0l0,0.7H102.8z M103.6,236.1c0,0.1,0,0.2,0,0.3c0.2,0.5,0.6,0.9,1.2,0.9
		c0.8,0,1.3-0.7,1.3-1.7c0-0.9-0.5-1.6-1.3-1.6c-0.5,0-1,0.4-1.2,1c0,0.1,0,0.2,0,0.3V236.1z"/>
	<path class="st1" d="M108.2,235.8c0,1.1,0.7,1.5,1.5,1.5c0.6,0,0.9-0.1,1.2-0.2l0.1,0.6c-0.3,0.1-0.8,0.3-1.4,0.3
		c-1.3,0-2.1-0.9-2.1-2.2s0.8-2.3,2-2.3c1.4,0,1.8,1.3,1.8,2.1c0,0.2,0,0.3,0,0.4H108.2z M110.5,235.3c0-0.5-0.2-1.3-1.1-1.3
		c-0.8,0-1.2,0.7-1.2,1.3H110.5z"/>
	<path class="st1" d="M112.1,234.9c0-0.5,0-1,0-1.4h0.7l0,0.9h0c0.2-0.6,0.7-1,1.2-1c0.1,0,0.2,0,0.2,0v0.7c-0.1,0-0.2,0-0.3,0
		c-0.6,0-1,0.4-1.1,1c0,0.1,0,0.2,0,0.4v2.3h-0.8V234.9z"/>
	<path class="st1" d="M94.7,246l-0.6,1.9h-0.8l2.1-6.1h0.9l2.1,6.1h-0.8l-0.6-1.9H94.7z M96.7,245.3l-0.6-1.7
		c-0.1-0.4-0.2-0.8-0.3-1.1h0c-0.1,0.4-0.2,0.7-0.3,1.1l-0.6,1.8H96.7z"/>
	<path class="st1" d="M102.1,247.7c-0.2,0.1-0.7,0.3-1.3,0.3c-1.3,0-2.2-0.9-2.2-2.2c0-1.3,0.9-2.3,2.3-2.3c0.5,0,0.9,0.1,1.1,0.2
		l-0.2,0.6c-0.2-0.1-0.5-0.2-0.9-0.2c-1,0-1.5,0.7-1.5,1.6c0,1,0.6,1.6,1.5,1.6c0.5,0,0.7-0.1,1-0.2L102.1,247.7z"/>
	<path class="st1" d="M106,247.7c-0.2,0.1-0.7,0.3-1.3,0.3c-1.3,0-2.2-0.9-2.2-2.2c0-1.3,0.9-2.3,2.3-2.3c0.5,0,0.9,0.1,1.1,0.2
		l-0.2,0.6c-0.2-0.1-0.5-0.2-0.9-0.2c-1,0-1.5,0.7-1.5,1.6c0,1,0.6,1.6,1.5,1.6c0.5,0,0.7-0.1,1-0.2L106,247.7z"/>
	<path class="st1" d="M107.2,245.8c0,1.1,0.7,1.5,1.5,1.5c0.6,0,0.9-0.1,1.2-0.2l0.1,0.6c-0.3,0.1-0.8,0.3-1.4,0.3
		c-1.3,0-2.1-0.9-2.1-2.2s0.8-2.3,2-2.3c1.4,0,1.8,1.3,1.8,2.1c0,0.2,0,0.3,0,0.4H107.2z M109.5,245.3c0-0.5-0.2-1.3-1.1-1.3
		c-0.8,0-1.2,0.7-1.2,1.3H109.5z"/>
	<path class="st1" d="M110.9,247.1c0.2,0.2,0.6,0.3,1,0.3c0.6,0,0.8-0.3,0.8-0.6c0-0.4-0.2-0.6-0.8-0.8c-0.8-0.3-1.2-0.7-1.2-1.2
		c0-0.7,0.6-1.3,1.5-1.3c0.4,0,0.8,0.1,1.1,0.3l-0.2,0.6c-0.2-0.1-0.5-0.3-0.9-0.3c-0.5,0-0.7,0.3-0.7,0.6c0,0.4,0.3,0.5,0.8,0.7
		c0.8,0.3,1.1,0.7,1.1,1.3c0,0.8-0.6,1.3-1.6,1.3c-0.5,0-0.9-0.1-1.2-0.3L110.9,247.1z"/>
	<path class="st1" d="M114.3,247.1c0.2,0.2,0.6,0.3,1,0.3c0.6,0,0.8-0.3,0.8-0.6c0-0.4-0.2-0.6-0.8-0.8c-0.8-0.3-1.2-0.7-1.2-1.2
		c0-0.7,0.6-1.3,1.5-1.3c0.4,0,0.8,0.1,1.1,0.3l-0.2,0.6c-0.2-0.1-0.5-0.3-0.9-0.3c-0.5,0-0.7,0.3-0.7,0.6c0,0.4,0.3,0.5,0.8,0.7
		c0.8,0.3,1.1,0.7,1.1,1.3c0,0.8-0.6,1.3-1.6,1.3c-0.5,0-0.9-0.1-1.2-0.3L114.3,247.1z"/>
</g>
<line class="st2" x1="104.9" y1="226.1" x2="104.9" y2="203.8"/>
<g>
	<g>
		<path class="st1" d="M592.7,244.9c0-0.8-0.1-1.9-0.1-2.6h0c-0.2,0.7-0.5,1.5-0.8,2.3l-1.1,2.9h-0.6l-1-2.9
			c-0.3-0.9-0.5-1.6-0.7-2.4h0c0,0.8-0.1,1.8-0.1,2.7l-0.2,2.6h-0.7l0.4-6.1h1l1,2.9c0.3,0.7,0.5,1.4,0.6,2h0c0.2-0.6,0.4-1.3,0.6-2
			l1.1-2.9h1l0.4,6.1h-0.8L592.7,244.9z"/>
		<path class="st1" d="M598.6,245.3c0,1.6-1.1,2.3-2.2,2.3c-1.2,0-2.1-0.9-2.1-2.2c0-1.5,1-2.3,2.2-2.3
			C597.7,243.1,598.6,244,598.6,245.3z M595.1,245.4c0,1,0.5,1.7,1.3,1.7c0.8,0,1.3-0.7,1.3-1.7c0-0.7-0.4-1.7-1.3-1.7
			S595.1,244.6,595.1,245.4z"/>
		<path class="st1" d="M599.3,247.6c0-0.3,0-0.7,0-1.1v-5.3h0.8v2.7h0c0.3-0.5,0.8-0.8,1.5-0.8c1.1,0,1.8,0.9,1.8,2.2
			c0,1.6-1,2.3-2,2.3c-0.6,0-1.1-0.2-1.5-0.8h0l0,0.7H599.3z M600.2,245.8c0,0.1,0,0.2,0,0.3c0.2,0.5,0.6,0.9,1.2,0.9
			c0.8,0,1.3-0.7,1.3-1.7c0-0.9-0.5-1.6-1.3-1.6c-0.5,0-1,0.4-1.2,1c0,0.1,0,0.2,0,0.3V245.8z"/>
		<path class="st1" d="M605.2,242c0,0.3-0.2,0.5-0.5,0.5c-0.3,0-0.5-0.2-0.5-0.5c0-0.3,0.2-0.5,0.5-0.5
			C605,241.5,605.2,241.7,605.2,242z M604.3,247.6v-4.4h0.8v4.4H604.3z"/>
		<path class="st1" d="M606.2,241.2h0.8v6.4h-0.8V241.2z"/>
		<path class="st1" d="M608.6,245.5c0,1.1,0.7,1.5,1.5,1.5c0.6,0,0.9-0.1,1.2-0.2l0.1,0.6c-0.3,0.1-0.8,0.3-1.4,0.3
			c-1.3,0-2.1-0.9-2.1-2.2s0.8-2.3,2-2.3c1.4,0,1.8,1.3,1.8,2.1c0,0.2,0,0.3,0,0.4H608.6z M611,245c0-0.5-0.2-1.3-1.1-1.3
			c-0.8,0-1.2,0.7-1.2,1.3H611z"/>
		<path class="st1" d="M589,255.6l-0.6,1.9h-0.8l2.1-6.1h0.9l2.1,6.1h-0.8l-0.6-1.9H589z M591,255l-0.6-1.7
			c-0.1-0.4-0.2-0.8-0.3-1.1h0c-0.1,0.4-0.2,0.7-0.3,1.1l-0.6,1.8H591z"/>
		<path class="st1" d="M596.4,257.4c-0.2,0.1-0.7,0.3-1.3,0.3c-1.3,0-2.2-0.9-2.2-2.2c0-1.3,0.9-2.3,2.3-2.3c0.5,0,0.9,0.1,1.1,0.2
			l-0.2,0.6c-0.2-0.1-0.5-0.2-0.9-0.2c-1,0-1.5,0.7-1.5,1.6c0,1,0.6,1.6,1.5,1.6c0.5,0,0.7-0.1,1-0.2L596.4,257.4z"/>
		<path class="st1" d="M600.3,257.4c-0.2,0.1-0.7,0.3-1.3,0.3c-1.3,0-2.2-0.9-2.2-2.2c0-1.3,0.9-2.3,2.3-2.3c0.5,0,0.9,0.1,1.1,0.2
			l-0.2,0.6c-0.2-0.1-0.5-0.2-0.9-0.2c-1,0-1.5,0.7-1.5,1.6c0,1,0.6,1.6,1.5,1.6c0.5,0,0.7-0.1,1-0.2L600.3,257.4z"/>
		<path class="st1" d="M601.5,255.5c0,1.1,0.7,1.5,1.5,1.5c0.6,0,0.9-0.1,1.2-0.2l0.1,0.6c-0.3,0.1-0.8,0.3-1.4,0.3
			c-1.3,0-2.1-0.9-2.1-2.2s0.8-2.3,2-2.3c1.4,0,1.8,1.3,1.8,2.1c0,0.2,0,0.3,0,0.4H601.5z M603.8,255c0-0.5-0.2-1.3-1.1-1.3
			c-0.8,0-1.2,0.7-1.2,1.3H603.8z"/>
		<path class="st1" d="M605.2,256.7c0.2,0.2,0.6,0.3,1,0.3c0.6,0,0.8-0.3,0.8-0.6c0-0.4-0.2-0.6-0.8-0.8c-0.8-0.3-1.2-0.7-1.2-1.2
			c0-0.7,0.6-1.3,1.5-1.3c0.4,0,0.8,0.1,1.1,0.3l-0.2,0.6c-0.2-0.1-0.5-0.3-0.9-0.3c-0.5,0-0.7,0.3-0.7,0.6c0,0.4,0.3,0.5,0.8,0.7
			c0.8,0.3,1.1,0.7,1.1,1.3c0,0.8-0.6,1.3-1.6,1.3c-0.5,0-0.9-0.1-1.2-0.3L605.2,256.7z"/>
		<path class="st1" d="M608.6,256.7c0.2,0.2,0.6,0.3,1,0.3c0.6,0,0.8-0.3,0.8-0.6c0-0.4-0.2-0.6-0.8-0.8c-0.8-0.3-1.2-0.7-1.2-1.2
			c0-0.7,0.6-1.3,1.5-1.3c0.4,0,0.8,0.1,1.1,0.3l-0.2,0.6c-0.2-0.1-0.5-0.3-0.9-0.3c-0.5,0-0.7,0.3-0.7,0.6c0,0.4,0.3,0.5,0.8,0.7
			c0.8,0.3,1.1,0.7,1.1,1.3c0,0.8-0.6,1.3-1.6,1.3c-0.5,0-0.9-0.1-1.2-0.3L608.6,256.7z"/>
	</g>
</g>
<g>
	<g>
		<path class="st1" d="M459,188.5c0.4,0.2,0.9,0.4,1.4,0.4c0.8,0,1.3-0.4,1.3-1c0-0.6-0.3-0.9-1.1-1.2c-1-0.4-1.6-0.9-1.6-1.7
			c0-0.9,0.8-1.6,2-1.6c0.6,0,1.1,0.1,1.3,0.3l-0.2,0.6c-0.2-0.1-0.6-0.3-1.2-0.3c-0.8,0-1.1,0.5-1.1,0.9c0,0.6,0.4,0.8,1.2,1.2
			c1,0.4,1.5,0.9,1.5,1.8c0,0.9-0.7,1.7-2.1,1.7c-0.6,0-1.2-0.2-1.5-0.4L459,188.5z"/>
		<path class="st1" d="M463.7,187.4c0,1.1,0.7,1.5,1.5,1.5c0.6,0,0.9-0.1,1.2-0.2l0.1,0.6c-0.3,0.1-0.8,0.3-1.4,0.3
			c-1.3,0-2.1-0.9-2.1-2.2s0.8-2.3,2-2.3c1.4,0,1.8,1.3,1.8,2.1c0,0.2,0,0.3,0,0.4H463.7z M466.1,186.8c0-0.5-0.2-1.3-1.1-1.3
			c-0.8,0-1.2,0.7-1.2,1.3H466.1z"/>
		<path class="st1" d="M470.7,189.3c-0.2,0.1-0.7,0.3-1.3,0.3c-1.3,0-2.2-0.9-2.2-2.2c0-1.3,0.9-2.3,2.3-2.3c0.5,0,0.9,0.1,1.1,0.2
			l-0.2,0.6c-0.2-0.1-0.5-0.2-0.9-0.2c-1,0-1.5,0.7-1.5,1.6c0,1,0.6,1.6,1.5,1.6c0.5,0,0.7-0.1,1-0.2L470.7,189.3z"/>
		<path class="st1" d="M475.1,188.2c0,0.5,0,0.8,0,1.2h-0.7l0-0.7h0c-0.2,0.4-0.7,0.8-1.4,0.8c-0.7,0-1.5-0.4-1.5-1.9v-2.5h0.8v2.4
			c0,0.8,0.3,1.4,1,1.4c0.5,0,0.9-0.4,1-0.7c0-0.1,0.1-0.3,0.1-0.4v-2.7h0.8V188.2z"/>
		<path class="st1" d="M476.3,186.4c0-0.5,0-1,0-1.4h0.7l0,0.9h0c0.2-0.6,0.7-1,1.2-1c0.1,0,0.2,0,0.2,0v0.7c-0.1,0-0.2,0-0.3,0
			c-0.6,0-1,0.4-1.1,1c0,0.1,0,0.2,0,0.4v2.3h-0.8V186.4z"/>
		<path class="st1" d="M479.5,187.4c0,1.1,0.7,1.5,1.5,1.5c0.6,0,0.9-0.1,1.2-0.2l0.1,0.6c-0.3,0.1-0.8,0.3-1.4,0.3
			c-1.3,0-2.1-0.9-2.1-2.2s0.8-2.3,2-2.3c1.4,0,1.8,1.3,1.8,2.1c0,0.2,0,0.3,0,0.4H479.5z M481.8,186.8c0-0.5-0.2-1.3-1.1-1.3
			c-0.8,0-1.2,0.7-1.2,1.3H481.8z"/>
		<path class="st1" d="M487.1,183v5.3c0,0.4,0,0.8,0,1.1h-0.7l0-0.8h0c-0.2,0.5-0.8,0.9-1.5,0.9c-1.1,0-1.9-0.9-1.9-2.2
			c0-1.5,0.9-2.3,2-2.3c0.7,0,1.1,0.3,1.3,0.7h0V183H487.1z M486.3,186.8c0-0.1,0-0.2,0-0.3c-0.1-0.5-0.5-0.9-1.1-0.9
			c-0.8,0-1.3,0.7-1.3,1.7c0,0.9,0.4,1.6,1.3,1.6c0.5,0,1-0.4,1.2-0.9c0-0.1,0-0.2,0-0.3V186.8z"/>
		<path class="st1" d="M463.7,194h-1.8v-0.7h4.5v0.7h-1.9v5.4h-0.8V194z"/>
		<path class="st1" d="M466.8,196.4c0-0.5,0-1,0-1.4h0.7l0,0.9h0c0.2-0.6,0.7-1,1.2-1c0.1,0,0.2,0,0.2,0v0.7c-0.1,0-0.2,0-0.3,0
			c-0.6,0-1,0.4-1.1,1c0,0.1,0,0.2,0,0.4v2.3h-0.8V196.4z"/>
		<path class="st1" d="M472,199.4l-0.1-0.5h0c-0.2,0.3-0.7,0.6-1.3,0.6c-0.9,0-1.3-0.6-1.3-1.3c0-1.1,0.9-1.6,2.6-1.6v-0.1
			c0-0.4-0.1-1-1-1c-0.4,0-0.8,0.1-1.1,0.3l-0.2-0.5c0.4-0.2,0.9-0.4,1.4-0.4c1.3,0,1.7,0.9,1.7,1.8v1.6c0,0.4,0,0.7,0.1,1H472z
			 M471.9,197.2c-0.9,0-1.8,0.1-1.8,1c0,0.5,0.3,0.8,0.7,0.8c0.6,0,0.9-0.4,1.1-0.7c0-0.1,0-0.2,0-0.3V197.2z"/>
		<path class="st1" d="M479.2,193.8c-0.2-0.1-0.5-0.2-0.9-0.2c-0.8,0-1.1,0.6-1.1,1.3v0.2h2.5v4.4H479v-3.8h-1.7v3.8h-0.8v-3.8h-1.8
			v3.8h-0.8v-3.8h-0.6v-0.6h0.6v-0.2c0-0.5,0.1-1.1,0.5-1.4c0.3-0.3,0.6-0.4,1.1-0.4c0.3,0,0.6,0.1,0.8,0.2l-0.2,0.6
			c-0.1-0.1-0.3-0.2-0.5-0.2c-0.3,0-0.4,0.1-0.6,0.2c-0.2,0.2-0.3,0.6-0.3,1v0.2h1.8v-0.2c0-1.2,0.7-1.9,1.9-1.9
			c0.4,0,0.8,0.1,1.1,0.3L479.2,193.8z"/>
		<path class="st1" d="M484,199.3c-0.2,0.1-0.7,0.3-1.3,0.3c-1.3,0-2.2-0.9-2.2-2.2c0-1.3,0.9-2.3,2.3-2.3c0.5,0,0.9,0.1,1.1,0.2
			l-0.2,0.6c-0.2-0.1-0.5-0.2-0.9-0.2c-1,0-1.5,0.7-1.5,1.6c0,1,0.6,1.6,1.5,1.6c0.5,0,0.7-0.1,1-0.2L484,199.3z"/>
	</g>
</g>
<line class="st3" x1="599.2" y1="235.8" x2="599.2" y2="203.8"/>
<g>
	<path class="st1" d="M271.7,231.8h3.3v0.7h-2.5v2h2.3v0.6h-2.3v2.7h-0.8V231.8z"/>
	<path class="st1" d="M276.7,232.3c0,0.3-0.2,0.5-0.5,0.5c-0.3,0-0.5-0.2-0.5-0.5c0-0.3,0.2-0.5,0.5-0.5
		C276.6,231.8,276.7,232,276.7,232.3z M275.9,237.9v-4.4h0.8v4.4H275.9z"/>
	<path class="st1" d="M277.8,237.9c0-0.3,0-0.7,0-1.1v-5.3h0.8v2.7h0c0.3-0.5,0.8-0.8,1.5-0.8c1.1,0,1.8,0.9,1.8,2.2
		c0,1.6-1,2.3-2,2.3c-0.6,0-1.1-0.2-1.5-0.8h0l0,0.7H277.8z M278.6,236.1c0,0.1,0,0.2,0,0.3c0.2,0.5,0.6,0.9,1.2,0.9
		c0.8,0,1.3-0.7,1.3-1.7c0-0.9-0.5-1.6-1.3-1.6c-0.5,0-1,0.4-1.2,1c0,0.1,0,0.2,0,0.3V236.1z"/>
	<path class="st1" d="M283.2,235.8c0,1.1,0.7,1.5,1.5,1.5c0.6,0,0.9-0.1,1.2-0.2l0.1,0.6c-0.3,0.1-0.8,0.3-1.4,0.3
		c-1.3,0-2.1-0.9-2.1-2.2s0.8-2.3,2-2.3c1.4,0,1.8,1.3,1.8,2.1c0,0.2,0,0.3,0,0.4H283.2z M285.5,235.3c0-0.5-0.2-1.3-1.1-1.3
		c-0.8,0-1.2,0.7-1.2,1.3H285.5z"/>
	<path class="st1" d="M287.1,234.9c0-0.5,0-1,0-1.4h0.7l0,0.9h0c0.2-0.6,0.7-1,1.2-1c0.1,0,0.2,0,0.2,0v0.7c-0.1,0-0.2,0-0.3,0
		c-0.6,0-1,0.4-1.1,1c0,0.1,0,0.2,0,0.4v2.3h-0.8V234.9z"/>
	<path class="st1" d="M269.7,246l-0.6,1.9h-0.8l2.1-6.1h0.9l2.1,6.1h-0.8l-0.6-1.9H269.7z M271.7,245.3l-0.6-1.7
		c-0.1-0.4-0.2-0.8-0.3-1.1h0c-0.1,0.4-0.2,0.7-0.3,1.1l-0.6,1.8H271.7z"/>
	<path class="st1" d="M277.1,247.7c-0.2,0.1-0.7,0.3-1.3,0.3c-1.3,0-2.2-0.9-2.2-2.2c0-1.3,0.9-2.3,2.3-2.3c0.5,0,0.9,0.1,1.1,0.2
		l-0.2,0.6c-0.2-0.1-0.5-0.2-0.9-0.2c-1,0-1.5,0.7-1.5,1.6c0,1,0.6,1.6,1.5,1.6c0.5,0,0.7-0.1,1-0.2L277.1,247.7z"/>
	<path class="st1" d="M281,247.7c-0.2,0.1-0.7,0.3-1.3,0.3c-1.3,0-2.2-0.9-2.2-2.2c0-1.3,0.9-2.3,2.3-2.3c0.5,0,0.9,0.1,1.1,0.2
		l-0.2,0.6c-0.2-0.1-0.5-0.2-0.9-0.2c-1,0-1.5,0.7-1.5,1.6c0,1,0.6,1.6,1.5,1.6c0.5,0,0.7-0.1,1-0.2L281,247.7z"/>
	<path class="st1" d="M282.1,245.8c0,1.1,0.7,1.5,1.5,1.5c0.6,0,0.9-0.1,1.2-0.2l0.1,0.6c-0.3,0.1-0.8,0.3-1.4,0.3
		c-1.3,0-2.1-0.9-2.1-2.2s0.8-2.3,2-2.3c1.4,0,1.8,1.3,1.8,2.1c0,0.2,0,0.3,0,0.4H282.1z M284.5,245.3c0-0.5-0.2-1.3-1.1-1.3
		c-0.8,0-1.2,0.7-1.2,1.3H284.5z"/>
	<path class="st1" d="M285.9,247.1c0.2,0.2,0.6,0.3,1,0.3c0.6,0,0.8-0.3,0.8-0.6c0-0.4-0.2-0.6-0.8-0.8c-0.8-0.3-1.2-0.7-1.2-1.2
		c0-0.7,0.6-1.3,1.5-1.3c0.4,0,0.8,0.1,1.1,0.3l-0.2,0.6c-0.2-0.1-0.5-0.3-0.9-0.3c-0.5,0-0.7,0.3-0.7,0.6c0,0.4,0.3,0.5,0.8,0.7
		c0.8,0.3,1.1,0.7,1.1,1.3c0,0.8-0.6,1.3-1.6,1.3c-0.5,0-0.9-0.1-1.2-0.3L285.9,247.1z"/>
	<path class="st1" d="M289.3,247.1c0.2,0.2,0.6,0.3,1,0.3c0.6,0,0.8-0.3,0.8-0.6c0-0.4-0.2-0.6-0.8-0.8c-0.8-0.3-1.2-0.7-1.2-1.2
		c0-0.7,0.6-1.3,1.5-1.3c0.4,0,0.8,0.1,1.1,0.3l-0.2,0.6c-0.2-0.1-0.5-0.3-0.9-0.3c-0.5,0-0.7,0.3-0.7,0.6c0,0.4,0.3,0.5,0.8,0.7
		c0.8,0.3,1.1,0.7,1.1,1.3c0,0.8-0.6,1.3-1.6,1.3c-0.5,0-0.9-0.1-1.2-0.3L289.3,247.1z"/>
</g>
<g>
	<path class="st1" d="M392.2,73h3.3v0.7H393v2h2.3v0.6H393v2.7h-0.8V73z"/>
	<path class="st1" d="M397.2,73.5c0,0.3-0.2,0.5-0.5,0.5c-0.3,0-0.5-0.2-0.5-0.5c0-0.3,0.2-0.5,0.5-0.5
		C397.1,73,397.2,73.2,397.2,73.5z M396.4,79.1v-4.4h0.8v4.4H396.4z"/>
	<path class="st1" d="M398.3,79.1c0-0.3,0-0.7,0-1.1v-5.3h0.8v2.7h0c0.3-0.5,0.8-0.8,1.5-0.8c1.1,0,1.8,0.9,1.8,2.2
		c0,1.6-1,2.3-2,2.3c-0.6,0-1.1-0.2-1.5-0.8h0l0,0.7H398.3z M399.1,77.3c0,0.1,0,0.2,0,0.3c0.2,0.5,0.6,0.9,1.2,0.9
		c0.8,0,1.3-0.7,1.3-1.7c0-0.9-0.4-1.6-1.3-1.6c-0.5,0-1,0.4-1.2,1c0,0.1,0,0.2,0,0.3V77.3z"/>
	<path class="st1" d="M403.7,77c0,1.1,0.7,1.5,1.5,1.5c0.6,0,0.9-0.1,1.2-0.2l0.1,0.6c-0.3,0.1-0.8,0.3-1.4,0.3
		c-1.3,0-2.1-0.9-2.1-2.2s0.8-2.3,2-2.3c1.4,0,1.8,1.3,1.8,2.1c0,0.2,0,0.3,0,0.4H403.7z M406,76.5c0-0.5-0.2-1.3-1.1-1.3
		c-0.8,0-1.2,0.7-1.2,1.3H406z"/>
	<path class="st1" d="M407.6,76.1c0-0.5,0-1,0-1.4h0.7l0,0.9h0c0.2-0.6,0.7-1,1.2-1c0.1,0,0.2,0,0.2,0v0.7c-0.1,0-0.2,0-0.3,0
		c-0.6,0-1,0.4-1.1,1c0,0.1,0,0.2,0,0.4v2.3h-0.8V76.1z"/>
	<path class="st1" d="M390.2,87.1l-0.6,1.9h-0.8l2.1-6.1h0.9l2.1,6.1H393l-0.6-1.9H390.2z M392.2,86.5l-0.6-1.7
		c-0.1-0.4-0.2-0.8-0.3-1.1h0c-0.1,0.4-0.2,0.7-0.3,1.1l-0.6,1.8H392.2z"/>
	<path class="st1" d="M397.6,88.9c-0.2,0.1-0.7,0.3-1.3,0.3c-1.3,0-2.2-0.9-2.2-2.2c0-1.3,0.9-2.3,2.3-2.3c0.5,0,0.9,0.1,1.1,0.2
		l-0.2,0.6c-0.2-0.1-0.5-0.2-0.9-0.2c-1,0-1.5,0.7-1.5,1.6c0,1,0.6,1.6,1.5,1.6c0.5,0,0.7-0.1,1-0.2L397.6,88.9z"/>
	<path class="st1" d="M401.5,88.9c-0.2,0.1-0.7,0.3-1.3,0.3c-1.3,0-2.2-0.9-2.2-2.2c0-1.3,0.9-2.3,2.3-2.3c0.5,0,0.9,0.1,1.1,0.2
		l-0.2,0.6c-0.2-0.1-0.5-0.2-0.9-0.2c-1,0-1.5,0.7-1.5,1.6c0,1,0.6,1.6,1.5,1.6c0.4,0,0.7-0.1,1-0.2L401.5,88.9z"/>
	<path class="st1" d="M402.6,87c0,1.1,0.7,1.5,1.5,1.5c0.6,0,0.9-0.1,1.2-0.2l0.1,0.6c-0.3,0.1-0.8,0.3-1.4,0.3
		c-1.3,0-2.1-0.9-2.1-2.2s0.8-2.3,2-2.3c1.4,0,1.8,1.3,1.8,2.1c0,0.2,0,0.3,0,0.4H402.6z M405,86.5c0-0.5-0.2-1.3-1.1-1.3
		c-0.8,0-1.2,0.7-1.2,1.3H405z"/>
	<path class="st1" d="M406.4,88.2c0.2,0.2,0.6,0.3,1,0.3c0.6,0,0.8-0.3,0.8-0.6c0-0.4-0.2-0.6-0.8-0.8c-0.8-0.3-1.2-0.7-1.2-1.2
		c0-0.7,0.6-1.3,1.5-1.3c0.4,0,0.8,0.1,1.1,0.3l-0.2,0.6c-0.2-0.1-0.5-0.3-0.9-0.3c-0.5,0-0.7,0.3-0.7,0.6c0,0.4,0.3,0.5,0.8,0.7
		c0.8,0.3,1.1,0.7,1.1,1.3c0,0.8-0.6,1.3-1.6,1.3c-0.5,0-0.9-0.1-1.2-0.3L406.4,88.2z"/>
	<path class="st1" d="M409.8,88.2c0.2,0.2,0.6,0.3,1,0.3c0.6,0,0.8-0.3,0.8-0.6c0-0.4-0.2-0.6-0.8-0.8c-0.8-0.3-1.2-0.7-1.2-1.2
		c0-0.7,0.6-1.3,1.5-1.3c0.4,0,0.8,0.1,1.1,0.3l-0.2,0.6c-0.2-0.1-0.5-0.3-0.9-0.3c-0.5,0-0.7,0.3-0.7,0.6c0,0.4,0.3,0.5,0.8,0.7
		c0.8,0.3,1.1,0.7,1.1,1.3c0,0.8-0.6,1.3-1.6,1.3c-0.5,0-0.9-0.1-1.2-0.3L409.8,88.2z"/>
</g>
<line class="st2" x1="279.9" y1="226.1" x2="279.9" y2="198.3"/>
<g>
	<path class="st1" d="M116.1,95.6c-0.3,0.1-0.9,0.3-1.6,0.3c-1.7,0-3-1.1-3-3.1c0-1.9,1.3-3.2,3.2-3.2c0.8,0,1.2,0.2,1.4,0.3
		l-0.2,0.6c-0.3-0.1-0.7-0.3-1.2-0.3c-1.4,0-2.4,0.9-2.4,2.5c0,1.5,0.9,2.4,2.3,2.4c0.5,0,1-0.1,1.3-0.3L116.1,95.6z"/>
	<path class="st1" d="M120.8,93.5c0,1.6-1.1,2.3-2.2,2.3c-1.2,0-2.1-0.9-2.1-2.2c0-1.5,1-2.3,2.2-2.3
		C120,91.3,120.8,92.2,120.8,93.5z M117.4,93.6c0,1,0.5,1.7,1.3,1.7c0.8,0,1.3-0.7,1.3-1.7c0-0.7-0.4-1.7-1.3-1.7
		C117.8,91.9,117.4,92.8,117.4,93.6z"/>
	<path class="st1" d="M121.6,92.8c0-0.6,0-1,0-1.4h0.7l0,0.7h0c0.3-0.5,0.8-0.8,1.5-0.8c1.1,0,1.8,0.9,1.8,2.2c0,1.6-1,2.3-2,2.3
		c-0.6,0-1.1-0.3-1.3-0.7h0v2.4h-0.8V92.8z M122.4,94c0,0.1,0,0.2,0,0.3c0.1,0.5,0.6,0.9,1.2,0.9c0.8,0,1.3-0.7,1.3-1.7
		c0-0.9-0.5-1.6-1.3-1.6c-0.5,0-1,0.4-1.2,1c0,0.1-0.1,0.2-0.1,0.3V94z"/>
	<path class="st1" d="M126.6,92.8c0-0.6,0-1,0-1.4h0.7l0,0.7h0c0.3-0.5,0.8-0.8,1.5-0.8c1.1,0,1.8,0.9,1.8,2.2c0,1.6-1,2.3-2,2.3
		c-0.6,0-1.1-0.3-1.3-0.7h0v2.4h-0.8V92.8z M127.4,94c0,0.1,0,0.2,0,0.3c0.1,0.5,0.6,0.9,1.2,0.9c0.8,0,1.3-0.7,1.3-1.7
		c0-0.9-0.5-1.6-1.3-1.6c-0.5,0-1,0.4-1.2,1c0,0.1-0.1,0.2-0.1,0.3V94z"/>
	<path class="st1" d="M132,93.7c0,1.1,0.7,1.5,1.5,1.5c0.6,0,0.9-0.1,1.2-0.2l0.1,0.6c-0.3,0.1-0.8,0.3-1.4,0.3
		c-1.3,0-2.1-0.9-2.1-2.2s0.8-2.3,2-2.3c1.4,0,1.8,1.3,1.8,2.1c0,0.2,0,0.3,0,0.4H132z M134.3,93.1c0-0.5-0.2-1.3-1.1-1.3
		c-0.8,0-1.2,0.7-1.2,1.3H134.3z"/>
	<path class="st1" d="M135.9,92.8c0-0.5,0-1,0-1.4h0.7l0,0.9h0c0.2-0.6,0.7-1,1.2-1c0.1,0,0.2,0,0.2,0v0.7c-0.1,0-0.2,0-0.3,0
		c-0.6,0-1,0.4-1.1,1c0,0.1,0,0.2,0,0.4v2.3h-0.8V92.8z"/>
	<path class="st1" d="M114.2,103.8l-0.6,1.9h-0.8l2.1-6.1h0.9l2.1,6.1H117l-0.6-1.9H114.2z M116.2,103.2l-0.6-1.7
		c-0.1-0.4-0.2-0.8-0.3-1.1h0c-0.1,0.4-0.2,0.7-0.3,1.1l-0.6,1.8H116.2z"/>
	<path class="st1" d="M121.6,105.6c-0.2,0.1-0.7,0.3-1.3,0.3c-1.3,0-2.2-0.9-2.2-2.2c0-1.3,0.9-2.3,2.3-2.3c0.5,0,0.9,0.1,1.1,0.2
		l-0.2,0.6c-0.2-0.1-0.5-0.2-0.9-0.2c-1,0-1.5,0.7-1.5,1.6c0,1,0.6,1.6,1.5,1.6c0.5,0,0.7-0.1,1-0.2L121.6,105.6z"/>
	<path class="st1" d="M125.5,105.6c-0.2,0.1-0.7,0.3-1.3,0.3c-1.3,0-2.2-0.9-2.2-2.2c0-1.3,0.9-2.3,2.3-2.3c0.5,0,0.9,0.1,1.1,0.2
		l-0.2,0.6c-0.2-0.1-0.5-0.2-0.9-0.2c-1,0-1.5,0.7-1.5,1.6c0,1,0.6,1.6,1.5,1.6c0.5,0,0.7-0.1,1-0.2L125.5,105.6z"/>
	<path class="st1" d="M126.6,103.7c0,1.1,0.7,1.5,1.5,1.5c0.6,0,0.9-0.1,1.2-0.2l0.1,0.6c-0.3,0.1-0.8,0.3-1.4,0.3
		c-1.3,0-2.1-0.9-2.1-2.2s0.8-2.3,2-2.3c1.4,0,1.8,1.3,1.8,2.1c0,0.2,0,0.3,0,0.4H126.6z M129,103.1c0-0.5-0.2-1.3-1.1-1.3
		c-0.8,0-1.2,0.7-1.2,1.3H129z"/>
	<path class="st1" d="M130.4,104.9c0.2,0.2,0.6,0.3,1,0.3c0.6,0,0.8-0.3,0.8-0.6c0-0.4-0.2-0.6-0.8-0.8c-0.8-0.3-1.2-0.7-1.2-1.2
		c0-0.7,0.6-1.3,1.5-1.3c0.4,0,0.8,0.1,1.1,0.3l-0.2,0.6c-0.2-0.1-0.5-0.3-0.9-0.3c-0.5,0-0.7,0.3-0.7,0.6c0,0.4,0.3,0.5,0.8,0.7
		c0.8,0.3,1.1,0.7,1.1,1.3c0,0.8-0.6,1.3-1.6,1.3c-0.5,0-0.9-0.1-1.2-0.3L130.4,104.9z"/>
	<path class="st1" d="M133.8,104.9c0.2,0.2,0.6,0.3,1,0.3c0.6,0,0.8-0.3,0.8-0.6c0-0.4-0.2-0.6-0.8-0.8c-0.8-0.3-1.2-0.7-1.2-1.2
		c0-0.7,0.6-1.3,1.5-1.3c0.4,0,0.8,0.1,1.1,0.3l-0.2,0.6c-0.2-0.1-0.5-0.3-0.9-0.3c-0.5,0-0.7,0.3-0.7,0.6c0,0.4,0.3,0.5,0.8,0.7
		c0.8,0.3,1.1,0.7,1.1,1.3c0,0.8-0.6,1.3-1.6,1.3c-0.5,0-0.9-0.1-1.2-0.3L133.8,104.9z"/>
</g>
<line class="st4" x1="124.3" y1="127.9" x2="124.3" y2="110"/>
<g>
	<path class="st1" d="M300.1,54.8c-0.3,0.1-0.9,0.3-1.6,0.3c-1.7,0-3-1.1-3-3.1c0-1.9,1.3-3.2,3.2-3.2c0.8,0,1.2,0.2,1.4,0.3
		l-0.2,0.6c-0.3-0.1-0.7-0.3-1.2-0.3c-1.4,0-2.4,0.9-2.4,2.5c0,1.5,0.9,2.4,2.3,2.4c0.5,0,1-0.1,1.3-0.3L300.1,54.8z"/>
	<path class="st1" d="M304.8,52.8c0,1.6-1.1,2.3-2.2,2.3c-1.2,0-2.1-0.9-2.1-2.2c0-1.5,1-2.3,2.2-2.3
		C304,50.5,304.8,51.5,304.8,52.8z M301.4,52.8c0,1,0.5,1.7,1.3,1.7c0.8,0,1.3-0.7,1.3-1.7c0-0.7-0.4-1.7-1.3-1.7
		C301.8,51.1,301.4,52,301.4,52.8z"/>
	<path class="st1" d="M305.6,52.1c0-0.6,0-1,0-1.4h0.7l0,0.7h0c0.3-0.5,0.8-0.8,1.5-0.8c1.1,0,1.8,0.9,1.8,2.2c0,1.6-1,2.3-2,2.3
		c-0.6,0-1.1-0.3-1.3-0.7h0v2.4h-0.8V52.1z M306.4,53.2c0,0.1,0,0.2,0,0.3c0.1,0.5,0.6,0.9,1.2,0.9c0.8,0,1.3-0.7,1.3-1.7
		c0-0.9-0.5-1.6-1.3-1.6c-0.5,0-1,0.4-1.2,1c0,0.1-0.1,0.2-0.1,0.3V53.2z"/>
	<path class="st1" d="M310.6,52.1c0-0.6,0-1,0-1.4h0.7l0,0.7h0c0.3-0.5,0.8-0.8,1.5-0.8c1.1,0,1.8,0.9,1.8,2.2c0,1.6-1,2.3-2,2.3
		c-0.6,0-1.1-0.3-1.3-0.7h0v2.4h-0.8V52.1z M311.4,53.2c0,0.1,0,0.2,0,0.3c0.1,0.5,0.6,0.9,1.2,0.9c0.8,0,1.3-0.7,1.3-1.7
		c0-0.9-0.5-1.6-1.3-1.6c-0.5,0-1,0.4-1.2,1c0,0.1-0.1,0.2-0.1,0.3V53.2z"/>
	<path class="st1" d="M316,53c0,1.1,0.7,1.5,1.5,1.5c0.6,0,0.9-0.1,1.2-0.2l0.1,0.6c-0.3,0.1-0.8,0.3-1.4,0.3
		c-1.3,0-2.1-0.9-2.1-2.2s0.8-2.3,2-2.3c1.4,0,1.8,1.3,1.8,2.1c0,0.2,0,0.3,0,0.4H316z M318.3,52.4c0-0.5-0.2-1.3-1.1-1.3
		c-0.8,0-1.2,0.7-1.2,1.3H318.3z"/>
	<path class="st1" d="M319.9,52c0-0.5,0-1,0-1.4h0.7l0,0.9h0c0.2-0.6,0.7-1,1.2-1c0.1,0,0.2,0,0.2,0v0.7c-0.1,0-0.2,0-0.3,0
		c-0.6,0-1,0.4-1.1,1c0,0.1,0,0.2,0,0.4V55h-0.8V52z"/>
	<path class="st1" d="M298.2,63.1l-0.6,1.9h-0.8l2.1-6.1h0.9l2.1,6.1H301l-0.6-1.9H298.2z M300.2,62.5l-0.6-1.7
		c-0.1-0.4-0.2-0.8-0.3-1.1h0c-0.1,0.4-0.2,0.7-0.3,1.1l-0.6,1.8H300.2z"/>
	<path class="st1" d="M305.6,64.8c-0.2,0.1-0.7,0.3-1.3,0.3c-1.3,0-2.2-0.9-2.2-2.2c0-1.3,0.9-2.3,2.3-2.3c0.5,0,0.9,0.1,1.1,0.2
		l-0.2,0.6c-0.2-0.1-0.5-0.2-0.9-0.2c-1,0-1.5,0.7-1.5,1.6c0,1,0.6,1.6,1.5,1.6c0.5,0,0.7-0.1,1-0.2L305.6,64.8z"/>
	<path class="st1" d="M309.5,64.8c-0.2,0.1-0.7,0.3-1.3,0.3c-1.3,0-2.2-0.9-2.2-2.2c0-1.3,0.9-2.3,2.3-2.3c0.5,0,0.9,0.1,1.1,0.2
		l-0.2,0.6c-0.2-0.1-0.5-0.2-0.9-0.2c-1,0-1.5,0.7-1.5,1.6c0,1,0.6,1.6,1.5,1.6c0.5,0,0.7-0.1,1-0.2L309.5,64.8z"/>
	<path class="st1" d="M310.6,63c0,1.1,0.7,1.5,1.5,1.5c0.6,0,0.9-0.1,1.2-0.2l0.1,0.6c-0.3,0.1-0.8,0.3-1.4,0.3
		c-1.3,0-2.1-0.9-2.1-2.2s0.8-2.3,2-2.3c1.4,0,1.8,1.3,1.8,2.1c0,0.2,0,0.3,0,0.4H310.6z M313,62.4c0-0.5-0.2-1.3-1.1-1.3
		c-0.8,0-1.2,0.7-1.2,1.3H313z"/>
	<path class="st1" d="M314.4,64.2c0.2,0.2,0.6,0.3,1,0.3c0.6,0,0.8-0.3,0.8-0.6c0-0.4-0.2-0.6-0.8-0.8c-0.8-0.3-1.2-0.7-1.2-1.2
		c0-0.7,0.6-1.3,1.5-1.3c0.4,0,0.8,0.1,1.1,0.3l-0.2,0.6c-0.2-0.1-0.5-0.3-0.9-0.3c-0.5,0-0.7,0.3-0.7,0.6c0,0.4,0.3,0.5,0.8,0.7
		c0.8,0.3,1.1,0.7,1.1,1.3c0,0.8-0.6,1.3-1.6,1.3c-0.5,0-0.9-0.1-1.2-0.3L314.4,64.2z"/>
	<path class="st1" d="M317.8,64.2c0.2,0.2,0.6,0.3,1,0.3c0.6,0,0.8-0.3,0.8-0.6c0-0.4-0.2-0.6-0.8-0.8c-0.8-0.3-1.2-0.7-1.2-1.2
		c0-0.7,0.6-1.3,1.5-1.3c0.4,0,0.8,0.1,1.1,0.3l-0.2,0.6c-0.2-0.1-0.5-0.3-0.9-0.3c-0.5,0-0.7,0.3-0.7,0.6c0,0.4,0.3,0.5,0.8,0.7
		c0.8,0.3,1.1,0.7,1.1,1.3c0,0.8-0.6,1.3-1.6,1.3c-0.5,0-0.9-0.1-1.2-0.3L317.8,64.2z"/>
</g>
<line class="st4" x1="308.3" y1="87.2" x2="308.3" y2="69.3"/>
<line class="st2" x1="400.3" y1="111.2" x2="400.3" y2="93.3"/>
<g>
	<circle class="st5" cx="138.4" cy="146.5" r="25.4"/>
	<circle class="st6" cx="143.7" cy="199.6" r="25.4"/>
	<circle class="st6" cx="104.6" cy="186.4" r="21.9"/>
	<circle class="st6" cx="179.8" cy="157.4" r="21.9"/>
	<circle class="st6" cx="175.2" cy="195.5" r="21.9"/>
	<circle class="st6" cx="109.7" cy="161.5" r="10.7"/>
	<circle class="st6" cx="206.2" cy="179.8" r="26.7"/>
</g>
<path class="st7" d="M201.2,154.6c-1.5,0-3,0.2-4.5,0.4c-1.6-9.2-9.7-16.3-19.4-16.3c-5.9,0-11.1,2.6-14.7,6.6
	c-1.6-11.1-11.1-19.7-22.7-19.7c-12.7,0-23,10.3-23,23c0,1.6,0.2,3.1,0.5,4.5c-1.1-0.4-2.2-0.6-3.4-0.6c-5.3,0-9.6,4.3-9.6,9.6
	c0,1.2,0.2,2.3,0.6,3.3c-8.7,2-15.3,9.8-15.3,19.2c0,10.9,8.8,19.7,19.7,19.7c4.8,0,9.2-1.7,12.6-4.6c1.6,11.1,11.1,19.7,22.7,19.7
	c7.7,0,14.4-3.8,18.6-9.5c2.9,1.7,6.3,2.7,9.9,2.7c8.1,0,15.1-4.9,18.2-12c3,1.4,6.3,2.1,9.8,2.1c13.3,0,24.1-10.8,24.1-24.1
	C225.3,165.3,214.5,154.6,201.2,154.6z"/>
<g>
	<circle class="st5" cx="322.9" cy="116.6" r="34.9"/>
	<circle class="st6" cx="330.2" cy="189.5" r="34.9"/>
	<circle class="st6" cx="276.5" cy="171.4" r="30"/>
	<circle class="st6" cx="379.8" cy="131.6" r="30"/>
	<circle class="st6" cx="373.5" cy="183.9" r="30"/>
	<circle class="st6" cx="283.5" cy="137.2" r="14.7"/>
	<circle class="st6" cx="416" cy="162.3" r="36.6"/>
</g>
<path class="st7" d="M408.7,127.7c-2.1,0-4.1,0.2-6.1,0.6c-2.3-12.7-13.3-22.3-26.7-22.3c-8,0-15.2,3.5-20.2,9.1
	c-2.2-15.3-15.3-27-31.2-27c-17.4,0-31.5,14.1-31.5,31.5c0,2.1,0.2,4.2,0.6,6.2c-1.5-0.6-3.1-0.9-4.7-0.9c-7.3,0-13.2,5.9-13.2,13.2
	c0,1.6,0.3,3.1,0.8,4.5c-12,2.8-21,13.5-21,26.4c0,15,12.1,27.1,27.1,27.1c6.6,0,12.7-2.4,17.4-6.3c2.2,15.3,15.3,27.1,31.2,27.1
	c10.5,0,19.8-5.2,25.5-13.1c4,2.3,8.6,3.6,13.5,3.6c11.2,0,20.8-6.8,24.9-16.5c4.1,1.9,8.7,2.9,13.5,2.9c18.3,0,33.1-14.8,33.1-33.1
	S427,127.7,408.7,127.7z"/>
<g>
	<circle class="st5" cx="553.1" cy="146.5" r="25.4"/>
	<circle class="st6" cx="558.4" cy="199.6" r="25.4"/>
	<circle class="st6" cx="519.3" cy="186.4" r="21.9"/>
	<circle class="st5" cx="594.5" cy="157.4" r="21.9"/>
	<circle class="st8" cx="593.8" cy="195.5" r="21.9"/>
	<circle class="st6" cx="524.3" cy="161.5" r="10.7"/>
	<circle class="st8" cx="620.9" cy="179.8" r="26.7"/>
</g>
<path class="st7" d="M615.8,154.6c-1.5,0-3,0.2-4.5,0.4c-1.6-9.2-9.7-16.3-19.4-16.3c-5.9,0-11.1,2.6-14.7,6.6
	c-1.6-11.1-11.1-19.7-22.7-19.7c-12.7,0-23,10.3-23,23c0,1.6,0.2,3.1,0.5,4.5c-1.1-0.4-2.2-0.6-3.4-0.6c-5.3,0-9.6,4.3-9.6,9.6
	c0,1.2,0.2,2.3,0.6,3.3c-8.7,2-15.3,9.8-15.3,19.2c0,10.9,8.8,19.7,19.7,19.7c4.8,0,9.2-1.7,12.6-4.6c1.6,11.1,11.1,19.7,22.7,19.7
	c7.7,0,14.4-3.8,18.6-9.5c2.9,1.7,6.3,2.7,9.9,2.7c8.1,0,15.1-4.9,18.2-12c3,1.4,6.3,2.1,9.8,2.1c13.3,0,24.1-10.8,24.1-24.1
	C639.9,165.3,629.2,154.6,615.8,154.6z"/>
<g>
	<path class="st1" d="M523.4,22v-6.1h0.9l1.9,3.1c0.5,0.7,0.8,1.4,1.1,2l0,0c-0.1-0.8-0.1-1.5-0.1-2.5v-2.5h0.7V22h-0.8l-1.9-3.1
		c-0.4-0.7-0.8-1.4-1.1-2l0,0c0,0.8,0.1,1.5,0.1,2.5V22H523.4z"/>
	<path class="st1" d="M532.8,20.8c0,0.5,0,0.8,0,1.2h-0.7l0-0.7h0c-0.2,0.4-0.7,0.8-1.4,0.8c-0.7,0-1.5-0.4-1.5-1.9v-2.5h0.8v2.4
		c0,0.8,0.3,1.4,1,1.4c0.5,0,0.9-0.4,1-0.7c0-0.1,0.1-0.3,0.1-0.4v-2.7h0.8V20.8z"/>
	<path class="st1" d="M536.3,22l-0.1-0.5h0c-0.2,0.3-0.7,0.6-1.3,0.6c-0.9,0-1.3-0.6-1.3-1.3c0-1.1,0.9-1.6,2.6-1.6v-0.1
		c0-0.4-0.1-1-1-1c-0.4,0-0.8,0.1-1.1,0.3l-0.2-0.5c0.4-0.2,0.9-0.4,1.4-0.4c1.3,0,1.7,0.9,1.7,1.8V21c0,0.4,0,0.7,0.1,1H536.3z
		 M536.2,19.8c-0.9,0-1.8,0.1-1.8,1c0,0.5,0.3,0.8,0.7,0.8c0.6,0,0.9-0.4,1.1-0.7c0-0.1,0-0.2,0-0.3V19.8z"/>
	<path class="st1" d="M541.8,17.6c0,0.3,0,0.7,0,1.2v2.5c0,1-0.2,1.6-0.6,2c-0.4,0.4-1,0.5-1.6,0.5c-0.5,0-1.1-0.1-1.4-0.4l0.2-0.6
		c0.3,0.2,0.7,0.3,1.3,0.3c0.8,0,1.4-0.4,1.4-1.5v-0.5h0c-0.2,0.4-0.7,0.7-1.4,0.7c-1.1,0-1.9-0.9-1.9-2.1c0-1.5,1-2.3,2-2.3
		c0.8,0,1.2,0.4,1.4,0.8h0l0-0.7H541.8z M541,19.4c0-0.1,0-0.3,0-0.4c-0.1-0.5-0.5-0.8-1.1-0.8c-0.8,0-1.3,0.6-1.3,1.6
		c0,0.9,0.4,1.6,1.3,1.6c0.5,0,0.9-0.3,1.1-0.8c0-0.1,0.1-0.3,0.1-0.4V19.4z"/>
	<path class="st1" d="M543.4,20c0,1.1,0.7,1.5,1.5,1.5c0.6,0,0.9-0.1,1.2-0.2l0.1,0.6c-0.3,0.1-0.8,0.3-1.4,0.3
		c-1.3,0-2.1-0.9-2.1-2.2s0.8-2.3,2-2.3c1.4,0,1.8,1.3,1.8,2.1c0,0.2,0,0.3,0,0.4H543.4z M545.7,19.4c0-0.5-0.2-1.3-1.1-1.3
		c-0.8,0-1.2,0.7-1.2,1.3H545.7z"/>
	<path class="st1" d="M549,22v-6.1h0.9l1.9,3.1c0.5,0.7,0.8,1.4,1.1,2l0,0c-0.1-0.8-0.1-1.5-0.1-2.5v-2.5h0.7V22h-0.8l-1.9-3.1
		c-0.4-0.7-0.8-1.4-1.1-2l0,0c0,0.8,0.1,1.5,0.1,2.5V22H549z"/>
	<path class="st1" d="M555.2,20c0,1.1,0.7,1.5,1.5,1.5c0.6,0,0.9-0.1,1.2-0.2l0.1,0.6c-0.3,0.1-0.8,0.3-1.4,0.3
		c-1.3,0-2.1-0.9-2.1-2.2s0.8-2.3,2-2.3c1.4,0,1.8,1.3,1.8,2.1c0,0.2,0,0.3,0,0.4H555.2z M557.5,19.4c0-0.5-0.2-1.3-1.1-1.3
		c-0.8,0-1.2,0.7-1.2,1.3H557.5z"/>
	<path class="st1" d="M560,16.4v1.3h1.1v0.6H560v2.3c0,0.5,0.2,0.8,0.6,0.8c0.2,0,0.4,0,0.5-0.1l0,0.6c-0.2,0.1-0.4,0.1-0.7,0.1
		c-0.4,0-0.7-0.1-0.9-0.3c-0.2-0.2-0.3-0.6-0.3-1.1v-2.4h-0.7v-0.6h0.7v-1L560,16.4z"/>
	<path class="st1" d="M562.2,17.6l0.6,2.2c0.1,0.5,0.2,0.9,0.3,1.4h0c0.1-0.4,0.2-0.9,0.4-1.4l0.7-2.2h0.7l0.7,2.2
		c0.2,0.5,0.3,1,0.4,1.4h0c0.1-0.4,0.2-0.9,0.3-1.4l0.6-2.2h0.8l-1.4,4.4h-0.7l-0.7-2.1c-0.2-0.5-0.3-0.9-0.4-1.4h0
		c-0.1,0.5-0.2,1-0.4,1.4l-0.7,2.1h-0.7l-1.3-4.4H562.2z"/>
	<path class="st1" d="M572.3,19.8c0,1.6-1.1,2.3-2.2,2.3c-1.2,0-2.1-0.9-2.1-2.2c0-1.5,1-2.3,2.2-2.3
		C571.4,17.5,572.3,18.5,572.3,19.8z M568.8,19.8c0,1,0.5,1.7,1.3,1.7c0.8,0,1.3-0.7,1.3-1.7c0-0.7-0.4-1.7-1.3-1.7
		C569.2,18.1,568.8,19,568.8,19.8z"/>
	<path class="st1" d="M573.1,19c0-0.5,0-1,0-1.4h0.7l0,0.9h0c0.2-0.6,0.7-1,1.2-1c0.1,0,0.2,0,0.2,0v0.7c-0.1,0-0.2,0-0.3,0
		c-0.6,0-1,0.4-1.1,1c0,0.1,0,0.2,0,0.4V22h-0.8V19z"/>
	<path class="st1" d="M576.6,19.6L576.6,19.6c0.1-0.2,0.3-0.3,0.4-0.5l1.3-1.5h1l-1.7,1.8l1.9,2.6h-1l-1.5-2.1l-0.4,0.5V22h-0.8
		v-6.4h0.8V19.6z"/>
	<path class="st1" d="M579.8,21.2c0.2,0.2,0.6,0.3,1,0.3c0.6,0,0.8-0.3,0.8-0.6c0-0.4-0.2-0.6-0.8-0.8c-0.8-0.3-1.2-0.7-1.2-1.2
		c0-0.7,0.6-1.3,1.5-1.3c0.4,0,0.8,0.1,1.1,0.3l-0.2,0.6c-0.2-0.1-0.5-0.3-0.9-0.3c-0.5,0-0.7,0.3-0.7,0.6c0,0.4,0.3,0.5,0.8,0.7
		c0.8,0.3,1.1,0.7,1.1,1.3c0,0.8-0.6,1.3-1.6,1.3c-0.5,0-0.9-0.1-1.2-0.3L579.8,21.2z"/>
	<path class="st1" d="M524.8,32l-2-6.1h0.8l0.9,3c0.3,0.8,0.5,1.6,0.6,2.3h0c0.2-0.7,0.4-1.5,0.7-2.3l1-3h0.8l-2.2,6.1H524.8z"/>
	<path class="st1" d="M528.3,32v-6.1h0.9l1.9,3.1c0.5,0.7,0.8,1.4,1.1,2l0,0c-0.1-0.8-0.1-1.5-0.1-2.5v-2.5h0.7V32H532l-1.9-3.1
		c-0.4-0.7-0.8-1.4-1.1-2l0,0c0,0.8,0.1,1.5,0.1,2.5V32H528.3z"/>
	<path class="st1" d="M533.9,31.1c0.4,0.2,0.9,0.4,1.4,0.4c0.8,0,1.3-0.4,1.3-1c0-0.6-0.3-0.9-1.1-1.2c-1-0.4-1.6-0.9-1.6-1.7
		c0-0.9,0.8-1.6,2-1.6c0.6,0,1.1,0.1,1.3,0.3l-0.2,0.6c-0.2-0.1-0.6-0.3-1.2-0.3c-0.8,0-1.1,0.5-1.1,0.9c0,0.6,0.4,0.8,1.2,1.2
		c1,0.4,1.5,0.9,1.5,1.8c0,0.9-0.7,1.7-2.1,1.7c-0.6,0-1.2-0.2-1.5-0.4L533.9,31.1z"/>
	<path class="st1" d="M539.9,31.1c0.4,0.2,0.9,0.4,1.4,0.4c0.8,0,1.3-0.4,1.3-1c0-0.6-0.3-0.9-1.1-1.2c-1-0.4-1.6-0.9-1.6-1.7
		c0-0.9,0.8-1.6,2-1.6c0.6,0,1.1,0.1,1.3,0.3l-0.2,0.6c-0.2-0.1-0.6-0.3-1.2-0.3c-0.8,0-1.1,0.5-1.1,0.9c0,0.6,0.4,0.8,1.2,1.2
		c1,0.4,1.5,0.9,1.5,1.8c0,0.9-0.7,1.7-2.1,1.7c-0.6,0-1.2-0.2-1.5-0.4L539.9,31.1z"/>
	<path class="st1" d="M548.2,29.8c0,1.6-1.1,2.3-2.2,2.3c-1.2,0-2.1-0.9-2.1-2.2c0-1.5,1-2.3,2.2-2.3
		C547.3,27.5,548.2,28.5,548.2,29.8z M544.7,29.8c0,1,0.5,1.7,1.3,1.7c0.8,0,1.3-0.7,1.3-1.7c0-0.7-0.4-1.7-1.3-1.7
		C545.1,28.1,544.7,29,544.7,29.8z"/>
	<path class="st1" d="M549,25.6h0.8V32H549V25.6z"/>
	<path class="st1" d="M554.6,30.8c0,0.5,0,0.8,0,1.2h-0.7l0-0.7h0c-0.2,0.4-0.7,0.8-1.4,0.8c-0.7,0-1.5-0.4-1.5-1.9v-2.5h0.8v2.4
		c0,0.8,0.3,1.4,1,1.4c0.5,0,0.9-0.4,1-0.7c0-0.1,0.1-0.3,0.1-0.4v-2.7h0.8V30.8z"/>
	<path class="st1" d="M556.7,26.4v1.3h1.1v0.6h-1.1v2.3c0,0.5,0.2,0.8,0.6,0.8c0.2,0,0.4,0,0.5-0.1l0,0.6c-0.2,0.1-0.4,0.1-0.7,0.1
		c-0.4,0-0.7-0.1-0.9-0.3c-0.2-0.2-0.3-0.6-0.3-1.1v-2.4h-0.7v-0.6h0.7v-1L556.7,26.4z"/>
	<path class="st1" d="M559.4,26.4c0,0.3-0.2,0.5-0.5,0.5c-0.3,0-0.5-0.2-0.5-0.5c0-0.3,0.2-0.5,0.5-0.5
		C559.2,25.9,559.4,26.1,559.4,26.4z M558.5,32v-4.4h0.8V32H558.5z"/>
	<path class="st1" d="M564.4,29.8c0,1.6-1.1,2.3-2.2,2.3c-1.2,0-2.1-0.9-2.1-2.2c0-1.5,1-2.3,2.2-2.3
		C563.5,27.5,564.4,28.5,564.4,29.8z M560.9,29.8c0,1,0.5,1.7,1.3,1.7c0.8,0,1.3-0.7,1.3-1.7c0-0.7-0.4-1.7-1.3-1.7
		S560.9,29,560.9,29.8z"/>
	<path class="st1" d="M565.2,28.8c0-0.5,0-0.8,0-1.2h0.7l0,0.7h0c0.2-0.4,0.7-0.8,1.4-0.8c0.6,0,1.5,0.4,1.5,1.9V32h-0.8v-2.5
		c0-0.7-0.3-1.3-1-1.3c-0.5,0-0.9,0.4-1.1,0.8c0,0.1-0.1,0.2-0.1,0.4V32h-0.8V28.8z"/>
</g>
<g>
	<path class="st1" d="M627,93.9v6.1h-0.8v-6.1H627z"/>
	<path class="st1" d="M628.1,96.8c0-0.5,0-0.8,0-1.2h0.7l0,0.7h0c0.2-0.4,0.7-0.8,1.4-0.8c0.6,0,1.5,0.4,1.5,1.9v2.6h-0.8v-2.5
		c0-0.7-0.3-1.3-1-1.3c-0.5,0-0.9,0.4-1.1,0.8c0,0.1-0.1,0.2-0.1,0.4v2.6h-0.8V96.8z"/>
	<path class="st1" d="M633.9,94.4v1.3h1.1v0.6h-1.1v2.3c0,0.5,0.2,0.8,0.6,0.8c0.2,0,0.4,0,0.5-0.1l0,0.6c-0.2,0.1-0.4,0.1-0.7,0.1
		c-0.4,0-0.7-0.1-0.9-0.3c-0.2-0.2-0.3-0.6-0.3-1.1v-2.4h-0.7v-0.6h0.7v-1L633.9,94.4z"/>
	<path class="st1" d="M636.2,97.9c0,1.1,0.7,1.5,1.5,1.5c0.6,0,0.9-0.1,1.2-0.2l0.1,0.6c-0.3,0.1-0.8,0.3-1.4,0.3
		c-1.3,0-2.1-0.9-2.1-2.2s0.8-2.3,2-2.3c1.4,0,1.8,1.3,1.8,2.1c0,0.2,0,0.3,0,0.4H636.2z M638.5,97.4c0-0.5-0.2-1.3-1.1-1.3
		c-0.8,0-1.2,0.7-1.2,1.3H638.5z"/>
	<path class="st1" d="M640.1,97c0-0.5,0-1,0-1.4h0.7l0,0.9h0c0.2-0.6,0.7-1,1.2-1c0.1,0,0.2,0,0.2,0v0.7c-0.1,0-0.2,0-0.3,0
		c-0.6,0-1,0.4-1.1,1c0,0.1,0,0.2,0,0.4v2.3h-0.8V97z"/>
	<path class="st1" d="M642.8,96.8c0-0.5,0-0.8,0-1.2h0.7l0,0.7h0c0.2-0.4,0.7-0.8,1.4-0.8c0.6,0,1.5,0.4,1.5,1.9v2.6h-0.8v-2.5
		c0-0.7-0.3-1.3-1-1.3c-0.5,0-0.9,0.4-1.1,0.8c0,0.1-0.1,0.2-0.1,0.4v2.6h-0.8V96.8z"/>
	<path class="st1" d="M650.1,100l-0.1-0.5h0c-0.2,0.3-0.7,0.6-1.3,0.6c-0.9,0-1.3-0.6-1.3-1.3c0-1.1,0.9-1.6,2.6-1.6v-0.1
		c0-0.4-0.1-1-1-1c-0.4,0-0.8,0.1-1.1,0.3l-0.2-0.5c0.4-0.2,0.9-0.4,1.4-0.4c1.3,0,1.7,0.9,1.7,1.8v1.6c0,0.4,0,0.7,0.1,1H650.1z
		 M649.9,97.8c-0.9,0-1.8,0.1-1.8,1c0,0.5,0.3,0.8,0.7,0.8c0.6,0,0.9-0.4,1.1-0.7c0-0.1,0-0.2,0-0.3V97.8z"/>
	<path class="st1" d="M652.8,94.4v1.3h1.1v0.6h-1.1v2.3c0,0.5,0.2,0.8,0.6,0.8c0.2,0,0.4,0,0.5-0.1l0,0.6c-0.2,0.1-0.4,0.1-0.7,0.1
		c-0.4,0-0.7-0.1-0.9-0.3c-0.2-0.2-0.3-0.6-0.3-1.1v-2.4h-0.7v-0.6h0.7v-1L652.8,94.4z"/>
	<path class="st1" d="M655.5,94.4c0,0.3-0.2,0.5-0.5,0.5c-0.3,0-0.5-0.2-0.5-0.5c0-0.3,0.2-0.5,0.5-0.5
		C655.3,93.9,655.5,94.1,655.5,94.4z M654.6,100v-4.4h0.8v4.4H654.6z"/>
	<path class="st1" d="M660.5,97.8c0,1.6-1.1,2.3-2.2,2.3c-1.2,0-2.1-0.9-2.1-2.2c0-1.5,1-2.3,2.2-2.3
		C659.6,95.5,660.5,96.4,660.5,97.8z M657,97.8c0,1,0.5,1.7,1.3,1.7c0.8,0,1.3-0.7,1.3-1.7c0-0.7-0.4-1.7-1.3-1.7
		C657.4,96.1,657,97,657,97.8z"/>
	<path class="st1" d="M661.3,96.8c0-0.5,0-0.8,0-1.2h0.7l0,0.7h0c0.2-0.4,0.7-0.8,1.4-0.8c0.6,0,1.5,0.4,1.5,1.9v2.6h-0.8v-2.5
		c0-0.7-0.3-1.3-1-1.3c-0.5,0-0.9,0.4-1.1,0.8c0,0.1-0.1,0.2-0.1,0.4v2.6h-0.8V96.8z"/>
	<path class="st1" d="M668.5,100l-0.1-0.5h0c-0.2,0.3-0.7,0.6-1.3,0.6c-0.9,0-1.3-0.6-1.3-1.3c0-1.1,0.9-1.6,2.6-1.6v-0.1
		c0-0.4-0.1-1-1-1c-0.4,0-0.8,0.1-1.1,0.3l-0.2-0.5c0.4-0.2,0.9-0.4,1.4-0.4c1.3,0,1.7,0.9,1.7,1.8v1.6c0,0.4,0,0.7,0.1,1H668.5z
		 M668.4,97.8c-0.9,0-1.8,0.1-1.8,1c0,0.5,0.3,0.8,0.7,0.8c0.6,0,0.9-0.4,1.1-0.7c0-0.1,0-0.2,0-0.3V97.8z"/>
	<path class="st1" d="M670.3,93.6h0.8v6.4h-0.8V93.6z"/>
	<path class="st1" d="M673.9,99c0.4,0.2,0.9,0.4,1.4,0.4c0.8,0,1.3-0.4,1.3-1c0-0.6-0.3-0.9-1.1-1.2c-1-0.4-1.6-0.9-1.6-1.7
		c0-0.9,0.8-1.6,2-1.6c0.6,0,1.1,0.1,1.3,0.3l-0.2,0.6c-0.2-0.1-0.6-0.3-1.2-0.3c-0.8,0-1.1,0.5-1.1,0.9c0,0.6,0.4,0.8,1.2,1.2
		c1,0.4,1.5,0.9,1.5,1.8c0,0.9-0.7,1.7-2.1,1.7c-0.6,0-1.2-0.2-1.5-0.4L673.9,99z"/>
	<path class="st1" d="M679.1,94.4c0,0.3-0.2,0.5-0.5,0.5c-0.3,0-0.5-0.2-0.5-0.5c0-0.3,0.2-0.5,0.5-0.5
		C678.9,93.9,679.1,94.1,679.1,94.4z M678.2,100v-4.4h0.8v4.4H678.2z"/>
	<path class="st1" d="M681.1,94.4v1.3h1.1v0.6h-1.1v2.3c0,0.5,0.2,0.8,0.6,0.8c0.2,0,0.4,0,0.5-0.1l0,0.6c-0.2,0.1-0.4,0.1-0.7,0.1
		c-0.4,0-0.7-0.1-0.9-0.3c-0.2-0.2-0.3-0.6-0.3-1.1v-2.4h-0.7v-0.6h0.7v-1L681.1,94.4z"/>
	<path class="st1" d="M683.4,97.9c0,1.1,0.7,1.5,1.5,1.5c0.6,0,0.9-0.1,1.2-0.2l0.1,0.6c-0.3,0.1-0.8,0.3-1.4,0.3
		c-1.3,0-2.1-0.9-2.1-2.2s0.8-2.3,2-2.3c1.4,0,1.8,1.3,1.8,2.1c0,0.2,0,0.3,0,0.4H683.4z M685.7,97.4c0-0.5-0.2-1.3-1.1-1.3
		c-0.8,0-1.2,0.7-1.2,1.3H685.7z"/>
</g>
<g>
	<path class="st1" d="M645.3,128.8v-6.1h0.9l1.9,3.1c0.5,0.7,0.8,1.4,1.1,2l0,0c-0.1-0.8-0.1-1.5-0.1-2.5v-2.5h0.7v6.1h-0.8
		l-1.9-3.1c-0.4-0.7-0.8-1.4-1.1-2l0,0c0,0.8,0.1,1.5,0.1,2.5v2.6H645.3z"/>
	<path class="st1" d="M651,127.9c0.4,0.2,0.9,0.4,1.4,0.4c0.8,0,1.3-0.4,1.3-1c0-0.6-0.3-0.9-1.1-1.2c-1-0.4-1.6-0.9-1.6-1.7
		c0-0.9,0.8-1.6,2-1.6c0.6,0,1.1,0.1,1.3,0.3l-0.2,0.6c-0.2-0.1-0.6-0.3-1.2-0.3c-0.8,0-1.1,0.5-1.1,0.9c0,0.6,0.4,0.8,1.2,1.2
		c1,0.4,1.5,0.9,1.5,1.8c0,0.9-0.7,1.7-2.1,1.7c-0.6,0-1.2-0.2-1.5-0.4L651,127.9z"/>
	<path class="st1" d="M659.9,128.5c-0.4,0.1-1,0.3-1.9,0.3c-0.9,0-1.7-0.2-2.3-0.8c-0.5-0.5-0.8-1.3-0.8-2.3c0-1.8,1.3-3.1,3.3-3.1
		c0.7,0,1.3,0.2,1.5,0.3l-0.2,0.6c-0.3-0.1-0.7-0.3-1.3-0.3c-1.5,0-2.4,0.9-2.4,2.4c0,1.5,0.9,2.4,2.3,2.4c0.5,0,0.9-0.1,1-0.2v-1.8
		h-1.2v-0.6h2V128.5z"/>
	<path class="st1" d="M662.8,126.1v0.6h-2.2v-0.6H662.8z"/>
	<path class="st1" d="M663.5,122.8c0.4-0.1,0.9-0.1,1.5-0.1c0.8,0,1.3,0.2,1.7,0.5c0.3,0.3,0.5,0.7,0.5,1.3c0,0.5-0.2,1-0.5,1.3
		c-0.4,0.4-1.1,0.7-1.9,0.7c-0.2,0-0.5,0-0.6-0.1v2.4h-0.8V122.8z M664.3,125.7c0.2,0,0.4,0.1,0.6,0.1c0.9,0,1.5-0.5,1.5-1.3
		c0-0.8-0.6-1.2-1.4-1.2c-0.3,0-0.6,0-0.7,0.1V125.7z"/>
</g>
<g>
	<path class="st1" d="M506.6,64.4V67h2.9v-2.5h0.8v6.1h-0.8v-2.8h-2.9v2.8h-0.8v-6.1H506.6z"/>
	<path class="st1" d="M511.9,68.5c0,1.1,0.7,1.5,1.5,1.5c0.6,0,0.9-0.1,1.2-0.2l0.1,0.6c-0.3,0.1-0.8,0.3-1.4,0.3
		c-1.3,0-2.1-0.9-2.1-2.2s0.8-2.3,2-2.3c1.4,0,1.8,1.3,1.8,2.1c0,0.2,0,0.3,0,0.4H511.9z M514.2,67.9c0-0.5-0.2-1.3-1.1-1.3
		c-0.8,0-1.2,0.7-1.2,1.3H514.2z"/>
	<path class="st1" d="M518.2,70.5l-0.1-0.5h0c-0.2,0.3-0.7,0.6-1.3,0.6c-0.9,0-1.3-0.6-1.3-1.3c0-1.1,0.9-1.6,2.6-1.6v-0.1
		c0-0.4-0.1-1-1-1c-0.4,0-0.8,0.1-1.1,0.3l-0.2-0.5c0.4-0.2,0.9-0.4,1.4-0.4c1.3,0,1.7,0.9,1.7,1.8v1.6c0,0.4,0,0.7,0.1,1H518.2z
		 M518.1,68.3c-0.9,0-1.8,0.1-1.8,1c0,0.5,0.3,0.8,0.7,0.8c0.6,0,0.9-0.4,1.1-0.7c0-0.1,0-0.2,0-0.3V68.3z"/>
	<path class="st1" d="M523.7,64.1v5.3c0,0.4,0,0.8,0,1.1H523l0-0.8h0c-0.2,0.5-0.8,0.9-1.5,0.9c-1.1,0-1.9-0.9-1.9-2.2
		c0-1.5,0.9-2.3,2-2.3c0.7,0,1.1,0.3,1.3,0.7h0v-2.6H523.7z M522.9,67.9c0-0.1,0-0.2,0-0.3c-0.1-0.5-0.5-0.9-1.1-0.9
		c-0.8,0-1.3,0.7-1.3,1.7c0,0.9,0.4,1.6,1.3,1.6c0.5,0,1-0.4,1.2-0.9c0-0.1,0-0.2,0-0.3V67.9z"/>
	<path class="st1" d="M531.8,67.4c0,2.1-1.3,3.2-2.8,3.2c-1.6,0-2.7-1.2-2.7-3.1c0-1.9,1.2-3.2,2.8-3.2
		C530.7,64.3,531.8,65.6,531.8,67.4z M527.1,67.5c0,1.3,0.7,2.5,1.9,2.5c1.2,0,1.9-1.1,1.9-2.5c0-1.2-0.6-2.5-1.9-2.5
		C527.7,65,527.1,66.2,527.1,67.5z"/>
	<path class="st1" d="M538,64.9c-0.2-0.1-0.5-0.2-0.9-0.2c-0.8,0-1.1,0.6-1.1,1.3v0.2h2.5v4.4h-0.8v-3.8h-1.7v3.8h-0.8v-3.8h-1.8
		v3.8h-0.8v-3.8H532v-0.6h0.6V66c0-0.5,0.1-1.1,0.5-1.4c0.3-0.3,0.6-0.4,1.1-0.4c0.3,0,0.6,0.1,0.8,0.2l-0.2,0.6
		c-0.1-0.1-0.3-0.2-0.5-0.2c-0.3,0-0.4,0.1-0.6,0.2c-0.2,0.2-0.3,0.6-0.3,1v0.2h1.8v-0.2c0-1.2,0.7-1.9,1.9-1.9
		c0.4,0,0.8,0.1,1.1,0.3L538,64.9z"/>
	<path class="st1" d="M542.8,70.3c-0.2,0.1-0.7,0.3-1.3,0.3c-1.3,0-2.2-0.9-2.2-2.2c0-1.3,0.9-2.3,2.3-2.3c0.5,0,0.9,0.1,1.1,0.2
		l-0.2,0.6c-0.2-0.1-0.5-0.2-0.9-0.2c-1,0-1.5,0.7-1.5,1.6c0,1,0.6,1.6,1.5,1.6c0.5,0,0.7-0.1,1-0.2L542.8,70.3z"/>
	<path class="st1" d="M544,68.5c0,1.1,0.7,1.5,1.5,1.5c0.6,0,0.9-0.1,1.2-0.2l0.1,0.6c-0.3,0.1-0.8,0.3-1.4,0.3
		c-1.3,0-2.1-0.9-2.1-2.2s0.8-2.3,2-2.3c1.4,0,1.8,1.3,1.8,2.1c0,0.2,0,0.3,0,0.4H544z M546.3,67.9c0-0.5-0.2-1.3-1.1-1.3
		c-0.8,0-1.2,0.7-1.2,1.3H546.3z"/>
</g>
<g>
	<path class="st1" d="M487.5,98.9v-6.1h0.9l1.9,3.1c0.5,0.7,0.8,1.4,1.1,2l0,0c-0.1-0.8-0.1-1.5-0.1-2.5v-2.5h0.7v6.1h-0.8l-1.9-3.1
		c-0.4-0.7-0.8-1.4-1.1-2l0,0c0,0.8,0.1,1.5,0.1,2.5v2.6H487.5z"/>
	<path class="st1" d="M493.1,97.9c0.4,0.2,0.9,0.4,1.4,0.4c0.8,0,1.3-0.4,1.3-1c0-0.6-0.3-0.9-1.1-1.2c-1-0.4-1.6-0.9-1.6-1.7
		c0-0.9,0.8-1.6,2-1.6c0.6,0,1.1,0.1,1.3,0.3l-0.2,0.6c-0.2-0.1-0.6-0.3-1.2-0.3c-0.8,0-1.1,0.5-1.1,0.9c0,0.6,0.4,0.8,1.2,1.2
		c1,0.4,1.5,0.9,1.5,1.8c0,0.9-0.7,1.7-2.1,1.7c-0.6,0-1.2-0.2-1.5-0.4L493.1,97.9z"/>
	<path class="st1" d="M502.1,98.6c-0.4,0.1-1,0.3-1.9,0.3c-0.9,0-1.7-0.2-2.3-0.8c-0.5-0.5-0.8-1.3-0.8-2.3c0-1.8,1.3-3.1,3.3-3.1
		c0.7,0,1.3,0.2,1.5,0.3l-0.2,0.6c-0.3-0.1-0.7-0.3-1.3-0.3c-1.5,0-2.4,0.9-2.4,2.4c0,1.5,0.9,2.4,2.3,2.4c0.5,0,0.9-0.1,1-0.2v-1.8
		h-1.2v-0.6h2V98.6z"/>
	<path class="st1" d="M504.9,96.1v0.6h-2.2v-0.6H504.9z"/>
	<path class="st1" d="M505.7,92.9c0.4-0.1,0.9-0.1,1.5-0.1c0.8,0,1.3,0.2,1.7,0.5c0.3,0.3,0.5,0.7,0.5,1.3c0,0.5-0.2,1-0.5,1.3
		c-0.4,0.4-1.1,0.7-1.9,0.7c-0.2,0-0.5,0-0.6-0.1v2.4h-0.8V92.9z M506.5,95.8c0.2,0,0.4,0.1,0.6,0.1c0.9,0,1.5-0.5,1.5-1.3
		c0-0.8-0.6-1.2-1.4-1.2c-0.3,0-0.6,0-0.7,0.1V95.8z"/>
</g>
<path class="st0" d="M74.1,97.4c54,0,1.4,50.7,62.4,50.7h174.8"/>
<path class="st9" d="M341.5,130.9"/>
<path class="st0" d="M247.2,80.2c58,0,53.6,42.6,73.8,55.8"/>
<path class="st0" d="M74.1,216.9c54,0,11.9-53.5,59.4-53.5H305"/>
<g>
	<path class="st1" d="M27.7,200.4c0.4-0.1,1-0.1,1.5-0.1c0.8,0,1.4,0.2,1.8,0.5c0.3,0.3,0.5,0.7,0.5,1.2c0,0.8-0.5,1.3-1.1,1.5v0
		c0.5,0.2,0.7,0.6,0.9,1.2c0.2,0.8,0.3,1.4,0.5,1.7h-0.8c-0.1-0.2-0.2-0.7-0.4-1.4c-0.2-0.8-0.5-1.2-1.2-1.2h-0.7v2.6h-0.8V200.4z
		 M28.5,203.2h0.8c0.8,0,1.4-0.5,1.4-1.2c0-0.8-0.6-1.1-1.4-1.1c-0.4,0-0.6,0-0.8,0.1V203.2z"/>
	<path class="st1" d="M32.8,204.4c0,1.1,0.7,1.5,1.5,1.5c0.6,0,0.9-0.1,1.2-0.2l0.1,0.6c-0.3,0.1-0.8,0.3-1.4,0.3
		c-1.3,0-2.1-0.9-2.1-2.2s0.8-2.3,2-2.3c1.4,0,1.8,1.3,1.8,2.1c0,0.2,0,0.3,0,0.4H32.8z M35.1,203.8c0-0.5-0.2-1.3-1.1-1.3
		c-0.8,0-1.2,0.7-1.2,1.3H35.1z"/>
	<path class="st1" d="M36.7,203.2c0-0.5,0-0.8,0-1.2h0.7l0,0.7h0c0.2-0.4,0.6-0.8,1.4-0.8c0.6,0,1,0.4,1.2,0.9h0
		c0.1-0.2,0.3-0.4,0.5-0.6c0.3-0.2,0.5-0.3,1-0.3c0.6,0,1.4,0.4,1.4,1.9v2.6h-0.8V204c0-0.8-0.3-1.3-0.9-1.3c-0.5,0-0.8,0.3-0.9,0.7
		c0,0.1-0.1,0.3-0.1,0.4v2.7h-0.8v-2.6c0-0.7-0.3-1.2-0.9-1.2c-0.5,0-0.9,0.4-1,0.8c0,0.1-0.1,0.3-0.1,0.4v2.6h-0.8V203.2z"/>
	<path class="st1" d="M48,204.2c0,1.6-1.1,2.3-2.2,2.3c-1.2,0-2.1-0.9-2.1-2.2c0-1.5,1-2.3,2.2-2.3C47.1,202,48,202.9,48,204.2z
		 M44.5,204.3c0,1,0.5,1.7,1.3,1.7c0.8,0,1.3-0.7,1.3-1.7c0-0.7-0.4-1.7-1.3-1.7C44.9,202.6,44.5,203.4,44.5,204.3z"/>
	<path class="st1" d="M49.7,200.8v1.3h1.1v0.6h-1.1v2.3c0,0.5,0.2,0.8,0.6,0.8c0.2,0,0.4,0,0.5-0.1l0,0.6c-0.2,0.1-0.4,0.1-0.7,0.1
		c-0.4,0-0.7-0.1-0.9-0.3c-0.2-0.2-0.3-0.6-0.3-1.1v-2.4h-0.7v-0.6H49v-1L49.7,200.8z"/>
	<path class="st1" d="M52,204.4c0,1.1,0.7,1.5,1.5,1.5c0.6,0,0.9-0.1,1.2-0.2l0.1,0.6c-0.3,0.1-0.8,0.3-1.4,0.3
		c-1.3,0-2.1-0.9-2.1-2.2s0.8-2.3,2-2.3c1.4,0,1.8,1.3,1.8,2.1c0,0.2,0,0.3,0,0.4H52z M54.3,203.8c0-0.5-0.2-1.3-1.1-1.3
		c-0.8,0-1.2,0.7-1.2,1.3H54.3z"/>
	<path class="st1" d="M57.6,205.5c0.4,0.2,0.9,0.4,1.4,0.4c0.8,0,1.3-0.4,1.3-1c0-0.6-0.3-0.9-1.1-1.2c-1-0.4-1.6-0.9-1.6-1.7
		c0-0.9,0.8-1.6,2-1.6c0.6,0,1.1,0.1,1.3,0.3l-0.2,0.6c-0.2-0.1-0.6-0.3-1.2-0.3c-0.8,0-1.1,0.5-1.1,0.9c0,0.6,0.4,0.8,1.2,1.2
		c1,0.4,1.5,0.9,1.5,1.8c0,0.9-0.7,1.7-2.1,1.7c-0.6,0-1.2-0.2-1.5-0.4L57.6,205.5z"/>
	<path class="st1" d="M62.8,200.8c0,0.3-0.2,0.5-0.5,0.5c-0.3,0-0.5-0.2-0.5-0.5c0-0.3,0.2-0.5,0.5-0.5
		C62.6,200.3,62.8,200.6,62.8,200.8z M61.9,206.4v-4.4h0.8v4.4H61.9z"/>
	<path class="st1" d="M64.8,200.8v1.3h1.1v0.6h-1.1v2.3c0,0.5,0.2,0.8,0.6,0.8c0.2,0,0.4,0,0.5-0.1l0,0.6c-0.2,0.1-0.4,0.1-0.7,0.1
		c-0.4,0-0.7-0.1-0.9-0.3c-0.2-0.2-0.3-0.6-0.3-1.1v-2.4h-0.7v-0.6H64v-1L64.8,200.8z"/>
	<path class="st1" d="M67.1,204.4c0,1.1,0.7,1.5,1.5,1.5c0.6,0,0.9-0.1,1.2-0.2l0.1,0.6c-0.3,0.1-0.8,0.3-1.4,0.3
		c-1.3,0-2.1-0.9-2.1-2.2s0.8-2.3,2-2.3c1.4,0,1.8,1.3,1.8,2.1c0,0.2,0,0.3,0,0.4H67.1z M69.4,203.8c0-0.5-0.2-1.3-1.1-1.3
		c-0.8,0-1.2,0.7-1.2,1.3H69.4z"/>
	<path class="st1" d="M72.4,206.4v-0.5l0.6-0.6c1.5-1.4,2.2-2.2,2.2-3.1c0-0.6-0.3-1.1-1.2-1.1c-0.5,0-1,0.3-1.2,0.5l-0.3-0.6
		c0.4-0.3,1-0.6,1.7-0.6c1.3,0,1.8,0.9,1.8,1.7c0,1.1-0.8,2-2,3.1l-0.5,0.4v0h2.6v0.7H72.4z"/>
</g>
<g>
	<path class="st1" d="M41,235.3v-6.1h0.9l1.9,3.1c0.5,0.7,0.8,1.4,1.1,2l0,0c-0.1-0.8-0.1-1.5-0.1-2.5v-2.5h0.7v6.1h-0.8l-1.9-3.1
		c-0.4-0.7-0.8-1.4-1.1-2l0,0c0,0.8,0.1,1.5,0.1,2.5v2.6H41z"/>
	<path class="st1" d="M46.7,234.3c0.4,0.2,0.9,0.4,1.4,0.4c0.8,0,1.3-0.4,1.3-1c0-0.6-0.3-0.9-1.1-1.2c-1-0.4-1.6-0.9-1.6-1.7
		c0-0.9,0.8-1.6,2-1.6c0.6,0,1.1,0.1,1.3,0.3l-0.2,0.6c-0.2-0.1-0.6-0.3-1.2-0.3c-0.8,0-1.1,0.5-1.1,0.9c0,0.6,0.4,0.8,1.2,1.2
		c1,0.4,1.5,0.9,1.5,1.8c0,0.9-0.7,1.7-2.1,1.7c-0.6,0-1.2-0.2-1.5-0.4L46.7,234.3z"/>
	<path class="st1" d="M55.6,235c-0.4,0.1-1,0.3-1.9,0.3c-0.9,0-1.7-0.2-2.3-0.8c-0.5-0.5-0.8-1.3-0.8-2.3c0-1.8,1.3-3.1,3.3-3.1
		c0.7,0,1.3,0.2,1.5,0.3l-0.2,0.6c-0.3-0.1-0.7-0.3-1.3-0.3c-1.5,0-2.4,0.9-2.4,2.4c0,1.5,0.9,2.4,2.3,2.4c0.5,0,0.9-0.1,1-0.2v-1.8
		h-1.2v-0.6h2V235z"/>
	<path class="st1" d="M58.5,232.5v0.6h-2.2v-0.6H58.5z"/>
	<path class="st1" d="M59.2,229.3c0.4-0.1,0.9-0.1,1.5-0.1c0.8,0,1.3,0.2,1.7,0.5c0.3,0.3,0.5,0.7,0.5,1.3c0,0.5-0.2,1-0.5,1.3
		c-0.4,0.4-1.1,0.7-1.9,0.7c-0.2,0-0.5,0-0.6-0.1v2.4h-0.8V229.3z M60,232.2c0.2,0,0.4,0.1,0.6,0.1c0.9,0,1.5-0.5,1.5-1.3
		c0-0.8-0.6-1.2-1.4-1.2c-0.3,0-0.6,0-0.7,0.1V232.2z"/>
</g>
<g>
	<g>
		<g>
			<rect x="27.5" y="210.2" class="st1" width="48.4" height="14.6"/>
		</g>
		<g>
			<g>
				<rect x="57" y="215.8" class="st10" width="3.4" height="3.4"/>
			</g>
			<g>
				<rect x="63" y="215.8" class="st10" width="3.4" height="3.4"/>
			</g>
			<g>
				<rect x="69" y="215.8" class="st10" width="3.4" height="3.4"/>
			</g>
		</g>
	</g>
	<g>
		<rect x="28.4" y="211" class="st11" width="13" height="13"/>
		<path class="st10" d="M33.1,213.7c0.8,0,1.4,0.6,1.4,1.4c0,0.8-0.6,1.4-1.4,1.4c-0.8,0-1.4-0.6-1.4-1.4
			C31.7,214.3,32.4,213.7,33.1,213.7 M33.1,213.2c-1,0-1.9,0.8-1.9,1.9c0,1,0.8,1.9,1.9,1.9c1,0,1.9-0.8,1.9-1.9
			C35,214,34.2,213.2,33.1,213.2L33.1,213.2z"/>
		<path class="st10" d="M33.1,218.7c0.8,0,1.4,0.6,1.4,1.4c0,0.8-0.6,1.4-1.4,1.4c-0.8,0-1.4-0.6-1.4-1.4
			C31.7,219.3,32.4,218.7,33.1,218.7 M33.1,218.2c-1,0-1.9,0.8-1.9,1.9c0,1,0.8,1.9,1.9,1.9c1,0,1.9-0.8,1.9-1.9
			C35,219,34.2,218.2,33.1,218.2L33.1,218.2z"/>
		<path class="st7" d="M33.9,215.1c0,0.5-0.4,0.8-0.8,0.8l0,0c-0.5,0-0.8-0.4-0.8-0.8l0,0c0-0.5,0.4-0.8,0.8-0.8l0,0
			C33.6,214.3,33.9,214.6,33.9,215.1L33.9,215.1z"/>
		<polygon class="st10" points="39.1,217.6 38.2,215.7 38.9,215.3 37.8,214.5 36.6,213.7 36.5,215.1 36.4,216.5 37.1,216.2 
			38,218.1 		"/>
	</g>
</g>
<g>
	<g>
		<path class="st1" d="M30,115.4v-6.1h0.9l1.9,3.1c0.5,0.7,0.8,1.4,1.1,2l0,0c-0.1-0.8-0.1-1.5-0.1-2.5v-2.5h0.7v6.1h-0.8l-1.9-3.1
			c-0.4-0.7-0.8-1.4-1.1-2l0,0c0,0.8,0.1,1.5,0.1,2.5v2.6H30z"/>
		<path class="st1" d="M35.6,114.5c0.4,0.2,0.9,0.4,1.4,0.4c0.8,0,1.3-0.4,1.3-1c0-0.6-0.3-0.9-1.1-1.2c-1-0.4-1.6-0.9-1.6-1.7
			c0-0.9,0.8-1.6,2-1.6c0.6,0,1.1,0.1,1.3,0.3l-0.2,0.6c-0.2-0.1-0.6-0.3-1.2-0.3c-0.8,0-1.1,0.5-1.1,0.9c0,0.6,0.4,0.8,1.2,1.2
			c1,0.4,1.5,0.9,1.5,1.8c0,0.9-0.7,1.7-2.1,1.7c-0.6,0-1.2-0.2-1.5-0.4L35.6,114.5z"/>
		<path class="st1" d="M44.6,115.2c-0.4,0.1-1,0.3-1.9,0.3c-0.9,0-1.7-0.2-2.3-0.8c-0.5-0.5-0.8-1.3-0.8-2.3c0-1.8,1.3-3.1,3.3-3.1
			c0.7,0,1.3,0.2,1.5,0.3l-0.2,0.6c-0.3-0.1-0.7-0.3-1.3-0.3c-1.5,0-2.4,0.9-2.4,2.4c0,1.5,0.9,2.4,2.3,2.4c0.5,0,0.9-0.1,1-0.2
			v-1.8h-1.2v-0.6h2V115.2z"/>
		<path class="st1" d="M47.4,112.7v0.6h-2.2v-0.6H47.4z"/>
		<path class="st1" d="M49.5,115.4l-2-6.1h0.8l0.9,3c0.3,0.8,0.5,1.6,0.6,2.3h0c0.2-0.7,0.4-1.5,0.7-2.3l1-3h0.8l-2.2,6.1H49.5z"/>
	</g>
	<g>
		<path class="st12" d="M4.7,105h72.2V90.4H4.7V105z"/>
		<line class="st13" x1="7.6" y1="93.1" x2="62.1" y2="93.1"/>
		<line class="st13" x1="7.6" y1="94.9" x2="62.1" y2="94.9"/>
		<line class="st13" x1="7.6" y1="96.8" x2="62.1" y2="96.8"/>
		<line class="st13" x1="7.6" y1="98.6" x2="62.1" y2="98.6"/>
		<line class="st13" x1="7.6" y1="100.5" x2="62.1" y2="100.5"/>
		<line class="st14" x1="7.6" y1="94" x2="62.1" y2="94"/>
		<line class="st14" x1="7.6" y1="95.9" x2="62.1" y2="95.9"/>
		<line class="st15" x1="7.6" y1="97.7" x2="62.1" y2="97.7"/>
		<line class="st14" x1="7.6" y1="99.6" x2="62.1" y2="99.6"/>
		<line class="st14" x1="7.6" y1="101.4" x2="62.1" y2="101.4"/>
		<line class="st13" x1="7.6" y1="102.3" x2="62.1" y2="102.3"/>
		<circle class="st16" cx="34.9" cy="97.7" r="4.6"/>
		<g>
			<g>
				<rect x="63.1" y="91.2" class="st17" width="13" height="13"/>
				<path class="st10" d="M67.8,93.9c0.8,0,1.4,0.6,1.4,1.4c0,0.8-0.6,1.4-1.4,1.4c-0.8,0-1.4-0.6-1.4-1.4
					C66.5,94.5,67.1,93.9,67.8,93.9 M67.8,93.4c-1,0-1.9,0.8-1.9,1.9c0,1,0.8,1.9,1.9,1.9c1,0,1.9-0.8,1.9-1.9
					C69.7,94.2,68.9,93.4,67.8,93.4L67.8,93.4z"/>
				<path class="st10" d="M67.8,98.9c0.8,0,1.4,0.6,1.4,1.4c0,0.8-0.6,1.4-1.4,1.4c-0.8,0-1.4-0.6-1.4-1.4
					C66.5,99.5,67.1,98.9,67.8,98.9 M67.8,98.4c-1,0-1.9,0.8-1.9,1.9c0,1,0.8,1.9,1.9,1.9c1,0,1.9-0.8,1.9-1.9
					C69.7,99.2,68.9,98.4,67.8,98.4L67.8,98.4z"/>
				<path class="st7" d="M68.7,95.3c0,0.5-0.4,0.8-0.8,0.8l0,0c-0.5,0-0.8-0.4-0.8-0.8l0,0c0-0.5,0.4-0.8,0.8-0.8l0,0
					C68.3,94.4,68.7,94.8,68.7,95.3L68.7,95.3z"/>
				<polygon class="st10" points="73.8,97.7 72.9,95.9 73.7,95.5 72.5,94.7 71.4,93.9 71.2,95.3 71.1,96.7 71.8,96.4 72.7,98.2 				
					"/>
			</g>
		</g>
	</g>
</g>
<g>
	<path class="st1" d="M19,80.6c0.4-0.1,1-0.1,1.5-0.1c0.8,0,1.4,0.2,1.8,0.5c0.3,0.3,0.5,0.7,0.5,1.2c0,0.8-0.5,1.3-1.1,1.5v0
		c0.5,0.2,0.7,0.6,0.9,1.2c0.2,0.8,0.3,1.4,0.5,1.7h-0.8c-0.1-0.2-0.2-0.7-0.4-1.4c-0.2-0.8-0.5-1.2-1.2-1.2h-0.7v2.6H19V80.6z
		 M19.8,83.4h0.8c0.8,0,1.4-0.5,1.4-1.2c0-0.8-0.6-1.1-1.4-1.1c-0.4,0-0.6,0-0.8,0.1V83.4z"/>
	<path class="st1" d="M24.1,84.6c0,1.1,0.7,1.5,1.5,1.5c0.6,0,0.9-0.1,1.2-0.2l0.1,0.6c-0.3,0.1-0.8,0.3-1.4,0.3
		c-1.3,0-2.1-0.9-2.1-2.2s0.8-2.3,2-2.3c1.4,0,1.8,1.3,1.8,2.1c0,0.2,0,0.3,0,0.4H24.1z M26.4,84c0-0.5-0.2-1.3-1.1-1.3
		c-0.8,0-1.2,0.7-1.2,1.3H26.4z"/>
	<path class="st1" d="M28,83.4c0-0.5,0-0.8,0-1.2h0.7l0,0.7h0c0.2-0.4,0.6-0.8,1.4-0.8c0.6,0,1,0.4,1.2,0.9h0
		c0.1-0.2,0.3-0.4,0.5-0.6c0.3-0.2,0.5-0.3,1-0.3c0.6,0,1.4,0.4,1.4,1.9v2.6h-0.8v-2.5c0-0.8-0.3-1.3-0.9-1.3
		c-0.5,0-0.8,0.3-0.9,0.7c0,0.1-0.1,0.3-0.1,0.4v2.7h-0.8V84c0-0.7-0.3-1.2-0.9-1.2c-0.5,0-0.9,0.4-1,0.8c0,0.1-0.1,0.3-0.1,0.4v2.6
		H28V83.4z"/>
	<path class="st1" d="M39.2,84.4c0,1.6-1.1,2.3-2.2,2.3c-1.2,0-2.1-0.9-2.1-2.2c0-1.5,1-2.3,2.2-2.3C38.4,82.1,39.2,83.1,39.2,84.4z
		 M35.8,84.4c0,1,0.5,1.7,1.3,1.7c0.8,0,1.3-0.7,1.3-1.7c0-0.7-0.4-1.7-1.3-1.7C36.2,82.7,35.8,83.6,35.8,84.4z"/>
	<path class="st1" d="M41,81v1.3h1.1v0.6H41v2.3c0,0.5,0.2,0.8,0.6,0.8c0.2,0,0.4,0,0.5-0.1l0,0.6c-0.2,0.1-0.4,0.1-0.7,0.1
		c-0.4,0-0.7-0.1-0.9-0.3c-0.2-0.2-0.3-0.6-0.3-1.1v-2.4h-0.7v-0.6h0.7v-1L41,81z"/>
	<path class="st1" d="M43.3,84.6c0,1.1,0.7,1.5,1.5,1.5c0.6,0,0.9-0.1,1.2-0.2l0.1,0.6c-0.3,0.1-0.8,0.3-1.4,0.3
		c-1.3,0-2.1-0.9-2.1-2.2s0.8-2.3,2-2.3c1.4,0,1.8,1.3,1.8,2.1c0,0.2,0,0.3,0,0.4H43.3z M45.6,84c0-0.5-0.2-1.3-1.1-1.3
		c-0.8,0-1.2,0.7-1.2,1.3H45.6z"/>
	<path class="st1" d="M48.8,85.6c0.4,0.2,0.9,0.4,1.4,0.4c0.8,0,1.3-0.4,1.3-1c0-0.6-0.3-0.9-1.1-1.2c-1-0.4-1.6-0.9-1.6-1.7
		c0-0.9,0.8-1.6,2-1.6c0.6,0,1.1,0.1,1.3,0.3l-0.2,0.6c-0.2-0.1-0.6-0.3-1.2-0.3c-0.8,0-1.1,0.5-1.1,0.9c0,0.6,0.4,0.8,1.2,1.2
		c1,0.4,1.5,0.9,1.5,1.8c0,0.9-0.7,1.7-2.1,1.7c-0.6,0-1.2-0.2-1.5-0.4L48.8,85.6z"/>
	<path class="st1" d="M54,81c0,0.3-0.2,0.5-0.5,0.5c-0.3,0-0.5-0.2-0.5-0.5c0-0.3,0.2-0.5,0.5-0.5C53.9,80.5,54,80.7,54,81z
		 M53.2,86.6v-4.4H54v4.4H53.2z"/>
	<path class="st1" d="M56,81v1.3h1.1v0.6H56v2.3c0,0.5,0.2,0.8,0.6,0.8c0.2,0,0.4,0,0.5-0.1l0,0.6c-0.2,0.1-0.4,0.1-0.7,0.1
		c-0.4,0-0.7-0.1-0.9-0.3c-0.2-0.2-0.3-0.6-0.3-1.1v-2.4h-0.7v-0.6h0.7v-1L56,81z"/>
	<path class="st1" d="M58.3,84.6c0,1.1,0.7,1.5,1.5,1.5c0.6,0,0.9-0.1,1.2-0.2l0.1,0.6c-0.3,0.1-0.8,0.3-1.4,0.3
		c-1.3,0-2.1-0.9-2.1-2.2s0.8-2.3,2-2.3c1.4,0,1.8,1.3,1.8,2.1c0,0.2,0,0.3,0,0.4H58.3z M60.6,84c0-0.5-0.2-1.3-1.1-1.3
		c-0.8,0-1.2,0.7-1.2,1.3H60.6z"/>
	<path class="st1" d="M65.4,81.5L65.4,81.5l-1,0.5l-0.2-0.6l1.3-0.7h0.7v5.9h-0.8V81.5z"/>
</g>
<g>
	<path class="st1" d="M208.5,64h0.8v5.4h2.6V70h-3.4V64z"/>
	<path class="st1" d="M216.5,67.8c0,1.6-1.1,2.3-2.2,2.3c-1.2,0-2.1-0.9-2.1-2.2c0-1.5,1-2.3,2.2-2.3
		C215.6,65.6,216.5,66.5,216.5,67.8z M213,67.9c0,1,0.5,1.7,1.3,1.7c0.8,0,1.3-0.7,1.3-1.7c0-0.7-0.4-1.7-1.3-1.7
		C213.4,66.2,213,67,213,67.9z"/>
	<path class="st1" d="M220.4,69.9c-0.2,0.1-0.7,0.3-1.3,0.3c-1.3,0-2.2-0.9-2.2-2.2c0-1.3,0.9-2.3,2.3-2.3c0.5,0,0.9,0.1,1.1,0.2
		l-0.2,0.6c-0.2-0.1-0.5-0.2-0.9-0.2c-1,0-1.5,0.7-1.5,1.6c0,1,0.6,1.6,1.5,1.6c0.5,0,0.7-0.1,1-0.2L220.4,69.9z"/>
	<path class="st1" d="M223.5,70l-0.1-0.5h0c-0.2,0.3-0.7,0.6-1.3,0.6c-0.9,0-1.3-0.6-1.3-1.3c0-1.1,0.9-1.6,2.6-1.6v-0.1
		c0-0.4-0.1-1-1-1c-0.4,0-0.8,0.1-1.1,0.3l-0.2-0.5c0.4-0.2,0.9-0.4,1.4-0.4c1.3,0,1.7,0.9,1.7,1.8V69c0,0.4,0,0.7,0.1,1H223.5z
		 M223.4,67.8c-0.9,0-1.8,0.1-1.8,1c0,0.5,0.3,0.8,0.7,0.8c0.6,0,0.9-0.4,1.1-0.7c0-0.1,0-0.2,0-0.3V67.8z"/>
	<path class="st1" d="M225.3,63.6h0.8V70h-0.8V63.6z"/>
	<path class="st1" d="M228.9,69.1c0.4,0.2,0.9,0.4,1.4,0.4c0.8,0,1.3-0.4,1.3-1c0-0.6-0.3-0.9-1.1-1.2c-1-0.4-1.6-0.9-1.6-1.7
		c0-0.9,0.8-1.6,2-1.6c0.6,0,1.1,0.1,1.3,0.3l-0.2,0.6c-0.2-0.1-0.6-0.3-1.2-0.3c-0.8,0-1.1,0.5-1.1,0.9c0,0.6,0.4,0.8,1.2,1.2
		c1,0.4,1.5,0.9,1.5,1.8c0,0.9-0.7,1.7-2.1,1.7c-0.6,0-1.2-0.2-1.5-0.4L228.9,69.1z"/>
	<path class="st1" d="M234.1,64.5c0,0.3-0.2,0.5-0.5,0.5c-0.3,0-0.5-0.2-0.5-0.5c0-0.3,0.2-0.5,0.5-0.5
		C233.9,64,234.1,64.2,234.1,64.5z M233.2,70v-4.4h0.8V70H233.2z"/>
	<path class="st1" d="M236.1,64.4v1.3h1.1v0.6h-1.1v2.3c0,0.5,0.2,0.8,0.6,0.8c0.2,0,0.4,0,0.5-0.1l0,0.6c-0.2,0.1-0.4,0.1-0.7,0.1
		c-0.4,0-0.7-0.1-0.9-0.3c-0.2-0.2-0.3-0.6-0.3-1.1v-2.4h-0.7v-0.6h0.7v-1L236.1,64.4z"/>
	<path class="st1" d="M238.4,68c0,1.1,0.7,1.5,1.5,1.5c0.6,0,0.9-0.1,1.2-0.2l0.1,0.6c-0.3,0.1-0.8,0.3-1.4,0.3
		c-1.3,0-2.1-0.9-2.1-2.2s0.8-2.3,2-2.3c1.4,0,1.8,1.3,1.8,2.1c0,0.2,0,0.3,0,0.4H238.4z M240.7,67.4c0-0.5-0.2-1.3-1.1-1.3
		c-0.8,0-1.2,0.7-1.2,1.3H240.7z"/>
	<path class="st1" d="M245.5,64.9L245.5,64.9l-1,0.5l-0.2-0.6l1.3-0.7h0.7V70h-0.8V64.9z"/>
</g>
<g>
	<path class="st1" d="M217.1,98.9v-6.1h0.9l1.9,3.1c0.5,0.7,0.8,1.4,1.1,2l0,0c-0.1-0.8-0.1-1.5-0.1-2.5v-2.5h0.7v6.1h-0.8l-1.9-3.1
		c-0.4-0.7-0.8-1.4-1.1-2l0,0c0,0.8,0.1,1.5,0.1,2.5v2.6H217.1z"/>
	<path class="st1" d="M222.7,97.9c0.4,0.2,0.9,0.4,1.4,0.4c0.8,0,1.3-0.4,1.3-1c0-0.6-0.3-0.9-1.1-1.2c-1-0.4-1.6-0.9-1.6-1.7
		c0-0.9,0.8-1.6,2-1.6c0.6,0,1.1,0.1,1.3,0.3l-0.2,0.6c-0.2-0.1-0.6-0.3-1.2-0.3c-0.8,0-1.1,0.5-1.1,0.9c0,0.6,0.4,0.8,1.2,1.2
		c1,0.4,1.5,0.9,1.5,1.8c0,0.9-0.7,1.7-2.1,1.7c-0.6,0-1.2-0.2-1.5-0.4L222.7,97.9z"/>
	<path class="st1" d="M231.7,98.6c-0.4,0.1-1,0.3-1.9,0.3c-0.9,0-1.7-0.2-2.3-0.8c-0.5-0.5-0.8-1.3-0.8-2.3c0-1.8,1.3-3.1,3.3-3.1
		c0.7,0,1.3,0.2,1.5,0.3l-0.2,0.6c-0.3-0.1-0.7-0.3-1.3-0.3c-1.5,0-2.4,0.9-2.4,2.4c0,1.5,0.9,2.4,2.3,2.4c0.5,0,0.9-0.1,1-0.2v-1.8
		h-1.2v-0.6h2V98.6z"/>
	<path class="st1" d="M234.5,96.1v0.6h-2.2v-0.6H234.5z"/>
	<path class="st1" d="M235.3,92.9c0.4-0.1,0.9-0.1,1.5-0.1c0.8,0,1.3,0.2,1.7,0.5c0.3,0.3,0.5,0.7,0.5,1.3c0,0.5-0.2,1-0.5,1.3
		c-0.4,0.4-1.1,0.7-1.9,0.7c-0.2,0-0.5,0-0.6-0.1v2.4h-0.8V92.9z M236.1,95.8c0.2,0,0.4,0.1,0.6,0.1c0.9,0,1.5-0.5,1.5-1.3
		c0-0.8-0.6-1.2-1.4-1.2c-0.3,0-0.6,0-0.7,0.1V95.8z"/>
</g>
<g>
	<g>
		<g>
			<rect x="203.6" y="73.8" class="st1" width="48.4" height="14.6"/>
		</g>
		<g>
			<g>
				<rect x="233.1" y="79.4" class="st10" width="3.4" height="3.4"/>
			</g>
			<g>
				<rect x="239.1" y="79.4" class="st10" width="3.4" height="3.4"/>
			</g>
			<g>
				<rect x="245.1" y="79.4" class="st10" width="3.4" height="3.4"/>
			</g>
		</g>
	</g>
	<g>
		<rect x="204.4" y="74.6" class="st11" width="13" height="13"/>
		<path class="st10" d="M209.1,77.3c0.8,0,1.4,0.6,1.4,1.4c0,0.8-0.6,1.4-1.4,1.4c-0.8,0-1.4-0.6-1.4-1.4
			C207.8,77.9,208.4,77.3,209.1,77.3 M209.1,76.8c-1,0-1.9,0.8-1.9,1.9c0,1,0.8,1.9,1.9,1.9c1,0,1.9-0.8,1.9-1.9
			C211,77.7,210.2,76.8,209.1,76.8L209.1,76.8z"/>
		<path class="st10" d="M209.1,82.3c0.8,0,1.4,0.6,1.4,1.4c0,0.8-0.6,1.4-1.4,1.4c-0.8,0-1.4-0.6-1.4-1.4
			C207.8,82.9,208.4,82.3,209.1,82.3 M209.1,81.8c-1,0-1.9,0.8-1.9,1.9c0,1,0.8,1.9,1.9,1.9c1,0,1.9-0.8,1.9-1.9
			C211,82.6,210.2,81.8,209.1,81.8L209.1,81.8z"/>
		<path class="st7" d="M210,78.7c0,0.5-0.4,0.8-0.8,0.8l0,0c-0.5,0-0.8-0.4-0.8-0.8l0,0c0-0.5,0.4-0.8,0.8-0.8l0,0
			C209.6,77.9,210,78.2,210,78.7L210,78.7z"/>
		<polygon class="st10" points="215.1,81.2 214.3,79.3 215,79 213.8,78.1 212.7,77.3 212.5,78.7 212.4,80.1 213.1,79.8 214,81.7 		
			"/>
	</g>
</g>
<path class="st0" d="M476.5,81.7c-58,0-40.4,43.8-104.3,58.9"/>
<path class="st0" d="M633,110.7c-58,0-31.4,48.5-97.2,48.5c-15,0-145.9,0-145.9,0"/>
<g>
	<g>
		<g>
			<rect x="474" y="73.8" class="st1" width="48.4" height="14.6"/>
		</g>
		<g>
			<g>
				<rect x="503.5" y="79.4" class="st10" width="3.4" height="3.4"/>
			</g>
			<g>
				<rect x="509.5" y="79.4" class="st10" width="3.4" height="3.4"/>
			</g>
			<g>
				<rect x="515.5" y="79.4" class="st10" width="3.4" height="3.4"/>
			</g>
		</g>
	</g>
	<g>
		<rect x="474.9" y="74.6" class="st11" width="13" height="13"/>
		<path class="st10" d="M479.6,77.3c0.8,0,1.4,0.6,1.4,1.4c0,0.8-0.6,1.4-1.4,1.4c-0.8,0-1.4-0.6-1.4-1.4
			C478.2,77.9,478.8,77.3,479.6,77.3 M479.6,76.8c-1,0-1.9,0.8-1.9,1.9c0,1,0.8,1.9,1.9,1.9c1,0,1.9-0.8,1.9-1.9
			C481.5,77.7,480.6,76.8,479.6,76.8L479.6,76.8z"/>
		<path class="st10" d="M479.6,82.3c0.8,0,1.4,0.6,1.4,1.4c0,0.8-0.6,1.4-1.4,1.4c-0.8,0-1.4-0.6-1.4-1.4
			C478.2,82.9,478.8,82.3,479.6,82.3 M479.6,81.8c-1,0-1.9,0.8-1.9,1.9c0,1,0.8,1.9,1.9,1.9c1,0,1.9-0.8,1.9-1.9
			C481.5,82.6,480.6,81.8,479.6,81.8L479.6,81.8z"/>
		<path class="st7" d="M480.4,78.7c0,0.5-0.4,0.8-0.8,0.8l0,0c-0.5,0-0.8-0.4-0.8-0.8l0,0c0-0.5,0.4-0.8,0.8-0.8l0,0
			C480,77.9,480.4,78.2,480.4,78.7L480.4,78.7z"/>
		<polygon class="st10" points="485.5,81.2 484.7,79.3 485.4,79 484.2,78.1 483.1,77.3 483,78.7 482.8,80.1 483.6,79.8 484.4,81.7 
					"/>
	</g>
</g>
<g>
	<g>
		<g>
			<rect x="631.8" y="103.8" class="st1" width="48.4" height="14.6"/>
		</g>
		<g>
			<g>
				<rect x="661.3" y="109.4" class="st10" width="3.4" height="3.4"/>
			</g>
			<g>
				<rect x="667.3" y="109.4" class="st10" width="3.4" height="3.4"/>
			</g>
			<g>
				<rect x="673.3" y="109.4" class="st10" width="3.4" height="3.4"/>
			</g>
		</g>
	</g>
	<g>
		<rect x="632.7" y="104.6" class="st11" width="13" height="13"/>
		<path class="st10" d="M637.4,107.3c0.8,0,1.4,0.6,1.4,1.4s-0.6,1.4-1.4,1.4c-0.8,0-1.4-0.6-1.4-1.4S636.7,107.3,637.4,107.3
			 M637.4,106.7c-1,0-1.9,0.8-1.9,1.9c0,1,0.8,1.9,1.9,1.9c1,0,1.9-0.8,1.9-1.9C639.3,107.6,638.5,106.7,637.4,106.7L637.4,106.7z"
			/>
		<path class="st10" d="M637.4,112.3c0.8,0,1.4,0.6,1.4,1.4s-0.6,1.4-1.4,1.4c-0.8,0-1.4-0.6-1.4-1.4S636.7,112.3,637.4,112.3
			 M637.4,111.7c-1,0-1.9,0.8-1.9,1.9c0,1,0.8,1.9,1.9,1.9c1,0,1.9-0.8,1.9-1.9C639.3,112.6,638.5,111.7,637.4,111.7L637.4,111.7z"
			/>
		<path class="st7" d="M638.2,108.6c0,0.5-0.4,0.8-0.8,0.8l0,0c-0.5,0-0.8-0.4-0.8-0.8l0,0c0-0.5,0.4-0.8,0.8-0.8l0,0
			C637.9,107.8,638.2,108.2,638.2,108.6L638.2,108.6z"/>
		<polygon class="st10" points="643.4,111.1 642.5,109.2 643.2,108.9 642.1,108.1 640.9,107.3 640.8,108.7 640.7,110.1 641.4,109.7 
			642.3,111.6 		"/>
	</g>
</g>
<g>
	<path class="st18" d="M623.1,106.6h-2.2v-1.8c0-1.6-1.2-2.8-2.6-2.8h-1.7c-1.4,0-2.6,1.3-2.6,2.8v1.8h-0.3h-2.1
		c-0.8,0-1.5,0.8-1.5,1.8v1.4v7.3c0,1,0.7,1.8,1.5,1.8h11.4c0.8,0,1.5-0.8,1.5-1.8v-8.6C624.6,107.4,624,106.6,623.1,106.6z
		 M619.8,106.6h-1.2h-3.3v-1.3c0-1.2,0.8-2.1,1.8-2.1h0.9c1,0,1.8,1,1.8,2.1V106.6z"/>
	<path class="st10" d="M618.9,111c0-0.8-0.6-1.4-1.4-1.4c-0.8,0-1.4,0.6-1.4,1.4c0,0.5,0.3,1,0.7,1.2l-0.4,3h2.3l-0.4-3.1
		C618.6,111.9,618.9,111.5,618.9,111z"/>
</g>
<g>
	<g>
		<path class="st1" d="M668.1,199.1h-1.8v-0.7h4.5v0.7h-1.9v5.4h-0.8V199.1z"/>
		<path class="st1" d="M671.6,202.5c0,1.1,0.7,1.5,1.5,1.5c0.6,0,0.9-0.1,1.2-0.2l0.1,0.6c-0.3,0.1-0.8,0.3-1.4,0.3
			c-1.3,0-2.1-0.9-2.1-2.2s0.8-2.3,2-2.3c1.4,0,1.8,1.3,1.8,2.1c0,0.2,0,0.3,0,0.4H671.6z M673.9,201.9c0-0.5-0.2-1.3-1.1-1.3
			c-0.8,0-1.2,0.7-1.2,1.3H673.9z"/>
		<path class="st1" d="M675.5,201.4c0-0.5,0-0.8,0-1.2h0.7l0,0.7h0c0.2-0.4,0.6-0.8,1.4-0.8c0.6,0,1,0.4,1.2,0.9h0
			c0.1-0.2,0.3-0.4,0.5-0.6c0.3-0.2,0.5-0.3,1-0.3c0.6,0,1.4,0.4,1.4,1.9v2.6h-0.8v-2.5c0-0.8-0.3-1.3-0.9-1.3
			c-0.5,0-0.8,0.3-0.9,0.7c0,0.1-0.1,0.3-0.1,0.4v2.7h-0.8v-2.6c0-0.7-0.3-1.2-0.9-1.2c-0.5,0-0.9,0.4-1,0.8c0,0.1-0.1,0.3-0.1,0.4
			v2.6h-0.8V201.4z"/>
		<path class="st1" d="M682.8,201.6c0-0.6,0-1,0-1.4h0.7l0,0.7h0c0.3-0.5,0.8-0.8,1.5-0.8c1.1,0,1.8,0.9,1.8,2.2c0,1.6-1,2.3-2,2.3
			c-0.6,0-1.1-0.3-1.3-0.7h0v2.4h-0.8V201.6z M683.6,202.8c0,0.1,0,0.2,0,0.3c0.1,0.5,0.6,0.9,1.2,0.9c0.8,0,1.3-0.7,1.3-1.7
			c0-0.9-0.5-1.6-1.3-1.6c-0.5,0-1,0.4-1.2,1c0,0.1-0.1,0.2-0.1,0.3V202.8z"/>
		<path class="st1" d="M691.7,202.3c0,1.6-1.1,2.3-2.2,2.3c-1.2,0-2.1-0.9-2.1-2.2c0-1.5,1-2.3,2.2-2.3
			C690.9,200.1,691.7,201,691.7,202.3z M688.2,202.4c0,1,0.5,1.7,1.3,1.7c0.8,0,1.3-0.7,1.3-1.7c0-0.7-0.4-1.7-1.3-1.7
			S688.2,201.6,688.2,202.4z"/>
		<path class="st1" d="M692.5,201.6c0-0.5,0-1,0-1.4h0.7l0,0.9h0c0.2-0.6,0.7-1,1.2-1c0.1,0,0.2,0,0.2,0v0.7c-0.1,0-0.2,0-0.3,0
			c-0.6,0-1,0.4-1.1,1c0,0.1,0,0.2,0,0.4v2.3h-0.8V201.6z"/>
		<path class="st1" d="M697.7,204.5l-0.1-0.5h0c-0.2,0.3-0.7,0.6-1.3,0.6c-0.9,0-1.3-0.6-1.3-1.3c0-1.1,0.9-1.6,2.6-1.6v-0.1
			c0-0.4-0.1-1-1-1c-0.4,0-0.8,0.1-1.1,0.3l-0.2-0.5c0.4-0.2,0.9-0.4,1.4-0.4c1.3,0,1.7,0.9,1.7,1.8v1.6c0,0.4,0,0.7,0.1,1H697.7z
			 M697.6,202.3c-0.9,0-1.8,0.1-1.8,1c0,0.5,0.3,0.8,0.7,0.8c0.6,0,0.9-0.4,1.1-0.7c0-0.1,0-0.2,0-0.3V202.3z"/>
		<path class="st1" d="M699.4,201.6c0-0.5,0-1,0-1.4h0.7l0,0.9h0c0.2-0.6,0.7-1,1.2-1c0.1,0,0.2,0,0.2,0v0.7c-0.1,0-0.2,0-0.3,0
			c-0.6,0-1,0.4-1.1,1c0,0.1,0,0.2,0,0.4v2.3h-0.8V201.6z"/>
		<path class="st1" d="M702.5,200.2l1,2.6c0.1,0.3,0.2,0.6,0.3,0.9h0c0.1-0.3,0.2-0.6,0.3-0.9l0.9-2.6h0.8l-1.2,3.1
			c-0.6,1.5-1,2.3-1.5,2.7c-0.4,0.3-0.8,0.5-1,0.5l-0.2-0.7c0.2-0.1,0.5-0.2,0.7-0.4c0.2-0.2,0.5-0.5,0.7-0.9c0-0.1,0.1-0.1,0.1-0.2
			s0-0.1-0.1-0.2l-1.6-4H702.5z"/>
		<path class="st1" d="M707.9,203.6c0.4,0.2,0.9,0.4,1.4,0.4c0.8,0,1.3-0.4,1.3-1c0-0.6-0.3-0.9-1.1-1.2c-1-0.4-1.6-0.9-1.6-1.7
			c0-0.9,0.8-1.6,2-1.6c0.6,0,1.1,0.1,1.3,0.3l-0.2,0.6c-0.2-0.1-0.6-0.3-1.2-0.3c-0.8,0-1.1,0.5-1.1,0.9c0,0.6,0.4,0.8,1.2,1.2
			c1,0.4,1.5,0.9,1.5,1.8c0,0.9-0.7,1.7-2.1,1.7c-0.6,0-1.2-0.2-1.5-0.4L707.9,203.6z"/>
		<path class="st1" d="M713.1,199c0,0.3-0.2,0.5-0.5,0.5c-0.3,0-0.5-0.2-0.5-0.5c0-0.3,0.2-0.5,0.5-0.5
			C712.9,198.5,713.1,198.7,713.1,199z M712.3,204.5v-4.4h0.8v4.4H712.3z"/>
		<path class="st1" d="M715.1,198.9v1.3h1.1v0.6h-1.1v2.3c0,0.5,0.2,0.8,0.6,0.8c0.2,0,0.4,0,0.5-0.1l0,0.6
			c-0.2,0.1-0.4,0.1-0.7,0.1c-0.4,0-0.7-0.1-0.9-0.3c-0.2-0.2-0.3-0.6-0.3-1.1v-2.4h-0.7v-0.6h0.7v-1L715.1,198.9z"/>
		<path class="st1" d="M717.4,202.5c0,1.1,0.7,1.5,1.5,1.5c0.6,0,0.9-0.1,1.2-0.2l0.1,0.6c-0.3,0.1-0.8,0.3-1.4,0.3
			c-1.3,0-2.1-0.9-2.1-2.2s0.8-2.3,2-2.3c1.4,0,1.8,1.3,1.8,2.1c0,0.2,0,0.3,0,0.4H717.4z M719.7,201.9c0-0.5-0.2-1.3-1.1-1.3
			c-0.8,0-1.2,0.7-1.2,1.3H719.7z"/>
	</g>
</g>
<g>
	<path class="st1" d="M682.7,233.4v-6.1h0.9l1.9,3.1c0.5,0.7,0.8,1.4,1.1,2l0,0c-0.1-0.8-0.1-1.5-0.1-2.5v-2.5h0.7v6.1h-0.8
		l-1.9-3.1c-0.4-0.7-0.8-1.4-1.1-2l0,0c0,0.8,0.1,1.5,0.1,2.5v2.6H682.7z"/>
	<path class="st1" d="M688.3,232.4c0.4,0.2,0.9,0.4,1.4,0.4c0.8,0,1.3-0.4,1.3-1c0-0.6-0.3-0.9-1.1-1.2c-1-0.4-1.6-0.9-1.6-1.7
		c0-0.9,0.8-1.6,2-1.6c0.6,0,1.1,0.1,1.3,0.3l-0.2,0.6c-0.2-0.1-0.6-0.3-1.2-0.3c-0.8,0-1.1,0.5-1.1,0.9c0,0.6,0.4,0.8,1.2,1.2
		c1,0.4,1.5,0.9,1.5,1.8c0,0.9-0.7,1.7-2.1,1.7c-0.6,0-1.2-0.2-1.5-0.4L688.3,232.4z"/>
	<path class="st1" d="M697.3,233.1c-0.4,0.1-1,0.3-1.9,0.3c-0.9,0-1.7-0.2-2.3-0.8c-0.5-0.5-0.8-1.3-0.8-2.3c0-1.8,1.3-3.1,3.3-3.1
		c0.7,0,1.3,0.2,1.5,0.3l-0.2,0.6c-0.3-0.1-0.7-0.3-1.3-0.3c-1.5,0-2.4,0.9-2.4,2.4c0,1.5,0.9,2.4,2.3,2.4c0.5,0,0.9-0.1,1-0.2v-1.8
		h-1.2v-0.6h2V233.1z"/>
	<path class="st1" d="M700.1,230.7v0.6h-2.2v-0.6H700.1z"/>
	<path class="st1" d="M700.9,227.4c0.4-0.1,0.9-0.1,1.5-0.1c0.8,0,1.3,0.2,1.7,0.5c0.3,0.3,0.5,0.7,0.5,1.3c0,0.5-0.2,1-0.5,1.3
		c-0.4,0.4-1.1,0.7-1.9,0.7c-0.2,0-0.5,0-0.6-0.1v2.4h-0.8V227.4z M701.7,230.3c0.2,0,0.4,0.1,0.6,0.1c0.9,0,1.5-0.5,1.5-1.3
		c0-0.8-0.6-1.2-1.4-1.2c-0.3,0-0.6,0-0.7,0.1V230.3z"/>
</g>
<path class="st0" d="M670.4,216.9c-58,0-41.9-48.3-107.6-48.3c-15,0-184.3,0-184.3,0"/>
<g>
	<g>
		<g>
			<rect x="669.2" y="208.3" class="st1" width="48.4" height="14.6"/>
		</g>
		<g>
			<g>
				<rect x="698.7" y="213.9" class="st10" width="3.4" height="3.4"/>
			</g>
			<g>
				<rect x="704.7" y="213.9" class="st10" width="3.4" height="3.4"/>
			</g>
			<g>
				<rect x="710.7" y="213.9" class="st10" width="3.4" height="3.4"/>
			</g>
		</g>
	</g>
	<g>
		<rect x="670.1" y="209.1" class="st11" width="13" height="13"/>
		<path class="st10" d="M674.8,211.8c0.8,0,1.4,0.6,1.4,1.4s-0.6,1.4-1.4,1.4c-0.8,0-1.4-0.6-1.4-1.4S674,211.8,674.8,211.8
			 M674.8,211.3c-1,0-1.9,0.8-1.9,1.9c0,1,0.8,1.9,1.9,1.9c1,0,1.9-0.8,1.9-1.9C676.7,212.2,675.8,211.3,674.8,211.3L674.8,211.3z"
			/>
		<path class="st10" d="M674.8,216.8c0.8,0,1.4,0.6,1.4,1.4s-0.6,1.4-1.4,1.4c-0.8,0-1.4-0.6-1.4-1.4S674,216.8,674.8,216.8
			 M674.8,216.3c-1,0-1.9,0.8-1.9,1.9c0,1,0.8,1.9,1.9,1.9c1,0,1.9-0.8,1.9-1.9C676.7,217.2,675.8,216.3,674.8,216.3L674.8,216.3z"
			/>
		<path class="st7" d="M675.6,213.2c0,0.5-0.4,0.8-0.8,0.8l0,0c-0.5,0-0.8-0.4-0.8-0.8l0,0c0-0.5,0.4-0.8,0.8-0.8l0,0
			C675.3,212.4,675.6,212.7,675.6,213.2L675.6,213.2z"/>
		<polygon class="st10" points="680.8,215.7 679.9,213.8 680.6,213.5 679.5,212.7 678.3,211.8 678.2,213.2 678.1,214.7 678.8,214.3 
			679.7,216.2 		"/>
	</g>
</g>
<g>
	<path class="st18" d="M660.5,211.2h-2.2v-1.8c0-1.6-1.2-2.8-2.6-2.8h-1.7c-1.4,0-2.6,1.3-2.6,2.8v1.8h-0.3h-2.1
		c-0.8,0-1.5,0.8-1.5,1.8v1.4v7.3c0,1,0.7,1.8,1.5,1.8h11.4c0.8,0,1.5-0.8,1.5-1.8v-8.6C662,211.9,661.3,211.2,660.5,211.2z
		 M657.2,211.2H656h-3.3v-1.3c0-1.2,0.8-2.1,1.8-2.1h0.9c1,0,1.8,1,1.8,2.1V211.2z"/>
	<path class="st10" d="M656.3,215.6c0-0.8-0.6-1.4-1.4-1.4c-0.8,0-1.4,0.6-1.4,1.4c0,0.5,0.3,1,0.7,1.2l-0.4,3h2.3l-0.4-3.1
		C656,216.4,656.3,216,656.3,215.6z"/>
</g>
<g>
	<path class="st18" d="M473.1,151.6h-2.2v-1.8c0-1.6-1.2-2.8-2.6-2.8h-1.7c-1.4,0-2.6,1.3-2.6,2.8v1.8h-0.3h-2.1
		c-0.8,0-1.5,0.8-1.5,1.8v1.4v7.3c0,1,0.7,1.8,1.5,1.8h11.4c0.8,0,1.5-0.8,1.5-1.8v-8.6C474.6,152.4,473.9,151.6,473.1,151.6z
		 M469.7,151.6h-1.2h-3.3v-1.3c0-1.2,0.8-2.1,1.8-2.1h0.9c1,0,1.8,1,1.8,2.1V151.6z"/>
	<path class="st10" d="M468.8,156c0-0.8-0.6-1.4-1.4-1.4c-0.8,0-1.4,0.6-1.4,1.4c0,0.5,0.3,1,0.7,1.2l-0.4,3h2.3l-0.4-3.1
		C468.6,156.9,468.8,156.5,468.8,156z"/>
</g>
<g>
	<path class="st18" d="M487.1,166.1h-2.2v-1.8c0-1.6-1.2-2.8-2.6-2.8h-1.7c-1.4,0-2.6,1.3-2.6,2.8v1.8h-0.3h-2.1
		c-0.8,0-1.5,0.8-1.5,1.8v1.4v7.3c0,1,0.7,1.8,1.5,1.8h11.4c0.8,0,1.5-0.8,1.5-1.8v-8.6C488.6,166.9,487.9,166.1,487.1,166.1z
		 M483.8,166.1h-1.2h-3.3v-1.3c0-1.2,0.8-2.1,1.8-2.1h0.9c1,0,1.8,1,1.8,2.1V166.1z"/>
	<path class="st10" d="M482.9,170.5c0-0.8-0.6-1.4-1.4-1.4c-0.8,0-1.4,0.6-1.4,1.4c0,0.5,0.3,1,0.7,1.2l-0.4,3h2.3l-0.4-3.1
		C482.6,171.4,482.9,171,482.9,170.5z"/>
</g>
<path class="st0" d="M217.2,252.4c71.3,9.5,25.2-78.6,93-81.4"/>
<g>
	<g>
		<path class="st1" d="M193.2,270.2v-6.1h0.9l1.9,3.1c0.5,0.7,0.8,1.4,1.1,2l0,0c-0.1-0.8-0.1-1.5-0.1-2.5v-2.5h0.7v6.1H197
			l-1.9-3.1c-0.4-0.7-0.8-1.4-1.1-2l0,0c0,0.8,0.1,1.5,0.1,2.5v2.6H193.2z"/>
		<path class="st1" d="M198.9,269.3c0.4,0.2,0.9,0.4,1.4,0.4c0.8,0,1.3-0.4,1.3-1c0-0.6-0.3-0.9-1.1-1.2c-1-0.4-1.6-0.9-1.6-1.7
			c0-0.9,0.8-1.6,2-1.6c0.6,0,1.1,0.1,1.3,0.3l-0.2,0.6c-0.2-0.1-0.6-0.3-1.2-0.3c-0.8,0-1.1,0.5-1.1,0.9c0,0.6,0.4,0.8,1.2,1.2
			c1,0.4,1.5,0.9,1.5,1.8c0,0.9-0.7,1.7-2.1,1.7c-0.6,0-1.2-0.2-1.5-0.4L198.9,269.3z"/>
		<path class="st1" d="M207.9,270c-0.4,0.1-1,0.3-1.9,0.3c-0.9,0-1.7-0.2-2.3-0.8c-0.5-0.5-0.8-1.3-0.8-2.3c0-1.8,1.3-3.1,3.3-3.1
			c0.7,0,1.3,0.2,1.5,0.3l-0.2,0.6c-0.3-0.1-0.7-0.3-1.3-0.3c-1.5,0-2.4,0.9-2.4,2.4c0,1.5,0.9,2.4,2.3,2.4c0.5,0,0.9-0.1,1-0.2
			v-1.8h-1.2V267h2V270z"/>
		<path class="st1" d="M210.7,267.5v0.6h-2.2v-0.6H210.7z"/>
		<path class="st1" d="M212.8,270.2l-2-6.1h0.8l0.9,3c0.3,0.8,0.5,1.6,0.6,2.3h0c0.2-0.7,0.4-1.5,0.7-2.3l1-3h0.8l-2.2,6.1H212.8z"
			/>
	</g>
	<g>
		<path class="st12" d="M168,259.8h72.2v-14.6H168V259.8z"/>
		<line class="st13" x1="170.9" y1="247.9" x2="225.4" y2="247.9"/>
		<line class="st13" x1="170.9" y1="249.7" x2="225.4" y2="249.7"/>
		<line class="st13" x1="170.9" y1="251.6" x2="225.4" y2="251.6"/>
		<line class="st13" x1="170.9" y1="253.4" x2="225.4" y2="253.4"/>
		<line class="st13" x1="170.9" y1="255.3" x2="225.4" y2="255.3"/>
		<line class="st14" x1="170.9" y1="248.8" x2="225.4" y2="248.8"/>
		<line class="st14" x1="170.9" y1="250.6" x2="225.4" y2="250.6"/>
		<line class="st15" x1="170.9" y1="252.5" x2="225.4" y2="252.5"/>
		<line class="st14" x1="170.9" y1="254.4" x2="225.4" y2="254.4"/>
		<line class="st14" x1="170.9" y1="256.2" x2="225.4" y2="256.2"/>
		<line class="st13" x1="170.9" y1="257.1" x2="225.4" y2="257.1"/>
		<circle class="st16" cx="198.1" cy="252.5" r="4.6"/>
		<g>
			<g>
				<rect x="226.4" y="246" class="st17" width="13" height="13"/>
				<path class="st10" d="M231.1,248.7c0.8,0,1.4,0.6,1.4,1.4c0,0.8-0.6,1.4-1.4,1.4c-0.8,0-1.4-0.6-1.4-1.4
					C229.7,249.3,230.3,248.7,231.1,248.7 M231.1,248.2c-1,0-1.9,0.8-1.9,1.9c0,1,0.8,1.9,1.9,1.9c1,0,1.9-0.8,1.9-1.9
					C233,249,232.1,248.2,231.1,248.2L231.1,248.2z"/>
				<path class="st10" d="M231.1,253.7c0.8,0,1.4,0.6,1.4,1.4c0,0.8-0.6,1.4-1.4,1.4c-0.8,0-1.4-0.6-1.4-1.4
					C229.7,254.3,230.3,253.7,231.1,253.7 M231.1,253.2c-1,0-1.9,0.8-1.9,1.9c0,1,0.8,1.9,1.9,1.9c1,0,1.9-0.8,1.9-1.9
					C233,254,232.1,253.2,231.1,253.2L231.1,253.2z"/>
				<path class="st7" d="M231.9,250.1c0,0.5-0.4,0.8-0.8,0.8l0,0c-0.5,0-0.8-0.4-0.8-0.8l0,0c0-0.5,0.4-0.8,0.8-0.8l0,0
					C231.6,249.2,231.9,249.6,231.9,250.1L231.9,250.1z"/>
				<polygon class="st10" points="237.1,252.5 236.2,250.6 236.9,250.3 235.8,249.5 234.6,248.7 234.5,250.1 234.4,251.5 
					235.1,251.2 236,253 				"/>
			</g>
		</g>
	</g>
</g>
<g>
	<path class="st1" d="M187,235.3h0.8v5.4h2.6v0.7H187V235.3z"/>
	<path class="st1" d="M195,239.2c0,1.6-1.1,2.3-2.2,2.3c-1.2,0-2.1-0.9-2.1-2.2c0-1.5,1-2.3,2.2-2.3
		C194.1,236.9,195,237.8,195,239.2z M191.5,239.2c0,1,0.5,1.7,1.3,1.7c0.8,0,1.3-0.7,1.3-1.7c0-0.7-0.4-1.7-1.3-1.7
		C191.9,237.5,191.5,238.4,191.5,239.2z"/>
	<path class="st1" d="M198.9,241.2c-0.2,0.1-0.7,0.3-1.3,0.3c-1.3,0-2.2-0.9-2.2-2.2c0-1.3,0.9-2.3,2.3-2.3c0.5,0,0.9,0.1,1.1,0.2
		l-0.2,0.6c-0.2-0.1-0.5-0.2-0.9-0.2c-1,0-1.5,0.7-1.5,1.6c0,1,0.6,1.6,1.5,1.6c0.5,0,0.7-0.1,1-0.2L198.9,241.2z"/>
	<path class="st1" d="M202,241.4l-0.1-0.5h0c-0.2,0.3-0.7,0.6-1.3,0.6c-0.9,0-1.3-0.6-1.3-1.3c0-1.1,0.9-1.6,2.6-1.6v-0.1
		c0-0.4-0.1-1-1-1c-0.4,0-0.8,0.1-1.1,0.3l-0.2-0.5c0.4-0.2,0.9-0.4,1.4-0.4c1.3,0,1.7,0.9,1.7,1.8v1.6c0,0.4,0,0.7,0.1,1H202z
		 M201.9,239.2c-0.9,0-1.8,0.1-1.8,1c0,0.5,0.3,0.8,0.7,0.8c0.6,0,0.9-0.4,1.1-0.7c0-0.1,0-0.2,0-0.3V239.2z"/>
	<path class="st1" d="M203.8,235h0.8v6.4h-0.8V235z"/>
	<path class="st1" d="M207.4,240.4c0.4,0.2,0.9,0.4,1.4,0.4c0.8,0,1.3-0.4,1.3-1c0-0.6-0.3-0.9-1.1-1.2c-1-0.4-1.6-0.9-1.6-1.7
		c0-0.9,0.8-1.6,2-1.6c0.6,0,1.1,0.1,1.3,0.3l-0.2,0.6c-0.2-0.1-0.6-0.3-1.2-0.3c-0.8,0-1.1,0.5-1.1,0.9c0,0.6,0.4,0.8,1.2,1.2
		c1,0.4,1.5,0.9,1.5,1.8c0,0.9-0.7,1.7-2.1,1.7c-0.6,0-1.2-0.2-1.5-0.4L207.4,240.4z"/>
	<path class="st1" d="M212.6,235.8c0,0.3-0.2,0.5-0.5,0.5c-0.3,0-0.5-0.2-0.5-0.5c0-0.3,0.2-0.5,0.5-0.5
		C212.4,235.3,212.6,235.5,212.6,235.8z M211.7,241.4V237h0.8v4.4H211.7z"/>
	<path class="st1" d="M214.6,235.8v1.3h1.1v0.6h-1.1v2.3c0,0.5,0.2,0.8,0.6,0.8c0.2,0,0.4,0,0.5-0.1l0,0.6c-0.2,0.1-0.4,0.1-0.7,0.1
		c-0.4,0-0.7-0.1-0.9-0.3c-0.2-0.2-0.3-0.6-0.3-1.1v-2.4h-0.7V237h0.7v-1L214.6,235.8z"/>
	<path class="st1" d="M216.9,239.4c0,1.1,0.7,1.5,1.5,1.5c0.6,0,0.9-0.1,1.2-0.2l0.1,0.6c-0.3,0.1-0.8,0.3-1.4,0.3
		c-1.3,0-2.1-0.9-2.1-2.2s0.8-2.3,2-2.3c1.4,0,1.8,1.3,1.8,2.1c0,0.2,0,0.3,0,0.4H216.9z M219.2,238.8c0-0.5-0.2-1.3-1.1-1.3
		c-0.8,0-1.2,0.7-1.2,1.3H219.2z"/>
	<path class="st1" d="M222.2,241.4v-0.5l0.6-0.6c1.5-1.4,2.2-2.2,2.2-3.1c0-0.6-0.3-1.1-1.2-1.1c-0.5,0-1,0.3-1.2,0.5l-0.3-0.6
		c0.4-0.3,1-0.6,1.7-0.6c1.3,0,1.8,0.9,1.8,1.7c0,1.1-0.8,2-2,3.1l-0.5,0.4v0h2.6v0.7H222.2z"/>
</g>
<g>
	<g>
		<path class="st1" d="M545.5,183.3v6.1h-0.8v-6.1H545.5z"/>
		<path class="st1" d="M546.7,186.2c0-0.5,0-0.8,0-1.2h0.7l0,0.7h0c0.2-0.4,0.7-0.8,1.4-0.8c0.6,0,1.5,0.4,1.5,1.9v2.6h-0.8v-2.5
			c0-0.7-0.3-1.3-1-1.3c-0.5,0-0.9,0.4-1.1,0.8c0,0.1-0.1,0.2-0.1,0.4v2.6h-0.8V186.2z"/>
		<path class="st1" d="M552.4,183.8v1.3h1.1v0.6h-1.1v2.3c0,0.5,0.2,0.8,0.6,0.8c0.2,0,0.4,0,0.5-0.1l0,0.6
			c-0.2,0.1-0.4,0.1-0.7,0.1c-0.4,0-0.7-0.1-0.9-0.3c-0.2-0.2-0.3-0.6-0.3-1.1v-2.4H551V185h0.7v-1L552.4,183.8z"/>
		<path class="st1" d="M554.7,187.4c0,1.1,0.7,1.5,1.5,1.5c0.6,0,0.9-0.1,1.2-0.2l0.1,0.6c-0.3,0.1-0.8,0.3-1.4,0.3
			c-1.3,0-2.1-0.9-2.1-2.2s0.8-2.3,2-2.3c1.4,0,1.8,1.3,1.8,2.1c0,0.2,0,0.3,0,0.4H554.7z M557,186.8c0-0.5-0.2-1.3-1.1-1.3
			c-0.8,0-1.2,0.7-1.2,1.3H557z"/>
		<path class="st1" d="M558.6,186.4c0-0.5,0-1,0-1.4h0.7l0,0.9h0c0.2-0.6,0.7-1,1.2-1c0.1,0,0.2,0,0.2,0v0.7c-0.1,0-0.2,0-0.3,0
			c-0.6,0-1,0.4-1.1,1c0,0.1,0,0.2,0,0.4v2.3h-0.8V186.4z"/>
		<path class="st1" d="M561.4,186.2c0-0.5,0-0.8,0-1.2h0.7l0,0.7h0c0.2-0.4,0.7-0.8,1.4-0.8c0.6,0,1.5,0.4,1.5,1.9v2.6h-0.8v-2.5
			c0-0.7-0.3-1.3-1-1.3c-0.5,0-0.9,0.4-1.1,0.8c0,0.1-0.1,0.2-0.1,0.4v2.6h-0.8V186.2z"/>
		<path class="st1" d="M566.6,187.4c0,1.1,0.7,1.5,1.5,1.5c0.6,0,0.9-0.1,1.2-0.2l0.1,0.6c-0.3,0.1-0.8,0.3-1.4,0.3
			c-1.3,0-2.1-0.9-2.1-2.2s0.8-2.3,2-2.3c1.4,0,1.8,1.3,1.8,2.1c0,0.2,0,0.3,0,0.4H566.6z M569,186.8c0-0.5-0.2-1.3-1.1-1.3
			c-0.8,0-1.2,0.7-1.2,1.3H569z"/>
		<path class="st1" d="M571.5,183.8v1.3h1.1v0.6h-1.1v2.3c0,0.5,0.2,0.8,0.6,0.8c0.2,0,0.4,0,0.5-0.1l0,0.6
			c-0.2,0.1-0.4,0.1-0.7,0.1c-0.4,0-0.7-0.1-0.9-0.3c-0.2-0.2-0.3-0.6-0.3-1.1v-2.4H570V185h0.7v-1L571.5,183.8z"/>
	</g>
</g>
<g>
	<g>
		<path class="st1" d="M308.2,100.3c0.4-0.1,0.9-0.1,1.5-0.1c0.8,0,1.3,0.2,1.7,0.5c0.3,0.3,0.5,0.7,0.5,1.3c0,0.5-0.2,1-0.5,1.3
			c-0.4,0.4-1.1,0.7-1.9,0.7c-0.2,0-0.5,0-0.6-0.1v2.4h-0.8V100.3z M309,103.2c0.2,0,0.4,0.1,0.6,0.1c0.9,0,1.5-0.5,1.5-1.3
			c0-0.8-0.6-1.2-1.4-1.2c-0.3,0-0.6,0-0.7,0.1V103.2z"/>
		<path class="st1" d="M312.8,103.3c0-0.5,0-1,0-1.4h0.7l0,0.9h0c0.2-0.6,0.7-1,1.2-1c0.1,0,0.2,0,0.2,0v0.7c-0.1,0-0.2,0-0.3,0
			c-0.6,0-1,0.4-1.1,1c0,0.1,0,0.2,0,0.4v2.3h-0.8V103.3z"/>
		<path class="st1" d="M319.5,104c0,1.6-1.1,2.3-2.2,2.3c-1.2,0-2.1-0.9-2.1-2.2c0-1.5,1-2.3,2.2-2.3
			C318.7,101.8,319.5,102.7,319.5,104z M316.1,104.1c0,1,0.5,1.7,1.3,1.7c0.8,0,1.3-0.7,1.3-1.7c0-0.7-0.4-1.7-1.3-1.7
			C316.5,102.4,316.1,103.3,316.1,104.1z"/>
		<path class="st1" d="M320.6,101.9l0.9,2.4c0.1,0.4,0.3,0.8,0.4,1.1h0c0.1-0.4,0.2-0.7,0.4-1.1l0.8-2.4h0.8l-1.7,4.4h-0.8l-1.7-4.4
			H320.6z"/>
		<path class="st1" d="M325.4,100.7c0,0.3-0.2,0.5-0.5,0.5c-0.3,0-0.5-0.2-0.5-0.5c0-0.3,0.2-0.5,0.5-0.5
			C325.2,100.2,325.4,100.4,325.4,100.7z M324.5,106.3v-4.4h0.8v4.4H324.5z"/>
		<path class="st1" d="M330.2,99.9v5.3c0,0.4,0,0.8,0,1.1h-0.7l0-0.8h0c-0.2,0.5-0.8,0.9-1.5,0.9c-1.1,0-1.9-0.9-1.9-2.2
			c0-1.5,0.9-2.3,2-2.3c0.7,0,1.1,0.3,1.3,0.7h0v-2.6H330.2z M329.4,103.7c0-0.1,0-0.2,0-0.3c-0.1-0.5-0.5-0.9-1.1-0.9
			c-0.8,0-1.3,0.7-1.3,1.7c0,0.9,0.4,1.6,1.3,1.6c0.5,0,1-0.4,1.2-0.9c0-0.1,0-0.2,0-0.3V103.7z"/>
		<path class="st1" d="M331.8,104.2c0,1.1,0.7,1.5,1.5,1.5c0.6,0,0.9-0.1,1.2-0.2l0.1,0.6c-0.3,0.1-0.8,0.3-1.4,0.3
			c-1.3,0-2.1-0.9-2.1-2.2s0.8-2.3,2-2.3c1.4,0,1.8,1.3,1.8,2.1c0,0.2,0,0.3,0,0.4H331.8z M334.1,103.7c0-0.5-0.2-1.3-1.1-1.3
			c-0.8,0-1.2,0.7-1.2,1.3H334.1z"/>
		<path class="st1" d="M335.6,103.3c0-0.5,0-1,0-1.4h0.7l0,0.9h0c0.2-0.6,0.7-1,1.2-1c0.1,0,0.2,0,0.2,0v0.7c-0.1,0-0.2,0-0.3,0
			c-0.6,0-1,0.4-1.1,1c0,0.1,0,0.2,0,0.4v2.3h-0.8V103.3z"/>
		<path class="st1" d="M341.1,104.4l-0.6,1.9h-0.8l2.1-6.1h0.9l2.1,6.1h-0.8l-0.6-1.9H341.1z M343.1,103.7l-0.6-1.7
			c-0.1-0.4-0.2-0.8-0.3-1.1h0c-0.1,0.4-0.2,0.7-0.3,1.1l-0.6,1.8H343.1z"/>
	</g>
</g>
<g>
	<g>
		<path class="st1" d="M140.6,176.6c0.4-0.1,0.9-0.1,1.5-0.1c0.8,0,1.3,0.2,1.7,0.5c0.3,0.3,0.5,0.7,0.5,1.3c0,0.5-0.2,1-0.5,1.3
			c-0.4,0.4-1.1,0.7-1.9,0.7c-0.2,0-0.5,0-0.6-0.1v2.4h-0.8V176.6z M141.3,179.6c0.2,0,0.4,0.1,0.6,0.1c0.9,0,1.5-0.5,1.5-1.3
			c0-0.8-0.6-1.2-1.4-1.2c-0.3,0-0.6,0-0.7,0.1V179.6z"/>
		<path class="st1" d="M145.1,179.6c0-0.5,0-1,0-1.4h0.7l0,0.9h0c0.2-0.6,0.7-1,1.2-1c0.1,0,0.2,0,0.2,0v0.7c-0.1,0-0.2,0-0.3,0
			c-0.6,0-1,0.4-1.1,1c0,0.1,0,0.2,0,0.4v2.3h-0.8V179.6z"/>
		<path class="st1" d="M151.9,180.4c0,1.6-1.1,2.3-2.2,2.3c-1.2,0-2.1-0.9-2.1-2.2c0-1.5,1-2.3,2.2-2.3
			C151,178.2,151.9,179.1,151.9,180.4z M148.4,180.5c0,1,0.5,1.7,1.3,1.7c0.8,0,1.3-0.7,1.3-1.7c0-0.7-0.4-1.7-1.3-1.7
			C148.8,178.8,148.4,179.6,148.4,180.5z"/>
		<path class="st1" d="M153,178.3l0.9,2.4c0.1,0.4,0.3,0.8,0.4,1.1h0c0.1-0.4,0.2-0.7,0.4-1.1l0.8-2.4h0.8l-1.7,4.4h-0.8l-1.7-4.4
			H153z"/>
		<path class="st1" d="M157.7,177.1c0,0.3-0.2,0.5-0.5,0.5c-0.3,0-0.5-0.2-0.5-0.5c0-0.3,0.2-0.5,0.5-0.5
			C157.5,176.6,157.7,176.8,157.7,177.1z M156.8,182.6v-4.4h0.8v4.4H156.8z"/>
		<path class="st1" d="M162.5,176.2v5.3c0,0.4,0,0.8,0,1.1h-0.7l0-0.8h0c-0.2,0.5-0.8,0.9-1.5,0.9c-1.1,0-1.9-0.9-1.9-2.2
			c0-1.5,0.9-2.3,2-2.3c0.7,0,1.1,0.3,1.3,0.7h0v-2.6H162.5z M161.7,180.1c0-0.1,0-0.2,0-0.3c-0.1-0.5-0.5-0.9-1.1-0.9
			c-0.8,0-1.3,0.7-1.3,1.7c0,0.9,0.4,1.6,1.3,1.6c0.5,0,1-0.4,1.2-0.9c0-0.1,0-0.2,0-0.3V180.1z"/>
		<path class="st1" d="M164.1,180.6c0,1.1,0.7,1.5,1.5,1.5c0.6,0,0.9-0.1,1.2-0.2l0.1,0.6c-0.3,0.1-0.8,0.3-1.4,0.3
			c-1.3,0-2.1-0.9-2.1-2.2s0.8-2.3,2-2.3c1.4,0,1.8,1.3,1.8,2.1c0,0.2,0,0.3,0,0.4H164.1z M166.4,180c0-0.5-0.2-1.3-1.1-1.3
			c-0.8,0-1.2,0.7-1.2,1.3H166.4z"/>
		<path class="st1" d="M168,179.6c0-0.5,0-1,0-1.4h0.7l0,0.9h0c0.2-0.6,0.7-1,1.2-1c0.1,0,0.2,0,0.2,0v0.7c-0.1,0-0.2,0-0.3,0
			c-0.6,0-1,0.4-1.1,1c0,0.1,0,0.2,0,0.4v2.3H168V179.6z"/>
		<path class="st1" d="M172.5,176.7c0.3-0.1,0.9-0.1,1.4-0.1c0.8,0,1.3,0.1,1.7,0.4c0.3,0.2,0.5,0.6,0.5,1.1c0,0.6-0.4,1.1-1,1.3v0
			c0.6,0.1,1.3,0.6,1.3,1.5c0,0.5-0.2,0.9-0.5,1.2c-0.4,0.4-1.1,0.6-2.1,0.6c-0.5,0-1,0-1.2-0.1V176.7z M173.3,179.1h0.7
			c0.8,0,1.3-0.4,1.3-1c0-0.7-0.5-1-1.3-1c-0.4,0-0.6,0-0.7,0.1V179.1z M173.3,182c0.2,0,0.4,0,0.7,0c0.8,0,1.6-0.3,1.6-1.2
			c0-0.8-0.7-1.2-1.6-1.2h-0.6V182z"/>
	</g>
</g>
<g>
	<path class="st19" d="M379.2,138.3c-1.1,0-2.2,0.1-3.2,0.3c-1.2-6.7-7.1-11.8-14.1-11.8c-4.3,0-8.1,1.9-10.7,4.8
		c-1.2-8.1-8.1-14.3-16.5-14.3c-9.2,0-16.7,7.5-16.7,16.7c0,1.1,0.1,2.2,0.3,3.3c-0.8-0.3-1.6-0.5-2.5-0.5c-3.9,0-7,3.1-7,7
		c0,0.8,0.2,1.6,0.4,2.4c-6.4,1.5-11.1,7.2-11.1,14c0,7.9,6.4,14.3,14.3,14.3c3.5,0,6.7-1.3,9.2-3.3c1.1,8.1,8.1,14.3,16.5,14.3
		c5.6,0,10.5-2.7,13.5-6.9c2.1,1.2,4.6,1.9,7.2,1.9c5.9,0,11-3.6,13.2-8.7c2.2,1,4.6,1.5,7.2,1.5c9.7,0,17.5-7.8,17.5-17.5
		S388.9,138.3,379.2,138.3z"/>
</g>
<g>
	<g>
		<path class="st10" d="M331.8,150.2l-2-6.1h0.8l0.9,3c0.3,0.8,0.5,1.6,0.6,2.3h0c0.2-0.7,0.4-1.5,0.7-2.3l1-3h0.8l-2.2,6.1H331.8z"
			/>
		<path class="st10" d="M336.2,144.6c0,0.3-0.2,0.5-0.5,0.5c-0.3,0-0.5-0.2-0.5-0.5c0-0.3,0.2-0.5,0.5-0.5
			C336,144.1,336.2,144.3,336.2,144.6z M335.3,150.2v-4.4h0.8v4.4H335.3z"/>
		<path class="st10" d="M337.2,147.2c0-0.5,0-1,0-1.4h0.7l0,0.9h0c0.2-0.6,0.7-1,1.2-1c0.1,0,0.2,0,0.2,0v0.7c-0.1,0-0.2,0-0.3,0
			c-0.6,0-1,0.4-1.1,1c0,0.1,0,0.2,0,0.4v2.3h-0.8V147.2z"/>
		<path class="st10" d="M340.9,144.6v1.3h1.1v0.6h-1.1v2.3c0,0.5,0.2,0.8,0.6,0.8c0.2,0,0.4,0,0.5-0.1l0,0.6
			c-0.2,0.1-0.4,0.1-0.7,0.1c-0.4,0-0.7-0.1-0.9-0.3c-0.2-0.2-0.3-0.6-0.3-1.1v-2.4h-0.7v-0.6h0.7v-1L340.9,144.6z"/>
		<path class="st10" d="M346.4,149c0,0.5,0,0.8,0,1.2h-0.7l0-0.7h0c-0.2,0.4-0.7,0.8-1.4,0.8c-0.7,0-1.5-0.4-1.5-1.9v-2.5h0.8v2.4
			c0,0.8,0.3,1.4,1,1.4c0.5,0,0.9-0.4,1-0.7c0-0.1,0.1-0.3,0.1-0.4v-2.7h0.8V149z"/>
		<path class="st10" d="M350,150.2l-0.1-0.5h0c-0.2,0.3-0.7,0.6-1.3,0.6c-0.9,0-1.3-0.6-1.3-1.3c0-1.1,0.9-1.6,2.6-1.6v-0.1
			c0-0.4-0.1-1-1-1c-0.4,0-0.8,0.1-1.1,0.3l-0.2-0.5c0.4-0.2,0.9-0.4,1.4-0.4c1.3,0,1.7,0.9,1.7,1.8v1.6c0,0.4,0,0.7,0.1,1H350z
			 M349.9,148c-0.9,0-1.8,0.1-1.8,1c0,0.5,0.3,0.8,0.7,0.8c0.6,0,0.9-0.4,1.1-0.7c0-0.1,0-0.2,0-0.3V148z"/>
		<path class="st10" d="M351.7,143.8h0.8v6.4h-0.8V143.8z"/>
		<path class="st10" d="M354.5,144.6c0,0.3-0.2,0.5-0.5,0.5c-0.3,0-0.5-0.2-0.5-0.5c0-0.3,0.2-0.5,0.5-0.5
			C354.4,144.1,354.5,144.3,354.5,144.6z M353.7,150.2v-4.4h0.8v4.4H353.7z"/>
		<path class="st10" d="M355.1,149.7l2-2.6c0.2-0.2,0.4-0.4,0.6-0.7v0h-2.4v-0.6h3.3l0,0.5l-1.9,2.5c-0.2,0.2-0.4,0.5-0.6,0.7v0h2.5
			v0.6h-3.5V149.7z"/>
		<path class="st10" d="M359.7,148.2c0,1.1,0.7,1.5,1.5,1.5c0.6,0,0.9-0.1,1.2-0.2l0.1,0.6c-0.3,0.1-0.8,0.3-1.4,0.3
			c-1.3,0-2.1-0.9-2.1-2.2s0.8-2.3,2-2.3c1.4,0,1.8,1.3,1.8,2.1c0,0.2,0,0.3,0,0.4H359.7z M362,147.6c0-0.5-0.2-1.3-1.1-1.3
			c-0.8,0-1.2,0.7-1.2,1.3H362z"/>
		<path class="st10" d="M367.3,143.8v5.3c0,0.4,0,0.8,0,1.1h-0.7l0-0.8h0c-0.2,0.5-0.8,0.9-1.5,0.9c-1.1,0-1.9-0.9-1.9-2.2
			c0-1.5,0.9-2.3,2-2.3c0.7,0,1.1,0.3,1.3,0.7h0v-2.6H367.3z M366.6,147.6c0-0.1,0-0.2,0-0.3c-0.1-0.5-0.5-0.9-1.1-0.9
			c-0.8,0-1.3,0.7-1.3,1.7c0,0.9,0.4,1.6,1.3,1.6c0.5,0,1-0.4,1.2-0.9c0-0.1,0-0.2,0-0.3V147.6z"/>
		<path class="st10" d="M318.7,160.2v-6.1h0.9l1.9,3.1c0.5,0.7,0.8,1.4,1.1,2l0,0c-0.1-0.8-0.1-1.5-0.1-2.5v-2.5h0.7v6.1h-0.8
			l-1.9-3.1c-0.4-0.7-0.8-1.4-1.1-2l0,0c0,0.8,0.1,1.5,0.1,2.5v2.6H318.7z"/>
		<path class="st10" d="M324.9,158.2c0,1.1,0.7,1.5,1.5,1.5c0.6,0,0.9-0.1,1.2-0.2l0.1,0.6c-0.3,0.1-0.8,0.3-1.4,0.3
			c-1.3,0-2.1-0.9-2.1-2.2s0.8-2.3,2-2.3c1.4,0,1.8,1.3,1.8,2.1c0,0.2,0,0.3,0,0.4H324.9z M327.2,157.6c0-0.5-0.2-1.3-1.1-1.3
			c-0.8,0-1.2,0.7-1.2,1.3H327.2z"/>
		<path class="st10" d="M329.7,154.6v1.3h1.1v0.6h-1.1v2.3c0,0.5,0.2,0.8,0.6,0.8c0.2,0,0.4,0,0.5-0.1l0,0.6
			c-0.2,0.1-0.4,0.1-0.7,0.1c-0.4,0-0.7-0.1-0.9-0.3c-0.2-0.2-0.3-0.6-0.3-1.1v-2.4h-0.7v-0.6h0.7v-1L329.7,154.6z"/>
		<path class="st10" d="M331.9,155.8l0.6,2.2c0.1,0.5,0.2,0.9,0.3,1.4h0c0.1-0.4,0.2-0.9,0.4-1.4l0.7-2.2h0.7l0.7,2.2
			c0.2,0.5,0.3,1,0.4,1.4h0c0.1-0.4,0.2-0.9,0.3-1.4l0.6-2.2h0.8l-1.4,4.4h-0.7l-0.7-2.1c-0.2-0.5-0.3-0.9-0.4-1.4h0
			c-0.1,0.5-0.2,1-0.4,1.4l-0.7,2.1h-0.7l-1.3-4.4H331.9z"/>
		<path class="st10" d="M341.9,158c0,1.6-1.1,2.3-2.2,2.3c-1.2,0-2.1-0.9-2.1-2.2c0-1.5,1-2.3,2.2-2.3
			C341.1,155.7,341.9,156.6,341.9,158z M338.5,158c0,1,0.5,1.7,1.3,1.7c0.8,0,1.3-0.7,1.3-1.7c0-0.7-0.4-1.7-1.3-1.7
			C338.9,156.3,338.5,157.2,338.5,158z"/>
		<path class="st10" d="M342.7,157.2c0-0.5,0-1,0-1.4h0.7l0,0.9h0c0.2-0.6,0.7-1,1.2-1c0.1,0,0.2,0,0.2,0v0.7c-0.1,0-0.2,0-0.3,0
			c-0.6,0-1,0.4-1.1,1c0,0.1,0,0.2,0,0.4v2.3h-0.8V157.2z"/>
		<path class="st10" d="M346.3,157.8L346.3,157.8c0.1-0.2,0.3-0.3,0.4-0.5l1.3-1.5h1l-1.7,1.8l1.9,2.6h-1l-1.5-2.1l-0.4,0.5v1.6
			h-0.8v-6.4h0.8V157.8z"/>
		<path class="st10" d="M351.2,159.2c0.4,0.2,0.9,0.4,1.4,0.4c0.8,0,1.3-0.4,1.3-1c0-0.6-0.3-0.9-1.1-1.2c-1-0.4-1.6-0.9-1.6-1.7
			c0-0.9,0.8-1.6,2-1.6c0.6,0,1.1,0.1,1.3,0.3l-0.2,0.6c-0.2-0.1-0.6-0.3-1.2-0.3c-0.8,0-1.1,0.5-1.1,0.9c0,0.6,0.4,0.8,1.2,1.2
			c1,0.4,1.5,0.9,1.5,1.8c0,0.9-0.7,1.7-2.1,1.7c-0.6,0-1.2-0.2-1.5-0.4L351.2,159.2z"/>
		<path class="st10" d="M356,158.2c0,1.1,0.7,1.5,1.5,1.5c0.6,0,0.9-0.1,1.2-0.2l0.1,0.6c-0.3,0.1-0.8,0.3-1.4,0.3
			c-1.3,0-2.1-0.9-2.1-2.2s0.8-2.3,2-2.3c1.4,0,1.8,1.3,1.8,2.1c0,0.2,0,0.3,0,0.4H356z M358.3,157.6c0-0.5-0.2-1.3-1.1-1.3
			c-0.8,0-1.2,0.7-1.2,1.3H358.3z"/>
		<path class="st10" d="M359.9,157.2c0-0.5,0-1,0-1.4h0.7l0,0.9h0c0.2-0.6,0.7-1,1.2-1c0.1,0,0.2,0,0.2,0v0.7c-0.1,0-0.2,0-0.3,0
			c-0.6,0-1,0.4-1.1,1c0,0.1,0,0.2,0,0.4v2.3h-0.8V157.2z"/>
		<path class="st10" d="M362.9,155.8l0.9,2.4c0.1,0.4,0.3,0.8,0.4,1.1h0c0.1-0.4,0.2-0.7,0.4-1.1l0.8-2.4h0.8l-1.7,4.4h-0.8
			l-1.7-4.4H362.9z"/>
		<path class="st10" d="M367.7,154.6c0,0.3-0.2,0.5-0.5,0.5c-0.3,0-0.5-0.2-0.5-0.5c0-0.3,0.2-0.5,0.5-0.5
			C367.5,154.1,367.7,154.3,367.7,154.6z M366.8,160.2v-4.4h0.8v4.4H366.8z"/>
		<path class="st10" d="M371.8,160c-0.2,0.1-0.7,0.3-1.3,0.3c-1.3,0-2.2-0.9-2.2-2.2c0-1.3,0.9-2.3,2.3-2.3c0.5,0,0.9,0.1,1.1,0.2
			l-0.2,0.6c-0.2-0.1-0.5-0.2-0.9-0.2c-1,0-1.5,0.7-1.5,1.6c0,1,0.6,1.6,1.5,1.6c0.5,0,0.7-0.1,1-0.2L371.8,160z"/>
		<path class="st10" d="M373,158.2c0,1.1,0.7,1.5,1.5,1.5c0.6,0,0.9-0.1,1.2-0.2l0.1,0.6c-0.3,0.1-0.8,0.3-1.4,0.3
			c-1.3,0-2.1-0.9-2.1-2.2s0.8-2.3,2-2.3c1.4,0,1.8,1.3,1.8,2.1c0,0.2,0,0.3,0,0.4H373z M375.3,157.6c0-0.5-0.2-1.3-1.1-1.3
			c-0.8,0-1.2,0.7-1.2,1.3H375.3z"/>
		<path class="st10" d="M376.8,159.4c0.2,0.2,0.6,0.3,1,0.3c0.6,0,0.8-0.3,0.8-0.6c0-0.4-0.2-0.6-0.8-0.8c-0.8-0.3-1.2-0.7-1.2-1.2
			c0-0.7,0.6-1.3,1.5-1.3c0.4,0,0.8,0.1,1.1,0.3l-0.2,0.6c-0.2-0.1-0.5-0.3-0.9-0.3c-0.5,0-0.7,0.3-0.7,0.6c0,0.4,0.3,0.5,0.8,0.7
			c0.8,0.3,1.1,0.7,1.1,1.3c0,0.8-0.6,1.3-1.6,1.3c-0.5,0-0.9-0.1-1.2-0.3L376.8,159.4z"/>
	</g>
</g>
<g>
	<rect x="477" y="4.1" class="st1" width="41.1" height="41.1"/>
	<g>
		<rect x="484" y="10.4" class="st10" width="12.5" height="17.3"/>
		<rect x="485.8" y="12.2" class="st1" width="8.8" height="13.7"/>
	</g>
	<g>
		<rect x="491.3" y="15.9" class="st7" width="12.5" height="17.3"/>
		<rect x="493.2" y="17.7" class="st1" width="8.8" height="13.7"/>
	</g>
	<g>
		<rect x="498.7" y="21.3" class="st10" width="12.5" height="17.3"/>
		<rect x="500.5" y="23.1" class="st1" width="8.8" height="13.7"/>
	</g>
</g>
</svg>
