<svg id="Layer_1" data-name="Layer 1" xmlns="http://www.w3.org/2000/svg" viewBox="0 0 1250 557.97"><defs><style>.cls-1{fill:#fff;}.cls-2{fill:#c46dbe;}.cls-3{fill:#787878;}.cls-4{fill:#17242d;}.cls-5{fill:#939596;}.cls-6{fill:#0075c9;}.cls-7{fill:#959595;}.cls-8,.cls-9{fill:none;stroke:#959595;stroke-miterlimit:10;}.cls-8{stroke-width:2px;}.cls-9{stroke-width:1.74px;}.cls-10{fill:#3fa1f2;}</style></defs><title>aGalaxy-deployment-scenario-01</title><rect class="cls-1" x="1001.57" y="387.22" width="144.96" height="151.17"/><path class="cls-2" d="M1147.39,539.25h-4.86v-1.71h4v.6h.86Zm-8.86,0h-4v-1.71h4Zm-8,0h-4v-1.71h4Zm-8,0h-4v-1.71h4Zm-8,0h-4v-1.71h4Zm-8,0h-4v-1.71h4Zm-8,0h-4v-1.71h4Zm-8,0h-4v-1.71h4Zm-8,0h-4v-1.71h4Zm-8,0h-4v-1.71h4Zm-8,0h-4v-1.71h4Zm-8,0h-4v-1.71h4Zm-8,0h-4v-1.71h4Zm-8,0h-4v-1.71h4Zm-8,0h-4v-1.71h4Zm-8,0h-4v-1.71h4Zm-8,0h-4v-1.71h4Zm-8,0h-4v-1.71h4Zm-8,0h-1.81v-3.9h1.71v2.19h.1Zm144.86-5.11h-1.71v-4h1.71Zm-145-2.79h-1.71v-4h1.71Zm145-5.21h-1.71v-4h1.71Zm-145-2.79h-1.71v-4h1.71Zm145-5.21h-1.71v-4h1.71Zm-145-2.79h-1.71v-4h1.71Zm145-5.21h-1.71v-4h1.71Zm-145-2.79h-1.71v-4h1.71Zm145-5.21h-1.71v-4h1.71Zm-145-2.79h-1.71v-4h1.71Zm145-5.21h-1.71v-4h1.71Zm-145-2.79h-1.71v-4h1.71Zm145-5.21h-1.71v-4h1.71Zm-145-2.79h-1.71v-4h1.71Zm145-5.21h-1.71v-4h1.71Zm-145-2.79h-1.71v-4h1.71Zm145-5.21h-1.71v-4h1.71Zm-145-2.79h-1.71v-4h1.71Zm145-5.21h-1.71v-4h1.71Zm-145-2.79h-1.71v-4h1.71Zm145-5.21h-1.71v-4h1.71Zm-145-2.79h-1.71v-4h1.71Zm145-5.21h-1.71v-4h1.71Zm-145-2.79h-1.71v-4h1.71Zm145-5.21h-1.71v-4h1.71Zm-145-2.79h-1.71v-4h1.71Zm145-5.21h-1.71v-4h1.71Zm-145-2.79h-1.71v-4h1.71Zm145-5.21h-1.71v-4h1.71Zm-145-2.79h-1.71v-4h1.71Zm145-5.21h-1.71v-4h1.71Zm-145-2.79h-1.71v-4h1.71Zm145-5.21h-1.71v-4h1.71Zm-145-2.79h-1.71v-4h1.71Zm145-5.21h-1.71v-4h1.71Zm-145-2.79h-1.71v-4h1.71Zm145-5.21h-1.71v-2.06h-.23v-1.72h1.94Zm-5.94-2.06h-4v-1.72h4Zm-8,0h-4v-1.72h4Zm-8,0h-4v-1.72h4Zm-8,0h-4v-1.72h4Zm-8,0h-4v-1.72h4Zm-8,0h-4v-1.72h4Zm-8,0h-4v-1.72h4Zm-8,0h-4v-1.72h4Zm-8,0h-4v-1.72h4Zm-8,0h-4v-1.72h4Zm-8,0h-4v-1.72h4Zm-8,0h-4v-1.72h4Zm-8,0h-4v-1.72h4Zm-8,0h-4v-1.72h4Zm-8,0h-4v-1.72h4Zm-8,0h-4v-1.72h4Zm-8,0h-4v-1.72h4Zm-8,0h-3.87v-.73h-.86v-1h4.73Z"/><rect class="cls-1" x="23.17" y="386.67" width="144.96" height="151.17"/><path class="cls-2" d="M169,538.69h-4.86V537h4v.6H169Zm-8.86,0h-4V537h4Zm-8,0h-4V537h4Zm-8,0h-4V537h4Zm-8,0h-4V537h4Zm-8,0h-4V537h4Zm-8,0h-4V537h4Zm-8,0h-4V537h4Zm-8,0h-4V537h4Zm-8,0h-4V537h4Zm-8,0h-4V537h4Zm-8,0h-4V537h4Zm-8,0h-4V537h4Zm-8,0h-4V537h4Zm-8,0h-4V537h4Zm-8,0h-4V537h4Zm-8,0h-4V537h4Zm-8,0h-4V537h4Zm-8,0H22.31v-3.9H24V537h.1ZM169,533.58h-1.72v-4H169ZM24,530.8H22.31v-4H24Zm145-5.21h-1.72v-4H169ZM24,522.8H22.31v-4H24Zm145-5.21h-1.72v-4H169ZM24,514.8H22.31v-4H24Zm145-5.21h-1.72v-4H169ZM24,506.8H22.31v-4H24Zm145-5.21h-1.72v-4H169ZM24,498.8H22.31v-4H24Zm145-5.21h-1.72v-4H169ZM24,490.8H22.31v-4H24Zm145-5.21h-1.72v-4H169ZM24,482.8H22.31v-4H24Zm145-5.21h-1.72v-4H169ZM24,474.8H22.31v-4H24Zm145-5.21h-1.72v-4H169ZM24,466.8H22.31v-4H24Zm145-5.21h-1.72v-4H169ZM24,458.8H22.31v-4H24Zm145-5.21h-1.72v-4H169ZM24,450.8H22.31v-4H24Zm145-5.21h-1.72v-4H169ZM24,442.8H22.31v-4H24Zm145-5.21h-1.72v-4H169ZM24,434.8H22.31v-4H24Zm145-5.21h-1.72v-4H169ZM24,426.8H22.31v-4H24Zm145-5.21h-1.72v-4H169ZM24,418.8H22.31v-4H24Zm145-5.21h-1.72v-4H169ZM24,410.79H22.31v-4H24Zm145-5.21h-1.72v-4H169ZM24,402.79H22.31v-4H24Zm145-5.21h-1.72v-4H169ZM24,394.79H22.31v-4H24Zm145-5.21h-1.72v-2.06H167v-1.72H169ZM163,387.53h-4v-1.72h4Zm-8,0h-4v-1.72h4Zm-8,0h-4v-1.72h4Zm-8,0h-4v-1.72h4Zm-8,0h-4v-1.72h4Zm-8,0h-4v-1.72h4Zm-8,0h-4v-1.72h4Zm-8,0h-4v-1.72h4Zm-8,0H95v-1.72h4Zm-8,0H87v-1.72h4Zm-8,0H79v-1.72h4Zm-8,0H71v-1.72h4Zm-8,0H63v-1.72h4Zm-8,0H55v-1.72h4Zm-8,0H47v-1.72h4Zm-8,0H39v-1.72h4Zm-8,0H31v-1.72h4Zm-8,0H23.17v-.73h-.86v-1H27Z"/><rect class="cls-1" x="499.05" y="386.81" width="144.96" height="151.17"/><path class="cls-2" d="M644.86,538.84H640v-1.71h4v.6h.86Zm-8.86,0h-4v-1.71h4Zm-8,0h-4v-1.71h4Zm-8,0h-4v-1.71h4Zm-8,0h-4v-1.71h4Zm-8,0h-4v-1.71h4Zm-8,0h-4v-1.71h4Zm-8,0h-4v-1.71h4Zm-8,0h-4v-1.71h4Zm-8,0h-4v-1.71h4Zm-8,0h-4v-1.71h4Zm-8,0h-4v-1.71h4Zm-8,0h-4v-1.71h4Zm-8,0h-4v-1.71h4Zm-8,0h-4v-1.71h4Zm-8,0h-4v-1.71h4Zm-8,0h-4v-1.71h4Zm-8,0h-4v-1.71h4Zm-8,0h-1.82v-3.9h1.72v2.18h.1Zm144.86-5.11h-1.71v-4h1.71Zm-145-2.79h-1.72v-4h1.72Zm145-5.21h-1.71v-4h1.71Zm-145-2.79h-1.72v-4h1.72Zm145-5.21h-1.71v-4h1.71Zm-145-2.79h-1.72v-4h1.72Zm145-5.21h-1.71v-4h1.71Zm-145-2.79h-1.72v-4h1.72Zm145-5.21h-1.71v-4h1.71Zm-145-2.79h-1.72v-4h1.72Zm145-5.21h-1.71v-4h1.71Zm-145-2.79h-1.72v-4h1.72Zm145-5.21h-1.71v-4h1.71Zm-145-2.79h-1.72v-4h1.72Zm145-5.21h-1.71v-4h1.71Zm-145-2.79h-1.72v-4h1.72Zm145-5.21h-1.71v-4h1.71Zm-145-2.79h-1.72v-4h1.72Zm145-5.21h-1.71v-4h1.71Zm-145-2.79h-1.72v-4h1.72Zm145-5.21h-1.71v-4h1.71Zm-145-2.79h-1.72v-4h1.72Zm145-5.21h-1.71v-4h1.71Zm-145-2.79h-1.72v-4h1.72Zm145-5.21h-1.71v-4h1.71Zm-145-2.79h-1.72v-4h1.72Zm145-5.21h-1.71v-4h1.71Zm-145-2.79h-1.72v-4h1.72Zm145-5.21h-1.71v-4h1.71Zm-145-2.79h-1.72v-4h1.72Zm145-5.21h-1.71v-4h1.71Zm-145-2.79h-1.72v-4h1.72Zm145-5.21h-1.71v-4h1.71Zm-145-2.79h-1.72v-4h1.72Zm145-5.21h-1.71v-4h1.71Zm-145-2.79h-1.72v-4h1.72Zm145-5.21h-1.71v-2.06h-.23V386h1.94Zm-5.94-2.06h-4V386h4Zm-8,0h-4V386h4Zm-8,0h-4V386h4Zm-8,0h-4V386h4Zm-8,0h-4V386h4Zm-8,0h-4V386h4Zm-8,0h-4V386h4Zm-8,0h-4V386h4Zm-8,0h-4V386h4Zm-8,0h-4V386h4Zm-8,0h-4V386h4Zm-8,0h-4V386h4Zm-8,0h-4V386h4Zm-8,0h-4V386h4Zm-8,0h-4V386h4Zm-8,0h-4V386h4Zm-8,0h-4V386h4Zm-8,0H499v-.73h-.86v-1h4.73Z"/><path class="cls-3" d="M93.33,362.94a1,1,0,0,1-1-1V259.84a1,1,0,0,1,2,0v102.1A1,1,0,0,1,93.33,362.94Z"/><path class="cls-3" d="M1073.33,363.1a1,1,0,0,1-1-1V259.82a1,1,0,1,1,2,0V362.1A1,1,0,0,1,1073.33,363.1Z"/><path class="cls-4" d="M520.26,490.53h-3.43v9.53h-1.44v-9.53H512V489.4h8.29Z"/><path class="cls-4" d="M529.89,500.06h-1.44v-4.71h-5.18v4.71h-1.44V489.4h1.44v4.82h5.18V489.4h1.44Z"/><path class="cls-4" d="M540.32,489.4v7.23a3.24,3.24,0,0,1-1.13,2.67,4.53,4.53,0,0,1-3,.92,4.27,4.27,0,0,1-2.85-.93,3.29,3.29,0,0,1-1.1-2.66V489.4h1.44v7.22a2.35,2.35,0,0,0,.69,1.83,2.6,2.6,0,0,0,1.82.63,2.84,2.84,0,0,0,1.92-.63,2.28,2.28,0,0,0,.73-1.83V489.4Z"/><path class="cls-4" d="M550.74,500.06H549.3l-5.13-8.25h0v8.23h-1.44V489.4h1.44l5.13,8.23h0V489.4h1.44Z"/><path class="cls-4" d="M553.38,500.06V489.4h3.27a4.38,4.38,0,0,1,4.63,4.61v1.46a4.37,4.37,0,0,1-4.63,4.6Zm1.44-9.53v8.39h1.83a2.94,2.94,0,0,0,2.33-1,3.65,3.65,0,0,0,.85-2.5V494a3.63,3.63,0,0,0-.85-2.48,2.94,2.94,0,0,0-2.33-1Z"/><path class="cls-4" d="M569.59,495.12H564.7v3.81h5.63v1.13h-7.08V489.4h7v1.13H564.7V494h4.89Z"/><path class="cls-4" d="M573.47,495.44v4.62H572V489.41h3.86a4.06,4.06,0,0,1,2.67.78,2.78,2.78,0,0,1,.92,2.26,2.41,2.41,0,0,1-.43,1.43,2.9,2.9,0,0,1-1.25,1,2.18,2.18,0,0,1,1.26.93,3,3,0,0,1,.38,1.59v1a3.34,3.34,0,0,0,.11.89,1.34,1.34,0,0,0,.38.64v.18h-1.49a1.19,1.19,0,0,1-.37-.73,6.05,6.05,0,0,1-.08-1v-1a1.93,1.93,0,0,0-.51-1.39,1.79,1.79,0,0,0-1.35-.53Zm0-1.14h2.27a2.68,2.68,0,0,0,1.76-.46,1.77,1.77,0,0,0,.54-1.42,1.82,1.82,0,0,0-.52-1.39,2.31,2.31,0,0,0-1.63-.49h-2.42Z"/><path class="cls-4" d="M585.66,495.25l.62-5.85h5.34v1.28H587.5l-.35,3a3.34,3.34,0,0,1,.75-.41,2.81,2.81,0,0,1,1-.18,2.87,2.87,0,0,1,2.32,1,3.86,3.86,0,0,1,.85,2.62,3.75,3.75,0,0,1-.86,2.58,3.17,3.17,0,0,1-2.51,1,3.44,3.44,0,0,1-2.26-.74,2.56,2.56,0,0,1-.86-2.18v0h1.3a1.77,1.77,0,0,0,.5,1.35,1.81,1.81,0,0,0,1.3.48,1.7,1.7,0,0,0,1.42-.64,2.78,2.78,0,0,0,.51-1.76,2.65,2.65,0,0,0-.51-1.68,1.69,1.69,0,0,0-1.41-.66,2.26,2.26,0,0,0-1.23.26,1.46,1.46,0,0,0-.56.78Z"/><path class="cls-4" d="M595.66,494.06h1.26a1.68,1.68,0,0,0,1.36-.48,2,2,0,0,0,.4-1.34,2,2,0,0,0-.45-1.39,1.77,1.77,0,0,0-1.34-.48,1.86,1.86,0,0,0-1.35.49,1.75,1.75,0,0,0-.51,1.32h-1.38v0a2.58,2.58,0,0,1,.88-2.05,3.37,3.37,0,0,1,2.38-.85,3.4,3.4,0,0,1,2.36.79,2.86,2.86,0,0,1,.88,2.25,2.56,2.56,0,0,1-1.6,2.31,2.35,2.35,0,0,1,1.36,1,3.16,3.16,0,0,1-.56,3.8,3.58,3.58,0,0,1-2.44.84,3.67,3.67,0,0,1-2.41-.79,2.52,2.52,0,0,1-.92-2.13l0,0H595a1.77,1.77,0,0,0,.52,1.33,2,2,0,0,0,1.42.5,2,2,0,0,0,1.44-.5,1.93,1.93,0,0,0,.52-1.47,2,2,0,0,0-.46-1.45,2,2,0,0,0-1.46-.47h-1.26Z"/><path class="cls-4" d="M604.11,494.06h1.26a1.68,1.68,0,0,0,1.36-.48,2,2,0,0,0,.4-1.34,2,2,0,0,0-.45-1.39,1.77,1.77,0,0,0-1.34-.48,1.86,1.86,0,0,0-1.35.49,1.75,1.75,0,0,0-.51,1.32h-1.38v0a2.58,2.58,0,0,1,.88-2.05,3.37,3.37,0,0,1,2.38-.85,3.4,3.4,0,0,1,2.36.79,2.86,2.86,0,0,1,.88,2.25,2.56,2.56,0,0,1-1.6,2.31,2.35,2.35,0,0,1,1.36,1,3.16,3.16,0,0,1-.56,3.8,3.58,3.58,0,0,1-2.44.84,3.67,3.67,0,0,1-2.41-.79,2.52,2.52,0,0,1-.92-2.13l0,0h1.38a1.77,1.77,0,0,0,.52,1.33,2,2,0,0,0,1.42.5,2,2,0,0,0,1.44-.5,1.93,1.93,0,0,0,.52-1.47,2,2,0,0,0-.46-1.45,2,2,0,0,0-1.46-.47h-1.26Z"/><path class="cls-4" d="M617.33,496a4.78,4.78,0,0,1-.9,3.13,3.38,3.38,0,0,1-5,0,4.74,4.74,0,0,1-.92-3.13v-2.53a4.77,4.77,0,0,1,.91-3.13,3.36,3.36,0,0,1,5,0,4.76,4.76,0,0,1,.91,3.13Zm-1.44-2.84a3.57,3.57,0,0,0-.5-2.08,1.86,1.86,0,0,0-2.9,0,3.58,3.58,0,0,0-.5,2.08v3.12a3.58,3.58,0,0,0,.51,2.09,1.68,1.68,0,0,0,1.46.71,1.66,1.66,0,0,0,1.45-.7,3.64,3.64,0,0,0,.49-2.09Z"/><path class="cls-4" d="M625.29,497.38a1.57,1.57,0,0,0-.55-1.22,4.64,4.64,0,0,0-1.95-.83,6.46,6.46,0,0,1-2.64-1.19,2.46,2.46,0,0,1-.95-2,2.59,2.59,0,0,1,1-2.08,4,4,0,0,1,2.65-.84,3.94,3.94,0,0,1,2.79,1,2.83,2.83,0,0,1,1,2.23v0h-1.38a2,2,0,0,0-.62-1.52,3,3,0,0,0-3.43-.09,1.58,1.58,0,0,0-.57,1.27,1.4,1.4,0,0,0,.62,1.16,5.92,5.92,0,0,0,2,.82,5.77,5.77,0,0,1,2.56,1.23,2.63,2.63,0,0,1,.88,2,2.46,2.46,0,0,1-1.05,2.07,4.5,4.5,0,0,1-2.75.78,4.77,4.77,0,0,1-2.82-.87,2.62,2.62,0,0,1-1.19-2.32v0h1.38a1.79,1.79,0,0,0,.75,1.56,3.15,3.15,0,0,0,1.87.53,2.91,2.91,0,0,0,1.73-.46A1.45,1.45,0,0,0,625.29,497.38Z"/><path class="cls-4" d="M44.38,490.59H40.95v9.53H39.5v-9.53H36.08v-1.13h8.29Z"/><path class="cls-4" d="M54,500.11H52.56v-4.71H47.39v4.71H45.94V489.45h1.44v4.82h5.18v-4.82H54Z"/><path class="cls-4" d="M64.44,489.45v7.23a3.24,3.24,0,0,1-1.13,2.67,4.53,4.53,0,0,1-3,.92,4.27,4.27,0,0,1-2.85-.93,3.29,3.29,0,0,1-1.1-2.66v-7.23h1.44v7.22a2.35,2.35,0,0,0,.69,1.83,2.6,2.6,0,0,0,1.82.63,2.84,2.84,0,0,0,1.92-.63,2.28,2.28,0,0,0,.73-1.83v-7.22Z"/><path class="cls-4" d="M74.86,500.11H73.42l-5.13-8.25h0v8.23H66.79V489.45h1.44l5.13,8.23h0v-8.22h1.44Z"/><path class="cls-4" d="M77.5,500.11V489.45h3.27a4.38,4.38,0,0,1,4.63,4.61v1.46a4.37,4.37,0,0,1-4.63,4.6Zm1.44-9.53V499h1.83a2.94,2.94,0,0,0,2.33-1,3.65,3.65,0,0,0,.85-2.5V494a3.63,3.63,0,0,0-.85-2.48,2.94,2.94,0,0,0-2.33-1Z"/><path class="cls-4" d="M93.7,495.17H88.82V499h5.63v1.13H87.38V489.45h7v1.13H88.82V494H93.7Z"/><path class="cls-4" d="M97.59,495.49v4.62H96.14V489.46H100a4.06,4.06,0,0,1,2.67.78,2.78,2.78,0,0,1,.92,2.26,2.41,2.41,0,0,1-.43,1.43,2.9,2.9,0,0,1-1.25,1,2.18,2.18,0,0,1,1.26.93,3,3,0,0,1,.38,1.59v1a3.34,3.34,0,0,0,.11.89,1.34,1.34,0,0,0,.38.64v.18h-1.49a1.19,1.19,0,0,1-.37-.73,6.05,6.05,0,0,1-.08-1v-1a1.93,1.93,0,0,0-.51-1.39,1.79,1.79,0,0,0-1.35-.53Zm0-1.14h2.27a2.68,2.68,0,0,0,1.76-.46,1.77,1.77,0,0,0,.54-1.42,1.82,1.82,0,0,0-.52-1.39,2.31,2.31,0,0,0-1.63-.49H97.59Z"/><path class="cls-4" d="M111.33,494.12h1.26a1.68,1.68,0,0,0,1.36-.48,2,2,0,0,0,.4-1.34,2,2,0,0,0-.45-1.39,1.77,1.77,0,0,0-1.34-.48,1.86,1.86,0,0,0-1.35.49,1.75,1.75,0,0,0-.51,1.32h-1.38v0a2.58,2.58,0,0,1,.88-2.05,3.37,3.37,0,0,1,2.38-.85,3.4,3.4,0,0,1,2.36.79,2.86,2.86,0,0,1,.88,2.25,2.56,2.56,0,0,1-1.6,2.31,2.35,2.35,0,0,1,1.36,1,3.16,3.16,0,0,1-.56,3.8,3.58,3.58,0,0,1-2.44.84,3.67,3.67,0,0,1-2.41-.79,2.52,2.52,0,0,1-.92-2.13l0,0h1.38a1.77,1.77,0,0,0,.52,1.33,2,2,0,0,0,1.42.5,2,2,0,0,0,1.44-.5,1.93,1.93,0,0,0,.52-1.47,2,2,0,0,0-.46-1.45,2,2,0,0,0-1.46-.47h-1.26Z"/><path class="cls-4" d="M124.71,500.11H117.8v-1l3.49-3.88a9.79,9.79,0,0,0,1.27-1.66,2.62,2.62,0,0,0,.33-1.26,2,2,0,0,0-.46-1.34,1.54,1.54,0,0,0-1.23-.55,2.12,2.12,0,0,0-1.63.57,2.26,2.26,0,0,0-.52,1.59h-1.38v0a3,3,0,0,1,.92-2.31,3.6,3.6,0,0,1,2.64-.94,3.13,3.13,0,0,1,2.29.84,2.87,2.87,0,0,1,.85,2.14,3.41,3.41,0,0,1-.52,1.75,11.24,11.24,0,0,1-1.45,1.88l-2.81,3v0h5.13Z"/><path class="cls-4" d="M128.22,494.12h1.26a1.68,1.68,0,0,0,1.36-.48,2,2,0,0,0,.4-1.34,2,2,0,0,0-.45-1.39,1.77,1.77,0,0,0-1.34-.48,1.86,1.86,0,0,0-1.35.49,1.75,1.75,0,0,0-.51,1.32H126.2v0a2.58,2.58,0,0,1,.88-2.05,3.37,3.37,0,0,1,2.38-.85,3.4,3.4,0,0,1,2.36.79,2.86,2.86,0,0,1,.88,2.25,2.56,2.56,0,0,1-1.6,2.31,2.35,2.35,0,0,1,1.36,1,3.16,3.16,0,0,1-.56,3.8,3.58,3.58,0,0,1-2.44.84,3.67,3.67,0,0,1-2.41-.79,2.52,2.52,0,0,1-.92-2.13l0,0h1.38a1.77,1.77,0,0,0,.52,1.33,2,2,0,0,0,1.42.5,2,2,0,0,0,1.44-.5,1.93,1.93,0,0,0,.52-1.47,2,2,0,0,0-.46-1.45,2,2,0,0,0-1.46-.47h-1.26Z"/><path class="cls-4" d="M141.44,496a4.78,4.78,0,0,1-.9,3.13,3.38,3.38,0,0,1-5,0,4.74,4.74,0,0,1-.92-3.13v-2.53a4.77,4.77,0,0,1,.91-3.13,3.36,3.36,0,0,1,5,0,4.76,4.76,0,0,1,.91,3.13ZM140,493.21a3.57,3.57,0,0,0-.5-2.08,1.86,1.86,0,0,0-2.9,0,3.58,3.58,0,0,0-.5,2.08v3.12a3.58,3.58,0,0,0,.51,2.09,1.68,1.68,0,0,0,1.46.71,1.66,1.66,0,0,0,1.45-.7,3.64,3.64,0,0,0,.49-2.09Z"/><path class="cls-4" d="M149.4,497.43a1.57,1.57,0,0,0-.55-1.22,4.64,4.64,0,0,0-1.95-.83,6.46,6.46,0,0,1-2.64-1.19,2.46,2.46,0,0,1-.95-2,2.59,2.59,0,0,1,1-2.08,4,4,0,0,1,2.65-.84,3.94,3.94,0,0,1,2.79,1,2.83,2.83,0,0,1,1,2.23v0h-1.38a2,2,0,0,0-.62-1.52,3,3,0,0,0-3.43-.09,1.58,1.58,0,0,0-.57,1.27,1.4,1.4,0,0,0,.62,1.16,5.92,5.92,0,0,0,2,.82A5.77,5.77,0,0,1,150,495.4a2.63,2.63,0,0,1,.88,2,2.46,2.46,0,0,1-1.05,2.07,4.5,4.5,0,0,1-2.75.78,4.77,4.77,0,0,1-2.82-.87,2.62,2.62,0,0,1-1.19-2.32v0h1.38a1.79,1.79,0,0,0,.75,1.56,3.15,3.15,0,0,0,1.87.53,2.91,2.91,0,0,0,1.73-.46A1.45,1.45,0,0,0,149.4,497.43Z"/><rect class="cls-3" x="92.41" y="258.56" width="423.97" height="2"/><polygon class="cls-3" points="509.75 267.75 508.39 266.28 515.61 259.57 508.39 252.85 509.75 251.39 518.55 259.57 509.75 267.75"/><rect class="cls-3" x="632.72" y="258.7" width="441.51" height="2"/><polygon class="cls-3" points="639.35 251.52 640.71 252.98 633.49 259.7 640.71 266.41 639.35 267.88 630.55 259.7 639.35 251.52"/><rect class="cls-3" x="572.26" y="316.74" width="2" height="44.84" transform="translate(-2.95 5.04) rotate(-0.5)"/><polygon class="cls-3" points="565.22 355.03 566.67 353.65 573.45 360.82 580.1 353.54 581.58 354.89 573.48 363.75 565.22 355.03"/><polygon class="cls-5" points="169.17 538.69 22.18 538.9 22.18 519.63 169.17 519.42 169.17 538.69"/><path class="cls-4" d="M75.39,529.39H70.51v3.81h5.63v1.13H69.06V523.67h7v1.13H70.51v3.45h4.89Z"/><path class="cls-4" d="M82.59,533.16a2.68,2.68,0,0,1-1,1,2.63,2.63,0,0,1-1.35.34,2.55,2.55,0,0,1-2-.83,3.84,3.84,0,0,1-.73-2.58v-4.67H79v4.69a3,3,0,0,0,.37,1.74,1.39,1.39,0,0,0,1.16.48,2.38,2.38,0,0,0,1.27-.31,2,2,0,0,0,.76-.88v-5.71H84v7.92h-1.3Z"/><path class="cls-4" d="M89.83,527.68l-.74,0a1.66,1.66,0,0,0-1,.27,1.75,1.75,0,0,0-.6.76v5.66H86.08v-7.92h1.29l.14,1.16a2.75,2.75,0,0,1,.83-1,2,2,0,0,1,1.14-.34l.31,0,.24.06Z"/><path class="cls-4" d="M90.89,530.3a4.37,4.37,0,0,1,1-2.9,3.53,3.53,0,0,1,5.19,0,4.35,4.35,0,0,1,1,2.9v.16a4.34,4.34,0,0,1-1,2.9,3.54,3.54,0,0,1-5.19,0,4.34,4.34,0,0,1-1-2.9Zm1.44.16a3.74,3.74,0,0,0,.53,2.08,1.92,1.92,0,0,0,3.15,0,3.73,3.73,0,0,0,.53-2.08v-.16a3.72,3.72,0,0,0-.54-2.07,1.76,1.76,0,0,0-1.58-.83,1.74,1.74,0,0,0-1.56.83,3.75,3.75,0,0,0-.53,2.07Z"/><path class="cls-4" d="M106.5,530.67a4.37,4.37,0,0,1-.82,2.76,2.71,2.71,0,0,1-2.26,1.05,3.13,3.13,0,0,1-1.29-.25,2.44,2.44,0,0,1-.94-.74v3.88H99.75v-11h1.11l.23,1a2.63,2.63,0,0,1,1-.87,2.9,2.9,0,0,1,1.35-.3,2.63,2.63,0,0,1,2.29,1.17,5.29,5.29,0,0,1,.82,3.09Zm-1.44-.16a4.18,4.18,0,0,0-.53-2.21,1.72,1.72,0,0,0-1.56-.87,1.93,1.93,0,0,0-1.06.28,2.11,2.11,0,0,0-.71.77v3.83a2,2,0,0,0,.71.76,2,2,0,0,0,1.08.27,1.78,1.78,0,0,0,1.55-.75,3.29,3.29,0,0,0,.53-1.93Z"/><path class="cls-4" d="M111.57,534.49a3.34,3.34,0,0,1-2.63-1.1,4.15,4.15,0,0,1-1-2.86v-.32a4.06,4.06,0,0,1,1-2.82,3.1,3.1,0,0,1,2.38-1.12,3,3,0,0,1,2.42,1,3.85,3.85,0,0,1,.82,2.58v.9h-5.14l0,0a3.12,3.12,0,0,0,.58,1.87,1.85,1.85,0,0,0,1.56.73,3.62,3.62,0,0,0,1.29-.21,2.93,2.93,0,0,0,1-.58l.56.94a3.37,3.37,0,0,1-1.12.7A4.52,4.52,0,0,1,111.57,534.49Zm-.22-7.09a1.56,1.56,0,0,0-1.24.61,2.88,2.88,0,0,0-.63,1.53v0h3.65v-.19a2.2,2.2,0,0,0-.45-1.42A1.62,1.62,0,0,0,111.35,527.4Z"/><polygon class="cls-5" points="645.05 538.83 498.05 539.04 498.05 519.78 645.05 519.56 645.05 538.83"/><path class="cls-4" d="M529.87,534.48h-1.44l-5.13-8.25h0v8.23H521.8V523.82h1.44l5.13,8.23h0v-8.22h1.44Z"/><path class="cls-4" d="M531.9,530.44a4.37,4.37,0,0,1,1-2.9,3.53,3.53,0,0,1,5.19,0,4.35,4.35,0,0,1,1,2.9v.16a4.34,4.34,0,0,1-1,2.9,3.54,3.54,0,0,1-5.19,0,4.34,4.34,0,0,1-1-2.9Zm1.44.16a3.74,3.74,0,0,0,.53,2.08,1.92,1.92,0,0,0,3.15,0,3.73,3.73,0,0,0,.53-2.08v-.16a3.72,3.72,0,0,0-.54-2.07,1.76,1.76,0,0,0-1.58-.83,1.74,1.74,0,0,0-1.56.83,3.75,3.75,0,0,0-.53,2.07Z"/><path class="cls-4" d="M544.51,527.83l-.74,0a1.66,1.66,0,0,0-1,.27,1.75,1.75,0,0,0-.6.76v5.66h-1.44v-7.92H542l.14,1.16a2.75,2.75,0,0,1,.83-1,2,2,0,0,1,1.14-.34l.31,0,.24.06Z"/><path class="cls-4" d="M547.8,524.64v1.91h1.5v1.07h-1.5v4.81a1.07,1.07,0,0,0,.23.78.83.83,0,0,0,.61.23l.27,0,.27-.07.19,1a1.27,1.27,0,0,1-.47.22,2.37,2.37,0,0,1-.63.08,1.87,1.87,0,0,1-1.4-.53,2.31,2.31,0,0,1-.52-1.67v-4.81H545.1v-1.07h1.26v-1.91Z"/><path class="cls-4" d="M552.53,527.62a2.93,2.93,0,0,1,1-.89,2.77,2.77,0,0,1,1.32-.32,2.56,2.56,0,0,1,2,.76,3.35,3.35,0,0,1,.71,2.34v5h-1.44v-5a2.12,2.12,0,0,0-.42-1.45,1.6,1.6,0,0,0-1.26-.47,2.13,2.13,0,0,0-1.09.28,2.35,2.35,0,0,0-.8.77v5.85h-1.44V523.05h1.44Z"/><path class="cls-4" d="M569.39,531.73h-4.47l-1,2.75h-1.47l4.12-10.66h1.24l4.06,10.66h-1.47Zm-4-1.21H569l-1.76-4.86h0Z"/><path class="cls-4" d="M574.34,526.55l.1,1a2.69,2.69,0,0,1,1-.87,3,3,0,0,1,1.39-.31,2.45,2.45,0,0,1,1.36.37,2.22,2.22,0,0,1,.85,1.1,2.94,2.94,0,0,1,1-1.07,2.6,2.6,0,0,1,1.44-.4,2.37,2.37,0,0,1,1.91.83,3.8,3.8,0,0,1,.7,2.5v4.74h-1.44v-4.75a2.63,2.63,0,0,0-.4-1.66,1.47,1.47,0,0,0-1.2-.49,1.53,1.53,0,0,0-1.2.51,2.23,2.23,0,0,0-.54,1.3v5.09h-1.45v-4.75a2.6,2.6,0,0,0-.41-1.63,1.43,1.43,0,0,0-1.19-.52,2,2,0,0,0-1.08.27,1.76,1.76,0,0,0-.65.76v5.87h-1.44v-7.92Z"/><path class="cls-4" d="M589.45,534.63a3.34,3.34,0,0,1-2.63-1.1,4.15,4.15,0,0,1-1-2.86v-.32a4.06,4.06,0,0,1,1-2.82,3.1,3.1,0,0,1,2.38-1.12,3,3,0,0,1,2.42,1,3.85,3.85,0,0,1,.82,2.58v.9h-5.14l0,0a3.12,3.12,0,0,0,.58,1.87,1.85,1.85,0,0,0,1.56.73,3.62,3.62,0,0,0,1.29-.21,2.93,2.93,0,0,0,1-.58l.56.94a3.37,3.37,0,0,1-1.12.7A4.52,4.52,0,0,1,589.45,534.63Zm-.22-7.09a1.56,1.56,0,0,0-1.24.61,2.88,2.88,0,0,0-.63,1.53v0H591v-.19a2.2,2.2,0,0,0-.45-1.42A1.62,1.62,0,0,0,589.23,527.54Z"/><path class="cls-4" d="M597.84,527.83l-.74,0a1.66,1.66,0,0,0-1,.27,1.75,1.75,0,0,0-.6.76v5.66h-1.44v-7.92h1.29l.14,1.16a2.75,2.75,0,0,1,.83-1,2,2,0,0,1,1.14-.34l.31,0,.24.06Z"/><path class="cls-4" d="M600.79,524.53h-1.44v-1.47h1.44Zm0,10h-1.44v-7.92h1.44Z"/><path class="cls-4" d="M606.24,533.5a1.94,1.94,0,0,0,1.26-.44A1.35,1.35,0,0,0,608,532h1.3v0a2.23,2.23,0,0,1-.91,1.82,3.33,3.33,0,0,1-2.21.8,3.21,3.21,0,0,1-2.64-1.13,4.35,4.35,0,0,1-.92-2.83v-.31a4.33,4.33,0,0,1,.92-2.82,3.61,3.61,0,0,1,4.91-.31,2.55,2.55,0,0,1,.85,2v0H608a1.67,1.67,0,0,0-.51-1.23,1.76,1.76,0,0,0-1.3-.51,1.74,1.74,0,0,0-1.62.82,3.84,3.84,0,0,0-.49,2v.31a3.88,3.88,0,0,0,.48,2A1.74,1.74,0,0,0,606.24,533.5Z"/><path class="cls-4" d="M615.85,534.48q-.07-.36-.11-.63a4.54,4.54,0,0,1,0-.55,3.38,3.38,0,0,1-1.05,1,2.69,2.69,0,0,1-1.4.38,2.59,2.59,0,0,1-1.89-.63,2.33,2.33,0,0,1-.65-1.75,2,2,0,0,1,.92-1.78,4.3,4.3,0,0,1,2.49-.64h1.57v-.78a1.45,1.45,0,0,0-.42-1.1,1.67,1.67,0,0,0-1.2-.41,1.74,1.74,0,0,0-1.13.35,1.07,1.07,0,0,0-.44.85h-1.38v0a1.92,1.92,0,0,1,.82-1.58,3.35,3.35,0,0,1,2.22-.72,3.27,3.27,0,0,1,2.17.68,2.43,2.43,0,0,1,.82,2v3.82a7.43,7.43,0,0,0,0,.82,4.22,4.22,0,0,0,.16.78Zm-2.4-1.06a2.57,2.57,0,0,0,1.41-.4,1.91,1.91,0,0,0,.82-.92v-1.29h-1.62a2.1,2.1,0,0,0-1.4.44,1.31,1.31,0,0,0-.52,1,1.08,1.08,0,0,0,.33.83A1.38,1.38,0,0,0,613.45,533.42Z"/><path class="cls-4" d="M1039.85,498.13l.12.56h0l.14-.56,1.82-5.59h1.47l-2.92,7.92h-1.09l-3-7.92H1038Z"/><path class="cls-4" d="M1052.24,490.94h-3.43v9.53h-1.44v-9.53H1044v-1.13h8.29Z"/><path class="cls-4" d="M1061.87,500.47h-1.44v-4.71h-5.18v4.71h-1.44V489.81h1.44v4.82h5.18v-4.82h1.44Z"/><path class="cls-4" d="M1072.3,489.81V497a3.24,3.24,0,0,1-1.13,2.67,4.53,4.53,0,0,1-3,.92,4.27,4.27,0,0,1-2.85-.93,3.29,3.29,0,0,1-1.09-2.66v-7.23h1.44V497a2.35,2.35,0,0,0,.69,1.83,2.6,2.6,0,0,0,1.82.63,2.84,2.84,0,0,0,1.92-.63,2.28,2.28,0,0,0,.73-1.83v-7.22Z"/><path class="cls-4" d="M1082.73,500.47h-1.44l-5.13-8.25h0v8.23h-1.44V489.81h1.44l5.13,8.23h0v-8.22h1.44Z"/><path class="cls-4" d="M1085.36,500.47V489.81h3.27a4.38,4.38,0,0,1,4.63,4.61v1.46a4.37,4.37,0,0,1-4.63,4.6Zm1.44-9.53v8.39h1.83a2.94,2.94,0,0,0,2.33-1,3.65,3.65,0,0,0,.85-2.5V494.4a3.63,3.63,0,0,0-.85-2.48,2.94,2.94,0,0,0-2.33-1Z"/><path class="cls-4" d="M1101.57,495.53h-4.88v3.81h5.63v1.13h-7.08V489.81h7v1.13h-5.55v3.45h4.88Z"/><path class="cls-4" d="M1105.45,495.85v4.62H1104V489.81h3.86a4.06,4.06,0,0,1,2.67.78,2.78,2.78,0,0,1,.92,2.26,2.41,2.41,0,0,1-.43,1.43,2.9,2.9,0,0,1-1.25,1,2.18,2.18,0,0,1,1.26.93,3,3,0,0,1,.38,1.59v1a3.34,3.34,0,0,0,.11.89,1.34,1.34,0,0,0,.38.64v.18h-1.49a1.19,1.19,0,0,1-.37-.73,6,6,0,0,1-.08-1v-1a1.93,1.93,0,0,0-.5-1.39,1.79,1.79,0,0,0-1.36-.53Zm0-1.14h2.27a2.68,2.68,0,0,0,1.76-.46,1.77,1.77,0,0,0,.54-1.42,1.82,1.82,0,0,0-.52-1.39,2.32,2.32,0,0,0-1.63-.49h-2.42Z"/><polygon class="cls-5" points="1147.57 539.24 1000.58 539.45 1000.58 520.19 1147.57 519.97 1147.57 539.24"/><path class="cls-4" d="M1068.16,532.14h-4.47l-1,2.75h-1.47l4.12-10.66h1.24l4.06,10.66h-1.47Zm-4-1.21h3.59l-1.76-4.86h0Z"/><path class="cls-4" d="M1076.43,532.78a1,1,0,0,0-.36-.78,3.42,3.42,0,0,0-1.37-.54,5.78,5.78,0,0,1-2.17-.85,1.73,1.73,0,0,1-.73-1.47,2.07,2.07,0,0,1,.82-1.65,3.74,3.74,0,0,1,4.34,0,2.1,2.1,0,0,1,.78,1.73v0h-1.38a1.26,1.26,0,0,0-.44-.93,1.61,1.61,0,0,0-1.15-.41,1.67,1.67,0,0,0-1.14.34,1.06,1.06,0,0,0-.37.81.9.9,0,0,0,.33.74,3.4,3.4,0,0,0,1.34.48,5.76,5.76,0,0,1,2.23.88,1.76,1.76,0,0,1,.73,1.48,2,2,0,0,1-.85,1.71,3.58,3.58,0,0,1-2.23.65,3.48,3.48,0,0,1-2.39-.77,2.19,2.19,0,0,1-.83-1.79v0H1073a1.33,1.33,0,0,0,.57,1.12,2.22,2.22,0,0,0,1.25.35,2,2,0,0,0,1.21-.31A1,1,0,0,0,1076.43,532.78Z"/><path class="cls-4" d="M1081.23,524.93h-1.44v-1.47h1.44Zm0,10h-1.44V527h1.44Z"/><path class="cls-4" d="M1088.32,534.89q-.07-.36-.11-.63a4.54,4.54,0,0,1,0-.55,3.38,3.38,0,0,1-1.05,1,2.69,2.69,0,0,1-1.4.38,2.59,2.59,0,0,1-1.89-.63,2.33,2.33,0,0,1-.65-1.75,2,2,0,0,1,.92-1.78,4.3,4.3,0,0,1,2.49-.64h1.57v-.78a1.45,1.45,0,0,0-.42-1.1,1.67,1.67,0,0,0-1.2-.41,1.74,1.74,0,0,0-1.13.35,1.07,1.07,0,0,0-.44.85h-1.38v0a1.92,1.92,0,0,1,.82-1.58,3.36,3.36,0,0,1,2.22-.72,3.27,3.27,0,0,1,2.17.68,2.43,2.43,0,0,1,.82,2v3.82a7.43,7.43,0,0,0,0,.82,4.22,4.22,0,0,0,.16.78Zm-2.39-1.06a2.57,2.57,0,0,0,1.41-.4,1.91,1.91,0,0,0,.82-.92v-1.29h-1.62a2.1,2.1,0,0,0-1.4.44,1.31,1.31,0,0,0-.52,1,1.08,1.08,0,0,0,.33.83A1.38,1.38,0,0,0,1085.92,533.83Z"/><circle class="cls-6" cx="573.17" cy="261.43" r="40.05"/><path class="cls-1" d="M572.92,285.26a24,24,0,0,1-23-17.61,1,1,0,1,1,1.93-.52A21.83,21.83,0,0,0,594.66,263a1,1,0,0,1,2,.14,23.81,23.81,0,0,1-23.73,22.1Z"/><path class="cls-1" d="M584.42,242.9l-.64-.38,1-1.73.7.42Z"/><path class="cls-1" d="M593.9,255.54q-.18-.65-.4-1.29l1.89-.66q.24.69.44,1.4Zm-1.44-3.77q-.3-.61-.63-1.19l1.74-1q.36.64.69,1.3Zm-2.11-3.44q-.41-.54-.84-1.05L591,246q.48.56.92,1.15Zm-2.72-3q-.5-.46-1-.88l1.26-1.55q.57.46,1.11,1Z"/><path class="cls-1" d="M594.57,258.93q0-.37-.1-.74l2-.3q.06.4.11.81Z"/><path class="cls-1" d="M550.08,261.36h0a1,1,0,0,1-1-1,23.83,23.83,0,0,1,35.7-19.53,1,1,0,0,1-1,1.73,21.83,21.83,0,0,0-32.7,17.89A1,1,0,0,1,550.08,261.36Z"/><path class="cls-1" d="M550.09,263.41l-5-4.46a1,1,0,1,1,1.34-1.49l3.78,3.4,4.3-3a1,1,0,0,1,1.15,1.64Z"/><path class="cls-4" d="M547.11,209.89q-.07-.36-.11-.63a4.54,4.54,0,0,1,0-.55,3.38,3.38,0,0,1-1.05,1,2.69,2.69,0,0,1-1.4.38,2.59,2.59,0,0,1-1.89-.63,2.33,2.33,0,0,1-.65-1.75,2,2,0,0,1,.92-1.78,4.3,4.3,0,0,1,2.49-.64H547v-.78a1.45,1.45,0,0,0-.42-1.1,1.67,1.67,0,0,0-1.2-.41,1.74,1.74,0,0,0-1.13.35,1.07,1.07,0,0,0-.44.85h-1.38v0a1.92,1.92,0,0,1,.82-1.58,3.35,3.35,0,0,1,2.22-.72,3.27,3.27,0,0,1,2.17.68,2.43,2.43,0,0,1,.82,2v3.82a7.43,7.43,0,0,0,0,.82,4.22,4.22,0,0,0,.16.78Zm-2.4-1.06a2.57,2.57,0,0,0,1.41-.4,1.91,1.91,0,0,0,.82-.92v-1.29h-1.62a2.1,2.1,0,0,0-1.4.44,1.31,1.31,0,0,0-.52,1,1.08,1.08,0,0,0,.33.83A1.38,1.38,0,0,0,544.72,208.83Z"/><path class="cls-4" d="M558.49,208.47a3.41,3.41,0,0,1-1.32,1.08,5.26,5.26,0,0,1-2.44.49,4.33,4.33,0,0,1-3.16-1.22,4.23,4.23,0,0,1-1.25-3.16v-2.2a4.4,4.4,0,0,1,1.16-3.16,4,4,0,0,1,3-1.22,4.27,4.27,0,0,1,2.88.9,3,3,0,0,1,1.07,2.32v0H557a2.24,2.24,0,0,0-.71-1.53,2.61,2.61,0,0,0-1.85-.6,2.42,2.42,0,0,0-2,.92,3.55,3.55,0,0,0-.75,2.32v2.21a3.34,3.34,0,0,0,.83,2.34,2.74,2.74,0,0,0,2.12.92,3.9,3.9,0,0,0,1.49-.24,2.08,2.08,0,0,0,.83-.55V205.7h-2.34v-1.13h3.78Z"/><path class="cls-4" d="M566.76,207.14H562.3l-1,2.75h-1.47l4.12-10.66h1.24l4.06,10.66h-1.47Zm-4-1.21h3.59l-1.76-4.86h0Z"/><path class="cls-4" d="M572.14,208.75h5v1.13H570.7V199.22h1.44Z"/><path class="cls-4" d="M584.58,207.14h-4.47l-1,2.75h-1.47l4.12-10.66H583L587,209.89h-1.47Zm-4-1.21h3.59l-1.76-4.86h0Z"/><path class="cls-4" d="M592,203.38l2.49-4.16h1.74l-3.38,5.29,3.46,5.38h-1.72L592,205.66l-2.56,4.23h-1.74l3.46-5.38-3.38-5.29h1.73Z"/><path class="cls-4" d="M601.25,204.64l2.78-5.42h1.65l-3.74,6.91v3.75h-1.44V206l-3.68-6.82h1.65Z"/><path class="cls-7" d="M278.42,84.07a29.9,29.9,0,1,1,29.9-29.9A29.94,29.94,0,0,1,278.42,84.07Zm0-57.81a27.9,27.9,0,1,0,27.9,27.9A27.93,27.93,0,0,0,278.42,26.26Z"/><path class="cls-7" d="M394.88,84a29.9,29.9,0,1,1,29.9-29.9A29.94,29.94,0,0,1,394.88,84Zm0-57.81a27.9,27.9,0,1,0,27.9,27.9A27.93,27.93,0,0,0,394.88,26.24Z"/><path class="cls-7" d="M513.49,84.07a29.9,29.9,0,1,1,29.9-29.9A29.94,29.94,0,0,1,513.49,84.07Zm0-57.81a27.9,27.9,0,1,0,27.9,27.9A27.93,27.93,0,0,0,513.49,26.26Z"/><path class="cls-7" d="M633.65,84a29.9,29.9,0,1,1,29.9-29.9A29.94,29.94,0,0,1,633.65,84Zm0-57.81a27.9,27.9,0,1,0,27.9,27.9A27.93,27.93,0,0,0,633.65,26.24Z"/><path class="cls-7" d="M288.52,70.77h-22.4a3.71,3.71,0,0,1-3.7-3.7V50a3.71,3.71,0,0,1,3.7-3.7h22.4a3.71,3.71,0,0,1,3.7,3.7v2.22a1,1,0,1,1-2,0V50a1.7,1.7,0,0,0-1.7-1.7h-22.4a1.7,1.7,0,0,0-1.7,1.7v17a1.7,1.7,0,0,0,1.7,1.7h22.4a1.7,1.7,0,0,0,1.7-1.7V64.79a1,1,0,0,1,2,0v2.27A3.71,3.71,0,0,1,288.52,70.77Z"/><path class="cls-7" d="M285.88,48.05a1,1,0,0,1-1-1v-3.3a7.6,7.6,0,0,0-7.59-7.59h-.23a7.6,7.6,0,0,0-7.59,7.59v3.3a1,1,0,0,1-2,0v-3.3a9.6,9.6,0,0,1,9.59-9.59h.23a9.6,9.6,0,0,1,9.59,9.59v3.3A1,1,0,0,1,285.88,48.05Z"/><path class="cls-7" d="M288,66.59a8.06,8.06,0,1,1,5.7-13.77h0A8.06,8.06,0,0,1,288,66.59Zm0-14.13a6.07,6.07,0,1,0,4.29,1.78h0A6,6,0,0,0,288,52.46Z"/><path class="cls-7" d="M297,68.59a1,1,0,0,1-.71-.29l-4.08-4.08a1,1,0,0,1,1.41-1.41l4.08,4.08a1,1,0,0,1-.71,1.71Z"/><path class="cls-7" d="M287.27,61.52a1,1,0,0,1-.71-.29l-2-2A1,1,0,0,1,286,57.85l2,2a1,1,0,0,1-.71,1.71Z"/><path class="cls-7" d="M287.27,61.52a1,1,0,0,1-.71-1.71l4-4a1,1,0,0,1,1.41,1.41l-4,4A1,1,0,0,1,287.27,61.52Z"/><path class="cls-7" d="M410.41,65.43H391.5v-2h18.91a.53.53,0,0,0,.53-.53V39.22a.53.53,0,0,0-.53-.53H386.74a.53.53,0,0,0-.53.53V57.94h-2V39.22a2.53,2.53,0,0,1,2.53-2.53h23.68a2.53,2.53,0,0,1,2.53,2.53V62.9A2.53,2.53,0,0,1,410.41,65.43Z"/><path class="cls-7" d="M387.69,72.82H379a2.65,2.65,0,0,1-2.65-2.65V61.47A2.65,2.65,0,0,1,379,58.82h8.71a2.65,2.65,0,0,1,2.65,2.65v8.71A2.65,2.65,0,0,1,387.69,72.82Zm-8.71-12a.65.65,0,0,0-.65.65v8.71a.65.65,0,0,0,.65.65h8.71a.65.65,0,0,0,.65-.65V61.47a.65.65,0,0,0-.65-.65Z"/><polygon class="cls-7" points="407.56 48.91 405.56 48.91 405.56 43.6 400.24 43.6 400.24 41.6 407.56 41.6 407.56 48.91"/><rect class="cls-7" x="389.18" y="48.8" width="20.36" height="2" transform="translate(81.76 296.97) rotate(-45)"/><path class="cls-8" d="M520.72,64.23h5.34a.7.7,0,0,0,.7-.7V42l-7.6-7.6H502.95a.7.7,0,0,0-.7.7V63.54a.7.7,0,0,0,.7.7h4.29m19-22.64h-5.94a.7.7,0,0,1-.7-.7V34.95"/><rect class="cls-7" x="512.98" y="67.38" width="2" height="2.66"/><rect class="cls-7" x="504.78" y="70.54" width="6.3" height="2"/><rect class="cls-7" x="516.82" y="70.54" width="6.75" height="2"/><path class="cls-7" d="M513.92,73.73a2.2,2.2,0,1,1,2.2-2.2A2.2,2.2,0,0,1,513.92,73.73Zm0-2.39a.2.2,0,0,0-.2.2c0,.22.39.22.39,0A.2.2,0,0,0,513.92,71.34Z"/><path class="cls-7" d="M514.17,63.09a2.47,2.47,0,1,1,2.46-2.47A2.47,2.47,0,0,1,514.17,63.09Zm0-2.93a.47.47,0,1,0,.46.46A.47.47,0,0,0,514.17,60.16Z"/><path class="cls-7" d="M514.81,66.88h-1.28a1.19,1.19,0,0,1-1.19-1.19v-.4l-.18-.07-.28.28a1.21,1.21,0,0,1-.84.35,1.18,1.18,0,0,1-.84-.35l-.9-.9a1.19,1.19,0,0,1,0-1.68l.28-.28-.07-.18h-.4a1.19,1.19,0,0,1-1.19-1.19V60a1.19,1.19,0,0,1,1.19-1.19h.4l.07-.18-.28-.28a1.19,1.19,0,0,1,0-1.68l.9-.9a1.19,1.19,0,0,1,1.68,0l.28.28.18-.07v-.4a1.19,1.19,0,0,1,1.19-1.19h1.28A1.19,1.19,0,0,1,516,55.56V56l.18.07.28-.28a1.19,1.19,0,0,1,1.68,0l.9.9a1.19,1.19,0,0,1,0,1.69l-.28.28.07.18h.4A1.19,1.19,0,0,1,520.43,60v1.28a1.19,1.19,0,0,1-1.19,1.19h-.4l-.07.18.28.28a1.19,1.19,0,0,1,0,1.68l-.9.9a1.23,1.23,0,0,1-1.69,0l-.28-.28-.18.07v.4A1.19,1.19,0,0,1,514.81,66.88Zm2.82-2.55h0Zm-7.16-.24h0Zm7.4,0h0ZM512,63a1,1,0,0,1,.55.16,3,3,0,0,0,1,.42.67.67,0,0,0,1.25,0,3,3,0,0,0,1-.42,1,1,0,0,1,.74-.15,1,1,0,0,1,.15-.74,2.93,2.93,0,0,0,.42-1,1,1,0,0,1,.42-.62,1,1,0,0,1-.42-.62,3,3,0,0,0-.42-1,1,1,0,0,1-.14-.73,1,1,0,0,1-.74-.15,2.94,2.94,0,0,0-1-.42.67.67,0,0,0-1.25,0,3,3,0,0,0-1,.42,1,1,0,0,1-.73.14,1,1,0,0,1-.14.74,3,3,0,0,0-.42,1,1,1,0,0,1-.42.62,1,1,0,0,1,.42.62,3,3,0,0,0,.42,1,1,1,0,0,1,.15.73Zm5.65.2h0Zm0-6.26h0Zm-6.92,0h0Z"/><path class="cls-7" d="M510.71,49.88a1,1,0,0,1-.64-.23l-2.49-2.07a1,1,0,0,1,0-1.54L510.07,44a1,1,0,1,1,1.28,1.54l-1.57,1.3,1.57,1.3a1,1,0,0,1-.64,1.77Z"/><path class="cls-7" d="M517.7,49.88a1,1,0,0,1-.64-1.77l1.57-1.3-1.57-1.3A1,1,0,1,1,518.33,44L520.82,46a1,1,0,0,1,0,1.54l-2.49,2.07A1,1,0,0,1,517.7,49.88Z"/><path class="cls-7" d="M513.16,51.19a1,1,0,0,1-1-1.3l2.09-6.76a1,1,0,1,1,1.91.59l-2.09,6.76A1,1,0,0,1,513.16,51.19Z"/><path class="cls-9" d="M619.44,38.29V63l8.71,8.71h18.58a.8.8,0,0,0,.8-.8V38.29a.8.8,0,0,0-.8-.8H620.24A.8.8,0,0,0,619.44,38.29Zm.62,25.14h6.81a.8.8,0,0,1,.8.8V71"/><path class="cls-7" d="M642.23,45.3H623.87a.87.87,0,0,1,0-1.74h18.36a.87.87,0,1,1,0,1.74Z"/><path class="cls-7" d="M642.23,50.2H623.87a.87.87,0,0,1,0-1.74h18.36a.87.87,0,1,1,0,1.74Z"/><path class="cls-7" d="M642.23,55.09H623.87a.87.87,0,0,1,0-1.74h18.36a.87.87,0,1,1,0,1.74Z"/><path class="cls-7" d="M752.63,84.3a29.9,29.9,0,1,1,29.9-29.9A29.94,29.94,0,0,1,752.63,84.3Zm0-57.81a27.9,27.9,0,1,0,27.9,27.9A27.93,27.93,0,0,0,752.63,26.5Z"/><path class="cls-7" d="M752.91,72.21A17.44,17.44,0,0,1,737.78,46.1a1,1,0,1,1,1.73,1,15.44,15.44,0,1,0,5.39-5.53,1,1,0,0,1-1-1.71,17.44,17.44,0,1,1,9.28,32.35Z"/><path class="cls-7" d="M748.06,43.51a1,1,0,0,1-.37-.07l-5-2,2-5a1,1,0,0,1,1.86.74l-1.26,3.14,3.14,1.26a1,1,0,0,1-.37,1.93Z"/><path class="cls-7" d="M752.66,55.81h0a1,1,0,0,1-1-1V45.12a1,1,0,0,1,1-1h0a1,1,0,0,1,1,1v9.69A1,1,0,0,1,752.66,55.81Z"/><path class="cls-7" d="M758,63.31a1,1,0,0,1-.82-.42L752,55.5a1,1,0,0,1,1.63-1.16l5.23,7.39a1,1,0,0,1-.82,1.58Z"/><path class="cls-3" d="M273,105.62a1.57,1.57,0,0,0-.55-1.22,4.64,4.64,0,0,0-1.95-.83,6.46,6.46,0,0,1-2.64-1.19,2.46,2.46,0,0,1-.95-2,2.59,2.59,0,0,1,1-2.08,4,4,0,0,1,2.65-.84,3.94,3.94,0,0,1,2.79,1,2.83,2.83,0,0,1,1,2.23v0H273a2,2,0,0,0-.62-1.52,3,3,0,0,0-3.43-.09,1.58,1.58,0,0,0-.57,1.27,1.4,1.4,0,0,0,.62,1.16,5.92,5.92,0,0,0,2,.82,5.77,5.77,0,0,1,2.56,1.23,2.63,2.63,0,0,1,.88,2,2.46,2.46,0,0,1-1.05,2.07,4.5,4.5,0,0,1-2.75.78,4.77,4.77,0,0,1-2.82-.87,2.62,2.62,0,0,1-1.19-2.32v0H268a1.79,1.79,0,0,0,.75,1.56,3.15,3.15,0,0,0,1.87.53,2.91,2.91,0,0,0,1.73-.46A1.45,1.45,0,0,0,273,105.62Z"/><path class="cls-3" d="M282.34,105.62a1.57,1.57,0,0,0-.55-1.22,4.64,4.64,0,0,0-1.95-.83,6.46,6.46,0,0,1-2.64-1.19,2.46,2.46,0,0,1-.95-2,2.59,2.59,0,0,1,1-2.08,4,4,0,0,1,2.65-.84,3.94,3.94,0,0,1,2.79,1,2.83,2.83,0,0,1,1,2.23v0h-1.38a2,2,0,0,0-.62-1.52,3,3,0,0,0-3.43-.09,1.58,1.58,0,0,0-.57,1.27,1.4,1.4,0,0,0,.62,1.16,5.92,5.92,0,0,0,2,.82,5.77,5.77,0,0,1,2.56,1.23,2.63,2.63,0,0,1,.88,2,2.46,2.46,0,0,1-1.05,2.07,4.5,4.5,0,0,1-2.75.78,4.77,4.77,0,0,1-2.82-.87,2.62,2.62,0,0,1-1.19-2.32v0h1.38a1.79,1.79,0,0,0,.75,1.56,3.15,3.15,0,0,0,1.87.53,2.91,2.91,0,0,0,1.73-.46A1.45,1.45,0,0,0,282.34,105.62Z"/><path class="cls-3" d="M287.33,107.18h5v1.13h-6.49V97.65h1.44Z"/><path class="cls-3" d="M374.9,97.61v7.23a3.24,3.24,0,0,1-1.13,2.67,4.53,4.53,0,0,1-3,.92,4.27,4.27,0,0,1-2.85-.93,3.29,3.29,0,0,1-1.1-2.66V97.61h1.44v7.22a2.35,2.35,0,0,0,.69,1.83,2.6,2.6,0,0,0,1.82.63,2.84,2.84,0,0,0,1.92-.63,2.28,2.28,0,0,0,.73-1.83V97.61Z"/><path class="cls-3" d="M383.75,104.61a4.37,4.37,0,0,1-.82,2.76,2.71,2.71,0,0,1-2.26,1.05,3.13,3.13,0,0,1-1.29-.25,2.44,2.44,0,0,1-.94-.74v3.88H377v-11h1.11l.23,1a2.63,2.63,0,0,1,1-.87,2.9,2.9,0,0,1,1.35-.3,2.63,2.63,0,0,1,2.29,1.17,5.29,5.29,0,0,1,.82,3.09Zm-1.44-.16a4.18,4.18,0,0,0-.53-2.21,1.72,1.72,0,0,0-1.56-.87,1.93,1.93,0,0,0-1.06.28,2.11,2.11,0,0,0-.71.77v3.83a2,2,0,0,0,.71.76,2,2,0,0,0,1.08.27,1.78,1.78,0,0,0,1.55-.75,3.29,3.29,0,0,0,.53-1.93Z"/><path class="cls-3" d="M385.2,104.45a5.2,5.2,0,0,1,.83-3.08,2.68,2.68,0,0,1,2.31-1.17,2.79,2.79,0,0,1,1.33.3,2.61,2.61,0,0,1,1,.88l.18-1h1.15v8a3,3,0,0,1-.89,2.34,3.64,3.64,0,0,1-2.56.82,5.33,5.33,0,0,1-1.23-.16,4.84,4.84,0,0,1-1.17-.43l.37-1.12a3.72,3.72,0,0,0,.94.36,4.54,4.54,0,0,0,1.08.13,2.1,2.1,0,0,0,1.53-.48,2,2,0,0,0,.48-1.46v-.89a2.53,2.53,0,0,1-.93.75,2.92,2.92,0,0,1-1.25.25,2.76,2.76,0,0,1-2.29-1.05,4.32,4.32,0,0,1-.83-2.76Zm1.44.15a3.29,3.29,0,0,0,.51,1.92,1.75,1.75,0,0,0,1.54.73,1.91,1.91,0,0,0,1.09-.3,2.26,2.26,0,0,0,.73-.84v-3.65a2.23,2.23,0,0,0-.73-.8,1.9,1.9,0,0,0-1.08-.3,1.68,1.68,0,0,0-1.55.86,4.3,4.3,0,0,0-.51,2.22Z"/><path class="cls-3" d="M397.79,101.62l-.74,0a1.66,1.66,0,0,0-1,.27,1.75,1.75,0,0,0-.6.76v5.66H394v-7.92h1.29l.14,1.16a2.75,2.75,0,0,1,.83-1,2,2,0,0,1,1.14-.34l.31,0,.24.06Z"/><path class="cls-3" d="M404.06,108.27q-.07-.36-.11-.63a4.54,4.54,0,0,1,0-.55,3.38,3.38,0,0,1-1.05,1,2.69,2.69,0,0,1-1.4.38,2.59,2.59,0,0,1-1.89-.63,2.33,2.33,0,0,1-.65-1.75,2,2,0,0,1,.92-1.78,4.3,4.3,0,0,1,2.49-.64h1.57v-.78a1.45,1.45,0,0,0-.42-1.1,1.67,1.67,0,0,0-1.2-.41,1.74,1.74,0,0,0-1.13.35,1.07,1.07,0,0,0-.44.85h-1.38v0a1.92,1.92,0,0,1,.82-1.58,3.35,3.35,0,0,1,2.22-.72,3.27,3.27,0,0,1,2.17.68,2.43,2.43,0,0,1,.82,2v3.82a7.43,7.43,0,0,0,0,.82,4.22,4.22,0,0,0,.16.78Zm-2.4-1.06a2.57,2.57,0,0,0,1.41-.4,1.91,1.91,0,0,0,.82-.92V104.6h-1.62a2.1,2.1,0,0,0-1.4.44,1.31,1.31,0,0,0-.52,1,1.08,1.08,0,0,0,.33.83A1.38,1.38,0,0,0,401.66,107.21Z"/><path class="cls-3" d="M407.1,104.45a5.29,5.29,0,0,1,.82-3.08,2.63,2.63,0,0,1,2.29-1.17,2.84,2.84,0,0,1,1.23.26,2.54,2.54,0,0,1,.92.75V96.84h1.44v11.43h-1.18l-.17-1a2.56,2.56,0,0,1-1,.84,2.86,2.86,0,0,1-1.31.29,2.72,2.72,0,0,1-2.27-1.05,4.37,4.37,0,0,1-.82-2.76Zm1.44.15a3.37,3.37,0,0,0,.49,1.92,1.71,1.71,0,0,0,1.52.72,1.91,1.91,0,0,0,1.08-.29,2.19,2.19,0,0,0,.72-.82v-3.7a2.23,2.23,0,0,0-.72-.78,1.91,1.91,0,0,0-1.07-.29,1.65,1.65,0,0,0-1.53.86,4.42,4.42,0,0,0-.49,2.23Z"/><path class="cls-3" d="M419.25,108.42a3.34,3.34,0,0,1-2.63-1.1,4.15,4.15,0,0,1-1-2.86v-.32a4.06,4.06,0,0,1,1-2.82A3.1,3.1,0,0,1,419,100.2a3,3,0,0,1,2.42,1,3.85,3.85,0,0,1,.82,2.58v.9h-5.14l0,0a3.12,3.12,0,0,0,.58,1.87,1.85,1.85,0,0,0,1.56.73,3.62,3.62,0,0,0,1.29-.21,2.93,2.93,0,0,0,1-.58l.56.94a3.37,3.37,0,0,1-1.12.7A4.52,4.52,0,0,1,419.25,108.42Zm-.22-7.09a1.56,1.56,0,0,0-1.24.61,2.88,2.88,0,0,0-.63,1.53v0h3.65v-.19a2.2,2.2,0,0,0-.45-1.42A1.62,1.62,0,0,0,419,101.33Z"/><path class="cls-3" d="M497.08,104.24v4.28h-1.44V97.86h4.08a3.75,3.75,0,0,1,2.65.88,3.32,3.32,0,0,1,0,4.64,3.77,3.77,0,0,1-2.65.87Zm0-1.13h2.64a2.06,2.06,0,1,0,0-4.12h-2.64Z"/><path class="cls-3" d="M504.54,104.49a4.37,4.37,0,0,1,1-2.9,3.53,3.53,0,0,1,5.19,0,4.35,4.35,0,0,1,1,2.9v.16a4.34,4.34,0,0,1-1,2.9,3.54,3.54,0,0,1-5.19,0,4.34,4.34,0,0,1-1-2.9Zm1.44.16a3.74,3.74,0,0,0,.53,2.08,1.92,1.92,0,0,0,3.15,0,3.73,3.73,0,0,0,.53-2.08v-.16a3.72,3.72,0,0,0-.54-2.07,1.76,1.76,0,0,0-1.58-.83,1.74,1.74,0,0,0-1.56.83,3.75,3.75,0,0,0-.53,2.07Z"/><path class="cls-3" d="M515,108.52h-1.44V97.1H515Z"/><path class="cls-3" d="M518.74,98.57H517.3V97.1h1.44Zm0,10H517.3V100.6h1.44Z"/><path class="cls-3" d="M524.18,107.54a1.94,1.94,0,0,0,1.26-.44A1.35,1.35,0,0,0,526,106h1.3v0a2.23,2.23,0,0,1-.91,1.82,3.33,3.33,0,0,1-2.21.8,3.21,3.21,0,0,1-2.64-1.13,4.35,4.35,0,0,1-.92-2.83v-.31a4.33,4.33,0,0,1,.92-2.82,3.61,3.61,0,0,1,4.91-.31,2.55,2.55,0,0,1,.85,2v0H526a1.67,1.67,0,0,0-.51-1.23,1.76,1.76,0,0,0-1.3-.51,1.74,1.74,0,0,0-1.62.82,3.84,3.84,0,0,0-.49,2v.31a3.88,3.88,0,0,0,.48,2A1.74,1.74,0,0,0,524.18,107.54Z"/><path class="cls-3" d="M531.35,105.58l.26,1h0l1.95-6h1.6l-3.33,9.14a4.1,4.1,0,0,1-.86,1.39,2,2,0,0,1-1.51.59,3.1,3.1,0,0,1-.45,0l-.42-.08.15-1.14H529l.38,0a.89.89,0,0,0,.75-.41,4.26,4.26,0,0,0,.49-.91l.34-.83-2.94-7.76h1.61Z"/><path class="cls-3" d="M596.38,108.23q-.07-.36-.11-.63a4.54,4.54,0,0,1,0-.55,3.38,3.38,0,0,1-1.05,1,2.69,2.69,0,0,1-1.4.38,2.59,2.59,0,0,1-1.89-.63,2.33,2.33,0,0,1-.65-1.75,2,2,0,0,1,.92-1.78,4.3,4.3,0,0,1,2.49-.64h1.57v-.78a1.45,1.45,0,0,0-.42-1.1,1.67,1.67,0,0,0-1.2-.41,1.74,1.74,0,0,0-1.13.35,1.07,1.07,0,0,0-.44.85h-1.38v0a1.92,1.92,0,0,1,.82-1.58,3.35,3.35,0,0,1,2.22-.72,3.27,3.27,0,0,1,2.17.68,2.43,2.43,0,0,1,.82,2v3.82a7.43,7.43,0,0,0,0,.82,4.22,4.22,0,0,0,.16.78Zm-2.4-1.06a2.57,2.57,0,0,0,1.41-.4,1.91,1.91,0,0,0,.82-.92v-1.29H594.6a2.1,2.1,0,0,0-1.4.44,1.31,1.31,0,0,0-.52,1,1.08,1.08,0,0,0,.33.83A1.38,1.38,0,0,0,594,107.17Z"/><path class="cls-3" d="M606.33,103.51h-4.86v4.72H600V97.56h7.05V98.7h-5.61v3.68h4.86Z"/><path class="cls-3" d="M610.05,108.23h-1.44V96.8h1.44Z"/><path class="cls-3" d="M615.56,108.38a3.34,3.34,0,0,1-2.63-1.1,4.15,4.15,0,0,1-1-2.86v-.32a4.06,4.06,0,0,1,1-2.82,3.1,3.1,0,0,1,2.38-1.12,3,3,0,0,1,2.42,1,3.85,3.85,0,0,1,.82,2.58v.9h-5.14l0,0a3.12,3.12,0,0,0,.58,1.87,1.85,1.85,0,0,0,1.56.73,3.62,3.62,0,0,0,1.29-.21,2.93,2.93,0,0,0,1-.58l.56.94a3.37,3.37,0,0,1-1.12.7A4.52,4.52,0,0,1,615.56,108.38Zm-.22-7.09a1.56,1.56,0,0,0-1.24.61,2.88,2.88,0,0,0-.63,1.53v0h3.65v-.19a2.2,2.2,0,0,0-.45-1.42A1.62,1.62,0,0,0,615.34,101.29Z"/><path class="cls-3" d="M623.92,101.72l2.49-4.16h1.74l-3.38,5.29,3.46,5.38H626.5L623.95,104l-2.56,4.23h-1.74l3.46-5.38-3.38-5.29h1.73Z"/><path class="cls-3" d="M639.5,105.54a1.57,1.57,0,0,0-.55-1.22,4.64,4.64,0,0,0-1.95-.83,6.46,6.46,0,0,1-2.64-1.19,2.46,2.46,0,0,1-.95-2,2.59,2.59,0,0,1,1-2.08,4,4,0,0,1,2.65-.84,3.94,3.94,0,0,1,2.79,1,2.83,2.83,0,0,1,1,2.23v0h-1.38a2,2,0,0,0-.62-1.52,3,3,0,0,0-3.43-.09,1.59,1.59,0,0,0-.57,1.27,1.4,1.4,0,0,0,.62,1.16,5.92,5.92,0,0,0,2,.82,5.77,5.77,0,0,1,2.56,1.23,2.63,2.63,0,0,1,.88,2,2.46,2.46,0,0,1-1.05,2.07,4.5,4.5,0,0,1-2.75.78,4.77,4.77,0,0,1-2.82-.87,2.62,2.62,0,0,1-1.19-2.32v0h1.38a1.79,1.79,0,0,0,.75,1.56,3.15,3.15,0,0,0,1.87.53,2.91,2.91,0,0,0,1.73-.46A1.45,1.45,0,0,0,639.5,105.54Z"/><path class="cls-3" d="M646,107.25a1.94,1.94,0,0,0,1.26-.44,1.35,1.35,0,0,0,.55-1.09h1.3v0a2.23,2.23,0,0,1-.91,1.82,3.33,3.33,0,0,1-2.21.8,3.2,3.2,0,0,1-2.64-1.13,4.35,4.35,0,0,1-.92-2.83v-.31a4.33,4.33,0,0,1,.92-2.82,3.61,3.61,0,0,1,4.91-.31,2.55,2.55,0,0,1,.85,2v0h-1.3a1.67,1.67,0,0,0-.51-1.23,1.76,1.76,0,0,0-1.3-.51,1.74,1.74,0,0,0-1.62.82,3.83,3.83,0,0,0-.49,2v.31a3.88,3.88,0,0,0,.48,2A1.74,1.74,0,0,0,646,107.25Z"/><path class="cls-3" d="M654.48,101.58l-.74,0a1.66,1.66,0,0,0-1,.27,1.75,1.75,0,0,0-.6.76v5.66h-1.44V100.3H652l.14,1.16a2.75,2.75,0,0,1,.83-1,2,2,0,0,1,1.14-.34l.31,0,.24.06Z"/><path class="cls-3" d="M657.43,98.28H656V96.8h1.44Zm0,10H656V100.3h1.44Z"/><path class="cls-3" d="M666.41,104.57a4.37,4.37,0,0,1-.82,2.76,2.71,2.71,0,0,1-2.26,1.05,3.13,3.13,0,0,1-1.29-.25,2.44,2.44,0,0,1-.94-.74v3.88h-1.44v-11h1.11l.23,1a2.63,2.63,0,0,1,1-.87,2.9,2.9,0,0,1,1.35-.3,2.63,2.63,0,0,1,2.29,1.17,5.28,5.28,0,0,1,.82,3.09Zm-1.44-.16a4.17,4.17,0,0,0-.53-2.21,1.72,1.72,0,0,0-1.56-.87,1.93,1.93,0,0,0-1.06.28,2.11,2.11,0,0,0-.71.77v3.83a2,2,0,0,0,.71.76,2,2,0,0,0,1.08.27,1.78,1.78,0,0,0,1.55-.75,3.29,3.29,0,0,0,.53-1.93Z"/><path class="cls-3" d="M670.08,98.39v1.91h1.5v1.07h-1.5v4.81a1.07,1.07,0,0,0,.23.78.83.83,0,0,0,.61.23l.27,0,.27-.07.19,1a1.26,1.26,0,0,1-.47.22,2.36,2.36,0,0,1-.63.08,1.87,1.87,0,0,1-1.4-.53,2.31,2.31,0,0,1-.52-1.67v-4.81h-1.26V100.3h1.26V98.39Z"/><path class="cls-3" d="M678,106.12a1,1,0,0,0-.36-.78,3.41,3.41,0,0,0-1.37-.54,5.78,5.78,0,0,1-2.17-.85,1.72,1.72,0,0,1-.73-1.47,2.07,2.07,0,0,1,.82-1.65,3.73,3.73,0,0,1,4.34,0,2.1,2.1,0,0,1,.78,1.73v0h-1.38a1.26,1.26,0,0,0-.44-.93,1.61,1.61,0,0,0-1.15-.41,1.67,1.67,0,0,0-1.14.34,1.06,1.06,0,0,0-.37.81.9.9,0,0,0,.33.74,3.4,3.4,0,0,0,1.34.48,5.77,5.77,0,0,1,2.23.88,1.76,1.76,0,0,1,.73,1.48,2,2,0,0,1-.85,1.71,3.58,3.58,0,0,1-2.23.65,3.48,3.48,0,0,1-2.39-.77,2.19,2.19,0,0,1-.83-1.79v0h1.38a1.33,1.33,0,0,0,.57,1.12,2.22,2.22,0,0,0,1.25.35,2,2,0,0,0,1.21-.31A1,1,0,0,0,678,106.12Z"/><path class="cls-3" d="M730.74,108.4V97.74h3.48a4.22,4.22,0,0,1,2.62.72,2.55,2.55,0,0,1,.94,2.16,2,2,0,0,1-.45,1.27,2.69,2.69,0,0,1-1.19.83,2.46,2.46,0,0,1,1.52.94,2.8,2.8,0,0,1,.55,1.72,2.72,2.72,0,0,1-.95,2.24,4,4,0,0,1-2.57.77Zm1.44-6.13h2.34a1.92,1.92,0,0,0,1.31-.44,1.78,1.78,0,0,0,0-2.53,2.5,2.5,0,0,0-1.57-.43h-2Zm0,1.14v3.86h2.5a2.23,2.23,0,0,0,1.53-.49,1.74,1.74,0,0,0,.55-1.38,2.18,2.18,0,0,0-.46-1.47,1.76,1.76,0,0,0-1.41-.53Z"/><path class="cls-3" d="M744.93,108.4q-.07-.36-.11-.63a4.54,4.54,0,0,1,0-.55,3.38,3.38,0,0,1-1.05,1,2.69,2.69,0,0,1-1.4.38,2.59,2.59,0,0,1-1.89-.63,2.33,2.33,0,0,1-.65-1.75,2,2,0,0,1,.92-1.78,4.3,4.3,0,0,1,2.49-.64h1.57V103a1.45,1.45,0,0,0-.42-1.1,1.67,1.67,0,0,0-1.2-.41,1.74,1.74,0,0,0-1.13.35,1.07,1.07,0,0,0-.44.85H740.2v0a1.92,1.92,0,0,1,.82-1.58,3.36,3.36,0,0,1,2.22-.72,3.27,3.27,0,0,1,2.17.68,2.43,2.43,0,0,1,.82,2v3.82a7.43,7.43,0,0,0,0,.82,4.22,4.22,0,0,0,.16.78Zm-2.39-1.06a2.57,2.57,0,0,0,1.41-.4,1.91,1.91,0,0,0,.82-.92v-1.29h-1.62a2.1,2.1,0,0,0-1.4.44,1.31,1.31,0,0,0-.52,1,1.08,1.08,0,0,0,.33.83A1.38,1.38,0,0,0,742.53,107.34Z"/><path class="cls-3" d="M751.53,107.42a1.94,1.94,0,0,0,1.26-.44,1.35,1.35,0,0,0,.55-1.09h1.3v0a2.23,2.23,0,0,1-.91,1.82,3.33,3.33,0,0,1-2.21.8,3.21,3.21,0,0,1-2.64-1.13,4.35,4.35,0,0,1-.92-2.83v-.31a4.33,4.33,0,0,1,.92-2.82,3.61,3.61,0,0,1,4.91-.31,2.55,2.55,0,0,1,.85,2v0h-1.3a1.67,1.67,0,0,0-.51-1.23,1.76,1.76,0,0,0-1.3-.51,1.74,1.74,0,0,0-1.62.82,3.84,3.84,0,0,0-.49,2v.31a3.88,3.88,0,0,0,.48,2A1.74,1.74,0,0,0,751.53,107.42Z"/><path class="cls-3" d="M758.65,104.73h-.94v3.67h-1.44V97h1.44v6.62h.92l2.17-3.12h1.73l-2.71,3.6,3.1,4.33h-1.7Z"/><path class="cls-3" d="M769,107.23a2.69,2.69,0,0,1-1,1,2.62,2.62,0,0,1-1.35.34,2.55,2.55,0,0,1-2-.83,3.84,3.84,0,0,1-.73-2.58v-4.67h1.44v4.69a3,3,0,0,0,.37,1.74,1.39,1.39,0,0,0,1.17.48,2.38,2.38,0,0,0,1.27-.31,2,2,0,0,0,.76-.88v-5.71h1.44v7.92h-1.3Z"/><path class="cls-3" d="M779.23,104.74a4.37,4.37,0,0,1-.82,2.76,2.71,2.71,0,0,1-2.26,1.05,3.13,3.13,0,0,1-1.29-.25,2.44,2.44,0,0,1-.94-.74v3.88h-1.44v-11h1.11l.23,1a2.63,2.63,0,0,1,1-.87,2.9,2.9,0,0,1,1.35-.3,2.64,2.64,0,0,1,2.29,1.17,5.29,5.29,0,0,1,.82,3.09Zm-1.44-.16a4.18,4.18,0,0,0-.53-2.21,1.72,1.72,0,0,0-1.56-.87,1.93,1.93,0,0,0-1.06.28,2.11,2.11,0,0,0-.71.77v3.83a2,2,0,0,0,.71.76,2,2,0,0,0,1.08.27,1.78,1.78,0,0,0,1.55-.75,3.29,3.29,0,0,0,.53-1.93Z"/><path class="cls-3" d="M855.25,98.45l3.4,8.66h0l3.4-8.66h1.85v10.66H862.5v-4.22l.15-4.34h0l-3.46,8.56h-1l-3.44-8.54h0l.14,4.31v4.22h-1.44V98.45Z"/><path class="cls-3" d="M866,105.08a4.37,4.37,0,0,1,1-2.9,3.53,3.53,0,0,1,5.19,0,4.35,4.35,0,0,1,1,2.9v.16a4.34,4.34,0,0,1-1,2.9,3.54,3.54,0,0,1-5.19,0,4.34,4.34,0,0,1-1-2.9Zm1.44.16a3.74,3.74,0,0,0,.53,2.08,1.92,1.92,0,0,0,3.15,0,3.73,3.73,0,0,0,.53-2.08v-.16a3.71,3.71,0,0,0-.54-2.07,1.76,1.76,0,0,0-1.58-.83,1.74,1.74,0,0,0-1.56.83,3.75,3.75,0,0,0-.53,2.07Z"/><path class="cls-3" d="M878.59,102.46l-.74,0a1.66,1.66,0,0,0-1,.27,1.75,1.75,0,0,0-.6.76v5.66h-1.44v-7.92h1.29l.14,1.16a2.75,2.75,0,0,1,.83-1,1.94,1.94,0,0,1,1.14-.34l.31,0,.24.06Z"/><path class="cls-3" d="M883.13,109.27a3.34,3.34,0,0,1-2.63-1.1,4.15,4.15,0,0,1-1-2.86V105a4.06,4.06,0,0,1,1-2.82,3.1,3.1,0,0,1,2.38-1.12,3,3,0,0,1,2.42,1,3.85,3.85,0,0,1,.82,2.58v.9H881l0,0a3.12,3.12,0,0,0,.58,1.87,1.84,1.84,0,0,0,1.56.73,3.62,3.62,0,0,0,1.29-.21,2.93,2.93,0,0,0,1-.58l.56.94a3.38,3.38,0,0,1-1.12.7A4.52,4.52,0,0,1,883.13,109.27Zm-.22-7.09a1.56,1.56,0,0,0-1.24.61,2.88,2.88,0,0,0-.63,1.53v0h3.65v-.19a2.2,2.2,0,0,0-.45-1.42A1.62,1.62,0,0,0,882.91,102.18Z"/><path class="cls-7" d="M867.64,84.84a29.9,29.9,0,1,1,29.9-29.9A29.94,29.94,0,0,1,867.64,84.84Zm0-57.81a27.9,27.9,0,1,0,27.9,27.9A27.94,27.94,0,0,0,867.64,27Z"/><circle class="cls-7" cx="857.11" cy="54.5" r="3.39"/><circle class="cls-7" cx="867.79" cy="54.5" r="3.39"/><circle class="cls-7" cx="878.49" cy="54.5" r="3.39"/><path class="cls-7" d="M209.9,472.53a29.9,29.9,0,1,1,29.9-29.9A29.94,29.94,0,0,1,209.9,472.53Zm0-57.81a27.9,27.9,0,1,0,27.9,27.9A27.93,27.93,0,0,0,209.9,414.73Z"/><path class="cls-7" d="M220,459.23H197.6a3.71,3.71,0,0,1-3.7-3.7v-17a3.71,3.71,0,0,1,3.7-3.7H220a3.71,3.71,0,0,1,3.7,3.7v2.22a1,1,0,0,1-2,0V438.5a1.7,1.7,0,0,0-1.7-1.7H197.6a1.7,1.7,0,0,0-1.7,1.7v17a1.7,1.7,0,0,0,1.7,1.7H220a1.7,1.7,0,0,0,1.7-1.7v-2.27a1,1,0,0,1,2,0v2.27A3.71,3.71,0,0,1,220,459.23Z"/><path class="cls-7" d="M217.35,436.51a1,1,0,0,1-1-1v-3.3a7.6,7.6,0,0,0-7.59-7.58h-.23a7.6,7.6,0,0,0-7.59,7.58v3.3a1,1,0,0,1-2,0v-3.3a9.6,9.6,0,0,1,9.59-9.58h.23a9.6,9.6,0,0,1,9.59,9.58v3.3A1,1,0,0,1,217.35,436.51Z"/><path class="cls-7" d="M219.44,455.05a8.07,8.07,0,1,1,5.7-13.77h0a8.07,8.07,0,0,1-5.7,13.77Zm0-14.13a6.07,6.07,0,1,0,4.29,1.78h0A6,6,0,0,0,219.44,440.92Z"/><path class="cls-7" d="M228.51,457.06a1,1,0,0,1-.71-.29l-4.08-4.08a1,1,0,0,1,1.41-1.41l4.08,4.08a1,1,0,0,1-.71,1.71Z"/><path class="cls-7" d="M218.75,450a1,1,0,0,1-.71-.29l-2-2a1,1,0,0,1,1.41-1.41l2,2a1,1,0,0,1-.71,1.71Z"/><path class="cls-7" d="M218.75,450a1,1,0,0,1-.71-1.71l4-4a1,1,0,0,1,1.41,1.41l-4,4A1,1,0,0,1,218.75,450Z"/><path class="cls-7" d="M276.53,473.27a29.9,29.9,0,1,1,29.9-29.9A29.94,29.94,0,0,1,276.53,473.27Zm0-57.81a27.9,27.9,0,1,0,27.9,27.9A27.93,27.93,0,0,0,276.53,415.47Z"/><path class="cls-7" d="M276.82,461.18a17.44,17.44,0,0,1-15.13-26.11,1,1,0,0,1,1.74,1,15.44,15.44,0,0,0,13.4,23.11H277a15.44,15.44,0,1,0-8.22-28.64,1,1,0,1,1-1-1.71A17.44,17.44,0,1,1,277,461.17Z"/><path class="cls-7" d="M272,432.48a1,1,0,0,1-.37-.07l-5-2,2-5a1,1,0,0,1,1.86.74l-1.26,3.14,3.14,1.26a1,1,0,0,1-.37,1.93Z"/><path class="cls-7" d="M276.56,444.78h0a1,1,0,0,1-1-1v-9.69a1,1,0,0,1,1-1h0a1,1,0,0,1,1,1v9.69A1,1,0,0,1,276.56,444.78Z"/><path class="cls-7" d="M281.92,452.28a1,1,0,0,1-.82-.42l-5.23-7.39a1,1,0,1,1,1.63-1.16l5.23,7.39a1,1,0,0,1-.81,1.58Z"/><path class="cls-3" d="M214,491.76v4.62h-1.44V485.72h3.86a4.06,4.06,0,0,1,2.67.78,2.78,2.78,0,0,1,.92,2.26,2.41,2.41,0,0,1-.43,1.43,2.9,2.9,0,0,1-1.25,1,2.18,2.18,0,0,1,1.26.93,3,3,0,0,1,.38,1.59v1a3.34,3.34,0,0,0,.11.89,1.34,1.34,0,0,0,.38.64v.18H219a1.19,1.19,0,0,1-.37-.73,6.05,6.05,0,0,1-.08-1v-1a1.93,1.93,0,0,0-.51-1.39,1.79,1.79,0,0,0-1.35-.53Zm0-1.14h2.27a2.68,2.68,0,0,0,1.76-.46,1.77,1.77,0,0,0,.54-1.42,1.82,1.82,0,0,0-.52-1.39,2.31,2.31,0,0,0-1.63-.49H214Z"/><path class="cls-3" d="M225.5,496.53a3.34,3.34,0,0,1-2.63-1.1,4.15,4.15,0,0,1-1-2.86v-.32a4.06,4.06,0,0,1,1-2.82,3.1,3.1,0,0,1,2.38-1.12,3,3,0,0,1,2.42,1,3.85,3.85,0,0,1,.82,2.58v.9h-5.14l0,0a3.12,3.12,0,0,0,.58,1.87,1.85,1.85,0,0,0,1.56.73,3.62,3.62,0,0,0,1.29-.21,2.93,2.93,0,0,0,1-.58l.56.94a3.37,3.37,0,0,1-1.12.7A4.52,4.52,0,0,1,225.5,496.53Zm-.22-7.09A1.56,1.56,0,0,0,224,490a2.88,2.88,0,0,0-.63,1.53v0h3.65v-.19a2.2,2.2,0,0,0-.45-1.42A1.62,1.62,0,0,0,225.28,489.44Z"/><path class="cls-3" d="M232,486.54v1.91h1.5v1.07H232v4.81a1.07,1.07,0,0,0,.23.78.83.83,0,0,0,.61.23l.27,0,.27-.07.19,1a1.27,1.27,0,0,1-.47.22,2.37,2.37,0,0,1-.63.08,1.87,1.87,0,0,1-1.4-.53,2.31,2.31,0,0,1-.52-1.67v-4.81h-1.26v-1.07h1.26v-1.91Z"/><path class="cls-3" d="M239.08,489.73l-.74,0a1.66,1.66,0,0,0-1,.27,1.75,1.75,0,0,0-.6.76v5.66h-1.44v-7.92h1.29l.14,1.16a2.75,2.75,0,0,1,.83-1,2,2,0,0,1,1.14-.34l.31,0,.24.06Z"/><path class="cls-3" d="M242,486.42h-1.44V485H242Zm0,10h-1.44v-7.92H242Z"/><path class="cls-3" d="M247.54,496.53a3.34,3.34,0,0,1-2.63-1.1,4.15,4.15,0,0,1-1-2.86v-.32a4.06,4.06,0,0,1,1-2.82,3.1,3.1,0,0,1,2.38-1.12,3,3,0,0,1,2.42,1,3.85,3.85,0,0,1,.82,2.58v.9h-5.14l0,0a3.12,3.12,0,0,0,.58,1.87,1.85,1.85,0,0,0,1.56.73,3.62,3.62,0,0,0,1.29-.21,2.93,2.93,0,0,0,1-.58l.56.94a3.37,3.37,0,0,1-1.12.7A4.52,4.52,0,0,1,247.54,496.53Zm-.22-7.09a1.56,1.56,0,0,0-1.24.61,2.88,2.88,0,0,0-.63,1.53v0h3.65v-.19a2.2,2.2,0,0,0-.45-1.42A1.62,1.62,0,0,0,247.32,489.44Z"/><path class="cls-3" d="M254.73,494l.12.56h0L255,494l1.82-5.59h1.47l-2.92,7.92h-1.09l-3-7.92h1.48Z"/><path class="cls-3" d="M264.39,496.38q-.07-.36-.11-.63a4.54,4.54,0,0,1,0-.55,3.38,3.38,0,0,1-1.05,1,2.69,2.69,0,0,1-1.4.38,2.59,2.59,0,0,1-1.89-.63,2.33,2.33,0,0,1-.65-1.75,2,2,0,0,1,.92-1.78,4.3,4.3,0,0,1,2.49-.64h1.57v-.78a1.45,1.45,0,0,0-.42-1.1,1.67,1.67,0,0,0-1.2-.41,1.74,1.74,0,0,0-1.13.35,1.07,1.07,0,0,0-.44.85h-1.38v0a1.92,1.92,0,0,1,.82-1.58,3.35,3.35,0,0,1,2.22-.72,3.27,3.27,0,0,1,2.17.68,2.43,2.43,0,0,1,.82,2v3.82a7.43,7.43,0,0,0,0,.82,4.22,4.22,0,0,0,.16.78Zm-2.4-1.06a2.57,2.57,0,0,0,1.41-.4,1.91,1.91,0,0,0,.82-.92v-1.29h-1.62a2.1,2.1,0,0,0-1.4.44,1.31,1.31,0,0,0-.52,1,1.08,1.08,0,0,0,.33.83A1.38,1.38,0,0,0,262,495.31Z"/><path class="cls-3" d="M269.33,496.38h-1.44V485h1.44Z"/><path class="cls-7" d="M686.44,474.08a29.9,29.9,0,1,1,29.9-29.9A29.94,29.94,0,0,1,686.44,474.08Zm0-57.81a27.9,27.9,0,1,0,27.9,27.9A27.94,27.94,0,0,0,686.44,416.28Z"/><path class="cls-7" d="M702,455.46H683.06v-2H702a.53.53,0,0,0,.53-.53V429.26a.53.53,0,0,0-.53-.53H678.3a.53.53,0,0,0-.53.53V448h-2V429.26a2.53,2.53,0,0,1,2.53-2.53H702a2.53,2.53,0,0,1,2.53,2.53v23.68A2.53,2.53,0,0,1,702,455.46Z"/><path class="cls-7" d="M679.25,462.86h-8.71a2.65,2.65,0,0,1-2.65-2.65v-8.71a2.65,2.65,0,0,1,2.65-2.65h8.71a2.65,2.65,0,0,1,2.65,2.65v8.71A2.65,2.65,0,0,1,679.25,462.86Zm-8.71-12a.65.65,0,0,0-.65.65v8.71a.65.65,0,0,0,.65.65h8.71a.65.65,0,0,0,.65-.65v-8.71a.65.65,0,0,0-.65-.65Z"/><polygon class="cls-7" points="699.12 438.95 697.12 438.95 697.12 433.64 691.8 433.64 691.8 431.64 699.12 431.64 699.12 438.95"/><rect class="cls-7" x="680.73" y="438.84" width="20.36" height="2" transform="translate(-108.65 617.38) rotate(-45)"/><path class="cls-3" d="M666.46,485.64v7.23a3.24,3.24,0,0,1-1.13,2.67,4.53,4.53,0,0,1-3,.92,4.27,4.27,0,0,1-2.85-.93,3.29,3.29,0,0,1-1.09-2.66v-7.23h1.44v7.22a2.35,2.35,0,0,0,.69,1.83,2.6,2.6,0,0,0,1.82.63,2.84,2.84,0,0,0,1.92-.63,2.28,2.28,0,0,0,.73-1.83v-7.22Z"/><path class="cls-3" d="M675.3,492.65a4.37,4.37,0,0,1-.82,2.76,2.71,2.71,0,0,1-2.26,1.05,3.13,3.13,0,0,1-1.29-.25,2.44,2.44,0,0,1-.94-.74v3.88h-1.44v-11h1.11l.23,1a2.63,2.63,0,0,1,1-.87,2.9,2.9,0,0,1,1.35-.3,2.63,2.63,0,0,1,2.29,1.17,5.28,5.28,0,0,1,.82,3.09Zm-1.44-.16a4.17,4.17,0,0,0-.53-2.21,1.72,1.72,0,0,0-1.56-.87,1.93,1.93,0,0,0-1.06.28,2.11,2.11,0,0,0-.71.77v3.83a2,2,0,0,0,.71.76,2,2,0,0,0,1.08.27,1.78,1.78,0,0,0,1.55-.75,3.29,3.29,0,0,0,.53-1.93Z"/><path class="cls-3" d="M676.76,492.49a5.2,5.2,0,0,1,.83-3.08,2.68,2.68,0,0,1,2.31-1.17,2.78,2.78,0,0,1,1.33.3,2.61,2.61,0,0,1,1,.88l.18-1h1.15v8a3,3,0,0,1-.89,2.34,3.64,3.64,0,0,1-2.56.82,5.33,5.33,0,0,1-1.23-.16,4.84,4.84,0,0,1-1.17-.43l.37-1.12a3.72,3.72,0,0,0,.94.36,4.54,4.54,0,0,0,1.08.13,2.1,2.1,0,0,0,1.53-.48,2,2,0,0,0,.48-1.46v-.89a2.52,2.52,0,0,1-.93.75,2.92,2.92,0,0,1-1.25.25,2.77,2.77,0,0,1-2.29-1.05,4.32,4.32,0,0,1-.83-2.76Zm1.44.15a3.29,3.29,0,0,0,.5,1.92,1.75,1.75,0,0,0,1.54.73,1.91,1.91,0,0,0,1.09-.3,2.25,2.25,0,0,0,.72-.84v-3.65a2.23,2.23,0,0,0-.72-.8,1.9,1.9,0,0,0-1.08-.3,1.68,1.68,0,0,0-1.54.86,4.3,4.3,0,0,0-.51,2.22Z"/><path class="cls-3" d="M689.35,489.66l-.74,0a1.66,1.66,0,0,0-1,.27,1.75,1.75,0,0,0-.6.76v5.66H685.6v-7.92h1.29l.14,1.16a2.75,2.75,0,0,1,.83-1,2,2,0,0,1,1.14-.34l.31,0,.24.06Z"/><path class="cls-3" d="M695.61,496.31q-.07-.36-.11-.63a4.54,4.54,0,0,1,0-.55,3.38,3.38,0,0,1-1.05,1,2.69,2.69,0,0,1-1.4.38,2.59,2.59,0,0,1-1.89-.63,2.33,2.33,0,0,1-.65-1.75,2,2,0,0,1,.92-1.78,4.3,4.3,0,0,1,2.49-.64h1.57v-.78a1.45,1.45,0,0,0-.42-1.1,1.67,1.67,0,0,0-1.2-.41,1.74,1.74,0,0,0-1.13.35,1.07,1.07,0,0,0-.44.85h-1.38v0a1.92,1.92,0,0,1,.82-1.58,3.36,3.36,0,0,1,2.22-.72,3.27,3.27,0,0,1,2.17.68,2.43,2.43,0,0,1,.82,2v3.82a7.43,7.43,0,0,0,0,.82,4.22,4.22,0,0,0,.16.78Zm-2.39-1.06a2.57,2.57,0,0,0,1.41-.4,1.91,1.91,0,0,0,.82-.92v-1.29h-1.62a2.1,2.1,0,0,0-1.4.44,1.31,1.31,0,0,0-.52,1,1.08,1.08,0,0,0,.33.83A1.38,1.38,0,0,0,693.22,495.25Z"/><path class="cls-3" d="M698.66,492.49a5.29,5.29,0,0,1,.82-3.08,2.63,2.63,0,0,1,2.29-1.17,2.84,2.84,0,0,1,1.23.26,2.54,2.54,0,0,1,.92.75v-4.36h1.44v11.43h-1.18l-.17-1a2.56,2.56,0,0,1-1,.84,2.87,2.87,0,0,1-1.31.29,2.72,2.72,0,0,1-2.27-1.05,4.37,4.37,0,0,1-.82-2.76Zm1.44.15a3.37,3.37,0,0,0,.49,1.92,1.71,1.71,0,0,0,1.52.72,1.91,1.91,0,0,0,1.08-.29,2.19,2.19,0,0,0,.72-.82v-3.7a2.22,2.22,0,0,0-.72-.78,1.91,1.91,0,0,0-1.07-.29,1.65,1.65,0,0,0-1.53.86,4.42,4.42,0,0,0-.49,2.23Z"/><path class="cls-3" d="M710.8,496.46a3.34,3.34,0,0,1-2.63-1.1,4.15,4.15,0,0,1-1-2.86v-.32a4.06,4.06,0,0,1,1-2.82,3.1,3.1,0,0,1,2.38-1.12,3,3,0,0,1,2.42,1,3.85,3.85,0,0,1,.82,2.58v.9h-5.14l0,0a3.12,3.12,0,0,0,.58,1.87,1.84,1.84,0,0,0,1.56.73,3.62,3.62,0,0,0,1.29-.21,2.93,2.93,0,0,0,1-.58l.56.94a3.38,3.38,0,0,1-1.12.7A4.52,4.52,0,0,1,710.8,496.46Zm-.22-7.09a1.56,1.56,0,0,0-1.24.61,2.88,2.88,0,0,0-.63,1.53v0h3.65v-.19a2.2,2.2,0,0,0-.45-1.42A1.62,1.62,0,0,0,710.58,489.37Z"/><path class="cls-7" d="M1190.68,474.21a29.9,29.9,0,1,1,29.9-29.9A29.94,29.94,0,0,1,1190.68,474.21Zm0-57.81a27.9,27.9,0,1,0,27.9,27.9A27.93,27.93,0,0,0,1190.68,416.4Z"/><path class="cls-8" d="M1197.92,454.37h5.34a.7.7,0,0,0,.7-.7V432.11l-7.6-7.6h-16.21a.7.7,0,0,0-.7.7v28.47a.7.7,0,0,0,.7.7h4.29m19-22.64h-5.94a.7.7,0,0,1-.7-.7v-5.94"/><rect class="cls-7" x="1190.17" y="457.51" width="2" height="2.66"/><rect class="cls-7" x="1181.97" y="460.67" width="6.3" height="2"/><rect class="cls-7" x="1194.01" y="460.67" width="6.75" height="2"/><path class="cls-7" d="M1191.11,463.87a2.2,2.2,0,1,1,2.2-2.2A2.2,2.2,0,0,1,1191.11,463.87Zm0-2.39a.2.2,0,0,0-.2.2c0,.22.39.22.39,0A.2.2,0,0,0,1191.11,461.48Z"/><path class="cls-7" d="M1191.36,453.23a2.47,2.47,0,1,1,2.46-2.47A2.47,2.47,0,0,1,1191.36,453.23Zm0-2.93a.47.47,0,1,0,.46.46A.47.47,0,0,0,1191.36,450.3Z"/><path class="cls-7" d="M1192,457h-1.28a1.19,1.19,0,0,1-1.19-1.19v-.4l-.18-.07-.28.28a1.19,1.19,0,0,1-1.68,0l-.9-.9a1.19,1.19,0,0,1,0-1.68l.28-.28-.07-.18h-.4a1.19,1.19,0,0,1-1.19-1.19v-1.28a1.19,1.19,0,0,1,1.19-1.19h.4l.07-.18-.28-.28a1.18,1.18,0,0,1-.35-.84,1.2,1.2,0,0,1,.35-.85l.9-.9a1.19,1.19,0,0,1,1.68,0l.28.28.18-.07v-.4a1.19,1.19,0,0,1,1.19-1.19H1192a1.19,1.19,0,0,1,1.19,1.19v.4l.18.07.28-.28a1.19,1.19,0,0,1,1.68,0l.9.9a1.19,1.19,0,0,1,0,1.69l-.28.28.07.18h.4a1.19,1.19,0,0,1,1.19,1.19v1.28a1.19,1.19,0,0,1-1.19,1.19h-.4l-.07.18.28.28a1.19,1.19,0,0,1,0,1.68l-.9.9a1.2,1.2,0,0,1-1.68,0l-.29-.29-.18.07v.4A1.19,1.19,0,0,1,1192,457Zm-2.83-3.89a1,1,0,0,1,.55.16,3,3,0,0,0,1,.42.67.67,0,0,0,1.25,0,2.94,2.94,0,0,0,1-.42.67.67,0,0,0,.88-.88,3,3,0,0,0,.42-1,.67.67,0,0,0,0-1.25,2.94,2.94,0,0,0-.42-1,.67.67,0,0,0-.88-.88,2.94,2.94,0,0,0-1-.42.67.67,0,0,0-1.25,0,3,3,0,0,0-1,.42,1,1,0,0,1-.73.14,1,1,0,0,1-.14.74,2.93,2.93,0,0,0-.42,1,.67.67,0,0,0,0,1.25,3,3,0,0,0,.42,1,1,1,0,0,1,.15.73Zm-1.26-4.92h0Zm6.91-1.14h0Zm-6.93,0,0,0Z"/><path class="cls-7" d="M1187.9,440a1,1,0,0,1-.64-.23l-2.49-2.07a1,1,0,0,1,0-1.54l2.49-2.07a1,1,0,1,1,1.28,1.54l-1.57,1.3,1.57,1.3a1,1,0,0,1-.64,1.77Z"/><path class="cls-7" d="M1194.89,440a1,1,0,0,1-.64-1.77l1.57-1.3-1.57-1.3a1,1,0,0,1,1.28-1.54l2.49,2.07a1,1,0,0,1,0,1.54l-2.49,2.07A1,1,0,0,1,1194.89,440Z"/><path class="cls-7" d="M1190.35,441.33a1,1,0,0,1-1-1.29l2.09-6.76a1,1,0,0,1,1.91.59l-2.09,6.76A1,1,0,0,1,1190.35,441.33Z"/><path class="cls-3" d="M1170.49,493.24v0a3.22,3.22,0,0,1-1.05,2.52,4,4,0,0,1-2.86,1,3.76,3.76,0,0,1-2.95-1.28,4.72,4.72,0,0,1-1.14-3.25v-1.9a4.73,4.73,0,0,1,1.14-3.25,3.76,3.76,0,0,1,2.95-1.29,4.14,4.14,0,0,1,2.88,1,3.18,3.18,0,0,1,1,2.55v0h-1.38a2.38,2.38,0,0,0-.66-1.77,2.54,2.54,0,0,0-1.86-.65,2.27,2.27,0,0,0-1.93,1,4,4,0,0,0-.72,2.42v1.91a4,4,0,0,0,.72,2.43,2.27,2.27,0,0,0,1.93,1,2.54,2.54,0,0,0,1.86-.65,2.39,2.39,0,0,0,.66-1.79Z"/><path class="cls-3" d="M1171.85,492.62a4.37,4.37,0,0,1,1-2.9,3.53,3.53,0,0,1,5.19,0,4.35,4.35,0,0,1,1,2.9v.16a4.34,4.34,0,0,1-1,2.9,3.54,3.54,0,0,1-5.19,0,4.34,4.34,0,0,1-1-2.9Zm1.44.16a3.74,3.74,0,0,0,.53,2.08,1.92,1.92,0,0,0,3.15,0,3.73,3.73,0,0,0,.53-2.08v-.16a3.71,3.71,0,0,0-.54-2.07,1.76,1.76,0,0,0-1.58-.83,1.74,1.74,0,0,0-1.56.83,3.75,3.75,0,0,0-.53,2.07Z"/><path class="cls-3" d="M1182,488.73l.1,1a2.68,2.68,0,0,1,1-.87,3,3,0,0,1,1.39-.31,2.46,2.46,0,0,1,1.36.37,2.22,2.22,0,0,1,.85,1.1,2.94,2.94,0,0,1,1-1.07,2.6,2.6,0,0,1,1.44-.4,2.37,2.37,0,0,1,1.91.83,3.8,3.8,0,0,1,.7,2.5v4.74h-1.44v-4.75a2.63,2.63,0,0,0-.4-1.66,1.47,1.47,0,0,0-1.2-.49,1.53,1.53,0,0,0-1.2.51,2.23,2.23,0,0,0-.54,1.3v5.09h-1.45v-4.75a2.6,2.6,0,0,0-.41-1.63,1.44,1.44,0,0,0-1.19-.52,2,2,0,0,0-1.08.27,1.76,1.76,0,0,0-.65.76v5.87h-1.44v-7.92Z"/><path class="cls-3" d="M1200.57,493a4.37,4.37,0,0,1-.82,2.76,2.71,2.71,0,0,1-2.26,1.05,3.13,3.13,0,0,1-1.29-.25,2.44,2.44,0,0,1-.94-.74v3.88h-1.44v-11h1.11l.23,1a2.63,2.63,0,0,1,1-.87,2.9,2.9,0,0,1,1.35-.3,2.64,2.64,0,0,1,2.29,1.17,5.29,5.29,0,0,1,.82,3.09Zm-1.44-.16a4.18,4.18,0,0,0-.53-2.21,1.72,1.72,0,0,0-1.56-.87,1.93,1.93,0,0,0-1.06.28,2.11,2.11,0,0,0-.71.77v3.83a2,2,0,0,0,.71.76,2,2,0,0,0,1.08.27,1.78,1.78,0,0,0,1.55-.75,3.29,3.29,0,0,0,.53-1.93Z"/><path class="cls-3" d="M1207.21,496.66q-.07-.36-.11-.63a4.54,4.54,0,0,1,0-.55,3.38,3.38,0,0,1-1.05,1,2.69,2.69,0,0,1-1.4.38,2.59,2.59,0,0,1-1.89-.63,2.33,2.33,0,0,1-.65-1.75,2,2,0,0,1,.92-1.78,4.3,4.3,0,0,1,2.49-.64h1.57v-.78a1.45,1.45,0,0,0-.42-1.1,1.67,1.67,0,0,0-1.2-.41,1.74,1.74,0,0,0-1.13.35,1.07,1.07,0,0,0-.44.85h-1.38v0a1.92,1.92,0,0,1,.82-1.58,3.35,3.35,0,0,1,2.22-.72,3.27,3.27,0,0,1,2.17.68,2.43,2.43,0,0,1,.82,2v3.82a7.43,7.43,0,0,0,0,.82,4.22,4.22,0,0,0,.16.78Zm-2.4-1.06a2.58,2.58,0,0,0,1.41-.4,1.91,1.91,0,0,0,.82-.92V493h-1.62a2.1,2.1,0,0,0-1.39.44,1.31,1.31,0,0,0-.52,1,1.08,1.08,0,0,0,.33.83A1.38,1.38,0,0,0,1204.82,495.6Z"/><path class="cls-3" d="M1214.34,490l-.74,0a1.66,1.66,0,0,0-1,.27,1.75,1.75,0,0,0-.6.76v5.66h-1.44v-7.92h1.29l.14,1.16a2.75,2.75,0,0,1,.83-1,1.94,1.94,0,0,1,1.14-.34l.31,0,.24.06Z"/><path class="cls-3" d="M1218.88,496.81a3.34,3.34,0,0,1-2.63-1.1,4.15,4.15,0,0,1-1-2.86v-.32a4.06,4.06,0,0,1,1-2.82,3.1,3.1,0,0,1,2.38-1.12,3,3,0,0,1,2.42,1,3.85,3.85,0,0,1,.82,2.58v.9h-5.14l0,0a3.12,3.12,0,0,0,.58,1.87,1.84,1.84,0,0,0,1.56.73,3.62,3.62,0,0,0,1.29-.21,2.93,2.93,0,0,0,1-.58l.56.94a3.38,3.38,0,0,1-1.12.7A4.52,4.52,0,0,1,1218.88,496.81Zm-.22-7.09a1.56,1.56,0,0,0-1.24.61,2.88,2.88,0,0,0-.63,1.53v0h3.65v-.19a2.2,2.2,0,0,0-.45-1.42A1.62,1.62,0,0,0,1218.66,489.72Z"/><path class="cls-6" d="M1089,469.1h-43.81a23.59,23.59,0,0,1-11-44.45c0-.12,0-.25,0-.37a26.91,26.91,0,0,1,50.24-13.43,14.35,14.35,0,0,1,20.78,12.34l0,1h-13.11a7.94,7.94,0,0,0-7.93,7.93v29.15a7.92,7.92,0,0,0,2.78,6ZM1061,399.37a24.94,24.94,0,0,0-24.92,24.92c0,.31,0,.62,0,.93l0,.65-.58.29a21.59,21.59,0,0,0,9.57,40.95H1084a9.9,9.9,0,0,1-1.87-5.79V432.16a9.94,9.94,0,0,1,9.93-9.93h11a12.35,12.35,0,0,0-18.58-9.16l-.9.54-.49-.93A24.87,24.87,0,0,0,1061,399.37Z"/><rect class="cls-10" x="1106.26" y="467.07" width="1" height="7.26"/><rect class="cls-6" x="1088.23" y="477.2" width="13.16" height="2"/><rect class="cls-6" x="1111.96" y="477.2" width="13.08" height="2"/><path class="cls-6" d="M1106.6,482.29a4.09,4.09,0,1,1,4.09-4.09A4.1,4.1,0,0,1,1106.6,482.29Zm0-6.18a2.09,2.09,0,1,0,2.09,2.09A2.09,2.09,0,0,0,1106.6,476.11Z"/><path class="cls-6" d="M1120.32,468.07h-27.37a7.64,7.64,0,0,1-7.63-7.63V433a7.64,7.64,0,0,1,7.63-7.63h27.37A7.64,7.64,0,0,1,1128,433v27.39A7.64,7.64,0,0,1,1120.32,468.07Zm-27.37-40.66a5.64,5.64,0,0,0-5.63,5.63v27.39a5.64,5.64,0,0,0,5.63,5.63h27.37a5.64,5.64,0,0,0,5.63-5.63V433a5.64,5.64,0,0,0-5.63-5.63Z"/><path class="cls-6" d="M1099.29,449.75h-4.17l-.85,2.49h-1.8l3.92-10.66h1.68l3.88,10.66h-1.81Zm-3.66-1.49h3.16l-1.54-4.56h0Z"/><path class="cls-6" d="M1105,448.19v4h-1.78V441.57h4.17a4,4,0,0,1,2.76.91,3.39,3.39,0,0,1,0,4.8,4,4,0,0,1-2.76.9Zm0-1.43h2.39a2,2,0,0,0,1.49-.53,1.88,1.88,0,0,0,.5-1.34,1.8,1.8,0,0,0-2-1.9H1105Z"/><path class="cls-6" d="M1114.64,448.19v4h-1.78V441.57H1117a4,4,0,0,1,2.76.91,3.39,3.39,0,0,1,0,4.8,4,4,0,0,1-2.76.9Zm0-1.43H1117a2,2,0,0,0,1.49-.53,1.88,1.88,0,0,0,.5-1.34,1.8,1.8,0,0,0-2-1.9h-2.39Z"/><path class="cls-6" d="M39.34,435.94H36.19a3.35,3.35,0,0,1-3.54-3.11V416.42a3.35,3.35,0,0,1,3.54-3.11h3.15v2H36.19c-.82,0-1.54.52-1.54,1.11v16.41c0,.59.72,1.11,1.54,1.11h3.15Z"/><path class="cls-6" d="M154.49,435.94h-4v-2h4c.82,0,1.54-.52,1.54-1.11V416.42c0-.59-.72-1.11-1.54-1.11h-4v-2h4a3.35,3.35,0,0,1,3.54,3.11v16.41A3.35,3.35,0,0,1,154.49,435.94Z"/><rect class="cls-6" x="64.12" y="429.69" width="13.99" height="2"/><rect class="cls-6" x="83.79" y="429.69" width="13.99" height="2"/><rect class="cls-6" x="103.46" y="429.69" width="13.99" height="2"/><rect class="cls-6" x="123.14" y="429.69" width="13.99" height="2"/><path class="cls-6" d="M51.23,420.73a1.66,1.66,0,1,1,1.66-1.66A1.66,1.66,0,0,1,51.23,420.73Zm0-2a.34.34,0,1,0,.34.34A.34.34,0,0,0,51.23,418.73Z"/><path class="cls-6" d="M51.23,426.42a1.66,1.66,0,1,1,1.66-1.66A1.66,1.66,0,0,1,51.23,426.42Zm0-2a.34.34,0,1,0,.34.34A.34.34,0,0,0,51.23,424.42Z"/><path class="cls-6" d="M51.23,432.1a1.66,1.66,0,1,1,1.66-1.66A1.66,1.66,0,0,1,51.23,432.1Zm0-2a.34.34,0,1,0,.34.34A.34.34,0,0,0,51.23,430.1Z"/><path class="cls-6" d="M79,426.45H63.23v-9H79Zm-13.78-2H77v-5H65.23Z"/><path class="cls-6" d="M98.68,426.45H82.9v-9H98.68Zm-13.78-2H96.68v-5H84.9Z"/><path class="cls-6" d="M118.35,426.45H102.57v-9h15.78Zm-13.78-2h11.78v-5H104.57Z"/><path class="cls-6" d="M138,426.45H122.24v-9H138Zm-13.78-2H136v-5H124.24Z"/><path class="cls-6" d="M146.59,441.47H43.2a5,5,0,0,1-5-5V412.83a5,5,0,0,1,5-5H146.59a5,5,0,0,1,5,5v23.61A5,5,0,0,1,146.59,441.47ZM43.2,409.8a3,3,0,0,0-3,3v23.61a3,3,0,0,0,3,3H146.59a3,3,0,0,0,3-3V412.83a3,3,0,0,0-3-3Z"/><path class="cls-6" d="M39.07,471.35H35.91a3.35,3.35,0,0,1-3.54-3.11V451.83a3.35,3.35,0,0,1,3.54-3.11h3.15v2H35.91c-.84,0-1.54.51-1.54,1.11v16.41c0,.6.71,1.11,1.54,1.11h3.15Z"/><path class="cls-6" d="M154.22,471.35h-4v-2h4c.84,0,1.54-.51,1.54-1.11V451.83c0-.6-.71-1.11-1.54-1.11h-4v-2h4a3.35,3.35,0,0,1,3.54,3.11v16.41A3.35,3.35,0,0,1,154.22,471.35Z"/><rect class="cls-6" x="63.84" y="465.1" width="13.99" height="2"/><rect class="cls-6" x="83.52" y="465.1" width="13.99" height="2"/><rect class="cls-6" x="103.19" y="465.1" width="13.99" height="2"/><rect class="cls-6" x="122.86" y="465.1" width="13.99" height="2"/><path class="cls-6" d="M50.95,456.14a1.66,1.66,0,1,1,1.66-1.66A1.66,1.66,0,0,1,50.95,456.14Zm0-2a.34.34,0,1,0,.34.34A.34.34,0,0,0,50.95,454.14Z"/><path class="cls-6" d="M50.95,461.83a1.66,1.66,0,1,1,1.66-1.66A1.66,1.66,0,0,1,50.95,461.83Zm0-2a.34.34,0,1,0,.34.34A.34.34,0,0,0,50.95,459.83Z"/><path class="cls-6" d="M50.95,467.51a1.66,1.66,0,1,1,1.66-1.66A1.66,1.66,0,0,1,50.95,467.51Zm0-2a.34.34,0,1,0,.34.34A.34.34,0,0,0,50.95,465.51Z"/><path class="cls-6" d="M78.73,461.86H62.95v-9H78.73Zm-13.78-2H76.73v-5H64.95Z"/><path class="cls-6" d="M98.4,461.86H82.62v-9H98.4Zm-13.78-2H96.4v-5H84.62Z"/><path class="cls-6" d="M118.07,461.86H102.29v-9h15.78Zm-13.78-2h11.78v-5H104.29Z"/><path class="cls-6" d="M137.74,461.86H122v-9h15.78Zm-13.78-2h11.78v-5H124Z"/><path class="cls-6" d="M146.31,476.88H42.92a5,5,0,0,1-5-5V448.24a5,5,0,0,1,5-5H146.31a5,5,0,0,1,5,5v23.61A5,5,0,0,1,146.31,476.88ZM42.92,445.21a3,3,0,0,0-3,3v23.61a3,3,0,0,0,3,3H146.31a3,3,0,0,0,3-3V448.24a3,3,0,0,0-3-3Z"/><path class="cls-6" d="M515.83,435.94h-3.15a3.35,3.35,0,0,1-3.54-3.11V416.42a3.35,3.35,0,0,1,3.54-3.11h3.15v2h-3.15c-.82,0-1.54.52-1.54,1.11v16.41c0,.59.72,1.11,1.54,1.11h3.15Z"/><path class="cls-6" d="M631,435.94h-4v-2h4c.82,0,1.54-.52,1.54-1.11V416.42c0-.59-.72-1.11-1.54-1.11h-4v-2h4a3.35,3.35,0,0,1,3.54,3.11v16.41A3.35,3.35,0,0,1,631,435.94Z"/><rect class="cls-6" x="540.61" y="429.69" width="13.99" height="2"/><rect class="cls-6" x="560.28" y="429.69" width="13.99" height="2"/><rect class="cls-6" x="579.95" y="429.69" width="13.99" height="2"/><rect class="cls-6" x="599.62" y="429.69" width="13.99" height="2"/><path class="cls-6" d="M527.71,420.73a1.66,1.66,0,1,1,1.66-1.66A1.66,1.66,0,0,1,527.71,420.73Zm0-2a.34.34,0,1,0,.34.34A.34.34,0,0,0,527.71,418.73Z"/><path class="cls-6" d="M527.71,426.42a1.66,1.66,0,1,1,1.66-1.66A1.66,1.66,0,0,1,527.71,426.42Zm0-2a.34.34,0,1,0,.34.34A.34.34,0,0,0,527.71,424.42Z"/><path class="cls-6" d="M527.71,432.1a1.66,1.66,0,1,1,1.66-1.66A1.66,1.66,0,0,1,527.71,432.1Zm0-2a.34.34,0,1,0,.34.34A.34.34,0,0,0,527.71,430.1Z"/><path class="cls-6" d="M555.49,426.45H539.71v-9h15.78Zm-13.78-2h11.78v-5H541.71Z"/><path class="cls-6" d="M575.16,426.45H559.38v-9h15.78Zm-13.78-2h11.78v-5H561.38Z"/><path class="cls-6" d="M594.83,426.45H579.06v-9h15.78Zm-13.78-2h11.78v-5H581.06Z"/><path class="cls-6" d="M614.51,426.45H598.73v-9h15.78Zm-13.78-2h11.78v-5H600.73Z"/><path class="cls-6" d="M623.08,441.47H519.68a5,5,0,0,1-5-5V412.83a5,5,0,0,1,5-5H623.08a5,5,0,0,1,5,5v23.61A5,5,0,0,1,623.08,441.47ZM519.68,409.8a3,3,0,0,0-3,3v23.61a3,3,0,0,0,3,3H623.08a3,3,0,0,0,3-3V412.83a3,3,0,0,0-3-3Z"/><path class="cls-6" d="M515.55,471.35H512.4a3.35,3.35,0,0,1-3.54-3.11V451.83a3.35,3.35,0,0,1,3.54-3.11h3.15v2H512.4c-.84,0-1.54.51-1.54,1.11v16.41c0,.6.71,1.11,1.54,1.11h3.15Z"/><path class="cls-6" d="M630.7,471.35h-4v-2h4c.82,0,1.54-.52,1.54-1.11V451.83c0-.59-.72-1.11-1.54-1.11h-4v-2h4a3.35,3.35,0,0,1,3.54,3.11v16.41A3.35,3.35,0,0,1,630.7,471.35Z"/><rect class="cls-6" x="540.33" y="465.1" width="13.99" height="2"/><rect class="cls-6" x="560" y="465.1" width="13.99" height="2"/><rect class="cls-6" x="579.67" y="465.1" width="13.99" height="2"/><rect class="cls-6" x="599.34" y="465.1" width="13.99" height="2"/><path class="cls-6" d="M527.44,456.14a1.66,1.66,0,1,1,1.66-1.66A1.66,1.66,0,0,1,527.44,456.14Zm0-2a.34.34,0,1,0,.34.34A.34.34,0,0,0,527.44,454.14Z"/><path class="cls-6" d="M527.44,461.83a1.66,1.66,0,1,1,1.66-1.66A1.66,1.66,0,0,1,527.44,461.83Zm0-2a.34.34,0,1,0,.34.34A.34.34,0,0,0,527.44,459.83Z"/><path class="cls-6" d="M527.44,467.51a1.66,1.66,0,1,1,1.66-1.66A1.66,1.66,0,0,1,527.44,467.51Zm0-2a.34.34,0,1,0,.34.34A.34.34,0,0,0,527.44,465.51Z"/><path class="cls-6" d="M555.21,461.86H539.43v-9h15.78Zm-13.78-2h11.78v-5H541.43Z"/><path class="cls-6" d="M574.88,461.86H559.11v-9h15.78Zm-13.78-2h11.78v-5H561.11Z"/><path class="cls-6" d="M594.56,461.86H578.78v-9h15.78Zm-13.78-2h11.78v-5H580.78Z"/><path class="cls-6" d="M614.23,461.86H598.45v-9h15.78Zm-13.78-2h11.78v-5H600.45Z"/><path class="cls-6" d="M622.8,476.88H519.41a5,5,0,0,1-5-5V448.24a5,5,0,0,1,5-5H622.8a5,5,0,0,1,5,5v23.61A5,5,0,0,1,622.8,476.88ZM519.41,445.21a3,3,0,0,0-3,3v23.61a3,3,0,0,0,3,3H622.8a3,3,0,0,0,3-3V448.24a3,3,0,0,0-3-3Z"/></svg>