<svg id="Layer_1" data-name="Layer 1" xmlns="http://www.w3.org/2000/svg" viewBox="0 0 1250 653.54"><defs><style>.cls-1{fill:#e2f0f8;}.cls-2{fill:#0077c0;}.cls-3{fill:#231f20;}.cls-4{fill:none;stroke:#919394;stroke-miterlimit:10;stroke-width:2px;}.cls-5{fill:#919394;}.cls-6{fill:#0075c9;}.cls-7{fill:#17242d;}.cls-8{fill:#3fa0f1;}.cls-9{fill:#51b092;}.cls-10{fill:#929495;}.cls-11{fill:#787878;}.cls-12{fill:#fff;}.cls-13{fill:#c25050;}.cls-14{fill:#42b3e2;}.cls-15{fill:#949494;}.cls-16{fill:#6d6e70;}</style></defs><title>Artboard 1</title><rect class="cls-1" x="325.51" y="240.33" width="843.69" height="117.16" rx="5.26" ry="5.26"/><path class="cls-2" d="M1163.94,358.49h-3.25v-2h3.25a4.23,4.23,0,0,0,2.38-.72l1.12,1.66A6.23,6.23,0,0,1,1163.94,358.49Zm-6.5,0h-3.25v-2h3.25Zm-6.5,0h-3.25v-2h3.25Zm-6.5,0h-3.25v-2h3.25Zm-6.5,0h-3.25v-2H1138Zm-6.5,0h-3.25v-2h3.25Zm-6.5,0h-3.25v-2H1125Zm-6.5,0h-3.25v-2h3.25Zm-6.5,0h-3.25v-2H1112Zm-6.5,0h-3.25v-2h3.25Zm-6.5,0h-3.25v-2H1099Zm-6.5,0h-3.25v-2h3.25Zm-6.5,0h-3.25v-2H1086Zm-6.5,0h-3.25v-2h3.25Zm-6.5,0h-3.25v-2H1073Zm-6.5,0h-3.25v-2h3.25Zm-6.5,0h-3.25v-2H1060Zm-6.5,0h-3.25v-2h3.25Zm-6.5,0h-3.25v-2H1047Zm-6.5,0h-3.25v-2h3.25Zm-6.5,0h-3.25v-2H1034Zm-6.5,0h-3.25v-2h3.25Zm-6.5,0h-3.25v-2H1021Zm-6.5,0h-3.25v-2h3.25Zm-6.5,0h-3.25v-2h3.25Zm-6.5,0h-3.25v-2h3.25Zm-6.5,0h-3.25v-2h3.25Zm-6.5,0h-3.25v-2h3.25Zm-6.5,0h-3.25v-2h3.25Zm-6.5,0h-3.25v-2h3.25Zm-6.5,0h-3.25v-2h3.25Zm-6.5,0h-3.25v-2h3.25Zm-6.5,0h-3.25v-2h3.25Zm-6.5,0h-3.25v-2h3.25Zm-6.5,0h-3.25v-2h3.25Zm-6.5,0h-3.25v-2h3.25Zm-6.5,0h-3.25v-2h3.25Zm-6.5,0h-3.25v-2h3.25Zm-6.5,0h-3.25v-2h3.25Zm-6.5,0h-3.25v-2h3.25Zm-6.5,0h-3.25v-2h3.25Zm-6.5,0h-3.25v-2h3.25Zm-6.5,0h-3.25v-2h3.25Zm-6.5,0H881.4v-2h3.25Zm-6.5,0H874.9v-2h3.25Zm-6.5,0h-3.25v-2h3.25Zm-6.5,0h-3.25v-2h3.25Zm-6.5,0h-3.25v-2h3.25Zm-6.5,0h-3.25v-2h3.25Zm-6.5,0h-3.25v-2h3.25Zm-6.5,0h-3.25v-2h3.25Zm-6.5,0h-3.25v-2h3.25Zm-6.5,0h-3.25v-2h3.25Zm-6.5,0h-3.25v-2h3.25Zm-6.5,0H810v-2h3.25Zm-6.5,0h-3.25v-2h3.25Zm-6.5,0H797v-2h3.25Zm-6.5,0h-3.25v-2h3.25Zm-6.5,0H784v-2h3.25Zm-6.5,0h-3.25v-2h3.25Zm-6.5,0H771v-2h3.25Zm-6.5,0h-3.25v-2h3.25Zm-6.5,0H758v-2h3.25Zm-6.5,0h-3.25v-2h3.25Zm-6.5,0H745v-2h3.25Zm-6.5,0H738.5v-2h3.25Zm-6.5,0H732v-2h3.25Zm-6.5,0h-3.25v-2h3.25Zm-6.5,0H719v-2h3.25Zm-6.5,0h-3.25v-2h3.25Zm-6.5,0H706v-2h3.25Zm-6.5,0h-3.25v-2h3.25Zm-6.5,0H693v-2h3.25Zm-6.5,0h-3.25v-2h3.25Zm-6.5,0H680v-2h3.25Zm-6.5,0h-3.25v-2h3.25Zm-6.5,0h-3.25v-2h3.25Zm-6.5,0h-3.25v-2h3.25Zm-6.5,0h-3.25v-2h3.25Zm-6.5,0h-3.25v-2h3.25Zm-6.5,0h-3.25v-2h3.25Zm-6.5,0h-3.25v-2h3.25Zm-6.5,0h-3.25v-2h3.25Zm-6.5,0h-3.25v-2h3.25Zm-6.5,0H615.1v-2h3.25Zm-6.5,0H608.6v-2h3.25Zm-6.5,0h-3.25v-2h3.25Zm-6.5,0h-3.25v-2h3.25Zm-6.5,0h-3.25v-2h3.25Zm-6.5,0h-3.25v-2h3.25Zm-6.5,0h-3.25v-2h3.25Zm-6.5,0h-3.25v-2h3.25Zm-6.5,0h-3.25v-2h3.25Zm-6.5,0h-3.25v-2h3.25Zm-6.5,0h-3.25v-2h3.25Zm-6.5,0h-3.25v-2h3.25Zm-6.5,0h-3.25v-2h3.25Zm-6.5,0h-3.25v-2h3.25Zm-6.5,0h-3.25v-2h3.25Zm-6.5,0h-3.25v-2h3.25Zm-6.5,0h-3.25v-2h3.25Zm-6.5,0h-3.25v-2h3.25Zm-6.5,0h-3.25v-2h3.25Zm-6.5,0h-3.25v-2h3.25Zm-6.5,0h-3.25v-2h3.25Zm-6.5,0H478.7v-2h3.25Zm-6.5,0H472.2v-2h3.25Zm-6.5,0h-3.25v-2H469Zm-6.5,0h-3.25v-2h3.25Zm-6.5,0h-3.25v-2H456Zm-6.5,0h-3.25v-2h3.25Zm-6.5,0h-3.25v-2H443Zm-6.5,0h-3.25v-2h3.25Zm-6.5,0h-3.25v-2H430Zm-6.5,0h-3.25v-2h3.25Zm-6.5,0h-3.25v-2H417Zm-6.5,0h-3.25v-2h3.25Zm-6.5,0h-3.25v-2H404Zm-6.5,0h-3.25v-2h3.25Zm-6.5,0h-3.25v-2H391Zm-6.5,0h-3.25v-2h3.25Zm-6.5,0h-3.25v-2H378Zm-6.5,0h-3.25v-2h3.25Zm-6.5,0h-3.25v-2H365Zm-6.5,0h-3.25v-2h3.25Zm-6.5,0h-3.25v-2H352Zm-6.5,0H342.3v-2h3.25Zm-6.5,0H335.8v-2h3.25Zm-6.5,0h-1.79a6.28,6.28,0,0,1-1.71-.24l.54-1.92a4.3,4.3,0,0,0,1.17.16h1.79Zm-6.67-2.34a6.21,6.21,0,0,1-1.37-3.55l2-.12a4.22,4.22,0,0,0,.93,2.41Zm843.91-1.71-1.87-.71a4.23,4.23,0,0,0,.27-1.51v-1.35h2v1.35A6.24,6.24,0,0,1,1169.79,354.44ZM326.51,349.3h-2V346h2Zm843.69-1.66h-2v-3.25h2ZM326.51,342.8h-2v-3.25h2Zm843.69-1.66h-2v-3.25h2ZM326.51,336.3h-2v-3.25h2Zm843.69-1.66h-2V331.4h2Zm-843.69-4.84h-2v-3.25h2Zm843.69-1.66h-2V324.9h2Zm-843.69-4.84h-2v-3.25h2Zm843.69-1.66h-2v-3.25h2Zm-843.69-4.84h-2v-3.25h2Zm843.69-1.66h-2v-3.25h2Zm-843.69-4.84h-2v-3.25h2Zm843.69-1.66h-2v-3.25h2Zm-843.69-4.84h-2v-3.25h2Zm843.69-1.66h-2v-3.25h2Zm-843.69-4.84h-2v-3.25h2Zm843.69-1.66h-2v-3.25h2Zm-843.69-4.84h-2v-3.25h2Zm843.69-1.66h-2v-3.25h2Zm-843.69-4.84h-2V281.1h2Zm843.69-1.66h-2v-3.25h2Zm-843.69-4.84h-2V274.6h2Zm843.69-1.66h-2v-3.25h2Zm-843.69-4.84h-2v-3.25h2Zm843.69-1.66h-2v-3.25h2Zm-843.69-4.84h-2v-3.25h2Zm843.69-1.66h-2V260h2Zm-843.69-4.84h-2v-3.25h2Zm843.69-1.66h-2v-3.25h2Zm-843.69-4.84h-2v-3.25h2Zm843.69-1.66h-2V247h2Zm-843.69-4.8-2-.08a6.21,6.21,0,0,1,1.3-3.57l1.58,1.22A4.22,4.22,0,0,0,326.51,245.41Zm841.42-1.31a4.31,4.31,0,0,0-1.6-2l1.13-1.65a6.23,6.23,0,0,1,2.34,3Zm-838.41-2.59-.58-1.91a6.23,6.23,0,0,1,1.82-.27h1.7v2h-1.69A4.24,4.24,0,0,0,329.52,241.51Zm834.31-.18h-3.25v-2h3.25Zm-6.5,0h-3.25v-2h3.25Zm-6.5,0h-3.25v-2h3.25Zm-6.5,0h-3.25v-2h3.25Zm-6.5,0h-3.25v-2h3.25Zm-6.5,0h-3.25v-2h3.25Zm-6.5,0h-3.25v-2h3.25Zm-6.5,0h-3.25v-2h3.25Zm-6.5,0h-3.25v-2h3.25Zm-6.5,0h-3.25v-2h3.25Zm-6.5,0h-3.25v-2h3.25Zm-6.5,0h-3.25v-2h3.25Zm-6.5,0h-3.25v-2h3.25Zm-6.5,0h-3.25v-2h3.25Zm-6.5,0h-3.25v-2h3.25Zm-6.5,0h-3.25v-2h3.25Zm-6.5,0h-3.25v-2h3.25Zm-6.5,0h-3.25v-2h3.25Zm-6.5,0h-3.25v-2h3.25Zm-6.5,0h-3.25v-2h3.25Zm-6.5,0h-3.25v-2h3.25Zm-6.5,0h-3.25v-2h3.25Zm-6.5,0h-3.25v-2h3.25Zm-6.5,0h-3.25v-2h3.25Zm-6.5,0h-3.25v-2H1008Zm-6.5,0h-3.25v-2h3.25Zm-6.5,0h-3.25v-2H995Zm-6.5,0h-3.25v-2h3.25Zm-6.5,0h-3.25v-2H982Zm-6.5,0h-3.25v-2h3.25Zm-6.5,0h-3.25v-2H969Zm-6.5,0h-3.25v-2h3.25Zm-6.5,0h-3.25v-2H956Zm-6.5,0h-3.25v-2h3.25Zm-6.5,0h-3.25v-2H943Zm-6.5,0h-3.25v-2h3.25Zm-6.5,0h-3.25v-2H930Zm-6.5,0h-3.25v-2h3.25Zm-6.5,0h-3.25v-2H917Zm-6.5,0h-3.25v-2h3.25Zm-6.5,0h-3.25v-2H904Zm-6.5,0h-3.25v-2h3.25Zm-6.5,0h-3.25v-2H891Zm-6.5,0H881.3v-2h3.25Zm-6.5,0H874.8v-2H878Zm-6.5,0h-3.25v-2h3.25Zm-6.5,0h-3.25v-2h3.25Zm-6.5,0h-3.25v-2h3.25Zm-6.5,0h-3.25v-2h3.25Zm-6.5,0h-3.25v-2h3.25Zm-6.5,0h-3.25v-2h3.25Zm-6.5,0h-3.25v-2h3.25Zm-6.5,0h-3.25v-2h3.25Zm-6.5,0h-3.25v-2h3.25Zm-6.5,0h-3.25v-2h3.25Zm-6.5,0h-3.25v-2h3.25Zm-6.5,0h-3.25v-2h3.25Zm-6.5,0h-3.25v-2h3.25Zm-6.5,0h-3.25v-2h3.25Zm-6.5,0h-3.25v-2h3.25Zm-6.5,0h-3.25v-2h3.25Zm-6.5,0h-3.25v-2h3.25Zm-6.5,0h-3.25v-2h3.25Zm-6.5,0h-3.25v-2h3.25Zm-6.5,0H744.9v-2h3.25Zm-6.5,0H738.4v-2h3.25Zm-6.5,0h-3.25v-2h3.25Zm-6.5,0h-3.25v-2h3.25Zm-6.5,0h-3.25v-2h3.25Zm-6.5,0h-3.25v-2h3.25Zm-6.5,0h-3.25v-2h3.25Zm-6.5,0h-3.25v-2h3.25Zm-6.5,0h-3.25v-2h3.25Zm-6.5,0h-3.25v-2h3.25Zm-6.5,0h-3.25v-2h3.25Zm-6.5,0h-3.25v-2h3.25Zm-6.5,0H667v-2h3.25Zm-6.5,0h-3.25v-2h3.25Zm-6.5,0H654v-2h3.25Zm-6.5,0h-3.25v-2h3.25Zm-6.5,0H641v-2h3.25Zm-6.5,0h-3.25v-2h3.25Zm-6.5,0H628v-2h3.25Zm-6.5,0h-3.25v-2h3.25Zm-6.5,0H615v-2h3.25Zm-6.5,0H608.5v-2h3.25Zm-6.5,0H602v-2h3.25Zm-6.5,0h-3.25v-2h3.25Zm-6.5,0H589v-2h3.25Zm-6.5,0h-3.25v-2h3.25Zm-6.5,0H576v-2h3.25Zm-6.5,0h-3.25v-2h3.25Zm-6.5,0H563v-2h3.25Zm-6.5,0h-3.25v-2h3.25Zm-6.5,0H550v-2h3.25Zm-6.5,0h-3.25v-2h3.25Zm-6.5,0h-3.25v-2h3.25Zm-6.5,0h-3.25v-2h3.25Zm-6.5,0h-3.25v-2h3.25Zm-6.5,0h-3.25v-2h3.25Zm-6.5,0h-3.25v-2h3.25Zm-6.5,0h-3.25v-2h3.25Zm-6.5,0h-3.25v-2h3.25Zm-6.5,0h-3.25v-2h3.25Zm-6.5,0h-3.25v-2h3.25Zm-6.5,0H478.6v-2h3.25Zm-6.5,0H472.1v-2h3.25Zm-6.5,0h-3.25v-2h3.25Zm-6.5,0h-3.25v-2h3.25Zm-6.5,0h-3.25v-2h3.25Zm-6.5,0h-3.25v-2h3.25Zm-6.5,0h-3.25v-2h3.25Zm-6.5,0h-3.25v-2h3.25Zm-6.5,0h-3.25v-2h3.25Zm-6.5,0h-3.25v-2h3.25Zm-6.5,0h-3.25v-2h3.25Zm-6.5,0h-3.25v-2h3.25Zm-6.5,0h-3.25v-2h3.25Zm-6.5,0h-3.25v-2h3.25Zm-6.5,0h-3.25v-2h3.25Zm-6.5,0h-3.25v-2h3.25Zm-6.5,0h-3.25v-2h3.25Zm-6.5,0h-3.25v-2h3.25Zm-6.5,0h-3.25v-2h3.25Zm-6.5,0h-3.25v-2h3.25Zm-6.5,0h-3.25v-2h3.25Zm-6.5,0H342.2v-2h3.25Zm-6.5,0H335.7v-2H339Z"/><path class="cls-3" d="M105.45,640.19H102v9.53h-1.44v-9.53H97.16v-1.13h8.29Z"/><path class="cls-3" d="M112,647h-4.47l-1,2.75h-1.47l4.12-10.66h1.24l4.06,10.66H113Zm-4-1.21h3.59l-1.76-4.86h0Z"/><path class="cls-3" d="M117.38,645.1v4.62h-1.44V639.06h3.86a4.06,4.06,0,0,1,2.67.78,2.78,2.78,0,0,1,.92,2.26,2.41,2.41,0,0,1-.43,1.43,2.9,2.9,0,0,1-1.25,1,2.18,2.18,0,0,1,1.26.93,3,3,0,0,1,.38,1.59v1a3.34,3.34,0,0,0,.11.89,1.34,1.34,0,0,0,.38.64v.18h-1.49A1.19,1.19,0,0,1,122,649a6.05,6.05,0,0,1-.08-1v-1a1.93,1.93,0,0,0-.51-1.39,1.79,1.79,0,0,0-1.35-.53Zm0-1.14h2.27a2.68,2.68,0,0,0,1.76-.46,1.77,1.77,0,0,0,.54-1.42,1.82,1.82,0,0,0-.52-1.39,2.31,2.31,0,0,0-1.63-.49h-2.42Z"/><path class="cls-3" d="M133.6,648.31a3.41,3.41,0,0,1-1.32,1.08,5.26,5.26,0,0,1-2.44.49,4.33,4.33,0,0,1-3.16-1.22,4.23,4.23,0,0,1-1.25-3.16v-2.2a4.4,4.4,0,0,1,1.16-3.16,4,4,0,0,1,3-1.22,4.27,4.27,0,0,1,2.88.9,3,3,0,0,1,1.07,2.32v0h-1.38a2.24,2.24,0,0,0-.71-1.53,2.61,2.61,0,0,0-1.85-.6,2.42,2.42,0,0,0-2,.92,3.55,3.55,0,0,0-.75,2.32v2.21a3.34,3.34,0,0,0,.83,2.34,2.74,2.74,0,0,0,2.12.92,3.9,3.9,0,0,0,1.49-.24,2.08,2.08,0,0,0,.83-.55v-2.42h-2.34V644.4h3.78Z"/><path class="cls-3" d="M142.43,644.78h-4.89v3.81h5.63v1.13H136.1V639.06h7v1.13h-5.55v3.45h4.89Z"/><path class="cls-3" d="M152.24,640.19h-3.43v9.53h-1.44v-9.53h-3.42v-1.13h8.29Z"/><path class="cls-3" d="M705.37,640.19h-3.43v9.53H700.5v-9.53h-3.42v-1.13h8.29Z"/><path class="cls-3" d="M711.93,647h-4.47l-1,2.75H705l4.12-10.66h1.24l4.06,10.66h-1.47Zm-4-1.21h3.59l-1.76-4.86h0Z"/><path class="cls-3" d="M717.3,645.1v4.62h-1.44V639.06h3.86a4.06,4.06,0,0,1,2.67.78,2.78,2.78,0,0,1,.92,2.26,2.41,2.41,0,0,1-.43,1.43,2.9,2.9,0,0,1-1.25,1,2.18,2.18,0,0,1,1.26.93,3,3,0,0,1,.38,1.59v1a3.34,3.34,0,0,0,.11.89,1.34,1.34,0,0,0,.38.64v.18h-1.49a1.19,1.19,0,0,1-.37-.73,6,6,0,0,1-.08-1v-1a1.93,1.93,0,0,0-.5-1.39,1.79,1.79,0,0,0-1.36-.53Zm0-1.14h2.27a2.68,2.68,0,0,0,1.76-.46,1.77,1.77,0,0,0,.54-1.42,1.82,1.82,0,0,0-.52-1.39,2.32,2.32,0,0,0-1.63-.49H717.3Z"/><path class="cls-3" d="M733.53,648.31a3.41,3.41,0,0,1-1.32,1.08,5.26,5.26,0,0,1-2.44.49,4.33,4.33,0,0,1-3.16-1.22,4.23,4.23,0,0,1-1.25-3.16v-2.2a4.4,4.4,0,0,1,1.17-3.16,4,4,0,0,1,3-1.22,4.27,4.27,0,0,1,2.88.9,3,3,0,0,1,1.07,2.32v0h-1.38a2.23,2.23,0,0,0-.71-1.53,2.6,2.6,0,0,0-1.85-.6,2.42,2.42,0,0,0-2,.92,3.55,3.55,0,0,0-.75,2.32v2.21a3.34,3.34,0,0,0,.83,2.34,2.74,2.74,0,0,0,2.12.92,3.9,3.9,0,0,0,1.49-.24,2.08,2.08,0,0,0,.83-.55v-2.42h-2.34V644.4h3.78Z"/><path class="cls-3" d="M742.35,644.78h-4.88v3.81h5.63v1.13H736V639.06h7v1.13h-5.55v3.45h4.88Z"/><path class="cls-3" d="M752.16,640.19h-3.43v9.53h-1.44v-9.53h-3.42v-1.13h8.29Z"/><path class="cls-3" d="M977.6,640.19h-3.43v9.53h-1.44v-9.53h-3.42v-1.13h8.29Z"/><path class="cls-3" d="M984.16,647h-4.47l-1,2.75h-1.47l4.12-10.66h1.24l4.06,10.66h-1.47Zm-4-1.21h3.59L982,640.91h0Z"/><path class="cls-3" d="M989.53,645.1v4.62h-1.44V639.06H992a4.05,4.05,0,0,1,2.67.78,2.78,2.78,0,0,1,.92,2.26,2.41,2.41,0,0,1-.43,1.43,2.9,2.9,0,0,1-1.25,1,2.18,2.18,0,0,1,1.26.93,3,3,0,0,1,.38,1.59v1a3.34,3.34,0,0,0,.11.89,1.34,1.34,0,0,0,.38.64v.18h-1.49a1.19,1.19,0,0,1-.37-.73,6.05,6.05,0,0,1-.08-1v-1a1.93,1.93,0,0,0-.51-1.39,1.79,1.79,0,0,0-1.35-.53Zm0-1.14h2.27a2.68,2.68,0,0,0,1.76-.46,1.77,1.77,0,0,0,.54-1.42,1.82,1.82,0,0,0-.52-1.39,2.31,2.31,0,0,0-1.63-.49h-2.42Z"/><path class="cls-3" d="M1005.76,648.31a3.41,3.41,0,0,1-1.32,1.08,5.26,5.26,0,0,1-2.44.49,4.33,4.33,0,0,1-3.16-1.22,4.23,4.23,0,0,1-1.25-3.16v-2.2a4.4,4.4,0,0,1,1.16-3.16,4,4,0,0,1,3-1.22,4.27,4.27,0,0,1,2.88.9,3,3,0,0,1,1.07,2.32v0h-1.38a2.24,2.24,0,0,0-.71-1.53,2.61,2.61,0,0,0-1.85-.6,2.42,2.42,0,0,0-2,.92,3.55,3.55,0,0,0-.75,2.32v2.21a3.34,3.34,0,0,0,.83,2.34,2.74,2.74,0,0,0,2.12.92,3.89,3.89,0,0,0,1.49-.24,2.08,2.08,0,0,0,.83-.55v-2.42H1002V644.4h3.78Z"/><path class="cls-3" d="M1014.58,644.78h-4.89v3.81h5.63v1.13h-7.08V639.06h7v1.13h-5.55v3.45h4.89Z"/><path class="cls-3" d="M1024.39,640.19H1021v9.53h-1.44v-9.53h-3.42v-1.13h8.29Z"/><path class="cls-4" d="M191.37,596.71v-1a4.36,4.36,0,0,0-4.34-4.34H62.11a4.35,4.35,0,0,0-4.34,4.34v28.8a4.35,4.35,0,0,0,4.34,4.34H187a4.35,4.35,0,0,0,4.34-4.34V596.71Z"/><rect class="cls-5" x="91.17" y="607.11" width="27.34" height="4.27"/><rect class="cls-5" x="71.11" y="607.11" width="4.26" height="4.27"/><rect class="cls-5" x="164.1" y="613.35" width="4.26" height="4.26"/><rect class="cls-5" x="159.27" y="607.11" width="4.26" height="4.27"/><rect class="cls-5" x="164.1" y="600.87" width="4.26" height="4.27"/><rect class="cls-5" x="173.76" y="613.35" width="4.27" height="4.26"/><rect class="cls-5" x="168.93" y="607.11" width="4.26" height="4.27"/><rect class="cls-5" x="173.76" y="600.87" width="4.27" height="4.27"/><rect class="cls-5" x="154.43" y="613.35" width="4.26" height="4.26"/><rect class="cls-5" x="154.43" y="600.87" width="4.26" height="4.27"/><rect class="cls-5" x="135.1" y="613.35" width="4.27" height="4.26"/><rect class="cls-5" x="130.28" y="607.11" width="4.26" height="4.27"/><rect class="cls-5" x="135.1" y="600.87" width="4.27" height="4.27"/><rect class="cls-5" x="149.6" y="607.11" width="4.26" height="4.27"/><rect class="cls-5" x="139.93" y="607.11" width="4.26" height="4.27"/><rect class="cls-5" x="144.77" y="600.87" width="4.26" height="4.27"/><rect class="cls-5" x="144.77" y="613.35" width="4.26" height="4.26"/><path class="cls-4" d="M793.42,596.71v-1a4.36,4.36,0,0,0-4.34-4.34H664.16a4.35,4.35,0,0,0-4.34,4.34v28.8a4.35,4.35,0,0,0,4.34,4.34H789.08a4.35,4.35,0,0,0,4.34-4.34V596.71Z"/><rect class="cls-5" x="693.22" y="607.11" width="27.34" height="4.27"/><rect class="cls-5" x="673.16" y="607.11" width="4.26" height="4.27"/><rect class="cls-5" x="766.14" y="613.35" width="4.26" height="4.26"/><rect class="cls-5" x="761.31" y="607.11" width="4.26" height="4.27"/><rect class="cls-5" x="766.14" y="600.87" width="4.26" height="4.27"/><rect class="cls-5" x="775.81" y="613.35" width="4.27" height="4.26"/><rect class="cls-5" x="770.98" y="607.11" width="4.26" height="4.27"/><rect class="cls-5" x="775.81" y="600.87" width="4.27" height="4.27"/><rect class="cls-5" x="756.48" y="613.35" width="4.26" height="4.26"/><rect class="cls-5" x="756.48" y="600.87" width="4.26" height="4.27"/><rect class="cls-5" x="737.15" y="613.35" width="4.27" height="4.26"/><rect class="cls-5" x="732.32" y="607.11" width="4.26" height="4.27"/><rect class="cls-5" x="737.15" y="600.87" width="4.27" height="4.27"/><rect class="cls-5" x="751.65" y="607.11" width="4.26" height="4.27"/><rect class="cls-5" x="741.98" y="607.11" width="4.26" height="4.27"/><rect class="cls-5" x="746.82" y="600.87" width="4.26" height="4.27"/><rect class="cls-5" x="746.82" y="613.35" width="4.26" height="4.26"/><path class="cls-4" d="M1062.69,596.71v-1a4.36,4.36,0,0,0-4.34-4.34H933.42a4.35,4.35,0,0,0-4.34,4.34v28.8a4.35,4.35,0,0,0,4.34,4.34h124.93a4.35,4.35,0,0,0,4.34-4.34V596.71Z"/><rect class="cls-5" x="962.48" y="607.11" width="27.34" height="4.27"/><rect class="cls-5" x="942.43" y="607.11" width="4.26" height="4.27"/><rect class="cls-5" x="1035.41" y="613.35" width="4.26" height="4.26"/><rect class="cls-5" x="1030.58" y="607.11" width="4.26" height="4.27"/><rect class="cls-5" x="1035.41" y="600.87" width="4.26" height="4.27"/><rect class="cls-5" x="1045.07" y="613.35" width="4.27" height="4.26"/><rect class="cls-5" x="1040.24" y="607.11" width="4.26" height="4.27"/><rect class="cls-5" x="1045.07" y="600.87" width="4.27" height="4.27"/><rect class="cls-5" x="1025.75" y="613.35" width="4.26" height="4.26"/><rect class="cls-5" x="1025.75" y="600.87" width="4.26" height="4.27"/><rect class="cls-5" x="1006.41" y="613.35" width="4.27" height="4.26"/><rect class="cls-5" x="1001.59" y="607.11" width="4.26" height="4.27"/><rect class="cls-5" x="1006.41" y="600.87" width="4.27" height="4.27"/><rect class="cls-5" x="1020.91" y="607.11" width="4.26" height="4.27"/><rect class="cls-5" x="1011.25" y="607.11" width="4.26" height="4.27"/><rect class="cls-5" x="1016.08" y="600.87" width="4.26" height="4.27"/><rect class="cls-5" x="1016.08" y="613.35" width="4.26" height="4.26"/><path class="cls-6" d="M365.76,311.62H361c-2.65,0-4.81-1.87-4.81-4.16V282.88c0-2.29,2.16-4.16,4.81-4.16h4.72v2H361c-1.52,0-2.81,1-2.81,2.16v24.59c0,1.17,1.29,2.16,2.81,2.16h4.72Z"/><path class="cls-6" d="M537.63,311.62h-4.3v-2h4.3c1.52,0,2.81-1,2.81-2.16V282.88c0-1.17-1.29-2.16-2.81-2.16h-4.3v-2h4.3c2.65,0,4.81,1.87,4.81,4.16v24.59C542.44,309.76,540.28,311.62,537.63,311.62Z"/><path class="cls-6" d="M527.47,319.72H370.89a6,6,0,0,1-6-6V276.93a6,6,0,0,1,6-6H527.47a6,6,0,0,1,6,6v36.76A6,6,0,0,1,527.47,319.72ZM370.89,272.9a4,4,0,0,0-4,4v36.76a4,4,0,0,0,4,4H527.47a4,4,0,0,0,4-4V276.93a4,4,0,0,0-4-4Z"/><rect class="cls-6" x="402.88" y="303.26" width="20.96" height="2"/><rect class="cls-6" x="432.36" y="303.26" width="20.96" height="2"/><rect class="cls-6" x="461.83" y="303.26" width="20.96" height="2"/><rect class="cls-6" x="491.3" y="303.26" width="20.96" height="2"/><path class="cls-6" d="M383.56,288.84a2,2,0,1,1,2-2A2,2,0,0,1,383.56,288.84Zm0-2,0,0,1,0Z"/><path class="cls-6" d="M383.56,297.35a2,2,0,1,1,2-2A2,2,0,0,1,383.56,297.35Zm0-2,0,0,1,0Z"/><path class="cls-6" d="M383.56,305.87a2,2,0,1,1,2-2A2,2,0,0,1,383.56,305.87Zm0-2,0,0,1,0Z"/><path class="cls-6" d="M424.69,297.4H402V284.92h22.64Zm-20.64-2h18.64v-8.48H404Z"/><path class="cls-6" d="M454.16,297.4H431.51V284.92h22.64Zm-20.64-2h18.64v-8.48H433.51Z"/><path class="cls-6" d="M483.63,297.4H461V284.92h22.64Zm-20.64-2h18.64v-8.48H463Z"/><path class="cls-6" d="M513.11,297.4H490.46V284.92h22.64Zm-20.64-2h18.64v-8.48H492.46Z"/><path class="cls-7" d="M96.52,75.85H95.07V65.19h1.45Z"/><path class="cls-7" d="M107.31,75.85h-1.44l-5.13-8.25h0v8.23H99.24V65.19h1.44l5.13,8.23h0V65.19h1.44Z"/><path class="cls-7" d="M117,66.32h-3.43v9.53h-1.44V66.32h-3.42V65.19H117Z"/><path class="cls-7" d="M124.85,70.91H120v3.81h5.63v1.14h-7.08V65.19h7v1.14H120v3.45h4.88Z"/><path class="cls-7" d="M128.73,71.23v4.62h-1.44V65.2h3.86a4.05,4.05,0,0,1,2.67.78,2.78,2.78,0,0,1,.92,2.26,2.41,2.41,0,0,1-.43,1.43,2.9,2.9,0,0,1-1.25,1,2.18,2.18,0,0,1,1.26.93,3,3,0,0,1,.38,1.59v1a3.3,3.3,0,0,0,.11.89,1.32,1.32,0,0,0,.38.64v.18h-1.49a1.19,1.19,0,0,1-.37-.73,6.05,6.05,0,0,1-.08-1v-1a1.93,1.93,0,0,0-.51-1.39,1.79,1.79,0,0,0-1.36-.53Zm0-1.14H131a2.68,2.68,0,0,0,1.76-.46,1.77,1.77,0,0,0,.54-1.41,1.82,1.82,0,0,0-.52-1.39,2.31,2.31,0,0,0-1.63-.49h-2.42Z"/><path class="cls-7" d="M145.29,75.85h-1.44l-5.13-8.25h0v8.23h-1.44V65.19h1.44l5.13,8.23h0V65.19h1.44Z"/><path class="cls-7" d="M154.25,70.91h-4.88v3.81H155v1.14h-7.08V65.19h7v1.14h-5.55v3.45h4.88Z"/><path class="cls-7" d="M164.05,66.32h-3.43v9.53h-1.44V66.32h-3.42V65.19h8.29Z"/><path class="cls-8" d="M159,90.37H95.33A25.33,25.33,0,0,1,86.51,41.3a17.3,17.3,0,0,1-1.39-6.81,17.52,17.52,0,0,1,25.57-15.6,33,33,0,0,1,61.77,16.3c0,.2,0,.4,0,.6A28.94,28.94,0,0,1,159,90.37ZM102.67,18.93A15.57,15.57,0,0,0,87.12,34.49a15.39,15.39,0,0,0,1.65,6.95l.52,1-1.11.36a23.33,23.33,0,0,0,7.14,45.54H159A26.94,26.94,0,0,0,171,37.28l-.58-.29,0-.65c0-.38,0-.77,0-1.16A31,31,0,0,0,112,20.72l-.49.93-.9-.54A15.51,15.51,0,0,0,102.67,18.93Z"/><polygon class="cls-9" points="163.11 425.89 163.11 423.89 468.61 423.85 468.68 368.16 470.68 368.16 470.61 425.85 163.11 425.89"/><polygon class="cls-9" points="169.74 433.07 171.1 431.6 163.88 424.89 171.1 418.18 169.74 416.71 160.94 424.89 169.74 433.07"/><rect class="cls-10" x="125.05" y="178.26" width="2" height="15.37"/><polygon class="cls-10" points="126.05 195.74 120.14 189.83 121.56 188.41 126.05 192.91 130.54 188.41 131.96 189.83 126.05 195.74"/><rect class="cls-10" x="125.05" y="151.37" width="2" height="15.32"/><polygon class="cls-10" points="121.56 156.53 120.14 155.11 126.05 149.21 131.96 155.11 130.54 156.53 126.05 152.04 121.56 156.53"/><rect class="cls-10" x="104.21" y="172.2" width="16.06" height="2"/><polygon class="cls-10" points="115.79 179.1 114.37 177.69 118.86 173.19 114.37 168.7 115.79 167.29 121.69 173.19 115.79 179.1"/><rect class="cls-10" x="131.89" y="172.2" width="16.06" height="2"/><polygon class="cls-10" points="136.38 179.1 130.48 173.19 136.38 167.29 137.8 168.7 133.3 173.19 137.8 177.69 136.38 179.1"/><path class="cls-10" d="M126.05,202a29.73,29.73,0,1,1,29.73-29.73A29.76,29.76,0,0,1,126.05,202Zm0-57.46a27.73,27.73,0,1,0,27.73,27.73A27.76,27.76,0,0,0,126.05,144.57Z"/><path class="cls-11" d="M126.81,379.48h-2v-2.63h2Zm0-6.63h-2v-4h2Zm0-8h-2v-4h2Zm0-8h-2v-4h2Zm0-8h-2v-4h2Zm0-8h-2v-4h2Zm0-8h-2v-4h2Zm0-8h-2v-4h2Zm0-8h-2v-4h2Zm0-8h-2v-4h2Zm0-8h-2v-4h2Zm0-8h-2v-4h2Zm0-8h-2v-4h2Zm0-8h-2v-4h2Zm0-8h-2v-4h2Zm0-8h-2v-4h2Zm0-8h-2v-4h2Zm0-8h-2v-4h2Zm0-8h-2v-4h2Zm0-8h-2v-4h2Zm0-8h-2v-4h2Zm0-8h-2v-4h2Z"/><rect class="cls-10" x="125.48" y="429.53" width="2" height="15.37"/><polygon class="cls-10" points="126.48 447.01 120.57 441.1 121.98 439.69 126.48 444.18 130.97 439.69 132.38 441.1 126.48 447.01"/><rect class="cls-10" x="125.48" y="402.64" width="2" height="15.32"/><polygon class="cls-10" points="130.97 407.8 126.48 403.31 121.98 407.8 120.57 406.39 126.48 400.48 132.38 406.39 130.97 407.8"/><rect class="cls-10" x="104.64" y="423.47" width="16.06" height="2"/><polygon class="cls-10" points="116.21 430.37 114.8 428.96 119.29 424.47 114.8 419.98 116.21 418.56 122.12 424.47 116.21 430.37"/><rect class="cls-10" x="132.32" y="423.47" width="16.06" height="2"/><polygon class="cls-10" points="136.81 430.37 130.9 424.47 136.81 418.56 138.22 419.98 133.73 424.47 138.22 428.96 136.81 430.37"/><path class="cls-10" d="M126.48,453.3a29.73,29.73,0,1,1,29.73-29.73A29.76,29.76,0,0,1,126.48,453.3Zm0-57.46a27.73,27.73,0,1,0,27.73,27.73A27.76,27.76,0,0,0,126.48,395.84Z"/><path class="cls-6" d="M604.4,311.26h-4.72c-2.65,0-4.81-1.87-4.81-4.16V282.52c0-2.29,2.16-4.16,4.81-4.16h4.72v2h-4.72c-1.52,0-2.81,1-2.81,2.16v24.59c0,1.17,1.29,2.16,2.81,2.16h4.72Z"/><path class="cls-6" d="M776.27,311.26H772v-2h4.3c1.52,0,2.81-1,2.81-2.16V282.52c0-1.17-1.29-2.16-2.81-2.16H772v-2h4.3c2.65,0,4.81,1.87,4.81,4.16v24.59C781.08,309.4,778.92,311.26,776.27,311.26Z"/><path class="cls-6" d="M766.11,319.36H609.52a6,6,0,0,1-6-6V276.57a6,6,0,0,1,6-6H766.11a6,6,0,0,1,6,6v36.76A6,6,0,0,1,766.11,319.36ZM609.52,272.54a4,4,0,0,0-4,4v36.76a4,4,0,0,0,4,4H766.11a4,4,0,0,0,4-4V276.57a4,4,0,0,0-4-4Z"/><rect class="cls-6" x="641.52" y="302.9" width="20.96" height="2"/><rect class="cls-6" x="670.99" y="302.9" width="20.96" height="2"/><rect class="cls-6" x="700.47" y="302.9" width="20.96" height="2"/><rect class="cls-6" x="729.94" y="302.9" width="20.96" height="2"/><path class="cls-6" d="M622.2,288.48a2,2,0,1,1,2-2A2,2,0,0,1,622.2,288.48Zm0-2a0,0,0,0,0,0,0l1,0Z"/><path class="cls-6" d="M622.2,297a2,2,0,1,1,2-2A2,2,0,0,1,622.2,297Zm0-2a0,0,0,0,0,0,0l1,0Z"/><path class="cls-6" d="M622.2,305.51a2,2,0,1,1,2-2A2,2,0,0,1,622.2,305.51Zm0-2,0,0,1,0Z"/><path class="cls-6" d="M663.32,297H640.68V284.56h22.64Zm-20.64-2h18.64v-8.48H642.68Z"/><path class="cls-6" d="M692.8,297H670.15V284.56H692.8Zm-20.64-2H690.8v-8.48H672.15Z"/><path class="cls-6" d="M722.27,297H699.63V284.56h22.64Zm-20.64-2h18.64v-8.48H701.63Z"/><path class="cls-6" d="M751.74,297H729.1V284.56h22.64Zm-20.64-2h18.64v-8.48H731.1Z"/><path class="cls-6" d="M841.73,310.35H837c-2.65,0-4.81-1.87-4.81-4.16V281.61c0-2.29,2.16-4.16,4.81-4.16h4.72v2H837c-1.52,0-2.81,1-2.81,2.16V306.2c0,1.17,1.29,2.16,2.81,2.16h4.72Z"/><path class="cls-6" d="M1013.6,310.35h-4.3v-2h4.3c1.52,0,2.81-1,2.81-2.16V281.61c0-1.17-1.29-2.16-2.81-2.16h-4.3v-2h4.3c2.65,0,4.81,1.86,4.81,4.16V306.2C1018.41,308.49,1016.25,310.35,1013.6,310.35Z"/><path class="cls-6" d="M1003.44,318.45H846.85a6,6,0,0,1-6-6V275.66a6,6,0,0,1,6-6h156.58a6,6,0,0,1,6,6v36.76A6,6,0,0,1,1003.44,318.45ZM846.85,271.63a4,4,0,0,0-4,4v36.76a4,4,0,0,0,4,4h156.58a4,4,0,0,0,4-4V275.66a4,4,0,0,0-4-4Z"/><rect class="cls-6" x="878.85" y="301.99" width="20.96" height="2"/><rect class="cls-6" x="908.33" y="301.99" width="20.96" height="2"/><rect class="cls-6" x="937.8" y="301.99" width="20.96" height="2"/><rect class="cls-6" x="967.27" y="301.99" width="20.96" height="2"/><path class="cls-6" d="M859.53,287.57a2,2,0,1,1,2-2A2,2,0,0,1,859.53,287.57Zm0-2,0,0,1,0Z"/><path class="cls-6" d="M859.53,296.08a2,2,0,1,1,2-2A2,2,0,0,1,859.53,296.08Zm0-2,0,0,1,0Z"/><path class="cls-6" d="M859.53,304.6a2,2,0,1,1,2-2A2,2,0,0,1,859.53,304.6Zm0-2,0,0,1,0Z"/><path class="cls-6" d="M900.65,296.13H878V283.65h22.64Zm-20.64-2h18.64v-8.48H880Z"/><path class="cls-6" d="M930.13,296.13H907.48V283.65h22.64Zm-20.64-2h18.64v-8.48H909.48Z"/><path class="cls-6" d="M959.6,296.13H937V283.65H959.6Zm-20.64-2H957.6v-8.48H939Z"/><path class="cls-6" d="M989.08,296.13H966.43V283.65h22.64Zm-20.64-2h18.64v-8.48H968.43Z"/><path class="cls-3" d="M409,333.3h-3.43v9.53h-1.44V333.3h-3.42v-1.13H409Z"/><path class="cls-3" d="M418.64,342.82H417.2v-4.71H412v4.71h-1.44V332.16H412V337h5.18v-4.82h1.44Z"/><path class="cls-3" d="M429.07,332.16v7.23a3.24,3.24,0,0,1-1.13,2.67,4.53,4.53,0,0,1-3,.92,4.27,4.27,0,0,1-2.85-.93,3.29,3.29,0,0,1-1.1-2.66v-7.23h1.44v7.22a2.35,2.35,0,0,0,.69,1.83,2.6,2.6,0,0,0,1.82.63,2.84,2.84,0,0,0,1.92-.63,2.28,2.28,0,0,0,.73-1.83v-7.22Z"/><path class="cls-3" d="M439.49,342.82H438l-5.13-8.25h0v8.23h-1.44V332.16h1.44l5.13,8.23h0v-8.22h1.44Z"/><path class="cls-3" d="M442.13,342.82V332.16h3.27a4.38,4.38,0,0,1,4.63,4.61v1.46a4.37,4.37,0,0,1-4.63,4.6Zm1.44-9.53v8.39h1.83a2.94,2.94,0,0,0,2.33-1,3.65,3.65,0,0,0,.85-2.5v-1.47a3.63,3.63,0,0,0-.85-2.48,2.94,2.94,0,0,0-2.33-1Z"/><path class="cls-3" d="M458.34,337.88h-4.89v3.81h5.63v1.13H452V332.16h7v1.13h-5.55v3.45h4.89Z"/><path class="cls-3" d="M462.22,338.2v4.62h-1.44V332.17h3.86a4.06,4.06,0,0,1,2.67.78,2.78,2.78,0,0,1,.92,2.26,2.41,2.41,0,0,1-.43,1.43,2.9,2.9,0,0,1-1.25,1,2.18,2.18,0,0,1,1.26.93,3,3,0,0,1,.38,1.59v1a3.34,3.34,0,0,0,.11.89,1.34,1.34,0,0,0,.38.64v.18h-1.49a1.19,1.19,0,0,1-.37-.73,6.05,6.05,0,0,1-.08-1v-1a1.93,1.93,0,0,0-.51-1.39,1.79,1.79,0,0,0-1.35-.53Zm0-1.14h2.27a2.68,2.68,0,0,0,1.76-.46,1.77,1.77,0,0,0,.54-1.42,1.82,1.82,0,0,0-.52-1.39,2.31,2.31,0,0,0-1.63-.49h-2.42Z"/><path class="cls-3" d="M481.66,333.3h-3.43v9.53h-1.44V333.3h-3.42v-1.13h8.29Z"/><path class="cls-3" d="M484.67,338.55v4.28h-1.44V332.16h4.08A3.75,3.75,0,0,1,490,333a3.32,3.32,0,0,1,0,4.64,3.77,3.77,0,0,1-2.65.87Zm0-1.13h2.64a2.06,2.06,0,1,0,0-4.12h-2.64Z"/><path class="cls-3" d="M498.65,340.14a1.57,1.57,0,0,0-.55-1.22,4.64,4.64,0,0,0-1.95-.83,6.46,6.46,0,0,1-2.64-1.19,2.46,2.46,0,0,1-.95-2,2.59,2.59,0,0,1,1-2.08,4,4,0,0,1,2.65-.84,3.94,3.94,0,0,1,2.79,1,2.83,2.83,0,0,1,1,2.23v0h-1.38a2,2,0,0,0-.62-1.52,3,3,0,0,0-3.43-.09,1.58,1.58,0,0,0-.57,1.27,1.4,1.4,0,0,0,.62,1.16,5.92,5.92,0,0,0,2,.82,5.77,5.77,0,0,1,2.56,1.23,2.63,2.63,0,0,1,.88,2A2.46,2.46,0,0,1,499,342.2a4.5,4.5,0,0,1-2.75.78,4.77,4.77,0,0,1-2.82-.87,2.62,2.62,0,0,1-1.19-2.32v0h1.38a1.79,1.79,0,0,0,.75,1.56,3.15,3.15,0,0,0,1.87.53,2.91,2.91,0,0,0,1.73-.46A1.45,1.45,0,0,0,498.65,340.14Z"/><path class="cls-3" d="M650.21,333.08h-3.43v9.53h-1.44v-9.53h-3.42v-1.13h8.29Z"/><path class="cls-3" d="M659.84,342.61h-1.44V337.9h-5.18v4.71h-1.44V331.95h1.44v4.82h5.18v-4.82h1.44Z"/><path class="cls-3" d="M670.27,331.95v7.23a3.24,3.24,0,0,1-1.13,2.67,4.53,4.53,0,0,1-3,.92,4.27,4.27,0,0,1-2.85-.93,3.29,3.29,0,0,1-1.1-2.66v-7.23h1.44v7.22a2.35,2.35,0,0,0,.69,1.83,2.6,2.6,0,0,0,1.82.63,2.84,2.84,0,0,0,1.92-.63,2.28,2.28,0,0,0,.73-1.83v-7.22Z"/><path class="cls-3" d="M680.69,342.61h-1.44l-5.13-8.25h0v8.23h-1.44V331.95h1.44l5.13,8.23h0v-8.22h1.44Z"/><path class="cls-3" d="M683.32,342.61V331.95h3.27a4.38,4.38,0,0,1,4.63,4.61V338a4.37,4.37,0,0,1-4.63,4.6Zm1.44-9.53v8.39h1.83a2.94,2.94,0,0,0,2.33-1,3.65,3.65,0,0,0,.85-2.5v-1.47a3.63,3.63,0,0,0-.85-2.48,2.94,2.94,0,0,0-2.33-1Z"/><path class="cls-3" d="M699.53,337.67h-4.88v3.81h5.63v1.13h-7.08V331.95h7v1.13h-5.55v3.45h4.88Z"/><path class="cls-3" d="M703.42,338v4.62H702V332h3.86a4.06,4.06,0,0,1,2.67.78,2.78,2.78,0,0,1,.92,2.26,2.42,2.42,0,0,1-.43,1.43,2.9,2.9,0,0,1-1.25,1,2.18,2.18,0,0,1,1.26.93,3,3,0,0,1,.38,1.59v1a3.34,3.34,0,0,0,.11.89,1.34,1.34,0,0,0,.38.64v.18H708.4a1.19,1.19,0,0,1-.37-.73,6,6,0,0,1-.08-1v-1a1.93,1.93,0,0,0-.5-1.39,1.79,1.79,0,0,0-1.36-.53Zm0-1.14h2.27a2.68,2.68,0,0,0,1.76-.46A1.77,1.77,0,0,0,708,335a1.82,1.82,0,0,0-.52-1.39,2.31,2.31,0,0,0-1.63-.49h-2.42Z"/><path class="cls-3" d="M722.86,333.08h-3.43v9.53H718v-9.53h-3.42v-1.13h8.29Z"/><path class="cls-3" d="M725.87,338.34v4.28h-1.44V331.95h4.08a3.75,3.75,0,0,1,2.65.88,3.32,3.32,0,0,1,0,4.64,3.77,3.77,0,0,1-2.65.87Zm0-1.13h2.64a2.06,2.06,0,1,0,0-4.12h-2.64Z"/><path class="cls-3" d="M739.85,339.93a1.57,1.57,0,0,0-.55-1.22,4.65,4.65,0,0,0-1.95-.83,6.47,6.47,0,0,1-2.64-1.19,2.46,2.46,0,0,1-.95-2,2.59,2.59,0,0,1,1-2.08,4,4,0,0,1,2.65-.84,3.94,3.94,0,0,1,2.79,1,2.83,2.83,0,0,1,1,2.23v0h-1.38a2,2,0,0,0-.62-1.52,3,3,0,0,0-3.43-.09,1.58,1.58,0,0,0-.58,1.27,1.4,1.4,0,0,0,.62,1.16,5.94,5.94,0,0,0,2,.82,5.77,5.77,0,0,1,2.56,1.23,2.63,2.63,0,0,1,.88,2,2.46,2.46,0,0,1-1.05,2.07,4.5,4.5,0,0,1-2.75.78,4.77,4.77,0,0,1-2.82-.87,2.61,2.61,0,0,1-1.19-2.32v0h1.38a1.79,1.79,0,0,0,.75,1.56,3.15,3.15,0,0,0,1.87.53,2.91,2.91,0,0,0,1.73-.46A1.46,1.46,0,0,0,739.85,339.93Z"/><path class="cls-3" d="M888.46,333.08H885v9.53h-1.44v-9.53h-3.42v-1.13h8.29Z"/><path class="cls-3" d="M898.09,342.61h-1.44V337.9h-5.18v4.71H890V331.95h1.44v4.82h5.18v-4.82h1.44Z"/><path class="cls-3" d="M908.52,331.95v7.23a3.24,3.24,0,0,1-1.13,2.67,4.53,4.53,0,0,1-3,.92,4.27,4.27,0,0,1-2.85-.93,3.29,3.29,0,0,1-1.09-2.66v-7.23h1.44v7.22a2.35,2.35,0,0,0,.69,1.83,2.6,2.6,0,0,0,1.82.63,2.84,2.84,0,0,0,1.92-.63,2.28,2.28,0,0,0,.73-1.83v-7.22Z"/><path class="cls-3" d="M918.95,342.61H917.5l-5.13-8.25h0v8.23h-1.44V331.95h1.44l5.13,8.23h0v-8.22h1.44Z"/><path class="cls-3" d="M921.58,342.61V331.95h3.27a4.38,4.38,0,0,1,4.63,4.61V338a4.37,4.37,0,0,1-4.63,4.6Zm1.44-9.53v8.39h1.83a2.94,2.94,0,0,0,2.33-1A3.65,3.65,0,0,0,928,338v-1.47a3.63,3.63,0,0,0-.85-2.48,2.94,2.94,0,0,0-2.33-1Z"/><path class="cls-3" d="M937.79,337.67h-4.88v3.81h5.63v1.13h-7.08V331.95h7v1.13h-5.55v3.45h4.88Z"/><path class="cls-3" d="M941.67,338v4.62h-1.44V332h3.86a4.06,4.06,0,0,1,2.67.78,2.78,2.78,0,0,1,.92,2.26,2.41,2.41,0,0,1-.43,1.43,2.9,2.9,0,0,1-1.25,1,2.18,2.18,0,0,1,1.26.93,3,3,0,0,1,.38,1.59v1a3.34,3.34,0,0,0,.11.89,1.34,1.34,0,0,0,.38.64v.18h-1.49a1.19,1.19,0,0,1-.37-.73,6,6,0,0,1-.08-1v-1a1.93,1.93,0,0,0-.5-1.39,1.79,1.79,0,0,0-1.36-.53Zm0-1.14h2.27a2.68,2.68,0,0,0,1.76-.46,1.77,1.77,0,0,0,.54-1.42,1.82,1.82,0,0,0-.52-1.39,2.32,2.32,0,0,0-1.63-.49h-2.42Z"/><path class="cls-3" d="M961.12,333.08h-3.43v9.53h-1.44v-9.53h-3.42v-1.13h8.29Z"/><path class="cls-3" d="M964.13,338.34v4.28h-1.44V331.95h4.08a3.75,3.75,0,0,1,2.65.88,3.32,3.32,0,0,1,0,4.64,3.77,3.77,0,0,1-2.65.87Zm0-1.13h2.64a2.06,2.06,0,1,0,0-4.12h-2.64Z"/><path class="cls-3" d="M978.1,339.93a1.57,1.57,0,0,0-.55-1.22,4.64,4.64,0,0,0-1.95-.83,6.45,6.45,0,0,1-2.64-1.19,2.46,2.46,0,0,1-.95-2,2.59,2.59,0,0,1,1-2.08,4,4,0,0,1,2.65-.84,3.94,3.94,0,0,1,2.79,1,2.83,2.83,0,0,1,1,2.23v0h-1.38a2,2,0,0,0-.62-1.52,3,3,0,0,0-3.43-.09,1.58,1.58,0,0,0-.58,1.27,1.4,1.4,0,0,0,.62,1.16,5.92,5.92,0,0,0,2,.82,5.77,5.77,0,0,1,2.56,1.23,2.63,2.63,0,0,1,.88,2,2.46,2.46,0,0,1-1.05,2.07,4.5,4.5,0,0,1-2.75.78,4.77,4.77,0,0,1-2.82-.87,2.62,2.62,0,0,1-1.19-2.32v0h1.38a1.79,1.79,0,0,0,.75,1.56,3.15,3.15,0,0,0,1.87.53,2.91,2.91,0,0,0,1.73-.46A1.45,1.45,0,0,0,978.1,339.93Z"/><circle class="cls-6" cx="1093.22" cy="288.03" r="36.29"/><path class="cls-12" d="M1093,309.71a21.81,21.81,0,0,1-21-16,1,1,0,0,1,1.93-.52,19.69,19.69,0,0,0,38.64-3.71,1,1,0,0,1,1.07-.93,1,1,0,0,1,.93,1.07,21.67,21.67,0,0,1-21.6,20.11Z"/><path class="cls-12" d="M1103.36,271.32l-.58-.35,1-1.73.64.38Z"/><path class="cls-12" d="M1111.92,282.72q-.17-.59-.36-1.16l1.89-.66q.22.63.4,1.27Zm-1.3-3.4q-.27-.55-.57-1.07l1.73-1q.33.58.63,1.18Zm-1.91-3.1q-.36-.49-.76-.95l1.52-1.3q.44.51.84,1Zm-2.45-2.69q-.45-.41-.92-.79l1.26-1.56q.52.42,1,.87Z"/><path class="cls-12" d="M1112.51,285.77c0-.23-.06-.45-.09-.67l2-.29q.05.36.1.73Z"/><path class="cls-12" d="M1072.3,288.06h0a1,1,0,0,1-1-1,21.69,21.69,0,0,1,32.48-17.77,1,1,0,0,1-1,1.73,19.69,19.69,0,0,0-29.48,16.13A1,1,0,0,1,1072.3,288.06Z"/><path class="cls-12" d="M1072.3,289.94l-4.55-4.1a1,1,0,0,1,1.34-1.49l3.37,3,3.84-2.68a1,1,0,0,1,1.14,1.64Z"/><path class="cls-7" d="M1068.48,343.27q-.07-.36-.11-.63a4.54,4.54,0,0,1,0-.55,3.38,3.38,0,0,1-1.05,1,2.69,2.69,0,0,1-1.4.38,2.59,2.59,0,0,1-1.89-.63,2.33,2.33,0,0,1-.65-1.75,2,2,0,0,1,.92-1.78,4.3,4.3,0,0,1,2.49-.64h1.57v-.78a1.45,1.45,0,0,0-.42-1.1,1.67,1.67,0,0,0-1.2-.41,1.74,1.74,0,0,0-1.13.35,1.07,1.07,0,0,0-.44.85h-1.38v0a1.92,1.92,0,0,1,.82-1.58,3.35,3.35,0,0,1,2.22-.72,3.27,3.27,0,0,1,2.17.68,2.43,2.43,0,0,1,.82,2v3.82a7.43,7.43,0,0,0,0,.82,4.22,4.22,0,0,0,.16.78Zm-2.4-1.06a2.58,2.58,0,0,0,1.41-.4,1.91,1.91,0,0,0,.82-.92V339.6h-1.62a2.1,2.1,0,0,0-1.39.44,1.31,1.31,0,0,0-.52,1,1.08,1.08,0,0,0,.33.83A1.38,1.38,0,0,0,1066.08,342.2Z"/><path class="cls-7" d="M1079.85,341.85a3.41,3.41,0,0,1-1.32,1.08,5.26,5.26,0,0,1-2.44.49,4.33,4.33,0,0,1-3.16-1.22,4.23,4.23,0,0,1-1.25-3.16v-2.2a4.4,4.4,0,0,1,1.16-3.16,4,4,0,0,1,3-1.22,4.27,4.27,0,0,1,2.88.9,3,3,0,0,1,1.07,2.32v0h-1.38a2.24,2.24,0,0,0-.71-1.53,2.61,2.61,0,0,0-1.85-.6,2.42,2.42,0,0,0-2,.92,3.55,3.55,0,0,0-.75,2.32V339a3.34,3.34,0,0,0,.83,2.34,2.74,2.74,0,0,0,2.12.92,3.89,3.89,0,0,0,1.49-.24,2.08,2.08,0,0,0,.83-.55v-2.42h-2.34v-1.13h3.78Z"/><path class="cls-7" d="M1088.13,340.52h-4.47l-1,2.75h-1.47l4.12-10.66h1.24l4.06,10.66h-1.47Zm-4-1.21h3.59l-1.76-4.86h0Z"/><path class="cls-7" d="M1093.5,342.13h5v1.13h-6.49V332.6h1.44Z"/><path class="cls-7" d="M1105.94,340.52h-4.47l-1,2.75H1099l4.12-10.66h1.24l4.06,10.66h-1.47Zm-4-1.21h3.59l-1.76-4.86h0Z"/><path class="cls-7" d="M1113.32,336.76l2.49-4.16h1.74l-3.38,5.29,3.46,5.38h-1.72l-2.56-4.23-2.56,4.23H1109l3.46-5.38-3.38-5.29h1.73Z"/><path class="cls-7" d="M1122.62,338l2.78-5.42H1127l-3.74,6.91v3.75h-1.44v-3.85l-3.68-6.82h1.65Z"/><polygon class="cls-13" points="311.52 292.81 130.8 292.77 130.88 209.77 132.88 209.77 132.81 290.77 311.52 290.81 311.52 292.81"/><polygon class="cls-13" points="304.89 283.63 303.53 285.1 310.75 291.81 303.52 298.52 304.89 299.99 313.69 291.81 304.89 283.63"/><rect class="cls-11" x="125.15" y="94.77" width="2" height="41.02"/><rect class="cls-10" x="688.61" y="178.99" width="2" height="15.37"/><polygon class="cls-10" points="689.61 196.47 683.7 190.56 685.12 189.15 689.61 193.64 694.1 189.15 695.52 190.56 689.61 196.47"/><rect class="cls-10" x="688.61" y="152.11" width="2" height="15.32"/><polygon class="cls-10" points="694.1 157.26 689.61 152.77 685.12 157.26 683.7 155.85 689.61 149.94 695.52 155.85 694.1 157.26"/><rect class="cls-10" x="667.77" y="172.93" width="16.06" height="2"/><polygon class="cls-10" points="679.35 179.84 677.93 178.42 682.42 173.93 677.93 169.44 679.35 168.03 685.25 173.93 679.35 179.84"/><rect class="cls-10" x="695.45" y="172.93" width="16.06" height="2"/><polygon class="cls-10" points="699.94 179.84 694.03 173.93 699.94 168.03 701.36 169.44 696.86 173.93 701.36 178.42 699.94 179.84"/><path class="cls-10" d="M689.61,202.77A29.73,29.73,0,1,1,719.34,173,29.77,29.77,0,0,1,689.61,202.77Zm0-57.46A27.73,27.73,0,1,0,717.34,173,27.76,27.76,0,0,0,689.61,145.31Z"/><rect class="cls-10" x="926.35" y="179.29" width="2" height="15.37"/><polygon class="cls-10" points="927.35 196.76 921.45 190.86 922.86 189.44 927.35 193.94 931.85 189.44 933.26 190.86 927.35 196.76"/><rect class="cls-10" x="926.35" y="152.4" width="2" height="15.32"/><polygon class="cls-10" points="922.86 157.56 921.45 156.14 927.35 150.24 933.26 156.14 931.85 157.56 927.35 153.06 922.86 157.56"/><rect class="cls-10" x="905.52" y="173.22" width="16.06" height="2"/><polygon class="cls-10" points="917.09 180.13 915.68 178.72 920.17 174.22 915.68 169.73 917.09 168.32 923 174.22 917.09 180.13"/><rect class="cls-10" x="933.19" y="173.22" width="16.06" height="2"/><polygon class="cls-10" points="937.69 180.13 931.78 174.22 937.69 168.32 939.1 169.73 934.61 174.22 939.1 178.72 937.69 180.13"/><path class="cls-10" d="M927.35,203.06a29.73,29.73,0,1,1,29.73-29.73A29.77,29.77,0,0,1,927.35,203.06Zm0-57.46a27.73,27.73,0,1,0,27.73,27.73A27.76,27.76,0,0,0,927.35,145.6Z"/><path class="cls-7" d="M167.69,281.63V271H171a4.38,4.38,0,0,1,4.63,4.61V277a4.37,4.37,0,0,1-4.63,4.6Zm1.44-9.53v8.39H171a2.94,2.94,0,0,0,2.33-1,3.65,3.65,0,0,0,.85-2.5v-1.47a3.63,3.63,0,0,0-.85-2.48,2.94,2.94,0,0,0-2.33-1Z"/><path class="cls-7" d="M177.57,281.63V271h3.27a4.38,4.38,0,0,1,4.63,4.61V277a4.37,4.37,0,0,1-4.63,4.6ZM179,272.1v8.39h1.83a2.94,2.94,0,0,0,2.33-1A3.65,3.65,0,0,0,184,277v-1.47a3.63,3.63,0,0,0-.85-2.48,2.94,2.94,0,0,0-2.33-1Z"/><path class="cls-7" d="M186.84,277.6a4.37,4.37,0,0,1,1-2.9,3.53,3.53,0,0,1,5.19,0,4.35,4.35,0,0,1,1,2.9v.16a4.34,4.34,0,0,1-1,2.9,3.54,3.54,0,0,1-5.19,0,4.34,4.34,0,0,1-1-2.9Zm1.44.16a3.74,3.74,0,0,0,.53,2.08,1.92,1.92,0,0,0,3.15,0,3.73,3.73,0,0,0,.53-2.08v-.16a3.72,3.72,0,0,0-.54-2.07,1.76,1.76,0,0,0-1.58-.83,1.74,1.74,0,0,0-1.56.83,3.75,3.75,0,0,0-.53,2.07Z"/><path class="cls-7" d="M201.79,278.95a1.57,1.57,0,0,0-.55-1.22,4.64,4.64,0,0,0-1.95-.83,6.46,6.46,0,0,1-2.64-1.19,2.46,2.46,0,0,1-.95-2,2.59,2.59,0,0,1,1-2.08,4,4,0,0,1,2.65-.84,3.94,3.94,0,0,1,2.79,1,2.83,2.83,0,0,1,1,2.23v0h-1.38a2,2,0,0,0-.62-1.52,3,3,0,0,0-3.43-.09,1.58,1.58,0,0,0-.57,1.27,1.4,1.4,0,0,0,.62,1.16,5.92,5.92,0,0,0,2,.82,5.77,5.77,0,0,1,2.56,1.23,2.63,2.63,0,0,1,.88,2,2.46,2.46,0,0,1-1.05,2.07,4.5,4.5,0,0,1-2.75.78,4.77,4.77,0,0,1-2.82-.87,2.62,2.62,0,0,1-1.19-2.32v0h1.38a1.79,1.79,0,0,0,.75,1.56,3.15,3.15,0,0,0,1.87.53,2.91,2.91,0,0,0,1.73-.46A1.45,1.45,0,0,0,201.79,278.95Z"/><path class="cls-7" d="M216.28,272.1h-3.43v9.53h-1.44V272.1H208V271h8.29Z"/><path class="cls-7" d="M219.29,277v4.62h-1.44V271h3.86a4.06,4.06,0,0,1,2.67.78,2.78,2.78,0,0,1,.92,2.26,2.41,2.41,0,0,1-.43,1.43,2.9,2.9,0,0,1-1.25,1,2.18,2.18,0,0,1,1.26.93,3,3,0,0,1,.38,1.59v1a3.34,3.34,0,0,0,.11.89,1.34,1.34,0,0,0,.38.64v.18h-1.49a1.19,1.19,0,0,1-.37-.73,6.05,6.05,0,0,1-.08-1v-1a1.93,1.93,0,0,0-.51-1.39A1.79,1.79,0,0,0,222,277Zm0-1.14h2.27a2.68,2.68,0,0,0,1.76-.46,1.77,1.77,0,0,0,.54-1.42,1.82,1.82,0,0,0-.52-1.39,2.31,2.31,0,0,0-1.63-.49h-2.42Z"/><path class="cls-7" d="M233.57,278.89H229.1l-1,2.75h-1.47L230.74,271H232L236,281.63h-1.47Zm-4-1.21h3.59l-1.76-4.86h0Z"/><path class="cls-7" d="M243.81,276.92h-4.86v4.72H237.5V271h7.05v1.13h-5.61v3.68h4.86Z"/><path class="cls-7" d="M252.54,276.92h-4.86v4.72h-1.44V271h7.05v1.13h-5.61v3.68h4.86Z"/><path class="cls-7" d="M256.5,281.63H255V271h1.45Z"/><path class="cls-7" d="M266.75,278.21v0a3.22,3.22,0,0,1-1.05,2.52,4,4,0,0,1-2.86,1,3.76,3.76,0,0,1-2.95-1.28,4.71,4.71,0,0,1-1.14-3.25v-1.9a4.73,4.73,0,0,1,1.14-3.25,3.76,3.76,0,0,1,2.95-1.29,4.14,4.14,0,0,1,2.88,1,3.18,3.18,0,0,1,1,2.55v0h-1.38a2.38,2.38,0,0,0-.66-1.77,2.54,2.54,0,0,0-1.86-.65,2.27,2.27,0,0,0-1.93,1,4,4,0,0,0-.72,2.42v1.91a4,4,0,0,0,.72,2.43,2.27,2.27,0,0,0,1.93,1,2.54,2.54,0,0,0,1.86-.65,2.39,2.39,0,0,0,.66-1.79Z"/><path class="cls-7" d="M975.09,173.75h-4.88v3.81h5.63v1.13h-7.08V168h7v1.13h-5.55v3.45h4.88Z"/><path class="cls-7" d="M977.53,178.69V168h3.27a4.38,4.38,0,0,1,4.63,4.61v1.46a4.37,4.37,0,0,1-4.63,4.6Zm1.44-9.53v8.39h1.83a2.94,2.94,0,0,0,2.33-1,3.65,3.65,0,0,0,.85-2.5v-1.47a3.63,3.63,0,0,0-.85-2.48,2.94,2.94,0,0,0-2.33-1Z"/><path class="cls-7" d="M995.14,177.28a3.41,3.41,0,0,1-1.32,1.08,5.26,5.26,0,0,1-2.44.49,4.33,4.33,0,0,1-3.16-1.22,4.23,4.23,0,0,1-1.25-3.16v-2.2a4.4,4.4,0,0,1,1.17-3.16,4,4,0,0,1,3-1.22,4.27,4.27,0,0,1,2.88.9,3,3,0,0,1,1.07,2.32v0H993.7a2.23,2.23,0,0,0-.71-1.53,2.6,2.6,0,0,0-1.85-.6,2.42,2.42,0,0,0-2,.92,3.55,3.55,0,0,0-.75,2.32v2.21a3.34,3.34,0,0,0,.83,2.34,2.74,2.74,0,0,0,2.12.92,3.9,3.9,0,0,0,1.49-.24,2.08,2.08,0,0,0,.83-.55V174.5h-2.34v-1.13h3.78Z"/><path class="cls-7" d="M1004,173.75h-4.88v3.81h5.63v1.13h-7.08V168h7v1.13h-5.55v3.45H1004Z"/><path class="cls-7" d="M1011.58,174.07v4.62h-1.44V168H1014a4.05,4.05,0,0,1,2.67.78,2.78,2.78,0,0,1,.92,2.26,2.41,2.41,0,0,1-.43,1.43,2.9,2.9,0,0,1-1.25,1,2.18,2.18,0,0,1,1.26.93,3,3,0,0,1,.38,1.59v1a3.34,3.34,0,0,0,.11.89,1.34,1.34,0,0,0,.38.64v.18h-1.49a1.19,1.19,0,0,1-.37-.73,6.05,6.05,0,0,1-.08-1v-1a1.93,1.93,0,0,0-.51-1.39,1.79,1.79,0,0,0-1.35-.53Zm0-1.14h2.27a2.68,2.68,0,0,0,1.76-.46,1.77,1.77,0,0,0,.54-1.42,1.82,1.82,0,0,0-.52-1.39,2.31,2.31,0,0,0-1.63-.49h-2.42Z"/><path class="cls-7" d="M1028.14,174.31a4.55,4.55,0,0,1-1.21,3.25,4.12,4.12,0,0,1-3.15,1.29,3.9,3.9,0,0,1-3-1.29,4.65,4.65,0,0,1-1.17-3.25v-1.9a4.66,4.66,0,0,1,1.17-3.24,3.89,3.89,0,0,1,3-1.3,4.12,4.12,0,0,1,3.15,1.29,4.57,4.57,0,0,1,1.21,3.25Zm-1.44-1.91a3.6,3.6,0,0,0-.79-2.4,2.64,2.64,0,0,0-2.12-.94,2.44,2.44,0,0,0-2,.94,3.72,3.72,0,0,0-.75,2.4v1.91a3.74,3.74,0,0,0,.75,2.42,2.44,2.44,0,0,0,2,.94,2.64,2.64,0,0,0,2.13-.93,3.63,3.63,0,0,0,.79-2.42Z"/><path class="cls-7" d="M1038.09,168v7.23a3.24,3.24,0,0,1-1.13,2.67,4.53,4.53,0,0,1-3,.92,4.27,4.27,0,0,1-2.85-.93,3.29,3.29,0,0,1-1.1-2.66V168h1.44v7.22a2.35,2.35,0,0,0,.69,1.83,2.6,2.6,0,0,0,1.82.63,2.84,2.84,0,0,0,1.92-.63,2.28,2.28,0,0,0,.73-1.83V168Z"/><path class="cls-7" d="M1047.67,169.16h-3.43v9.53h-1.44v-9.53h-3.42V168h8.29Z"/><path class="cls-7" d="M1055.57,173.75h-4.89v3.81h5.63v1.13h-7.08V168h7v1.13h-5.55v3.45h4.89Z"/><path class="cls-7" d="M1059.45,174.07v4.62H1058V168h3.86a4.05,4.05,0,0,1,2.67.78,2.78,2.78,0,0,1,.92,2.26,2.41,2.41,0,0,1-.43,1.43,2.9,2.9,0,0,1-1.25,1,2.18,2.18,0,0,1,1.26.93,3,3,0,0,1,.38,1.59v1a3.34,3.34,0,0,0,.11.89,1.34,1.34,0,0,0,.38.64v.18h-1.49a1.19,1.19,0,0,1-.37-.73,6.05,6.05,0,0,1-.08-1v-1a1.93,1.93,0,0,0-.51-1.39,1.79,1.79,0,0,0-1.35-.53Zm0-1.14h2.27a2.68,2.68,0,0,0,1.76-.46,1.77,1.77,0,0,0,.54-1.42,1.82,1.82,0,0,0-.52-1.39,2.31,2.31,0,0,0-1.63-.49h-2.42Z"/><rect class="cls-10" x="728.04" y="430.12" width="2" height="15.37"/><polygon class="cls-10" points="729.04 447.6 723.14 441.69 724.55 440.28 729.04 444.77 733.54 440.28 734.95 441.69 729.04 447.6"/><rect class="cls-10" x="728.04" y="403.23" width="2" height="15.32"/><polygon class="cls-10" points="724.55 408.39 723.14 406.98 729.04 401.07 734.95 406.98 733.54 408.39 729.04 403.9 724.55 408.39"/><rect class="cls-10" x="707.21" y="424.06" width="16.06" height="2"/><polygon class="cls-10" points="718.78 430.97 717.37 429.55 721.86 425.06 717.37 420.57 718.78 419.15 724.69 425.06 718.78 430.97"/><rect class="cls-10" x="734.88" y="424.06" width="16.06" height="2"/><polygon class="cls-10" points="739.38 430.97 733.47 425.06 739.38 419.15 740.79 420.57 736.3 425.06 740.79 429.55 739.38 430.97"/><path class="cls-10" d="M729,453.9a29.73,29.73,0,1,1,29.73-29.73A29.77,29.77,0,0,1,729,453.9Zm0-57.46a27.73,27.73,0,1,0,27.73,27.73A27.76,27.76,0,0,0,729,396.44Z"/><rect class="cls-10" x="993.43" y="431.42" width="2" height="15.37"/><polygon class="cls-10" points="994.43 448.89 988.53 442.99 989.94 441.57 994.43 446.07 998.93 441.57 1000.34 442.99 994.43 448.89"/><rect class="cls-10" x="993.43" y="404.53" width="2" height="15.32"/><polygon class="cls-10" points="998.93 409.69 994.43 405.19 989.94 409.69 988.53 408.27 994.43 402.37 1000.34 408.27 998.93 409.69"/><rect class="cls-10" x="972.6" y="425.35" width="16.06" height="2"/><polygon class="cls-10" points="984.17 432.26 982.75 430.85 987.25 426.35 982.75 421.86 984.17 420.45 990.08 426.35 984.17 432.26"/><rect class="cls-10" x="1000.27" y="425.35" width="16.06" height="2"/><polygon class="cls-10" points="1004.77 432.26 998.86 426.35 1004.77 420.45 1006.18 421.86 1001.69 426.35 1006.18 430.85 1004.77 432.26"/><path class="cls-10" d="M994.43,455.19a29.73,29.73,0,1,1,29.73-29.73A29.76,29.76,0,0,1,994.43,455.19Zm0-57.46a27.73,27.73,0,1,0,27.73,27.73A27.76,27.76,0,0,0,994.43,397.73Z"/><path class="cls-7" d="M1038.89,427.07h-4.47l-1,2.75h-1.47l4.12-10.66h1.24l4.06,10.66h-1.47Zm-4-1.21h3.59l-1.76-4.86h0Z"/><path class="cls-7" d="M1050.36,426.4v0a3.22,3.22,0,0,1-1.05,2.52,4,4,0,0,1-2.86,1,3.76,3.76,0,0,1-2.95-1.28,4.71,4.71,0,0,1-1.14-3.25v-1.9a4.72,4.72,0,0,1,1.14-3.25,3.75,3.75,0,0,1,2.95-1.29,4.14,4.14,0,0,1,2.88,1,3.18,3.18,0,0,1,1,2.55v0H1049a2.38,2.38,0,0,0-.66-1.77,2.54,2.54,0,0,0-1.86-.65,2.27,2.27,0,0,0-1.93,1,4,4,0,0,0-.72,2.42v1.91a4,4,0,0,0,.72,2.43,2.27,2.27,0,0,0,1.93,1,2.54,2.54,0,0,0,1.86-.65,2.39,2.39,0,0,0,.66-1.79Z"/><path class="cls-7" d="M1059.86,426.4v0a3.22,3.22,0,0,1-1.05,2.52,4,4,0,0,1-2.86,1,3.76,3.76,0,0,1-2.95-1.28,4.72,4.72,0,0,1-1.14-3.25v-1.9a4.73,4.73,0,0,1,1.14-3.25A3.76,3.76,0,0,1,1056,419a4.14,4.14,0,0,1,2.88,1,3.18,3.18,0,0,1,1,2.55v0h-1.38a2.38,2.38,0,0,0-.66-1.77,2.54,2.54,0,0,0-1.86-.65,2.27,2.27,0,0,0-1.93,1,4,4,0,0,0-.72,2.42v1.91a4,4,0,0,0,.72,2.43,2.27,2.27,0,0,0,1.93,1,2.54,2.54,0,0,0,1.86-.65,2.39,2.39,0,0,0,.66-1.79Z"/><path class="cls-7" d="M1068.16,424.88h-4.89v3.81h5.63v1.13h-7.08V419.16h7v1.13h-5.55v3.45h4.89Z"/><path class="cls-7" d="M1076.4,427.13a1.57,1.57,0,0,0-.55-1.22,4.64,4.64,0,0,0-1.95-.83,6.46,6.46,0,0,1-2.64-1.19,2.46,2.46,0,0,1-.95-2,2.59,2.59,0,0,1,1-2.08A4,4,0,0,1,1074,419a3.94,3.94,0,0,1,2.79,1,2.83,2.83,0,0,1,1,2.23v0h-1.38a2,2,0,0,0-.62-1.52,3,3,0,0,0-3.43-.09,1.59,1.59,0,0,0-.57,1.27,1.4,1.4,0,0,0,.62,1.16,5.92,5.92,0,0,0,2,.82,5.77,5.77,0,0,1,2.56,1.23,2.63,2.63,0,0,1,.88,2,2.46,2.46,0,0,1-1.05,2.07,4.5,4.5,0,0,1-2.75.78,4.77,4.77,0,0,1-2.82-.87,2.62,2.62,0,0,1-1.19-2.32v0h1.38a1.79,1.79,0,0,0,.75,1.56,3.15,3.15,0,0,0,1.87.53,2.91,2.91,0,0,0,1.73-.46A1.45,1.45,0,0,0,1076.4,427.13Z"/><path class="cls-7" d="M1085.75,427.13a1.57,1.57,0,0,0-.55-1.22,4.64,4.64,0,0,0-1.95-.83,6.45,6.45,0,0,1-2.64-1.19,2.46,2.46,0,0,1-.95-2,2.59,2.59,0,0,1,1-2.08,4,4,0,0,1,2.65-.84,3.94,3.94,0,0,1,2.79,1,2.83,2.83,0,0,1,1,2.23v0h-1.38a2,2,0,0,0-.62-1.52,3,3,0,0,0-3.43-.09,1.58,1.58,0,0,0-.58,1.27,1.4,1.4,0,0,0,.62,1.16,5.92,5.92,0,0,0,2,.82,5.77,5.77,0,0,1,2.56,1.23,2.63,2.63,0,0,1,.88,2,2.46,2.46,0,0,1-1.05,2.07,4.5,4.5,0,0,1-2.75.78,4.77,4.77,0,0,1-2.82-.87,2.62,2.62,0,0,1-1.19-2.32v0h1.38a1.79,1.79,0,0,0,.75,1.56,3.15,3.15,0,0,0,1.87.53,2.91,2.91,0,0,0,1.73-.46A1.45,1.45,0,0,0,1085.75,427.13Z"/><path class="cls-7" d="M1094.47,425.2v4.62H1093V419.16h3.86a4.06,4.06,0,0,1,2.67.78,2.78,2.78,0,0,1,.92,2.26,2.41,2.41,0,0,1-.43,1.43,2.9,2.9,0,0,1-1.25,1,2.18,2.18,0,0,1,1.26.93,3,3,0,0,1,.38,1.59v1a3.34,3.34,0,0,0,.11.89,1.34,1.34,0,0,0,.38.64v.18h-1.49a1.19,1.19,0,0,1-.37-.73,6,6,0,0,1-.08-1v-1a1.93,1.93,0,0,0-.5-1.39,1.79,1.79,0,0,0-1.36-.53Zm0-1.14h2.27a2.68,2.68,0,0,0,1.76-.46,1.77,1.77,0,0,0,.54-1.42,1.82,1.82,0,0,0-.52-1.39,2.32,2.32,0,0,0-1.63-.49h-2.42Z"/><path class="cls-7" d="M1111,425.44a4.55,4.55,0,0,1-1.21,3.25,4.12,4.12,0,0,1-3.15,1.29,3.91,3.91,0,0,1-3-1.29,4.65,4.65,0,0,1-1.17-3.25v-1.9a4.66,4.66,0,0,1,1.17-3.24,3.9,3.9,0,0,1,3-1.3,4.12,4.12,0,0,1,3.15,1.29,4.57,4.57,0,0,1,1.21,3.25Zm-1.44-1.91a3.6,3.6,0,0,0-.79-2.4,2.64,2.64,0,0,0-2.12-.94,2.44,2.44,0,0,0-2,.94,3.72,3.72,0,0,0-.75,2.4v1.91a3.74,3.74,0,0,0,.75,2.42,2.44,2.44,0,0,0,2,.94,2.64,2.64,0,0,0,2.13-.93,3.63,3.63,0,0,0,.79-2.42Z"/><path class="cls-7" d="M1121,419.16v7.23a3.24,3.24,0,0,1-1.13,2.67,4.53,4.53,0,0,1-3,.92A4.27,4.27,0,0,1,1114,429a3.29,3.29,0,0,1-1.09-2.66v-7.23h1.44v7.22a2.35,2.35,0,0,0,.69,1.83,2.6,2.6,0,0,0,1.82.63,2.84,2.84,0,0,0,1.92-.63,2.28,2.28,0,0,0,.73-1.83v-7.22Z"/><path class="cls-7" d="M1130.56,420.29h-3.43v9.53h-1.44v-9.53h-3.42v-1.13h8.29Z"/><path class="cls-7" d="M1138.46,424.88h-4.88v3.81h5.63v1.13h-7.08V419.16h7v1.13h-5.55v3.45h4.88Z"/><path class="cls-7" d="M1142.34,425.2v4.62h-1.44V419.16h3.86a4.06,4.06,0,0,1,2.67.78,2.78,2.78,0,0,1,.92,2.26,2.41,2.41,0,0,1-.43,1.43,2.9,2.9,0,0,1-1.25,1,2.18,2.18,0,0,1,1.26.93,3,3,0,0,1,.38,1.59v1a3.34,3.34,0,0,0,.11.89,1.34,1.34,0,0,0,.38.64v.18h-1.49a1.19,1.19,0,0,1-.37-.73,6,6,0,0,1-.08-1v-1a1.93,1.93,0,0,0-.5-1.39,1.79,1.79,0,0,0-1.36-.53Zm0-1.14h2.27a2.68,2.68,0,0,0,1.76-.46,1.77,1.77,0,0,0,.54-1.42,1.82,1.82,0,0,0-.52-1.39,2.32,2.32,0,0,0-1.63-.49h-2.42Z"/><path class="cls-7" d="M100.65,528.07H96.18l-1,2.75H93.7l4.12-10.66h1.24l4.06,10.66h-1.47Zm-4-1.21h3.59L98.46,522h0Z"/><path class="cls-7" d="M112.12,527.4v0a3.22,3.22,0,0,1-1.05,2.52,4,4,0,0,1-2.86,1,3.76,3.76,0,0,1-2.95-1.28,4.71,4.71,0,0,1-1.14-3.25v-1.9a4.73,4.73,0,0,1,1.14-3.25,3.76,3.76,0,0,1,2.95-1.29,4.14,4.14,0,0,1,2.88,1,3.18,3.18,0,0,1,1,2.55v0h-1.38a2.38,2.38,0,0,0-.66-1.77,2.54,2.54,0,0,0-1.86-.65,2.27,2.27,0,0,0-1.93,1,4,4,0,0,0-.72,2.42v1.91a4,4,0,0,0,.72,2.43,2.27,2.27,0,0,0,1.93,1,2.54,2.54,0,0,0,1.86-.65,2.39,2.39,0,0,0,.66-1.79Z"/><path class="cls-7" d="M121.62,527.4v0a3.22,3.22,0,0,1-1.05,2.52,4,4,0,0,1-2.86,1,3.76,3.76,0,0,1-2.95-1.28,4.71,4.71,0,0,1-1.14-3.25v-1.9a4.73,4.73,0,0,1,1.14-3.25,3.76,3.76,0,0,1,2.95-1.29,4.14,4.14,0,0,1,2.88,1,3.18,3.18,0,0,1,1,2.55v0h-1.38a2.38,2.38,0,0,0-.66-1.77,2.54,2.54,0,0,0-1.86-.65,2.27,2.27,0,0,0-1.93,1,4,4,0,0,0-.72,2.42v1.91a4,4,0,0,0,.72,2.43,2.27,2.27,0,0,0,1.93,1,2.54,2.54,0,0,0,1.86-.65,2.39,2.39,0,0,0,.66-1.79Z"/><path class="cls-7" d="M129.91,525.87H125v3.81h5.63v1.13h-7.08V520.15h7v1.13H125v3.45h4.89Z"/><path class="cls-7" d="M138.15,528.13a1.57,1.57,0,0,0-.55-1.22,4.64,4.64,0,0,0-1.95-.83A6.46,6.46,0,0,1,133,524.9a2.46,2.46,0,0,1-.95-2,2.59,2.59,0,0,1,1-2.08,4,4,0,0,1,2.65-.84,3.94,3.94,0,0,1,2.79,1,2.83,2.83,0,0,1,1,2.23v0h-1.38a2,2,0,0,0-.62-1.52,3,3,0,0,0-3.43-.09,1.58,1.58,0,0,0-.57,1.27,1.4,1.4,0,0,0,.62,1.16,5.92,5.92,0,0,0,2,.82,5.77,5.77,0,0,1,2.56,1.23,2.63,2.63,0,0,1,.88,2,2.46,2.46,0,0,1-1.05,2.07,4.5,4.5,0,0,1-2.75.78,4.77,4.77,0,0,1-2.82-.87,2.62,2.62,0,0,1-1.19-2.32v0h1.38a1.79,1.79,0,0,0,.75,1.56,3.15,3.15,0,0,0,1.87.53,2.91,2.91,0,0,0,1.73-.46A1.45,1.45,0,0,0,138.15,528.13Z"/><path class="cls-7" d="M147.51,528.13a1.57,1.57,0,0,0-.55-1.22,4.64,4.64,0,0,0-1.95-.83,6.46,6.46,0,0,1-2.64-1.19,2.46,2.46,0,0,1-.95-2,2.59,2.59,0,0,1,1-2.08,4,4,0,0,1,2.65-.84,3.94,3.94,0,0,1,2.79,1,2.83,2.83,0,0,1,1,2.23v0h-1.38a2,2,0,0,0-.62-1.52,3,3,0,0,0-3.43-.09,1.58,1.58,0,0,0-.57,1.27,1.4,1.4,0,0,0,.62,1.16,5.92,5.92,0,0,0,2,.82,5.77,5.77,0,0,1,2.56,1.23,2.63,2.63,0,0,1,.88,2,2.46,2.46,0,0,1-1.05,2.07,4.5,4.5,0,0,1-2.75.78,4.77,4.77,0,0,1-2.82-.87,2.62,2.62,0,0,1-1.19-2.32v0h1.38a1.79,1.79,0,0,0,.75,1.56,3.15,3.15,0,0,0,1.87.53,2.91,2.91,0,0,0,1.73-.46A1.45,1.45,0,0,0,147.51,528.13Z"/><path class="cls-7" d="M97.23,548.82H95.79l-5.13-8.25h0v8.23H89.17V538.15h1.44l5.13,8.23h0v-8.22h1.44Z"/><path class="cls-7" d="M106.2,543.87h-4.89v3.81h5.63v1.13H99.87V538.15h7v1.13h-5.55v3.45h4.89Z"/><path class="cls-7" d="M115.86,539.29h-3.43v9.53H111v-9.53h-3.42v-1.13h8.29Z"/><path class="cls-7" d="M119.56,545.13l.2,1.33h0l.29-1.34,2-7h1.27l2,7,.29,1.37h0l.21-1.37,1.59-7h1.44l-2.57,10.66H125l-2.1-7.4-.19-1h0l-.18,1-2.14,7.4h-1.29l-2.56-10.66h1.44Z"/><path class="cls-7" d="M138.74,544.44a4.55,4.55,0,0,1-1.21,3.25,4.12,4.12,0,0,1-3.15,1.29,3.91,3.91,0,0,1-3-1.29,4.65,4.65,0,0,1-1.17-3.25v-1.9a4.66,4.66,0,0,1,1.17-3.24,3.9,3.9,0,0,1,3-1.3,4.12,4.12,0,0,1,3.15,1.29,4.57,4.57,0,0,1,1.21,3.25Zm-1.44-1.91a3.6,3.6,0,0,0-.79-2.4,2.64,2.64,0,0,0-2.12-.94,2.44,2.44,0,0,0-2,.94,3.72,3.72,0,0,0-.75,2.4v1.91a3.74,3.74,0,0,0,.75,2.42,2.44,2.44,0,0,0,2,.94,2.64,2.64,0,0,0,2.13-.93,3.63,3.63,0,0,0,.79-2.42Z"/><path class="cls-7" d="M142.34,544.2v4.62H140.9V538.16h3.86a4.06,4.06,0,0,1,2.67.78,2.78,2.78,0,0,1,.92,2.26,2.41,2.41,0,0,1-.43,1.43,2.9,2.9,0,0,1-1.25,1,2.18,2.18,0,0,1,1.26.93,3,3,0,0,1,.38,1.59v1a3.34,3.34,0,0,0,.11.89,1.34,1.34,0,0,0,.38.64v.18h-1.49a1.19,1.19,0,0,1-.37-.73,6.05,6.05,0,0,1-.08-1v-1a1.93,1.93,0,0,0-.51-1.39,1.79,1.79,0,0,0-1.35-.53Zm0-1.14h2.27a2.68,2.68,0,0,0,1.76-.46,1.77,1.77,0,0,0,.54-1.42,1.82,1.82,0,0,0-.52-1.39,2.31,2.31,0,0,0-1.63-.49h-2.42Z"/><path class="cls-7" d="M153.52,544h-1.25v4.81h-1.44V538.15h1.44v4.72h1.11l3.82-4.72h1.6l0,0-4.14,5.12,4.44,5.47,0,0h-1.72Z"/><path class="cls-8" d="M148.69,557.17H95.46a21.16,21.16,0,0,1-7.37-41,14.46,14.46,0,0,1-1.16-5.69,14.64,14.64,0,0,1,21.36-13,27.59,27.59,0,0,1,51.6,13.61c0,.17,0,.33,0,.5a24.18,24.18,0,0,1-11.2,45.61Zm-47.1-59.68a13,13,0,0,0-13,13A12.85,12.85,0,0,0,90,516.29l.44.87-.93.3a19.49,19.49,0,0,0,6,38h53.23a22.51,22.51,0,0,0,10-42.68l-.49-.24,0-.54c0-.32,0-.64,0-1A25.92,25.92,0,0,0,109.36,499l-.41.78-.76-.45A12.94,12.94,0,0,0,101.59,497.49Z"/><rect class="cls-11" x="125.2" y="459.5" width="2" height="19.06"/><rect class="cls-11" x="124.66" y="563.36" width="2" height="17.86"/><path class="cls-7" d="M703.54,528.07h-4.47l-1,2.75h-1.47l4.12-10.66h1.24L706,530.82h-1.47Zm-4-1.21h3.59L701.35,522h0Z"/><path class="cls-7" d="M715,527.4v0A3.22,3.22,0,0,1,714,530a4,4,0,0,1-2.86,1,3.76,3.76,0,0,1-2.95-1.28,4.72,4.72,0,0,1-1.14-3.25v-1.9a4.73,4.73,0,0,1,1.14-3.25A3.76,3.76,0,0,1,711.1,520a4.14,4.14,0,0,1,2.88,1,3.18,3.18,0,0,1,1,2.55v0h-1.38a2.38,2.38,0,0,0-.66-1.77,2.54,2.54,0,0,0-1.86-.65,2.27,2.27,0,0,0-1.93,1,4,4,0,0,0-.72,2.42v1.91a4,4,0,0,0,.72,2.43,2.27,2.27,0,0,0,1.93,1,2.54,2.54,0,0,0,1.86-.65,2.39,2.39,0,0,0,.66-1.79Z"/><path class="cls-7" d="M724.5,527.4v0a3.22,3.22,0,0,1-1.05,2.52,4,4,0,0,1-2.86,1,3.76,3.76,0,0,1-2.95-1.28,4.71,4.71,0,0,1-1.14-3.25v-1.9a4.72,4.72,0,0,1,1.14-3.25A3.75,3.75,0,0,1,720.6,520a4.14,4.14,0,0,1,2.88,1,3.18,3.18,0,0,1,1,2.55v0h-1.38a2.38,2.38,0,0,0-.66-1.77,2.54,2.54,0,0,0-1.86-.65,2.27,2.27,0,0,0-1.93,1,4,4,0,0,0-.72,2.42v1.91a4,4,0,0,0,.72,2.43,2.27,2.27,0,0,0,1.93,1,2.54,2.54,0,0,0,1.86-.65,2.39,2.39,0,0,0,.66-1.79Z"/><path class="cls-7" d="M732.8,525.87h-4.88v3.81h5.63v1.13h-7.08V520.15h7v1.13h-5.55v3.45h4.88Z"/><path class="cls-7" d="M741,528.13a1.57,1.57,0,0,0-.55-1.22,4.64,4.64,0,0,0-1.95-.83,6.46,6.46,0,0,1-2.64-1.19,2.46,2.46,0,0,1-.95-2,2.59,2.59,0,0,1,1-2.08,4,4,0,0,1,2.65-.84,3.94,3.94,0,0,1,2.79,1,2.83,2.83,0,0,1,1,2.23v0H741a2,2,0,0,0-.62-1.52,3,3,0,0,0-3.43-.09,1.58,1.58,0,0,0-.58,1.27,1.4,1.4,0,0,0,.62,1.16,5.92,5.92,0,0,0,2,.82,5.77,5.77,0,0,1,2.56,1.23,2.63,2.63,0,0,1,.88,2,2.46,2.46,0,0,1-1.05,2.07,4.5,4.5,0,0,1-2.75.78,4.77,4.77,0,0,1-2.82-.87,2.62,2.62,0,0,1-1.19-2.32v0h1.38a1.79,1.79,0,0,0,.75,1.56,3.15,3.15,0,0,0,1.87.53,2.91,2.91,0,0,0,1.73-.46A1.45,1.45,0,0,0,741,528.13Z"/><path class="cls-7" d="M750.4,528.13a1.57,1.57,0,0,0-.55-1.22,4.64,4.64,0,0,0-1.95-.83,6.45,6.45,0,0,1-2.64-1.19,2.46,2.46,0,0,1-.95-2,2.59,2.59,0,0,1,1-2.08A4,4,0,0,1,748,520a3.94,3.94,0,0,1,2.79,1,2.83,2.83,0,0,1,1,2.23v0h-1.38a2,2,0,0,0-.62-1.52,3,3,0,0,0-3.43-.09,1.58,1.58,0,0,0-.58,1.27,1.4,1.4,0,0,0,.62,1.16,5.92,5.92,0,0,0,2,.82A5.77,5.77,0,0,1,751,526.1a2.63,2.63,0,0,1,.88,2,2.46,2.46,0,0,1-1.05,2.07A4.5,4.5,0,0,1,748,531a4.77,4.77,0,0,1-2.82-.87,2.62,2.62,0,0,1-1.19-2.32v0h1.38a1.79,1.79,0,0,0,.75,1.56,3.15,3.15,0,0,0,1.87.53,2.91,2.91,0,0,0,1.73-.46A1.45,1.45,0,0,0,750.4,528.13Z"/><path class="cls-7" d="M700.12,548.82h-1.44l-5.13-8.25h0v8.23h-1.44V538.15h1.44l5.13,8.23h0v-8.22h1.44Z"/><path class="cls-7" d="M709.08,543.87H704.2v3.81h5.63v1.13h-7.08V538.15h7v1.13H704.2v3.45h4.88Z"/><path class="cls-7" d="M718.75,539.29h-3.43v9.53h-1.44v-9.53h-3.42v-1.13h8.29Z"/><path class="cls-7" d="M722.45,545.13l.2,1.33h0l.29-1.34,2-7h1.27l2,7,.29,1.37h0l.21-1.37,1.59-7h1.44l-2.57,10.66H727.9l-2.1-7.4-.19-1h0l-.18,1-2.14,7.4H722l-2.56-10.66h1.44Z"/><path class="cls-7" d="M741.63,544.44a4.55,4.55,0,0,1-1.21,3.25,4.12,4.12,0,0,1-3.15,1.29,3.91,3.91,0,0,1-3-1.29,4.65,4.65,0,0,1-1.17-3.25v-1.9a4.66,4.66,0,0,1,1.17-3.24,3.9,3.9,0,0,1,3-1.3,4.12,4.12,0,0,1,3.15,1.29,4.57,4.57,0,0,1,1.21,3.25Zm-1.44-1.91a3.6,3.6,0,0,0-.79-2.4,2.63,2.63,0,0,0-2.12-.94,2.44,2.44,0,0,0-2,.94,3.72,3.72,0,0,0-.75,2.4v1.91a3.74,3.74,0,0,0,.75,2.42,2.44,2.44,0,0,0,2,.94,2.64,2.64,0,0,0,2.13-.93,3.63,3.63,0,0,0,.79-2.42Z"/><path class="cls-7" d="M745.23,544.2v4.62h-1.44V538.16h3.86a4.06,4.06,0,0,1,2.67.78,2.78,2.78,0,0,1,.92,2.26,2.41,2.41,0,0,1-.43,1.43,2.9,2.9,0,0,1-1.25,1,2.18,2.18,0,0,1,1.26.93,3,3,0,0,1,.38,1.59v1a3.34,3.34,0,0,0,.11.89,1.34,1.34,0,0,0,.38.64v.18h-1.49a1.19,1.19,0,0,1-.37-.73,6,6,0,0,1-.08-1v-1a1.93,1.93,0,0,0-.5-1.39,1.79,1.79,0,0,0-1.36-.53Zm0-1.14h2.27a2.68,2.68,0,0,0,1.76-.46,1.77,1.77,0,0,0,.54-1.42,1.82,1.82,0,0,0-.52-1.39,2.32,2.32,0,0,0-1.63-.49h-2.42Z"/><path class="cls-7" d="M756.41,544h-1.25v4.81h-1.44V538.15h1.44v4.72h1.11l3.82-4.72h1.6l0,0-4.14,5.12,4.44,5.47,0,0h-1.72Z"/><path class="cls-8" d="M751.58,557.17H698.35a21.16,21.16,0,0,1-7.37-41,14.48,14.48,0,0,1-1.16-5.69,14.64,14.64,0,0,1,21.36-13,27.59,27.59,0,0,1,51.6,13.61c0,.17,0,.33,0,.5a24.18,24.18,0,0,1-11.2,45.61Zm-47.1-59.68a13,13,0,0,0-13,13,12.86,12.86,0,0,0,1.38,5.81l.44.87-.93.3a19.49,19.49,0,0,0,6,38h53.23a22.51,22.51,0,0,0,10-42.68l-.49-.24,0-.54c0-.32,0-.64,0-1A25.92,25.92,0,0,0,712.25,499l-.41.78-.76-.45A12.94,12.94,0,0,0,704.48,497.49Z"/><rect class="cls-11" x="727.55" y="563.36" width="2" height="17.86"/><path class="cls-7" d="M969.42,528.07H965l-1,2.75h-1.47l4.12-10.66h1.24l4.06,10.66h-1.47Zm-4-1.21H969L967.23,522h0Z"/><path class="cls-7" d="M980.89,527.4v0a3.22,3.22,0,0,1-1.05,2.52,4,4,0,0,1-2.86,1,3.76,3.76,0,0,1-2.95-1.28,4.71,4.71,0,0,1-1.14-3.25v-1.9a4.72,4.72,0,0,1,1.14-3.25A3.75,3.75,0,0,1,977,520a4.14,4.14,0,0,1,2.88,1,3.18,3.18,0,0,1,1,2.55v0h-1.38a2.38,2.38,0,0,0-.66-1.77,2.54,2.54,0,0,0-1.86-.65,2.27,2.27,0,0,0-1.93,1,4,4,0,0,0-.72,2.42v1.91a4,4,0,0,0,.72,2.43,2.27,2.27,0,0,0,1.93,1,2.54,2.54,0,0,0,1.86-.65,2.39,2.39,0,0,0,.66-1.79Z"/><path class="cls-7" d="M990.39,527.4v0a3.22,3.22,0,0,1-1.05,2.52,4,4,0,0,1-2.86,1,3.76,3.76,0,0,1-2.95-1.28,4.72,4.72,0,0,1-1.14-3.25v-1.9a4.73,4.73,0,0,1,1.14-3.25,3.76,3.76,0,0,1,2.95-1.29,4.14,4.14,0,0,1,2.88,1,3.18,3.18,0,0,1,1,2.55v0H989a2.38,2.38,0,0,0-.66-1.77,2.54,2.54,0,0,0-1.86-.65,2.27,2.27,0,0,0-1.93,1,4,4,0,0,0-.72,2.42v1.91a4,4,0,0,0,.72,2.43,2.27,2.27,0,0,0,1.93,1,2.54,2.54,0,0,0,1.86-.65,2.39,2.39,0,0,0,.66-1.79Z"/><path class="cls-7" d="M998.68,525.87H993.8v3.81h5.63v1.13h-7.08V520.15h7v1.13H993.8v3.45h4.89Z"/><path class="cls-7" d="M1006.93,528.13a1.57,1.57,0,0,0-.55-1.22,4.64,4.64,0,0,0-1.95-.83,6.46,6.46,0,0,1-2.64-1.19,2.46,2.46,0,0,1-.95-2,2.59,2.59,0,0,1,1-2.08,4,4,0,0,1,2.65-.84,3.94,3.94,0,0,1,2.79,1,2.83,2.83,0,0,1,1,2.23v0h-1.38a2,2,0,0,0-.62-1.52,3,3,0,0,0-3.43-.09,1.59,1.59,0,0,0-.57,1.27,1.4,1.4,0,0,0,.62,1.16,5.92,5.92,0,0,0,2,.82,5.77,5.77,0,0,1,2.56,1.23,2.63,2.63,0,0,1,.88,2,2.46,2.46,0,0,1-1.05,2.07,4.5,4.5,0,0,1-2.75.78,4.77,4.77,0,0,1-2.82-.87,2.62,2.62,0,0,1-1.19-2.32v0h1.38a1.79,1.79,0,0,0,.75,1.56,3.15,3.15,0,0,0,1.87.53,2.91,2.91,0,0,0,1.73-.46A1.45,1.45,0,0,0,1006.93,528.13Z"/><path class="cls-7" d="M1016.28,528.13a1.57,1.57,0,0,0-.55-1.22,4.64,4.64,0,0,0-1.95-.83,6.46,6.46,0,0,1-2.64-1.19,2.46,2.46,0,0,1-.95-2,2.59,2.59,0,0,1,1-2.08,4,4,0,0,1,2.65-.84,3.94,3.94,0,0,1,2.79,1,2.83,2.83,0,0,1,1,2.23v0h-1.38a2,2,0,0,0-.62-1.52,3,3,0,0,0-3.43-.09,1.59,1.59,0,0,0-.57,1.27,1.4,1.4,0,0,0,.62,1.16,5.92,5.92,0,0,0,2,.82,5.77,5.77,0,0,1,2.56,1.23,2.63,2.63,0,0,1,.88,2,2.46,2.46,0,0,1-1.05,2.07,4.5,4.5,0,0,1-2.75.78,4.77,4.77,0,0,1-2.82-.87,2.62,2.62,0,0,1-1.19-2.32v0h1.38a1.79,1.79,0,0,0,.75,1.56,3.15,3.15,0,0,0,1.87.53,2.91,2.91,0,0,0,1.73-.46A1.45,1.45,0,0,0,1016.28,528.13Z"/><path class="cls-7" d="M966,548.82h-1.44l-5.13-8.25h0v8.23h-1.44V538.15h1.44l5.13,8.23h0v-8.22H966Z"/><path class="cls-7" d="M975,543.87h-4.89v3.81h5.63v1.13h-7.08V538.15h7v1.13h-5.55v3.45H975Z"/><path class="cls-7" d="M984.63,539.29H981.2v9.53h-1.44v-9.53h-3.42v-1.13h8.29Z"/><path class="cls-7" d="M988.34,545.13l.2,1.33h0l.29-1.34,2-7h1.27l2,7,.29,1.37h0l.21-1.37,1.59-7h1.44l-2.57,10.66h-1.29l-2.1-7.4-.19-1h0l-.18,1-2.14,7.4h-1.29l-2.56-10.66h1.44Z"/><path class="cls-7" d="M1007.52,544.44a4.55,4.55,0,0,1-1.21,3.25,4.12,4.12,0,0,1-3.15,1.29,3.9,3.9,0,0,1-3-1.29,4.65,4.65,0,0,1-1.17-3.25v-1.9a4.66,4.66,0,0,1,1.17-3.24,3.89,3.89,0,0,1,3-1.3,4.12,4.12,0,0,1,3.15,1.29,4.57,4.57,0,0,1,1.21,3.25Zm-1.44-1.91a3.6,3.6,0,0,0-.79-2.4,2.64,2.64,0,0,0-2.12-.94,2.44,2.44,0,0,0-2,.94,3.72,3.72,0,0,0-.75,2.4v1.91a3.74,3.74,0,0,0,.75,2.42,2.44,2.44,0,0,0,2,.94,2.64,2.64,0,0,0,2.13-.93,3.63,3.63,0,0,0,.79-2.42Z"/><path class="cls-7" d="M1011.12,544.2v4.62h-1.44V538.16h3.86a4.05,4.05,0,0,1,2.67.78,2.78,2.78,0,0,1,.92,2.26,2.41,2.41,0,0,1-.43,1.43,2.9,2.9,0,0,1-1.25,1,2.18,2.18,0,0,1,1.26.93,3,3,0,0,1,.38,1.59v1a3.34,3.34,0,0,0,.11.89,1.34,1.34,0,0,0,.38.64v.18h-1.49a1.19,1.19,0,0,1-.37-.73,6.05,6.05,0,0,1-.08-1v-1a1.93,1.93,0,0,0-.51-1.39,1.79,1.79,0,0,0-1.35-.53Zm0-1.14h2.27a2.68,2.68,0,0,0,1.76-.46,1.77,1.77,0,0,0,.54-1.42,1.82,1.82,0,0,0-.52-1.39,2.31,2.31,0,0,0-1.63-.49h-2.42Z"/><path class="cls-7" d="M1022.3,544h-1.25v4.81h-1.44V538.15h1.44v4.72h1.11l3.82-4.72h1.6l0,0-4.14,5.12,4.44,5.47,0,0h-1.72Z"/><path class="cls-8" d="M1017.46,557.17H964.23a21.16,21.16,0,0,1-7.37-41,14.46,14.46,0,0,1-1.16-5.69,14.64,14.64,0,0,1,21.36-13,27.59,27.59,0,0,1,51.6,13.61c0,.17,0,.33,0,.5a24.18,24.18,0,0,1-11.2,45.61Zm-47.1-59.68a13,13,0,0,0-13,13,12.86,12.86,0,0,0,1.38,5.81l.44.87-.93.3a19.49,19.49,0,0,0,6,38h53.23a22.51,22.51,0,0,0,10-42.68l-.49-.24,0-.54c0-.32,0-.64,0-1A25.92,25.92,0,0,0,978.13,499l-.41.78-.76-.45A12.94,12.94,0,0,0,970.36,497.49Z"/><rect class="cls-11" x="993.43" y="563.36" width="2" height="17.86"/><rect class="cls-11" x="728.03" y="459.25" width="2" height="16.86"/><rect class="cls-11" x="993.92" y="459.25" width="2" height="16.86"/><rect class="cls-11" x="125.11" y="115.09" width="802.94" height="2"/><rect class="cls-11" x="925.94" y="116.46" width="2" height="16.48"/><rect class="cls-11" x="688.22" y="116.08" width="2" height="18.77"/><rect class="cls-14" x="164.89" y="170.95" width="255.55" height="2" transform="translate(-0.5 0.86) rotate(-0.17)"/><polygon class="cls-14" points="413.84 179.78 412.47 178.32 419.68 171.59 412.43 164.89 413.79 163.42 422.61 171.58 413.84 179.78"/><rect class="cls-14" x="449.93" y="212.47" width="39.14" height="2" transform="translate(253.28 681.71) rotate(-89.66)"/><polygon class="cls-14" points="461.39 200.48 462.85 201.85 469.6 194.67 476.28 201.94 477.75 200.58 469.62 191.74 461.39 200.48"/><polygon class="cls-14" points="461.24 226.36 462.71 225.01 469.38 232.27 476.14 225.09 477.59 226.46 469.36 235.21 461.24 226.36"/><path class="cls-7" d="M264.4,160.23a1,1,0,0,0-.36-.78,3.41,3.41,0,0,0-1.37-.54,5.78,5.78,0,0,1-2.17-.85,1.72,1.72,0,0,1-.73-1.47,2.07,2.07,0,0,1,.82-1.65,3.74,3.74,0,0,1,4.34,0,2.1,2.1,0,0,1,.78,1.73v0h-1.38a1.26,1.26,0,0,0-.44-.93,1.61,1.61,0,0,0-1.15-.41,1.67,1.67,0,0,0-1.14.34,1.06,1.06,0,0,0-.37.81.9.9,0,0,0,.33.74,3.4,3.4,0,0,0,1.34.48,5.77,5.77,0,0,1,2.23.88,1.76,1.76,0,0,1,.73,1.48,2,2,0,0,1-.85,1.71,3.58,3.58,0,0,1-2.23.65,3.48,3.48,0,0,1-2.39-.77,2.19,2.19,0,0,1-.83-1.79v0h1.38a1.33,1.33,0,0,0,.57,1.12,2.22,2.22,0,0,0,1.25.35,2,2,0,0,0,1.21-.31A1,1,0,0,0,264.4,160.23Z"/><path class="cls-7" d="M274.22,157.63h-4.86v4.72h-1.44V151.68H275v1.13h-5.61v3.68h4.86Z"/><path class="cls-7" d="M278.09,161.21h5v1.13h-6.49V151.68h1.44Z"/><path class="cls-7" d="M292.82,158a4.55,4.55,0,0,1-1.21,3.25,4.12,4.12,0,0,1-3.15,1.29,3.91,3.91,0,0,1-3-1.29,4.65,4.65,0,0,1-1.17-3.25v-1.9a4.66,4.66,0,0,1,1.17-3.24,3.9,3.9,0,0,1,3-1.3,4.12,4.12,0,0,1,3.15,1.29,4.57,4.57,0,0,1,1.21,3.25Zm-1.44-1.91a3.6,3.6,0,0,0-.79-2.4,2.64,2.64,0,0,0-2.12-.94,2.44,2.44,0,0,0-2,.94,3.72,3.72,0,0,0-.75,2.4V158a3.74,3.74,0,0,0,.75,2.42,2.44,2.44,0,0,0,2,.94,2.64,2.64,0,0,0,2.13-.93,3.63,3.63,0,0,0,.79-2.42Z"/><path class="cls-7" d="M297.11,158.65l.2,1.33h0l.29-1.34,2-7h1.27l2,7,.29,1.37h0l.21-1.37,1.59-7h1.44l-2.57,10.66h-1.29l-2.1-7.4-.19-1h0l-.18,1-2.14,7.4h-1.29l-2.56-10.66h1.44Z"/><path class="cls-7" d="M488.41,215.74h-4.47l-1,2.75h-1.47l4.12-10.66h1.24l4.06,10.66H489.4Zm-4-1.21H488l-1.76-4.86h0Z"/><path class="cls-7" d="M493.78,214.21v4.28h-1.44V207.83h4.08a3.75,3.75,0,0,1,2.65.88,3.32,3.32,0,0,1,0,4.64,3.77,3.77,0,0,1-2.65.87Zm0-1.13h2.64a2.06,2.06,0,1,0,0-4.12h-2.64Z"/><path class="cls-7" d="M503.47,218.49H502V207.83h1.45Z"/><rect class="cls-15" x="468.98" y="153.14" width="2" height="15.31"/><circle class="cls-16" cx="469.98" cy="173.13" r="1.22"/><path class="cls-15" d="M470,175.35a2.22,2.22,0,1,1,2.22-2.22A2.22,2.22,0,0,1,470,175.35Zm0-2.44a.22.22,0,0,0-.22.22c0,.24.44.24.44,0A.22.22,0,0,0,470,172.91Z"/><path class="cls-15" d="M498.22,187.94H440.71a3.55,3.55,0,0,1-3.07-5.32l28.76-49.81a3.55,3.55,0,0,1,6.14,0l11.87,20.57a1,1,0,1,1-1.73,1l-11.87-20.57a1.54,1.54,0,0,0-2.68,0l-28.76,49.81a1.54,1.54,0,0,0,1.34,2.32h57.51a1,1,0,0,1,0,2Z"/><path class="cls-15" d="M489.39,173.58a9.13,9.13,0,0,1-2.12-.25,9,9,0,1,1,2.12.25Zm0-16.14a7.07,7.07,0,1,0,6,3.37A7,7,0,0,0,489.37,157.44Z"/><path class="cls-15" d="M499.57,182.09a1,1,0,0,1-.85-.48l-6-9.71a1,1,0,0,1,1.7-1l6,9.71a1,1,0,0,1-.85,1.52Z"/><path class="cls-7" d="M510.41,160.85V150.19h3.27a4.38,4.38,0,0,1,4.63,4.61v1.46a4.37,4.37,0,0,1-4.63,4.6Zm1.44-9.53v8.39h1.83a2.94,2.94,0,0,0,2.33-1,3.65,3.65,0,0,0,.85-2.5v-1.47a3.63,3.63,0,0,0-.85-2.48,2.94,2.94,0,0,0-2.33-1Z"/><path class="cls-7" d="M526.62,155.91h-4.89v3.81h5.63v1.13h-7.08V150.19h7v1.13h-5.55v3.45h4.89Z"/><path class="cls-7" d="M536.28,151.32h-3.43v9.53h-1.44v-9.53H528v-1.13h8.29Z"/><path class="cls-7" d="M544.17,155.91h-4.89v3.81h5.63v1.13h-7.08V150.19h7v1.13h-5.55v3.45h4.89Z"/><path class="cls-7" d="M554.15,157.43v0a3.22,3.22,0,0,1-1.05,2.52,4,4,0,0,1-2.86,1,3.76,3.76,0,0,1-2.95-1.28,4.71,4.71,0,0,1-1.14-3.25v-1.9a4.73,4.73,0,0,1,1.14-3.25,3.76,3.76,0,0,1,2.95-1.29,4.14,4.14,0,0,1,2.88,1,3.18,3.18,0,0,1,1,2.55v0h-1.38a2.38,2.38,0,0,0-.66-1.77,2.54,2.54,0,0,0-1.86-.65,2.27,2.27,0,0,0-1.93,1,4,4,0,0,0-.72,2.42v1.91a4,4,0,0,0,.72,2.43,2.27,2.27,0,0,0,1.93,1,2.54,2.54,0,0,0,1.86-.65,2.39,2.39,0,0,0,.66-1.79Z"/><path class="cls-7" d="M563.33,151.32h-3.43v9.53h-1.44v-9.53H555v-1.13h8.29Z"/><path class="cls-7" d="M566.42,160.85H565V150.19h1.45Z"/><path class="cls-7" d="M577.21,156.47a4.55,4.55,0,0,1-1.21,3.25,4.12,4.12,0,0,1-3.15,1.29,3.91,3.91,0,0,1-3-1.29,4.65,4.65,0,0,1-1.17-3.25v-1.9a4.66,4.66,0,0,1,1.17-3.24,3.9,3.9,0,0,1,3-1.3,4.12,4.12,0,0,1,3.15,1.29,4.57,4.57,0,0,1,1.21,3.25Zm-1.44-1.91a3.6,3.6,0,0,0-.79-2.4,2.64,2.64,0,0,0-2.12-.94,2.44,2.44,0,0,0-2,.94,3.72,3.72,0,0,0-.75,2.4v1.91a3.74,3.74,0,0,0,.75,2.42,2.44,2.44,0,0,0,2,.94,2.64,2.64,0,0,0,2.13-.93,3.63,3.63,0,0,0,.79-2.42Z"/><path class="cls-7" d="M587.43,160.85H586l-5.13-8.25h0v8.23h-1.44V150.19h1.44l5.13,8.23h0v-8.22h1.44Z"/><path class="cls-7" d="M511.93,178.85h-1.45V168.19h1.45Z"/><path class="cls-7" d="M522.71,178.85h-1.44l-5.13-8.25h0v8.23h-1.44V168.19h1.44l5.13,8.23h0v-8.22h1.44Z"/><path class="cls-7" d="M531.16,176.17a1.57,1.57,0,0,0-.55-1.22,4.64,4.64,0,0,0-1.95-.83,6.46,6.46,0,0,1-2.64-1.19,2.46,2.46,0,0,1-.95-2,2.59,2.59,0,0,1,1-2.08,4,4,0,0,1,2.65-.84,3.94,3.94,0,0,1,2.79,1,2.83,2.83,0,0,1,1,2.23v0h-1.38a2,2,0,0,0-.62-1.52,3,3,0,0,0-3.43-.09,1.58,1.58,0,0,0-.57,1.27,1.4,1.4,0,0,0,.62,1.16,5.92,5.92,0,0,0,2,.82,5.77,5.77,0,0,1,2.56,1.23,2.63,2.63,0,0,1,.88,2,2.46,2.46,0,0,1-1.05,2.07,4.5,4.5,0,0,1-2.75.78,4.77,4.77,0,0,1-2.82-.87,2.62,2.62,0,0,1-1.19-2.32v0h1.38a1.79,1.79,0,0,0,.75,1.56,3.15,3.15,0,0,0,1.87.53,2.91,2.91,0,0,0,1.73-.46A1.45,1.45,0,0,0,531.16,176.17Z"/><path class="cls-7" d="M536.15,174.58v4.28H534.7V168.19h4.08a3.75,3.75,0,0,1,2.65.88,3.32,3.32,0,0,1,0,4.64,3.77,3.77,0,0,1-2.65.87Zm0-1.13h2.64a2.06,2.06,0,1,0,0-4.12h-2.64Z"/><path class="cls-7" d="M550.64,173.91h-4.89v3.81h5.63v1.13h-7.08V168.19h7v1.13h-5.55v3.45h4.89Z"/><path class="cls-7" d="M560.62,175.43v0a3.22,3.22,0,0,1-1.05,2.52,4,4,0,0,1-2.86,1,3.76,3.76,0,0,1-2.95-1.28,4.71,4.71,0,0,1-1.14-3.25v-1.9a4.73,4.73,0,0,1,1.14-3.25,3.76,3.76,0,0,1,2.95-1.29,4.14,4.14,0,0,1,2.88,1,3.18,3.18,0,0,1,1,2.55v0h-1.38a2.38,2.38,0,0,0-.66-1.77,2.54,2.54,0,0,0-1.86-.65,2.27,2.27,0,0,0-1.93,1,4,4,0,0,0-.72,2.42v1.91a4,4,0,0,0,.72,2.43,2.27,2.27,0,0,0,1.93,1,2.54,2.54,0,0,0,1.86-.65,2.39,2.39,0,0,0,.66-1.79Z"/><path class="cls-7" d="M569.8,169.32h-3.43v9.53h-1.44v-9.53h-3.42v-1.13h8.29Z"/><path class="cls-7" d="M572.89,178.85h-1.45V168.19h1.45Z"/><path class="cls-7" d="M583.68,174.47a4.55,4.55,0,0,1-1.21,3.25,4.12,4.12,0,0,1-3.15,1.29,3.91,3.91,0,0,1-3-1.29,4.65,4.65,0,0,1-1.17-3.25v-1.9a4.66,4.66,0,0,1,1.17-3.24,3.9,3.9,0,0,1,3-1.3,4.12,4.12,0,0,1,3.15,1.29,4.57,4.57,0,0,1,1.21,3.25Zm-1.44-1.91a3.6,3.6,0,0,0-.79-2.4,2.64,2.64,0,0,0-2.12-.94,2.44,2.44,0,0,0-2,.94,3.72,3.72,0,0,0-.75,2.4v1.91a3.74,3.74,0,0,0,.75,2.42,2.44,2.44,0,0,0,2,.94,2.64,2.64,0,0,0,2.13-.93,3.63,3.63,0,0,0,.79-2.42Z"/><path class="cls-7" d="M593.9,178.85h-1.44l-5.13-8.25h0v8.23h-1.44V168.19h1.44l5.13,8.23h0v-8.22h1.44Z"/><path class="cls-7" d="M267.63,411.8v0a3.22,3.22,0,0,1-1.05,2.52,4,4,0,0,1-2.86,1,3.76,3.76,0,0,1-2.95-1.28,4.71,4.71,0,0,1-1.14-3.25v-1.9a4.73,4.73,0,0,1,1.14-3.25,3.76,3.76,0,0,1,2.95-1.29,4.14,4.14,0,0,1,2.88,1,3.18,3.18,0,0,1,1,2.55v0h-1.38a2.38,2.38,0,0,0-.66-1.77,2.54,2.54,0,0,0-1.86-.65,2.27,2.27,0,0,0-1.93,1,4,4,0,0,0-.72,2.42v1.91a4,4,0,0,0,.72,2.43,2.27,2.27,0,0,0,1.93,1,2.54,2.54,0,0,0,1.86-.65,2.39,2.39,0,0,0,.66-1.79Z"/><path class="cls-7" d="M271,414.08h5v1.13H269.6V404.55H271Z"/><path class="cls-7" d="M284,410.27h-4.89v3.81h5.63v1.13H277.7V404.55h7v1.13h-5.55v3.45H284Z"/><path class="cls-7" d="M292.24,412.47h-4.47l-1,2.75h-1.47l4.12-10.66h1.24l4.06,10.66h-1.47Zm-4-1.21h3.59l-1.76-4.86h0Z"/><path class="cls-7" d="M304.24,415.22H302.8L297.66,407h0v8.23h-1.44V404.55h1.44l5.13,8.23h0v-8.22h1.44Z"/><path class="cls-7" d="M317.83,405.69H314.4v9.53H313v-9.53h-3.42v-1.13h8.29Z"/><path class="cls-7" d="M320.84,410.6v4.62h-1.44V404.56h3.86a4.06,4.06,0,0,1,2.67.78,2.78,2.78,0,0,1,.92,2.26,2.41,2.41,0,0,1-.43,1.43,2.9,2.9,0,0,1-1.25,1,2.18,2.18,0,0,1,1.26.93,3,3,0,0,1,.38,1.59v1a3.34,3.34,0,0,0,.11.89,1.34,1.34,0,0,0,.38.64v.18h-1.49a1.19,1.19,0,0,1-.37-.73,6.05,6.05,0,0,1-.08-1v-1a1.93,1.93,0,0,0-.51-1.39,1.79,1.79,0,0,0-1.35-.53Zm0-1.14h2.27a2.68,2.68,0,0,0,1.76-.46,1.77,1.77,0,0,0,.54-1.42,1.82,1.82,0,0,0-.52-1.39,2.31,2.31,0,0,0-1.63-.49h-2.42Z"/><path class="cls-7" d="M335.11,412.47h-4.47l-1,2.75h-1.47l4.12-10.66h1.24l4.06,10.66h-1.47Zm-4-1.21h3.59l-1.76-4.86h0Z"/><path class="cls-7" d="M345.35,410.5h-4.86v4.72H339V404.55h7.05v1.13h-5.61v3.68h4.86Z"/><path class="cls-7" d="M354.09,410.5h-4.86v4.72h-1.44V404.55h7.05v1.13h-5.61v3.68h4.86Z"/><path class="cls-7" d="M358,415.22h-1.45V404.55H358Z"/><path class="cls-7" d="M368.3,411.8v0a3.22,3.22,0,0,1-1.05,2.52,4,4,0,0,1-2.86,1,3.76,3.76,0,0,1-2.95-1.28,4.71,4.71,0,0,1-1.14-3.25v-1.9a4.73,4.73,0,0,1,1.14-3.25,3.76,3.76,0,0,1,2.95-1.29,4.14,4.14,0,0,1,2.88,1,3.18,3.18,0,0,1,1,2.55v0h-1.38a2.38,2.38,0,0,0-.66-1.77,2.54,2.54,0,0,0-1.86-.65,2.27,2.27,0,0,0-1.93,1,4,4,0,0,0-.72,2.42v1.91a4,4,0,0,0,.72,2.43,2.27,2.27,0,0,0,1.93,1,2.54,2.54,0,0,0,1.86-.65,2.39,2.39,0,0,0,.66-1.79Z"/><rect class="cls-13" x="677.6" y="218.14" width="23.31" height="2" transform="translate(463.05 906.11) rotate(-89.41)"/><polygon class="cls-13" points="681.02 224.09 682.5 222.74 689.14 230.03 695.93 222.87 697.38 224.25 689.11 232.97 681.02 224.09"/><rect class="cls-13" x="915.8" y="218.98" width="23.31" height="2" transform="translate(697.98 1145.13) rotate(-89.41)"/><polygon class="cls-13" points="919.22 224.92 920.7 223.57 927.34 230.86 934.13 223.71 935.58 225.09 927.31 233.8 919.22 224.92"/><rect class="cls-9" x="983.24" y="375.17" width="22.26" height="2.04" transform="translate(607.74 1366.54) rotate(-89.4)"/><polygon class="cls-9" points="985.97 380.46 987.48 379.08 994.26 386.53 1001.19 379.23 1002.67 380.64 994.22 389.53 985.97 380.46"/><rect class="cls-9" x="718.68" y="375.71" width="22.31" height="2" transform="translate(345.31 1102.46) rotate(-89.38)"/><polygon class="cls-9" points="721.61 381.15 723.09 379.8 729.72 387.1 736.51 379.94 737.97 381.32 729.69 390.03 721.61 381.15"/></svg>