<svg id="Layer_1" data-name="Layer 1" xmlns="http://www.w3.org/2000/svg" viewBox="0 0 1250 394"><defs><style>.cls-1{fill:#f2f4f1;}.cls-2{fill:#c46dbe;}.cls-3{fill:#6f6e6f;}.cls-4{fill:#aad8c9;}.cls-5{fill:#fff;}.cls-6{fill:#3fa1f2;}.cls-7{fill:#17242d;}.cls-8{fill:none;stroke:#939596;stroke-miterlimit:10;stroke-width:2px;}.cls-9{fill:#939596;}.cls-10{fill:#0075c9;}.cls-11{fill:#787878;}</style></defs><title>DCF_IPSEC_VPN_Deployment</title><rect class="cls-1" x="21.44" y="18" width="278.31" height="327.41" rx="35" ry="35"/><path class="cls-2" d="M264.75,346.41h-4v-2h4Zm-8,0h-4v-2h4Zm-8,0h-4v-2h4Zm-8,0h-4v-2h4Zm-8,0h-4v-2h4Zm-8,0h-4v-2h4Zm-8,0h-4v-2h4Zm-8,0h-4v-2h4Zm-8,0h-4v-2h4Zm-8,0h-4v-2h4Zm-8,0h-4v-2h4Zm-8,0h-4v-2h4Zm-8,0h-4v-2h4Zm-8,0h-4v-2h4Zm-8,0h-4v-2h4Zm-8,0h-4v-2h4Zm-8,0h-4v-2h4Zm-8,0h-4v-2h4Zm-8,0h-4v-2h4Zm-8,0h-4v-2h4Zm-8,0h-4v-2h4Zm-8,0h-4v-2h4Zm-8,0h-4v-2h4Zm-8,0h-4v-2h4Zm-8,0h-4v-2h4Zm-8,0h-4v-2h4Zm-8,0h-.31a36.18,36.18,0,0,1-3.79-.2l.21-2a34.17,34.17,0,0,0,3.58.19h.31Zm211.38-.16-.19-2a33.79,33.79,0,0,0,3.84-.59l.42,2A35.79,35.79,0,0,1,268.13,346.25Zm-219.53-.71a35.6,35.6,0,0,1-4-1.13l.66-1.89A33.78,33.78,0,0,0,49,343.59Zm227.56-1-.64-1.9a34,34,0,0,0,3.6-1.45L280,343A35.84,35.84,0,0,1,276.16,344.55ZM40.84,342.83a36.24,36.24,0,0,1-3.59-2l1.07-1.69A34.31,34.31,0,0,0,41.71,341Zm242.74-1.78-1.05-1.7a34.45,34.45,0,0,0,3.18-2.23L287,338.7A36.39,36.39,0,0,1,283.58,341.05ZM33.91,338.44a36.51,36.51,0,0,1-3-2.76l1.42-1.41a34.63,34.63,0,0,0,2.88,2.6ZM290,336l-1.41-1.42a34.41,34.41,0,0,0,2.6-2.88l1.56,1.25A36.38,36.38,0,0,1,290,336ZM28.14,332.6a36.53,36.53,0,0,1-2.35-3.37l1.7-1.05a34.3,34.3,0,0,0,2.22,3.18Zm267-3-1.69-1.07a34.12,34.12,0,0,0,1.89-3.39l1.8.87A36.2,36.2,0,0,1,295.18,329.59Zm-271.35-4a35.79,35.79,0,0,1-1.53-3.82l1.9-.64a33.74,33.74,0,0,0,1.45,3.6Zm274.93-3.42-1.89-.66a33.85,33.85,0,0,0,1.07-3.73l2,.44A35.89,35.89,0,0,1,298.76,322.19ZM21.21,317.83a35.61,35.61,0,0,1-.62-4.06l2-.19a33.77,33.77,0,0,0,.58,3.84Zm279.34-3.65-2-.21a34,34,0,0,0,.19-3.56v-.33h2v.33A36.18,36.18,0,0,1,300.55,314.18Zm-278.11-4.5h-2v-4h2Zm278.31-3.6h-2v-4h2Zm-278.31-4.4h-2v-4h2Zm278.31-3.6h-2v-4h2Zm-278.31-4.4h-2v-4h2Zm278.31-3.6h-2v-4h2Zm-278.31-4.4h-2v-4h2Zm278.31-3.6h-2v-4h2Zm-278.31-4.4h-2v-4h2Zm278.31-3.6h-2v-4h2Zm-278.31-4.4h-2v-4h2Zm278.31-3.6h-2v-4h2Zm-278.31-4.4h-2v-4h2Zm278.31-3.6h-2v-4h2Zm-278.31-4.4h-2v-4h2Zm278.31-3.6h-2v-4h2Zm-278.31-4.4h-2v-4h2Zm278.31-3.6h-2v-4h2Zm-278.31-4.4h-2v-4h2Zm278.31-3.6h-2v-4h2Zm-278.31-4.4h-2v-4h2Zm278.31-3.6h-2v-4h2Zm-278.31-4.4h-2v-4h2Zm278.31-3.6h-2v-4h2Zm-278.31-4.4h-2v-4h2Zm278.31-3.6h-2v-4h2Zm-278.31-4.4h-2v-4h2Zm278.31-3.6h-2v-4h2Zm-278.31-4.4h-2v-4h2Zm278.31-3.6h-2v-4h2Zm-278.31-4.4h-2v-4h2Zm278.31-3.6h-2v-4h2Zm-278.31-4.4h-2v-4h2Zm278.31-3.6h-2v-4h2Zm-278.31-4.4h-2v-4h2Zm278.31-3.6h-2v-4h2Zm-278.31-4.4h-2v-4h2Zm278.31-3.6h-2v-4h2Zm-278.31-4.4h-2v-4h2Zm278.31-3.6h-2v-4h2Zm-278.31-4.4h-2v-4h2Zm278.31-3.6h-2v-4h2Zm-278.31-4.4h-2v-4h2Zm278.31-3.6h-2v-4h2Zm-278.31-4.4h-2v-4h2Zm278.31-3.6h-2v-4h2Zm-278.31-4.4h-2v-4h2Zm278.31-3.6h-2v-4h2Zm-278.31-4.4h-2v-4h2Zm278.31-3.6h-2v-4h2Zm-278.31-4.4h-2v-4h2Zm278.31-3.6h-2v-4h2Zm-278.31-4.4h-2v-4h2Zm278.31-3.6h-2v-4h2ZM22.44,93.68h-2v-4h2Zm278.31-3.6h-2v-4h2ZM22.44,85.68h-2v-4h2Zm278.31-3.6h-2v-4h2ZM22.44,77.68h-2v-4h2Zm278.31-3.6h-2v-4h2ZM22.44,69.68h-2v-4h2Zm278.31-3.6h-2v-4h2ZM22.44,61.68h-2v-4h2Zm278.31-3.6h-2v-4h2ZM22.44,53.68h-2V53c0-1.13.05-2.28.16-3.41l2,.19c-.1,1.06-.15,2.15-.15,3.22Zm276.19-3.51a33.89,33.89,0,0,0-.54-3.84l2-.39a35.94,35.94,0,0,1,.58,4.07ZM23.18,45.95l-2-.42a35.89,35.89,0,0,1,1.09-4l1.9.64A33.74,33.74,0,0,0,23.18,45.95ZM297.1,42.57A33.91,33.91,0,0,0,295.69,39l1.82-.83A35.87,35.87,0,0,1,299,42Zm-271.44-4-1.81-.85a36.18,36.18,0,0,1,2-3.61l1.7,1.05A34,34,0,0,0,25.66,38.6Zm268.22-3.07a34.53,34.53,0,0,0-2.19-3.21l1.58-1.22a36.53,36.53,0,0,1,2.32,3.39ZM29.74,32l-1.57-1.24a36.69,36.69,0,0,1,2.72-3.08l1.42,1.41A34.56,34.56,0,0,0,29.74,32Zm259.4-2.62a34.58,34.58,0,0,0-2.86-2.63l1.27-1.54a36.61,36.61,0,0,1,3,2.79ZM35.2,26.5,34,24.94a36.3,36.3,0,0,1,3.34-2.39l1.07,1.69A34.39,34.39,0,0,0,35.2,26.5Zm248-2a34.32,34.32,0,0,0-3.37-1.92l.89-1.79a36.29,36.29,0,0,1,3.57,2Zm-241.4-2.1-.87-1.8A35.76,35.76,0,0,1,44.69,19l.66,1.89A34,34,0,0,0,41.76,22.35ZM276.21,21a33.78,33.78,0,0,0-3.72-1.11l.46-1.95a35.89,35.89,0,0,1,3.94,1.17ZM49.08,19.81l-.44-2a35.87,35.87,0,0,1,4.06-.66l.21,2A33.86,33.86,0,0,0,49.08,19.81Zm219.59-.58a34.29,34.29,0,0,0-3.88-.23V17a36.16,36.16,0,0,1,4.1.24ZM260.8,19h-4V17h4Zm-8,0h-4V17h4Zm-8,0h-4V17h4Zm-8,0h-4V17h4Zm-8,0h-4V17h4Zm-8,0h-4V17h4Zm-8,0h-4V17h4Zm-8,0h-4V17h4Zm-8,0h-4V17h4Zm-8,0h-4V17h4Zm-8,0h-4V17h4Zm-8,0h-4V17h4Zm-8,0h-4V17h4Zm-8,0h-4V17h4Zm-8,0h-4V17h4Zm-8,0h-4V17h4Zm-8,0h-4V17h4Zm-8,0h-4V17h4Zm-8,0h-4V17h4Zm-8,0h-4V17h4Zm-8,0h-4V17h4Zm-8,0h-4V17h4Zm-8,0h-4V17h4Zm-8,0h-4V17h4Zm-8,0h-4V17h4Zm-8,0h-4V17h4Z"/><rect class="cls-1" x="951.07" y="18" width="278.31" height="327.41" rx="35" ry="35"/><path class="cls-2" d="M1194.38,346.41h-4v-2h4Zm-8,0h-4v-2h4Zm-8,0h-4v-2h4Zm-8,0h-4v-2h4Zm-8,0h-4v-2h4Zm-8,0h-4v-2h4Zm-8,0h-4v-2h4Zm-8,0h-4v-2h4Zm-8,0h-4v-2h4Zm-8,0h-4v-2h4Zm-8,0h-4v-2h4Zm-8,0h-4v-2h4Zm-8,0h-4v-2h4Zm-8,0h-4v-2h4Zm-8,0h-4v-2h4Zm-8,0h-4v-2h4Zm-8,0h-4v-2h4Zm-8,0h-4v-2h4Zm-8,0h-4v-2h4Zm-8,0h-4v-2h4Zm-8,0h-4v-2h4Zm-8,0h-4v-2h4Zm-8,0h-4v-2h4Zm-8,0h-4v-2h4Zm-8,0h-4v-2h4Zm-8,0h-4v-2h4Zm-8,0h-.31a36.21,36.21,0,0,1-3.79-.2l.21-2a34.21,34.21,0,0,0,3.58.19h.31Zm211.38-.16-.19-2a33.79,33.79,0,0,0,3.84-.59l.42,2A35.8,35.8,0,0,1,1197.76,346.25Zm-219.53-.71a35.58,35.58,0,0,1-4-1.13l.66-1.89a33.65,33.65,0,0,0,3.73,1.07Zm227.56-1-.64-1.9a33.91,33.91,0,0,0,3.6-1.45l.85,1.81A35.75,35.75,0,0,1,1205.79,344.55Zm-235.31-1.71a36.3,36.3,0,0,1-3.59-2l1.07-1.69a34.09,34.09,0,0,0,3.39,1.89Zm242.74-1.78-1.05-1.7a34.54,34.54,0,0,0,3.18-2.23l1.24,1.57A36.35,36.35,0,0,1,1213.22,341.05Zm-249.68-2.62a36.6,36.6,0,0,1-3-2.76l1.42-1.41a34.56,34.56,0,0,0,2.88,2.6ZM1219.66,336l-1.41-1.42a34.15,34.15,0,0,0,2.6-2.88l1.56,1.25A36.46,36.46,0,0,1,1219.66,336ZM957.77,332.6a36.54,36.54,0,0,1-2.35-3.37l1.7-1.05a34.45,34.45,0,0,0,2.23,3.18Zm267-3-1.69-1.07a34.14,34.14,0,0,0,1.89-3.39l1.8.87A36.41,36.41,0,0,1,1224.81,329.59Zm-271.35-4a35.93,35.93,0,0,1-1.53-3.82l1.9-.64a33.85,33.85,0,0,0,1.45,3.6Zm274.93-3.42-1.89-.66a33.53,33.53,0,0,0,1.07-3.73l2,.44A35.73,35.73,0,0,1,1228.39,322.19Zm-277.54-4.36a35.89,35.89,0,0,1-.62-4.07l2-.19a33.67,33.67,0,0,0,.58,3.84Zm279.33-3.65-2-.21a34.11,34.11,0,0,0,.19-3.56v-.33h2v.33A36,36,0,0,1,1230.18,314.18Zm-278.11-4.5h-2v-4h2Zm278.31-3.6h-2v-4h2Zm-278.31-4.4h-2v-4h2Zm278.31-3.6h-2v-4h2Zm-278.31-4.4h-2v-4h2Zm278.31-3.6h-2v-4h2Zm-278.31-4.4h-2v-4h2Zm278.31-3.6h-2v-4h2Zm-278.31-4.4h-2v-4h2Zm278.31-3.6h-2v-4h2Zm-278.31-4.4h-2v-4h2Zm278.31-3.6h-2v-4h2Zm-278.31-4.4h-2v-4h2Zm278.31-3.6h-2v-4h2Zm-278.31-4.4h-2v-4h2Zm278.31-3.6h-2v-4h2Zm-278.31-4.4h-2v-4h2Zm278.31-3.6h-2v-4h2Zm-278.31-4.4h-2v-4h2Zm278.31-3.6h-2v-4h2Zm-278.31-4.4h-2v-4h2Zm278.31-3.6h-2v-4h2Zm-278.31-4.4h-2v-4h2Zm278.31-3.6h-2v-4h2Zm-278.31-4.4h-2v-4h2Zm278.31-3.6h-2v-4h2Zm-278.31-4.4h-2v-4h2Zm278.31-3.6h-2v-4h2Zm-278.31-4.4h-2v-4h2Zm278.31-3.6h-2v-4h2Zm-278.31-4.4h-2v-4h2Zm278.31-3.6h-2v-4h2Zm-278.31-4.4h-2v-4h2Zm278.31-3.6h-2v-4h2Zm-278.31-4.4h-2v-4h2Zm278.31-3.6h-2v-4h2Zm-278.31-4.4h-2v-4h2Zm278.31-3.6h-2v-4h2Zm-278.31-4.4h-2v-4h2Zm278.31-3.6h-2v-4h2Zm-278.31-4.4h-2v-4h2Zm278.31-3.6h-2v-4h2Zm-278.31-4.4h-2v-4h2Zm278.31-3.6h-2v-4h2Zm-278.31-4.4h-2v-4h2Zm278.31-3.6h-2v-4h2Zm-278.31-4.4h-2v-4h2Zm278.31-3.6h-2v-4h2Zm-278.31-4.4h-2v-4h2Zm278.31-3.6h-2v-4h2Zm-278.31-4.4h-2v-4h2Zm278.31-3.6h-2v-4h2Zm-278.31-4.4h-2v-4h2Zm278.31-3.6h-2v-4h2Zm-278.31-4.4h-2v-4h2Zm278.31-3.6h-2v-4h2Zm-278.31-4.4h-2v-4h2Zm278.31-3.6h-2v-4h2Zm-278.31-4.4h-2v-4h2Zm278.31-3.6h-2v-4h2Zm-278.31-4.4h-2v-4h2Zm278.31-3.6h-2v-4h2Zm-278.31-4.4h-2v-4h2Zm278.31-3.6h-2v-4h2Zm-278.31-4.4h-2V53c0-1.14.05-2.29.16-3.41l2,.19c-.1,1.06-.15,2.14-.15,3.22Zm276.19-3.51a33.53,33.53,0,0,0-.54-3.84l2-.39a35.74,35.74,0,0,1,.58,4.07ZM952.81,45.95l-2-.42a35.89,35.89,0,0,1,1.09-4l1.89.64A34.42,34.42,0,0,0,952.81,45.95Zm273.92-3.37a33.93,33.93,0,0,0-1.41-3.62l1.82-.83a35.87,35.87,0,0,1,1.49,3.83Zm-271.44-4-1.81-.85a35.83,35.83,0,0,1,2-3.61l1.7,1.05A34.26,34.26,0,0,0,955.29,38.6Zm268.22-3.07a34.27,34.27,0,0,0-2.19-3.2l1.58-1.22a36.26,36.26,0,0,1,2.32,3.39ZM959.38,32l-1.57-1.24a36.36,36.36,0,0,1,2.72-3.08L962,29.1A34.53,34.53,0,0,0,959.38,32Zm259.4-2.62a34.22,34.22,0,0,0-2.86-2.63l1.27-1.54a36.35,36.35,0,0,1,3,2.79ZM964.84,26.5l-1.25-1.56a36.33,36.33,0,0,1,3.34-2.39L968,24.24A34,34,0,0,0,964.84,26.5Zm248-2a34.4,34.4,0,0,0-3.37-1.92l.89-1.79a36.38,36.38,0,0,1,3.57,2Zm-241.4-2.1-.87-1.8a35.78,35.78,0,0,1,3.8-1.57l.66,1.89A34,34,0,0,0,971.39,22.35ZM1205.85,21a33.86,33.86,0,0,0-3.72-1.11l.46-1.95a36,36,0,0,1,3.94,1.17ZM978.71,19.81l-.44-2a35.88,35.88,0,0,1,4.06-.66l.21,2A33.85,33.85,0,0,0,978.71,19.81Zm219.59-.58a34.29,34.29,0,0,0-3.87-.23V17a36.15,36.15,0,0,1,4.1.24Zm-7.87-.23h-4V17h4Zm-8,0h-4V17h4Zm-8,0h-4V17h4Zm-8,0h-4V17h4Zm-8,0h-4V17h4Zm-8,0h-4V17h4Zm-8,0h-4V17h4Zm-8,0h-4V17h4Zm-8,0h-4V17h4Zm-8,0h-4V17h4Zm-8,0h-4V17h4Zm-8,0h-4V17h4Zm-8,0h-4V17h4Zm-8,0h-4V17h4Zm-8,0h-4V17h4Zm-8,0h-4V17h4Zm-8,0h-4V17h4Zm-8,0h-4V17h4Zm-8,0h-4V17h4Zm-8,0h-4V17h4Zm-8,0h-4V17h4Zm-8,0h-4V17h4Zm-8,0h-4V17h4Zm-8,0h-4V17h4Zm-8,0h-4V17h4Zm-8,0h-4V17h4Z"/><path class="cls-3" d="M831.55,184.16H801a1,1,0,0,1,0-2h30.55a1,1,0,0,1,0,2Z"/><polygon class="cls-3" points="824.92 191.34 823.55 189.88 830.78 183.16 823.55 176.45 824.92 174.98 833.72 183.16 824.92 191.34"/><path class="cls-4" d="M791.57,170.27H459.36v25.78h332.2c2.45,0,4.43-5.77,4.43-12.89S794,170.27,791.57,170.27Z"/><ellipse class="cls-5" cx="459.65" cy="183.21" rx="4.15" ry="12.07"/><path class="cls-4" d="M459.65,196.28c-3.38,0-5.15-6.58-5.15-13.07s1.77-13.07,5.15-13.07,5.15,6.58,5.15,13.07S463,196.28,459.65,196.28Zm0-24.14c-1.25,0-3.15,4.42-3.15,11.07s1.89,11.07,3.15,11.07,3.15-4.42,3.15-11.07S460.9,172.14,459.65,172.14Z"/><path class="cls-3" d="M460.27,184.16H421.06a1,1,0,0,1,0-2h39.21a1,1,0,0,1,0,2Z"/><polygon class="cls-3" points="427.69 191.34 429.05 189.88 421.83 183.16 429.05 176.45 427.69 174.98 418.89 183.16 427.69 191.34"/><path class="cls-5" d="M789.89,184.16h-1.37v-2h1.37Zm-5.37,0h-4v-2h4Zm-8,0h-4v-2h4Zm-8,0h-4v-2h4Zm-8,0h-4v-2h4Zm-8,0h-4v-2h4Zm-8,0h-4v-2h4Zm-8,0h-4v-2h4Zm-8,0h-4v-2h4Zm-8,0h-4v-2h4Zm-8,0h-4v-2h4Zm-8,0h-4v-2h4Zm-8,0h-4v-2h4Zm-8,0h-4v-2h4Zm-8,0h-4v-2h4Zm-8,0h-4v-2h4Zm-8,0h-4v-2h4Zm-8,0h-4v-2h4Zm-8,0h-4v-2h4Zm-8,0h-4v-2h4Zm-8,0h-4v-2h4Zm-8,0h-4v-2h4Zm-8,0h-4v-2h4Zm-8,0h-4v-2h4Zm-8,0h-4v-2h4Zm-8,0h-4v-2h4Zm-8,0h-4v-2h4Zm-8,0h-4v-2h4Zm-8,0h-4v-2h4Zm-8,0h-4v-2h4Zm-8,0h-4v-2h4Zm-8,0h-4v-2h4Zm-8,0h-4v-2h4Zm-8,0h-4v-2h4Zm-8,0h-4v-2h4Zm-8,0h-4v-2h4Zm-8,0h-4v-2h4Zm-8,0h-4v-2h4Zm-8,0h-4v-2h4Zm-8,0h-4v-2h4Zm-8,0h-4v-2h4Z"/><path class="cls-5" d="M591.91,174.14a16.65,16.65,0,0,1,23.38-21.8,32.27,32.27,0,0,1,60.84,15c0,.4,0,.81,0,1.21A28.16,28.16,0,0,1,663.62,222H599.41a24.52,24.52,0,0,1-7.5-47.86Z"/><path class="cls-6" d="M663.62,223H599.42a25.52,25.52,0,0,1-8.88-49.44,17.43,17.43,0,0,1-1.4-6.87A17.65,17.65,0,0,1,614.9,151a33.27,33.27,0,0,1,62.23,16.41c0,.2,0,.4,0,.61a29.16,29.16,0,0,1-13.5,55Zm-56.81-72a15.69,15.69,0,0,0-15.67,15.68,15.52,15.52,0,0,0,1.67,7l.52,1-1.11.36a23.52,23.52,0,0,0,7.2,45.9h64.21a27.16,27.16,0,0,0,12-51.5l-.58-.29,0-.65c0-.43,0-.8,0-1.17a31.27,31.27,0,0,0-59-14.58l-.49.93-.9-.54A15.64,15.64,0,0,0,606.81,151Z"/><path class="cls-7" d="M340.2,225.25h-3.43v9.53h-1.44v-9.53h-3.42v-1.14h8.29Z"/><path class="cls-7" d="M349.83,234.78h-1.44v-4.71h-5.18v4.71h-1.44V224.12h1.44v4.82h5.18v-4.82h1.44Z"/><path class="cls-7" d="M360.26,224.12v7.23a3.24,3.24,0,0,1-1.13,2.67,4.53,4.53,0,0,1-3,.92,4.26,4.26,0,0,1-2.85-.93,3.29,3.29,0,0,1-1.1-2.66v-7.23h1.44v7.22a2.35,2.35,0,0,0,.69,1.83,2.6,2.6,0,0,0,1.82.63,2.84,2.84,0,0,0,1.92-.63,2.28,2.28,0,0,0,.73-1.83v-7.22Z"/><path class="cls-7" d="M370.68,234.78h-1.44l-5.13-8.25h0v8.23h-1.44V224.12h1.44l5.13,8.23h0v-8.22h1.44Z"/><path class="cls-7" d="M373.32,234.78V224.12h3.27a4.38,4.38,0,0,1,4.63,4.61v1.46a4.37,4.37,0,0,1-4.63,4.6Zm1.44-9.53v8.39h1.83a2.94,2.94,0,0,0,2.33-1,3.65,3.65,0,0,0,.85-2.5v-1.47a3.63,3.63,0,0,0-.85-2.48,2.94,2.94,0,0,0-2.33-1Z"/><path class="cls-7" d="M389.52,229.84h-4.89v3.81h5.63v1.14H383.2V224.12h7v1.14h-5.55v3.45h4.89Z"/><path class="cls-7" d="M393.41,230.16v4.62H392V224.12h3.86a4.05,4.05,0,0,1,2.67.78,2.78,2.78,0,0,1,.92,2.26,2.41,2.41,0,0,1-.43,1.43,2.9,2.9,0,0,1-1.25,1,2.18,2.18,0,0,1,1.26.93,3,3,0,0,1,.38,1.59v1a3.34,3.34,0,0,0,.11.89,1.34,1.34,0,0,0,.38.64v.18h-1.49A1.19,1.19,0,0,1,398,234a6.05,6.05,0,0,1-.08-1v-1a1.93,1.93,0,0,0-.51-1.39,1.79,1.79,0,0,0-1.35-.53Zm0-1.14h2.27a2.68,2.68,0,0,0,1.76-.46,1.76,1.76,0,0,0,.54-1.41,1.82,1.82,0,0,0-.52-1.39,2.31,2.31,0,0,0-1.63-.49h-2.42Z"/><path class="cls-7" d="M413.17,231.36v0a3.21,3.21,0,0,1-1.05,2.52,4,4,0,0,1-2.86,1,3.76,3.76,0,0,1-2.95-1.28,4.71,4.71,0,0,1-1.14-3.25v-1.9a4.73,4.73,0,0,1,1.14-3.26,3.76,3.76,0,0,1,2.95-1.29,4.14,4.14,0,0,1,2.88,1,3.18,3.18,0,0,1,1,2.55v0h-1.38a2.38,2.38,0,0,0-.66-1.77,2.53,2.53,0,0,0-1.86-.65,2.27,2.27,0,0,0-1.93,1,4,4,0,0,0-.72,2.42v1.91a4,4,0,0,0,.72,2.43,2.27,2.27,0,0,0,1.93,1,2.54,2.54,0,0,0,1.86-.65,2.4,2.4,0,0,0,.66-1.79Z"/><path class="cls-7" d="M421.44,230.06h-4.86v4.72h-1.44V224.12h7.05v1.14h-5.61v3.68h4.86Z"/><path class="cls-7" d="M426,231.09l.2,1.33h0l.29-1.34,2-7h1.27l2,7,.29,1.37h0l.21-1.37,1.59-7h1.44l-2.57,10.66h-1.29l-2.1-7.4-.19-1h0l-.18,1-2.14,7.4h-1.29l-2.56-10.66h1.44Z"/><path class="cls-7" d="M823.2,225.25h-3.43v9.53h-1.44v-9.53h-3.42v-1.14h8.29Z"/><path class="cls-7" d="M832.83,234.78h-1.44v-4.71h-5.18v4.71h-1.44V224.12h1.44v4.82h5.18v-4.82h1.44Z"/><path class="cls-7" d="M843.26,224.12v7.23a3.24,3.24,0,0,1-1.13,2.67,4.52,4.52,0,0,1-3,.92,4.26,4.26,0,0,1-2.85-.93,3.29,3.29,0,0,1-1.1-2.66v-7.23h1.44v7.22a2.35,2.35,0,0,0,.69,1.83,2.6,2.6,0,0,0,1.82.63,2.84,2.84,0,0,0,1.92-.63,2.28,2.28,0,0,0,.73-1.83v-7.22Z"/><path class="cls-7" d="M853.68,234.78h-1.44l-5.13-8.25h0v8.23h-1.44V224.12h1.44l5.13,8.23h0v-8.22h1.44Z"/><path class="cls-7" d="M856.32,234.78V224.12h3.27a4.38,4.38,0,0,1,4.63,4.61v1.46a4.37,4.37,0,0,1-4.63,4.6Zm1.44-9.53v8.39h1.83a2.94,2.94,0,0,0,2.33-1,3.64,3.64,0,0,0,.85-2.5v-1.47a3.62,3.62,0,0,0-.85-2.48,2.94,2.94,0,0,0-2.33-1Z"/><path class="cls-7" d="M872.53,229.84h-4.89v3.81h5.63v1.14H866.2V224.12h7v1.14h-5.55v3.45h4.89Z"/><path class="cls-7" d="M876.41,230.16v4.62H875V224.12h3.86a4.05,4.05,0,0,1,2.67.78,2.78,2.78,0,0,1,.92,2.26,2.41,2.41,0,0,1-.43,1.43,2.9,2.9,0,0,1-1.25,1,2.18,2.18,0,0,1,1.26.93,3,3,0,0,1,.38,1.59v1a3.38,3.38,0,0,0,.11.89,1.36,1.36,0,0,0,.38.64v.18h-1.49A1.19,1.19,0,0,1,881,234a6,6,0,0,1-.08-1v-1a1.93,1.93,0,0,0-.5-1.39,1.79,1.79,0,0,0-1.35-.53Zm0-1.14h2.27a2.68,2.68,0,0,0,1.76-.46,1.76,1.76,0,0,0,.54-1.41,1.82,1.82,0,0,0-.52-1.39,2.31,2.31,0,0,0-1.63-.49h-2.42Z"/><path class="cls-7" d="M896.17,231.36v0a3.21,3.21,0,0,1-1.05,2.52,4,4,0,0,1-2.86,1,3.76,3.76,0,0,1-2.95-1.28,4.72,4.72,0,0,1-1.14-3.25v-1.9a4.73,4.73,0,0,1,1.14-3.26,3.75,3.75,0,0,1,2.95-1.29,4.14,4.14,0,0,1,2.88,1,3.18,3.18,0,0,1,1,2.55v0h-1.38a2.38,2.38,0,0,0-.66-1.77,2.53,2.53,0,0,0-1.86-.65,2.27,2.27,0,0,0-1.93,1,4,4,0,0,0-.72,2.42v1.91a4,4,0,0,0,.72,2.43,2.27,2.27,0,0,0,1.93,1,2.54,2.54,0,0,0,1.86-.65,2.4,2.4,0,0,0,.66-1.79Z"/><path class="cls-7" d="M904.44,230.06h-4.86v4.72h-1.44V224.12h7.05v1.14h-5.61v3.68h4.86Z"/><path class="cls-7" d="M909,231.09l.2,1.33h0l.29-1.34,2-7h1.27l2,7,.29,1.37h0l.21-1.37,1.59-7h1.44l-2.57,10.66h-1.29l-2.1-7.4-.19-1h0l-.18,1-2.14,7.4h-1.29l-2.56-10.66h1.44Z"/><path class="cls-7" d="M149.62,117.25l.2,1.33h0l.29-1.34,2-7h1.27l2,7,.29,1.37h0l.21-1.37,1.59-7h1.44l-2.57,10.66h-1.29l-2.1-7.4-.19-1h0l-.18,1-2.14,7.4h-1.29l-2.56-10.66H148Z"/><path class="cls-7" d="M167.06,116h-4.89v3.81h5.63v1.14h-7.08V110.28h7v1.14h-5.55v3.45h4.89Z"/><path class="cls-7" d="M169.5,120.94V110.28H173a4.22,4.22,0,0,1,2.61.72,2.55,2.55,0,0,1,.94,2.16,2,2,0,0,1-.45,1.27,2.69,2.69,0,0,1-1.19.83,2.46,2.46,0,0,1,1.52.94,2.8,2.8,0,0,1,.55,1.72,2.72,2.72,0,0,1-.95,2.24,4,4,0,0,1-2.57.77Zm1.44-6.13h2.34a1.92,1.92,0,0,0,1.31-.44,1.78,1.78,0,0,0,0-2.53,2.5,2.5,0,0,0-1.57-.43h-2Zm0,1.14v3.86h2.5a2.23,2.23,0,0,0,1.53-.49,1.74,1.74,0,0,0,.55-1.37,2.18,2.18,0,0,0-.46-1.47,1.76,1.76,0,0,0-1.41-.53Z"/><path class="cls-7" d="M148.32,184.94V174.28h3.27a4.38,4.38,0,0,1,4.63,4.61v1.46a4.37,4.37,0,0,1-4.63,4.6Zm1.44-9.53v8.39h1.83a2.94,2.94,0,0,0,2.33-1,3.65,3.65,0,0,0,.85-2.5v-1.47a3.63,3.63,0,0,0-.85-2.48,2.94,2.94,0,0,0-2.33-1Z"/><path class="cls-7" d="M166.26,184.94h-1.44l-5.13-8.25h0v8.23H158.2V174.28h1.44l5.13,8.23h0v-8.22h1.44Z"/><path class="cls-7" d="M174.71,182.25a1.57,1.57,0,0,0-.55-1.22,4.64,4.64,0,0,0-1.95-.83,6.44,6.44,0,0,1-2.64-1.19,2.46,2.46,0,0,1-.95-2,2.59,2.59,0,0,1,1-2.08,4,4,0,0,1,2.65-.84,3.94,3.94,0,0,1,2.79,1,2.83,2.83,0,0,1,1,2.23v0h-1.38a2,2,0,0,0-.62-1.52,3,3,0,0,0-3.43-.09,1.59,1.59,0,0,0-.57,1.27,1.4,1.4,0,0,0,.62,1.16,5.91,5.91,0,0,0,2,.82,5.77,5.77,0,0,1,2.56,1.23,2.63,2.63,0,0,1,.88,2,2.46,2.46,0,0,1-1.05,2.07,4.5,4.5,0,0,1-2.75.78,4.77,4.77,0,0,1-2.82-.87,2.62,2.62,0,0,1-1.19-2.32v0h1.38a1.79,1.79,0,0,0,.75,1.56,3.15,3.15,0,0,0,1.87.53,2.91,2.91,0,0,0,1.73-.46A1.46,1.46,0,0,0,174.71,182.25Z"/><path class="cls-7" d="M124.87,289.56a4.55,4.55,0,0,1-1.21,3.24,4.12,4.12,0,0,1-3.15,1.29,3.91,3.91,0,0,1-3-1.29,4.65,4.65,0,0,1-1.17-3.24v-1.9a4.66,4.66,0,0,1,1.17-3.24,3.9,3.9,0,0,1,3-1.3,4.12,4.12,0,0,1,3.15,1.29,4.57,4.57,0,0,1,1.21,3.25Zm-1.44-1.91a3.6,3.6,0,0,0-.79-2.4,2.64,2.64,0,0,0-2.12-.94,2.44,2.44,0,0,0-2,.94,3.72,3.72,0,0,0-.75,2.4v1.91a3.74,3.74,0,0,0,.75,2.42,2.44,2.44,0,0,0,2,.94,2.64,2.64,0,0,0,2.13-.93,3.63,3.63,0,0,0,.79-2.42Z"/><path class="cls-7" d="M134,284.41h-3.43v9.53h-1.44v-9.53h-3.42v-1.14H134Z"/><path class="cls-7" d="M143.68,293.94h-1.44v-4.71h-5.18v4.71h-1.44V283.28h1.44v4.82h5.18v-4.82h1.44Z"/><path class="cls-7" d="M152.64,289h-4.89v3.81h5.63v1.14h-7.08V283.28h7v1.14h-5.55v3.45h4.89Z"/><path class="cls-7" d="M156.52,289.32v4.62h-1.44V283.28h3.86a4.05,4.05,0,0,1,2.67.78,2.78,2.78,0,0,1,.92,2.26,2.41,2.41,0,0,1-.43,1.43,2.9,2.9,0,0,1-1.25,1,2.18,2.18,0,0,1,1.26.93,3,3,0,0,1,.38,1.59v1a3.34,3.34,0,0,0,.11.89,1.34,1.34,0,0,0,.38.64v.18h-1.49a1.19,1.19,0,0,1-.37-.73,6.05,6.05,0,0,1-.08-1v-1a1.93,1.93,0,0,0-.51-1.39,1.79,1.79,0,0,0-1.35-.53Zm0-1.14h2.27a2.68,2.68,0,0,0,1.76-.46,1.76,1.76,0,0,0,.54-1.41,1.82,1.82,0,0,0-.52-1.39,2.31,2.31,0,0,0-1.63-.49h-2.42Z"/><path class="cls-7" d="M174.52,291.19h-4.47l-1,2.75h-1.47l4.12-10.66h1.24L177,293.94h-1.47Zm-4-1.21h3.59l-1.76-4.86h0Z"/><path class="cls-7" d="M179.9,289.66v4.28h-1.44V283.28h4.08a3.75,3.75,0,0,1,2.65.88,3.32,3.32,0,0,1,0,4.64,3.77,3.77,0,0,1-2.65.87Zm0-1.14h2.64a2.11,2.11,0,0,0,1.61-3.52,2.07,2.07,0,0,0-1.61-.59H179.9Z"/><path class="cls-7" d="M189.51,289.66v4.28h-1.44V283.28h4.08a3.75,3.75,0,0,1,2.65.88,3.32,3.32,0,0,1,0,4.64,3.77,3.77,0,0,1-2.65.87Zm0-1.14h2.64a2.11,2.11,0,0,0,1.61-3.52,2.07,2.07,0,0,0-1.61-.59h-2.64Z"/><path class="cls-7" d="M203.48,291.25a1.57,1.57,0,0,0-.55-1.22,4.64,4.64,0,0,0-1.95-.83,6.44,6.44,0,0,1-2.64-1.19,2.46,2.46,0,0,1-.95-2,2.59,2.59,0,0,1,1-2.08,4,4,0,0,1,2.65-.84,3.94,3.94,0,0,1,2.79,1,2.83,2.83,0,0,1,1,2.23v0h-1.38a2,2,0,0,0-.62-1.52,3,3,0,0,0-3.43-.09,1.59,1.59,0,0,0-.57,1.27,1.4,1.4,0,0,0,.62,1.16,5.91,5.91,0,0,0,2,.82,5.77,5.77,0,0,1,2.56,1.23,2.63,2.63,0,0,1,.88,2,2.46,2.46,0,0,1-1.05,2.07,4.5,4.5,0,0,1-2.75.78,4.77,4.77,0,0,1-2.82-.87,2.62,2.62,0,0,1-1.19-2.32v0h1.38a1.79,1.79,0,0,0,.75,1.56,3.15,3.15,0,0,0,1.87.53,2.91,2.91,0,0,0,1.73-.46A1.46,1.46,0,0,0,203.48,291.25Z"/><path class="cls-8" d="M191.83,152.06v-.47a2,2,0,0,0-2-2H131.38a2,2,0,0,0-2,2v13.47a2,2,0,0,0,2,2H189.8a2,2,0,0,0,2-2v-13Z"/><rect class="cls-9" x="144.97" y="156.92" width="12.79" height="2"/><rect class="cls-9" x="135.59" y="156.92" width="1.99" height="2"/><rect class="cls-9" x="179.08" y="159.84" width="1.99" height="1.99"/><rect class="cls-9" x="176.82" y="156.92" width="1.99" height="2"/><rect class="cls-9" x="179.08" y="154.01" width="1.99" height="1.99"/><rect class="cls-9" x="183.59" y="159.84" width="2" height="1.99"/><rect class="cls-9" x="181.34" y="156.92" width="1.99" height="2"/><rect class="cls-9" x="183.59" y="154.01" width="2" height="1.99"/><rect class="cls-9" x="174.56" y="159.84" width="1.99" height="1.99"/><rect class="cls-9" x="174.56" y="154.01" width="1.99" height="1.99"/><rect class="cls-9" x="165.52" y="159.84" width="2" height="1.99"/><rect class="cls-9" x="163.26" y="156.92" width="1.99" height="2"/><rect class="cls-9" x="165.52" y="154.01" width="2" height="1.99"/><rect class="cls-9" x="172.3" y="156.92" width="1.99" height="2"/><rect class="cls-9" x="167.78" y="156.92" width="1.99" height="2"/><rect class="cls-9" x="170.04" y="154.01" width="1.99" height="1.99"/><rect class="cls-9" x="170.04" y="159.84" width="1.99" height="1.99"/><circle class="cls-10" cx="865.06" cy="180.39" r="29.94"/><path class="cls-5" d="M853.91,197.94h-.47a8.86,8.86,0,0,1-8.37-9.3,8,8,0,0,1,1.18-4,9.24,9.24,0,0,1,4.63-3.89l1-.48c2.46-1.19,4.58-2.22,5.21-4.87l.43-1.8,7.91,8.4-.16.55c-.37,1.26-2.15,6.81-2.8,8.81A8.86,8.86,0,0,1,853.91,197.94Zm4.51-20.42c-1.23,2.41-3.58,3.55-5.69,4.57l-1,.49-.11,0a7.25,7.25,0,0,0-3.66,3.09,6,6,0,0,0-.88,3,6.85,6.85,0,0,0,13.46,2.1c.59-1.82,2.06-6.41,2.63-8.26Z"/><path class="cls-5" d="M878.92,196.82h-.41a9.24,9.24,0,0,1-5.64-2.16L872,194c-2.23-1.57-4.16-2.93-6.79-2.2l-1.78.49,3.51-11,.56-.13c1.31-.29,7.18-1.46,9.06-1.82a8.85,8.85,0,0,1,6,16.54A8.09,8.09,0,0,1,878.92,196.82Zm-12.3-7.19c2.58,0,4.65,1.45,6.51,2.76l.91.63.1.08a7.25,7.25,0,0,0,4.48,1.71,6,6,0,0,0,3.06-.69A6.85,6.85,0,0,0,877,181.33c-1.72.34-6.57,1.3-8.5,1.71l-2.11,6.6Z"/><path class="cls-5" d="M865.43,180.26l-.4-.41c-.93-1-4.9-5.33-6.24-6.82a8.85,8.85,0,0,1,11.07-13.69,8,8,0,0,1,2.84,3,9.24,9.24,0,0,1,1.06,5.95c0,.36,0,.72-.07,1.08-.19,2.72-.36,5.07,1.62,6.95l1.34,1.27Zm-.37-20.34a6.92,6.92,0,0,0-1.44.15,6.85,6.85,0,0,0-3.38,11.57c1.18,1.3,4.51,5,5.85,6.4l6.74-1.6c-1.48-2.26-1.29-4.87-1.13-7.21,0-.37.05-.74.07-1.11V168a7.25,7.25,0,0,0-.85-4.71,6,6,0,0,0-2.17-2.26A6.8,6.8,0,0,0,865.06,159.92Z"/><circle class="cls-10" cx="386.06" cy="180.39" r="29.94"/><path class="cls-5" d="M374.91,197.94h-.47a8.85,8.85,0,0,1-8.37-9.3,8,8,0,0,1,1.18-4,9.24,9.24,0,0,1,4.63-3.89l1-.48c2.46-1.19,4.58-2.22,5.21-4.87l.43-1.8,7.91,8.4-.16.55c-.36,1.24-2.12,6.73-2.8,8.81A8.86,8.86,0,0,1,374.91,197.94Zm4.51-20.42c-1.23,2.41-3.58,3.55-5.69,4.57l-1,.49-.12,0a7.25,7.25,0,0,0-3.66,3.09,6,6,0,0,0-.88,3,6.85,6.85,0,0,0,6.48,7.2,6.9,6.9,0,0,0,7-5.1c.61-1.89,2.07-6.43,2.63-8.26Z"/><path class="cls-5" d="M399.92,196.82h-.42a9.23,9.23,0,0,1-5.64-2.16L393,194c-2.23-1.57-4.16-2.93-6.79-2.2l-1.78.49,3.51-11,.56-.13c1.31-.29,7.18-1.46,9.06-1.82a8.85,8.85,0,0,1,6,16.54A8.08,8.08,0,0,1,399.92,196.82Zm-12.3-7.19c2.59,0,4.65,1.45,6.51,2.76l.91.63.1.08a7.25,7.25,0,0,0,4.48,1.71,6,6,0,0,0,3.06-.69A6.85,6.85,0,0,0,398,181.33c-1.72.34-6.57,1.3-8.5,1.71l-2.11,6.6Z"/><path class="cls-5" d="M386.43,180.26l-.4-.41c-.93-1-4.9-5.33-6.24-6.82a8.85,8.85,0,0,1,11.07-13.69,8,8,0,0,1,2.84,3,9.23,9.23,0,0,1,1.06,5.95c0,.36,0,.72-.07,1.08-.19,2.72-.36,5.07,1.62,6.95l1.34,1.27Zm-.37-20.34a6.91,6.91,0,0,0-1.44.15,6.85,6.85,0,0,0-3.38,11.57c1.18,1.3,4.51,5,5.85,6.4l6.74-1.6c-1.48-2.26-1.29-4.87-1.13-7.22,0-.37.05-.74.07-1.11V168a7.24,7.24,0,0,0-.85-4.71,6,6,0,0,0-2.17-2.26A6.8,6.8,0,0,0,386.06,159.92Z"/><path class="cls-9" d="M162,103.52a25.38,25.38,0,1,1,25.38-25.37A25.4,25.4,0,0,1,162,103.52Zm0-48.75a23.38,23.38,0,1,0,23.38,23.38A23.4,23.4,0,0,0,162,54.77Z"/><path class="cls-9" d="M162,103.52c-9.75,0-14.85-12.77-14.85-25.37s5.1-25.37,14.85-25.37,14.85,12.77,14.85,25.38S171.72,103.52,162,103.52Zm0-48.75c-6.39,0-12.85,8-12.85,23.38s6.46,23.38,12.85,23.38,12.85-8,12.85-23.37S168.35,54.77,162,54.77Z"/><path class="cls-9" d="M162,67.63a91.49,91.49,0,0,1-20.49-2.08,1,1,0,0,1,.5-1.94,89.8,89.8,0,0,0,20,2,89.28,89.28,0,0,0,20-2,1,1,0,0,1,.5,1.94A89.74,89.74,0,0,1,162,67.63Z"/><path class="cls-9" d="M141.73,92.72a1,1,0,0,1-.26-2,95.21,95.21,0,0,1,20.85-2.1,86.59,86.59,0,0,1,20.12,2.08,1,1,0,0,1-.5,1.94h0a84.38,84.38,0,0,0-19.62-2,93.27,93.27,0,0,0-20.35,2A1,1,0,0,1,141.73,92.72Z"/><path class="cls-9" d="M186.34,79.5H137.59a1,1,0,0,1,0-2h48.75a1,1,0,0,1,0,2Z"/><path class="cls-9" d="M162,103.52a1,1,0,0,1-1-1V53.77a1,1,0,0,1,2,0v48.75A1,1,0,0,1,162,103.52Z"/><rect class="cls-9" x="160.32" y="258.89" width="2" height="8.45"/><rect class="cls-9" x="139.72" y="270.86" width="15.33" height="2"/><rect class="cls-9" x="167.37" y="270.86" width="15.24" height="2"/><path class="cls-9" d="M161.13,276.46a4.6,4.6,0,1,1,4.6-4.6A4.61,4.61,0,0,1,161.13,276.46Zm0-7.2a2.6,2.6,0,1,0,2.6,2.6A2.6,2.6,0,0,0,161.13,269.26Z"/><path class="cls-9" d="M177.1,259.89H145.22a8.74,8.74,0,0,1-8.73-8.73v-31.9a8.74,8.74,0,0,1,8.73-8.73H177.1a8.74,8.74,0,0,1,8.73,8.73v31.9A8.74,8.74,0,0,1,177.1,259.89Zm-31.88-47.36a6.73,6.73,0,0,0-6.73,6.73v31.9a6.73,6.73,0,0,0,6.73,6.73H177.1a6.73,6.73,0,0,0,6.73-6.73v-31.9a6.73,6.73,0,0,0-6.73-6.73Z"/><path class="cls-9" d="M152.43,238.26H147l-1.24,3.36h-1.8l5-13h1.51l5,13h-1.8Zm-4.92-1.48h4.39l-2.15-5.94h-.05Z"/><path class="cls-9" d="M159,236.39v5.23h-1.76v-13h5a4.58,4.58,0,0,1,3.24,1.07,4.06,4.06,0,0,1,0,5.67,4.62,4.62,0,0,1-3.24,1.06Zm0-1.39h3.22a2.52,2.52,0,1,0,0-5H159Z"/><path class="cls-9" d="M170.75,236.39v5.23H169v-13h5a4.58,4.58,0,0,1,3.24,1.07,4.06,4.06,0,0,1,0,5.67,4.61,4.61,0,0,1-3.24,1.06Zm0-1.39H174a2.52,2.52,0,1,0,0-5h-3.22Z"/><rect class="cls-2" x="89.09" y="338" width="143" height="34"/><path class="cls-5" d="M107.26,361.33V350.67h3.27a4.38,4.38,0,0,1,4.63,4.61v1.46a4.37,4.37,0,0,1-4.63,4.6Zm1.44-9.53v8.39h1.83a2.94,2.94,0,0,0,2.33-1,3.65,3.65,0,0,0,.85-2.5v-1.47a3.63,3.63,0,0,0-.85-2.48,2.94,2.94,0,0,0-2.33-1Z"/><path class="cls-5" d="M122.77,358.58H118.3l-1,2.75h-1.47l4.12-10.66h1.24l4.06,10.66h-1.47Zm-4-1.21h3.59l-1.76-4.86h0Z"/><path class="cls-5" d="M133.92,351.8H130.5v9.53h-1.44V351.8h-3.42v-1.14h8.29Z"/><path class="cls-5" d="M140.48,358.58H136l-1,2.75h-1.47l4.12-10.66h1.24l4.06,10.66h-1.47Zm-4-1.21H140l-1.76-4.86h0Z"/><path class="cls-5" d="M155.68,357.91v0a3.21,3.21,0,0,1-1.05,2.52,4,4,0,0,1-2.86,1,3.76,3.76,0,0,1-2.95-1.28,4.71,4.71,0,0,1-1.14-3.25v-1.9a4.73,4.73,0,0,1,1.14-3.26,3.76,3.76,0,0,1,2.95-1.29,4.14,4.14,0,0,1,2.88,1,3.18,3.18,0,0,1,1,2.55v0h-1.38a2.38,2.38,0,0,0-.66-1.77,2.53,2.53,0,0,0-1.86-.65,2.27,2.27,0,0,0-1.93,1,4,4,0,0,0-.72,2.42v1.91a4,4,0,0,0,.72,2.43,2.27,2.27,0,0,0,1.93,1,2.54,2.54,0,0,0,1.86-.65,2.4,2.4,0,0,0,.66-1.79Z"/><path class="cls-5" d="M164,356.39h-4.89v3.81h5.63v1.14h-7.08V350.67h7v1.14h-5.55v3.45H164Z"/><path class="cls-5" d="M174.47,361.33H173l-5.13-8.25h0v8.23h-1.44V350.67h1.44L173,358.9h0v-8.22h1.44Z"/><path class="cls-5" d="M184.12,351.8h-3.43v9.53h-1.44V351.8h-3.42v-1.14h8.29Z"/><path class="cls-5" d="M192,356.39h-4.89v3.81h5.63v1.14h-7.08V350.67h7v1.14h-5.55v3.45H192Z"/><path class="cls-5" d="M195.89,356.71v4.62h-1.44V350.67h3.86a4.05,4.05,0,0,1,2.67.78,2.78,2.78,0,0,1,.92,2.26,2.41,2.41,0,0,1-.43,1.43,2.9,2.9,0,0,1-1.25,1,2.18,2.18,0,0,1,1.26.93,3,3,0,0,1,.38,1.59v1a3.34,3.34,0,0,0,.11.89,1.34,1.34,0,0,0,.38.64v.18h-1.49a1.19,1.19,0,0,1-.37-.73,6.05,6.05,0,0,1-.08-1v-1a1.93,1.93,0,0,0-.51-1.39,1.79,1.79,0,0,0-1.35-.53Zm0-1.14h2.27a2.68,2.68,0,0,0,1.76-.46,1.76,1.76,0,0,0,.54-1.41,1.82,1.82,0,0,0-.52-1.39,2.31,2.31,0,0,0-1.63-.49h-2.42Z"/><path class="cls-5" d="M211.79,361.33h-1.44v-9.26l-2.18,0v-1l3.63-.4Z"/><path class="cls-7" d="M1077.88,123.25l.2,1.33h0l.29-1.34,2-7h1.27l2,7,.29,1.37h0l.21-1.37,1.59-7h1.44l-2.57,10.66h-1.29l-2.1-7.4-.19-1h0l-.18,1-2.14,7.4h-1.29l-2.56-10.66h1.44Z"/><path class="cls-7" d="M1095.32,122h-4.88v3.81h5.63v1.14H1089V116.28h7v1.14h-5.55v3.45h4.88Z"/><path class="cls-7" d="M1097.76,126.94V116.28h3.48a4.22,4.22,0,0,1,2.62.72,2.55,2.55,0,0,1,.94,2.16,2,2,0,0,1-.45,1.27,2.68,2.68,0,0,1-1.19.83,2.46,2.46,0,0,1,1.52.94,2.8,2.8,0,0,1,.55,1.72,2.72,2.72,0,0,1-.95,2.24,4,4,0,0,1-2.57.77Zm1.44-6.13h2.34a1.91,1.91,0,0,0,1.31-.44,1.78,1.78,0,0,0,0-2.53,2.5,2.5,0,0,0-1.57-.43h-2Zm0,1.14v3.86h2.5a2.23,2.23,0,0,0,1.53-.49,1.74,1.74,0,0,0,.55-1.37,2.18,2.18,0,0,0-.46-1.47,1.76,1.76,0,0,0-1.41-.53Z"/><path class="cls-7" d="M1076.58,190.94V180.28h3.27a4.38,4.38,0,0,1,4.63,4.61v1.46a4.37,4.37,0,0,1-4.63,4.6Zm1.44-9.53v8.39h1.83a2.94,2.94,0,0,0,2.33-1,3.65,3.65,0,0,0,.85-2.5v-1.47a3.63,3.63,0,0,0-.85-2.48,2.94,2.94,0,0,0-2.33-1Z"/><path class="cls-7" d="M1094.52,190.94h-1.44l-5.13-8.25h0v8.23h-1.44V180.28h1.44l5.13,8.23h0v-8.22h1.44Z"/><path class="cls-7" d="M1103,188.25a1.57,1.57,0,0,0-.55-1.22,4.64,4.64,0,0,0-1.95-.83,6.44,6.44,0,0,1-2.64-1.19,2.46,2.46,0,0,1-.95-2,2.59,2.59,0,0,1,1-2.08,4,4,0,0,1,2.65-.84,3.94,3.94,0,0,1,2.79,1,2.83,2.83,0,0,1,1,2.23v0h-1.38a2,2,0,0,0-.62-1.52,3,3,0,0,0-3.43-.09,1.58,1.58,0,0,0-.58,1.27,1.4,1.4,0,0,0,.62,1.16,5.91,5.91,0,0,0,2,.82,5.77,5.77,0,0,1,2.56,1.23,2.63,2.63,0,0,1,.88,2,2.46,2.46,0,0,1-1.05,2.07,4.5,4.5,0,0,1-2.75.78,4.77,4.77,0,0,1-2.82-.87,2.62,2.62,0,0,1-1.19-2.32v0H1098a1.79,1.79,0,0,0,.75,1.56,3.15,3.15,0,0,0,1.87.53,2.91,2.91,0,0,0,1.73-.46A1.46,1.46,0,0,0,1103,188.25Z"/><path class="cls-7" d="M1054.5,295.56a4.55,4.55,0,0,1-1.21,3.24,4.12,4.12,0,0,1-3.15,1.29,3.9,3.9,0,0,1-3-1.29,4.65,4.65,0,0,1-1.17-3.24v-1.9a4.66,4.66,0,0,1,1.17-3.24,3.89,3.89,0,0,1,3-1.3,4.12,4.12,0,0,1,3.15,1.29,4.57,4.57,0,0,1,1.21,3.25Zm-1.44-1.91a3.6,3.6,0,0,0-.79-2.4,2.64,2.64,0,0,0-2.12-.94,2.44,2.44,0,0,0-2,.94,3.72,3.72,0,0,0-.75,2.4v1.91a3.74,3.74,0,0,0,.75,2.42,2.44,2.44,0,0,0,2,.94,2.64,2.64,0,0,0,2.13-.93,3.63,3.63,0,0,0,.79-2.42Z"/><path class="cls-7" d="M1063.68,290.41h-3.43v9.53h-1.44v-9.53h-3.42v-1.14h8.29Z"/><path class="cls-7" d="M1073.31,299.94h-1.44v-4.71h-5.18v4.71h-1.44V289.28h1.44v4.82h5.18v-4.82h1.44Z"/><path class="cls-7" d="M1082.27,295h-4.89v3.81H1083v1.14h-7.08V289.28h7v1.14h-5.55v3.45h4.89Z"/><path class="cls-7" d="M1086.15,295.32v4.62h-1.44V289.28h3.86a4,4,0,0,1,2.67.78,2.78,2.78,0,0,1,.92,2.26,2.41,2.41,0,0,1-.43,1.43,2.9,2.9,0,0,1-1.25,1,2.18,2.18,0,0,1,1.26.93,3,3,0,0,1,.38,1.59v1a3.34,3.34,0,0,0,.11.89,1.34,1.34,0,0,0,.38.64v.18h-1.49a1.19,1.19,0,0,1-.37-.73,6.05,6.05,0,0,1-.08-1v-1a1.93,1.93,0,0,0-.51-1.39,1.79,1.79,0,0,0-1.35-.53Zm0-1.14h2.27a2.68,2.68,0,0,0,1.76-.46,1.77,1.77,0,0,0,.54-1.41,1.82,1.82,0,0,0-.52-1.39,2.31,2.31,0,0,0-1.63-.49h-2.42Z"/><path class="cls-7" d="M1104.16,297.19h-4.47l-1,2.75h-1.47l4.12-10.66h1.24l4.06,10.66h-1.47Zm-4-1.21h3.59l-1.76-4.86h0Z"/><path class="cls-7" d="M1109.53,295.66v4.28h-1.44V289.28h4.08a3.75,3.75,0,0,1,2.65.88,3.32,3.32,0,0,1,0,4.64,3.77,3.77,0,0,1-2.65.87Zm0-1.14h2.64a2.11,2.11,0,0,0,1.61-3.52,2.07,2.07,0,0,0-1.61-.59h-2.64Z"/><path class="cls-7" d="M1119.14,295.66v4.28h-1.44V289.28h4.08a3.75,3.75,0,0,1,2.65.88,3.32,3.32,0,0,1,0,4.64,3.77,3.77,0,0,1-2.65.87Zm0-1.14h2.64a2.11,2.11,0,0,0,1.61-3.52,2.07,2.07,0,0,0-1.61-.59h-2.64Z"/><path class="cls-7" d="M1133.12,297.25a1.57,1.57,0,0,0-.55-1.22,4.64,4.64,0,0,0-1.95-.83A6.45,6.45,0,0,1,1128,294a2.46,2.46,0,0,1-.95-2,2.59,2.59,0,0,1,1-2.08,4,4,0,0,1,2.65-.84,3.94,3.94,0,0,1,2.79,1,2.83,2.83,0,0,1,1,2.23v0h-1.38a2,2,0,0,0-.62-1.52,3,3,0,0,0-3.43-.09,1.59,1.59,0,0,0-.57,1.27,1.4,1.4,0,0,0,.62,1.16,5.91,5.91,0,0,0,2,.82,5.77,5.77,0,0,1,2.56,1.23,2.63,2.63,0,0,1,.88,2,2.46,2.46,0,0,1-1.05,2.07,4.5,4.5,0,0,1-2.75.78,4.77,4.77,0,0,1-2.82-.87,2.62,2.62,0,0,1-1.19-2.32v0h1.38a1.79,1.79,0,0,0,.75,1.56,3.15,3.15,0,0,0,1.87.53,2.91,2.91,0,0,0,1.73-.46A1.46,1.46,0,0,0,1133.12,297.25Z"/><path class="cls-8" d="M1121.46,158.06v-.47a2,2,0,0,0-2-2H1061a2,2,0,0,0-2,2v13.47a2,2,0,0,0,2,2h58.42a2,2,0,0,0,2-2v-13Z"/><rect class="cls-9" x="1074.61" y="162.92" width="12.79" height="2"/><rect class="cls-9" x="1065.23" y="162.92" width="1.99" height="2"/><rect class="cls-9" x="1108.71" y="165.84" width="1.99" height="1.99"/><rect class="cls-9" x="1106.45" y="162.92" width="1.99" height="2"/><rect class="cls-9" x="1108.71" y="160.01" width="1.99" height="1.99"/><rect class="cls-9" x="1113.23" y="165.84" width="2" height="1.99"/><rect class="cls-9" x="1110.97" y="162.92" width="1.99" height="2"/><rect class="cls-9" x="1113.23" y="160.01" width="2" height="1.99"/><rect class="cls-9" x="1104.19" y="165.84" width="1.99" height="1.99"/><rect class="cls-9" x="1104.19" y="160.01" width="1.99" height="1.99"/><rect class="cls-9" x="1095.15" y="165.84" width="2" height="1.99"/><rect class="cls-9" x="1092.89" y="162.92" width="1.99" height="2"/><rect class="cls-9" x="1095.15" y="160.01" width="2" height="1.99"/><rect class="cls-9" x="1101.93" y="162.92" width="1.99" height="2"/><rect class="cls-9" x="1097.41" y="162.92" width="1.99" height="2"/><rect class="cls-9" x="1099.67" y="160.01" width="1.99" height="1.99"/><rect class="cls-9" x="1099.67" y="165.84" width="1.99" height="1.99"/><path class="cls-9" d="M1090.23,109.52a25.38,25.38,0,1,1,25.38-25.37A25.4,25.4,0,0,1,1090.23,109.52Zm0-48.75a23.38,23.38,0,1,0,23.38,23.38A23.4,23.4,0,0,0,1090.23,60.77Z"/><path class="cls-9" d="M1090.23,109.52c-9.75,0-14.85-12.77-14.85-25.37s5.1-25.37,14.85-25.37,14.85,12.77,14.85,25.38S1100,109.52,1090.23,109.52Zm0-48.75c-6.39,0-12.85,8-12.85,23.38s6.46,23.38,12.85,23.38,12.85-8,12.85-23.37S1096.61,60.77,1090.23,60.77Z"/><path class="cls-9" d="M1090.23,73.63a91.49,91.49,0,0,1-20.49-2.08,1,1,0,0,1,.5-1.94,89.81,89.81,0,0,0,20,2,89.21,89.21,0,0,0,20-2,1,1,0,0,1,.51,1.93A91.3,91.3,0,0,1,1090.23,73.63Z"/><path class="cls-9" d="M1070,98.72a1,1,0,0,1-.25-2,96.41,96.41,0,0,1,20.85-2.1,86.59,86.59,0,0,1,20.12,2.08,1,1,0,0,1-.5,1.94h0a84.39,84.39,0,0,0-19.62-2,93.51,93.51,0,0,0-20.35,2A1,1,0,0,1,1070,98.72Z"/><path class="cls-9" d="M1114.6,85.5h-48.75a1,1,0,0,1,0-2h48.75a1,1,0,0,1,0,2Z"/><path class="cls-9" d="M1090.23,109.52a1,1,0,0,1-1-1V59.77a1,1,0,0,1,2,0v48.75A1,1,0,0,1,1090.23,109.52Z"/><rect class="cls-9" x="1089.38" y="264.89" width="2" height="8.45"/><rect class="cls-9" x="1068.79" y="276.86" width="15.33" height="2"/><rect class="cls-9" x="1096.43" y="276.86" width="15.24" height="2"/><path class="cls-9" d="M1090.19,282.46a4.6,4.6,0,1,1,4.6-4.6A4.61,4.61,0,0,1,1090.19,282.46Zm0-7.2a2.6,2.6,0,1,0,2.6,2.6A2.6,2.6,0,0,0,1090.19,275.26Z"/><path class="cls-9" d="M1106.17,265.89h-31.88a8.74,8.74,0,0,1-8.73-8.73v-31.9a8.74,8.74,0,0,1,8.73-8.73h31.88a8.74,8.74,0,0,1,8.73,8.73v31.9A8.74,8.74,0,0,1,1106.17,265.89Zm-31.88-47.36a6.73,6.73,0,0,0-6.73,6.73v31.9a6.73,6.73,0,0,0,6.73,6.73h31.88a6.73,6.73,0,0,0,6.73-6.73v-31.9a6.73,6.73,0,0,0-6.73-6.73Z"/><path class="cls-9" d="M1081.49,244.26H1076l-1.24,3.36H1073l5-13h1.51l5,13h-1.8Zm-4.92-1.48H1081l-2.15-5.94h-.05Z"/><path class="cls-9" d="M1088.06,242.39v5.23h-1.76v-13h5a4.58,4.58,0,0,1,3.24,1.07,4.06,4.06,0,0,1,0,5.67,4.62,4.62,0,0,1-3.24,1.06Zm0-1.39h3.22a2.52,2.52,0,1,0,0-5h-3.22Z"/><path class="cls-9" d="M1099.81,242.39v5.23H1098v-13h5a4.58,4.58,0,0,1,3.24,1.07,4.06,4.06,0,0,1,0,5.67,4.61,4.61,0,0,1-3.24,1.06Zm0-1.39H1103a2.52,2.52,0,1,0,0-5h-3.22Z"/><rect class="cls-2" x="1018.73" y="338" width="143" height="34"/><path class="cls-5" d="M1036.89,361.33V350.67h3.27a4.38,4.38,0,0,1,4.63,4.61v1.46a4.37,4.37,0,0,1-4.63,4.6Zm1.44-9.53v8.39h1.83a2.94,2.94,0,0,0,2.33-1,3.64,3.64,0,0,0,.85-2.5v-1.47a3.62,3.62,0,0,0-.85-2.48,2.94,2.94,0,0,0-2.33-1Z"/><path class="cls-5" d="M1052.4,358.58h-4.47l-1,2.75h-1.47l4.12-10.66h1.24l4.06,10.66h-1.47Zm-4-1.21H1052l-1.76-4.86h0Z"/><path class="cls-5" d="M1063.55,351.8h-3.43v9.53h-1.44V351.8h-3.42v-1.14h8.29Z"/><path class="cls-5" d="M1070.11,358.58h-4.47l-1,2.75h-1.47l4.12-10.66h1.24l4.06,10.66h-1.47Zm-4-1.21h3.59l-1.76-4.86h0Z"/><path class="cls-5" d="M1085.31,357.91v0a3.21,3.21,0,0,1-1.05,2.52,4,4,0,0,1-2.86,1,3.76,3.76,0,0,1-2.95-1.28,4.71,4.71,0,0,1-1.14-3.25v-1.9a4.72,4.72,0,0,1,1.14-3.26,3.75,3.75,0,0,1,2.95-1.29,4.14,4.14,0,0,1,2.88,1,3.18,3.18,0,0,1,1,2.55v0h-1.38a2.38,2.38,0,0,0-.66-1.77,2.53,2.53,0,0,0-1.86-.65,2.27,2.27,0,0,0-1.93,1,4,4,0,0,0-.72,2.42v1.91a4,4,0,0,0,.72,2.43,2.27,2.27,0,0,0,1.93,1,2.54,2.54,0,0,0,1.86-.65,2.4,2.4,0,0,0,.66-1.79Z"/><path class="cls-5" d="M1093.6,356.39h-4.88v3.81h5.63v1.14h-7.08V350.67h7v1.14h-5.55v3.45h4.88Z"/><path class="cls-5" d="M1104.1,361.33h-1.44l-5.13-8.25h0v8.23H1096V350.67h1.44l5.13,8.23h0v-8.22h1.44Z"/><path class="cls-5" d="M1113.75,351.8h-3.43v9.53h-1.44V351.8h-3.42v-1.14h8.29Z"/><path class="cls-5" d="M1121.64,356.39h-4.89v3.81h5.63v1.14h-7.08V350.67h7v1.14h-5.55v3.45h4.89Z"/><path class="cls-5" d="M1125.53,356.71v4.62h-1.44V350.67h3.86a4,4,0,0,1,2.67.78,2.78,2.78,0,0,1,.92,2.26,2.41,2.41,0,0,1-.43,1.43,2.9,2.9,0,0,1-1.25,1,2.18,2.18,0,0,1,1.26.93,3,3,0,0,1,.38,1.59v1a3.34,3.34,0,0,0,.11.89,1.34,1.34,0,0,0,.38.64v.18h-1.49a1.19,1.19,0,0,1-.37-.73,6.05,6.05,0,0,1-.08-1v-1a1.93,1.93,0,0,0-.51-1.39,1.79,1.79,0,0,0-1.35-.53Zm0-1.14h2.27a2.68,2.68,0,0,0,1.76-.46,1.77,1.77,0,0,0,.54-1.41,1.82,1.82,0,0,0-.52-1.39,2.31,2.31,0,0,0-1.63-.49h-2.42Z"/><path class="cls-5" d="M1144.21,361.33h-6.91v-1l3.49-3.88a9.82,9.82,0,0,0,1.27-1.66,2.62,2.62,0,0,0,.33-1.26,2,2,0,0,0-.46-1.34,1.54,1.54,0,0,0-1.23-.55,2.12,2.12,0,0,0-1.63.57,2.27,2.27,0,0,0-.52,1.59h-1.38v0a3,3,0,0,1,.92-2.31,3.6,3.6,0,0,1,2.64-.94,3.13,3.13,0,0,1,2.29.84,2.87,2.87,0,0,1,.85,2.14,3.42,3.42,0,0,1-.52,1.75,11.23,11.23,0,0,1-1.45,1.88l-2.81,3v0h5.13Z"/><rect class="cls-11" x="279.33" y="182" width="69.17" height="2"/><polygon class="cls-11" points="285.96 191.18 287.32 189.72 280.1 183 287.32 176.29 285.96 174.82 277.16 183 285.96 191.18"/><polygon class="cls-11" points="341.87 191.18 340.51 189.72 347.73 183 340.51 176.29 341.87 174.82 350.67 183 341.87 191.18"/><rect class="cls-11" x="899.67" y="182" width="69.17" height="2"/><polygon class="cls-11" points="906.29 191.18 907.66 189.72 900.43 183 907.66 176.29 906.29 174.82 897.5 183 906.29 191.18"/><polygon class="cls-11" points="962.2 191.18 960.84 189.72 968.06 183 960.84 176.29 962.2 174.82 971 183 962.2 191.18"/><path class="cls-7" d="M598.49,214.5h-.94V203.13h.94Z"/><path class="cls-7" d="M610,214.5h-.93l-6.46-9.78h0v9.77h-.94V203.13h.94l6.46,9.77h0v-9.76H610Z"/><path class="cls-7" d="M620.66,203.92h-3.91V214.5h-.94V203.92h-3.91v-.8h8.77Z"/><path class="cls-7" d="M628.92,209h-5.48v4.71h6.27v.8h-7.2V203.13h7.16v.8h-6.23v4.27h5.48Z"/><path class="cls-7" d="M632.63,209.36v5.14h-.93V203.13h3.85a4.32,4.32,0,0,1,2.8.8,2.85,2.85,0,0,1,1,2.34,2.68,2.68,0,0,1-.52,1.62,3,3,0,0,1-1.48,1,2.48,2.48,0,0,1,1.52.95,3,3,0,0,1,.46,1.71v1.07a3.36,3.36,0,0,0,.13,1,1.48,1.48,0,0,0,.41.69v.19h-1a1.56,1.56,0,0,1-.41-.79,4.67,4.67,0,0,1-.12-1.05v-1a2.11,2.11,0,0,0-.68-1.65,2.73,2.73,0,0,0-1.89-.61Zm0-.8h2.8a3.37,3.37,0,0,0,2.25-.62,2.11,2.11,0,0,0,.71-1.68,2.15,2.15,0,0,0-.71-1.73,3.22,3.22,0,0,0-2.14-.61h-2.92Z"/><path class="cls-7" d="M650.63,214.5h-.93l-6.46-9.78h0v9.77h-.94V203.13h.94l6.46,9.77h0v-9.76h.93Z"/><path class="cls-7" d="M660,209h-5.48v4.71h6.27v.8h-7.2V203.13h7.16v.8h-6.23v4.27H660Z"/><path class="cls-7" d="M670.46,203.92h-3.91V214.5h-.94V203.92H661.7v-.8h8.77Z"/><path class="cls-9" d="M348.57,253.93V244h3.27a4.7,4.7,0,0,1,3.36,1.19,4.06,4.06,0,0,1,1.27,3.09v1.35a4,4,0,0,1-1.27,3.09,4.72,4.72,0,0,1-3.36,1.19Zm1.44-8.86v7.8h1.83a3.05,3.05,0,0,0,2.33-.9,3.25,3.25,0,0,0,.85-2.32v-1.37a3.23,3.23,0,0,0-.85-2.31,3.05,3.05,0,0,0-2.33-.91Z"/><path class="cls-9" d="M366,250.75v0a2.89,2.89,0,0,1-1.05,2.34,4.21,4.21,0,0,1-2.86.94,3.89,3.89,0,0,1-2.95-1.19,4.2,4.2,0,0,1-1.14-3v-1.76a4.21,4.21,0,0,1,1.14-3,3.89,3.89,0,0,1,2.95-1.2,4.34,4.34,0,0,1,2.88.9,2.86,2.86,0,0,1,1,2.37v0H364.6a2.13,2.13,0,0,0-.66-1.65,2.65,2.65,0,0,0-1.86-.61,2.33,2.33,0,0,0-1.93.91,3.5,3.5,0,0,0-.72,2.25v1.78a3.52,3.52,0,0,0,.72,2.26,2.33,2.33,0,0,0,1.93.91,2.66,2.66,0,0,0,1.86-.6,2.14,2.14,0,0,0,.66-1.67Z"/><path class="cls-9" d="M378,249.54h-4.86v4.38h-1.44V244h7.05v1.05h-5.61v3.42H378Z"/><path class="cls-9" d="M381.7,244.67h-1.44v-1.37h1.44Zm0,9.25h-1.44v-7.37h1.44Z"/><path class="cls-9" d="M387.67,247.75l-.74,0a1.75,1.75,0,0,0-1,.25,1.64,1.64,0,0,0-.6.71v5.26h-1.44v-7.37h1.29l.14,1.08a2.62,2.62,0,0,1,.83-.89,2,2,0,0,1,1.14-.32l.31,0,.24.05Z"/><path class="cls-9" d="M392.21,254.07a3.47,3.47,0,0,1-2.63-1,3.69,3.69,0,0,1-1-2.66v-.3a3.62,3.62,0,0,1,1-2.62,3.2,3.2,0,0,1,2.38-1,3.12,3.12,0,0,1,2.42.9,3.42,3.42,0,0,1,.82,2.4v.84H390.1l0,0a2.76,2.76,0,0,0,.58,1.74,1.9,1.9,0,0,0,1.56.68,3.89,3.89,0,0,0,1.29-.19,3,3,0,0,0,1-.53l.56.87a3.39,3.39,0,0,1-1.12.65A4.82,4.82,0,0,1,392.21,254.07Zm-.22-6.59a1.61,1.61,0,0,0-1.24.57,2.58,2.58,0,0,0-.63,1.42v0h3.65v-.18a2,2,0,0,0-.45-1.32A1.68,1.68,0,0,0,392,247.48Z"/><path class="cls-9" d="M398.89,251.25l.17.89h0l.21-.89,1.58-4.69H402l1.59,4.69.23,1h0l.21-1,1.25-4.69h1.44l-2.3,7.37h-1.16l-1.53-4.49-.33-1.25h0l-.31,1.25-1.51,4.49h-1.16l-2.3-7.37h1.44Z"/><path class="cls-9" d="M413.08,253.93q-.07-.33-.11-.59a4,4,0,0,1,0-.51,3.28,3.28,0,0,1-1.05.89,2.84,2.84,0,0,1-1.4.36,2.71,2.71,0,0,1-1.89-.59,2.08,2.08,0,0,1-.65-1.62,1.87,1.87,0,0,1,.92-1.65,4.55,4.55,0,0,1,2.49-.6h1.57v-.73a1.3,1.3,0,0,0-.42-1,1.75,1.75,0,0,0-1.2-.38,1.83,1.83,0,0,0-1.13.33,1,1,0,0,0-.44.79h-1.38v0a1.75,1.75,0,0,1,.82-1.47,3.53,3.53,0,0,1,2.22-.67,3.44,3.44,0,0,1,2.17.64,2.19,2.19,0,0,1,.82,1.84v3.55a6.42,6.42,0,0,0,0,.76,3.69,3.69,0,0,0,.16.72Zm-2.4-1a2.73,2.73,0,0,0,1.41-.37,1.82,1.82,0,0,0,.82-.86v-1.19H411.3a2.21,2.21,0,0,0-1.4.41,1.19,1.19,0,0,0-.52,1,1,1,0,0,0,.33.77A1.45,1.45,0,0,0,410.69,252.94Z"/><path class="cls-9" d="M418,253.93h-1.44V243.31H418Z"/><path class="cls-9" d="M421.8,253.93h-1.44V243.31h1.44Z"/><path class="cls-9" d="M352.4,270.66h-1.45v-9.91h1.45Z"/><path class="cls-9" d="M356.56,266.69v4h-1.44v-9.91h4.08a3.93,3.93,0,0,1,2.65.82,2.94,2.94,0,0,1,0,4.31,4,4,0,0,1-2.65.81Zm0-1.06h2.64a2.19,2.19,0,0,0,1.62-.54,1.86,1.86,0,0,0,.53-1.36,1.89,1.89,0,0,0-.54-1.37,2.16,2.16,0,0,0-1.61-.55h-2.64Z"/><path class="cls-9" d="M369.06,268.7a.89.89,0,0,0-.36-.73,3.56,3.56,0,0,0-1.37-.5,6,6,0,0,1-2.17-.79,1.57,1.57,0,0,1-.73-1.36,1.88,1.88,0,0,1,.82-1.53,4,4,0,0,1,4.34,0,1.9,1.9,0,0,1,.78,1.61v0H369a1.14,1.14,0,0,0-.44-.87,1.68,1.68,0,0,0-1.15-.38,1.75,1.75,0,0,0-1.14.31,1,1,0,0,0-.37.76.82.82,0,0,0,.33.69,3.58,3.58,0,0,0,1.34.45,6,6,0,0,1,2.23.81,1.6,1.6,0,0,1,.73,1.38,1.86,1.86,0,0,1-.85,1.59,3.77,3.77,0,0,1-2.23.61,3.66,3.66,0,0,1-2.39-.71,2,2,0,0,1-.83-1.67v0h1.38a1.21,1.21,0,0,0,.57,1,2.34,2.34,0,0,0,1.25.33,2.16,2.16,0,0,0,1.2-.29A.88.88,0,0,0,369.06,268.7Z"/><path class="cls-9" d="M375.58,270.81a3.47,3.47,0,0,1-2.63-1,3.69,3.69,0,0,1-1-2.66v-.3a3.62,3.62,0,0,1,1-2.62,3.2,3.2,0,0,1,2.38-1,3.12,3.12,0,0,1,2.42.9,3.42,3.42,0,0,1,.82,2.4v.84h-5.14l0,0a2.76,2.76,0,0,0,.58,1.74,1.9,1.9,0,0,0,1.56.68,3.89,3.89,0,0,0,1.29-.19,3,3,0,0,0,1-.53l.56.87a3.39,3.39,0,0,1-1.12.65A4.82,4.82,0,0,1,375.58,270.81Zm-.22-6.59a1.61,1.61,0,0,0-1.24.57,2.58,2.58,0,0,0-.63,1.42v0h3.65v-.18a2,2,0,0,0-.45-1.32A1.68,1.68,0,0,0,375.36,264.22Z"/><path class="cls-9" d="M383.45,269.75a2,2,0,0,0,1.26-.41,1.23,1.23,0,0,0,.55-1h1.3v0a2,2,0,0,1-.91,1.7,3.48,3.48,0,0,1-2.21.74,3.32,3.32,0,0,1-2.64-1,3.86,3.86,0,0,1-.92-2.64v-.29a3.85,3.85,0,0,1,.92-2.62,3.81,3.81,0,0,1,4.91-.29,2.3,2.3,0,0,1,.85,1.87v0h-1.3a1.51,1.51,0,0,0-.51-1.15,1.84,1.84,0,0,0-1.3-.47,1.78,1.78,0,0,0-1.62.76,3.37,3.37,0,0,0-.49,1.86v.29a3.41,3.41,0,0,0,.48,1.88A1.78,1.78,0,0,0,383.45,269.75Z"/><path class="cls-9" d="M395.35,268.2l.24.78h0l.24-.78,2.75-7.45h1.56l-4,9.91H395l-4-9.91h1.57Z"/><path class="cls-9" d="M403.12,266.69v4h-1.44v-9.91h4.08a3.93,3.93,0,0,1,2.65.82,2.94,2.94,0,0,1,0,4.31,4,4,0,0,1-2.65.81Zm0-1.06h2.64a2.19,2.19,0,0,0,1.62-.54,1.86,1.86,0,0,0,.53-1.36,1.89,1.89,0,0,0-.54-1.37,2.16,2.16,0,0,0-1.61-.55h-2.64Z"/><path class="cls-9" d="M419.35,270.66H417.9L412.77,263h0v7.65h-1.44v-9.91h1.44l5.13,7.65h0v-7.64h1.44Z"/><path class="cls-9" d="M831.57,253.93V244h3.27a4.71,4.71,0,0,1,3.36,1.19,4.06,4.06,0,0,1,1.27,3.09v1.35a4,4,0,0,1-1.27,3.09,4.72,4.72,0,0,1-3.36,1.19Zm1.44-8.86v7.8h1.83a3.06,3.06,0,0,0,2.33-.9,3.25,3.25,0,0,0,.85-2.32v-1.37a3.23,3.23,0,0,0-.85-2.31,3.05,3.05,0,0,0-2.33-.91Z"/><path class="cls-9" d="M849,250.75v0a2.89,2.89,0,0,1-1.05,2.34,4.2,4.2,0,0,1-2.86.94,3.89,3.89,0,0,1-2.95-1.19,4.2,4.2,0,0,1-1.14-3v-1.76a4.21,4.21,0,0,1,1.14-3,3.89,3.89,0,0,1,2.95-1.2,4.34,4.34,0,0,1,2.88.9,2.86,2.86,0,0,1,1,2.37v0H847.6a2.13,2.13,0,0,0-.66-1.65,2.65,2.65,0,0,0-1.86-.61,2.33,2.33,0,0,0-1.93.91,3.5,3.5,0,0,0-.72,2.25v1.78a3.52,3.52,0,0,0,.72,2.26,2.33,2.33,0,0,0,1.93.91,2.66,2.66,0,0,0,1.86-.6,2.14,2.14,0,0,0,.66-1.67Z"/><path class="cls-9" d="M861,249.54h-4.86v4.38h-1.44V244h7.05v1.05h-5.61v3.42H861Z"/><path class="cls-9" d="M864.7,244.67h-1.44v-1.37h1.44Zm0,9.25h-1.44v-7.37h1.44Z"/><path class="cls-9" d="M870.67,247.75l-.74,0a1.75,1.75,0,0,0-1,.25,1.66,1.66,0,0,0-.6.71v5.26h-1.44v-7.37h1.29l.14,1.08a2.62,2.62,0,0,1,.83-.89,2,2,0,0,1,1.14-.32l.31,0,.24.05Z"/><path class="cls-9" d="M875.21,254.07a3.47,3.47,0,0,1-2.63-1,3.69,3.69,0,0,1-1-2.66v-.3a3.63,3.63,0,0,1,1-2.62,3.2,3.2,0,0,1,2.38-1,3.12,3.12,0,0,1,2.42.9,3.42,3.42,0,0,1,.82,2.4v.84H873.1l0,0a2.76,2.76,0,0,0,.58,1.74,1.9,1.9,0,0,0,1.56.68,3.89,3.89,0,0,0,1.29-.19,3,3,0,0,0,1-.53l.56.87a3.39,3.39,0,0,1-1.12.65A4.82,4.82,0,0,1,875.21,254.07Zm-.22-6.59a1.61,1.61,0,0,0-1.24.57,2.58,2.58,0,0,0-.63,1.42v0h3.66v-.18a2,2,0,0,0-.45-1.32A1.68,1.68,0,0,0,875,247.48Z"/><path class="cls-9" d="M881.89,251.25l.17.89h0l.21-.89,1.58-4.69H885l1.59,4.69.23,1h0l.21-1,1.25-4.69h1.44l-2.3,7.37h-1.16l-1.53-4.49-.33-1.25h0l-.31,1.25-1.51,4.49h-1.16l-2.3-7.37h1.44Z"/><path class="cls-9" d="M896.08,253.93c0-.22-.09-.42-.11-.59a3.78,3.78,0,0,1,0-.51,3.29,3.29,0,0,1-1.05.89,2.85,2.85,0,0,1-1.4.36,2.72,2.72,0,0,1-1.89-.59,2.08,2.08,0,0,1-.65-1.62,1.87,1.87,0,0,1,.92-1.65,4.55,4.55,0,0,1,2.49-.6h1.57v-.73a1.3,1.3,0,0,0-.43-1,1.75,1.75,0,0,0-1.2-.38,1.82,1.82,0,0,0-1.13.33,1,1,0,0,0-.44.79h-1.38l0,0a1.75,1.75,0,0,1,.82-1.47,3.53,3.53,0,0,1,2.22-.67,3.44,3.44,0,0,1,2.17.64,2.19,2.19,0,0,1,.82,1.84v3.55a6.42,6.42,0,0,0,0,.76,3.69,3.69,0,0,0,.16.72Zm-2.39-1a2.73,2.73,0,0,0,1.41-.37,1.82,1.82,0,0,0,.82-.86v-1.19H894.3a2.21,2.21,0,0,0-1.4.41,1.19,1.19,0,0,0-.52,1,1,1,0,0,0,.33.77A1.45,1.45,0,0,0,893.69,252.94Z"/><path class="cls-9" d="M901,253.93h-1.44V243.31H901Z"/><path class="cls-9" d="M904.8,253.93h-1.44V243.31h1.44Z"/><path class="cls-9" d="M835.4,270.66h-1.45v-9.91h1.45Z"/><path class="cls-9" d="M839.56,266.69v4h-1.44v-9.91h4.08a3.93,3.93,0,0,1,2.65.82,2.93,2.93,0,0,1,0,4.31,4,4,0,0,1-2.65.81Zm0-1.06h2.64a2.18,2.18,0,0,0,1.62-.54,1.86,1.86,0,0,0,.53-1.36,1.89,1.89,0,0,0-.54-1.37,2.16,2.16,0,0,0-1.61-.55h-2.64Z"/><path class="cls-9" d="M852.06,268.7a.89.89,0,0,0-.36-.73,3.55,3.55,0,0,0-1.37-.5,6.06,6.06,0,0,1-2.17-.79,1.57,1.57,0,0,1-.73-1.36,1.88,1.88,0,0,1,.82-1.53,4,4,0,0,1,4.34,0,1.9,1.9,0,0,1,.78,1.61v0H852a1.14,1.14,0,0,0-.44-.87,1.68,1.68,0,0,0-1.15-.38,1.75,1.75,0,0,0-1.14.31,1,1,0,0,0-.37.76.82.82,0,0,0,.33.69,3.57,3.57,0,0,0,1.34.45,6,6,0,0,1,2.23.81,1.6,1.6,0,0,1,.73,1.38,1.86,1.86,0,0,1-.85,1.59,3.77,3.77,0,0,1-2.23.61,3.66,3.66,0,0,1-2.39-.71,2,2,0,0,1-.83-1.67v0h1.38a1.21,1.21,0,0,0,.57,1,2.33,2.33,0,0,0,1.25.33,2.16,2.16,0,0,0,1.21-.29A.88.88,0,0,0,852.06,268.7Z"/><path class="cls-9" d="M858.58,270.81a3.47,3.47,0,0,1-2.63-1,3.69,3.69,0,0,1-1-2.66v-.3a3.62,3.62,0,0,1,1-2.62,3.21,3.21,0,0,1,2.38-1,3.12,3.12,0,0,1,2.42.9,3.42,3.42,0,0,1,.82,2.4v.84h-5.14l0,0a2.77,2.77,0,0,0,.58,1.74,1.9,1.9,0,0,0,1.56.68,3.89,3.89,0,0,0,1.29-.19,3,3,0,0,0,1-.53l.56.87a3.4,3.4,0,0,1-1.12.65A4.82,4.82,0,0,1,858.58,270.81Zm-.22-6.59a1.61,1.61,0,0,0-1.24.57,2.58,2.58,0,0,0-.63,1.42v0h3.65v-.18a2,2,0,0,0-.45-1.32A1.68,1.68,0,0,0,858.37,264.22Z"/><path class="cls-9" d="M866.45,269.75a2,2,0,0,0,1.26-.41,1.23,1.23,0,0,0,.55-1h1.3v0a2,2,0,0,1-.91,1.7,3.47,3.47,0,0,1-2.21.74,3.32,3.32,0,0,1-2.64-1,3.86,3.86,0,0,1-.92-2.64v-.29a3.84,3.84,0,0,1,.92-2.62,3.81,3.81,0,0,1,4.91-.29,2.3,2.3,0,0,1,.85,1.87v0h-1.3a1.51,1.51,0,0,0-.51-1.15,1.84,1.84,0,0,0-1.3-.47,1.78,1.78,0,0,0-1.62.76,3.38,3.38,0,0,0-.49,1.86v.29a3.41,3.41,0,0,0,.48,1.88A1.79,1.79,0,0,0,866.45,269.75Z"/><path class="cls-9" d="M878.35,268.2l.24.78h0l.24-.78,2.75-7.45h1.56l-4,9.91H878l-4-9.91h1.57Z"/><path class="cls-9" d="M886.12,266.69v4h-1.44v-9.91h4.08a3.93,3.93,0,0,1,2.65.82,2.93,2.93,0,0,1,0,4.31,4,4,0,0,1-2.65.81Zm0-1.06h2.64a2.18,2.18,0,0,0,1.62-.54,1.85,1.85,0,0,0,.54-1.36,1.89,1.89,0,0,0-.54-1.37,2.16,2.16,0,0,0-1.61-.55h-2.64Z"/><path class="cls-9" d="M902.35,270.66H900.9L895.77,263h0v7.65h-1.44v-9.91h1.44l5.13,7.65h0v-7.64h1.44Z"/></svg>