<?xml version="1.0" encoding="utf-8"?>
<!-- Generator: Adobe Illustrator 21.1.0, SVG Export Plug-In . SVG Version: 6.00 Build 0)  -->
<svg version="1.1" id="Layer_1" xmlns="http://www.w3.org/2000/svg" xmlns:xlink="http://www.w3.org/1999/xlink" x="0px" y="0px"
	 viewBox="0 0 1250 686" style="enable-background:new 0 0 1250 686;" xml:space="preserve">
<style type="text/css">
	.st0{fill:#E7E7E8;}
	.st1{fill:#C46DBE;}
	.st2{fill:#939596;}
	.st3{fill:#0075C9;}
	.st4{fill:#959595;}
	.st5{fill:#17242D;}
	.st6{fill:#787878;}
	.st7{fill:#3FA1F2;}
	.st8{fill:#FFFFFF;}
</style>
<title>Harmony_Diagram_Multi-Cloud+Product-LightningADC</title>
<g>
	<path class="st0" d="M51.9,275.9h225.2c14.6,0,26.5,11.9,26.5,26.5v205.9c0,14.6-11.9,26.5-26.5,26.5H51.9
		c-14.6,0-26.5-11.9-26.5-26.5V302.3C25.4,287.7,37.3,275.9,51.9,275.9z"/>
	<path class="st1" d="M277.1,535.7l0-2c1.3,0,2.6-0.1,3.8-0.3l0.3,2C279.9,535.6,278.5,535.7,277.1,535.7z M273.1,535.7h-4v-2h4
		V535.7z M265.2,535.7h-4v-2h4V535.7z M257.2,535.7h-4v-2h4V535.7z M249.2,535.7h-4v-2h4V535.7z M241.3,535.7h-4v-2h4V535.7z
		 M233.3,535.7h-4v-2h4V535.7z M225.3,535.7h-4v-2h4V535.7z M217.3,535.7h-4v-2h4V535.7z M209.4,535.7h-4v-2h4V535.7z M201.4,535.7
		h-4v-2h4V535.7z M193.4,535.7h-4v-2h4V535.7z M185.5,535.7h-4v-2h4V535.7z M177.5,535.7h-4v-2h4V535.7z M169.5,535.7h-4v-2h4V535.7
		z M161.5,535.7h-4v-2h4V535.7z M153.6,535.7h-4v-2h4V535.7z M145.6,535.7h-4v-2h4V535.7z M137.6,535.7h-4v-2h4V535.7z M129.7,535.7
		h-4v-2h4V535.7z M121.7,535.7h-4v-2h4V535.7z M113.7,535.7h-4v-2h4V535.7z M105.7,535.7h-4v-2h4V535.7z M97.8,535.7h-4v-2h4V535.7z
		 M89.8,535.7h-4v-2h4V535.7z M81.8,535.7h-4v-2h4V535.7z M73.9,535.7h-4v-2h4V535.7z M65.9,535.7h-4v-2h4V535.7z M57.9,535.7h-4v-2
		h4V535.7z M49.9,535.6c-1.4-0.1-2.7-0.3-4.1-0.6l0.4-2c1.2,0.3,2.5,0.5,3.8,0.6L49.9,535.6z M285.3,534.4l-0.6-1.9
		c1.2-0.4,2.4-0.9,3.6-1.4l0.9,1.8C287.9,533.5,286.6,534,285.3,534.4z M41.8,533.7c-1.3-0.5-2.5-1.1-3.7-1.8l1-1.7
		c1.1,0.6,2.3,1.2,3.4,1.7L41.8,533.7z M292.7,530.8l-1.1-1.6c1-0.7,2-1.5,3-2.4l1.4,1.5C294.9,529.2,293.8,530,292.7,530.8z
		 M34.7,529.6c-1.1-0.9-2.1-1.8-3-2.8l1.5-1.4c0.9,0.9,1.8,1.8,2.8,2.6L34.7,529.6z M298.7,525.2l-1.6-1.2c0.8-1,1.5-2.1,2.1-3.2
		l1.7,1C300.3,522.9,299.5,524.1,298.7,525.2z M29.1,523.5c-0.8-1.1-1.5-2.3-2-3.6l1.8-0.9c0.5,1.1,1.2,2.3,1.9,3.3L29.1,523.5z
		 M302.8,518l-1.9-0.7c0.5-1.2,0.8-2.4,1.1-3.7l2,0.4C303.6,515.4,303.2,516.7,302.8,518z M25.6,516.1c-0.4-1.3-0.7-2.7-0.9-4l2-0.3
		c0.2,1.3,0.5,2.5,0.8,3.7L25.6,516.1z M304.5,509.9l-2-0.1c0-0.5,0.1-1.1,0.1-1.6v-2.3h2v2.3C304.6,508.8,304.5,509.4,304.5,509.9z
		 M26.4,507.9h-2v-4h2V507.9z M304.6,501.9h-2v-4h2V501.9z M26.4,500h-2v-4h2V500z M304.6,493.9h-2v-4h2V493.9z M26.4,492h-2v-4h2
		V492z M304.6,486h-2v-4h2V486z M26.4,484h-2v-4h2V484z M304.6,478h-2v-4h2V478z M26.4,476.1h-2v-4h2V476.1z M304.6,470h-2v-4h2V470
		z M26.4,468.1h-2v-4h2V468.1z M304.6,462h-2v-4h2V462z M26.4,460.1h-2v-4h2V460.1z M304.6,454.1h-2v-4h2V454.1z M26.4,452.1h-2v-4
		h2V452.1z M304.6,446.1h-2v-4h2V446.1z M26.4,444.2h-2v-4h2V444.2z M304.6,438.1h-2v-4h2V438.1z M26.4,436.2h-2v-4h2V436.2z
		 M304.6,430.2h-2v-4h2V430.2z M26.4,428.2h-2v-4h2V428.2z M304.6,422.2h-2v-4h2V422.2z M26.4,420.3h-2v-4h2V420.3z M304.6,414.2h-2
		v-4h2V414.2z M26.4,412.3h-2v-4h2V412.3z M304.6,406.2h-2v-4h2V406.2z M26.4,404.3h-2v-4h2V404.3z M304.6,398.3h-2v-4h2V398.3z
		 M26.4,396.3h-2v-4h2V396.3z M304.6,390.3h-2v-4h2V390.3z M26.4,388.4h-2v-4h2V388.4z M304.6,382.3h-2v-4h2V382.3z M26.4,380.4h-2
		v-4h2V380.4z M304.6,374.4h-2v-4h2V374.4z M26.4,372.4h-2v-4h2V372.4z M304.6,366.4h-2v-4h2V366.4z M26.4,364.5h-2v-4h2V364.5z
		 M304.6,358.4h-2v-4h2V358.4z M26.4,356.5h-2v-4h2V356.5z M304.6,350.4h-2v-4h2V350.4z M26.4,348.5h-2v-4h2V348.5z M304.6,342.5h-2
		v-4h2V342.5z M26.4,340.5h-2v-4h2V340.5z M304.6,334.5h-2v-4h2V334.5z M26.4,332.6h-2v-4h2V332.6z M304.6,326.5h-2v-4h2V326.5z
		 M26.4,324.6h-2v-4h2V324.6z M304.6,318.6h-2v-4h2V318.6z M26.4,316.6h-2v-4h2V316.6z M304.6,310.6h-2v-4h2V310.6z M26.4,308.7h-2
		v-4h2V308.7z M304.6,302.6h-2v-0.3c0-1.2-0.1-2.4-0.2-3.6l2-0.3c0.2,1.3,0.3,2.5,0.3,3.8V302.6z M26.5,300.7l-2-0.1
		c0.1-1.4,0.3-2.8,0.6-4.1l2,0.4C26.7,298.2,26.6,299.5,26.5,300.7z M301.5,295c-0.4-1.2-0.8-2.4-1.4-3.6l1.8-0.9
		c0.6,1.2,1.1,2.5,1.5,3.9L301.5,295z M28.1,293.3l-1.9-0.7c0.5-1.3,1.1-2.5,1.8-3.7l1.7,1C29.1,290.9,28.5,292.1,28.1,293.3z
		 M298.2,288.1c-0.7-1.1-1.5-2.1-2.4-3l1.5-1.4c0.9,1,1.8,2.1,2.6,3.2L298.2,288.1z M31.9,286.6l-1.6-1.2c0.8-1.1,1.8-2.1,2.8-3.1
		l1.4,1.5C33.5,284.7,32.6,285.6,31.9,286.6z M293.1,282.5c-1-0.8-2.1-1.5-3.2-2.2l1-1.7c1.2,0.7,2.3,1.5,3.4,2.3L293.1,282.5z
		 M37.4,281.4l-1.1-1.6c1.1-0.8,2.3-1.5,3.6-2.1l0.9,1.8C39.6,280,38.5,280.7,37.4,281.4z M286.5,278.6c-1.2-0.5-2.4-0.9-3.7-1.1
		l0.4-1.9c1.3,0.3,2.7,0.7,3.9,1.2L286.5,278.6z M44.3,278l-0.6-1.9c1.3-0.4,2.7-0.7,4-0.9l0.3,2C46.7,277.3,45.5,277.6,44.3,278z
		 M279,276.9c-0.6,0-1.3-0.1-2-0.1h-2v-2h2c0.7,0,1.4,0,2.1,0.1L279,276.9z M51.8,276.9v-2l4.1,0v2L51.8,276.9z M271.1,276.9h-4v-2
		h4V276.9z M263.2,276.9h-4v-2h4V276.9z M255.2,276.9h-4v-2h4V276.9z M247.2,276.9h-4v-2h4V276.9z M239.3,276.9h-4v-2h4V276.9z
		 M231.3,276.9h-4v-2h4V276.9z M223.3,276.9h-4v-2h4V276.9z M215.3,276.9h-4v-2h4V276.9z M207.4,276.9h-4v-2h4V276.9z M199.4,276.9
		h-4v-2h4V276.9z M191.4,276.9h-4v-2h4V276.9z M183.5,276.9h-4v-2h4V276.9z M175.5,276.9h-4v-2h4V276.9z M167.5,276.9h-4v-2h4V276.9
		z M159.5,276.9h-4v-2h4V276.9z M151.6,276.9h-4v-2h4V276.9z M143.6,276.9h-4v-2h4V276.9z M135.6,276.9h-4v-2h4V276.9z M127.7,276.9
		h-4v-2h4V276.9z M119.7,276.9h-4v-2h4V276.9z M111.7,276.9h-4v-2h4V276.9z M103.7,276.9h-4v-2h4V276.9z M95.8,276.9h-4v-2h4V276.9z
		 M87.8,276.9h-4v-2h4V276.9z M79.8,276.9h-4v-2h4V276.9z M71.8,276.9h-4v-2h4V276.9z M63.9,276.9h-4v-2h4V276.9z"/>
</g>
<path class="st2" d="M1077.7,680.9v-2h4l0,1.7l0,0.3L1077.7,680.9z M1073.7,680.9h-4.1v-2h4.1V680.9z M1065.6,680.9h-4.1v-2h4.1
	V680.9z M1057.5,680.9h-4.1v-2h4.1V680.9z M1049.3,680.9h-4.1v-2h4.1V680.9z M1041.2,680.9h-4.1v-2h4.1V680.9z M1033.1,680.9h-4.1
	v-2h4.1V680.9z M1025,680.9h-4.1v-2h4.1V680.9z M1016.9,680.9h-4.1v-2h4.1V680.9z M1008.8,680.9h-4.1v-2h4.1V680.9z M1000.7,680.9
	h-4.1v-2h4.1V680.9z M992.6,680.9h-4.1v-2h4.1V680.9z M984.5,680.9h-4.1v-2h4.1V680.9z M976.4,680.9h-4.1v-2h4.1V680.9z
	 M968.2,680.9h-4.1v-2h4.1V680.9z M960.1,680.9h-4.1v-2h4.1V680.9z M952,680.9H948v-2h4.1V680.9z M943.9,680.9h-4.1v-2h4.1V680.9z
	 M935.8,680.9h-4.1v-2h4.1V680.9z M927.7,680.9h-4.1v-2h4.1V680.9z M919.6,680.9h-4.1v-2h4.1V680.9z M911.5,680.9h-4.1v-2h4.1V680.9
	z M903.4,680.9h-4.1v-2h4.1V680.9z M895.3,680.9h-4.1v-2h4.1V680.9z M887.2,680.9h-4.1v-2h4.1V680.9z M879,680.9H875v-2h4.1V680.9z
	 M870.9,680.9h-4.1v-2h4.1V680.9z M862.8,680.9h-4.1v-2h4.1V680.9z M854.7,680.9h-4.1v-2h4.1V680.9z M846.6,680.9h-4.1v-2h4.1V680.9
	z M838.5,680.9h-4.1v-2h4.1V680.9z M830.4,680.9h-4.1v-2h4.1V680.9z M822.3,680.9h-4.1v-2h4.1V680.9z M814.2,680.9h-4.1v-2h4.1
	V680.9z M806.1,680.9H802v-2h4.1V680.9z M797.9,680.9h-4.1v-2h4.1V680.9z M789.8,680.9h-4.1v-2h4.1V680.9z M781.7,680.9h-4.1v-2h4.1
	V680.9z M773.6,680.9h-4.1v-2h4.1V680.9z M765.5,680.9h-4.1v-2h4.1V680.9z M757.4,680.9h-4.1v-2h4.1V680.9z M749.3,680.9h-4.1v-2
	h4.1V680.9z M741.2,680.9h-4.1v-2h4.1V680.9z M733.1,680.9H729v-2h4.1V680.9z M725,680.9h-4.1v-2h4.1V680.9z M716.9,680.9h-4.1v-2
	h4.1V680.9z M708.7,680.9h-4.1v-2h4.1V680.9z M700.6,680.9h-4.1v-2h4.1V680.9z M692.5,680.9h-4.1v-2h4.1V680.9z M684.4,680.9h-4.1
	v-2h4.1V680.9z M676.3,680.9h-4.1v-2h4.1V680.9z M668.2,680.9h-4.1v-2h4.1V680.9z M660.1,680.9H656v-2h4.1V680.9z M652,680.9h-4.1
	v-2h4.1V680.9z M643.9,680.9h-4.1v-2h4.1V680.9z M635.8,680.9h-4.1v-2h4.1V680.9z M627.6,680.9h-4.1v-2h4.1V680.9z M619.5,680.9
	h-4.1v-2h4.1V680.9z M611.4,680.9h-4.1v-2h4.1V680.9z M603.3,680.9h-4.1v-2h4.1V680.9z M595.2,680.9h-4.1v-2h4.1V680.9z
	 M587.1,680.9H583v-2h4.1V680.9z M579,680.9h-4.1v-2h4.1V680.9z M570.9,680.9h-4.1v-2h4.1V680.9z M562.8,680.9h-4.1v-2h4.1V680.9z
	 M554.7,680.9h-4.1v-2h4.1V680.9z M546.6,680.9h-4.1v-2h4.1V680.9z M538.4,680.9h-4.1v-2h4.1V680.9z M530.3,680.9h-4.1v-2h4.1V680.9
	z M522.2,680.9h-4.1v-2h4.1V680.9z M514.1,680.9h-4.1v-2h4.1V680.9z M506,680.9h-4.1v-2h4.1V680.9z M497.9,680.9h-4.1v-2h4.1V680.9z
	 M489.8,680.9h-4.1v-2h4.1V680.9z M481.7,680.9h-4.1v-2h4.1V680.9z M473.6,680.9h-4.1v-2h4.1V680.9z M465.5,680.9h-4.1v-2h4.1V680.9
	z M457.3,680.9h-4.1v-2h4.1V680.9z M449.2,680.9h-4.1v-2h4.1V680.9z M441.1,680.9h-4.1v-2h4.1V680.9z M433,680.9H429v-2h4.1V680.9z
	 M424.9,680.9h-4.1v-2h4.1V680.9z M416.8,680.9h-4.1v-2h4.1V680.9z M408.7,680.9h-4.1v-2h4.1V680.9z M400.6,680.9h-4.1v-2h4.1V680.9
	z M392.5,680.9h-4.1v-2h4.1V680.9z M384.4,680.9h-4.1v-2h4.1V680.9z M376.3,680.9h-4.1v-2h4.1V680.9z M368.1,680.9h-4.1v-2h4.1
	V680.9z M360,680.9H356v-2h4.1V680.9z M351.9,680.9h-4.1v-2h4.1V680.9z M343.8,680.9h-4.1v-2h4.1V680.9z M335.7,680.9h-4.1v-2h4.1
	V680.9z M327.6,680.9h-4.1v-2h4.1V680.9z M319.5,680.9h-4.1v-2h4.1V680.9z M311.4,680.9h-4.1v-2h4.1V680.9z M303.3,680.9h-4.1v-2
	h4.1V680.9z M295.2,680.9h-4.1v-2h4.1V680.9z M287,680.9H283v-2h4.1V680.9z M278.9,680.9h-4.1v-2h4.1V680.9z M270.8,680.9h-4.1v-2
	h4.1V680.9z M262.7,680.9h-4.1v-2h4.1V680.9z M254.6,680.9h-4.1v-2h4.1V680.9z M246.5,680.9h-4.1v-2h4.1V680.9z M238.4,680.9h-4.1
	v-2h4.1V680.9z M230.3,680.9h-4.1v-2h4.1V680.9z M222.2,680.9h-4.1v-2h4.1V680.9z M214.1,680.9H210v-2h4.1V680.9z M206,680.9h-4.1
	v-2h4.1V680.9z M197.8,680.9h-4.1v-2h4.1V680.9z M189.7,680.9h-4.1v-2h4.1V680.9z M181.6,680.9h-2c-0.7,0-1.4,0-2.1-0.1l0.2-2
	c0.6,0,1.3,0.1,1.9,0.1h2V680.9z M1086,680.6l-0.3-2c1.3-0.2,2.6-0.5,3.8-0.9l0.6,1.9C1088.7,680.1,1087.4,680.4,1086,680.6z
	 M173.3,680.2c-1.4-0.3-2.7-0.7-4-1.3l0.7-1.9c1.2,0.5,2.5,0.9,3.7,1.2L173.3,680.2z M1094,678.1l-0.9-1.8c1.2-0.6,2.3-1.2,3.4-2
	l1.2,1.7C1096.4,676.8,1095.2,677.5,1094,678.1z M165.5,677.1c-1.2-0.7-2.4-1.5-3.5-2.4l1.3-1.6c1,0.8,2.1,1.6,3.2,2.2L165.5,677.1z
	 M1100.9,673.3l-1.4-1.5c0.9-0.9,1.8-1.9,2.6-2.9l1.6,1.2C1102.8,671.3,1101.9,672.4,1100.9,673.3z M159,671.9
	c-0.9-1-1.8-2.1-2.6-3.3l1.7-1.1c0.7,1.1,1.5,2.1,2.4,3.1L159,671.9z M1106,666.7l-1.8-1c0.6-1.1,1.2-2.3,1.6-3.5l1.9,0.7
	C1107.3,664.2,1106.7,665.5,1106,666.7z M154.4,664.9c-0.6-1.3-1.1-2.6-1.5-3.9l1.9-0.6c0.4,1.2,0.8,2.5,1.4,3.6L154.4,664.9z
	 M1109,658.9l-2-0.4c0.3-1.3,0.4-2.6,0.5-3.9l2,0.1C1109.4,656.1,1109.3,657.5,1109,658.9z M152,656.9c-0.2-1.2-0.3-2.5-0.3-3.8
	v-0.4h2v0.4c0,1.2,0.1,2.3,0.2,3.5L152,656.9z M1109.6,650.6h-2v-4.1h2V650.6z M153.8,648.6h-2v-4.1h2V648.6z M1109.6,642.5h-2v-4.1
	h2V642.5z M153.8,640.5h-2v-4.1h2V640.5z M1109.6,634.4h-2v-4.1h2V634.4z M153.8,632.4h-2v-4.1h2V632.4z M1109.6,626.3h-2v-4.1h2
	V626.3z M153.8,624.3h-2v-4.1h2V624.3z M1109.6,618.2h-2v-4.1h2V618.2z M153.8,616.2h-2v-4.1h2V616.2z M1109.6,610h-2V606h2V610z
	 M153.8,608.1h-2V604h2V608.1z M1109.6,601.9h-2v-0.5c0-1.1-0.1-2.3-0.2-3.4l2-0.3c0.2,1.2,0.2,2.5,0.2,3.7V601.9z M153.8,600
	l-2-0.1c0.1-1.4,0.3-2.8,0.5-4.2l2,0.4C154.1,597.4,153.9,598.7,153.8,600z M1106.5,594.2c-0.4-1.2-0.8-2.5-1.4-3.6l1.8-0.9
	c0.6,1.3,1.1,2.6,1.5,3.9L1106.5,594.2z M155.4,592.4l-1.9-0.7c0.5-1.3,1.1-2.6,1.8-3.8l1.8,1C156.4,590,155.9,591.2,155.4,592.4z
	 M1103.2,587.2c-0.7-1.1-1.5-2.1-2.4-3.1l1.5-1.4c0.9,1,1.8,2.1,2.6,3.3L1103.2,587.2z M159.2,585.6l-1.6-1.2
	c0.9-1.1,1.8-2.2,2.8-3.1l1.4,1.5C160.9,583.6,160,584.6,159.2,585.6z M1098,581.4c-1-0.8-2.1-1.6-3.2-2.2l1-1.8
	c1.2,0.7,2.4,1.5,3.5,2.4L1098,581.4z M164.8,580.3l-1.2-1.7c1.1-0.8,2.4-1.5,3.6-2.1l0.9,1.8C167,578.9,165.9,579.5,164.8,580.3z
	 M1091.3,577.5c-1.2-0.5-2.5-0.9-3.7-1.2l0.5-2c1.4,0.3,2.7,0.7,4,1.3L1091.3,577.5z M171.8,576.8l-0.6-1.9c1.3-0.4,2.7-0.7,4.1-1
	l0.3,2C174.3,576.2,173,576.5,171.8,576.8z M1083.7,575.7c-0.7,0-1.3-0.1-2-0.1h-2v-2h2c0.7,0,1.4,0,2.2,0.1L1083.7,575.7z
	 M179.5,575.7v-2l0.1,0h4.1v2L179.5,575.7z M1075.7,575.7h-4.1v-2h4.1V575.7z M1067.6,575.7h-4.1v-2h4.1V575.7z M1059.5,575.7h-4.1
	v-2h4.1V575.7z M1051.4,575.7h-4.1v-2h4.1V575.7z M1043.3,575.7h-4.1v-2h4.1V575.7z M1035.1,575.7h-4.1v-2h4.1V575.7z M1027,575.7
	h-4.1v-2h4.1V575.7z M1018.9,575.7h-4.1v-2h4.1V575.7z M1010.8,575.7h-4.1v-2h4.1V575.7z M1002.7,575.7h-4.1v-2h4.1V575.7z
	 M994.6,575.7h-4.1v-2h4.1V575.7z M986.5,575.7h-4.1v-2h4.1V575.7z M978.4,575.7h-4.1v-2h4.1V575.7z M970.3,575.7h-4.1v-2h4.1V575.7
	z M962.2,575.7h-4.1v-2h4.1V575.7z M954.1,575.7H950v-2h4.1V575.7z M945.9,575.7h-4.1v-2h4.1V575.7z M937.8,575.7h-4.1v-2h4.1V575.7
	z M929.7,575.7h-4.1v-2h4.1V575.7z M921.6,575.7h-4.1v-2h4.1V575.7z M913.5,575.7h-4.1v-2h4.1V575.7z M905.4,575.7h-4.1v-2h4.1
	V575.7z M897.3,575.7h-4.1v-2h4.1V575.7z M889.2,575.7h-4.1v-2h4.1V575.7z M881.1,575.7H877v-2h4.1V575.7z M873,575.7h-4.1v-2h4.1
	V575.7z M864.8,575.7h-4.1v-2h4.1V575.7z M856.7,575.7h-4.1v-2h4.1V575.7z M848.6,575.7h-4.1v-2h4.1V575.7z M840.5,575.7h-4.1v-2
	h4.1V575.7z M832.4,575.7h-4.1v-2h4.1V575.7z M824.3,575.7h-4.1v-2h4.1V575.7z M816.2,575.7h-4.1v-2h4.1V575.7z M808.1,575.7H804v-2
	h4.1V575.7z M800,575.7h-4.1v-2h4.1V575.7z M791.9,575.7h-4.1v-2h4.1V575.7z M783.8,575.7h-4.1v-2h4.1V575.7z M775.6,575.7h-4.1v-2
	h4.1V575.7z M767.5,575.7h-4.1v-2h4.1V575.7z M759.4,575.7h-4.1v-2h4.1V575.7z M751.3,575.7h-4.1v-2h4.1V575.7z M743.2,575.7h-4.1
	v-2h4.1V575.7z M735.1,575.7H731v-2h4.1V575.7z M727,575.7h-4.1v-2h4.1V575.7z M718.9,575.7h-4.1v-2h4.1V575.7z M710.8,575.7h-4.1
	v-2h4.1V575.7z M702.7,575.7h-4.1v-2h4.1V575.7z M694.5,575.7h-4.1v-2h4.1V575.7z M686.4,575.7h-4.1v-2h4.1V575.7z M678.3,575.7
	h-4.1v-2h4.1V575.7z M670.2,575.7h-4.1v-2h4.1V575.7z M662.1,575.7h-4.1v-2h4.1V575.7z M654,575.7h-4.1v-2h4.1V575.7z M645.9,575.7
	h-4.1v-2h4.1V575.7z M637.8,575.7h-4.1v-2h4.1V575.7z M629.7,575.7h-4.1v-2h4.1V575.7z M621.6,575.7h-4.1v-2h4.1V575.7z
	 M613.5,575.7h-4.1v-2h4.1V575.7z M605.3,575.7h-4.1v-2h4.1V575.7z M597.2,575.7h-4.1v-2h4.1V575.7z M589.1,575.7h-4.1v-2h4.1V575.7
	z M581,575.7H577v-2h4.1V575.7z M572.9,575.7h-4.1v-2h4.1V575.7z M564.8,575.7h-4.1v-2h4.1V575.7z M556.7,575.7h-4.1v-2h4.1V575.7z
	 M548.6,575.7h-4.1v-2h4.1V575.7z M540.5,575.7h-4.1v-2h4.1V575.7z M532.4,575.7h-4.1v-2h4.1V575.7z M524.2,575.7h-4.1v-2h4.1V575.7
	z M516.1,575.7h-4.1v-2h4.1V575.7z M508,575.7H504v-2h4.1V575.7z M499.9,575.7h-4.1v-2h4.1V575.7z M491.8,575.7h-4.1v-2h4.1V575.7z
	 M483.7,575.7h-4.1v-2h4.1V575.7z M475.6,575.7h-4.1v-2h4.1V575.7z M467.5,575.7h-4.1v-2h4.1V575.7z M459.4,575.7h-4.1v-2h4.1V575.7
	z M451.3,575.7h-4.1v-2h4.1V575.7z M443.2,575.7h-4.1v-2h4.1V575.7z M435,575.7H431v-2h4.1V575.7z M426.9,575.7h-4.1v-2h4.1V575.7z
	 M418.8,575.7h-4.1v-2h4.1V575.7z M410.7,575.7h-4.1v-2h4.1V575.7z M402.6,575.7h-4.1v-2h4.1V575.7z M394.5,575.7h-4.1v-2h4.1V575.7
	z M386.4,575.7h-4.1v-2h4.1V575.7z M378.3,575.7h-4.1v-2h4.1V575.7z M370.2,575.7h-4.1v-2h4.1V575.7z M362.1,575.7H358v-2h4.1V575.7
	z M353.9,575.7h-4.1v-2h4.1V575.7z M345.8,575.7h-4.1v-2h4.1V575.7z M337.7,575.7h-4.1v-2h4.1V575.7z M329.6,575.7h-4.1v-2h4.1
	V575.7z M321.5,575.7h-4.1v-2h4.1V575.7z M313.4,575.7h-4.1v-2h4.1V575.7z M305.3,575.7h-4.1v-2h4.1V575.7z M297.2,575.7h-4.1v-2
	h4.1V575.7z M289.1,575.7H285v-2h4.1V575.7z M281,575.7h-4.1v-2h4.1V575.7z M272.9,575.7h-4.1v-2h4.1V575.7z M264.7,575.7h-4.1v-2
	h4.1V575.7z M256.6,575.7h-4.1v-2h4.1V575.7z M248.5,575.7h-4.1v-2h4.1V575.7z M240.4,575.7h-4.1v-2h4.1V575.7z M232.3,575.7h-4.1
	v-2h4.1V575.7z M224.2,575.7h-4.1v-2h4.1V575.7z M216.1,575.7H212v-2h4.1V575.7z M208,575.7h-4.1v-2h4.1V575.7z M199.9,575.7h-4.1
	v-2h4.1V575.7z M191.8,575.7h-4.1v-2h4.1V575.7z"/>
<path class="st3" d="M174.7,389.1l-1.3-1.5c4.3-3.8,6.5-7.5,6.5-11v-28.7c-16.9,0-21-5.8-21.6-6.9c-0.4,0.7-0.9,1.3-1.6,1.9
	l-1.3-1.5c0.5-0.4,0.9-0.9,1.1-1.4c0.3-0.6,1-1,1.7-1c0,0,0,0,0,0c0.8,0,1.4,0.5,1.7,1.1c0,0,3.1,5.9,20,5.9c1,0,1.9,0.8,1.9,1.8
	l0,28.9C181.8,380.7,179.4,384.9,174.7,389.1z M179.9,347.8C179.9,347.8,179.9,347.8,179.9,347.8
	C179.9,347.8,179.9,347.8,179.9,347.8z M158.3,340.7C158.3,340.7,158.3,340.7,158.3,340.7C158.3,340.7,158.3,340.7,158.3,340.7z"/>
<path class="st3" d="M181.4,384.4l-1.3-1.5c4.3-3.8,6.5-7.5,6.5-11v-28.7c-16.9,0-21-5.8-21.6-6.9c-0.4,0.8-1,1.4-1.6,1.9l-1.2-1.6
	c0.5-0.4,0.9-0.8,1.2-1.4c0.3-0.6,1-1,1.7-1c0.8,0,1.4,0.5,1.7,1.1c0,0,3.1,5.9,20,5.9c1,0,1.9,0.8,1.9,1.8l0,28.8
	C188.5,376,186.1,380.2,181.4,384.4z M186.7,343.1C186.7,343.1,186.7,343.1,186.7,343.1C186.7,343.1,186.7,343.1,186.7,343.1z
	 M165,336.1C165,336.1,165,336.1,165,336.1C165,336.1,165,336.1,165,336.1z"/>
<path class="st3" d="M151.2,403.8C151.2,403.8,151.2,403.8,151.2,403.8c-0.3,0-0.5,0-0.8-0.1c-2.3-1-22.8-10-22.8-22.1v-28.8
	c0-0.5,0.2-1,0.6-1.3c0.4-0.3,0.8-0.5,1.3-0.5c16.3,0,19.7-5.4,19.9-5.9l0-0.1c0.3-0.7,1-1.1,1.7-1.1c0,0,0,0,0,0
	c0.8,0,1.4,0.5,1.7,1.1c0,0,3.1,5.9,20,5.9c0,0,0,0,0,0c1,0,1.8,0.8,1.9,1.8l0,28.9c0,12.2-20.5,21.1-22.9,22.1
	C151.7,403.7,151.5,403.8,151.2,403.8z M129.6,352.8v28.7c0,11,20.7,19.9,21.6,20.3c0.5-0.2,5.9-2.5,11.2-6.2
	c4.7-3.3,10.3-8.4,10.3-14.1v-28.7c-17,0-21-5.8-21.6-6.9C150.2,347.8,145.2,352.8,129.6,352.8z M129.5,352.8L129.5,352.8
	C129.5,352.8,129.5,352.8,129.5,352.8L129.5,352.8z M151.3,345.7C151.3,345.7,151.3,345.8,151.3,345.7
	C151.3,345.8,151.3,345.8,151.3,345.7L151.3,345.7z"/>
<path class="st3" d="M136.3,379.4c-2.3,0-4.1-1.8-4.1-4.1s1.8-4.1,4.1-4.1s4.1,1.8,4.1,4.1S138.5,379.4,136.3,379.4z M136.3,373.2
	c-1.2,0-2.1,0.9-2.1,2.1s0.9,2.1,2.1,2.1s2.1-0.9,2.1-2.1S137.4,373.2,136.3,373.2z"/>
<rect x="139.4" y="374.3" class="st3" width="28.6" height="2"/>
<rect x="142.1" y="367.1" transform="matrix(0.7071 -0.7071 0.7071 0.7071 -215.8758 214.9792)" class="st3" width="18.9" height="2"/>
<rect x="150.6" y="373.1" transform="matrix(0.7071 -0.7071 0.7071 0.7071 -226.1433 219.2321)" class="st3" width="2" height="18.9"/>
<polygon class="st3" points="159.3,368.7 157.3,368.7 157.3,362.3 151,362.3 151,360.3 159.3,360.3 "/>
<polygon class="st3" points="163.5,381.3 162.1,379.8 166.6,375.4 162.1,370.9 163.5,369.5 169.4,375.4 "/>
<polygon class="st3" points="159.3,390.3 151,390.3 151,388.3 157.3,388.3 157.3,382 159.3,382 "/>
<path class="st4" d="M91.9,486.6v-2c1.6,0,2.9-1.3,2.9-2.9v-28.1c0-1.6-1.3-2.9-2.9-2.9h-28c-1.6,0-2.9,1.3-2.9,2.9h-2
	c0-2.7,2.2-4.9,4.9-4.9h28c2.7,0,4.9,2.2,4.9,4.9v28.1C96.8,484.4,94.6,486.6,91.9,486.6z"/>
<path class="st4" d="M97.8,480l0-2c1.6,0,2.9-1.3,2.9-2.9V447c0-1.6-1.3-2.9-2.9-2.9h-28c-1.6,0-2.9,1.3-2.9,2.9h-2
	c0-2.7,2.2-4.9,4.9-4.9h28c2.7,0,4.9,2.2,4.9,4.9v28.1C102.7,477.8,100.5,480,97.8,480z"/>
<path class="st4" d="M86,493H58c-2.7,0-4.9-2.2-4.9-4.9V460c0-2.7,2.2-4.9,4.9-4.9h28c2.7,0,4.9,2.2,4.9,4.9v28.1
	C90.9,490.8,88.7,493,86,493z M58,457.1c-1.6,0-2.9,1.3-2.9,2.9v28.1c0,1.6,1.3,2.9,2.9,2.9h28c1.6,0,2.9-1.3,2.9-2.9V460
	c0-1.6-1.3-2.9-2.9-2.9H58z"/>
<path class="st4" d="M65.4,476.4h-4.1l-0.9,2.5h-1.4l3.8-9.9h1.2l3.8,9.9h-1.4L65.4,476.4z M61.7,475.2H65l-1.6-4.5l0,0L61.7,475.2z
	"/>
<path class="st4" d="M70.3,474.9v4H69V469h3.8c0.9-0.1,1.8,0.2,2.4,0.8c1.2,1.2,1.2,3.1,0,4.3c-0.7,0.6-1.6,0.9-2.4,0.8L70.3,474.9z
	 M70.3,473.9h2.4c1.1,0.1,2-0.7,2-1.8s-0.7-2-1.8-2c-0.1,0-0.2,0-0.3,0h-2.4V473.9z"/>
<path class="st4" d="M79.2,474.9v4h-1.3V469h3.8c0.9-0.1,1.8,0.2,2.4,0.8c1.2,1.2,1.2,3.1,0,4.3c-0.7,0.6-1.6,0.9-2.4,0.8
	L79.2,474.9z M79.2,473.9h2.4c1.1,0.1,2-0.7,2-1.8s-0.7-2-1.8-2c-0.1,0-0.2,0-0.3,0h-2.4V473.9z"/>
<path class="st4" d="M172.1,486.6v-2c1.6,0,2.9-1.3,2.9-2.9v-28.1c0-1.6-1.3-2.9-2.9-2.9h-28c-1.6,0-2.9,1.3-2.9,2.9h-2
	c0-2.7,2.2-4.9,4.9-4.9h28c2.7,0,4.9,2.2,4.9,4.9v28.1C177,484.4,174.8,486.6,172.1,486.6z"/>
<path class="st4" d="M178,480l0-2c1.6,0,2.9-1.4,2.8-2.9V447c0-1.6-1.3-2.9-2.9-2.9h-28c-1.6,0-2.9,1.3-2.9,2.9h-2
	c0-2.7,2.2-4.9,4.9-4.9h28c2.7,0,4.9,2.2,4.9,4.9v28.1C182.8,477.7,180.7,479.9,178,480z"/>
<path class="st4" d="M166.2,493h-28c-2.7,0-4.9-2.2-4.9-4.9V460c0-2.7,2.2-4.9,4.9-4.9h28c2.7,0,4.9,2.2,4.9,4.9v28.1
	C171.1,490.8,168.9,493,166.2,493z M138.2,457.1c-1.6,0-2.9,1.3-2.9,2.9v28.1c0,1.6,1.3,2.9,2.9,2.9h28c1.6,0,2.9-1.3,2.9-2.9V460
	c0-1.6-1.3-2.9-2.9-2.9H138.2z"/>
<path class="st4" d="M145.6,476.4h-4.1l-0.9,2.5h-1.4l3.9-9.9h1.1l3.8,9.9h-1.4L145.6,476.4z M141.9,475.2h3.3l-1.6-4.5l0,0
	L141.9,475.2z"/>
<path class="st4" d="M150.6,474.9v4h-1.3V469h3.8c0.9-0.1,1.8,0.2,2.4,0.8c1.2,1.2,1.2,3.1,0,4.3c-0.7,0.6-1.6,0.9-2.4,0.8
	L150.6,474.9z M150.6,473.9h2.4c1.1,0.1,2-0.7,2-1.8c0.1-1.1-0.7-2-1.8-2c-0.1,0-0.2,0-0.3,0h-2.4L150.6,473.9z"/>
<path class="st4" d="M159.4,474.9v4h-1.3V469h3.8c0.9-0.1,1.8,0.2,2.4,0.8c1.2,1.2,1.2,3.1,0,4.3c-0.7,0.6-1.6,0.9-2.4,0.8
	L159.4,474.9z M159.4,473.9h2.4c1.1,0.1,2-0.7,2-1.8c0.1-1.1-0.7-2-1.8-2c-0.1,0-0.2,0-0.3,0h-2.4V473.9z"/>
<path class="st4" d="M259.6,486.6v-2c1.6,0,2.9-1.3,2.9-2.9v-28.1c0-1.6-1.3-2.9-2.9-2.9h-28c-1.6,0-2.9,1.3-2.9,2.9h-2
	c0-2.7,2.2-4.9,4.9-4.9h28c2.7,0,4.9,2.2,4.9,4.9v28.1C264.5,484.4,262.3,486.6,259.6,486.6z"/>
<path class="st4" d="M265.4,480v-2c1.6,0,2.9-1.3,2.9-2.9V447c0-1.6-1.3-2.9-2.9-2.9h-28c-1.6,0-2.9,1.3-2.9,2.9h-2
	c0-2.7,2.2-4.9,4.9-4.9h28c2.7,0,4.9,2.2,4.9,4.9v28.1C270.4,477.8,268.1,480,265.4,480z"/>
<path class="st4" d="M253.7,493h-28c-2.7,0-4.9-2.2-4.9-4.9V460c0-2.7,2.2-4.9,4.9-4.9h28c2.7,0,4.9,2.2,4.9,4.9v28.1
	C258.6,490.8,256.4,493,253.7,493z M225.7,457.1c-1.6,0-2.9,1.3-2.9,2.9v28.1c0,1.6,1.3,2.9,2.9,2.9h28c1.6,0,2.9-1.3,2.9-2.9V460
	c0-1.6-1.3-2.9-2.9-2.9H225.7z"/>
<path class="st4" d="M233.1,476.4h-4.1l-0.9,2.5h-1.4l3.8-9.9h1.1l3.8,9.9H234L233.1,476.4z M229.4,475.2h3.3l-1.6-4.5l0,0
	L229.4,475.2z"/>
<path class="st4" d="M238,474.9v4h-1.3V469h3.8c0.9-0.1,1.8,0.2,2.4,0.8c1.2,1.2,1.2,3.1,0,4.3c-0.7,0.6-1.6,0.9-2.4,0.8L238,474.9z
	 M238,473.9h2.4c1.1,0.1,2-0.7,2-1.8c0.1-1.1-0.7-2-1.8-2c-0.1,0-0.2,0-0.3,0H238V473.9z"/>
<path class="st4" d="M246.9,474.9v4h-1.3V469h3.8c0.9-0.1,1.8,0.2,2.4,0.8c1.2,1.2,1.2,3.1,0,4.3c-0.7,0.6-1.6,0.9-2.4,0.8
	L246.9,474.9z M246.9,473.9h2.4c1.1,0.1,2-0.7,2-1.8c0.1-1.1-0.7-2-1.8-2c-0.1,0-0.2,0-0.3,0h-2.4V473.9z"/>
<path class="st5" d="M951.8,633v4.3h-1.4v-10.7h4.1c1-0.1,1.9,0.3,2.7,0.9c1.3,1.3,1.3,3.4,0,4.6c-0.7,0.6-1.7,0.9-2.7,0.9
	L951.8,633z M951.8,631.9h2.6c1.1,0,2.1-0.9,2.1-2.1c0-1.1-0.9-2.1-2.1-2.1c0,0,0,0,0,0h-2.6V631.9z"/>
<path class="st5" d="M967.7,626.6v7.2c0.1,1-0.4,2-1.1,2.7c-0.9,0.7-1.9,1-3,0.9c-1,0-2-0.3-2.8-0.9c-0.8-0.7-1.2-1.7-1.1-2.7v-7.2
	h1.4v7.2c0,0.7,0.2,1.3,0.7,1.8c0.5,0.4,1.2,0.7,1.8,0.6c0.7,0,1.4-0.2,1.9-0.6c0.5-0.5,0.8-1.1,0.7-1.8v-7.2H967.7z"/>
<path class="st5" d="M970.1,637.3v-10.7h3.5c0.9-0.1,1.8,0.2,2.6,0.7c0.7,0.5,1,1.3,1,2.2c0,0.5-0.2,0.9-0.5,1.3
	c-0.3,0.4-0.7,0.7-1.2,0.8c0.6,0.1,1.1,0.4,1.5,0.9c0.4,0.5,0.6,1.1,0.5,1.7c0.1,0.9-0.3,1.7-1,2.2c-0.7,0.5-1.7,0.8-2.6,0.8
	L970.1,637.3z M971.5,631.2h2.3c0.5,0,0.9-0.1,1.3-0.4c0.7-0.7,0.7-1.8,0-2.5c0,0,0,0,0,0c-0.5-0.3-1-0.5-1.6-0.4h-2L971.5,631.2z
	 M971.5,632.3v3.9h2.5c0.6,0,1.1-0.1,1.5-0.5c0.4-0.4,0.6-0.9,0.5-1.4c0-0.5-0.1-1.1-0.5-1.5c-0.4-0.4-0.9-0.6-1.4-0.5L971.5,632.3z
	"/>
<path class="st5" d="M981.1,636.2h5v1.1h-6.5v-10.7h1.4L981.1,636.2z"/>
<path class="st5" d="M989.3,637.3h-1.5v-10.7h1.5V637.3z"/>
<path class="st5" d="M999.5,633.9L999.5,633.9c0,1-0.3,1.9-1,2.5c-0.8,0.7-1.8,1.1-2.9,1c-1.1,0-2.2-0.4-3-1.3
	c-0.8-0.9-1.2-2.1-1.1-3.2V631c0-1.2,0.4-2.3,1.1-3.2c0.7-0.9,1.8-1.3,3-1.3c1.1,0,2.1,0.3,2.9,1c0.7,0.7,1.1,1.6,1,2.5l0,0h-1.4
	c0-0.7-0.2-1.3-0.7-1.8c-0.5-0.5-1.2-0.7-1.9-0.7c-0.8,0-1.5,0.4-1.9,1c-0.5,0.7-0.7,1.6-0.7,2.4v1.9c0,0.9,0.2,1.7,0.7,2.4
	c0.4,0.6,1.2,1,1.9,1c0.7,0,1.4-0.2,1.9-0.7c0.5-0.5,0.7-1.1,0.7-1.8L999.5,633.9z"/>
<path class="st5" d="M1012.8,633.9L1012.8,633.9c0,1-0.3,1.9-1,2.5c-0.8,0.7-1.8,1.1-2.9,1c-1.1,0-2.2-0.4-3-1.3
	c-0.8-0.9-1.2-2.1-1.1-3.2V631c0-1.2,0.4-2.3,1.1-3.2c0.7-0.9,1.8-1.3,3-1.3c1.1,0,2.1,0.3,2.9,1c0.7,0.7,1.1,1.6,1,2.5l0,0h-1.4
	c0-0.7-0.2-1.3-0.7-1.8c-0.5-0.5-1.2-0.7-1.9-0.7c-0.8,0-1.5,0.4-1.9,1c-0.5,0.7-0.7,1.6-0.7,2.4v1.9c0,0.9,0.2,1.7,0.7,2.4
	c0.4,0.6,1.2,1,1.9,1c0.7,0,1.4-0.2,1.9-0.7c0.5-0.5,0.7-1.1,0.7-1.8L1012.8,633.9z"/>
<path class="st5" d="M1016.2,636.2h5v1.1h-6.5v-10.7h1.4L1016.2,636.2z"/>
<path class="st5" d="M1030.7,632.9c0,1.2-0.4,2.4-1.2,3.2c-0.8,0.9-2,1.3-3.2,1.3c-1.1,0-2.2-0.4-3-1.3c-0.8-0.9-1.2-2.1-1.2-3.2
	V631c0-1.2,0.4-2.3,1.2-3.2c0.8-0.9,1.9-1.3,3-1.3c1.2,0,2.3,0.4,3.2,1.3c0.8,0.9,1.2,2,1.2,3.2V632.9z M1029.3,631
	c0-0.9-0.2-1.7-0.8-2.4c-0.5-0.6-1.3-1-2.1-0.9c-0.8,0-1.5,0.3-2,0.9c-0.5,0.7-0.8,1.5-0.8,2.4v1.9c0,0.9,0.2,1.7,0.8,2.4
	c0.5,0.6,1.2,1,2,0.9c0.8,0,1.6-0.3,2.1-0.9c0.5-0.7,0.8-1.5,0.8-2.4L1029.3,631z"/>
<path class="st5" d="M1040.7,626.6v7.2c0.1,1-0.4,2-1.1,2.7c-0.9,0.7-1.9,1-3,0.9c-1,0-2-0.3-2.8-0.9c-0.8-0.7-1.2-1.7-1.1-2.7v-7.2
	h1.4v7.2c0,0.7,0.2,1.3,0.7,1.8c0.5,0.4,1.2,0.7,1.8,0.6c0.7,0,1.4-0.2,1.9-0.6c0.5-0.5,0.8-1.1,0.7-1.8v-7.2H1040.7z"/>
<path class="st5" d="M1043,637.3v-10.7h3.3c2.4-0.1,4.5,1.7,4.6,4.1c0,0.2,0,0.3,0,0.5v1.5c0.1,2.4-1.7,4.5-4.1,4.6
	c-0.2,0-0.3,0-0.5,0L1043,637.3z M1044.4,627.8v8.4h1.8c0.9,0,1.7-0.3,2.3-1c0.6-0.7,0.9-1.6,0.8-2.5v-1.5c0-0.9-0.3-1.8-0.8-2.5
	c-0.6-0.7-1.4-1-2.3-1L1044.4,627.8z"/>
<polygon class="st6" points="78.1,438.2 76.1,438.2 76.1,377.6 121.5,377.6 121.5,379.6 78.1,379.6 "/>
<polygon class="st6" points="246.2,438.2 244.2,438.2 244.2,379.6 191.9,379.6 191.9,377.6 246.2,377.6 "/>
<rect x="157.1" y="407.5" class="st6" width="2" height="30.8"/>
<g>
	<path class="st0" d="M514.9,275.9h225.2c14.6,0,26.5,11.9,26.5,26.5v205.9c0,14.6-11.9,26.5-26.5,26.5H514.9
		c-14.6,0-26.5-11.9-26.5-26.5V302.3C488.5,287.7,500.3,275.9,514.9,275.9z"/>
	<path class="st1" d="M740.1,535.7l0-2c1.3,0,2.6-0.1,3.8-0.3l0.3,2C742.9,535.6,741.5,535.7,740.1,535.7z M736.2,535.7h-4v-2h4
		V535.7z M728.2,535.7h-4v-2h4V535.7z M720.2,535.7h-4v-2h4V535.7z M712.2,535.7h-4v-2h4V535.7z M704.3,535.7h-4v-2h4V535.7z
		 M696.3,535.7h-4v-2h4V535.7z M688.3,535.7h-4v-2h4V535.7z M680.4,535.7h-4v-2h4V535.7z M672.4,535.7h-4v-2h4V535.7z M664.4,535.7
		h-4v-2h4V535.7z M656.4,535.7h-4v-2h4V535.7z M648.5,535.7h-4v-2h4V535.7z M640.5,535.7h-4v-2h4V535.7z M632.5,535.7h-4v-2h4V535.7
		z M624.6,535.7h-4v-2h4V535.7z M616.6,535.7h-4v-2h4V535.7z M608.6,535.7h-4v-2h4V535.7z M600.6,535.7h-4v-2h4V535.7z M592.7,535.7
		h-4v-2h4V535.7z M584.7,535.7h-4v-2h4V535.7z M576.7,535.7h-4v-2h4V535.7z M568.7,535.7h-4v-2h4V535.7z M560.8,535.7h-4v-2h4V535.7
		z M552.8,535.7h-4v-2h4V535.7z M544.8,535.7h-4v-2h4V535.7z M536.9,535.7h-4v-2h4V535.7z M528.9,535.7h-4v-2h4V535.7z M520.9,535.7
		h-4v-2h4V535.7z M512.9,535.6c-1.4-0.1-2.7-0.3-4.1-0.6l0.4-1.9c1.2,0.3,2.5,0.5,3.8,0.6L512.9,535.6z M748.3,534.4l-0.6-1.9
		c1.2-0.4,2.4-0.9,3.6-1.4l0.9,1.8C750.9,533.5,749.6,534,748.3,534.4z M504.8,533.7c-1.3-0.5-2.5-1.1-3.7-1.8l1-1.7
		c1.1,0.6,2.3,1.2,3.4,1.7L504.8,533.7z M755.7,530.8l-1.1-1.6c1-0.7,2-1.5,3-2.4l1.4,1.5C757.9,529.2,756.8,530,755.7,530.8z
		 M497.7,529.6c-1.1-0.9-2.1-1.8-3-2.8l1.5-1.4c0.9,0.9,1.8,1.8,2.8,2.6L497.7,529.6z M761.7,525.2l-1.6-1.2c0.8-1,1.5-2.1,2.1-3.2
		l1.7,1C763.3,522.9,762.5,524.1,761.7,525.2z M492.1,523.5c-0.8-1.1-1.5-2.3-2-3.6l1.8-0.9c0.5,1.1,1.2,2.3,1.9,3.3L492.1,523.5z
		 M765.8,518l-1.9-0.7c0.5-1.2,0.8-2.4,1.1-3.7l2,0.4C766.7,515.4,766.3,516.7,765.8,518z M488.6,516.1c-0.4-1.3-0.7-2.7-0.9-4
		l2-0.3c0.2,1.3,0.5,2.5,0.8,3.7L488.6,516.1z M767.5,509.9l-2-0.1c0-0.5,0.1-1.1,0.1-1.6v-2.3h2v2.3
		C767.6,508.8,767.6,509.4,767.5,509.9z M489.5,507.9h-2v-4h2V507.9z M767.6,501.9h-2v-4h2V501.9z M489.5,500h-2v-4h2V500z
		 M767.6,493.9h-2v-4h2V493.9z M489.5,492h-2v-4h2V492z M767.6,486h-2v-4h2V486z M489.5,484h-2v-4h2V484z M767.6,478h-2v-4h2V478z
		 M489.5,476.1h-2v-4h2V476.1z M767.6,470h-2v-4h2V470z M489.5,468.1h-2v-4h2V468.1z M767.6,462h-2v-4h2V462z M489.5,460.1h-2v-4h2
		V460.1z M767.6,454.1h-2v-4h2V454.1z M489.5,452.1h-2v-4h2V452.1z M767.6,446.1h-2v-4h2V446.1z M489.5,444.2h-2v-4h2V444.2z
		 M767.6,438.1h-2v-4h2V438.1z M489.5,436.2h-2v-4h2V436.2z M767.6,430.2h-2v-4h2V430.2z M489.5,428.2h-2v-4h2V428.2z M767.6,422.2
		h-2v-4h2V422.2z M489.5,420.3h-2v-4h2V420.3z M767.6,414.2h-2v-4h2V414.2z M489.5,412.3h-2v-4h2V412.3z M767.6,406.2h-2v-4h2V406.2
		z M489.5,404.3h-2v-4h2V404.3z M767.6,398.3h-2v-4h2V398.3z M489.5,396.3h-2v-4h2V396.3z M767.6,390.3h-2v-4h2V390.3z M489.5,388.4
		h-2v-4h2V388.4z M767.6,382.3h-2v-4h2V382.3z M489.5,380.4h-2v-4h2V380.4z M767.6,374.4h-2v-4h2V374.4z M489.5,372.4h-2v-4h2V372.4
		z M767.6,366.4h-2v-4h2V366.4z M489.5,364.5h-2v-4h2V364.5z M767.6,358.4h-2v-4h2V358.4z M489.5,356.5h-2v-4h2V356.5z M767.6,350.4
		h-2v-4h2V350.4z M489.5,348.5h-2v-4h2V348.5z M767.6,342.5h-2v-4h2V342.5z M489.5,340.5h-2v-4h2V340.5z M767.6,334.5h-2v-4h2V334.5
		z M489.5,332.6h-2v-4h2V332.6z M767.6,326.5h-2v-4h2V326.5z M489.5,324.6h-2v-4h2V324.6z M767.6,318.6h-2v-4h2V318.6z M489.5,316.6
		h-2v-4h2V316.6z M767.6,310.6h-2v-4h2V310.6z M489.5,308.7h-2v-4h2V308.7z M767.6,302.6h-2v-0.3c0-1.2-0.1-2.4-0.2-3.6l2-0.3
		c0.2,1.3,0.3,2.5,0.3,3.8V302.6z M489.5,300.7l-2-0.1c0.1-1.4,0.3-2.8,0.6-4.1l2,0.4C489.8,298.2,489.6,299.5,489.5,300.7z
		 M764.5,295c-0.4-1.2-0.8-2.4-1.4-3.6l1.8-0.9c0.6,1.2,1.1,2.5,1.5,3.9L764.5,295z M491.1,293.3l-1.9-0.7c0.5-1.3,1.1-2.5,1.8-3.7
		l1.7,1C492.1,290.9,491.6,292.1,491.1,293.3z M761.3,288.1c-0.7-1.1-1.5-2.1-2.4-3l1.5-1.4c0.9,1,1.8,2.1,2.6,3.2L761.3,288.1z
		 M494.9,286.6l-1.6-1.2c0.8-1.1,1.8-2.1,2.8-3.1l1.4,1.5C496.5,284.7,495.7,285.6,494.9,286.6z M756.1,282.5
		c-1-0.8-2.1-1.5-3.2-2.2l1-1.7c1.2,0.7,2.3,1.5,3.4,2.3L756.1,282.5z M500.4,281.4l-1.1-1.6c1.1-0.8,2.3-1.5,3.6-2.1l0.9,1.8
		C502.6,280,501.5,280.7,500.4,281.4z M749.5,278.6c-1.2-0.5-2.4-0.9-3.7-1.1l0.4-1.9c1.3,0.3,2.7,0.7,3.9,1.2L749.5,278.6z
		 M507.3,278l-0.6-1.9c1.3-0.4,2.7-0.7,4-0.9l0.3,2C509.8,277.3,508.5,277.6,507.3,278z M742,276.9c-0.6,0-1.3-0.1-2-0.1h-2v-2h2
		c0.7,0,1.4,0,2.1,0.1L742,276.9z M734.2,276.9h-4v-2h4V276.9z M726.2,276.9h-4v-2h4V276.9z M718.2,276.9h-4v-2h4V276.9z
		 M710.2,276.9h-4v-2h4V276.9z M702.3,276.9h-4v-2h4V276.9z M694.3,276.9h-4v-2h4V276.9z M686.3,276.9h-4v-2h4V276.9z M678.4,276.9
		h-4v-2h4V276.9z M670.4,276.9h-4v-2h4V276.9z M662.4,276.9h-4v-2h4V276.9z M654.4,276.9h-4v-2h4V276.9z M646.5,276.9h-4v-2h4V276.9
		z M638.5,276.9h-4v-2h4V276.9z M630.5,276.9h-4v-2h4V276.9z M622.5,276.9h-4v-2h4V276.9z M614.6,276.9h-4v-2h4V276.9z M606.6,276.9
		h-4v-2h4V276.9z M598.6,276.9h-4v-2h4V276.9z M590.7,276.9h-4v-2h4V276.9z M582.7,276.9h-4v-2h4V276.9z M574.7,276.9h-4v-2h4V276.9
		z M566.7,276.9h-4v-2h4V276.9z M558.8,276.9h-4v-2h4V276.9z M550.8,276.9h-4v-2h4V276.9z M542.8,276.9h-4v-2h4V276.9z M534.9,276.9
		h-4v-2h4V276.9z M526.9,276.9h-4v-2h4V276.9z M518.9,276.9h-4.1v-2h4.1V276.9z"/>
</g>
<path class="st3" d="M637.7,389.1l-1.3-1.5c4.3-3.8,6.5-7.5,6.5-11v-28.7c-16.9,0-21-5.8-21.6-6.9c-0.4,0.7-0.9,1.3-1.6,1.9
	l-1.3-1.5c0.5-0.4,0.9-0.9,1.1-1.4c0.3-0.6,1-1,1.7-1c0,0,0,0,0,0c0.8,0,1.4,0.5,1.7,1.1c0,0,3.1,5.9,20,5.9c1,0,1.9,0.8,1.9,1.8
	l0,28.9C644.8,380.7,642.4,384.9,637.7,389.1z M642.9,347.8C642.9,347.8,642.9,347.8,642.9,347.8
	C642.9,347.8,642.9,347.8,642.9,347.8C642.9,347.8,642.9,347.8,642.9,347.8z M621.3,340.7C621.3,340.7,621.3,340.7,621.3,340.7
	C621.3,340.7,621.3,340.7,621.3,340.7z"/>
<path class="st3" d="M644.4,384.4l-1.3-1.5c4.3-3.8,6.5-7.5,6.5-11v-28.7c-16.9,0-21-5.8-21.6-6.9c-0.4,0.8-1,1.4-1.6,1.9l-1.2-1.6
	c0.5-0.4,0.9-0.8,1.2-1.4c0.3-0.6,0.9-1,1.7-1c0.8,0,1.4,0.5,1.7,1.1c0,0,3.1,5.9,20,5.9c1,0,1.9,0.8,1.9,1.8l0,28.8
	C651.6,376,649.2,380.2,644.4,384.4z M649.7,343.1L649.7,343.1C649.7,343.1,649.7,343.1,649.7,343.1
	C649.7,343.1,649.7,343.1,649.7,343.1z M628.1,336.1C628.1,336.1,628.1,336.1,628.1,336.1C628.1,336.1,628.1,336.1,628.1,336.1z"/>
<path class="st3" d="M614.2,403.8C614.2,403.8,614.2,403.8,614.2,403.8c-0.3,0-0.5,0-0.8-0.1c-2.3-1-22.8-10-22.8-22.1v-28.8
	c0-0.5,0.2-1,0.6-1.3c0.4-0.3,0.8-0.5,1.3-0.5c16.3,0,19.7-5.5,19.9-5.9l0-0.1c0.3-0.7,1-1.1,1.7-1.1c0,0,0,0,0,0
	c0.8,0,1.4,0.5,1.7,1.1c0,0,3.1,5.9,20,5.9c0,0,0,0,0,0c1,0,1.8,0.8,1.9,1.8l0,28.9c0,12.2-20.5,21.1-22.9,22.1
	C614.7,403.7,614.5,403.8,614.2,403.8z M592.6,352.8l0,28.7c0,11,20.7,19.9,21.6,20.3c0.8-0.4,21.6-9.2,21.6-20.3v-28.7
	c-17,0-21-5.8-21.6-6.9C613.2,347.8,608.2,352.8,592.6,352.8z M592.5,352.8L592.5,352.8C592.5,352.8,592.5,352.8,592.5,352.8
	L592.5,352.8z M614.3,345.7C614.3,345.7,614.3,345.8,614.3,345.7C614.3,345.8,614.3,345.8,614.3,345.7L614.3,345.7z"/>
<path class="st3" d="M599.3,379.4c-2.3,0-4.1-1.8-4.1-4.1s1.8-4.1,4.1-4.1s4.1,1.8,4.1,4.1S601.6,379.4,599.3,379.4z M599.3,373.2
	c-1.2,0-2.1,0.9-2.1,2.1s0.9,2.1,2.1,2.1c1.2,0,2.1-0.9,2.1-2.1S600.5,373.2,599.3,373.2z"/>
<rect x="602.4" y="374.3" class="st3" width="28.6" height="2"/>
<rect x="605.1" y="367.1" transform="matrix(0.7071 -0.7071 0.7071 0.7071 -80.2618 542.3803)" class="st3" width="18.9" height="2"/>
<rect x="613.6" y="373.1" transform="matrix(0.7068 -0.7074 0.7074 0.7068 -90.4694 546.8907)" class="st3" width="2" height="18.9"/>
<polygon class="st3" points="622.3,368.7 620.3,368.7 620.3,362.3 614,362.3 614,360.3 622.3,360.3 "/>
<polygon class="st3" points="626.5,381.3 625.1,379.8 629.6,375.4 625.1,370.9 626.5,369.5 632.4,375.4 "/>
<polygon class="st3" points="622.3,390.3 614,390.3 614,388.3 620.3,388.3 620.3,382 622.3,382 "/>
<path class="st4" d="M554.9,486.6v-2c1.6,0,2.9-1.3,2.9-2.9v-28.1c0-1.6-1.3-2.9-2.9-2.9h-28c-1.6,0-2.9,1.3-2.9,2.9h-2
	c0-2.7,2.2-4.9,4.9-4.9h28c2.7,0,4.9,2.2,4.9,4.9v28.1C559.8,484.4,557.6,486.6,554.9,486.6z"/>
<path class="st4" d="M560.8,480v-2c1.6,0,2.9-1.3,2.9-2.9V447c0-1.6-1.4-2.9-2.9-2.9h-28c-1.6,0-2.9,1.3-2.9,2.9h-2
	c0-2.7,2.2-4.9,4.9-4.9h28c0,0,0,0,0,0c2.7,0,4.9,2.2,4.9,4.9l0,28.1C565.7,477.8,563.5,480,560.8,480z"/>
<path class="st4" d="M549,493h-28c-2.7,0-4.9-2.2-4.9-4.9V460c0-2.7,2.2-4.9,4.9-4.9h28c2.7,0,4.9,2.2,4.9,4.9v28.1
	C553.9,490.8,551.7,493,549,493z M521,457.1c-1.6,0-2.9,1.3-2.9,2.9v28.1c0,1.6,1.3,2.9,2.9,2.9h28c1.6,0,2.9-1.3,2.9-2.9V460
	c0-1.6-1.3-2.9-2.9-2.9H521z"/>
<path class="st4" d="M528.4,476.4h-4.1l-0.9,2.5h-1.4l3.8-9.9h1.2l3.8,9.9h-1.4L528.4,476.4z M524.7,475.2h3.3l-1.6-4.5l0,0
	L524.7,475.2z"/>
<path class="st4" d="M533.4,474.9v4H532V469h3.8c0.9-0.1,1.8,0.2,2.5,0.8c1.2,1.2,1.2,3.1,0,4.3c-0.7,0.6-1.6,0.9-2.5,0.8
	L533.4,474.9z M533.4,473.9h2.4c1.1,0.1,2-0.7,2-1.8c0.1-1.1-0.7-2-1.8-2c-0.1,0-0.2,0-0.3,0h-2.4V473.9z"/>
<path class="st4" d="M542.3,474.9v4h-1.3V469h3.8c0.9-0.1,1.8,0.2,2.5,0.8c1.2,1.2,1.2,3.1,0,4.3c-0.7,0.6-1.6,0.9-2.5,0.8
	L542.3,474.9z M542.3,473.9h2.4c1.1,0.1,2-0.7,2-1.8c0.1-1.1-0.7-2-1.8-2c-0.1,0-0.2,0-0.3,0h-2.4V473.9z"/>
<path class="st4" d="M635.1,486.6v-2c1.6,0,2.9-1.3,2.9-2.9v-28.1c0-1.6-1.3-2.9-2.9-2.9h-28c-1.6,0-2.9,1.3-2.9,2.9h-2
	c0-2.7,2.2-4.9,4.9-4.9h28c2.7,0,4.9,2.2,4.9,4.9v28.1C640,484.4,637.8,486.6,635.1,486.6z"/>
<path class="st4" d="M641,480l0-2c1.6,0,2.9-1.3,2.9-2.9V447c0-0.8-0.3-1.6-0.9-2.1c-0.6-0.5-1.3-0.8-2.1-0.8h-28
	c-1.6,0-2.9,1.3-2.9,2.9h-2c0-2.7,2.2-4.9,4.9-4.9h28c1.3,0,2.5,0.5,3.5,1.4s1.5,2.1,1.5,3.4l0,28.2C645.9,477.8,643.7,480,641,480z
	"/>
<path class="st4" d="M629.2,493h-28c-2.7,0-4.9-2.2-4.9-4.9V460c0-2.7,2.2-4.9,4.9-4.9h28c2.7,0,4.9,2.2,4.9,4.9v28.1
	C634.1,490.8,631.9,493,629.2,493z M601.2,457.1c-1.6,0-2.9,1.3-2.9,2.9v28.1c0,1.6,1.3,2.9,2.9,2.9h28c1.6,0,2.9-1.3,2.9-2.9V460
	c0-1.6-1.3-2.9-2.9-2.9H601.2z"/>
<path class="st4" d="M608.6,476.4h-4.1l-0.9,2.5h-1.4l3.9-9.9h1.2l3.8,9.9h-1.4L608.6,476.4z M604.9,475.2h3.3l-1.6-4.5l0,0
	L604.9,475.2z"/>
<path class="st4" d="M613.6,474.9v4h-1.3V469h3.8c0.9-0.1,1.8,0.2,2.5,0.8c1.2,1.2,1.2,3.1,0,4.3c-0.7,0.6-1.6,0.9-2.5,0.8
	L613.6,474.9z M613.6,473.9h2.4c1.1,0.1,2-0.7,2-1.8c0.1-1.1-0.7-2-1.8-2c-0.1,0-0.2,0-0.3,0h-2.4V473.9z"/>
<path class="st4" d="M622.5,474.9v4h-1.3V469h3.8c0.9-0.1,1.8,0.2,2.5,0.8c1.2,1.2,1.2,3.1,0,4.3c-0.7,0.6-1.6,0.9-2.5,0.8
	L622.5,474.9z M622.5,473.9h2.4c1.1,0.1,2-0.7,2-1.8c0.1-1.1-0.7-2-1.8-2c-0.1,0-0.2,0-0.3,0h-2.4V473.9z"/>
<path class="st4" d="M722.6,486.6v-2c1.6,0,2.9-1.3,2.9-2.9v-28.1c0-1.6-1.3-2.9-2.9-2.9h-28c-1.6,0-2.9,1.3-2.9,2.9h-2
	c0-2.7,2.2-4.9,4.9-4.9h28c2.7,0,4.9,2.2,4.9,4.9v28.1C727.5,484.4,725.3,486.6,722.6,486.6z"/>
<path class="st4" d="M728.5,480v-2c1.6,0,2.9-1.3,2.9-2.9V447c0-1.6-1.3-2.9-2.9-2.9h-28c-1.6,0-2.9,1.3-2.9,2.9h-2
	c0-2.7,2.2-4.9,4.9-4.9h28c0,0,0,0,0,0c2.7,0,4.9,2.2,4.9,4.9l0,28.1C733.4,477.8,731.2,480,728.5,480z"/>
<path class="st4" d="M716.7,493h-28c-2.7,0-4.9-2.2-4.9-4.9V460c0-2.7,2.2-4.9,4.9-4.9h28c2.7,0,4.9,2.2,4.9,4.9v28.1
	C721.6,490.8,719.4,493,716.7,493z M688.7,457.1c-1.6,0-2.9,1.3-2.9,2.9v28.1c0,1.6,1.3,2.9,2.9,2.9h28c1.6,0,2.9-1.3,2.9-2.9V460
	c0-1.6-1.3-2.9-2.9-2.9H688.7z"/>
<path class="st4" d="M696.1,476.4h-4.1l-0.9,2.5h-1.4l3.8-9.9h1.2l3.8,9.9H697L696.1,476.4z M692.4,475.2h3.3l-1.6-4.5l0,0
	L692.4,475.2z"/>
<path class="st4" d="M701.1,474.9v4h-1.3V469h3.8c0.9-0.1,1.8,0.2,2.5,0.8c1.2,1.2,1.2,3.1,0,4.3c-0.7,0.6-1.6,0.9-2.5,0.8
	L701.1,474.9z M701.1,473.9h2.4c1.1,0.1,2-0.7,2-1.8c0.1-1.1-0.7-2-1.8-2c-0.1,0-0.2,0-0.3,0h-2.4V473.9z"/>
<path class="st4" d="M710,474.9v4h-1.3V469h3.8c0.9-0.1,1.8,0.2,2.5,0.8c1.2,1.2,1.2,3.1,0,4.3c-0.7,0.6-1.6,0.9-2.5,0.8L710,474.9z
	 M710,473.9h2.4c1.1,0.1,2-0.7,2-1.8c0.1-1.1-0.7-2-1.8-2c-0.1,0-0.2,0-0.3,0H710V473.9z"/>
<path class="st5" d="M587.2,633v4.3h-1.4v-10.7h4.1c1-0.1,1.9,0.3,2.7,0.9c1.3,1.3,1.3,3.4,0,4.6c-0.7,0.6-1.7,0.9-2.7,0.9
	L587.2,633z M587.2,631.9h2.6c1.1,0,2.1-0.9,2.1-2.1c0-1.1-0.9-2.1-2.1-2.1c0,0,0,0,0,0h-2.6V631.9z"/>
<path class="st5" d="M596.8,632.7v4.6h-1.4v-10.7h3.9c1-0.1,1.9,0.2,2.7,0.8c0.6,0.6,1,1.4,0.9,2.3c0,0.5-0.1,1-0.4,1.4
	c-0.3,0.4-0.7,0.8-1.2,1c0.5,0.1,1,0.5,1.3,0.9c0.3,0.5,0.4,1,0.4,1.6v1c0,0.3,0,0.6,0.1,0.9c0.1,0.2,0.2,0.5,0.4,0.6v0.2h-1.5
	c-0.2-0.2-0.3-0.5-0.4-0.7c-0.1-0.3-0.1-0.7-0.1-1v-1c0-0.5-0.2-1-0.5-1.4c-0.4-0.4-0.8-0.6-1.3-0.5L596.8,632.7z M596.8,631.5h2.3
	c0.6,0.1,1.2-0.1,1.8-0.5c0.4-0.4,0.6-0.9,0.5-1.4c0-0.5-0.2-1-0.5-1.4c-0.5-0.4-1-0.5-1.6-0.5h-2.4V631.5z"/>
<path class="st5" d="M606.9,637.3h-1.5v-10.7h1.5V637.3z"/>
<path class="st5" d="M612.7,634.6l0.2,0.8l0,0l0.2-0.8l2.8-8h1.6l-4,10.7h-1.2l-4-10.7h1.7L612.7,634.6z"/>
<path class="st5" d="M624.3,634.5h-4.5l-1,2.8h-1.5l4.1-10.7h1.2l4.1,10.7h-1.5L624.3,634.5z M620.3,633.3h3.6l-1.8-4.9l0,0
	L620.3,633.3z"/>
<path class="st5" d="M635.5,627.8H632v9.5h-1.4v-9.5h-3.4v-1.1h8.3L635.5,627.8z"/>
<path class="st5" d="M643.3,632.3h-4.9v3.8h5.6v1.1H637v-10.7h7v1.1h-5.5v3.5h4.9L643.3,632.3z"/>
<path class="st5" d="M657,633.9L657,633.9c0,1-0.3,1.9-1,2.5c-0.8,0.7-1.8,1.1-2.9,1c-1.1,0-2.2-0.4-3-1.3c-0.8-0.9-1.2-2.1-1.1-3.2
	V631c0-1.2,0.4-2.3,1.1-3.2c0.7-0.9,1.8-1.3,3-1.3c1.1,0,2.1,0.3,2.9,1c0.7,0.7,1.1,1.6,1,2.5l0,0h-1.4c0-0.7-0.2-1.3-0.7-1.8
	c-0.5-0.5-1.2-0.7-1.9-0.7c-0.8,0-1.5,0.4-1.9,1c-0.5,0.7-0.7,1.6-0.7,2.4v1.9c0,0.9,0.2,1.7,0.7,2.4c0.4,0.6,1.2,1,1.9,1
	c0.7,0,1.4-0.2,1.9-0.7c0.5-0.5,0.7-1.1,0.7-1.8L657,633.9z"/>
<path class="st5" d="M660.5,636.2h5v1.1H659v-10.7h1.4L660.5,636.2z"/>
<path class="st5" d="M675,632.9c0,1.2-0.4,2.4-1.2,3.2c-0.8,0.9-2,1.3-3.2,1.3c-1.1,0-2.2-0.4-3-1.3c-0.8-0.9-1.2-2.1-1.2-3.2V631
	c0-1.2,0.4-2.3,1.2-3.2c0.8-0.9,1.9-1.3,3-1.3c1.2,0,2.3,0.4,3.2,1.3c0.8,0.9,1.2,2,1.2,3.2V632.9z M673.5,631
	c0-0.9-0.2-1.7-0.8-2.4c-0.5-0.6-1.3-1-2.1-0.9c-0.8,0-1.5,0.3-2,0.9c-0.5,0.7-0.8,1.5-0.8,2.4v1.9c0,0.9,0.2,1.7,0.8,2.4
	c0.5,0.6,1.2,1,2,0.9c0.8,0,1.6-0.3,2.1-0.9c0.5-0.7,0.8-1.5,0.8-2.4L673.5,631z"/>
<path class="st5" d="M684.9,626.6v7.2c0.1,1-0.4,2-1.1,2.7c-0.9,0.7-1.9,1-3,0.9c-1,0-2-0.3-2.8-0.9c-0.8-0.7-1.2-1.7-1.1-2.7v-7.2
	h1.4v7.2c0,0.7,0.2,1.3,0.7,1.8c0.5,0.4,1.2,0.7,1.8,0.6c0.7,0,1.4-0.2,1.9-0.6c0.5-0.5,0.8-1.1,0.7-1.8v-7.2H684.9z"/>
<path class="st5" d="M687.3,637.3v-10.7h3.3c2.4-0.1,4.5,1.7,4.6,4.1c0,0.2,0,0.3,0,0.5v1.5c0.1,2.4-1.7,4.5-4.1,4.6
	c-0.2,0-0.3,0-0.5,0L687.3,637.3z M688.7,627.8v8.4h1.8c0.9,0,1.7-0.3,2.3-1c0.6-0.7,0.9-1.6,0.8-2.5v-1.5c0-0.9-0.3-1.8-0.8-2.5
	c-0.6-0.7-1.4-1-2.3-1L688.7,627.8z"/>
<polygon class="st6" points="541.2,438.2 539.2,438.2 539.2,377.6 584.5,377.6 584.5,379.6 541.2,379.6 "/>
<polygon class="st6" points="709.2,438.2 707.2,438.2 707.2,379.6 654.9,379.6 654.9,377.6 709.2,377.6 "/>
<rect x="620.1" y="407.5" class="st6" width="2" height="30.8"/>
<g>
	<path class="st0" d="M972.9,275.9h225.2c14.6,0,26.5,11.9,26.5,26.5v205.9c0,14.6-11.9,26.5-26.5,26.5H972.9
		c-14.6,0-26.5-11.9-26.5-26.5V302.3C946.4,287.7,958.3,275.9,972.9,275.9z"/>
	<path class="st1" d="M1198.1,535.7l0-2c1.3,0,2.6-0.1,3.8-0.3l0.3,2C1200.9,535.6,1199.5,535.7,1198.1,535.7z M1194.1,535.7h-4v-2
		h4V535.7z M1186.2,535.7h-4v-2h4V535.7z M1178.2,535.7h-4v-2h4V535.7z M1170.2,535.7h-4v-2h4V535.7z M1162.3,535.7h-4v-2h4V535.7z
		 M1154.3,535.7h-4v-2h4V535.7z M1146.3,535.7h-4v-2h4V535.7z M1138.3,535.7h-4v-2h4V535.7z M1130.4,535.7h-4v-2h4V535.7z
		 M1122.4,535.7h-4v-2h4V535.7z M1114.4,535.7h-4v-2h4V535.7z M1106.5,535.7h-4v-2h4V535.7z M1098.5,535.7h-4v-2h4V535.7z
		 M1090.5,535.7h-4v-2h4V535.7z M1082.5,535.7h-4v-2h4V535.7z M1074.6,535.7h-4v-2h4V535.7z M1066.6,535.7h-4v-2h4V535.7z
		 M1058.6,535.7h-4v-2h4V535.7z M1050.7,535.7h-4v-2h4V535.7z M1042.7,535.7h-4v-2h4V535.7z M1034.7,535.7h-4v-2h4V535.7z
		 M1026.7,535.7h-4v-2h4V535.7z M1018.8,535.7h-4v-2h4V535.7z M1010.8,535.7h-4v-2h4V535.7z M1002.8,535.7h-4v-2h4V535.7z
		 M994.9,535.7h-4v-2h4V535.7z M986.9,535.7h-4v-2h4V535.7z M978.9,535.7h-4v-2h4V535.7z M970.9,535.6c-1.4-0.1-2.7-0.3-4.1-0.6
		l0.4-1.9c1.2,0.3,2.5,0.5,3.8,0.6L970.9,535.6z M1206.3,534.4l-0.6-1.9c1.2-0.4,2.4-0.9,3.6-1.4l0.9,1.8
		C1208.9,533.5,1207.6,534,1206.3,534.4z M962.8,533.7c-1.3-0.5-2.5-1.1-3.7-1.8l1-1.7c1.1,0.6,2.3,1.2,3.4,1.7L962.8,533.7z
		 M1213.7,530.8l-1.1-1.6c1-0.7,2-1.5,3-2.4l1.4,1.5C1215.9,529.2,1214.8,530,1213.7,530.8z M955.7,529.6c-1.1-0.9-2.1-1.8-3-2.8
		l1.5-1.4c0.9,0.9,1.8,1.8,2.8,2.6L955.7,529.6z M1219.7,525.2l-1.6-1.2c0.8-1,1.5-2.1,2.1-3.2l1.7,1
		C1221.3,522.9,1220.5,524.1,1219.7,525.2z M950.1,523.5c-0.8-1.1-1.5-2.3-2-3.6l1.8-0.9c0.5,1.1,1.2,2.3,1.9,3.3L950.1,523.5z
		 M1223.8,518l-1.9-0.7c0.5-1.2,0.8-2.4,1.1-3.7l2,0.4C1224.6,515.4,1224.2,516.7,1223.8,518z M946.6,516.1c-0.4-1.3-0.7-2.7-0.9-4
		l2-0.3c0.2,1.3,0.5,2.5,0.8,3.7L946.6,516.1z M1225.5,509.9l-2-0.1c0-0.5,0.1-1.1,0.1-1.6v-2.3h2v2.3
		C1225.6,508.8,1225.5,509.4,1225.5,509.9z M947.4,507.9h-2v-4h2V507.9z M1225.6,501.9h-2v-4h2V501.9z M947.4,500h-2v-4h2V500z
		 M1225.6,493.9h-2v-4h2V493.9z M947.4,492h-2v-4h2V492z M1225.6,486h-2v-4h2V486z M947.4,484h-2v-4h2V484z M1225.6,478h-2v-4h2V478
		z M947.4,476.1h-2v-4h2V476.1z M1225.6,470h-2v-4h2V470z M947.4,468.1h-2v-4h2V468.1z M1225.6,462h-2v-4h2V462z M947.4,460.1h-2v-4
		h2V460.1z M1225.6,454.1h-2v-4h2V454.1z M947.4,452.1h-2v-4h2V452.1z M1225.6,446.1h-2v-4h2V446.1z M947.4,444.2h-2v-4h2V444.2z
		 M1225.6,438.1h-2v-4h2V438.1z M947.4,436.2h-2v-4h2V436.2z M1225.6,430.2h-2v-4h2V430.2z M947.4,428.2h-2v-4h2V428.2z
		 M1225.6,422.2h-2v-4h2V422.2z M947.4,420.3h-2v-4h2V420.3z M1225.6,414.2h-2v-4h2V414.2z M947.4,412.3h-2v-4h2V412.3z
		 M1225.6,406.2h-2v-4h2V406.2z M947.4,404.3h-2v-4h2V404.3z M1225.6,398.3h-2v-4h2V398.3z M947.4,396.3h-2v-4h2V396.3z
		 M1225.6,390.3h-2v-4h2V390.3z M947.4,388.4h-2v-4h2V388.4z M1225.6,382.3h-2v-4h2V382.3z M947.4,380.4h-2v-4h2V380.4z
		 M1225.6,374.4h-2v-4h2V374.4z M947.4,372.4h-2v-4h2V372.4z M1225.6,366.4h-2v-4h2V366.4z M947.4,364.5h-2v-4h2V364.5z
		 M1225.6,358.4h-2v-4h2V358.4z M947.4,356.5h-2v-4h2V356.5z M1225.6,350.4h-2v-4h2V350.4z M947.4,348.5h-2v-4h2V348.5z
		 M1225.6,342.5h-2v-4h2V342.5z M947.4,340.5h-2v-4h2V340.5z M1225.6,334.5h-2v-4h2V334.5z M947.4,332.6h-2v-4h2V332.6z
		 M1225.6,326.5h-2v-4h2V326.5z M947.4,324.6h-2v-4h2V324.6z M1225.6,318.6h-2v-4h2V318.6z M947.4,316.6h-2v-4h2V316.6z
		 M1225.6,310.6h-2v-4h2V310.6z M947.4,308.7h-2v-4h2V308.7z M1225.6,302.6h-2v-0.3c0-1.2-0.1-2.4-0.2-3.6l2-0.3
		c0.2,1.3,0.3,2.5,0.3,3.8V302.6z M947.5,300.7l-2-0.1c0.1-1.4,0.3-2.8,0.6-4.1l2,0.4C947.7,298.2,947.6,299.5,947.5,300.7z
		 M1222.5,295c-0.4-1.2-0.8-2.4-1.4-3.6l1.8-0.9c0.6,1.2,1.1,2.5,1.5,3.9L1222.5,295z M949.1,293.3l-1.9-0.7
		c0.5-1.3,1.1-2.5,1.8-3.7l1.7,1C950.1,290.9,949.5,292.1,949.1,293.3z M1219.2,288.1c-0.7-1.1-1.5-2.1-2.4-3l1.5-1.4
		c0.9,1,1.8,2.1,2.6,3.2L1219.2,288.1z M952.9,286.6l-1.6-1.2c0.8-1.1,1.8-2.1,2.8-3.1l1.4,1.5C954.5,284.7,953.6,285.6,952.9,286.6
		z M1214.1,282.5c-1-0.8-2.1-1.5-3.2-2.2l1-1.7c1.2,0.7,2.3,1.5,3.4,2.3L1214.1,282.5z M958.4,281.4l-1.1-1.6
		c1.1-0.8,2.3-1.5,3.6-2.1l0.9,1.8C960.6,280,959.5,280.7,958.4,281.4z M1207.5,278.6c-1.2-0.5-2.4-0.9-3.7-1.1l0.4-1.9
		c1.3,0.3,2.7,0.7,3.9,1.2L1207.5,278.6z M965.3,278l-0.6-1.9c1.3-0.4,2.7-0.7,4-0.9l0.3,2C967.7,277.3,966.5,277.6,965.3,278z
		 M1200,276.9c-0.6,0-1.3-0.1-2-0.1h-2v-2h2c0.7,0,1.4,0,2.1,0.1L1200,276.9z M1192.1,276.9h-4v-2h4V276.9z M1184.2,276.9h-4v-2h4
		V276.9z M1176.2,276.9h-4v-2h4V276.9z M1168.2,276.9h-4v-2h4V276.9z M1160.3,276.9h-4v-2h4V276.9z M1152.3,276.9h-4v-2h4V276.9z
		 M1144.3,276.9h-4v-2h4V276.9z M1136.3,276.9h-4v-2h4V276.9z M1128.4,276.9h-4v-2h4V276.9z M1120.4,276.9h-4v-2h4V276.9z
		 M1112.4,276.9h-4v-2h4V276.9z M1104.5,276.9h-4v-2h4V276.9z M1096.5,276.9h-4v-2h4V276.9z M1088.5,276.9h-4v-2h4V276.9z
		 M1080.5,276.9h-4v-2h4V276.9z M1072.6,276.9h-4v-2h4V276.9z M1064.6,276.9h-4v-2h4V276.9z M1056.6,276.9h-4v-2h4V276.9z
		 M1048.7,276.9h-4v-2h4V276.9z M1040.7,276.9h-4v-2h4V276.9z M1032.7,276.9h-4v-2h4V276.9z M1024.7,276.9h-4v-2h4V276.9z
		 M1016.8,276.9h-4v-2h4V276.9z M1008.8,276.9h-4v-2h4V276.9z M1000.8,276.9h-4v-2h4V276.9z M992.8,276.9h-4v-2h4V276.9z
		 M984.9,276.9h-4v-2h4V276.9z M976.9,276.9h-4.1v-2h4.1V276.9z"/>
</g>
<path class="st3" d="M1095.7,389.1l-1.3-1.5c4.3-3.8,6.5-7.5,6.5-11v-28.7c-16.9,0-21-5.8-21.6-6.9c-0.4,0.7-0.9,1.3-1.6,1.9
	l-1.3-1.5c0.5-0.4,0.9-0.9,1.1-1.4c0.3-0.6,1-1,1.7-1c0,0,0,0,0,0c0.8,0,1.4,0.5,1.7,1.1c0,0,3.1,5.9,20,5.9c1,0,1.9,0.8,1.9,1.8
	l0,28.9C1102.8,380.7,1100.4,384.9,1095.7,389.1z M1100.9,347.8C1100.9,347.8,1100.9,347.8,1100.9,347.8
	C1100.9,347.8,1100.9,347.8,1100.9,347.8C1100.9,347.8,1100.9,347.8,1100.9,347.8z M1079.3,340.7
	C1079.3,340.7,1079.3,340.7,1079.3,340.7C1079.3,340.7,1079.3,340.7,1079.3,340.7z"/>
<path class="st3" d="M1102.4,384.4l-1.3-1.5c4.3-3.8,6.5-7.5,6.5-11v-28.7c-16.9,0-21-5.8-21.6-6.9c-0.4,0.8-1,1.4-1.6,1.9l-1.2-1.6
	c0.5-0.4,0.9-0.8,1.2-1.4c0.3-0.6,0.9-1,1.7-1c0,0,0,0,0,0c0.8,0,1.4,0.5,1.7,1.1c0,0,3.1,5.9,20,5.9c1,0,1.9,0.8,1.9,1.8l0,28.8
	C1109.5,376,1107.1,380.2,1102.4,384.4z M1107.7,343.1L1107.7,343.1C1107.7,343.1,1107.7,343.1,1107.7,343.1
	C1107.7,343.1,1107.7,343.1,1107.7,343.1z M1086,336.1C1086,336.1,1086,336.1,1086,336.1C1086,336.1,1086,336.1,1086,336.1z"/>
<path class="st3" d="M1072.2,403.8C1072.2,403.8,1072.2,403.8,1072.2,403.8c-0.3,0-0.5,0-0.8-0.1c-2.3-1-22.8-10-22.8-22.1v-28.8
	c0-0.5,0.2-1,0.6-1.3c0.4-0.3,0.8-0.5,1.3-0.5c16.3,0,19.7-5.4,19.9-5.9l0-0.1c0.3-0.7,1-1.1,1.7-1.1c0,0,0,0,0,0
	c0.8,0,1.4,0.5,1.7,1.1c0,0,3.1,5.9,20,5.9c0,0,0,0,0,0c1,0,1.8,0.8,1.9,1.8l0,28.9c0,12.2-20.5,21.1-22.9,22.1
	C1072.7,403.7,1072.5,403.8,1072.2,403.8z M1050.6,352.8v28.7c0,11,20.7,19.9,21.6,20.3c0.5-0.2,5.9-2.5,11.2-6.2
	c4.7-3.3,10.3-8.4,10.3-14.1v-28.7c-17,0-21-5.8-21.6-6.9C1071.2,347.8,1066.2,352.8,1050.6,352.8z M1050.5,352.8
	C1050.5,352.8,1050.5,352.8,1050.5,352.8L1050.5,352.8L1050.5,352.8z M1072.3,345.7C1072.3,345.7,1072.3,345.8,1072.3,345.7
	C1072.3,345.8,1072.3,345.8,1072.3,345.7L1072.3,345.7z"/>
<path class="st3" d="M1057.3,379.4c-2.3,0-4.1-1.8-4.1-4.1s1.8-4.1,4.1-4.1s4.1,1.8,4.1,4.1S1059.5,379.4,1057.3,379.4z
	 M1057.3,373.2c-1.2,0-2.1,0.9-2.1,2.1s0.9,2.1,2.1,2.1s2.1-0.9,2.1-2.1S1058.4,373.2,1057.3,373.2z"/>
<rect x="1060.4" y="374.3" class="st3" width="28.6" height="2"/>
<rect x="1063.1" y="367.1" transform="matrix(0.7071 -0.7071 0.7071 0.7071 53.8789 866.2245)" class="st3" width="18.9" height="2"/>
<rect x="1071.6" y="373.1" transform="matrix(0.7071 -0.7071 0.7071 0.7071 43.6113 870.4775)" class="st3" width="2" height="18.9"/>
<polygon class="st3" points="1080.3,368.7 1078.3,368.7 1078.3,362.3 1072,362.3 1072,360.3 1080.3,360.3 "/>
<polygon class="st3" points="1084.5,381.3 1083.1,379.8 1087.6,375.4 1083.1,370.9 1084.5,369.5 1090.4,375.4 "/>
<polygon class="st3" points="1080.3,390.3 1072,390.3 1072,388.3 1078.3,388.3 1078.3,382 1080.3,382 "/>
<path class="st4" d="M1012.9,486.6v-2c1.6,0,2.9-1.3,2.9-2.9v-28.1c0-1.6-1.3-2.9-2.9-2.9h-28c-1.6,0-2.9,1.3-2.9,2.9h-2
	c0-2.7,2.2-4.9,4.9-4.9h28c2.7,0,4.9,2.2,4.9,4.9v28.1C1017.8,484.4,1015.6,486.6,1012.9,486.6z"/>
<path class="st4" d="M1018.7,480v-2c1.6,0,2.9-1.3,2.9-2.9V447c0-1.6-1.3-2.9-2.9-2.9h-28c-1.6,0-2.9,1.3-2.9,2.9h-2
	c0-2.7,2.2-4.9,4.9-4.9h28c2.7,0,4.9,2.2,4.9,4.9v28.1C1023.7,477.8,1021.4,480,1018.7,480z"/>
<path class="st4" d="M1007,493h-28c-2.7,0-4.9-2.2-4.9-4.9V460c0-2.7,2.2-4.9,4.9-4.9h28c2.7,0,4.9,2.2,4.9,4.9v28.1
	C1011.9,490.8,1009.7,493,1007,493z M979,457.1c-1.6,0-2.9,1.3-2.9,2.9v28.1c0,1.6,1.3,2.9,2.9,2.9h28c1.6,0,2.9-1.3,2.9-2.9V460
	c0-1.6-1.3-2.9-2.9-2.9H979z"/>
<path class="st4" d="M986.4,476.4h-4.1l-0.9,2.5h-1.4l3.8-9.9h1.2l3.8,9.9h-1.4L986.4,476.4z M982.7,475.2h3.3l-1.6-4.5l0,0
	L982.7,475.2z"/>
<path class="st4" d="M991.3,474.9v4H990V469h3.8c0.9-0.1,1.8,0.2,2.5,0.8c1.2,1.2,1.2,3.1,0,4.3c-0.7,0.6-1.6,0.9-2.5,0.8
	L991.3,474.9z M991.3,473.9h2.4c1.1,0.1,2-0.7,2-1.8c0.1-1.1-0.7-2-1.8-2c-0.1,0-0.2,0-0.3,0h-2.4V473.9z"/>
<path class="st4" d="M1000.2,474.9v4h-1.3V469h3.8c0.9-0.1,1.8,0.2,2.5,0.8c1.2,1.2,1.2,3.1,0,4.3c-0.7,0.6-1.6,0.9-2.5,0.8
	L1000.2,474.9z M1000.2,473.9h2.4c1.1,0.1,2-0.7,2-1.8c0.1-1.1-0.7-2-1.8-2c-0.1,0-0.2,0-0.3,0h-2.4V473.9z"/>
<path class="st4" d="M1093.1,486.6v-2c1.6,0,2.9-1.3,2.9-2.9v-28.1c0-1.6-1.3-2.9-2.9-2.9h-28c-1.6,0-2.9,1.3-2.9,2.9h-2
	c0-2.7,2.2-4.9,4.9-4.9h28c2.7,0,4.9,2.2,4.9,4.9v28.1C1098,484.4,1095.8,486.6,1093.1,486.6z"/>
<path class="st4" d="M1099,480l0-2c1.6,0,2.9-1.4,2.8-2.9V447c0-1.6-1.3-2.9-2.9-2.9h-28c-1.6,0-2.9,1.3-2.9,2.9h-2
	c0-2.7,2.2-4.9,4.9-4.9h28c2.7,0,4.9,2.2,4.9,4.9v28.1C1103.8,477.7,1101.7,479.9,1099,480z"/>
<path class="st4" d="M1087.2,493h-28c-2.7,0-4.9-2.2-4.9-4.9V460c0-2.7,2.2-4.9,4.9-4.9h28c2.7,0,4.9,2.2,4.9,4.9v28.1
	C1092.1,490.8,1089.9,493,1087.2,493z M1059.2,457.1c-1.6,0-2.9,1.3-2.9,2.9v28.1c0,1.6,1.3,2.9,2.9,2.9h28c1.6,0,2.9-1.3,2.9-2.9
	V460c0-1.6-1.3-2.9-2.9-2.9H1059.2z"/>
<path class="st4" d="M1066.6,476.4h-4.1l-0.9,2.5h-1.4l3.9-9.9h1.2l3.8,9.9h-1.4L1066.6,476.4z M1062.8,475.2h3.3l-1.6-4.5l0,0
	L1062.8,475.2z"/>
<path class="st4" d="M1071.6,474.9v4h-1.3V469h3.8c0.9-0.1,1.8,0.2,2.4,0.8c1.2,1.2,1.2,3.1,0,4.3c-0.7,0.6-1.6,0.9-2.4,0.8
	L1071.6,474.9z M1071.6,473.9h2.4c1.1,0.1,2-0.7,2-1.8s-0.7-2-1.8-2c-0.1,0-0.2,0-0.3,0h-2.4L1071.6,473.9z"/>
<path class="st4" d="M1080.4,474.9v4h-1.3V469h3.8c0.9-0.1,1.8,0.2,2.4,0.8c1.2,1.2,1.2,3.1,0,4.3c-0.7,0.6-1.6,0.9-2.4,0.8
	L1080.4,474.9z M1080.4,473.9h2.4c1.1,0.1,2-0.7,2-1.8s-0.7-2-1.8-2c-0.1,0-0.2,0-0.3,0h-2.4V473.9z"/>
<path class="st4" d="M1180.6,486.6v-2c1.6,0,2.9-1.3,2.9-2.9v-28.1c0-1.6-1.3-2.9-2.9-2.9h-28c-1.6,0-2.9,1.3-2.9,2.9h-2
	c0-2.7,2.2-4.9,4.9-4.9h28c2.7,0,4.9,2.2,4.9,4.9v28.1C1185.5,484.4,1183.3,486.6,1180.6,486.6z"/>
<path class="st4" d="M1186.4,480v-2c1.6,0,2.9-1.3,2.9-2.9V447c0-1.6-1.3-2.9-2.9-2.9h-28c-1.6,0-2.9,1.3-2.9,2.9h-2
	c0-2.7,2.2-4.9,4.9-4.9h28c2.7,0,4.9,2.2,4.9,4.9v28.1C1191.3,477.8,1189.1,480,1186.4,480z"/>
<path class="st4" d="M1174.7,493h-28c-2.7,0-4.9-2.2-4.9-4.9V460c0-2.7,2.2-4.9,4.9-4.9h28c2.7,0,4.9,2.2,4.9,4.9v28.1
	C1179.6,490.8,1177.4,493,1174.7,493z M1146.7,457.1c-1.6,0-2.9,1.3-2.9,2.9v28.1c0,1.6,1.3,2.9,2.9,2.9h28c1.6,0,2.9-1.3,2.9-2.9
	V460c0-1.6-1.3-2.9-2.9-2.9H1146.7z"/>
<path class="st4" d="M1154.1,476.4h-4.1l-0.9,2.5h-1.4l3.8-9.9h1.2l3.8,9.9h-1.4L1154.1,476.4z M1150.3,475.2h3.3l-1.6-4.5l0,0
	L1150.3,475.2z"/>
<path class="st4" d="M1159,474.9v4h-1.3V469h3.8c0.9-0.1,1.8,0.2,2.4,0.8c1.2,1.2,1.2,3.1,0,4.3c-0.7,0.6-1.6,0.9-2.4,0.8
	L1159,474.9z M1159,473.9h2.4c1.1,0.1,2-0.7,2-1.8s-0.7-2-1.8-2c-0.1,0-0.2,0-0.3,0h-2.4V473.9z"/>
<path class="st4" d="M1167.9,474.9v4h-1.3V469h3.8c0.9-0.1,1.8,0.2,2.4,0.8c1.2,1.2,1.2,3.1,0,4.3c-0.7,0.6-1.6,0.9-2.4,0.8
	L1167.9,474.9z M1167.9,473.9h2.4c1.1,0.1,2-0.7,2-1.8s-0.7-2-1.8-2c-0.1,0-0.2,0-0.3,0h-2.4V473.9z"/>
<path class="st5" d="M208.1,637.3v-10.7h3.3c2.4-0.1,4.5,1.7,4.6,4.1c0,0.2,0,0.3,0,0.5v1.5c0.1,2.4-1.7,4.5-4.1,4.6
	c-0.2,0-0.3,0-0.5,0L208.1,637.3z M209.5,627.8v8.4h1.8c0.9,0,1.7-0.3,2.3-1c0.6-0.7,0.9-1.6,0.9-2.5v-1.5c0-0.9-0.3-1.8-0.9-2.5
	c-0.6-0.7-1.4-1-2.3-1L209.5,627.8z"/>
<path class="st5" d="M223.6,634.5h-4.5l-1,2.8h-1.5l4.1-10.7h1.2l4,10.7h-1.5L223.6,634.5z M219.6,633.3h3.6l-1.8-4.9l0,0
	L219.6,633.3z"/>
<path class="st5" d="M234.7,627.8h-3.4v9.5h-1.4v-9.5h-3.4v-1.1h8.3V627.8z"/>
<path class="st5" d="M241.3,634.5h-4.5l-1,2.8h-1.5l4.1-10.7h1.2l4.1,10.7h-1.5L241.3,634.5z M237.3,633.3h3.6l-1.8-4.9l0,0
	L237.3,633.3z"/>
<path class="st5" d="M256.5,633.9L256.5,633.9c0,1-0.3,1.9-1.1,2.5c-0.8,0.7-1.8,1.1-2.9,1c-1.1,0-2.2-0.4-2.9-1.3
	c-0.8-0.9-1.2-2.1-1.1-3.2V631c0-1.2,0.4-2.3,1.1-3.2c0.7-0.9,1.8-1.3,2.9-1.3c1.1,0,2.1,0.3,2.9,1c0.7,0.7,1.1,1.6,1,2.5l0,0h-1.4
	c0-0.7-0.2-1.3-0.7-1.8c-0.5-0.5-1.2-0.7-1.9-0.7c-0.8,0-1.5,0.4-1.9,1c-0.5,0.7-0.7,1.6-0.7,2.4v1.9c0,0.9,0.2,1.7,0.7,2.4
	c0.4,0.6,1.2,1,1.9,1c0.7,0,1.4-0.2,1.9-0.7c0.5-0.5,0.7-1.1,0.7-1.8L256.5,633.9z"/>
<path class="st5" d="M264.8,632.3h-4.9v3.8h5.6v1.1h-7.1v-10.7h7v1.1h-5.5v3.5h4.9L264.8,632.3z"/>
<path class="st5" d="M275.3,637.3h-1.4l-5.1-8.3l0,0v8.2h-1.4v-10.6h1.4l5.1,8.2l0,0v-8.2h1.4L275.3,637.3z"/>
<path class="st5" d="M284.9,627.8h-3.4v9.5h-1.4v-9.5h-3.4v-1.1h8.3V627.8z"/>
<path class="st5" d="M292.8,632.3h-4.9v3.8h5.6v1.1h-7.1v-10.7h7v1.1h-5.5v3.5h4.9L292.8,632.3z"/>
<path class="st5" d="M296.7,632.7v4.6h-1.4v-10.7h3.9c1-0.1,1.9,0.2,2.7,0.8c0.6,0.6,1,1.4,0.9,2.3c0,0.5-0.1,1-0.4,1.4
	c-0.3,0.4-0.7,0.8-1.2,1c0.5,0.1,1,0.5,1.3,0.9c0.3,0.5,0.4,1,0.4,1.6v1c0,0.3,0,0.6,0.1,0.9c0.1,0.2,0.2,0.5,0.4,0.6v0.2h-1.5
	c-0.2-0.2-0.3-0.5-0.4-0.7c-0.1-0.3-0.1-0.7-0.1-1v-1c0-0.5-0.2-1-0.5-1.4c-0.4-0.4-0.8-0.6-1.4-0.5L296.7,632.7z M296.7,631.5h2.3
	c0.6,0.1,1.2-0.1,1.8-0.5c0.4-0.4,0.6-0.9,0.5-1.4c0-0.5-0.2-1-0.5-1.4c-0.5-0.4-1-0.5-1.6-0.5h-2.5V631.5z"/>
<polygon class="st6" points="999.2,438.2 997.2,438.2 997.2,377.6 1042.5,377.6 1042.5,379.6 999.2,379.6 "/>
<polygon class="st6" points="1167.2,438.2 1165.2,438.2 1165.2,379.6 1112.9,379.6 1112.9,377.6 1167.2,377.6 "/>
<rect x="1078.1" y="407.5" class="st6" width="2" height="30.8"/>
<path class="st2" d="M725.5,218h-4v-2h3.9L725.5,218z M717.5,218h-4v-2h4V218z M709.6,218h-4v-2h4V218z M701.6,218h-4v-2h4V218z
	 M693.6,218h-4v-2h4V218z M685.6,218h-4v-2h4V218z M677.7,218h-4v-2h4V218z M669.7,218h-4v-2h4V218z M661.7,218h-4v-2h4V218z
	 M653.7,218h-4v-2h4V218z M645.8,218h-4v-2h4V218z M637.8,218h-4v-2h4V218z M629.8,218h-4v-2h4V218z M621.8,218h-4v-2h4V218z
	 M613.9,218h-4v-2h4V218z M605.9,218h-4v-2h4V218z M597.9,218h-4v-2h4V218z M589.9,218h-4v-2h4V218z M582,218h-4v-2h4V218z M574,218
	h-4v-2h4V218z M566,218h-4v-2h4V218z M558,218h-4v-2h4V218z M550.1,218h-4v-2h4V218z M542.1,218h-4v-2h4V218z M534.1,218h-4v-2h4
	V218z M526.1,218h-1.6c-0.8,0-1.6,0-2.5-0.1l0.1-2c0.8,0.1,1.6,0.1,2.3,0.1h1.6V218z M729.6,217.8l-0.2-2c1.3-0.1,2.6-0.4,3.8-0.6
	l0.4,2C732.3,217.4,731,217.6,729.6,217.8z M518,217.5c-1.3-0.2-2.7-0.5-4-0.9l0.6-1.9c1.2,0.4,2.5,0.7,3.8,0.9L518,217.5z
	 M737.6,216l-0.6-1.9c1.2-0.4,2.4-0.9,3.6-1.5l0.8,1.8C740.2,215.1,738.9,215.6,737.6,216z M510.2,215.2c-1.3-0.5-2.5-1.1-3.7-1.8
	l1-1.8c1.1,0.6,2.3,1.2,3.5,1.7L510.2,215.2z M745,212.5l-1-1.7c1.1-0.7,2.2-1.4,3.2-2.2l1.2,1.6C747.3,211,746.2,211.8,745,212.5z
	 M503,211.2c-1.1-0.8-2.2-1.6-3.2-2.5l1.3-1.5c1,0.9,2,1.7,3,2.4L503,211.2z M751.5,207.5l-1.4-1.4c0.9-0.9,1.8-1.8,2.6-2.8l1.5,1.3
	C753.4,205.6,752.4,206.6,751.5,207.5z M496.9,205.8c-0.9-1-1.8-2.1-2.6-3.2l1.6-1.2c0.8,1,1.6,2,2.5,3L496.9,205.8z M756.7,201.3
	l-1.7-1.1c0.7-1.1,1.4-2.2,2-3.3l1.8,0.9C758.2,199,757.5,200.1,756.7,201.3z M492,199.2c-0.7-1.2-1.3-2.4-1.9-3.6l1.8-0.8
	c0.5,1.2,1.1,2.3,1.8,3.5L492,199.2z M760.5,194l-1.9-0.7c0.5-1.2,0.9-2.4,1.2-3.7l1.9,0.5C761.4,191.4,761,192.8,760.5,194z
	 M488.7,191.8c-0.4-1.3-0.8-2.6-1-4l2-0.4c0.2,1.3,0.6,2.5,1,3.8L488.7,191.8z M762.6,186.1l-2-0.3c0.2-1.3,0.3-2.6,0.4-3.9l2,0.1
	C762.9,183.4,762.8,184.8,762.6,186.1z M487.1,183.7c-0.1-1.1-0.1-2.2-0.1-3.3v-0.8h2v0.8c0,1,0,2.1,0.1,3.1L487.1,183.7z M763,178
	h-2v-4h2V178z M489,175.7h-2v-4h2V175.7z M763,170h-2v-4h2V170z M489,167.7h-2v-4h2V167.7z M763,162.1h-2v-4h2V162.1z M489,159.7h-2
	v-4h2V159.7z M763,154.1h-2v-4h2V154.1z M489,151.8h-2v-4h2V151.8z M763,146.1h-2v-4h2V146.1z M489,143.8h-2v-4h2V143.8z M763,138.1
	h-2v-4h2V138.1z M489,135.8h-2v-4h2V135.8z M763,130.2h-2v-4h2V130.2z M489,127.8h-2v-4h2V127.8z M763,122.2h-2v-4h2V122.2z
	 M489,119.9h-2v-4h2V119.9z M763,114.2h-2v-4h2V114.2z M489,111.9h-2v-4h2V111.9z M763,106.2h-2v-4h2V106.2z M489,103.9h-2v-4h2
	V103.9z M763,98.3h-2v-4h2V98.3z M489,95.9h-2v-4h2V95.9z M763,90.3h-2v-4h2V90.3z M489,88h-2v-4h2V88z M763,82.3h-2v-4h2V82.3z
	 M489,80h-2v-4h2V80z M763,74.3h-2v-4h2V74.3z M489,72h-2v-4h2V72z M763,66.4h-2v-4h2V66.4z M489,64h-2v-4h2V64z M763,58.4h-2v-4h2
	V58.4z M489,56h-2v-4h2V56z M763,50.4h-2v-4h2V50.4z M489,48.1h-2v-4h2V48.1z M763,42.4h-2v-0.9c0-1,0-2-0.1-3l2-0.2
	c0.1,1.1,0.1,2.1,0.1,3.2V42.4z M489,40.1l-2-0.1c0.1-1.4,0.2-2.7,0.4-4.1l2,0.3C489.2,37.5,489.1,38.8,489,40.1z M760.3,34.7
	c-0.2-1.3-0.6-2.5-1-3.8l1.9-0.6c0.4,1.3,0.7,2.6,1,4L760.3,34.7z M490.2,32.5l-1.9-0.5c0.3-1.3,0.8-2.6,1.3-3.9l1.9,0.7
	C490.9,30,490.5,31.2,490.2,32.5z M758,27.3c-0.5-1.2-1.1-2.3-1.7-3.5l1.7-1c0.7,1.2,1.3,2.4,1.8,3.7L758,27.3z M492.9,25.3
	l-1.8-0.9c0.6-1.2,1.3-2.4,2.1-3.5l1.7,1.1C494.2,23,493.5,24.1,492.9,25.3z M754.2,20.6c-0.8-1-1.6-2-2.5-3l1.5-1.3
	c0.9,1,1.8,2.1,2.6,3.2L754.2,20.6z M497.2,18.8l-1.5-1.3c0.9-1,1.8-2.1,2.8-3l1.4,1.4C498.9,16.9,498.1,17.8,497.2,18.8z M749,14.9
	c-1-0.9-2-1.7-3-2.4l1.2-1.6c1.1,0.8,2.2,1.6,3.2,2.5L749,14.9z M502.8,13.4l-1.2-1.6c1.1-0.8,2.2-1.6,3.4-2.3l1,1.7
	C504.9,11.9,503.8,12.6,502.8,13.4z M742.6,10.4c-1.1-0.6-2.3-1.2-3.5-1.7l0.8-1.8c1.3,0.5,2.5,1.1,3.7,1.8L742.6,10.4z M509.4,9.4
	l-0.9-1.8c1.2-0.6,2.5-1.1,3.8-1.5l0.7,1.9C511.8,8.3,510.6,8.8,509.4,9.4z M735.5,7.4c-1.2-0.4-2.5-0.7-3.8-0.9l0.3-2
	c1.3,0.2,2.7,0.6,4,0.9L735.5,7.4z M516.7,6.9l-0.4-2c1.3-0.3,2.7-0.5,4-0.7l0.2,2C519.3,6.4,518,6.6,516.7,6.9z M727.9,6.1
	C727.1,6,726.3,6,725.5,6h-1.5V4h1.5c0.8,0,1.7,0,2.5,0.1L727.9,6.1z M524.4,6V4l4.1,0v2L524.4,6z M720,6h-4V4h4V6z M712,6h-4V4h4V6
	z M704,6h-4V4h4V6z M696,6h-4V4h4V6z M688.1,6h-4V4h4V6z M680.1,6h-4V4h4V6z M672.1,6h-4V4h4V6z M664.1,6h-4V4h4V6z M656.1,6h-4V4h4
	V6z M648.2,6h-4V4h4V6z M640.2,6h-4V4h4V6z M632.2,6h-4V4h4V6z M624.2,6h-4V4h4V6z M616.3,6h-4V4h4V6z M608.3,6h-4V4h4V6z M600.3,6
	h-4V4h4V6z M592.3,6h-4V4h4V6z M584.4,6h-4V4h4V6z M576.4,6h-4V4h4V6z M568.4,6h-4V4h4V6z M560.4,6h-4V4h4V6z M552.5,6h-4V4h4V6z
	 M544.5,6h-4V4h4V6z M536.5,6h-4V4h4V6z"/>
<g id="Icons---Outlined">
	<g id="Harmony-Controller-Rev">
		<g id="Page-1">
			<circle id="Oval" class="st7" cx="625" cy="87.6" r="50.4"/>
		</g>
		<rect x="623.6" y="102.1" class="st8" width="2" height="9.7"/>
		<rect x="605.7" y="114" class="st8" width="13" height="2"/>
		<rect x="630.4" y="114" class="st8" width="13.9" height="2"/>
		<path class="st8" d="M624.5,118.4c-1.9,0-3.5-1.6-3.5-3.5s1.6-3.5,3.5-3.5s3.5,1.6,3.5,3.5S626.4,118.4,624.5,118.4z M624.5,113.5
			c-0.8,0-1.5,0.7-1.5,1.5s0.7,1.5,1.5,1.5s1.5-0.7,1.5-1.5S625.3,113.5,624.5,113.5z"/>
		<rect x="609.2" y="64.3" class="st8" width="2" height="31.8"/>
		<path class="st8" d="M612.4,86.8H608c-1.4,0-2.6-1.2-2.6-2.6v-5.1c0-1.4,1.2-2.6,2.6-2.6h4.5c1.3,0,2.4,1.1,2.4,2.4v5.2
			C614.9,85.6,613.8,86.8,612.4,86.8z M608,78.5c-0.3,0-0.6,0.3-0.6,0.6v5.1c0,0.3,0.3,0.6,0.6,0.6h4.4c0.3,0,0.6-0.3,0.6-0.6v-5.2
			c0-0.2-0.2-0.4-0.4-0.4H608z"/>
		<rect x="624" y="64.3" class="st8" width="2" height="31.8"/>
		<path class="st8" d="M627.2,77.4h-4.3c-1.4,0-2.6-1.2-2.6-2.6v-5.1c0-1.4,1.2-2.6,2.6-2.6h4.5c1.3,0,2.4,1.1,2.4,2.4v5.2
			C629.8,76.2,628.6,77.4,627.2,77.4z M622.8,69.1c-0.3,0-0.6,0.3-0.6,0.6v5.1c0,0.3,0.3,0.6,0.6,0.6h4.3c0.3,0,0.6-0.3,0.6-0.6
			v-5.2c0-0.2-0.2-0.4-0.4-0.4H622.8z"/>
		<rect x="638.8" y="64.3" class="st8" width="2" height="31.8"/>
		<path class="st8" d="M642,90.8l-4.4,0c-1.4,0-2.6-1.2-2.6-2.6v-5.1c0-1.4,1.2-2.6,2.6-2.6h4.5c1.3,0,2.4,1.1,2.4,2.4v5.2
			C644.6,89.7,643.5,90.8,642,90.8z M637.7,82.6c-0.3,0-0.6,0.3-0.6,0.6v5.1c0,0.3,0.3,0.6,0.6,0.6h4.3h0c0.4,0,0.6-0.3,0.6-0.6V83
			c0-0.2-0.2-0.4-0.4-0.4H637.7z"/>
		<path class="st8" d="M622,104.8h-19.2c-2.4,0-4.3-2.2-4.3-5V60.1c0-2.8,1.9-5,4.3-5h44.4c2.4,0,4.3,2.2,4.3,5v39.7
			c0,2.8-1.9,5-4.3,5h-18.8v-2h18.8c1.3,0,2.3-1.3,2.3-3V60.1c0-1.6-1-3-2.3-3h-44.4c-1.3,0-2.3,1.3-2.3,3v39.7c0,1.6,1,3,2.3,3H622
			V104.8z"/>
	</g>
</g>
<path class="st5" d="M584.5,168.9L584.5,168.9c0,1-0.3,1.9-1,2.5c-0.8,0.7-1.8,1.1-2.9,1c-1.1,0-2.2-0.4-3-1.3
	c-0.8-0.9-1.2-2.1-1.1-3.2V166c0-1.2,0.4-2.3,1.1-3.2c0.7-0.9,1.8-1.3,3-1.3c1.1,0,2.1,0.3,2.9,1c0.7,0.7,1.1,1.6,1,2.6l0,0h-1.4
	c0-0.7-0.2-1.3-0.7-1.8c-0.5-0.5-1.2-0.7-1.9-0.6c-0.8,0-1.5,0.4-1.9,1c-0.5,0.7-0.7,1.6-0.6,2.4v1.9c0,0.9,0.2,1.7,0.7,2.4
	c0.4,0.6,1.2,1,1.9,1c0.7,0,1.4-0.2,1.9-0.6c0.5-0.5,0.7-1.1,0.7-1.8L584.5,168.9z"/>
<path class="st5" d="M587.9,171.1h5v1.1h-6.5v-10.7h1.4L587.9,171.1z"/>
<path class="st5" d="M602.5,167.9c0,1.2-0.4,2.4-1.2,3.2c-0.8,0.9-2,1.3-3.2,1.3c-1.1,0-2.2-0.4-3-1.3c-0.8-0.9-1.2-2.1-1.2-3.2V166
	c0-1.2,0.4-2.3,1.2-3.2c0.8-0.9,1.9-1.3,3-1.3c1.2,0,2.3,0.4,3.2,1.3c0.8,0.9,1.2,2,1.2,3.2V167.9z M601,166c0-0.9-0.2-1.7-0.8-2.4
	c-0.5-0.6-1.3-1-2.1-0.9c-0.8,0-1.5,0.3-2,0.9c-0.5,0.7-0.8,1.5-0.8,2.4v1.9c0,0.9,0.2,1.7,0.8,2.4c0.5,0.6,1.2,1,2,0.9
	c0.8,0,1.6-0.3,2.1-0.9c0.5-0.7,0.8-1.5,0.8-2.4L601,166z"/>
<path class="st5" d="M612.4,161.6v7.2c0.1,1-0.4,2-1.1,2.7c-0.9,0.7-1.9,1-3,0.9c-1,0-2-0.3-2.8-0.9c-0.8-0.7-1.2-1.7-1.1-2.7v-7.2
	h1.4v7.2c0,0.7,0.2,1.3,0.7,1.8c0.5,0.4,1.2,0.7,1.8,0.6c0.7,0,1.4-0.2,1.9-0.6c0.5-0.5,0.8-1.1,0.7-1.8v-7.2H612.4z"/>
<path class="st5" d="M614.8,172.3v-10.7h3.2c2.4-0.1,4.5,1.7,4.6,4.1c0,0.2,0,0.3,0,0.5v1.5c0.1,2.4-1.7,4.5-4.1,4.6
	c-0.2,0-0.3,0-0.5,0L614.8,172.3z M616.2,162.8v8.4h1.8c0.9,0,1.7-0.3,2.3-1c0.6-0.7,0.9-1.6,0.8-2.5v-1.4c0-0.9-0.3-1.8-0.8-2.5
	c-0.6-0.7-1.4-1-2.3-1L616.2,162.8z"/>
<path class="st5" d="M628.4,172.3v-10.7h3.5c0.9-0.1,1.8,0.2,2.6,0.7c0.6,0.5,1,1.3,0.9,2.2c0,0.5-0.2,0.9-0.5,1.3
	c-0.3,0.4-0.7,0.7-1.2,0.8c0.6,0.1,1.1,0.4,1.5,0.9c0.4,0.5,0.6,1.1,0.5,1.7c0.1,0.9-0.3,1.7-1,2.2c-0.7,0.5-1.7,0.8-2.6,0.8
	L628.4,172.3z M629.8,166.1h2.3c0.5,0,0.9-0.1,1.3-0.4c0.7-0.7,0.7-1.8,0-2.5c0,0,0,0,0,0c-0.5-0.3-1-0.5-1.6-0.4h-2L629.8,166.1z
	 M629.8,167.3v3.9h2.5c0.6,0,1.1-0.1,1.5-0.5c0.4-0.4,0.6-0.9,0.5-1.4c0-0.5-0.1-1.1-0.5-1.5c-0.4-0.4-0.9-0.6-1.4-0.5L629.8,167.3z
	"/>
<path class="st5" d="M643.7,169.5h-4.5l-1,2.8h-1.5l4.1-10.7h1.2l4.1,10.7h-1.5L643.7,169.5z M639.7,168.3h3.6l-1.8-4.9l0,0
	L639.7,168.3z"/>
<path class="st5" d="M653.5,169.6c0-0.5-0.2-0.9-0.5-1.2c-0.6-0.4-1.2-0.7-2-0.8c-1-0.2-1.9-0.6-2.6-1.2c-0.6-0.5-1-1.2-1-2
	c0-0.8,0.4-1.6,1-2.1c0.8-0.6,1.7-0.9,2.7-0.8c1,0,2,0.3,2.8,1c0.7,0.6,1,1.4,1,2.2l0,0h-1.4c0-0.6-0.2-1.1-0.6-1.5
	c-1-0.7-2.4-0.8-3.4-0.1c-0.4,0.3-0.6,0.8-0.6,1.3c0,0.5,0.2,0.9,0.6,1.2c0.6,0.4,1.3,0.7,2,0.8c0.9,0.2,1.8,0.6,2.6,1.2
	c0.6,0.5,0.9,1.2,0.9,2c0,0.8-0.4,1.6-1,2.1c-0.8,0.6-1.8,0.8-2.8,0.8c-1,0-2-0.3-2.8-0.9c-0.8-0.5-1.2-1.4-1.2-2.3l0,0h1.4
	c0,0.6,0.2,1.2,0.8,1.6c0.6,0.4,1.2,0.6,1.9,0.5c0.6,0,1.2-0.1,1.7-0.5C653.2,170.6,653.5,170.1,653.5,169.6z"/>
<path class="st5" d="M663.3,167.3h-4.9v3.8h5.6v1.1H657v-10.7h7v1.1h-5.5v3.4h4.9L663.3,167.3z"/>
<path class="st5" d="M665.8,172.3v-10.7h3.3c2.4-0.1,4.5,1.7,4.6,4.1c0,0.2,0,0.3,0,0.5v1.5c0.1,2.4-1.7,4.5-4.1,4.6
	c-0.2,0-0.3,0-0.5,0L665.8,172.3z M667.2,162.8v8.4h1.8c0.9,0,1.7-0.3,2.3-1c0.6-0.7,0.9-1.6,0.8-2.5v-1.4c0-0.9-0.3-1.8-0.8-2.5
	c-0.6-0.7-1.4-1-2.3-1L667.2,162.8z"/>
<path class="st5" d="M531.3,187.5h-4.5l-1,2.8h-1.5l4.1-10.7h1.2l4.1,10.7h-1.5L531.3,187.5z M527.3,186.3h3.6l-1.8-4.9l0,0
	L527.3,186.3z"/>
<path class="st5" d="M538.9,190.3h-1.4V181h-2.2v-1l3.6-0.4L538.9,190.3z"/>
<path class="st5" d="M549.9,186.2c0.1,1.1-0.2,2.2-0.9,3.1c-1.3,1.4-3.4,1.5-4.8,0.2c-0.1-0.1-0.2-0.1-0.2-0.2c-0.7-0.9-1-2-0.9-3.1
	v-2.5c-0.1-1.1,0.2-2.2,0.9-3.1c1.2-1.4,3.4-1.5,4.7-0.3c0.1,0.1,0.2,0.2,0.3,0.3c0.7,0.9,1,2,0.9,3.1L549.9,186.2z M548.5,183.4
	c0-0.7-0.1-1.5-0.5-2.1c-0.6-0.8-1.8-0.9-2.6-0.3c-0.1,0.1-0.2,0.2-0.3,0.3c-0.4,0.6-0.5,1.4-0.5,2.1v3.1c0,0.7,0.1,1.5,0.5,2.1
	c0.3,0.5,0.9,0.7,1.5,0.7c0.6,0,1.1-0.2,1.5-0.7c0.4-0.6,0.5-1.4,0.5-2.1L548.5,183.4z"/>
<path class="st5" d="M563.9,190.3h-1.4v-4.7h-5.2v4.7h-1.4v-10.7h1.4v4.8h5.2v-4.8h1.4V190.3z"/>
<path class="st5" d="M572.4,187.5H568l-1,2.8h-1.5l4.1-10.7h1.2l4.1,10.7h-1.5L572.4,187.5z M568.4,186.3h3.6l-1.8-4.9l0,0
	L568.4,186.3z"/>
<path class="st5" d="M577.8,185.7v4.6h-1.4v-10.7h3.9c1-0.1,1.9,0.2,2.7,0.8c0.6,0.6,1,1.4,0.9,2.3c0,0.5-0.1,1-0.4,1.4
	c-0.3,0.4-0.7,0.8-1.2,1c0.5,0.1,1,0.5,1.3,0.9c0.3,0.5,0.4,1,0.4,1.6v1c0,0.3,0,0.6,0.1,0.9c0.1,0.2,0.2,0.5,0.4,0.6v0.2h-1.5
	c-0.2-0.2-0.3-0.5-0.4-0.7c-0.1-0.3-0.1-0.7-0.1-1v-1c0-0.5-0.2-1-0.5-1.4c-0.4-0.4-0.8-0.6-1.3-0.5L577.8,185.7z M577.8,184.5h2.3
	c0.6,0.1,1.2-0.1,1.8-0.5c0.4-0.4,0.6-0.9,0.5-1.4c0-0.5-0.2-1-0.5-1.4c-0.5-0.4-1-0.5-1.6-0.5h-2.4V184.5z"/>
<path class="st5" d="M588.2,179.6l3.4,8.7l0,0l3.4-8.7h1.8v10.7h-1.4v-4.2l0.2-4.3l0,0l-3.5,8.6h-1l-3.4-8.5l0,0l0.1,4.3v4.2h-1.4
	v-10.7H588.2z"/>
<path class="st5" d="M607.5,185.9c0,1.2-0.4,2.4-1.2,3.2c-0.8,0.9-2,1.3-3.2,1.3c-1.1,0-2.2-0.4-3-1.3c-0.8-0.9-1.2-2.1-1.2-3.2V184
	c0-1.2,0.4-2.3,1.2-3.2c0.8-0.9,1.9-1.3,3-1.3c1.2,0,2.3,0.4,3.2,1.3c0.8,0.9,1.2,2,1.2,3.2L607.5,185.9z M606.1,184
	c0-0.9-0.2-1.7-0.8-2.4c-0.5-0.6-1.3-1-2.1-0.9c-0.8,0-1.5,0.3-2,0.9c-0.5,0.7-0.8,1.5-0.8,2.4v1.9c0,0.9,0.2,1.7,0.8,2.4
	c0.5,0.6,1.2,1,2,0.9c0.8,0,1.6-0.3,2.1-0.9c0.5-0.7,0.8-1.5,0.8-2.4L606.1,184z"/>
<path class="st5" d="M617.8,190.3h-1.4l-5.1-8.3l0,0v8.2h-1.5v-10.6h1.4l5.1,8.2l0,0v-8.2h1.4L617.8,190.3z"/>
<path class="st5" d="M623.5,185l2.8-5.4h1.7l-3.7,6.9v3.8h-1.4v-3.9l-3.7-6.8h1.7L623.5,185z"/>
<path class="st5" d="M640.6,186.9L640.6,186.9c0,1-0.3,1.9-1,2.5c-0.8,0.7-1.8,1.1-2.9,1c-1.1,0-2.2-0.4-3-1.3
	c-0.8-0.9-1.2-2.1-1.1-3.2V184c0-1.2,0.4-2.3,1.1-3.2c0.7-0.9,1.8-1.3,3-1.3c1.1,0,2.1,0.3,2.9,1c0.7,0.7,1.1,1.6,1,2.6l0,0h-1.4
	c0-0.7-0.2-1.3-0.7-1.8c-0.5-0.5-1.2-0.7-1.9-0.6c-0.8,0-1.5,0.4-1.9,1c-0.5,0.7-0.7,1.6-0.7,2.4v1.9c0,0.9,0.2,1.7,0.7,2.4
	c0.4,0.6,1.2,1,1.9,1c0.7,0,1.4-0.2,1.9-0.6c0.5-0.5,0.7-1.1,0.7-1.8L640.6,186.9z"/>
<path class="st5" d="M650.7,185.9c0,1.2-0.4,2.4-1.2,3.2c-0.8,0.9-2,1.3-3.2,1.3c-1.1,0-2.2-0.4-3-1.3c-0.8-0.9-1.2-2.1-1.2-3.2V184
	c0-1.2,0.4-2.3,1.2-3.2c0.8-0.9,1.9-1.3,3-1.3c1.2,0,2.3,0.4,3.2,1.3c0.8,0.9,1.2,2,1.2,3.2V185.9z M649.2,184
	c0-0.9-0.2-1.7-0.8-2.4c-0.5-0.6-1.3-1-2.1-0.9c-0.8,0-1.5,0.3-2,0.9c-0.5,0.7-0.8,1.5-0.8,2.4v1.9c0,0.9,0.2,1.7,0.8,2.4
	c0.5,0.6,1.2,1,2,0.9c0.8,0,1.6-0.3,2.1-0.9c0.5-0.7,0.8-1.5,0.8-2.4L649.2,184z"/>
<path class="st5" d="M660.9,190.3h-1.4l-5.1-8.3l0,0v8.2h-1.4v-10.6h1.4l5.1,8.2l0,0v-8.2h1.4L660.9,190.3z"/>
<path class="st5" d="M670.5,180.8h-3.4v9.5h-1.4v-9.5h-3.4v-1.1h8.3V180.8z"/>
<path class="st5" d="M673.5,185.7v4.6h-1.4v-10.7h3.9c1-0.1,1.9,0.2,2.7,0.8c0.6,0.6,1,1.4,0.9,2.3c0,0.5-0.1,1-0.4,1.4
	c-0.3,0.4-0.7,0.8-1.2,1c0.5,0.1,1,0.5,1.3,0.9c0.3,0.5,0.4,1,0.4,1.6v1c0,0.3,0,0.6,0.1,0.9c0.1,0.2,0.2,0.5,0.4,0.6v0.2h-1.5
	c-0.2-0.2-0.3-0.5-0.4-0.7c-0.1-0.3-0.1-0.7-0.1-1v-1c0-0.5-0.2-1-0.5-1.4c-0.4-0.4-0.9-0.6-1.4-0.5L673.5,185.7z M673.5,184.5h2.3
	c0.6,0.1,1.2-0.1,1.8-0.5c0.4-0.4,0.6-0.9,0.5-1.4c0-0.5-0.2-1-0.5-1.4c-0.5-0.4-1-0.5-1.6-0.5h-2.4V184.5z"/>
<path class="st5" d="M690.1,185.9c0,1.2-0.4,2.4-1.2,3.2c-0.8,0.9-2,1.3-3.2,1.3c-1.1,0-2.2-0.4-3-1.3c-0.8-0.9-1.2-2.1-1.2-3.2V184
	c0-1.2,0.4-2.3,1.2-3.2c0.8-0.9,1.9-1.3,3-1.3c1.2,0,2.3,0.4,3.2,1.3c0.8,0.9,1.2,2,1.2,3.2V185.9z M688.7,184
	c0-0.9-0.2-1.7-0.8-2.4c-0.5-0.6-1.3-1-2.1-0.9c-0.8,0-1.5,0.3-2,0.9c-0.5,0.7-0.8,1.5-0.7,2.4v1.9c0,0.9,0.2,1.7,0.8,2.4
	c0.5,0.6,1.2,1,2,0.9c0.8,0,1.6-0.3,2.1-0.9c0.5-0.7,0.8-1.5,0.8-2.4L688.7,184z"/>
<path class="st5" d="M693.7,189.1h5v1.1h-6.5v-10.7h1.4L693.7,189.1z"/>
<path class="st5" d="M701.8,189.1h5v1.1h-6.5v-10.7h1.4L701.8,189.1z"/>
<path class="st5" d="M714.8,185.3h-4.9v3.8h5.6v1.1h-7.1v-10.7h7v1.1h-5.5v3.4h4.9V185.3z"/>
<path class="st5" d="M718.7,185.7v4.6h-1.4v-10.7h3.9c1-0.1,1.9,0.2,2.7,0.8c0.6,0.6,1,1.4,0.9,2.3c0,0.5-0.1,1-0.4,1.4
	c-0.3,0.4-0.7,0.8-1.2,1c0.5,0.1,1,0.5,1.3,0.9c0.3,0.5,0.4,1,0.4,1.6v1c0,0.3,0,0.6,0.1,0.9c0.1,0.2,0.2,0.5,0.4,0.6v0.2h-1.5
	c-0.2-0.2-0.3-0.5-0.4-0.7c-0.1-0.3-0.1-0.7-0.1-1v-1c0-0.5-0.2-1-0.5-1.4c-0.4-0.4-0.9-0.6-1.4-0.5L718.7,185.7z M718.7,184.5h2.3
	c0.6,0.1,1.2-0.1,1.8-0.5c0.4-0.4,0.6-0.9,0.5-1.4c0-0.5-0.2-1-0.5-1.4c-0.5-0.4-1-0.5-1.6-0.5h-2.4V184.5z"/>
<polygon class="st6" points="164,261.8 162,261.8 162,180 466.8,180 466.8,182 164,182 "/>
<polygon class="st6" points="171.2,255.2 169.7,253.8 163,261.1 156.3,253.8 154.8,255.2 163,264 "/>
<polygon class="st6" points="460.2,189.2 458.8,187.7 466.1,181 458.8,174.3 460.2,172.8 469,181 "/>
<polygon class="st6" points="1087,265 1085,265 1085,182 782.2,182 782.2,180 1087,180 "/>
<polygon class="st6" points="1094.2,258.4 1092.7,257 1086,264.3 1079.3,257 1077.8,258.4 1086,267.2 "/>
<polygon class="st6" points="788.8,172.8 790.2,174.3 782.9,181 790.2,187.7 788.8,189.2 780,181 "/>
<rect x="624" y="229.2" class="st6" width="2" height="35.9"/>
<polygon class="st6" points="616.8,235.8 618.3,237.2 625,229.9 631.7,237.2 633.2,235.8 625,227 "/>
<polygon class="st6" points="616.8,258.4 618.3,257 625,264.3 631.7,257 633.2,258.4 625,267.2 "/>
<path class="st5" d="M577.6,311.9h-4.5l-1,2.8h-1.5l4.1-10.7h1.3l4,10.6h-1.5L577.6,311.9z M573.6,310.6h3.6l-1.8-4.9l0,0
	L573.6,310.6z"/>
<path class="st5" d="M585.2,314.6h-1.4v-9.3h-2.2v-1l3.6-0.4L585.2,314.6z"/>
<path class="st5" d="M596.2,310.5c0.1,1.1-0.2,2.2-0.9,3.1c-1.3,1.4-3.4,1.5-4.8,0.2c-0.1-0.1-0.2-0.1-0.2-0.2c-0.7-0.9-1-2-0.9-3.1
	V308c-0.1-1.1,0.2-2.2,0.9-3.1c1.2-1.4,3.4-1.5,4.7-0.3c0.1,0.1,0.2,0.2,0.3,0.3c0.7,0.9,1,2,0.9,3.1L596.2,310.5z M594.8,307.7
	c0-0.7-0.1-1.5-0.5-2.1c-0.6-0.8-1.8-0.9-2.6-0.3c-0.1,0.1-0.2,0.2-0.3,0.3c-0.4,0.6-0.5,1.4-0.5,2.1v3.1c0,0.7,0.1,1.5,0.5,2.1
	c0.3,0.5,0.9,0.7,1.5,0.7c0.6,0,1.1-0.2,1.5-0.7c0.4-0.6,0.5-1.4,0.5-2.1L594.8,307.7z"/>
<path class="st5" d="M603.6,313.5h5v1.1h-6.5v-10.7h1.4L603.6,313.5z"/>
<path class="st5" d="M611.7,314.6h-1.5v-10.7h1.5V314.6z"/>
<path class="st5" d="M622.2,313.2c-0.3,0.5-0.8,0.8-1.3,1.1c-0.8,0.4-1.6,0.5-2.4,0.5c-1.2,0-2.3-0.4-3.2-1.2
	c-0.8-0.8-1.3-2-1.2-3.2v-2.2c0-1.2,0.4-2.3,1.2-3.2c0.8-0.8,1.9-1.3,3-1.2c1-0.1,2.1,0.3,2.9,0.9c0.7,0.6,1.1,1.4,1.1,2.3l0,0h-1.4
	c0-0.6-0.3-1.1-0.7-1.5c-0.5-0.4-1.2-0.6-1.8-0.6c-0.8,0-1.5,0.3-2,0.9c-0.5,0.7-0.8,1.5-0.8,2.3v2.2c0,0.9,0.3,1.7,0.8,2.3
	c0.5,0.6,1.3,0.9,2.1,0.9c0.5,0,1-0.1,1.5-0.2c0.3-0.1,0.6-0.3,0.8-0.5v-2.4h-2.3v-1.1h3.8L622.2,313.2z"/>
<path class="st5" d="M632.7,314.6h-1.4v-4.7h-5.2v4.7h-1.4v-10.7h1.4v4.8h5.2v-4.8h1.4V314.6z"/>
<path class="st5" d="M642.4,305.1H639v9.5h-1.4v-9.5h-3.5v-1.1h8.3L642.4,305.1z"/>
<path class="st5" d="M652,314.6h-1.4l-5.1-8.2l0,0v8.2H644v-10.6h1.4l5.1,8.2l0,0v-8.2h1.4V314.6z"/>
<path class="st5" d="M656.2,314.6h-1.5v-10.7h1.5V314.6z"/>
<path class="st5" d="M667,314.6h-1.4l-5.1-8.2l0,0v8.2h-1.5v-10.6h1.4l5.1,8.2l0,0v-8.2h1.5V314.6z"/>
<path class="st5" d="M677.3,313.2c-0.3,0.5-0.8,0.8-1.3,1.1c-0.8,0.4-1.6,0.5-2.4,0.5c-1.2,0-2.3-0.4-3.2-1.2
	c-0.8-0.8-1.3-2-1.2-3.2v-2.2c0-1.2,0.4-2.3,1.2-3.2c0.8-0.8,1.9-1.3,3-1.2c1-0.1,2.1,0.3,2.9,0.9c0.7,0.6,1.1,1.4,1.1,2.3l0,0h-1.4
	c0-0.6-0.3-1.1-0.7-1.5c-0.5-0.4-1.2-0.6-1.8-0.6c-0.8,0-1.5,0.3-2,0.9c-0.5,0.7-0.8,1.5-0.8,2.3v2.2c0,0.9,0.3,1.7,0.8,2.3
	c0.5,0.6,1.3,0.9,2.1,0.9c0.5,0,1-0.1,1.5-0.2c0.3-0.1,0.6-0.3,0.8-0.5v-2.4h-2.3v-1.1h3.8L677.3,313.2z"/>
<path class="st5" d="M1061,314.6h-1.4v-4.7h-5.2v4.7h-1.4v-10.7h1.4v4.8h5.2v-4.8h1.4V314.6z"/>
<path class="st5" d="M1069.5,311.9h-4.5l-1,2.8h-1.5l4.1-10.7h1.2l4.1,10.7h-1.5L1069.5,311.9z M1065.5,310.6h3.6l-1.8-4.9l0,0
	L1065.5,310.6z"/>
<path class="st5" d="M1074.9,310.3v4.3h-1.4v-10.7h4.1c1-0.1,1.9,0.3,2.7,0.9c1.3,1.3,1.3,3.4,0,4.6c-0.7,0.6-1.7,0.9-2.7,0.9
	H1074.9z M1074.9,309.2h2.6c1.1,0,2.1-0.9,2.1-2.1c0-1.1-0.9-2.1-2.1-2.1c0,0,0,0,0,0h-2.6V309.2z"/>
<path class="st5" d="M1084.5,310v4.6h-1.4v-10.7h3.9c1-0.1,1.9,0.2,2.7,0.8c0.6,0.6,1,1.4,0.9,2.3c0,0.5-0.1,1-0.4,1.4
	c-0.3,0.4-0.7,0.8-1.2,1c0.5,0.1,1,0.5,1.3,0.9c0.3,0.5,0.4,1,0.4,1.6v1c0,0.3,0,0.6,0.1,0.9c0.1,0.2,0.2,0.5,0.4,0.6v0.2h-1.5
	c-0.2-0.2-0.3-0.5-0.4-0.7c-0.1-0.3-0.1-0.7-0.1-1v-1c0-0.5-0.2-1-0.5-1.4c-0.4-0.4-0.8-0.6-1.3-0.5L1084.5,310z M1084.5,308.9h2.3
	c0.6,0.1,1.2-0.1,1.8-0.5c0.4-0.4,0.6-0.9,0.5-1.4c0-0.5-0.2-1-0.5-1.4c-0.5-0.4-1-0.5-1.6-0.5h-2.4V308.9z"/>
<path class="st5" d="M1101.1,310.2c0,1.2-0.4,2.4-1.2,3.2c-0.8,0.9-2,1.3-3.2,1.3c-1.1,0-2.2-0.4-3-1.3c-0.8-0.9-1.2-2.1-1.2-3.2
	v-1.9c0-1.2,0.4-2.3,1.2-3.2c0.8-0.9,1.9-1.3,3-1.3c1.2,0,2.3,0.4,3.2,1.3c0.8,0.9,1.2,2,1.2,3.2V310.2z M1099.6,308.3
	c0-0.9-0.2-1.7-0.8-2.4c-0.5-0.6-1.3-1-2.1-0.9c-0.8,0-1.5,0.3-2,0.9c-0.5,0.7-0.8,1.5-0.8,2.4v1.9c0,0.9,0.2,1.7,0.8,2.4
	c0.5,0.6,1.2,1,2,0.9c0.8,0,1.6-0.3,2.1-0.9c0.5-0.7,0.8-1.5,0.8-2.4L1099.6,308.3z"/>
<path class="st5" d="M1106.5,308.1l2.5-4.2h1.7l-3.4,5.3l3.5,5.4h-1.7l-2.6-4.2l-2.6,4.2h-1.7l3.5-5.4l-3.4-5.3h1.7L1106.5,308.1z"
	/>
<path class="st5" d="M1115.8,309.4l2.8-5.4h1.7l-3.7,6.9v3.8h-1.4v-3.9l-3.7-6.8h1.6L1115.8,309.4z"/>
<path class="st5" d="M120.5,311.9H116l-1,2.8h-1.5l4.1-10.7h1.2l4.1,10.7h-1.5L120.5,311.9z M116.5,310.6h3.5l-1.8-4.9l0,0
	L116.5,310.6z"/>
<path class="st5" d="M128.1,314.6h-1.4v-9.3h-2.2v-1l3.6-0.4L128.1,314.6z"/>
<path class="st5" d="M139.1,310.5c0.1,1.1-0.2,2.2-0.9,3.1c-1.3,1.4-3.4,1.5-4.8,0.2c-0.1-0.1-0.2-0.1-0.2-0.2c-0.7-0.9-1-2-0.9-3.1
	V308c-0.1-1.1,0.2-2.2,0.9-3.1c1.2-1.4,3.4-1.5,4.7-0.3c0.1,0.1,0.2,0.2,0.3,0.3c0.7,0.9,1,2,0.9,3.1L139.1,310.5z M137.7,307.7
	c0-0.7-0.1-1.5-0.5-2.1c-0.6-0.8-1.8-0.9-2.6-0.3c-0.1,0.1-0.2,0.2-0.3,0.3c-0.4,0.6-0.5,1.4-0.5,2.1v3.1c0,0.7,0.1,1.5,0.5,2.1
	c0.3,0.5,0.9,0.7,1.5,0.7c0.6,0,1.1-0.2,1.4-0.7c0.4-0.6,0.5-1.4,0.5-2.1L137.7,307.7z"/>
<path class="st5" d="M152.2,305.1h-3.4v9.5h-1.4v-9.5H144v-1.1h8.3L152.2,305.1z"/>
<path class="st5" d="M161.9,314.6h-1.4v-4.7h-5.2v4.7h-1.4v-10.7h1.4v4.8h5.2v-4.8h1.4V314.6z"/>
<path class="st5" d="M172.3,303.9v7.2c0.1,1-0.4,2-1.1,2.7c-0.9,0.7-1.9,1-3,0.9c-1,0-2-0.3-2.9-0.9c-0.8-0.7-1.2-1.7-1.1-2.7v-7.2
	h1.4v7.2c0,0.7,0.2,1.3,0.7,1.8c0.5,0.4,1.2,0.7,1.8,0.6c0.7,0,1.4-0.2,1.9-0.6c0.5-0.5,0.8-1.1,0.7-1.8v-7.2L172.3,303.9z"/>
<path class="st5" d="M182.7,314.6h-1.4l-5.1-8.2l0,0v8.2h-1.4v-10.6h1.4l5.1,8.2l0,0v-8.2h1.4V314.6z"/>
<path class="st5" d="M185.4,314.6v-10.7h3.3c2.4-0.1,4.5,1.7,4.6,4.1c0,0.2,0,0.3,0,0.5v1.5c0.1,2.4-1.7,4.5-4.1,4.6
	c-0.2,0-0.3,0-0.5,0L185.4,314.6z M186.8,305.1v8.4h1.8c0.9,0,1.7-0.3,2.3-1c0.6-0.7,0.9-1.6,0.9-2.5v-1.5c0-0.9-0.2-1.8-0.8-2.5
	c-0.6-0.7-1.4-1-2.3-1L186.8,305.1z"/>
<path class="st5" d="M201.6,309.6h-4.9v3.8h5.6v1.1h-7.1v-10.7h7v1.1h-5.6v3.5h4.9L201.6,309.6z"/>
<path class="st5" d="M205.5,310v4.6H204v-10.7h3.9c1-0.1,1.9,0.2,2.7,0.8c0.6,0.6,1,1.4,0.9,2.3c0,0.5-0.1,1-0.4,1.4
	c-0.3,0.4-0.7,0.8-1.2,1c0.5,0.1,1,0.5,1.3,0.9c0.3,0.5,0.4,1,0.4,1.6v1c0,0.3,0,0.6,0.1,0.9c0.1,0.2,0.2,0.5,0.4,0.6v0.2h-1.5
	c-0.2-0.2-0.3-0.5-0.4-0.7c-0.1-0.3-0.1-0.7-0.1-1v-1c0-0.5-0.2-1-0.5-1.4c-0.4-0.4-0.8-0.6-1.4-0.5L205.5,310z M205.5,308.9h2.3
	c0.6,0.1,1.2-0.1,1.8-0.5c0.4-0.4,0.6-0.9,0.5-1.4c0-0.5-0.2-1-0.5-1.4c-0.5-0.4-1-0.5-1.6-0.5h-2.4L205.5,308.9z"/>
</svg>
