<svg id="Layer_1" data-name="Layer 1" xmlns="http://www.w3.org/2000/svg" xmlns:xlink="http://www.w3.org/1999/xlink" viewBox="0 0 1250 471.96"><defs><style>.cls-1,.cls-2,.cls-7{fill:#0075c9;}.cls-1{clip-rule:evenodd;}.cls-3{fill:#787878;}.cls-4{fill:#939596;}.cls-5{fill:#acc94b;}.cls-6{fill:#3fa1f2;}.cls-7{fill-rule:evenodd;}.cls-8{clip-path:url(#clip-path);}.cls-9{clip-path:url(#clip-path-2);}.cls-10{clip-path:url(#clip-path-3);}.cls-11{clip-path:url(#clip-path-5);}.cls-12{clip-path:url(#clip-path-7);}.cls-13{clip-path:url(#clip-path-8);}.cls-14{clip-path:url(#clip-path-9);}.cls-15{clip-path:url(#clip-path-11);}.cls-16{clip-path:url(#clip-path-13);}.cls-17{clip-path:url(#clip-path-14);}.cls-18{clip-path:url(#clip-path-15);}.cls-19{clip-path:url(#clip-path-17);}.cls-20{fill:#bcbec0;}.cls-21{clip-path:url(#clip-path-19);}.cls-22{clip-path:url(#clip-path-20);}.cls-23{clip-path:url(#clip-path-21);}.cls-24{clip-path:url(#clip-path-23);}.cls-25{clip-path:url(#clip-path-25);}.cls-26{clip-path:url(#clip-path-26);}.cls-27{clip-path:url(#clip-path-27);}.cls-28{clip-path:url(#clip-path-29);}.cls-29{clip-path:url(#clip-path-31);}.cls-30{clip-path:url(#clip-path-32);}.cls-31{clip-path:url(#clip-path-33);}.cls-32{clip-path:url(#clip-path-35);}.cls-33{fill:#78786f;}.cls-34{fill:none;stroke:#939596;stroke-miterlimit:10;stroke-width:2px;}</style><clipPath id="clip-path"><path class="cls-1" d="M79.48,271.72h-2.4l-.54,1.47h-.79l2.21-5.7h.66l2.18,5.7H80Zm-2.16-.65h1.92l-.94-2.6h0Z"/></clipPath><clipPath id="clip-path-2"><rect class="cls-2" x="24.53" y="226.23" width="85.33" height="85.33"/></clipPath><clipPath id="clip-path-3"><path class="cls-1" d="M82.36,270.9v2.29h-.77v-5.7h2.19a2,2,0,0,1,1.42.47,1.77,1.77,0,0,1,0,2.48,2,2,0,0,1-1.42.46Zm0-.61h1.41a1.13,1.13,0,0,0,.87-.31,1.11,1.11,0,0,0,.29-.78,1,1,0,0,0-1.16-1.11H82.36Z"/></clipPath><clipPath id="clip-path-5"><path class="cls-1" d="M87.51,270.9v2.29h-.77v-5.7h2.19a2,2,0,0,1,1.42.47,1.77,1.77,0,0,1,0,2.48,2,2,0,0,1-1.42.46Zm0-.61h1.41a1.13,1.13,0,0,0,.87-.31,1.11,1.11,0,0,0,.29-.78,1,1,0,0,0-1.16-1.11H87.51Z"/></clipPath><clipPath id="clip-path-7"><path class="cls-1" d="M204.1,271.72h-2.4l-.54,1.47h-.79l2.21-5.7h.66l2.18,5.7h-.79Zm-2.16-.65h1.92l-.94-2.6h0Z"/></clipPath><clipPath id="clip-path-8"><rect class="cls-2" x="149.16" y="226.23" width="85.33" height="85.33"/></clipPath><clipPath id="clip-path-9"><path class="cls-1" d="M207,270.9v2.29h-.77v-5.7h2.19a2,2,0,0,1,1.42.47,1.77,1.77,0,0,1,0,2.48,2,2,0,0,1-1.42.46Zm0-.61h1.41a1.13,1.13,0,0,0,.87-.31,1.11,1.11,0,0,0,.29-.78,1,1,0,0,0-1.16-1.11H207Z"/></clipPath><clipPath id="clip-path-11"><path class="cls-1" d="M212.14,270.9v2.29h-.77v-5.7h2.19A2,2,0,0,1,215,268a1.77,1.77,0,0,1,0,2.48,2,2,0,0,1-1.42.46Zm0-.61h1.41a1.13,1.13,0,0,0,.87-.31,1.11,1.11,0,0,0,.29-.78,1,1,0,0,0-1.16-1.11h-1.41Z"/></clipPath><clipPath id="clip-path-13"><path class="cls-1" d="M326.27,271.72h-2.4l-.54,1.47h-.79l2.21-5.7h.66l2.18,5.7h-.79Zm-2.16-.65H326l-.94-2.6h0Z"/></clipPath><clipPath id="clip-path-14"><rect class="cls-2" x="271.32" y="226.23" width="85.33" height="85.33"/></clipPath><clipPath id="clip-path-15"><path class="cls-1" d="M329.15,270.9v2.29h-.77v-5.7h2.19A2,2,0,0,1,332,268a1.77,1.77,0,0,1,0,2.48,2,2,0,0,1-1.42.46Zm0-.61h1.41a1.13,1.13,0,0,0,.87-.31,1.11,1.11,0,0,0,.29-.78,1,1,0,0,0-1.16-1.11h-1.41Z"/></clipPath><clipPath id="clip-path-17"><path class="cls-1" d="M334.3,270.9v2.29h-.77v-5.7h2.19a2,2,0,0,1,1.42.47,1.77,1.77,0,0,1,0,2.48,2,2,0,0,1-1.42.46Zm0-.61h1.41a1.13,1.13,0,0,0,.87-.31,1.11,1.11,0,0,0,.29-.78,1,1,0,0,0-1.16-1.11H334.3Z"/></clipPath><clipPath id="clip-path-19"><path class="cls-1" d="M965,271.72h-2.4l-.54,1.47h-.79l2.21-5.7h.66l2.18,5.7h-.79Zm-2.16-.65h1.92l-.94-2.6h0Z"/></clipPath><clipPath id="clip-path-20"><rect class="cls-2" x="910.11" y="226.23" width="85.33" height="85.33"/></clipPath><clipPath id="clip-path-21"><path class="cls-1" d="M967.93,270.9v2.29h-.77v-5.7h2.19a2,2,0,0,1,1.42.47,1.77,1.77,0,0,1,0,2.48,2,2,0,0,1-1.42.46Zm0-.61h1.41a1.13,1.13,0,0,0,.87-.31,1.11,1.11,0,0,0,.29-.78,1,1,0,0,0-1.16-1.11h-1.41Z"/></clipPath><clipPath id="clip-path-23"><path class="cls-1" d="M973.09,270.9v2.29h-.77v-5.7h2.19a2,2,0,0,1,1.42.47,1.77,1.77,0,0,1,0,2.48,2,2,0,0,1-1.42.46Zm0-.61h1.41a1.13,1.13,0,0,0,.87-.31,1.11,1.11,0,0,0,.29-.78,1,1,0,0,0-1.16-1.11h-1.41Z"/></clipPath><clipPath id="clip-path-25"><path class="cls-1" d="M1089.67,271.72h-2.4l-.54,1.47h-.79l2.21-5.7h.66l2.18,5.7h-.79Zm-2.16-.65h1.92l-.94-2.6h0Z"/></clipPath><clipPath id="clip-path-26"><rect class="cls-2" x="1034.73" y="226.23" width="85.33" height="85.33"/></clipPath><clipPath id="clip-path-27"><path class="cls-1" d="M1092.55,270.9v2.29h-.77v-5.7H1094a2,2,0,0,1,1.42.47,1.77,1.77,0,0,1,0,2.48,2,2,0,0,1-1.42.46Zm0-.61H1094a1.13,1.13,0,0,0,.87-.31,1.11,1.11,0,0,0,.29-.78,1,1,0,0,0-1.16-1.11h-1.41Z"/></clipPath><clipPath id="clip-path-29"><path class="cls-1" d="M1097.71,270.9v2.29h-.77v-5.7h2.19a2,2,0,0,1,1.42.47,1.77,1.77,0,0,1,0,2.48,2,2,0,0,1-1.42.46Zm0-.61h1.41a1.13,1.13,0,0,0,.87-.31,1.11,1.11,0,0,0,.29-.78,1,1,0,0,0-1.16-1.11h-1.41Z"/></clipPath><clipPath id="clip-path-31"><path class="cls-1" d="M1211.84,271.72h-2.4l-.54,1.47h-.79l2.21-5.7h.66l2.18,5.7h-.79Zm-2.16-.65h1.92l-.94-2.6h0Z"/></clipPath><clipPath id="clip-path-32"><rect class="cls-2" x="1156.89" y="226.23" width="85.33" height="85.33"/></clipPath><clipPath id="clip-path-33"><path class="cls-1" d="M1214.72,270.9v2.29h-.77v-5.7h2.19a2,2,0,0,1,1.42.47,1.77,1.77,0,0,1,0,2.48,2,2,0,0,1-1.42.46Zm0-.61h1.41a1.13,1.13,0,0,0,.87-.31,1.11,1.11,0,0,0,.29-.78,1,1,0,0,0-1.16-1.11h-1.41Z"/></clipPath><clipPath id="clip-path-35"><path class="cls-1" d="M1219.87,270.9v2.29h-.77v-5.7h2.19a2,2,0,0,1,1.42.47,1.77,1.77,0,0,1,0,2.48,2,2,0,0,1-1.42.46Zm0-.61h1.41a1.13,1.13,0,0,0,.87-.31,1.11,1.11,0,0,0,.29-.78,1,1,0,0,0-1.16-1.11h-1.41Z"/></clipPath></defs><title>desktop</title><path class="cls-3" d="M591.22,72.46h-1.45V61.8h1.45Z"/><path class="cls-3" d="M602,72.46h-1.44l-5.13-8.25h0v8.23h-1.44V61.8h1.44L600.51,70h0V61.8H602Z"/><path class="cls-3" d="M611.65,62.93h-3.43v9.53h-1.44V62.93h-3.42V61.8h8.29Z"/><path class="cls-3" d="M619.54,67.52h-4.89v3.81h5.63v1.14h-7.08V61.8h7v1.14h-5.55v3.45h4.89Z"/><path class="cls-3" d="M623.42,67.84v4.62H622V61.81h3.86a4.05,4.05,0,0,1,2.67.78,2.78,2.78,0,0,1,.92,2.26,2.41,2.41,0,0,1-.43,1.43,2.9,2.9,0,0,1-1.25,1,2.18,2.18,0,0,1,1.26.93,3,3,0,0,1,.38,1.59v1a3.34,3.34,0,0,0,.11.89,1.34,1.34,0,0,0,.38.64v.18h-1.49a1.19,1.19,0,0,1-.37-.73,6.05,6.05,0,0,1-.08-1v-1a1.93,1.93,0,0,0-.51-1.39,1.79,1.79,0,0,0-1.35-.53Zm0-1.14h2.27a2.68,2.68,0,0,0,1.76-.46,1.76,1.76,0,0,0,.54-1.41,1.82,1.82,0,0,0-.52-1.39,2.31,2.31,0,0,0-1.63-.49h-2.42Z"/><path class="cls-3" d="M640,72.46h-1.44l-5.13-8.25h0v8.23h-1.44V61.8h1.44L638.5,70h0V61.8H640Z"/><path class="cls-3" d="M648.95,67.52h-4.89v3.81h5.63v1.14h-7.08V61.8h7v1.14h-5.55v3.45h4.89Z"/><path class="cls-3" d="M658.75,62.93h-3.43v9.53h-1.44V62.93h-3.42V61.8h8.29Z"/><path class="cls-4" d="M604.93,224.83h5V226h-6.49V215.31h1.44Z"/><path class="cls-4" d="M618,226h-6.91v-1l3.49-3.88a9.83,9.83,0,0,0,1.27-1.66,2.62,2.62,0,0,0,.33-1.26,2,2,0,0,0-.46-1.34,1.54,1.54,0,0,0-1.23-.55,2.12,2.12,0,0,0-1.63.57,2.26,2.26,0,0,0-.52,1.59H611v0a3,3,0,0,1,.92-2.31,3.6,3.6,0,0,1,2.64-.94,3.13,3.13,0,0,1,2.29.84,2.87,2.87,0,0,1,.85,2.14,3.42,3.42,0,0,1-.52,1.75,11.24,11.24,0,0,1-1.45,1.88l-2.81,3v0H618Z"/><path class="cls-4" d="M620.06,226.89h-1.23l4.45-11.58h1.22Z"/><path class="cls-4" d="M627.7,224.83h5V226h-6.49V215.31h1.44Z"/><path class="cls-4" d="M635.88,220h1.26a1.68,1.68,0,0,0,1.36-.48,2,2,0,0,0,.4-1.34,1.94,1.94,0,0,0-.45-1.39,1.77,1.77,0,0,0-1.34-.48,1.86,1.86,0,0,0-1.35.49,1.75,1.75,0,0,0-.51,1.31h-1.38v0a2.58,2.58,0,0,1,.88-2.05,3.37,3.37,0,0,1,2.38-.85,3.4,3.4,0,0,1,2.36.79,2.86,2.86,0,0,1,.88,2.24,2.56,2.56,0,0,1-1.6,2.31,2.35,2.35,0,0,1,1.36,1,3.16,3.16,0,0,1-.56,3.8,3.58,3.58,0,0,1-2.44.83,3.67,3.67,0,0,1-2.41-.79,2.52,2.52,0,0,1-.92-2.13l0,0h1.38a1.77,1.77,0,0,0,.52,1.33,2,2,0,0,0,1.42.5,2,2,0,0,0,1.44-.5,1.93,1.93,0,0,0,.52-1.47,1.66,1.66,0,0,0-1.92-1.92h-1.26Z"/><path class="cls-4" d="M603.11,241.28a1.57,1.57,0,0,0-.55-1.22,4.63,4.63,0,0,0-1.95-.83A6.43,6.43,0,0,1,598,238a2.46,2.46,0,0,1-.95-2,2.59,2.59,0,0,1,1-2.08,4,4,0,0,1,2.65-.84,3.94,3.94,0,0,1,2.79,1,2.83,2.83,0,0,1,1,2.23v0h-1.38a2,2,0,0,0-.62-1.52,3,3,0,0,0-3.43-.09,1.59,1.59,0,0,0-.57,1.27,1.4,1.4,0,0,0,.62,1.16,5.9,5.9,0,0,0,2,.82,5.77,5.77,0,0,1,2.56,1.23,2.63,2.63,0,0,1,.88,2,2.46,2.46,0,0,1-1.05,2.07,4.5,4.5,0,0,1-2.75.78,4.77,4.77,0,0,1-2.82-.87,2.62,2.62,0,0,1-1.19-2.32v0h1.38a1.79,1.79,0,0,0,.75,1.56,3.15,3.15,0,0,0,1.87.53,2.91,2.91,0,0,0,1.73-.46A1.46,1.46,0,0,0,603.11,241.28Z"/><path class="cls-4" d="M608.79,240.28l.2,1.33h0l.29-1.34,2-7h1.27l2,7,.29,1.37h0l.21-1.37,1.59-7h1.44L615.53,244h-1.29l-2.1-7.4-.19-1h0l-.18,1-2.14,7.4h-1.29l-2.56-10.66h1.44Z"/><path class="cls-4" d="M621.43,244H620V233.31h1.45Z"/><path class="cls-4" d="M631.15,234.44h-3.43V244h-1.44v-9.53h-3.42v-1.14h8.29Z"/><path class="cls-4" d="M640.05,240.55v0a3.21,3.21,0,0,1-1.05,2.52,4,4,0,0,1-2.86,1,3.76,3.76,0,0,1-2.95-1.28,4.71,4.71,0,0,1-1.14-3.25v-1.9a4.73,4.73,0,0,1,1.14-3.26,3.76,3.76,0,0,1,2.95-1.29,4.14,4.14,0,0,1,2.88,1,3.19,3.19,0,0,1,1,2.55v0h-1.38a2.38,2.38,0,0,0-.66-1.77,2.53,2.53,0,0,0-1.86-.65,2.27,2.27,0,0,0-1.93,1,4,4,0,0,0-.72,2.42v1.91a4,4,0,0,0,.72,2.43,2.27,2.27,0,0,0,1.93,1,2.54,2.54,0,0,0,1.86-.65,2.39,2.39,0,0,0,.66-1.79Z"/><path class="cls-4" d="M650.08,244h-1.44v-4.71h-5.18V244H642V233.31h1.44v4.82h5.18v-4.82h1.44Z"/><path class="cls-5" d="M178.14,148.15h-4.47l-1,2.75h-1.47l4.12-10.66h1.24l4.06,10.66h-1.47Zm-4-1.21h3.59l-1.76-4.86h0Z"/><path class="cls-5" d="M189.61,147.47v0a3.21,3.21,0,0,1-1.05,2.52,4,4,0,0,1-2.86,1,3.76,3.76,0,0,1-2.95-1.28,4.71,4.71,0,0,1-1.14-3.25v-1.9a4.73,4.73,0,0,1,1.14-3.26,3.76,3.76,0,0,1,2.95-1.29,4.14,4.14,0,0,1,2.88,1,3.18,3.18,0,0,1,1,2.55v0h-1.38a2.38,2.38,0,0,0-.66-1.77,2.53,2.53,0,0,0-1.86-.65,2.27,2.27,0,0,0-1.93,1,4,4,0,0,0-.72,2.42v1.91a4,4,0,0,0,.72,2.43,2.27,2.27,0,0,0,1.93,1,2.54,2.54,0,0,0,1.86-.65,2.4,2.4,0,0,0,.66-1.79Z"/><path class="cls-5" d="M198.58,141.36h-3.43v9.53h-1.44v-9.53h-3.42v-1.14h8.29Z"/><path class="cls-5" d="M201.67,150.89h-1.45V140.23h1.45Z"/><path class="cls-5" d="M207.55,148.24l.24.84h0l.24-.84,2.75-8h1.56l-4,10.66h-1.24l-4-10.66h1.57Z"/><path class="cls-5" d="M220.2,145.95h-4.89v3.81h5.63v1.14h-7.08V140.23h7v1.14h-5.55v3.45h4.89Z"/><path class="cls-6" d="M393.87,174.29a1.57,1.57,0,0,0-.55-1.22,4.64,4.64,0,0,0-1.95-.83,6.44,6.44,0,0,1-2.64-1.19,2.46,2.46,0,0,1-.95-2,2.59,2.59,0,0,1,1-2.08,4,4,0,0,1,2.65-.84,3.94,3.94,0,0,1,2.79,1,2.83,2.83,0,0,1,1,2.23v0h-1.38a2,2,0,0,0-.62-1.52,3,3,0,0,0-3.43-.09,1.59,1.59,0,0,0-.57,1.27,1.4,1.4,0,0,0,.62,1.16,5.91,5.91,0,0,0,2,.82,5.77,5.77,0,0,1,2.56,1.23,2.63,2.63,0,0,1,.88,2,2.46,2.46,0,0,1-1.05,2.07,4.5,4.5,0,0,1-2.75.78,4.77,4.77,0,0,1-2.82-.87,2.62,2.62,0,0,1-1.19-2.32v0h1.38a1.79,1.79,0,0,0,.75,1.56,3.15,3.15,0,0,0,1.87.53,2.91,2.91,0,0,0,1.73-.46A1.46,1.46,0,0,0,393.87,174.29Z"/><path class="cls-6" d="M404.64,167.45h-3.43V177h-1.44v-9.53h-3.42v-1.14h8.29Z"/><path class="cls-6" d="M411.19,174.23h-4.47l-1,2.75h-1.47l4.12-10.66h1.24L413.66,177h-1.47Zm-4-1.21h3.59L409,168.16h0Z"/><path class="cls-6" d="M423.19,177h-1.44l-5.13-8.25h0V177h-1.44V166.31h1.44l5.13,8.23h0v-8.22h1.44Z"/><path class="cls-6" d="M425.83,177V166.31h3.27a4.38,4.38,0,0,1,4.63,4.61v1.46a4.37,4.37,0,0,1-4.63,4.6Zm1.44-9.53v8.39h1.83a2.94,2.94,0,0,0,2.33-1,3.65,3.65,0,0,0,.85-2.5V170.9a3.63,3.63,0,0,0-.85-2.48,2.94,2.94,0,0,0-2.33-1Z"/><path class="cls-6" d="M435.71,177V166.31h3.48a4.22,4.22,0,0,1,2.61.72,2.55,2.55,0,0,1,.94,2.16,2,2,0,0,1-.45,1.27,2.69,2.69,0,0,1-1.19.83,2.46,2.46,0,0,1,1.52.94,2.8,2.8,0,0,1,.55,1.72,2.72,2.72,0,0,1-.95,2.24,4,4,0,0,1-2.57.77Zm1.44-6.13h2.34a1.92,1.92,0,0,0,1.31-.44,1.78,1.78,0,0,0,0-2.53,2.5,2.5,0,0,0-1.57-.43h-2Zm0,1.14v3.86h2.5a2.23,2.23,0,0,0,1.53-.49,1.74,1.74,0,0,0,.55-1.37,2.18,2.18,0,0,0-.46-1.47,1.76,1.76,0,0,0-1.41-.53Z"/><path class="cls-6" d="M448.15,171.73l2.78-5.42h1.65l-3.74,6.91V177h-1.44v-3.85l-3.68-6.82h1.65Z"/><path class="cls-6" d="M801.72,174.29a1.57,1.57,0,0,0-.55-1.22,4.64,4.64,0,0,0-1.95-.83,6.45,6.45,0,0,1-2.64-1.19,2.46,2.46,0,0,1-.95-2,2.59,2.59,0,0,1,1-2.08,4,4,0,0,1,2.65-.84,3.94,3.94,0,0,1,2.79,1,2.83,2.83,0,0,1,1,2.23v0H801.7a2,2,0,0,0-.62-1.52,3,3,0,0,0-3.43-.09,1.59,1.59,0,0,0-.57,1.27,1.4,1.4,0,0,0,.62,1.16,5.91,5.91,0,0,0,2,.82,5.77,5.77,0,0,1,2.56,1.23,2.63,2.63,0,0,1,.88,2,2.46,2.46,0,0,1-1.05,2.07,4.5,4.5,0,0,1-2.75.78,4.77,4.77,0,0,1-2.82-.87,2.62,2.62,0,0,1-1.19-2.32v0h1.38a1.79,1.79,0,0,0,.75,1.56,3.15,3.15,0,0,0,1.87.53,2.91,2.91,0,0,0,1.73-.46A1.46,1.46,0,0,0,801.72,174.29Z"/><path class="cls-6" d="M812.49,167.45h-3.43V177h-1.44v-9.53H804.2v-1.14h8.29Z"/><path class="cls-6" d="M819,174.23h-4.47l-1,2.75h-1.47l4.12-10.66h1.24L821.51,177H820ZM815,173h3.59l-1.76-4.86h0Z"/><path class="cls-6" d="M831,177H829.6l-5.13-8.25h0V177H823V166.31h1.44l5.13,8.23h0v-8.22H831Z"/><path class="cls-6" d="M833.68,177V166.31H837a4.38,4.38,0,0,1,4.63,4.61v1.46A4.37,4.37,0,0,1,837,177Zm1.44-9.53v8.39H837a2.94,2.94,0,0,0,2.33-1,3.64,3.64,0,0,0,.85-2.5V170.9a3.62,3.62,0,0,0-.85-2.48,2.94,2.94,0,0,0-2.33-1Z"/><path class="cls-6" d="M843.56,177V166.31H847a4.22,4.22,0,0,1,2.62.72,2.55,2.55,0,0,1,.94,2.16,2,2,0,0,1-.45,1.27,2.68,2.68,0,0,1-1.19.83,2.46,2.46,0,0,1,1.52.94A2.8,2.8,0,0,1,851,174a2.72,2.72,0,0,1-.95,2.24,4,4,0,0,1-2.57.77Zm1.44-6.13h2.34a1.91,1.91,0,0,0,1.31-.44,1.78,1.78,0,0,0,0-2.53,2.5,2.5,0,0,0-1.57-.43h-2Zm0,1.14v3.86h2.5a2.23,2.23,0,0,0,1.53-.49,1.74,1.74,0,0,0,.55-1.37,2.18,2.18,0,0,0-.46-1.47,1.76,1.76,0,0,0-1.41-.53Z"/><path class="cls-6" d="M856,171.73l2.78-5.42h1.65l-3.74,6.91V177h-1.44v-3.85l-3.68-6.82h1.65Z"/><path class="cls-5" d="M1053.28,148.15h-4.47l-1,2.75h-1.47l4.12-10.66h1.24l4.06,10.66h-1.47Zm-4-1.21h3.59l-1.76-4.86h0Z"/><path class="cls-5" d="M1064.75,147.47v0a3.21,3.21,0,0,1-1.05,2.52,4,4,0,0,1-2.86,1,3.76,3.76,0,0,1-2.95-1.28,4.71,4.71,0,0,1-1.14-3.25v-1.9a4.72,4.72,0,0,1,1.14-3.26,3.75,3.75,0,0,1,2.95-1.29,4.14,4.14,0,0,1,2.88,1,3.18,3.18,0,0,1,1,2.55v0h-1.38a2.38,2.38,0,0,0-.66-1.77,2.53,2.53,0,0,0-1.86-.65,2.27,2.27,0,0,0-1.93,1,4,4,0,0,0-.72,2.42v1.91a4,4,0,0,0,.72,2.43,2.27,2.27,0,0,0,1.93,1,2.54,2.54,0,0,0,1.86-.65,2.4,2.4,0,0,0,.66-1.79Z"/><path class="cls-5" d="M1073.72,141.36h-3.43v9.53h-1.44v-9.53h-3.42v-1.14h8.29Z"/><path class="cls-5" d="M1076.81,150.89h-1.45V140.23h1.45Z"/><path class="cls-5" d="M1082.69,148.24l.24.84h0l.24-.84,2.75-8h1.56l-4,10.66h-1.24l-4-10.66h1.57Z"/><path class="cls-5" d="M1095.34,145.95h-4.89v3.81h5.63v1.14H1089V140.23h7v1.14h-5.55v3.45h4.89Z"/><path class="cls-2" d="M69.13,284.4H37a16.37,16.37,0,0,1-7.83-30.74v-.06a18.63,18.63,0,0,1,34.62-9.55,10.09,10.09,0,0,1,14.34,9.17h-2a8.09,8.09,0,0,0-12.23-7l-.9.54-.49-.93a16.63,16.63,0,0,0-31.34,7.75c0,.21,0,.42,0,.62l0,.65-.58.29A14.37,14.37,0,0,0,37,282.4H69.13Z"/><rect class="cls-2" x="82.02" y="280.92" width="2" height="6.29"/><rect class="cls-2" x="72.16" y="288.48" width="6.47" height="2"/><rect class="cls-2" x="87.31" y="288.48" width="6.43" height="2"/><path class="cls-2" d="M82.93,292.29a2.81,2.81,0,1,1,2.81-2.81A2.82,2.82,0,0,1,82.93,292.29Zm0-3.62a.81.81,0,1,0,.81.81A.81.81,0,0,0,82.93,288.67Z"/><path class="cls-2" d="M91.73,282.07H73.59a3,3,0,0,1-3-3v-16.8a3,3,0,0,1,3-3H91.73a3,3,0,0,1,3,3V279A3,3,0,0,1,91.73,282.07ZM73.59,261.21a1,1,0,0,0-1,1V279a1,1,0,0,0,1,1H91.73a1,1,0,0,0,1-1v-16.8a1,1,0,0,0-1-1Z"/><path class="cls-7" d="M79.48,271.72h-2.4l-.54,1.47h-.79l2.21-5.7h.66l2.18,5.7H80Zm-2.16-.65h1.92l-.94-2.6h0Z"/><g class="cls-8"><rect class="cls-2" x="24.53" y="226.23" width="85.33" height="85.33"/><g class="cls-9"><rect class="cls-2" x="72.2" y="263.93" width="12.16" height="12.81"/></g></g><path class="cls-7" d="M82.36,270.9v2.29h-.77v-5.7h2.19a2,2,0,0,1,1.42.47,1.77,1.77,0,0,1,0,2.48,2,2,0,0,1-1.42.46Zm0-.61h1.41a1.13,1.13,0,0,0,.87-.31,1.11,1.11,0,0,0,.29-.78,1,1,0,0,0-1.16-1.11H82.36Z"/><g class="cls-10"><rect class="cls-2" x="24.53" y="226.23" width="85.33" height="85.33"/><g class="cls-9"><rect class="cls-2" x="78.03" y="263.93" width="11.23" height="12.81"/></g></g><path class="cls-7" d="M87.51,270.9v2.29h-.77v-5.7h2.19a2,2,0,0,1,1.42.47,1.77,1.77,0,0,1,0,2.48,2,2,0,0,1-1.42.46Zm0-.61h1.41a1.13,1.13,0,0,0,.87-.31,1.11,1.11,0,0,0,.29-.78,1,1,0,0,0-1.16-1.11H87.51Z"/><g class="cls-11"><rect class="cls-2" x="24.53" y="226.23" width="85.33" height="85.33"/><g class="cls-9"><rect class="cls-2" x="83.19" y="263.93" width="11.23" height="12.81"/></g></g><path class="cls-2" d="M193.75,284.4H161.61a16.37,16.37,0,0,1-7.83-30.74v-.06a18.63,18.63,0,0,1,34.62-9.55,10.09,10.09,0,0,1,14.34,9.17h-2a8.09,8.09,0,0,0-12.23-7l-.9.54-.49-.93a16.63,16.63,0,0,0-31.34,7.75c0,.21,0,.42,0,.62l0,.65-.58.29a14.37,14.37,0,0,0,6.37,27.24h32.14Z"/><rect class="cls-2" x="206.64" y="280.92" width="2" height="6.29"/><rect class="cls-2" x="196.78" y="288.48" width="6.47" height="2"/><rect class="cls-2" x="211.93" y="288.48" width="6.43" height="2"/><path class="cls-2" d="M207.55,292.29a2.81,2.81,0,1,1,2.81-2.81A2.82,2.82,0,0,1,207.55,292.29Zm0-3.62a.81.81,0,1,0,.81.81A.81.81,0,0,0,207.55,288.67Z"/><path class="cls-2" d="M216.36,282.07H198.21a3,3,0,0,1-3-3v-16.8a3,3,0,0,1,3-3h18.14a3,3,0,0,1,3,3V279A3,3,0,0,1,216.36,282.07Zm-18.14-20.86a1,1,0,0,0-1,1V279a1,1,0,0,0,1,1h18.14a1,1,0,0,0,1-1v-16.8a1,1,0,0,0-1-1Z"/><path class="cls-7" d="M204.1,271.72h-2.4l-.54,1.47h-.79l2.21-5.7h.66l2.18,5.7h-.79Zm-2.16-.65h1.92l-.94-2.6h0Z"/><g class="cls-12"><rect class="cls-2" x="149.16" y="226.23" width="85.33" height="85.33"/><g class="cls-13"><rect class="cls-2" x="196.82" y="263.93" width="12.16" height="12.81"/></g></g><path class="cls-7" d="M207,270.9v2.29h-.77v-5.7h2.19a2,2,0,0,1,1.42.47,1.77,1.77,0,0,1,0,2.48,2,2,0,0,1-1.42.46Zm0-.61h1.41a1.13,1.13,0,0,0,.87-.31,1.11,1.11,0,0,0,.29-.78,1,1,0,0,0-1.16-1.11H207Z"/><g class="cls-14"><rect class="cls-2" x="149.16" y="226.23" width="85.33" height="85.33"/><g class="cls-13"><rect class="cls-2" x="202.65" y="263.93" width="11.23" height="12.81"/></g></g><path class="cls-7" d="M212.14,270.9v2.29h-.77v-5.7h2.19A2,2,0,0,1,215,268a1.77,1.77,0,0,1,0,2.48,2,2,0,0,1-1.42.46Zm0-.61h1.41a1.13,1.13,0,0,0,.87-.31,1.11,1.11,0,0,0,.29-.78,1,1,0,0,0-1.16-1.11h-1.41Z"/><g class="cls-15"><rect class="cls-2" x="149.16" y="226.23" width="85.33" height="85.33"/><g class="cls-13"><rect class="cls-2" x="207.81" y="263.93" width="11.23" height="12.81"/></g></g><path class="cls-2" d="M315.92,284.4H283.78a16.37,16.37,0,0,1-7.83-30.74v-.06a18.63,18.63,0,0,1,34.62-9.55,10.09,10.09,0,0,1,14.34,9.17h-2a8.09,8.09,0,0,0-12.23-7l-.9.54-.49-.93a16.63,16.63,0,0,0-31.34,7.75c0,.21,0,.42,0,.62l0,.65-.58.29a14.37,14.37,0,0,0,6.37,27.24h32.14Z"/><rect class="cls-2" x="328.81" y="280.92" width="2" height="6.29"/><rect class="cls-2" x="318.94" y="288.48" width="6.47" height="2"/><rect class="cls-2" x="334.1" y="288.48" width="6.43" height="2"/><path class="cls-2" d="M329.72,292.29a2.81,2.81,0,1,1,2.81-2.81A2.82,2.82,0,0,1,329.72,292.29Zm0-3.62a.81.81,0,1,0,.81.81A.81.81,0,0,0,329.72,288.67Z"/><path class="cls-2" d="M338.52,282.07H320.38a3,3,0,0,1-3-3v-16.8a3,3,0,0,1,3-3h18.14a3,3,0,0,1,3,3V279A3,3,0,0,1,338.52,282.07Zm-18.14-20.86a1,1,0,0,0-1,1V279a1,1,0,0,0,1,1h18.14a1,1,0,0,0,1-1v-16.8a1,1,0,0,0-1-1Z"/><path class="cls-7" d="M326.27,271.72h-2.4l-.54,1.47h-.79l2.21-5.7h.66l2.18,5.7h-.79Zm-2.16-.65H326l-.94-2.6h0Z"/><g class="cls-16"><rect class="cls-2" x="271.32" y="226.23" width="85.33" height="85.33"/><g class="cls-17"><rect class="cls-2" x="318.98" y="263.93" width="12.16" height="12.81"/></g></g><path class="cls-7" d="M329.15,270.9v2.29h-.77v-5.7h2.19A2,2,0,0,1,332,268a1.77,1.77,0,0,1,0,2.48,2,2,0,0,1-1.42.46Zm0-.61h1.41a1.13,1.13,0,0,0,.87-.31,1.11,1.11,0,0,0,.29-.78,1,1,0,0,0-1.16-1.11h-1.41Z"/><g class="cls-18"><rect class="cls-2" x="271.32" y="226.23" width="85.33" height="85.33"/><g class="cls-17"><rect class="cls-2" x="324.82" y="263.93" width="11.23" height="12.81"/></g></g><path class="cls-7" d="M334.3,270.9v2.29h-.77v-5.7h2.19a2,2,0,0,1,1.42.47,1.77,1.77,0,0,1,0,2.48,2,2,0,0,1-1.42.46Zm0-.61h1.41a1.13,1.13,0,0,0,.87-.31,1.11,1.11,0,0,0,.29-.78,1,1,0,0,0-1.16-1.11H334.3Z"/><g class="cls-19"><rect class="cls-2" x="271.32" y="226.23" width="85.33" height="85.33"/><g class="cls-17"><rect class="cls-2" x="329.97" y="263.93" width="11.23" height="12.81"/></g></g><path class="cls-2" d="M234.45,369.18H216.76A10.17,10.17,0,0,1,206.6,359V341.54a10.17,10.17,0,0,1,10.16-10.16h17.69a10.17,10.17,0,0,1,10.15,10.16V359A10.17,10.17,0,0,1,234.45,369.18Zm-17.69-35.8a8.16,8.16,0,0,0-8.16,8.16V359a8.16,8.16,0,0,0,8.16,8.15h17.69A8.16,8.16,0,0,0,242.6,359V341.54a8.16,8.16,0,0,0-8.15-8.16Z"/><path class="cls-2" d="M119.79,362.93h-3.56a3.66,3.66,0,0,1-3.88-3.38V341a3.66,3.66,0,0,1,3.88-3.38h3.56v2h-3.56c-1,0-1.88.63-1.88,1.38v18.56c0,.75.86,1.38,1.88,1.38h3.56Z"/><path class="cls-2" d="M248,362.93h-4.58v-2H248c1,0,1.88-.63,1.88-1.38V341c0-.75-.86-1.38-1.88-1.38h-4.58v-2H248a3.66,3.66,0,0,1,3.88,3.38v18.56A3.66,3.66,0,0,1,248,362.93Z"/><rect class="cls-2" x="147.81" y="356.13" width="15.82" height="2"/><rect class="cls-2" x="170.05" y="356.13" width="15.82" height="2"/><path class="cls-2" d="M133.23,345.74A1.74,1.74,0,1,1,135,344,1.74,1.74,0,0,1,133.23,345.74Zm0-2a.26.26,0,0,0-.26.26c0,.29.52.29.52,0A.26.26,0,0,0,133.23,343.74Z"/><path class="cls-2" d="M133.23,352.17a1.74,1.74,0,1,1,1.74-1.74A1.74,1.74,0,0,1,133.23,352.17Zm0-2a.26.26,0,0,0-.26.26c0,.29.52.29.52,0A.26.26,0,0,0,133.23,350.17Z"/><path class="cls-2" d="M133.23,358.59a1.74,1.74,0,1,1,1.74-1.74A1.74,1.74,0,0,1,133.23,358.59Zm0-2a.26.26,0,0,0-.26.26c0,.29.52.29.52,0A.26.26,0,0,0,133.23,356.59Z"/><path class="cls-2" d="M164.51,352.2H146.93v-9.91h17.58Zm-15.58-2h13.58v-5.91H148.93Z"/><path class="cls-2" d="M186.75,352.2H169.17v-9.91h17.58Zm-15.58-2h13.58v-5.91H171.17Z"/><path class="cls-2" d="M187.46,369.18h-58.7A10.17,10.17,0,0,1,118.6,359V341.54a10.17,10.17,0,0,1,10.16-10.16h58.7v2h-58.7a8.16,8.16,0,0,0-8.16,8.16V359a8.16,8.16,0,0,0,8.16,8.15h58.7Z"/><rect class="cls-2" x="224.82" y="368.78" width="1.88" height="4.65"/><rect class="cls-2" x="213.88" y="374.98" width="7.08" height="1.88"/><rect class="cls-2" x="230.44" y="374.98" width="7.03" height="1.88"/><path class="cls-2" d="M225.65,378.84a2.92,2.92,0,1,1,2.92-2.92A2.92,2.92,0,0,1,225.65,378.84Zm0-4a1,1,0,1,0,1,1A1,1,0,0,0,225.65,374.88Z"/><path class="cls-2" d="M218.54,352.65H215l-.68,2.15h-2l3.42-10h2l3.41,10h-2Zm-3-1.57H218l-1.23-3.91h0Z"/><path class="cls-2" d="M224.15,351.19v3.61h-2v-10h4a3.92,3.92,0,0,1,2.7.88,3.18,3.18,0,0,1,0,4.6,3.94,3.94,0,0,1-2.7.87Zm0-1.54h2a1.66,1.66,0,0,0,1.26-.45,1.62,1.62,0,0,0,.43-1.16,1.69,1.69,0,0,0-.43-1.19,1.63,1.63,0,0,0-1.27-.47h-2Z"/><path class="cls-2" d="M233.27,351.19v3.61h-2v-10h4a3.92,3.92,0,0,1,2.7.88,3.18,3.18,0,0,1,0,4.6,3.94,3.94,0,0,1-2.7.87Zm0-1.54h2a1.66,1.66,0,0,0,1.26-.45,1.62,1.62,0,0,0,.43-1.16,1.69,1.69,0,0,0-.43-1.19,1.63,1.63,0,0,0-1.27-.47h-2Z"/><path class="cls-2" d="M209.6,333.36h-4v-2h4Zm-8,0h-4v-2h4Zm-8,0h-4v-2h4Z"/><path class="cls-2" d="M210,369.18h-4v-2h4Zm-8,0h-4v-2h4Zm-8,0h-4v-2h4Z"/><path class="cls-20" d="M332.28,351.1h-2v-2h2q1,0,1.91-.06l.13,2Q333.31,351.1,332.28,351.1Zm-6,0h-4v-2h4Zm-8,0h-4v-2h4Zm-8,0h-4v-2h4Zm-8,0h-4v-2h4Zm-8,0h-4v-2h4Zm-8,0h-4v-2h4Zm-8,0h-4v-2h4Zm-8,0h-4v-2h4Zm-8,0h-4v-2h4Zm-156.88,0h-4v-2h4Zm-8,0h-4v-2h4Zm-8,0h-4v-2h4Zm-8,0h-4v-2h4Zm-8,0h-4v-2h4Zm-8,0h-4v-2h4Zm-8,0h-4v-2h4Zm-8,0h-4v-2h4Zm-8,0h-4v-2h4Zm-8,0H31.94c-.89,0-1.78,0-2.65-.11l.17-2c.81.07,1.65.1,2.48.1h1.43Zm305-.61-.39-2a28.7,28.7,0,0,0,3.73-1l.65,1.89A30.83,30.83,0,0,1,338.42,350.49Zm-313.2-.12a31.17,31.17,0,0,1-4-1.16l.69-1.88a29.06,29.06,0,0,0,3.71,1.09Zm321-2.57-.9-1.79a29.37,29.37,0,0,0,3.33-2l1.13,1.65A31.18,31.18,0,0,1,346.21,347.8Zm-328.73-.28A31,31,0,0,1,14,345.36l1.16-1.63a29.06,29.06,0,0,0,3.29,2ZM353,343.15l-1.34-1.49a29.27,29.27,0,0,0,2.69-2.77l1.52,1.3A31.25,31.25,0,0,1,353,343.15Zm-342.24-.4a31.31,31.31,0,0,1-2.82-3l1.55-1.27a29.08,29.08,0,0,0,2.64,2.82Zm347.58-5.87-1.68-1.08a29.25,29.25,0,0,0,1.87-3.38l1.81.85A31.32,31.32,0,0,1,358.35,336.88Zm-352.8-.51a31.06,31.06,0,0,1-1.93-3.65l1.83-.81a29,29,0,0,0,1.81,3.42Zm356.31-6.95-1.91-.6a28.89,28.89,0,0,0,.91-3.75l2,.34A30.85,30.85,0,0,1,361.86,329.42ZM2.19,328.84a31,31,0,0,1-.89-4l2-.3a28.85,28.85,0,0,0,.84,3.77Zm361.07-7.54-2-.08q0-.56,0-1.12v-2.84h2v2.84Q363.28,320.7,363.26,321.3ZM.95,320.69q0-.3,0-.59v-3.42h2v4Zm362.33-7.43h-2v-4h2ZM2.94,312.67h-2v-4h2Zm360.34-7.41h-2v-4h2ZM2.94,304.67h-2v-4h2Zm360.34-7.41h-2v-4h2ZM2.94,296.67h-2v-4h2Zm360.34-7.41h-2v-4h2ZM2.94,288.67h-2v-4h2Zm360.34-7.41h-2v-4h2ZM2.94,280.67h-2v-4h2Zm360.34-7.41h-2v-4h2ZM2.94,272.67h-2v-4h2Zm360.34-7.41h-2v-4h2ZM2.94,264.67h-2v-4h2Zm360.34-7.41h-2v-4h2ZM2.94,256.67h-2v-4h2Zm360.34-7.41h-2v-4h2ZM2.94,248.67h-2v-4h2Zm360.34-7.41h-2v-4h2ZM2.94,240.67h-2v-4h2Zm360.34-7.41h-2v-1c0-1,0-2-.14-2.91l2-.2c.1,1,.15,2.08.15,3.11ZM2.94,232.67h-2v-.4a31.63,31.63,0,0,1,.22-3.71l2,.24a29.51,29.51,0,0,0-.21,3.48Zm357.56-7.12a28.88,28.88,0,0,0-1.14-3.69l1.87-.72a31,31,0,0,1,1.22,3.95ZM3.86,225l-1.94-.5a31,31,0,0,1,1.3-3.92l1.85.75A28.83,28.83,0,0,0,3.86,225Zm353.87-6.65a29.18,29.18,0,0,0-2.08-3.26l1.61-1.19a31.25,31.25,0,0,1,2.22,3.48Zm-351-.49-1.74-1a31.24,31.24,0,0,1,2.29-3.44l1.59,1.22A29,29,0,0,0,6.77,217.87Zm346.39-5.72a29.29,29.29,0,0,0-2.86-2.6l1.24-1.57a31.29,31.29,0,0,1,3.06,2.77Zm-341.7-.4L10,210.34a31.1,31.1,0,0,1,3.11-2.72l1.21,1.59A29.2,29.2,0,0,0,11.46,211.75Zm335.66-4.4a29,29,0,0,0-3.44-1.75l.79-1.84a31.06,31.06,0,0,1,3.68,1.87Zm-329.53-.28-1-1.74a30.92,30.92,0,0,1,3.72-1.8l.75,1.85A29.07,29.07,0,0,0,17.59,207.08ZM340,204.33a28.89,28.89,0,0,0-3.78-.78l.27-2a31,31,0,0,1,4,.83Zm-315.3-.15-.5-1.94a31.11,31.11,0,0,1,4.06-.75l.23,2A29.1,29.1,0,0,0,24.73,204.18Zm307.67-.9h-4v-2h4Zm-8,0h-4v-2h4Zm-8,0h-4v-2h4Zm-8,0h-4v-2h4Zm-8,0h-4v-2h4Zm-8,0h-4v-2h4Zm-8,0h-4v-2h4Zm-8,0h-4v-2h4Zm-8,0h-4v-2h4Zm-8,0h-4v-2h4Zm-8,0h-4v-2h4Zm-8,0h-4v-2h4Zm-8,0h-4v-2h4Zm-8,0h-4v-2h4Zm-8,0h-4v-2h4Zm-8,0h-4v-2h4Zm-8,0h-4v-2h4Zm-8,0h-4v-2h4Zm-8,0h-4v-2h4Zm-8,0h-4v-2h4Zm-8,0h-4v-2h4Zm-8,0h-4v-2h4Zm-8,0h-4v-2h4Zm-8,0h-4v-2h4Zm-8,0h-4v-2h4Zm-8,0h-4v-2h4Zm-8,0h-4v-2h4Zm-8,0h-4v-2h4Zm-8,0h-4v-2h4Zm-8,0h-4v-2h4Zm-8,0h-4v-2h4Zm-8,0h-4v-2h4Zm-8,0h-4v-2h4Zm-8,0h-4v-2h4Zm-8,0h-4v-2h4Zm-8,0h-4v-2h4Zm-8,0h-4v-2h4Zm-8,0h-4v-2h4Z"/><path class="cls-2" d="M954.7,284.4H922.56a16.37,16.37,0,0,1-7.83-30.74v-.06a18.63,18.63,0,0,1,34.62-9.55,10.09,10.09,0,0,1,14.34,9.17h-2a8.09,8.09,0,0,0-12.23-7l-.9.54-.49-.93a16.63,16.63,0,0,0-31.34,7.75c0,.19,0,.37,0,.56l0,.65-.58.35a14.37,14.37,0,0,0,6.37,27.25H954.7Z"/><rect class="cls-2" x="967.59" y="280.92" width="2" height="6.29"/><rect class="cls-2" x="957.73" y="288.48" width="6.47" height="2"/><rect class="cls-2" x="972.88" y="288.48" width="6.43" height="2"/><path class="cls-2" d="M968.5,292.29a2.81,2.81,0,1,1,2.81-2.81A2.82,2.82,0,0,1,968.5,292.29Zm0-3.62a.81.81,0,1,0,.81.81A.81.81,0,0,0,968.5,288.67Z"/><path class="cls-2" d="M977.3,282.07H959.16a3,3,0,0,1-3-3v-16.8a3,3,0,0,1,3-3H977.3a3,3,0,0,1,3,3V279A3,3,0,0,1,977.3,282.07Zm-18.14-20.86a1,1,0,0,0-1,1V279a1,1,0,0,0,1,1H977.3a1,1,0,0,0,1-1v-16.8a1,1,0,0,0-1-1Z"/><path class="cls-7" d="M965,271.72h-2.4l-.54,1.47h-.79l2.21-5.7h.66l2.18,5.7h-.79Zm-2.16-.65h1.92l-.94-2.6h0Z"/><g class="cls-21"><rect class="cls-2" x="910.11" y="226.23" width="85.33" height="85.33"/><g class="cls-22"><rect class="cls-2" x="957.77" y="263.93" width="12.16" height="12.81"/></g></g><path class="cls-7" d="M967.93,270.9v2.29h-.77v-5.7h2.19a2,2,0,0,1,1.42.47,1.77,1.77,0,0,1,0,2.48,2,2,0,0,1-1.42.46Zm0-.61h1.41a1.13,1.13,0,0,0,.87-.31,1.11,1.11,0,0,0,.29-.78,1,1,0,0,0-1.16-1.11h-1.41Z"/><g class="cls-23"><rect class="cls-2" x="910.11" y="226.23" width="85.33" height="85.33"/><g class="cls-22"><rect class="cls-2" x="963.6" y="263.93" width="11.23" height="12.81"/></g></g><path class="cls-7" d="M973.09,270.9v2.29h-.77v-5.7h2.19a2,2,0,0,1,1.42.47,1.77,1.77,0,0,1,0,2.48,2,2,0,0,1-1.42.46Zm0-.61h1.41a1.13,1.13,0,0,0,.87-.31,1.11,1.11,0,0,0,.29-.78,1,1,0,0,0-1.16-1.11h-1.41Z"/><g class="cls-24"><rect class="cls-2" x="910.11" y="226.23" width="85.33" height="85.33"/><g class="cls-22"><rect class="cls-2" x="968.76" y="263.93" width="11.23" height="12.81"/></g></g><path class="cls-2" d="M1079.32,284.4h-32.14a16.37,16.37,0,0,1-7.83-30.74v-.06a18.63,18.63,0,0,1,34.62-9.55,10.09,10.09,0,0,1,14.34,9.17h-2a8.09,8.09,0,0,0-12.23-7l-.9.54-.49-.93a16.63,16.63,0,0,0-31.34,7.75c0,.19,0,.37,0,.56l0,.65-.58.35a14.37,14.37,0,0,0,6.37,27.24h32.14Z"/><rect class="cls-2" x="1092.21" y="280.92" width="2" height="6.29"/><rect class="cls-2" x="1082.35" y="288.48" width="6.47" height="2"/><rect class="cls-2" x="1097.5" y="288.48" width="6.43" height="2"/><path class="cls-2" d="M1093.12,292.29a2.81,2.81,0,1,1,2.81-2.81A2.82,2.82,0,0,1,1093.12,292.29Zm0-3.62a.81.81,0,1,0,.81.81A.81.81,0,0,0,1093.12,288.67Z"/><path class="cls-2" d="M1101.93,282.07h-18.14a3,3,0,0,1-3-3v-16.8a3,3,0,0,1,3-3h18.14a3,3,0,0,1,3,3V279A3,3,0,0,1,1101.93,282.07Zm-18.14-20.86a1,1,0,0,0-1,1V279a1,1,0,0,0,1,1h18.14a1,1,0,0,0,1-1v-16.8a1,1,0,0,0-1-1Z"/><path class="cls-7" d="M1089.67,271.72h-2.4l-.54,1.47h-.79l2.21-5.7h.66l2.18,5.7h-.79Zm-2.16-.65h1.92l-.94-2.6h0Z"/><g class="cls-25"><rect class="cls-2" x="1034.73" y="226.23" width="85.33" height="85.33"/><g class="cls-26"><rect class="cls-2" x="1082.39" y="263.93" width="12.16" height="12.81"/></g></g><path class="cls-7" d="M1092.55,270.9v2.29h-.77v-5.7H1094a2,2,0,0,1,1.42.47,1.77,1.77,0,0,1,0,2.48,2,2,0,0,1-1.42.46Zm0-.61H1094a1.13,1.13,0,0,0,.87-.31,1.11,1.11,0,0,0,.29-.78,1,1,0,0,0-1.16-1.11h-1.41Z"/><g class="cls-27"><rect class="cls-2" x="1034.73" y="226.23" width="85.33" height="85.33"/><g class="cls-26"><rect class="cls-2" x="1088.23" y="263.93" width="11.23" height="12.81"/></g></g><path class="cls-7" d="M1097.71,270.9v2.29h-.77v-5.7h2.19a2,2,0,0,1,1.42.47,1.77,1.77,0,0,1,0,2.48,2,2,0,0,1-1.42.46Zm0-.61h1.41a1.13,1.13,0,0,0,.87-.31,1.11,1.11,0,0,0,.29-.78,1,1,0,0,0-1.16-1.11h-1.41Z"/><g class="cls-28"><rect class="cls-2" x="1034.73" y="226.23" width="85.33" height="85.33"/><g class="cls-26"><rect class="cls-2" x="1093.38" y="263.93" width="11.23" height="12.81"/></g></g><path class="cls-2" d="M1201.49,284.4h-32.14a16.37,16.37,0,0,1-7.83-30.74v-.06a18.63,18.63,0,0,1,34.62-9.55,10.09,10.09,0,0,1,14.34,9.17h-2a8.09,8.09,0,0,0-12.23-7l-.9.54-.49-.93a16.63,16.63,0,0,0-31.34,7.75c0,.19,0,.37,0,.56l0,.65-.58.35a14.37,14.37,0,0,0,6.37,27.24h32.14Z"/><rect class="cls-2" x="1214.38" y="280.92" width="2" height="6.29"/><rect class="cls-2" x="1204.51" y="288.48" width="6.47" height="2"/><rect class="cls-2" x="1219.67" y="288.48" width="6.43" height="2"/><path class="cls-2" d="M1215.29,292.29a2.81,2.81,0,1,1,2.81-2.81A2.82,2.82,0,0,1,1215.29,292.29Zm0-3.62a.81.81,0,1,0,.81.81A.81.81,0,0,0,1215.29,288.67Z"/><path class="cls-2" d="M1224.09,282.07h-18.14a3,3,0,0,1-3-3v-16.8a3,3,0,0,1,3-3h18.14a3,3,0,0,1,3,3V279A3,3,0,0,1,1224.09,282.07Zm-18.14-20.86a1,1,0,0,0-1,1V279a1,1,0,0,0,1,1h18.14a1,1,0,0,0,1-1v-16.8a1,1,0,0,0-1-1Z"/><path class="cls-7" d="M1211.84,271.72h-2.4l-.54,1.47h-.79l2.21-5.7h.66l2.18,5.7h-.79Zm-2.16-.65h1.92l-.94-2.6h0Z"/><g class="cls-29"><rect class="cls-2" x="1156.89" y="226.23" width="85.33" height="85.33"/><g class="cls-30"><rect class="cls-2" x="1204.55" y="263.93" width="12.16" height="12.81"/></g></g><path class="cls-7" d="M1214.72,270.9v2.29h-.77v-5.7h2.19a2,2,0,0,1,1.42.47,1.77,1.77,0,0,1,0,2.48,2,2,0,0,1-1.42.46Zm0-.61h1.41a1.13,1.13,0,0,0,.87-.31,1.11,1.11,0,0,0,.29-.78,1,1,0,0,0-1.16-1.11h-1.41Z"/><g class="cls-31"><rect class="cls-2" x="1156.89" y="226.23" width="85.33" height="85.33"/><g class="cls-30"><rect class="cls-2" x="1210.39" y="263.93" width="11.23" height="12.81"/></g></g><path class="cls-7" d="M1219.87,270.9v2.29h-.77v-5.7h2.19a2,2,0,0,1,1.42.47,1.77,1.77,0,0,1,0,2.48,2,2,0,0,1-1.42.46Zm0-.61h1.41a1.13,1.13,0,0,0,.87-.31,1.11,1.11,0,0,0,.29-.78,1,1,0,0,0-1.16-1.11h-1.41Z"/><g class="cls-32"><rect class="cls-2" x="1156.89" y="226.23" width="85.33" height="85.33"/><g class="cls-30"><rect class="cls-2" x="1215.54" y="263.93" width="11.23" height="12.81"/></g></g><path class="cls-2" d="M1120,369.18h-17.69A10.17,10.17,0,0,1,1092.17,359V341.54a10.17,10.17,0,0,1,10.16-10.16H1120a10.17,10.17,0,0,1,10.16,10.16V359A10.17,10.17,0,0,1,1120,369.18Zm-17.69-35.8a8.16,8.16,0,0,0-8.16,8.16V359a8.16,8.16,0,0,0,8.16,8.15H1120a8.16,8.16,0,0,0,8.16-8.15V341.54a8.16,8.16,0,0,0-8.16-8.16Z"/><path class="cls-2" d="M1005.37,362.93h-3.56a3.66,3.66,0,0,1-3.87-3.38V341a3.66,3.66,0,0,1,3.87-3.38h3.56v2h-3.56c-1,0-1.87.63-1.87,1.38v18.56c0,.75.86,1.38,1.87,1.38h3.56Z"/><path class="cls-2" d="M1133.57,362.93H1129v-2h4.58c1,0,1.88-.63,1.88-1.38V341c0-.75-.86-1.38-1.87-1.38H1129v-2h4.58a3.66,3.66,0,0,1,3.88,3.38v18.56A3.66,3.66,0,0,1,1133.57,362.93Z"/><rect class="cls-2" x="1033.38" y="356.13" width="15.82" height="2"/><rect class="cls-2" x="1055.63" y="356.13" width="15.82" height="2"/><path class="cls-2" d="M1018.8,345.74a1.74,1.74,0,1,1,1.74-1.74A1.74,1.74,0,0,1,1018.8,345.74Zm0-2a.26.26,0,0,0-.26.26c0,.29.52.29.52,0A.26.26,0,0,0,1018.8,343.74Z"/><path class="cls-2" d="M1018.8,352.17a1.74,1.74,0,1,1,1.74-1.74A1.74,1.74,0,0,1,1018.8,352.17Zm0-2a.26.26,0,0,0-.26.26c0,.29.52.29.52,0A.26.26,0,0,0,1018.8,350.17Z"/><path class="cls-2" d="M1018.8,358.59a1.74,1.74,0,1,1,1.74-1.74A1.74,1.74,0,0,1,1018.8,358.59Zm0-2a.26.26,0,0,0-.26.26c0,.29.52.29.52,0A.26.26,0,0,0,1018.8,356.59Z"/><path class="cls-2" d="M1050.08,352.2H1032.5v-9.91h17.58Zm-15.58-2h13.58v-5.91H1034.5Z"/><path class="cls-2" d="M1072.32,352.2h-17.58v-9.91h17.58Zm-15.58-2h13.58v-5.91h-13.58Z"/><path class="cls-2" d="M1073,369.18h-58.7A10.17,10.17,0,0,1,1004.17,359V341.54a10.17,10.17,0,0,1,10.16-10.16H1073v2h-58.7a8.16,8.16,0,0,0-8.16,8.16V359a8.16,8.16,0,0,0,8.16,8.15H1073Z"/><rect class="cls-2" x="1110.39" y="368.78" width="1.88" height="4.65"/><rect class="cls-2" x="1099.45" y="374.98" width="7.08" height="1.88"/><rect class="cls-2" x="1116.01" y="374.98" width="7.03" height="1.88"/><path class="cls-2" d="M1111.22,378.84a2.92,2.92,0,1,1,2.92-2.92A2.92,2.92,0,0,1,1111.22,378.84Zm0-4a1,1,0,1,0,1,1A1,1,0,0,0,1111.22,374.88Z"/><path class="cls-2" d="M1104.11,352.65h-3.49l-.68,2.15h-2l3.42-10h2l3.41,10h-2Zm-3-1.57h2.51l-1.23-3.91h0Z"/><path class="cls-2" d="M1109.72,351.19v3.61h-2v-10h4a3.92,3.92,0,0,1,2.7.88,3.18,3.18,0,0,1,0,4.6,3.94,3.94,0,0,1-2.7.87Zm0-1.54h2a1.66,1.66,0,0,0,1.26-.45,1.62,1.62,0,0,0,.43-1.16,1.69,1.69,0,0,0-.43-1.19,1.63,1.63,0,0,0-1.27-.47h-2Z"/><path class="cls-2" d="M1118.84,351.19v3.61h-2v-10h4a3.92,3.92,0,0,1,2.7.88,3.18,3.18,0,0,1,0,4.6,3.94,3.94,0,0,1-2.7.87Zm0-1.54h2a1.66,1.66,0,0,0,1.26-.45,1.62,1.62,0,0,0,.43-1.16,1.69,1.69,0,0,0-.43-1.19,1.63,1.63,0,0,0-1.27-.47h-2Z"/><path class="cls-2" d="M1095.17,333.36h-4v-2h4Zm-8,0h-4v-2h4Zm-8,0h-4v-2h4Z"/><path class="cls-2" d="M1095.54,369.18h-4v-2h4Zm-8,0h-4v-2h4Zm-8,0h-4v-2h4Z"/><path class="cls-20" d="M1217.85,351.1h-2v-2h2q1,0,1.91-.06l.13,2Q1218.88,351.1,1217.85,351.1Zm-6,0h-4v-2h4Zm-8,0h-4v-2h4Zm-8,0h-4v-2h4Zm-8,0h-4v-2h4Zm-8,0h-4v-2h4Zm-8,0h-4v-2h4Zm-8,0h-4v-2h4Zm-8,0h-4v-2h4Zm-8,0h-4v-2h4ZM991,351.1h-4v-2h4Zm-8,0h-4v-2h4Zm-8,0h-4v-2h4Zm-8,0h-4v-2h4Zm-8,0h-4v-2h4Zm-8,0h-4v-2h4Zm-8,0h-4v-2h4Zm-8,0h-4v-2h4Zm-8,0h-4v-2h4Zm-8,0h-1.44c-.88,0-1.77,0-2.64-.11l.17-2c.82.07,1.65.1,2.48.1H919Zm305-.61-.39-2a28.87,28.87,0,0,0,3.73-1l.65,1.89A30.78,30.78,0,0,1,1224,350.49Zm-313.2-.12a31.23,31.23,0,0,1-4-1.16l.69-1.88a29.15,29.15,0,0,0,3.71,1.09Zm321-2.57-.9-1.79a29.28,29.28,0,0,0,3.33-2l1.13,1.65A31.05,31.05,0,0,1,1231.78,347.8Zm-328.73-.28a31.17,31.17,0,0,1-3.51-2.17l1.16-1.63a29,29,0,0,0,3.29,2Zm335.53-4.38-1.34-1.49a28.93,28.93,0,0,0,2.69-2.77l1.52,1.29A31.07,31.07,0,0,1,1238.58,343.15Zm-342.24-.4a31.52,31.52,0,0,1-2.82-3l1.55-1.27a29.3,29.3,0,0,0,2.64,2.82Zm347.58-5.87-1.68-1.08a29,29,0,0,0,1.87-3.38l1.81.85A31.05,31.05,0,0,1,1243.93,336.88Zm-352.8-.51a30.81,30.81,0,0,1-1.93-3.65l1.83-.81a29,29,0,0,0,1.81,3.42Zm356.3-6.95-1.91-.6a29.13,29.13,0,0,0,.91-3.75l2,.34A31.27,31.27,0,0,1,1247.43,329.42Zm-359.66-.58a31.08,31.08,0,0,1-.89-4l2-.3a28.81,28.81,0,0,0,.84,3.77Zm361.07-7.54-2-.08c0-.37,0-.75,0-1.12v-2.84h2v2.84C1248.85,320.5,1248.85,320.9,1248.83,321.3Zm-362.31-.6q0-.3,0-.6v-3.42h2v3.42q0,.28,0,.56Zm362.33-7.43h-2v-4h2Zm-360.34-.59h-2v-4h2Zm360.34-7.41h-2v-4h2Zm-360.34-.59h-2v-4h2Zm360.34-7.41h-2v-4h2Zm-360.34-.59h-2v-4h2Zm360.34-7.41h-2v-4h2Zm-360.34-.59h-2v-4h2Zm360.34-7.41h-2v-4h2Zm-360.34-.59h-2v-4h2Zm360.34-7.41h-2v-4h2Zm-360.34-.59h-2v-4h2Zm360.34-7.41h-2v-4h2Zm-360.34-.59h-2v-4h2Zm360.34-7.41h-2v-4h2Zm-360.34-.59h-2v-4h2Zm360.34-7.41h-2v-4h2Zm-360.34-.59h-2v-4h2Zm360.34-7.41h-2v-4h2Zm-360.34-.59h-2v-4h2Zm360.34-7.41h-2v-1c0-1,0-2-.14-2.91l2-.2c.1,1,.15,2.07.15,3.11Zm-360.34-.59h-2v-.4a31.56,31.56,0,0,1,.22-3.71l2,.24a29.43,29.43,0,0,0-.21,3.48Zm357.56-7.12a29,29,0,0,0-1.14-3.69l1.87-.72a30.77,30.77,0,0,1,1.22,3.95ZM889.43,225l-1.94-.5a30.68,30.68,0,0,1,1.3-3.92l1.85.75A29,29,0,0,0,889.43,225Zm353.87-6.65a29.14,29.14,0,0,0-2.08-3.26l1.61-1.19a30.92,30.92,0,0,1,2.22,3.48Zm-351-.49-1.74-1a31.24,31.24,0,0,1,2.29-3.44l1.59,1.22A28.91,28.91,0,0,0,892.34,217.87Zm346.39-5.72a29.43,29.43,0,0,0-2.86-2.6l1.24-1.57a31.28,31.28,0,0,1,3.05,2.77Zm-341.7-.4-1.41-1.42a31.2,31.2,0,0,1,3.11-2.72l1.21,1.59A29.31,29.31,0,0,0,897,211.76Zm335.66-4.4a29.11,29.11,0,0,0-3.44-1.75l.79-1.84a31,31,0,0,1,3.68,1.87Zm-329.53-.28-1-1.74a31,31,0,0,1,3.72-1.8l.75,1.85A29,29,0,0,0,903.16,207.08Zm322.45-2.75a29,29,0,0,0-3.78-.78l.27-2a30.9,30.9,0,0,1,4,.83Zm-315.3-.15-.5-1.94a30.89,30.89,0,0,1,4.06-.75l.23,2A29,29,0,0,0,910.31,204.18Zm307.67-.9h-4v-2h4Zm-8,0h-4v-2h4Zm-8,0h-4v-2h4Zm-8,0h-4v-2h4Zm-8,0h-4v-2h4Zm-8,0h-4v-2h4Zm-8,0h-4v-2h4Zm-8,0h-4v-2h4Zm-8,0h-4v-2h4Zm-8,0h-4v-2h4Zm-8,0h-4v-2h4Zm-8,0h-4v-2h4Zm-8,0h-4v-2h4Zm-8,0h-4v-2h4Zm-8,0h-4v-2h4Zm-8,0h-4v-2h4Zm-8,0h-4v-2h4Zm-8,0h-4v-2h4Zm-8,0h-4v-2h4Zm-8,0h-4v-2h4Zm-8,0h-4v-2h4Zm-8,0h-4v-2h4Zm-8,0h-4v-2h4Zm-8,0h-4v-2h4Zm-8,0h-4v-2h4Zm-8,0h-4v-2h4Zm-8,0h-4v-2h4Zm-8,0h-4v-2h4Zm-8,0h-4v-2h4Zm-8,0h-4v-2h4Zm-8,0h-4v-2h4Zm-8,0h-4v-2h4Zm-8,0h-4v-2h4Zm-8,0h-4v-2h4Zm-8,0h-4v-2h4Zm-8,0h-4v-2h4Zm-8,0h-4v-2h4Zm-8,0h-4v-2h4Z"/><path class="cls-6" d="M667.05,114H585A37,37,0,0,1,568,44.2c0-.31,0-.62,0-.94a42.26,42.26,0,0,1,79.16-20.59,22.28,22.28,0,0,1,32.76,19.69A22,22,0,0,1,678,51.3a32.32,32.32,0,0,1-11,62.72ZM610.25,3A40.31,40.31,0,0,0,570,43.26c0,.5,0,1,0,1.5l0,.65-.58.29A35,35,0,0,0,585,112h82.08a30.32,30.32,0,0,0,9.29-59.18l-1.11-.36.52-1a20.1,20.1,0,0,0,2.16-9.07A20.28,20.28,0,0,0,647.27,24.9l-.9.54-.49-.93A40.2,40.2,0,0,0,610.25,3Z"/><path class="cls-33" d="M623.69,133.81a1,1,0,0,1-1-1v-16a1,1,0,0,1,2,0v16A1,1,0,0,1,623.69,133.81Z"/><path class="cls-4" d="M655.79,205.47H591.59a2.48,2.48,0,0,1-2.48-2.48V138.8a2.48,2.48,0,0,1,2.48-2.48h64.19a2.48,2.48,0,0,1,2.48,2.48V203A2.48,2.48,0,0,1,655.79,205.47Zm-64.19-67.15a.48.48,0,0,0-.48.48V203a.48.48,0,0,0,.48.48h64.19a.48.48,0,0,0,.48-.48V138.8a.48.48,0,0,0-.48-.48Z"/><path class="cls-4" d="M624,171.9a1,1,0,0,1-1-1v-1.44a11.35,11.35,0,0,1,11.34-11.34H648a1,1,0,0,1,0,2H634.36a9.35,9.35,0,0,0-9.34,9.34v1.44A1,1,0,0,1,624,171.9Z"/><path class="cls-4" d="M613.69,183.68H599.41a1,1,0,0,1,0-2h14.28a9.35,9.35,0,0,0,9.34-9.34V170.9a1,1,0,0,1,2,0v1.44A11.35,11.35,0,0,1,613.69,183.68Z"/><path class="cls-4" d="M620.65,162.29a1,1,0,0,1-.61-.21,9.22,9.22,0,0,0-5.71-2H599.41a1,1,0,0,1,0-2h14.92a11.21,11.21,0,0,1,6.93,2.38,1,1,0,0,1-.61,1.79Z"/><path class="cls-4" d="M604.47,166.2a1,1,0,0,1-.71-.29l-6.08-6.08a1,1,0,0,1,0-1.41l6.08-6.08a1,1,0,0,1,1.41,1.41l-5.37,5.37,5.37,5.37a1,1,0,0,1-.71,1.71Z"/><path class="cls-4" d="M648,184H633.82a11.21,11.21,0,0,1-6.93-2.38,1,1,0,0,1,1.23-1.58,9.22,9.22,0,0,0,5.7,2H648a1,1,0,0,1,0,2Z"/><path class="cls-4" d="M643.69,190.13a1,1,0,0,1-.71-1.71l5.37-5.37L643,177.68a1,1,0,0,1,1.41-1.41l6.08,6.08a1,1,0,0,1,0,1.41l-6.08,6.08A1,1,0,0,1,643.69,190.13Z"/><path class="cls-4" d="M604.47,190.13a1,1,0,0,1-.71-.29l-6.08-6.08a1,1,0,0,1,0-1.41l6.08-6.08a1,1,0,0,1,1.41,1.41L599.81,183l5.37,5.37a1,1,0,0,1-.71,1.71Z"/><path class="cls-4" d="M643.69,166.2a1,1,0,0,1-.71-1.71l5.37-5.37L643,153.75a1,1,0,0,1,1.41-1.41l6.08,6.08a1,1,0,0,1,0,1.41l-6.08,6.08A1,1,0,0,1,643.69,166.2Z"/><polygon class="cls-5" points="83.93 194.51 81.93 194.51 81.93 158.12 583.76 158.12 583.76 160.12 83.93 160.12 83.93 194.51"/><polygon class="cls-6" points="259.58 194.51 257.58 194.51 257.58 180.97 583.76 180.97 583.76 182.97 259.58 182.97 259.58 194.51"/><polygon class="cls-5" points="1166.83 194.51 1164.83 194.51 1164.83 160.12 665 160.12 665 158.12 1166.83 158.12 1166.83 194.51"/><polygon class="cls-6" points="991.17 194.51 989.17 194.51 989.17 182.97 665 182.97 665 180.97 991.17 180.97 991.17 194.51"/><path class="cls-3" d="M1074,394H184.75V373.94a1,1,0,0,1,2,0V392H1072V373.94a1,1,0,0,1,2,0Z"/><path class="cls-34" d="M370.79,441.69v-.84a3.64,3.64,0,0,0-3.63-3.63H262.63a3.64,3.64,0,0,0-3.63,3.63V465a3.64,3.64,0,0,0,3.63,3.63H367.16a3.64,3.64,0,0,0,3.63-3.63V441.69Z"/><rect class="cls-4" x="286.95" y="450.39" width="22.88" height="3.57"/><rect class="cls-4" x="270.16" y="450.39" width="3.56" height="3.57"/><rect class="cls-4" x="347.97" y="455.62" width="3.57" height="3.57"/><rect class="cls-4" x="343.92" y="450.39" width="3.57" height="3.57"/><rect class="cls-4" x="347.97" y="445.17" width="3.57" height="3.57"/><rect class="cls-4" x="356.05" y="455.62" width="3.57" height="3.57"/><rect class="cls-4" x="352.01" y="450.39" width="3.57" height="3.57"/><rect class="cls-4" x="356.05" y="445.17" width="3.57" height="3.57"/><rect class="cls-4" x="339.88" y="455.62" width="3.57" height="3.57"/><rect class="cls-4" x="339.88" y="445.17" width="3.57" height="3.57"/><rect class="cls-4" x="323.7" y="455.62" width="3.57" height="3.57"/><rect class="cls-4" x="319.67" y="450.39" width="3.57" height="3.57"/><rect class="cls-4" x="323.7" y="445.17" width="3.57" height="3.57"/><rect class="cls-4" x="335.84" y="450.39" width="3.57" height="3.57"/><rect class="cls-4" x="327.75" y="450.39" width="3.57" height="3.57"/><rect class="cls-4" x="331.79" y="445.17" width="3.57" height="3.57"/><rect class="cls-4" x="331.79" y="455.62" width="3.57" height="3.57"/><path class="cls-34" d="M683.77,441.69v-.84a3.64,3.64,0,0,0-3.63-3.63H575.6a3.64,3.64,0,0,0-3.63,3.63V465a3.64,3.64,0,0,0,3.63,3.63H680.14a3.64,3.64,0,0,0,3.63-3.63V441.69Z"/><rect class="cls-4" x="599.92" y="450.39" width="22.88" height="3.57"/><rect class="cls-4" x="583.14" y="450.39" width="3.56" height="3.57"/><rect class="cls-4" x="660.94" y="455.62" width="3.57" height="3.57"/><rect class="cls-4" x="656.9" y="450.39" width="3.57" height="3.57"/><rect class="cls-4" x="660.94" y="445.17" width="3.57" height="3.57"/><rect class="cls-4" x="669.03" y="455.62" width="3.57" height="3.57"/><rect class="cls-4" x="664.99" y="450.39" width="3.57" height="3.57"/><rect class="cls-4" x="669.03" y="445.17" width="3.57" height="3.57"/><rect class="cls-4" x="652.86" y="455.62" width="3.57" height="3.57"/><rect class="cls-4" x="652.86" y="445.17" width="3.57" height="3.57"/><rect class="cls-4" x="636.68" y="455.62" width="3.57" height="3.57"/><rect class="cls-4" x="632.64" y="450.39" width="3.57" height="3.57"/><rect class="cls-4" x="636.68" y="445.17" width="3.57" height="3.57"/><rect class="cls-4" x="648.81" y="450.39" width="3.57" height="3.57"/><rect class="cls-4" x="640.73" y="450.39" width="3.57" height="3.57"/><rect class="cls-4" x="644.77" y="445.17" width="3.57" height="3.57"/><rect class="cls-4" x="644.77" y="455.62" width="3.57" height="3.57"/><path class="cls-34" d="M999.31,441.69v-.84a3.64,3.64,0,0,0-3.63-3.63H891.14a3.64,3.64,0,0,0-3.63,3.63V465a3.64,3.64,0,0,0,3.63,3.63H995.68a3.64,3.64,0,0,0,3.63-3.63V441.69Z"/><rect class="cls-4" x="915.46" y="450.39" width="22.88" height="3.57"/><rect class="cls-4" x="898.68" y="450.39" width="3.56" height="3.57"/><rect class="cls-4" x="976.48" y="455.62" width="3.57" height="3.57"/><rect class="cls-4" x="972.44" y="450.39" width="3.57" height="3.57"/><rect class="cls-4" x="976.48" y="445.17" width="3.57" height="3.57"/><rect class="cls-4" x="984.57" y="455.62" width="3.57" height="3.57"/><rect class="cls-4" x="980.53" y="450.39" width="3.57" height="3.57"/><rect class="cls-4" x="984.57" y="445.17" width="3.57" height="3.57"/><rect class="cls-4" x="968.4" y="455.62" width="3.57" height="3.57"/><rect class="cls-4" x="968.4" y="445.17" width="3.57" height="3.57"/><rect class="cls-4" x="952.22" y="455.62" width="3.57" height="3.57"/><rect class="cls-4" x="948.18" y="450.39" width="3.57" height="3.57"/><rect class="cls-4" x="952.22" y="445.17" width="3.57" height="3.57"/><rect class="cls-4" x="964.35" y="450.39" width="3.57" height="3.57"/><rect class="cls-4" x="956.27" y="450.39" width="3.57" height="3.57"/><rect class="cls-4" x="960.31" y="445.17" width="3.57" height="3.57"/><rect class="cls-4" x="960.31" y="455.62" width="3.57" height="3.57"/><polygon class="cls-3" points="949.18 433.22 947.18 433.22 947.18 419.31 310.82 419.31 310.82 433.22 308.82 433.22 308.82 417.31 949.18 417.31 949.18 433.22"/><rect class="cls-3" x="622.69" y="392.99" width="2" height="40.23"/></svg>