<svg id="Layer_1" data-name="Layer 1" xmlns="http://www.w3.org/2000/svg" viewBox="0 0 1250 600"><defs><style>.cls-1{fill:#939596;}.cls-2{fill:#3fa1f2;}.cls-3{fill:#fefefe;}.cls-4{fill:#17242d;}.cls-5{fill:#c46dbe;}.cls-6{fill:#0075c9;}.cls-7{fill:#e7e7e8;}.cls-8{fill:#787878;}.cls-9{fill:#18242d;}</style></defs><title>MangementHarmony-Central-Policy</title><path class="cls-1" d="M803.58,216.21h-5.1v-2h5.06c.64,0,1.31,0,2-.07l.14,2C805,216.19,804.26,216.21,803.58,216.21Zm-12.7,0h-5.06v-2h5.06Zm-12.66,0h-5.06v-2h5.06Zm-12.66,0h-5.06v-2h5.06Zm-12.66,0h-5.06v-2h5.06Zm-12.66,0H735.2v-2h5.06Zm-12.66,0h-5.06v-2h5.06Zm-12.66,0h-5.06v-2h5.06Zm-12.66,0h-5.06v-2h5.06Zm-12.66,0h-5.06v-2h5.06Zm-12.66,0h-5.06v-2H677Zm-12.66,0h-5.06v-2h5.06Zm-12.66,0H646.6v-2h5.06Zm-12.66,0h-5.06v-2H639Zm-12.66,0h-2.22c-1,0-2,0-2.93-.14l.2-2c.9.09,1.82.13,2.74.13h2.22Zm187-1.65-.66-1.89a27.93,27.93,0,0,0,4.45-2l1,1.75A29.93,29.93,0,0,1,813.32,214.57Zm-199.75-.28a30,30,0,0,1-4.71-2.28l1-1.72a27.87,27.87,0,0,0,4.4,2.12Zm210.8-6.53L823,206.32a28.38,28.38,0,0,0,3.2-3.69l1.62,1.18A30.44,30.44,0,0,1,824.37,207.75Zm-221.66-.59a30.41,30.41,0,0,1-3.32-4L601,202a28.4,28.4,0,0,0,3.1,3.77Zm228.84-10.24-1.87-.72a27.76,27.76,0,0,0,1.35-4.69l2,.38A29.77,29.77,0,0,1,831.55,196.93Zm-235.72-.78a29.77,29.77,0,0,1-1.3-5.07l2-.33a27.73,27.73,0,0,0,1.22,4.72Zm237.71-12h-2v-5.06h2Zm-237.41-.8h-2v-5.06h2ZM833.54,171.5h-2v-5.06h2Zm-237.41-.8h-2v-5.06h2Zm237.41-11.86h-2v-5.06h2ZM596.13,158h-2V153h2Zm237.41-11.86h-2v-5.06h2Zm-237.41-.8h-2v-5.06h2Zm237.41-11.86h-2v-5.06h2Zm-237.41-.8h-2v-5.06h2Zm237.41-11.86h-2v-5.06h2Zm-237.41-.8h-2V115h2Zm237.41-11.86h-2v-5.06h2Zm-237.41-.8h-2v-5.06h2ZM833.54,95.56h-2V90.5h2Zm-237.41-.8h-2V89.7h2ZM833.54,82.9h-2V77.84h2Zm-237.41-.8h-2V77h2ZM831,70.49a27.67,27.67,0,0,0-1.38-4.68l1.86-.73a29.79,29.79,0,0,1,1.48,5Zm-234.15-.75-1.95-.45a29.81,29.81,0,0,1,1.62-5l1.84.79A27.84,27.84,0,0,0,596.85,69.73ZM826.06,59.42a28.31,28.31,0,0,0-3.23-3.66l1.38-1.45a30.42,30.42,0,0,1,3.46,3.92Zm-224-.62-1.58-1.23a30.56,30.56,0,0,1,3.56-3.82l1.34,1.48A28.42,28.42,0,0,0,602.08,58.8Zm214.85-7.36a28,28,0,0,0-4.47-2l.64-1.89a30,30,0,0,1,4.79,2.11Zm-205.51-.36-.91-1.78a29.89,29.89,0,0,1,4.84-2l.59,1.91A27.88,27.88,0,0,0,611.43,51.07Zm193.87-3q-.87-.05-1.75-.05H800.3V46h3.24q.95,0,1.88.06ZM623.15,48l-.07-2,1.06,0h4v2h-4ZM792.7,48h-5.06V46h5.06ZM780,48H775V46H780Zm-12.66,0h-5.06V46h5.06Zm-12.66,0h-5.06V46h5.06Zm-12.66,0H737V46h5.06Zm-12.66,0h-5.06V46h5.06Zm-12.66,0H711.7V46h5.06Zm-12.66,0H699V46h5.06Zm-12.66,0h-5.06V46h5.06ZM678.8,48h-5.06V46h5.06Zm-12.66,0h-5.06V46h5.06Zm-12.66,0h-5.06V46h5.06Zm-12.66,0h-5.06V46h5.06Z"/><g id="Icons---Outlined"><g id="Harmony-Controller-Rev"><g id="Page-1"><circle id="Oval" class="cls-2" cx="714.84" cy="112.53" r="40"/><g id="Group-22"><polygon id="Stroke-1" class="cls-3" points="714 124.02 714 131.8 715.53 131.8 715.53 124.02 714 124.02"/><polygon id="Stroke-2" class="cls-3" points="699.5 134.46 709.89 134.46 709.89 132.93 699.5 132.93 699.5 134.46"/><polygon id="Stroke-4" class="cls-3" points="730.5 132.93 719.36 132.93 719.36 134.46 730.5 134.46 730.5 132.93"/><path id="Stroke-6" class="cls-3" d="M716,134.5a1.21,1.21,0,1,0-1.21,1.2A1.2,1.2,0,0,0,716,134.5Zm1.54,0a2.75,2.75,0,1,1-2.75-2.74A2.74,2.74,0,0,1,717.56,134.5Z"/><polygon id="Stroke-8" class="cls-3" points="702.07 93.77 702.07 119.17 703.61 119.17 703.61 93.77 702.07 93.77"/><path id="Stroke-10" class="cls-3" d="M704.76,110.38a.59.59,0,0,0,.64-.5v-4.2a.46.46,0,0,0-.51-.38h-4a.59.59,0,0,0-.64.5v4.08a.59.59,0,0,0,.64.5Zm0,1.54h-3.85a2.11,2.11,0,0,1-2.18-2V105.8a2.11,2.11,0,0,1,2.18-2h4a2,2,0,0,1,2,1.92v4.2A2.11,2.11,0,0,1,704.76,111.91Z"/><polygon id="Stroke-12" class="cls-3" points="714.07 93.77 714.07 119.17 715.61 119.17 715.61 93.77 714.07 93.77"/><path id="Stroke-14" class="cls-3" d="M716.76,103.71a.59.59,0,0,0,.64-.5V99a.46.46,0,0,0-.51-.38h-4a.59.59,0,0,0-.64.5v4.08a.59.59,0,0,0,.64.5Zm0,1.54h-3.85a2.11,2.11,0,0,1-2.18-2V99.13a2.11,2.11,0,0,1,2.18-2h4a2,2,0,0,1,2,1.92v4.2A2.11,2.11,0,0,1,716.76,105.25Z"/><polygon id="Stroke-16" class="cls-3" points="725.4 93.77 725.4 119.17 726.94 119.17 726.94 93.77 725.4 93.77"/><path id="Stroke-18" class="cls-3" d="M728.1,113.71a.59.59,0,0,0,.64-.5V109a.46.46,0,0,0-.51-.38h-4a.59.59,0,0,0-.64.5v4.08a.59.59,0,0,0,.64.5Zm0,1.54h-3.85a2.11,2.11,0,0,1-2.18-2v-4.08a2.11,2.11,0,0,1,2.18-2h4a2,2,0,0,1,2,1.92v4.2A2.11,2.11,0,0,1,728.1,115.25Z"/><path id="Stroke-20" class="cls-3" d="M712.37,125.09H696.82a2.27,2.27,0,0,1-1.88-2.5V90.46a2.27,2.27,0,0,1,1.88-2.5h36a2.27,2.27,0,0,1,1.88,2.5V122.6a2.27,2.27,0,0,1-1.88,2.5H717.57v1.54h15.28c1.92,0,3.42-1.85,3.42-4V90.46c0-2.19-1.5-4-3.42-4h-36c-1.92,0-3.42,1.85-3.42,4V122.6c0,2.19,1.5,4,3.42,4h15.55Z"/></g></g></g></g><path class="cls-2" d="M475.46,101v4.62H474V95h3.86a4.05,4.05,0,0,1,2.67.78,2.78,2.78,0,0,1,.92,2.26,2.41,2.41,0,0,1-.43,1.43,2.9,2.9,0,0,1-1.25,1,2.18,2.18,0,0,1,1.26.93,3,3,0,0,1,.38,1.59v1a3.3,3.3,0,0,0,.11.89,1.32,1.32,0,0,0,.38.64v.18h-1.49a1.19,1.19,0,0,1-.37-.73,6.05,6.05,0,0,1-.08-1v-1a1.93,1.93,0,0,0-.51-1.39,1.79,1.79,0,0,0-1.36-.53Zm0-1.14h2.27a2.68,2.68,0,0,0,1.76-.46A1.77,1.77,0,0,0,480,98a1.82,1.82,0,0,0-.52-1.39,2.31,2.31,0,0,0-1.63-.49h-2.42Z"/><path class="cls-2" d="M490.29,100.69H485.4v3.81H491v1.14H484V95h7v1.14H485.4v3.45h4.88Z"/><path class="cls-2" d="M498.54,102.95a1.57,1.57,0,0,0-.55-1.22,4.64,4.64,0,0,0-1.95-.83,6.45,6.45,0,0,1-2.64-1.19,2.46,2.46,0,0,1-.95-2,2.59,2.59,0,0,1,1-2.08,4,4,0,0,1,2.65-.84,3.94,3.94,0,0,1,2.79,1,2.83,2.83,0,0,1,1,2.23v0h-1.38a2,2,0,0,0-.62-1.52,3,3,0,0,0-3.43-.09,1.59,1.59,0,0,0-.58,1.27,1.4,1.4,0,0,0,.62,1.16,5.91,5.91,0,0,0,2,.82,5.77,5.77,0,0,1,2.56,1.23,2.63,2.63,0,0,1,.88,2,2.46,2.46,0,0,1-1.05,2.07,4.5,4.5,0,0,1-2.75.78,4.77,4.77,0,0,1-2.82-.87,2.62,2.62,0,0,1-1.19-2.32v0h1.38a1.79,1.79,0,0,0,.75,1.56,3.15,3.15,0,0,0,1.87.53,2.91,2.91,0,0,0,1.73-.46A1.46,1.46,0,0,0,498.54,102.95Z"/><path class="cls-2" d="M509.3,96.11h-3.43v9.53h-1.44V96.11H501V95h8.29Z"/><path class="cls-2" d="M520.38,102.89h-4.47l-1,2.75h-1.47L517.55,95h1.24l4.06,10.66h-1.47Zm-4-1.21h3.59l-1.76-4.86h0Z"/><path class="cls-2" d="M525.75,101.36v4.28h-1.44V95h4.08a3.74,3.74,0,0,1,2.65.88,3.32,3.32,0,0,1,0,4.64,3.77,3.77,0,0,1-2.65.87Zm0-1.14h2.64A2.11,2.11,0,0,0,530,96.7a2.07,2.07,0,0,0-1.61-.59h-2.64Z"/><path class="cls-2" d="M535.44,105.63H534V95h1.45Z"/><path class="cls-4" d="M674.34,172v0a3.22,3.22,0,0,1-1.05,2.52,4,4,0,0,1-2.86,1,3.76,3.76,0,0,1-2.95-1.28,4.72,4.72,0,0,1-1.14-3.25v-1.9a4.73,4.73,0,0,1,1.14-3.25,3.76,3.76,0,0,1,2.95-1.29,4.14,4.14,0,0,1,2.88,1,3.18,3.18,0,0,1,1,2.55v0H673a2.38,2.38,0,0,0-.66-1.77,2.54,2.54,0,0,0-1.86-.65,2.27,2.27,0,0,0-1.93,1,4,4,0,0,0-.72,2.42V171a4,4,0,0,0,.72,2.43,2.27,2.27,0,0,0,1.93,1,2.54,2.54,0,0,0,1.86-.65A2.39,2.39,0,0,0,673,172Z"/><path class="cls-4" d="M677.75,174.24h5v1.13h-6.49V164.71h1.44Z"/><path class="cls-4" d="M692.29,171a4.55,4.55,0,0,1-1.21,3.25,4.12,4.12,0,0,1-3.15,1.29,3.91,3.91,0,0,1-3-1.29,4.65,4.65,0,0,1-1.17-3.25v-1.9a4.66,4.66,0,0,1,1.17-3.24,3.9,3.9,0,0,1,3-1.3,4.12,4.12,0,0,1,3.15,1.29,4.57,4.57,0,0,1,1.21,3.25Zm-1.44-1.91a3.6,3.6,0,0,0-.79-2.4,2.64,2.64,0,0,0-2.12-.94,2.44,2.44,0,0,0-2,.94,3.72,3.72,0,0,0-.75,2.4V171a3.74,3.74,0,0,0,.75,2.42,2.44,2.44,0,0,0,2,.94,2.64,2.64,0,0,0,2.13-.93,3.63,3.63,0,0,0,.79-2.42Z"/><path class="cls-4" d="M702.24,164.71v7.23a3.24,3.24,0,0,1-1.13,2.67,4.53,4.53,0,0,1-3,.92,4.27,4.27,0,0,1-2.85-.93,3.29,3.29,0,0,1-1.09-2.66v-7.23h1.44v7.22a2.35,2.35,0,0,0,.69,1.83,2.6,2.6,0,0,0,1.82.63,2.84,2.84,0,0,0,1.92-.63,2.28,2.28,0,0,0,.73-1.83v-7.22Z"/><path class="cls-4" d="M704.6,175.38V164.71h3.27a4.38,4.38,0,0,1,4.63,4.61v1.46a4.37,4.37,0,0,1-4.63,4.6Zm1.44-9.53v8.39h1.83a2.94,2.94,0,0,0,2.33-1,3.64,3.64,0,0,0,.85-2.5V169.3a3.62,3.62,0,0,0-.85-2.48,2.94,2.94,0,0,0-2.33-1Z"/><path class="cls-4" d="M718.21,175.38V164.71h3.48a4.21,4.21,0,0,1,2.61.72,2.55,2.55,0,0,1,.95,2.16,2,2,0,0,1-.45,1.27,2.69,2.69,0,0,1-1.19.83,2.46,2.46,0,0,1,1.52.94,2.79,2.79,0,0,1,.55,1.72,2.72,2.72,0,0,1-.95,2.24,4,4,0,0,1-2.57.77Zm1.44-6.13H722a1.92,1.92,0,0,0,1.31-.44,1.78,1.78,0,0,0,0-2.53,2.5,2.5,0,0,0-1.57-.43h-2Zm0,1.14v3.86h2.5a2.24,2.24,0,0,0,1.53-.49,1.74,1.74,0,0,0,.55-1.38,2.17,2.17,0,0,0-.46-1.47,1.76,1.76,0,0,0-1.41-.53Z"/><path class="cls-4" d="M733.57,172.63h-4.47l-1,2.75h-1.47l4.12-10.66H732L736,175.38h-1.47Zm-4-1.21h3.59l-1.76-4.86h0Z"/><path class="cls-4" d="M743.32,172.69a1.57,1.57,0,0,0-.55-1.22,4.64,4.64,0,0,0-1.95-.83,6.46,6.46,0,0,1-2.64-1.19,2.46,2.46,0,0,1-.95-2,2.59,2.59,0,0,1,1-2.08,4,4,0,0,1,2.65-.84,3.94,3.94,0,0,1,2.79,1,2.83,2.83,0,0,1,1,2.23v0h-1.38a2,2,0,0,0-.62-1.52,3,3,0,0,0-3.43-.09,1.59,1.59,0,0,0-.58,1.27,1.4,1.4,0,0,0,.62,1.16,5.92,5.92,0,0,0,2,.82,5.77,5.77,0,0,1,2.56,1.23,2.63,2.63,0,0,1,.88,2,2.46,2.46,0,0,1-1.05,2.07,4.5,4.5,0,0,1-2.75.78,4.77,4.77,0,0,1-2.82-.87,2.62,2.62,0,0,1-1.19-2.32v0h1.38a1.79,1.79,0,0,0,.75,1.56,3.15,3.15,0,0,0,1.87.53,2.91,2.91,0,0,0,1.73-.46A1.45,1.45,0,0,0,743.32,172.69Z"/><path class="cls-4" d="M753.19,170.44H748.3v3.81h5.63v1.13h-7.08V164.71h7v1.13H748.3v3.45h4.88Z"/><path class="cls-4" d="M755.63,175.38V164.71h3.27a4.38,4.38,0,0,1,4.63,4.61v1.46a4.37,4.37,0,0,1-4.63,4.6Zm1.44-9.53v8.39h1.83a2.94,2.94,0,0,0,2.33-1,3.64,3.64,0,0,0,.85-2.5V169.3a3.62,3.62,0,0,0-.85-2.48,2.94,2.94,0,0,0-2.33-1Z"/><path class="cls-4" d="M621.1,190.63h-4.47l-1,2.75h-1.47l4.12-10.66h1.24l4.06,10.66H622.1Zm-4-1.21h3.59l-1.76-4.86h0Z"/><path class="cls-4" d="M628.7,193.38h-1.44v-9.26l-2.18,0v-1l3.63-.4Z"/><path class="cls-4" d="M639.78,189.31a4.78,4.78,0,0,1-.9,3.13,3.38,3.38,0,0,1-5,0,4.74,4.74,0,0,1-.92-3.13v-2.53a4.77,4.77,0,0,1,.91-3.13,3.36,3.36,0,0,1,5,0,4.76,4.76,0,0,1,.91,3.13Zm-1.44-2.84a3.57,3.57,0,0,0-.5-2.08,1.86,1.86,0,0,0-2.9,0,3.58,3.58,0,0,0-.5,2.08v3.12a3.58,3.58,0,0,0,.5,2.09,1.68,1.68,0,0,0,1.46.71,1.66,1.66,0,0,0,1.45-.7,3.64,3.64,0,0,0,.49-2.09Z"/><path class="cls-4" d="M653.72,193.38h-1.44v-4.71H647.1v4.71h-1.44V182.71h1.44v4.82h5.18v-4.82h1.44Z"/><path class="cls-4" d="M662.27,190.63H657.8l-1,2.75h-1.47l4.12-10.66h1.24l4.06,10.66h-1.47Zm-4-1.21h3.59l-1.76-4.86h0Z"/><path class="cls-4" d="M667.64,188.76v4.62H666.2V182.72h3.86a4.06,4.06,0,0,1,2.67.78,2.78,2.78,0,0,1,.92,2.26,2.41,2.41,0,0,1-.43,1.43,2.9,2.9,0,0,1-1.25,1,2.18,2.18,0,0,1,1.26.93,3,3,0,0,1,.38,1.59v1a3.34,3.34,0,0,0,.11.89,1.34,1.34,0,0,0,.38.64v.18h-1.49a1.19,1.19,0,0,1-.37-.73,6,6,0,0,1-.08-1v-1a1.93,1.93,0,0,0-.5-1.39,1.79,1.79,0,0,0-1.36-.53Zm0-1.14h2.27a2.68,2.68,0,0,0,1.76-.46,1.77,1.77,0,0,0,.54-1.42,1.82,1.82,0,0,0-.52-1.39,2.32,2.32,0,0,0-1.63-.49h-2.42Z"/><path class="cls-4" d="M678,182.71l3.4,8.66h0l3.4-8.66h1.85v10.66h-1.44v-4.22l.15-4.34h0l-3.46,8.56h-1l-3.44-8.54h0l.14,4.31v4.22h-1.44V182.71Z"/><path class="cls-4" d="M697.39,189a4.55,4.55,0,0,1-1.21,3.25,4.12,4.12,0,0,1-3.15,1.29,3.9,3.9,0,0,1-3-1.29,4.65,4.65,0,0,1-1.17-3.25v-1.9a4.66,4.66,0,0,1,1.17-3.24,3.89,3.89,0,0,1,3-1.3,4.12,4.12,0,0,1,3.15,1.29,4.57,4.57,0,0,1,1.21,3.25Zm-1.44-1.91a3.6,3.6,0,0,0-.79-2.4,2.64,2.64,0,0,0-2.12-.94,2.44,2.44,0,0,0-2,.94,3.72,3.72,0,0,0-.75,2.4V189a3.74,3.74,0,0,0,.75,2.42,2.44,2.44,0,0,0,2,.94,2.64,2.64,0,0,0,2.13-.93,3.63,3.63,0,0,0,.79-2.42Z"/><path class="cls-4" d="M707.61,193.38h-1.44L701,185.13h0v8.23h-1.44V182.71H701l5.13,8.23h0v-8.22h1.44Z"/><path class="cls-4" d="M713.3,188.13l2.78-5.42h1.65L714,189.63v3.75h-1.44v-3.85l-3.68-6.82h1.65Z"/><path class="cls-4" d="M730.46,190v0a3.22,3.22,0,0,1-1.05,2.52,4,4,0,0,1-2.86,1,3.76,3.76,0,0,1-2.95-1.28,4.71,4.71,0,0,1-1.14-3.25v-1.9a4.72,4.72,0,0,1,1.14-3.25,3.75,3.75,0,0,1,2.95-1.29,4.14,4.14,0,0,1,2.88,1,3.19,3.19,0,0,1,1,2.55v0h-1.38a2.39,2.39,0,0,0-.66-1.77,2.54,2.54,0,0,0-1.86-.65,2.27,2.27,0,0,0-1.93,1,4,4,0,0,0-.72,2.42V189a4,4,0,0,0,.72,2.43,2.27,2.27,0,0,0,1.93,1,2.54,2.54,0,0,0,1.86-.65,2.4,2.4,0,0,0,.66-1.79Z"/><path class="cls-4" d="M740.49,189a4.55,4.55,0,0,1-1.21,3.25,4.12,4.12,0,0,1-3.15,1.29,3.91,3.91,0,0,1-3-1.29,4.65,4.65,0,0,1-1.17-3.25v-1.9a4.66,4.66,0,0,1,1.17-3.24,3.9,3.9,0,0,1,3-1.3,4.12,4.12,0,0,1,3.15,1.29,4.57,4.57,0,0,1,1.21,3.25ZM739,187.09a3.6,3.6,0,0,0-.79-2.4,2.64,2.64,0,0,0-2.12-.94,2.44,2.44,0,0,0-2,.94,3.72,3.72,0,0,0-.75,2.4V189a3.74,3.74,0,0,0,.75,2.42,2.44,2.44,0,0,0,2,.94,2.64,2.64,0,0,0,2.13-.93A3.63,3.63,0,0,0,739,189Z"/><path class="cls-4" d="M750.71,193.38h-1.44l-5.13-8.25h0v8.23h-1.44V182.71h1.44l5.13,8.23h0v-8.22h1.44Z"/><path class="cls-4" d="M760.36,183.85h-3.43v9.53h-1.44v-9.53h-3.42v-1.13h8.29Z"/><path class="cls-4" d="M763.37,188.76v4.62h-1.44V182.72h3.86a4.06,4.06,0,0,1,2.67.78,2.78,2.78,0,0,1,.92,2.26,2.41,2.41,0,0,1-.43,1.43,2.9,2.9,0,0,1-1.25,1,2.18,2.18,0,0,1,1.26.93,3,3,0,0,1,.38,1.59v1a3.3,3.3,0,0,0,.11.89,1.32,1.32,0,0,0,.38.64v.18h-1.49a1.19,1.19,0,0,1-.37-.73,6.05,6.05,0,0,1-.08-1v-1a1.93,1.93,0,0,0-.51-1.39,1.79,1.79,0,0,0-1.36-.53Zm0-1.14h2.27a2.68,2.68,0,0,0,1.76-.46,1.77,1.77,0,0,0,.54-1.42,1.82,1.82,0,0,0-.52-1.39,2.31,2.31,0,0,0-1.63-.49h-2.42Z"/><path class="cls-4" d="M779.93,189a4.55,4.55,0,0,1-1.21,3.25,4.12,4.12,0,0,1-3.15,1.29,3.91,3.91,0,0,1-3-1.29,4.65,4.65,0,0,1-1.17-3.25v-1.9a4.66,4.66,0,0,1,1.17-3.24,3.9,3.9,0,0,1,3-1.3,4.12,4.12,0,0,1,3.15,1.29,4.57,4.57,0,0,1,1.21,3.25Zm-1.44-1.91a3.6,3.6,0,0,0-.79-2.4,2.64,2.64,0,0,0-2.12-.94,2.44,2.44,0,0,0-2,.94,3.72,3.72,0,0,0-.75,2.4V189a3.74,3.74,0,0,0,.75,2.42,2.44,2.44,0,0,0,2,.94,2.64,2.64,0,0,0,2.13-.93,3.63,3.63,0,0,0,.79-2.42Z"/><path class="cls-4" d="M783.53,192.24h5v1.13h-6.49V182.71h1.44Z"/><path class="cls-4" d="M791.63,192.24h5v1.13h-6.49V182.71h1.44Z"/><path class="cls-4" d="M804.62,188.44h-4.88v3.81h5.63v1.13h-7.08V182.71h7v1.13h-5.55v3.45h4.88Z"/><path class="cls-4" d="M808.5,188.76v4.62h-1.44V182.72h3.86a4.06,4.06,0,0,1,2.67.78,2.78,2.78,0,0,1,.92,2.26,2.41,2.41,0,0,1-.43,1.43,2.9,2.9,0,0,1-1.25,1,2.18,2.18,0,0,1,1.26.93,3,3,0,0,1,.38,1.59v1a3.3,3.3,0,0,0,.11.89,1.32,1.32,0,0,0,.38.64v.18h-1.49a1.19,1.19,0,0,1-.37-.73,6.05,6.05,0,0,1-.08-1v-1a1.93,1.93,0,0,0-.51-1.39,1.79,1.79,0,0,0-1.36-.53Zm0-1.14h2.27a2.68,2.68,0,0,0,1.76-.46,1.77,1.77,0,0,0,.54-1.42,1.82,1.82,0,0,0-.52-1.39,2.31,2.31,0,0,0-1.63-.49H808.5Z"/><path class="cls-5" d="M926.11,217.63h-4.47l-1,2.75h-1.47l4.12-10.66h1.24l4.06,10.66h-1.47Zm-4-1.21h3.59l-1.76-4.86h0Z"/><path class="cls-5" d="M938.11,220.38h-1.44l-5.13-8.25h0v8.23H930V209.71h1.44l5.13,8.23h0v-8.22h1.44Z"/><path class="cls-5" d="M946.66,217.63h-4.47l-1,2.75h-1.47l4.12-10.66h1.24l4.06,10.66h-1.47Zm-4-1.21h3.59l-1.76-4.86h0Z"/><path class="cls-5" d="M952,219.24h5v1.13h-6.49V209.71H952Z"/><path class="cls-5" d="M959.91,215.13l2.78-5.42h1.65l-3.74,6.91v3.75h-1.44v-3.85l-3.68-6.82h1.65Z"/><path class="cls-5" d="M973.16,210.85h-3.43v9.53h-1.44v-9.53h-3.42v-1.13h8.29Z"/><path class="cls-5" d="M976.25,220.38H974.8V209.71h1.45Z"/><path class="cls-5" d="M986.5,217v0a3.22,3.22,0,0,1-1.05,2.52,4,4,0,0,1-2.86,1,3.76,3.76,0,0,1-2.95-1.28,4.72,4.72,0,0,1-1.14-3.25v-1.9a4.73,4.73,0,0,1,1.14-3.25,3.76,3.76,0,0,1,2.95-1.29,4.14,4.14,0,0,1,2.88,1,3.19,3.19,0,0,1,1,2.55v0h-1.38a2.38,2.38,0,0,0-.66-1.77,2.54,2.54,0,0,0-1.86-.65,2.27,2.27,0,0,0-1.93,1,4,4,0,0,0-.72,2.42V216a4,4,0,0,0,.72,2.43,2.27,2.27,0,0,0,1.93,1,2.54,2.54,0,0,0,1.86-.65,2.39,2.39,0,0,0,.66-1.79Z"/><path class="cls-5" d="M994.27,217.69a1.57,1.57,0,0,0-.55-1.22,4.64,4.64,0,0,0-1.95-.83,6.46,6.46,0,0,1-2.64-1.19,2.46,2.46,0,0,1-.95-2,2.59,2.59,0,0,1,1-2.08,4,4,0,0,1,2.65-.84,3.94,3.94,0,0,1,2.79,1,2.83,2.83,0,0,1,1,2.23v0h-1.38a2,2,0,0,0-.62-1.52,3,3,0,0,0-3.43-.09,1.59,1.59,0,0,0-.58,1.27,1.4,1.4,0,0,0,.62,1.16,5.92,5.92,0,0,0,2,.82,5.77,5.77,0,0,1,2.56,1.23,2.63,2.63,0,0,1,.88,2,2.46,2.46,0,0,1-1.05,2.07,4.5,4.5,0,0,1-2.75.78,4.77,4.77,0,0,1-2.82-.87,2.62,2.62,0,0,1-1.19-2.32v0h1.38a1.79,1.79,0,0,0,.75,1.56,3.15,3.15,0,0,0,1.87.53,2.91,2.91,0,0,0,1.73-.46A1.45,1.45,0,0,0,994.27,217.69Z"/><path class="cls-4" d="M186.81,91.85h-4.47l-1,2.75h-1.47L184,83.93h1.24l4.06,10.66h-1.47Zm-4-1.21h3.59l-1.76-4.86h0Z"/><path class="cls-4" d="M190.74,94.6V83.93H194a4.38,4.38,0,0,1,4.63,4.61V90A4.37,4.37,0,0,1,194,94.6Zm1.44-9.53v8.39H194a2.94,2.94,0,0,0,2.33-1,3.65,3.65,0,0,0,.85-2.5V88.52a3.63,3.63,0,0,0-.85-2.48,2.94,2.94,0,0,0-2.33-1Z"/><path class="cls-4" d="M202.47,83.93l3.4,8.66h0l3.4-8.66h1.85V94.6h-1.44V90.38l.15-4.34h0l-3.46,8.56h-1L202,86.06h0l.14,4.31V94.6h-1.44V83.93Z"/><path class="cls-4" d="M215.32,94.6h-1.45V83.93h1.45Z"/><path class="cls-4" d="M226.1,94.6h-1.44l-5.13-8.25h0V94.6H218V83.93h1.44l5.13,8.23h0V83.93h1.44Z"/><path class="cls-4" d="M233.91,90.32V94.6h-1.44V83.93h4.08a3.75,3.75,0,0,1,2.65.88,3.32,3.32,0,0,1,0,4.64,3.77,3.77,0,0,1-2.65.87Zm0-1.14h2.64a2.11,2.11,0,0,0,1.61-3.52,2.07,2.07,0,0,0-1.61-.59h-2.64Z"/><path class="cls-4" d="M250.15,90.22a4.55,4.55,0,0,1-1.21,3.24,4.12,4.12,0,0,1-3.15,1.29,3.91,3.91,0,0,1-3-1.29,4.65,4.65,0,0,1-1.17-3.24v-1.9a4.66,4.66,0,0,1,1.17-3.24,3.9,3.9,0,0,1,3-1.3,4.12,4.12,0,0,1,3.15,1.29,4.57,4.57,0,0,1,1.21,3.25Zm-1.44-1.91a3.6,3.6,0,0,0-.79-2.4,2.64,2.64,0,0,0-2.12-.94,2.44,2.44,0,0,0-2,.94,3.72,3.72,0,0,0-.75,2.4v1.91a3.74,3.74,0,0,0,.75,2.42,2.44,2.44,0,0,0,2,.94,2.64,2.64,0,0,0,2.13-.93,3.63,3.63,0,0,0,.79-2.42Z"/><path class="cls-4" d="M253.75,90V94.6H252.3V83.94h3.86a4.05,4.05,0,0,1,2.67.78,2.78,2.78,0,0,1,.92,2.26,2.41,2.41,0,0,1-.43,1.43,2.9,2.9,0,0,1-1.25,1,2.18,2.18,0,0,1,1.26.93,3,3,0,0,1,.38,1.59v1a3.34,3.34,0,0,0,.11.89,1.34,1.34,0,0,0,.38.64v.18h-1.49a1.19,1.19,0,0,1-.37-.73,6.05,6.05,0,0,1-.08-1v-1a1.93,1.93,0,0,0-.51-1.39,1.79,1.79,0,0,0-1.35-.53Zm0-1.14H256a2.68,2.68,0,0,0,1.76-.46,1.76,1.76,0,0,0,.54-1.41,1.82,1.82,0,0,0-.52-1.39,2.31,2.31,0,0,0-1.63-.49h-2.42Z"/><path class="cls-4" d="M269.1,85.07h-3.43V94.6h-1.44V85.07h-3.42V83.93h8.29Z"/><path class="cls-4" d="M275.65,91.85h-4.47l-1,2.75H268.7l4.12-10.66h1.24l4.06,10.66h-1.47Zm-4-1.21h3.59l-1.76-4.86h0Z"/><path class="cls-4" d="M281,93.46h5V94.6h-6.49V83.93H281Z"/><path class="cls-4" d="M203.41,195.35h-4.47l-1,2.75h-1.47l4.12-10.66h1.24l4.06,10.66h-1.47Zm-4-1.21H203l-1.76-4.86h0Z"/><path class="cls-4" d="M208.79,193.82v4.28h-1.44V187.43h4.08a3.74,3.74,0,0,1,2.65.88,3.32,3.32,0,0,1,0,4.64,3.77,3.77,0,0,1-2.65.87Zm0-1.14h2.64a2.11,2.11,0,0,0,1.61-3.52,2.07,2.07,0,0,0-1.61-.59h-2.64Z"/><path class="cls-4" d="M218.48,198.09H217V187.43h1.45Z"/><path class="cls-4" d="M232.46,194.67v0a3.21,3.21,0,0,1-1.05,2.52,4,4,0,0,1-2.86,1,3.76,3.76,0,0,1-2.95-1.28,4.72,4.72,0,0,1-1.14-3.25v-1.9a4.73,4.73,0,0,1,1.14-3.26,3.76,3.76,0,0,1,2.95-1.29,4.14,4.14,0,0,1,2.88,1,3.19,3.19,0,0,1,1,2.55v0h-1.38a2.38,2.38,0,0,0-.66-1.77,2.53,2.53,0,0,0-1.86-.65,2.27,2.27,0,0,0-1.93,1,4,4,0,0,0-.72,2.42v1.91a4,4,0,0,0,.72,2.43,2.27,2.27,0,0,0,1.93,1,2.54,2.54,0,0,0,1.86-.65,2.4,2.4,0,0,0,.66-1.79Z"/><path class="cls-4" d="M235.87,197h5v1.14h-6.49V187.43h1.44Z"/><path class="cls-4" d="M244,198.09H242.6V187.43H244Z"/><path class="cls-4" d="M253.1,193.15h-4.88V197h5.63v1.14h-7.08V187.43h7v1.14h-5.55V192h4.88Z"/><path class="cls-4" d="M263.6,198.09h-1.44L257,189.85h0v8.23h-1.44V187.43H257l5.13,8.23h0v-8.22h1.44Z"/><path class="cls-4" d="M273.24,188.56h-3.43v9.53h-1.44v-9.53H265v-1.14h8.29Z"/><path class="cls-6" d="M269.2,137.76H200.6V127.1a2.17,2.17,0,0,1,2.16-2.16H267a2.17,2.17,0,0,1,2.16,2.16Zm-66.6-2h64.6V127.1a.17.17,0,0,0-.16-.16H202.77a.17.17,0,0,0-.16.16Z"/><path class="cls-6" d="M267,177.21H202.77A2.17,2.17,0,0,1,200.6,175V140.93h68.6V175A2.17,2.17,0,0,1,267,177.21ZM202.6,142.93V175a.17.17,0,0,0,.16.16H267a.17.17,0,0,0,.16-.16V142.93Z"/><rect class="cls-6" x="206.66" y="130.92" width="2.46" height="2"/><path class="cls-6" d="M222.93,154v-2.7l11.84,5.23v2.06l-11.84,5.24v-2.71l8.27-3.29,1.18-.24v-.08l-1.18-.28Z"/><path class="cls-6" d="M248.71,167.22H235.94v-2.14h12.77Z"/><path class="cls-6" d="M269.2,34.27H200.6V23.6a2.17,2.17,0,0,1,2.16-2.16H267a2.17,2.17,0,0,1,2.16,2.16Zm-66.6-2h64.6V23.6a.17.17,0,0,0-.16-.16H202.77a.17.17,0,0,0-.16.16Z"/><path class="cls-6" d="M267,73.72H202.77a2.17,2.17,0,0,1-2.16-2.16V37.44h68.6V71.55A2.17,2.17,0,0,1,267,73.72ZM202.6,39.44V71.55a.17.17,0,0,0,.16.16H267a.17.17,0,0,0,.16-.16V39.44Z"/><rect class="cls-6" x="206.66" y="27.42" width="2.46" height="2"/><rect class="cls-6" x="219.79" y="44.32" width="8.04" height="22.51"/><rect class="cls-6" x="230.88" y="53.85" width="8.04" height="12.98"/><rect class="cls-6" x="241.98" y="49.24" width="8.04" height="17.59"/><rect class="cls-2" x="323.99" y="111.89" width="320.59" height="2"/><polygon class="cls-2" points="330.62 121.07 331.98 119.6 324.76 112.89 331.98 106.17 330.62 104.71 321.82 112.89 330.62 121.07"/><polygon class="cls-2" points="637.95 121.07 636.59 119.6 643.81 112.89 636.59 106.17 637.95 104.71 646.75 112.89 637.95 121.07"/><rect class="cls-7" x="595.89" y="246.04" width="548.15" height="246.53" rx="30" ry="30"/><path class="cls-5" d="M1114,493.65h-5.46v-2.13H1114Zm-13.65,0h-5.46v-2.13h5.46Zm-13.65,0h-5.46v-2.13h5.46Zm-13.65,0h-5.46v-2.13h5.46Zm-13.65,0H1054v-2.13h5.46Zm-13.65,0h-5.46v-2.13h5.46Zm-13.65,0h-5.46v-2.13h5.46Zm-13.65,0H1013v-2.13h5.46Zm-13.65,0h-5.46v-2.13h5.46Zm-13.65,0h-5.46v-2.13h5.46Zm-13.65,0h-5.46v-2.13h5.46Zm-13.65,0h-5.46v-2.13h5.46Zm-13.65,0h-5.46v-2.13h5.46Zm-13.65,0h-5.46v-2.13h5.46Zm-13.65,0H917.5v-2.13H923Zm-13.65,0h-5.46v-2.13h5.46Zm-13.65,0H890.2v-2.13h5.46Zm-13.65,0h-5.46v-2.13H882Zm-13.65,0H862.9v-2.13h5.46Zm-13.65,0h-5.46v-2.13h5.46Zm-13.65,0h-5.46v-2.13h5.46Zm-13.65,0H822v-2.13h5.46Zm-13.65,0h-5.46v-2.13h5.46Zm-13.65,0h-5.46v-2.13h5.46Zm-13.65,0H781v-2.13h5.46Zm-13.65,0h-5.46v-2.13h5.46Zm-13.65,0h-5.46v-2.13h5.46Zm-13.65,0h-5.46v-2.13h5.46Zm-13.65,0h-5.46v-2.13h5.46Zm-13.65,0h-5.46v-2.13h5.46Zm-13.65,0h-5.46v-2.13h5.46Zm-13.65,0h-5.46v-2.13h5.46Zm-13.65,0h-5.46v-2.13h5.46Zm-13.65,0h-5.46v-2.13h5.46Zm-13.65,0h-5.46v-2.13H650Zm-13.65,0h-5.46v-2.13h5.46Zm-13.75-.17a31,31,0,0,1-5.53-1.11l.61-2a28.78,28.78,0,0,0,5.15,1Zm495.3-.06-.26-2.12a28.56,28.56,0,0,0,5.13-1.13l.65,2A30.8,30.8,0,0,1,1117.89,493.41Zm-508.53-4.55a31.65,31.65,0,0,1-4.48-3.43l1.45-1.57a29.36,29.36,0,0,0,4.17,3.2Zm521.67-.3-1.17-1.78a29.41,29.41,0,0,0,4.12-3.27l1.47,1.54A31.4,31.4,0,0,1,1131,488.55Zm-531.54-9.64a31.13,31.13,0,0,1-2.54-5l2-.78a29,29,0,0,0,2.36,4.7Zm541.23-.47-1.83-1.1a29.11,29.11,0,0,0,2.28-4.74l2,.75A31.08,31.08,0,0,1,1140.72,478.44ZM595,465.65c-.1-1-.15-2.05-.15-3.08v-2.48H597v2.49c0,1,0,1.92.14,2.86Zm550-.56-2.13-.17c.06-.77.1-1.56.1-2.34v-3h2.13v3C1145.1,463.42,1145.07,464.26,1145,465.1ZM597,451.9h-2.14v-5.46H597Zm548.15-.54H1143v-5.46h2.13ZM597,438.26h-2.14V432.8H597Zm548.15-.54H1143v-5.46h2.13ZM597,424.61h-2.14v-5.46H597Zm548.15-.54H1143v-5.46h2.13ZM597,411h-2.14V405.5H597Zm548.15-.54H1143V405h2.13ZM597,397.31h-2.14v-5.46H597Zm548.15-.54H1143v-5.46h2.13ZM597,383.66h-2.14V378.2H597Zm548.15-.54H1143v-5.46h2.13ZM597,370h-2.14v-5.46H597Zm548.15-.54H1143V364h2.13ZM597,356.37h-2.14v-5.46H597Zm548.15-.54H1143v-5.46h2.13ZM597,342.72h-2.14v-5.46H597Zm548.15-.54H1143v-5.46h2.13ZM597,329.07h-2.14v-5.46H597Zm548.15-.54H1143v-5.46h2.13ZM597,315.42h-2.14V310H597Zm548.15-.54H1143v-5.46h2.13ZM597,301.77h-2.14v-5.46H597Zm548.15-.54H1143v-5.46h2.13ZM597,288.12h-2.14v-5.46H597Zm548.15-.54H1143v-5.46h2.13ZM597,274.53l-2.13-.11a30.93,30.93,0,0,1,.81-5.59l2.08.5A28.74,28.74,0,0,0,597,274.53Zm545.9-.52a28.76,28.76,0,0,0-.84-5.19l2.07-.54a30.91,30.91,0,0,1,.91,5.57ZM600.61,262l-1.86-1a31.32,31.32,0,0,1,3.19-4.66l1.65,1.36A29.18,29.18,0,0,0,600.61,262Zm538.43-.45a29.15,29.15,0,0,0-3-4.28l1.62-1.39a31.32,31.32,0,0,1,3.27,4.6Zm-529.67-9.23-1.22-1.75a31.37,31.37,0,0,1,4.9-2.8l.89,1.94A29.16,29.16,0,0,0,609.37,252.32Zm520.75-.29a29.05,29.05,0,0,0-4.61-2.53l.85-2a31.18,31.18,0,0,1,4.95,2.72Zm-508.65-4.58-.33-2.11a34.49,34.49,0,0,1,4.74-.36h.86v2.13h-.88A28.88,28.88,0,0,0,621.47,247.45Zm496.46-.07a28.91,28.91,0,0,0-3.9-.26h-1.4V245h1.4a31,31,0,0,1,4.19.28Zm-13.49-.26H1099V245h5.46Zm-13.65,0h-5.46V245h5.46Zm-13.65,0h-5.46V245h5.46Zm-13.65,0H1058V245h5.46Zm-13.65,0h-5.46V245h5.46Zm-13.65,0h-5.46V245h5.46Zm-13.65,0h-5.46V245h5.46Zm-13.65,0h-5.46V245h5.46Zm-13.65,0H989.8V245h5.46Zm-13.65,0h-5.46V245h5.46Zm-13.65,0H962.5V245H968Zm-13.65,0h-5.46V245h5.46Zm-13.65,0H935.2V245h5.46Zm-13.65,0h-5.46V245H927Zm-13.65,0h-5.46V245h5.46Zm-13.65,0h-5.46V245h5.46Zm-13.65,0h-5.46V245h5.46Zm-13.65,0H867V245h5.46Zm-13.65,0h-5.46V245h5.46Zm-13.65,0h-5.46V245h5.46Zm-13.65,0H826V245h5.46Zm-13.65,0h-5.46V245h5.46Zm-13.65,0h-5.46V245h5.46Zm-13.65,0h-5.46V245h5.46Zm-13.65,0h-5.46V245h5.46Zm-13.65,0h-5.46V245h5.46Zm-13.65,0h-5.46V245h5.46Zm-13.65,0h-5.46V245h5.46Zm-13.65,0h-5.46V245h5.46Zm-13.65,0h-5.46V245h5.46Zm-13.65,0h-5.46V245H695Zm-13.65,0h-5.46V245h5.46Zm-13.65,0h-5.46V245h5.46Zm-13.65,0h-5.46V245H654Zm-13.65,0h-5.46V245h5.46Z"/><path class="cls-1" d="M1012.74,413.94v-1.62a3.22,3.22,0,0,0,3.21-3.21V380.22a3.22,3.22,0,0,0-3.21-3.21H983.87a3.22,3.22,0,0,0-3.21,3.21H979a4.84,4.84,0,0,1,4.83-4.83h28.87a4.84,4.84,0,0,1,4.83,4.83v28.89A4.84,4.84,0,0,1,1012.74,413.94Z"/><path class="cls-1" d="M1018.76,407.11v-1.62a3.22,3.22,0,0,0,3.21-3.21V373.39a3.22,3.22,0,0,0-3.21-3.21H989.89a3.22,3.22,0,0,0-3.21,3.21h-1.62a4.84,4.84,0,0,1,4.83-4.83h28.87a4.84,4.84,0,0,1,4.83,4.83v28.89A4.84,4.84,0,0,1,1018.76,407.11Z"/><path class="cls-1" d="M1006.64,420.48H977.77a4.84,4.84,0,0,1-4.83-4.83V386.76a4.84,4.84,0,0,1,4.83-4.83h28.87a4.84,4.84,0,0,1,4.83,4.83v28.89A4.84,4.84,0,0,1,1006.64,420.48Zm-28.87-36.93a3.22,3.22,0,0,0-3.21,3.21v28.89a3.22,3.22,0,0,0,3.21,3.21h28.87a3.22,3.22,0,0,0,3.21-3.21V386.76a3.22,3.22,0,0,0-3.21-3.21Z"/><path class="cls-1" d="M985.4,403.58h-4.26l-1,2.62h-1.4L982.7,396h1.18l3.87,10.17h-1.4Zm-3.83-1.15H985l-1.68-4.63h0Z"/><path class="cls-1" d="M990.52,402.12v4.08h-1.38V396H993a3.57,3.57,0,0,1,2.53.84,3.17,3.17,0,0,1,0,4.42,3.6,3.6,0,0,1-2.53.83Zm0-1.08H993a2,2,0,1,0,0-3.92h-2.51Z"/><path class="cls-1" d="M999.68,402.12v4.08h-1.38V396h3.89a3.57,3.57,0,0,1,2.53.84,3.17,3.17,0,0,1,0,4.42,3.6,3.6,0,0,1-2.53.83Zm0-1.08h2.51a2,2,0,1,0,0-3.92h-2.51Z"/><path class="cls-1" d="M1072.29,413.94v-1.62a3.22,3.22,0,0,0,3.21-3.21V380.22a3.22,3.22,0,0,0-3.21-3.21h-28.87a3.22,3.22,0,0,0-3.21,3.21h-1.62a4.84,4.84,0,0,1,4.83-4.83h28.87a4.84,4.84,0,0,1,4.83,4.83v28.89A4.84,4.84,0,0,1,1072.29,413.94Z"/><path class="cls-1" d="M1078.31,407.11v-1.62a3.22,3.22,0,0,0,3.21-3.21V373.39a3.22,3.22,0,0,0-3.21-3.21h-28.87a3.22,3.22,0,0,0-3.21,3.21h-1.62a4.84,4.84,0,0,1,4.83-4.83h28.87a4.84,4.84,0,0,1,4.83,4.83v28.89A4.84,4.84,0,0,1,1078.31,407.11Z"/><path class="cls-1" d="M1066.19,420.48h-28.87a4.84,4.84,0,0,1-4.83-4.83V386.76a4.84,4.84,0,0,1,4.83-4.83h28.87a4.84,4.84,0,0,1,4.83,4.83v28.89A4.84,4.84,0,0,1,1066.19,420.48Zm-28.87-36.93a3.22,3.22,0,0,0-3.21,3.21v28.89a3.22,3.22,0,0,0,3.21,3.21h28.87a3.22,3.22,0,0,0,3.21-3.21V386.76a3.22,3.22,0,0,0-3.21-3.21Z"/><path class="cls-1" d="M1044.94,403.58h-4.26l-1,2.62h-1.4l3.93-10.17h1.18l3.87,10.17h-1.4Zm-3.83-1.15h3.42l-1.68-4.63h0Z"/><path class="cls-1" d="M1050.07,402.12v4.08h-1.38V396h3.89a3.57,3.57,0,0,1,2.53.84,3.17,3.17,0,0,1,0,4.42,3.6,3.6,0,0,1-2.53.83Zm0-1.08h2.51a2,2,0,1,0,0-3.92h-2.51Z"/><path class="cls-1" d="M1059.23,402.12v4.08h-1.38V396h3.89a3.57,3.57,0,0,1,2.53.84,3.17,3.17,0,0,1,0,4.42,3.6,3.6,0,0,1-2.53.83Zm0-1.08h2.51a2,2,0,1,0,0-3.92h-2.51Z"/><path class="cls-1" d="M1012.74,354.7v-1.62a3.22,3.22,0,0,0,3.21-3.21V321a3.22,3.22,0,0,0-3.21-3.21H983.87a3.22,3.22,0,0,0-3.21,3.21H979a4.84,4.84,0,0,1,4.83-4.83h28.87a4.84,4.84,0,0,1,4.83,4.83v28.89A4.84,4.84,0,0,1,1012.74,354.7Z"/><path class="cls-1" d="M1018.76,347.86v-1.62A3.22,3.22,0,0,0,1022,343V314.15a3.22,3.22,0,0,0-3.21-3.21H989.89a3.22,3.22,0,0,0-3.21,3.21h-1.62a4.84,4.84,0,0,1,4.83-4.83h28.87a4.84,4.84,0,0,1,4.83,4.83V343A4.84,4.84,0,0,1,1018.76,347.86Z"/><path class="cls-1" d="M1006.64,361.24H977.77a4.84,4.84,0,0,1-4.83-4.83V327.52a4.84,4.84,0,0,1,4.83-4.83h28.87a4.84,4.84,0,0,1,4.83,4.83v28.89A4.84,4.84,0,0,1,1006.64,361.24ZM977.77,324.3a3.22,3.22,0,0,0-3.21,3.21v28.89a3.22,3.22,0,0,0,3.21,3.21h28.87a3.22,3.22,0,0,0,3.21-3.21V327.52a3.22,3.22,0,0,0-3.21-3.21Z"/><path class="cls-1" d="M985.4,344.34h-4.26l-1,2.62h-1.4l3.93-10.17h1.18L987.75,347h-1.4Zm-3.83-1.15H985l-1.68-4.63h0Z"/><path class="cls-1" d="M990.52,342.88V347h-1.38V336.8H993a3.57,3.57,0,0,1,2.53.84,3.17,3.17,0,0,1,0,4.42,3.6,3.6,0,0,1-2.53.83Zm0-1.08H993a2,2,0,1,0,0-3.92h-2.51Z"/><path class="cls-1" d="M999.68,342.88V347h-1.38V336.8h3.89a3.57,3.57,0,0,1,2.53.84,3.17,3.17,0,0,1,0,4.42,3.6,3.6,0,0,1-2.53.83Zm0-1.08h2.51a2,2,0,1,0,0-3.92h-2.51Z"/><path class="cls-1" d="M1072.29,354.7v-1.62a3.22,3.22,0,0,0,3.21-3.21V321a3.22,3.22,0,0,0-3.21-3.21h-28.87a3.22,3.22,0,0,0-3.21,3.21h-1.62a4.84,4.84,0,0,1,4.83-4.83h28.87a4.84,4.84,0,0,1,4.83,4.83v28.89A4.84,4.84,0,0,1,1072.29,354.7Z"/><path class="cls-1" d="M1078.31,347.86v-1.62a3.22,3.22,0,0,0,3.21-3.21V314.15a3.22,3.22,0,0,0-3.21-3.21h-28.87a3.22,3.22,0,0,0-3.21,3.21h-1.62a4.84,4.84,0,0,1,4.83-4.83h28.87a4.84,4.84,0,0,1,4.83,4.83V343A4.84,4.84,0,0,1,1078.31,347.86Z"/><path class="cls-1" d="M1066.19,361.24h-28.87a4.84,4.84,0,0,1-4.83-4.83V327.52a4.84,4.84,0,0,1,4.83-4.83h28.87a4.84,4.84,0,0,1,4.83,4.83v28.89A4.84,4.84,0,0,1,1066.19,361.24Zm-28.87-36.93a3.22,3.22,0,0,0-3.21,3.21v28.89a3.22,3.22,0,0,0,3.21,3.21h28.87a3.22,3.22,0,0,0,3.21-3.21V327.52a3.22,3.22,0,0,0-3.21-3.21Z"/><path class="cls-1" d="M1044.94,344.34h-4.26l-1,2.62h-1.4l3.93-10.17h1.18L1047.3,347h-1.4Zm-3.83-1.15h3.42l-1.68-4.63h0Z"/><path class="cls-1" d="M1050.07,342.88V347h-1.38V336.8h3.89a3.57,3.57,0,0,1,2.53.84,3.17,3.17,0,0,1,0,4.42,3.6,3.6,0,0,1-2.53.83Zm0-1.08h2.51a2,2,0,1,0,0-3.92h-2.51Z"/><path class="cls-1" d="M1059.23,342.88V347h-1.38V336.8h3.89a3.57,3.57,0,0,1,2.53.84,3.17,3.17,0,0,1,0,4.42,3.6,3.6,0,0,1-2.53.83Zm0-1.08h2.51a2,2,0,1,0,0-3.92h-2.51Z"/><path class="cls-6" d="M732.67,378a1,1,0,0,1-.66-1.75c4.82-4.24,7.27-8.43,7.27-12.46V331.53h-.48c-8.22,0-14.67-1.25-19.16-3.68-3.73-2-4.65-4.13-4.66-4.15a7.55,7.55,0,0,1-1.87,2.22,1,1,0,1,1-1.31-1.51,5.9,5.9,0,0,0,1.35-1.54,2,2,0,0,1,1.82-1.16,2,2,0,0,1,1.86,1.2s3.49,6.66,22.46,6.66a2,2,0,0,1,2,1.94v32.29c0,4.63-2.67,9.33-8,14A1,1,0,0,1,732.67,378Z"/><path class="cls-6" d="M740.23,372.75a1,1,0,0,1-.66-1.75c4.82-4.24,7.27-8.43,7.27-12.46V326.26c-8.41,0-15.06-1.2-19.64-3.68-3.73-2-4.65-4.13-4.66-4.15h0a7.66,7.66,0,0,1-1.87,2.22,1,1,0,1,1-1.32-1.51,5.9,5.9,0,0,0,1.35-1.54,2,2,0,0,1,1.82-1.16,2,2,0,0,1,1.86,1.21s3.49,6.66,22.46,6.66a2,2,0,0,1,2,1.95v32.29c0,4.63-2.67,9.33-7.95,14A1,1,0,0,1,740.23,372.75Z"/><path class="cls-6" d="M707.14,394.24a2,2,0,0,1-.79-.16c-2.61-1.1-25.51-11.12-25.51-24.66V337.13a2,2,0,0,1,2-2c18.93,0,22.44-6.64,22.47-6.71a2,2,0,0,1,1.82-1.16,2,2,0,0,1,1.86,1.21s3.49,6.66,22.46,6.66a2,2,0,0,1,2,1.95v32.29c0,13.89-24.48,24.23-25.52,24.66A2,2,0,0,1,707.14,394.24Zm0-64.94s-3.53,7.88-24.31,7.88v32.24c0,12.46,23.29,22.4,24.28,22.82a74.72,74.72,0,0,0,12.68-7c5.31-3.68,11.64-9.42,11.64-15.85V337.18C710.69,337.18,707.17,329.38,707.14,329.3Zm24.3,7.88h0Z"/><path class="cls-6" d="M690.45,367a4.46,4.46,0,1,1,4.46-4.46A4.46,4.46,0,0,1,690.45,367Zm0-6.92a2.46,2.46,0,1,0,2.46,2.46A2.46,2.46,0,0,0,690.45,360Z"/><path class="cls-6" d="M725.95,363.5h-32a1,1,0,0,1,0-2h32a1,1,0,0,1,0,2Z"/><path class="cls-6" d="M700.07,362.85a1,1,0,0,1-.71-1.71l15-15a1,1,0,0,1,1.41,1.41l-15,15A1,1,0,0,1,700.07,362.85Z"/><path class="cls-6" d="M715,379.11a1,1,0,0,1-.71-.29l-15-15a1,1,0,0,1,1.41-1.41l15,15a1,1,0,0,1-.71,1.71Z"/><path class="cls-6" d="M715.09,356.06a1,1,0,0,1-1-1v-7.23h-7.23a1,1,0,1,1,0-2h9.23v9.23A1,1,0,0,1,715.09,356.06Z"/><path class="cls-6" d="M720.13,369.34a1,1,0,0,1-.71-1.71l5.11-5.11-5.11-5.11a1,1,0,0,1,1.41-1.41l6.52,6.52L720.83,369A1,1,0,0,1,720.13,369.34Z"/><path class="cls-6" d="M716.09,379.17h-9.23a1,1,0,1,1,0-2h7.23v-7.23a1,1,0,1,1,2,0Z"/><path class="cls-4" d="M673.31,421.91h-4.47l-1,2.75h-1.47L670.49,414h1.24l4.06,10.66h-1.47Zm-4-1.21h3.59l-1.76-4.86h0Z"/><path class="cls-4" d="M677.25,424.65V414h3.27a4.38,4.38,0,0,1,4.63,4.61v1.46a4.37,4.37,0,0,1-4.63,4.6Zm1.44-9.53v8.39h1.83a2.94,2.94,0,0,0,2.33-1,3.65,3.65,0,0,0,.85-2.5v-1.47a3.63,3.63,0,0,0-.85-2.48,2.94,2.94,0,0,0-2.33-1Z"/><path class="cls-4" d="M694.66,421.23v0a3.22,3.22,0,0,1-1.05,2.52,4,4,0,0,1-2.86,1,3.76,3.76,0,0,1-2.95-1.28,4.72,4.72,0,0,1-1.14-3.25v-1.9a4.73,4.73,0,0,1,1.14-3.25,3.76,3.76,0,0,1,2.95-1.29,4.14,4.14,0,0,1,2.88,1,3.18,3.18,0,0,1,1,2.55v0h-1.38a2.38,2.38,0,0,0-.66-1.77,2.54,2.54,0,0,0-1.86-.65,2.27,2.27,0,0,0-1.93,1,4,4,0,0,0-.72,2.42v1.91a4,4,0,0,0,.72,2.43,2.27,2.27,0,0,0,1.93,1,2.54,2.54,0,0,0,1.86-.65,2.39,2.39,0,0,0,.66-1.79Z"/><path class="cls-4" d="M707.89,421.23v0a3.22,3.22,0,0,1-1.05,2.52,4,4,0,0,1-2.86,1,3.76,3.76,0,0,1-2.95-1.28,4.72,4.72,0,0,1-1.14-3.25v-1.9a4.73,4.73,0,0,1,1.14-3.25,3.76,3.76,0,0,1,2.95-1.29,4.14,4.14,0,0,1,2.88,1,3.18,3.18,0,0,1,1,2.55v0h-1.38a2.38,2.38,0,0,0-.66-1.77A2.54,2.54,0,0,0,704,415a2.27,2.27,0,0,0-1.93,1,4,4,0,0,0-.72,2.42v1.91a4,4,0,0,0,.72,2.43,2.27,2.27,0,0,0,1.93,1,2.54,2.54,0,0,0,1.86-.65,2.39,2.39,0,0,0,.66-1.79Z"/><path class="cls-4" d="M711.3,423.52h5v1.13h-6.49V414h1.44Z"/><path class="cls-4" d="M725.57,414v7.23a3.24,3.24,0,0,1-1.13,2.67,4.53,4.53,0,0,1-3,.92,4.27,4.27,0,0,1-2.85-.93,3.29,3.29,0,0,1-1.1-2.66V414H719v7.22a2.35,2.35,0,0,0,.69,1.83,2.6,2.6,0,0,0,1.82.63,2.84,2.84,0,0,0,1.92-.63,2.28,2.28,0,0,0,.73-1.83V414Z"/><path class="cls-4" d="M733.74,422a1.57,1.57,0,0,0-.55-1.22,4.64,4.64,0,0,0-1.95-.83,6.45,6.45,0,0,1-2.64-1.19,2.46,2.46,0,0,1-.95-2,2.59,2.59,0,0,1,1-2.08,4,4,0,0,1,2.65-.84,3.94,3.94,0,0,1,2.79,1,2.83,2.83,0,0,1,1,2.23v0h-1.38a2,2,0,0,0-.62-1.52,3,3,0,0,0-3.43-.09,1.58,1.58,0,0,0-.58,1.27,1.4,1.4,0,0,0,.62,1.16,5.92,5.92,0,0,0,2,.82,5.77,5.77,0,0,1,2.56,1.23,2.63,2.63,0,0,1,.88,2,2.46,2.46,0,0,1-1.05,2.07,4.5,4.5,0,0,1-2.75.78,4.77,4.77,0,0,1-2.82-.87,2.62,2.62,0,0,1-1.19-2.32v0h1.38a1.79,1.79,0,0,0,.75,1.56,3.15,3.15,0,0,0,1.87.53,2.91,2.91,0,0,0,1.73-.46A1.45,1.45,0,0,0,733.74,422Z"/><path class="cls-4" d="M744.5,415.12h-3.43v9.53h-1.44v-9.53h-3.42V414h8.29Z"/><path class="cls-4" d="M752.4,419.71h-4.88v3.81h5.63v1.13h-7.08V414h7v1.13h-5.55v3.45h4.88Z"/><path class="cls-4" d="M756.28,420v4.62h-1.44V414h3.86a4.06,4.06,0,0,1,2.67.78,2.78,2.78,0,0,1,.92,2.26,2.41,2.41,0,0,1-.43,1.43,2.9,2.9,0,0,1-1.25,1,2.18,2.18,0,0,1,1.26.93,3,3,0,0,1,.38,1.59v1a3.34,3.34,0,0,0,.11.89,1.34,1.34,0,0,0,.38.64v.18h-1.49a1.19,1.19,0,0,1-.37-.73,6,6,0,0,1-.08-1v-1a1.93,1.93,0,0,0-.5-1.39A1.79,1.79,0,0,0,759,420Zm0-1.14h2.27a2.68,2.68,0,0,0,1.76-.46,1.77,1.77,0,0,0,.54-1.42,1.82,1.82,0,0,0-.52-1.39,2.32,2.32,0,0,0-1.63-.49h-2.42Z"/><path class="cls-4" d="M951.22,443.91h-4.47l-1,2.75h-1.47L948.39,436h1.24l4.06,10.66h-1.47Zm-4-1.21h3.59L949,437.84h0Z"/><path class="cls-4" d="M956.59,442.38v4.28h-1.44V436h4.08a3.75,3.75,0,0,1,2.65.88,3.32,3.32,0,0,1,0,4.64,3.77,3.77,0,0,1-2.65.87Zm0-1.13h2.64a2.06,2.06,0,1,0,0-4.12h-2.64Z"/><path class="cls-4" d="M966.2,442.38v4.28h-1.44V436h4.08a3.75,3.75,0,0,1,2.65.88,3.32,3.32,0,0,1,0,4.64,3.77,3.77,0,0,1-2.65.87Zm0-1.13h2.64a2.06,2.06,0,1,0,0-4.12H966.2Z"/><path class="cls-4" d="M975.81,445.52h5v1.13h-6.49V436h1.44Z"/><path class="cls-4" d="M984,446.65h-1.45V436H984Z"/><path class="cls-4" d="M994.25,443.23v0a3.22,3.22,0,0,1-1.05,2.52,4,4,0,0,1-2.86,1,3.76,3.76,0,0,1-2.95-1.28,4.72,4.72,0,0,1-1.14-3.25v-1.9a4.73,4.73,0,0,1,1.14-3.25,3.76,3.76,0,0,1,2.95-1.29,4.14,4.14,0,0,1,2.88,1,3.18,3.18,0,0,1,1,2.55v0h-1.38a2.38,2.38,0,0,0-.66-1.77,2.54,2.54,0,0,0-1.86-.65,2.27,2.27,0,0,0-1.93,1,4,4,0,0,0-.72,2.42v1.91a4,4,0,0,0,.72,2.43,2.27,2.27,0,0,0,1.93,1,2.54,2.54,0,0,0,1.86-.65,2.39,2.39,0,0,0,.66-1.79Z"/><path class="cls-4" d="M1002,443.91h-4.47l-1,2.75H995L999.16,436h1.24l4.06,10.66H1003Zm-4-1.21h3.59l-1.76-4.86h0Z"/><path class="cls-4" d="M1013.14,437.12h-3.43v9.53h-1.44v-9.53h-3.42V436h8.29Z"/><path class="cls-4" d="M1016.23,446.65h-1.45V436h1.45Z"/><path class="cls-4" d="M1027,442.27a4.55,4.55,0,0,1-1.21,3.25,4.12,4.12,0,0,1-3.15,1.29,3.91,3.91,0,0,1-3-1.29,4.65,4.65,0,0,1-1.17-3.25v-1.9a4.66,4.66,0,0,1,1.17-3.24,3.9,3.9,0,0,1,3-1.3,4.12,4.12,0,0,1,3.15,1.29,4.57,4.57,0,0,1,1.21,3.25Zm-1.44-1.91a3.6,3.6,0,0,0-.79-2.4,2.64,2.64,0,0,0-2.12-.94,2.44,2.44,0,0,0-2,.94,3.72,3.72,0,0,0-.75,2.4v1.91a3.74,3.74,0,0,0,.75,2.42,2.44,2.44,0,0,0,2,.94,2.64,2.64,0,0,0,2.13-.93,3.63,3.63,0,0,0,.79-2.42Z"/><path class="cls-4" d="M1037.24,446.65h-1.44l-5.13-8.25h0v8.23h-1.44V436h1.44l5.13,8.23h0V436h1.44Z"/><path class="cls-4" d="M1049.41,444a1.57,1.57,0,0,0-.55-1.22,4.64,4.64,0,0,0-1.95-.83,6.46,6.46,0,0,1-2.64-1.19,2.46,2.46,0,0,1-.95-2,2.59,2.59,0,0,1,1-2.08,4,4,0,0,1,2.65-.84,3.94,3.94,0,0,1,2.79,1,2.83,2.83,0,0,1,1,2.23v0h-1.38a2,2,0,0,0-.62-1.52,3,3,0,0,0-3.43-.09,1.59,1.59,0,0,0-.57,1.27,1.4,1.4,0,0,0,.62,1.16,5.92,5.92,0,0,0,2,.82,5.77,5.77,0,0,1,2.56,1.23,2.63,2.63,0,0,1,.88,2,2.46,2.46,0,0,1-1.05,2.07,4.5,4.5,0,0,1-2.75.78,4.77,4.77,0,0,1-2.82-.87,2.62,2.62,0,0,1-1.19-2.32v0h1.38a1.79,1.79,0,0,0,.75,1.56,3.15,3.15,0,0,0,1.87.53,2.91,2.91,0,0,0,1.73-.46A1.45,1.45,0,0,0,1049.41,444Z"/><path class="cls-4" d="M1059.29,441.71h-4.89v3.81H1060v1.13H1053V436h7v1.13h-5.55v3.45h4.89Z"/><path class="cls-4" d="M1063.17,442v4.62h-1.44V436h3.86a4.05,4.05,0,0,1,2.67.78,2.78,2.78,0,0,1,.92,2.26,2.41,2.41,0,0,1-.43,1.43,2.9,2.9,0,0,1-1.25,1,2.18,2.18,0,0,1,1.26.93,3,3,0,0,1,.38,1.59v1a3.34,3.34,0,0,0,.11.89,1.34,1.34,0,0,0,.38.64v.18h-1.49a1.19,1.19,0,0,1-.37-.73,6.05,6.05,0,0,1-.08-1v-1a1.93,1.93,0,0,0-.51-1.39,1.79,1.79,0,0,0-1.35-.53Zm0-1.14h2.27a2.68,2.68,0,0,0,1.76-.46,1.77,1.77,0,0,0,.54-1.42,1.82,1.82,0,0,0-.52-1.39,2.31,2.31,0,0,0-1.63-.49h-2.42Z"/><path class="cls-4" d="M1074.69,444l.24.84h0l.24-.84,2.75-8h1.56l-4,10.66h-1.24l-4-10.66h1.57Z"/><path class="cls-4" d="M1082.53,446.65h-1.45V436h1.45Z"/><path class="cls-4" d="M1092.79,443.23v0a3.22,3.22,0,0,1-1.05,2.52,4,4,0,0,1-2.86,1,3.76,3.76,0,0,1-2.95-1.28,4.72,4.72,0,0,1-1.14-3.25v-1.9a4.73,4.73,0,0,1,1.14-3.25,3.76,3.76,0,0,1,2.95-1.29,4.14,4.14,0,0,1,2.88,1,3.18,3.18,0,0,1,1,2.55v0h-1.38a2.38,2.38,0,0,0-.66-1.77,2.54,2.54,0,0,0-1.86-.65,2.27,2.27,0,0,0-1.93,1,4,4,0,0,0-.72,2.42v1.91a4,4,0,0,0,.72,2.43,2.27,2.27,0,0,0,1.93,1,2.54,2.54,0,0,0,1.86-.65,2.39,2.39,0,0,0,.66-1.79Z"/><path class="cls-4" d="M1101.08,441.71h-4.89v3.81h5.63v1.13h-7.08V436h7v1.13h-5.55v3.45h4.89Z"/><path class="cls-4" d="M1109.32,444a1.57,1.57,0,0,0-.55-1.22,4.64,4.64,0,0,0-1.95-.83,6.46,6.46,0,0,1-2.64-1.19,2.46,2.46,0,0,1-.95-2,2.59,2.59,0,0,1,1-2.08,4,4,0,0,1,2.65-.84,3.94,3.94,0,0,1,2.79,1,2.83,2.83,0,0,1,1,2.23v0h-1.38a2,2,0,0,0-.62-1.52,3,3,0,0,0-3.43-.09,1.59,1.59,0,0,0-.57,1.27,1.4,1.4,0,0,0,.62,1.16,5.92,5.92,0,0,0,2,.82,5.77,5.77,0,0,1,2.56,1.23,2.63,2.63,0,0,1,.88,2,2.46,2.46,0,0,1-1.05,2.07,4.5,4.5,0,0,1-2.75.78,4.77,4.77,0,0,1-2.82-.87,2.62,2.62,0,0,1-1.19-2.32v0h1.38a1.79,1.79,0,0,0,.75,1.56,3.15,3.15,0,0,0,1.87.53,2.91,2.91,0,0,0,1.73-.46A1.45,1.45,0,0,0,1109.32,444Z"/><rect class="cls-8" x="743.33" y="359" width="217.65" height="2"/><rect class="cls-8" x="369" y="359" width="287.49" height="2"/><rect class="cls-2" x="713.84" y="202.67" width="2" height="103.91"/><rect class="cls-8" x="305.33" y="20.83" width="2.1" height="181.1"/><path class="cls-5" d="M759.25,345.08l0-2c65.87-.56,117.31-25.38,141.14-68.11,17.52-31.41,17-68.27-1.38-98.59C874.51,136,823.2,113.88,758.31,115.7l-.06-2c65.66-1.83,117.58,20.64,142.44,61.65C919.46,206.29,920,243.9,902.12,276,877.94,319.32,825.86,344.52,759.25,345.08Z"/><polygon class="cls-5" points="765.06 122.79 766.39 121.3 759.05 114.72 766.15 107.88 764.76 106.44 756.12 114.77 765.06 122.79"/><path class="cls-9" d="M250.26,412.33v7.23a3.24,3.24,0,0,1-1.13,2.67,4.53,4.53,0,0,1-3,.92,4.26,4.26,0,0,1-2.85-.93,3.29,3.29,0,0,1-1.1-2.66v-7.23h1.44v7.22a2.35,2.35,0,0,0,.69,1.83,2.59,2.59,0,0,0,1.82.63,2.83,2.83,0,0,0,1.92-.63,2.28,2.28,0,0,0,.73-1.83v-7.22Z"/><path class="cls-9" d="M258.43,420.31a1.57,1.57,0,0,0-.55-1.22,4.63,4.63,0,0,0-1.95-.83,6.44,6.44,0,0,1-2.64-1.19,2.46,2.46,0,0,1-.95-2,2.59,2.59,0,0,1,1-2.08,4,4,0,0,1,2.65-.84,3.94,3.94,0,0,1,2.79,1,2.83,2.83,0,0,1,1,2.23v0h-1.38a2,2,0,0,0-.62-1.52,3,3,0,0,0-3.43-.09,1.59,1.59,0,0,0-.58,1.27,1.4,1.4,0,0,0,.62,1.16,5.9,5.9,0,0,0,2,.82,5.77,5.77,0,0,1,2.56,1.23,2.63,2.63,0,0,1,.88,2,2.46,2.46,0,0,1-1.05,2.07,4.5,4.5,0,0,1-2.75.78,4.77,4.77,0,0,1-2.82-.87A2.62,2.62,0,0,1,252,420v0h1.38a1.79,1.79,0,0,0,.75,1.56,3.15,3.15,0,0,0,1.87.53,2.91,2.91,0,0,0,1.73-.46A1.46,1.46,0,0,0,258.43,420.31Z"/><path class="cls-9" d="M268.3,418h-4.88v3.81H269V423H262V412.33h7v1.14h-5.55v3.45h4.88Z"/><path class="cls-9" d="M272.19,418.37V423h-1.44V412.34h3.86a4.05,4.05,0,0,1,2.67.78,2.78,2.78,0,0,1,.92,2.26,2.41,2.41,0,0,1-.43,1.43,2.9,2.9,0,0,1-1.25,1,2.18,2.18,0,0,1,1.26.93,3,3,0,0,1,.38,1.59v1a3.3,3.3,0,0,0,.11.89,1.32,1.32,0,0,0,.38.64V423h-1.49a1.19,1.19,0,0,1-.37-.73,6.05,6.05,0,0,1-.08-1v-1a1.93,1.93,0,0,0-.51-1.39,1.79,1.79,0,0,0-1.36-.53Zm0-1.14h2.27a2.68,2.68,0,0,0,1.76-.46,1.77,1.77,0,0,0,.54-1.42,1.82,1.82,0,0,0-.52-1.39,2.31,2.31,0,0,0-1.63-.49h-2.42Z"/><path class="cls-9" d="M286.49,420.31a1.57,1.57,0,0,0-.55-1.22,4.63,4.63,0,0,0-1.95-.83,6.44,6.44,0,0,1-2.64-1.19,2.46,2.46,0,0,1-.95-2,2.59,2.59,0,0,1,1-2.08,4,4,0,0,1,2.65-.84,3.94,3.94,0,0,1,2.79,1,2.83,2.83,0,0,1,1,2.23v0h-1.38a2,2,0,0,0-.62-1.52,3,3,0,0,0-3.43-.09,1.59,1.59,0,0,0-.58,1.27,1.4,1.4,0,0,0,.62,1.16,5.9,5.9,0,0,0,2,.82,5.77,5.77,0,0,1,2.56,1.23,2.63,2.63,0,0,1,.88,2,2.46,2.46,0,0,1-1.05,2.07,4.5,4.5,0,0,1-2.75.78,4.77,4.77,0,0,1-2.82-.87,2.62,2.62,0,0,1-1.19-2.32v0h1.38a1.79,1.79,0,0,0,.75,1.56,3.15,3.15,0,0,0,1.87.53,2.91,2.91,0,0,0,1.73-.46A1.46,1.46,0,0,0,286.49,420.31Z"/><path class="cls-1" d="M237.14,388.85H223.39a1,1,0,1,1,0-2h13.74a1,1,0,0,1,0,2Z"/><path class="cls-1" d="M250.49,394.94H210a3.85,3.85,0,0,1-3.84-3.84V335.17a3.85,3.85,0,0,1,3.84-3.84h40.46a3.85,3.85,0,0,1,3.84,3.84V391.1A3.85,3.85,0,0,1,250.49,394.94ZM210,333.32a1.85,1.85,0,0,0-1.84,1.84V391.1a1.85,1.85,0,0,0,1.84,1.84h40.46a1.85,1.85,0,0,0,1.84-1.84V335.17a1.85,1.85,0,0,0-1.84-1.84Z"/><path class="cls-1" d="M248.3,382.47H212.23V338.23H248.3Zm-34.07-2H246.3V340.23H214.23Z"/><path class="cls-1" d="M190.48,394.94H170.41a3.06,3.06,0,0,1-3.05-3.05V351.48a3.06,3.06,0,0,1,3.05-3.05h20.07a3.06,3.06,0,0,1,3.05,3.05v40.41A3.06,3.06,0,0,1,190.48,394.94Zm-20.07-44.52a1.06,1.06,0,0,0-1.05,1.05v40.41a1.06,1.06,0,0,0,1.05,1.05h20.07a1.06,1.06,0,0,0,1.05-1.05V351.48a1.06,1.06,0,0,0-1.05-1.05Z"/><path class="cls-1" d="M187.74,380.73H173.15v-26h14.58Zm-12.58-2h10.58v-22H175.15Z"/><circle class="cls-1" cx="180.44" cy="387.48" r="2.45"/><path class="cls-1" d="M354,387.59H274.48V343.78a3.43,3.43,0,0,1,3.43-3.43h72.7a3.43,3.43,0,0,1,3.43,3.43Zm-77.56-2H352V343.78a1.43,1.43,0,0,0-1.43-1.43h-72.7a1.43,1.43,0,0,0-1.43,1.43Z"/><path class="cls-1" d="M359.08,394.94H269.44a3.43,3.43,0,0,1-3.43-3.43V385.9h96.5v5.62A3.43,3.43,0,0,1,359.08,394.94Zm-91.07-7v3.62a1.43,1.43,0,0,0,1.43,1.43h89.64a1.43,1.43,0,0,0,1.43-1.43V387.9Z"/><path class="cls-1" d="M297.3,386.88h33.92a0,0,0,0,1,0,0v1.21a2.17,2.17,0,0,1-2.17,2.17H299.47a2.17,2.17,0,0,1-2.17-2.17v-1.21A0,0,0,0,1,297.3,386.88Z"/></svg>