<svg id="Layer_1" data-name="Layer 1" xmlns="http://www.w3.org/2000/svg" viewBox="0 0 1250 532"><defs><style>.cls-1{fill:#e2f0f8;}.cls-2{fill:#0077c0;}.cls-3{fill:#17242d;}.cls-4{fill:#3fa1f2;}.cls-5{fill:#0075c9;}.cls-6{fill:#939596;}.cls-7{fill:#ed7c13;}.cls-8{fill:#787878;}</style></defs><title>SecureWebGateway_Deployment</title><rect class="cls-1" x="328.3" y="26.3" width="598.52" height="385.7" rx="30" ry="30"/><path class="cls-2" d="M896.82,413h-6.69v-2h6.69a29.37,29.37,0,0,0,4-.27l.27,2A31.39,31.39,0,0,1,896.82,413Zm-13.38,0h-6.69v-2h6.69Zm-13.38,0h-6.69v-2h6.69Zm-13.38,0H850v-2h6.69Zm-13.38,0h-6.69v-2h6.69Zm-13.38,0h-6.69v-2h6.69Zm-13.38,0h-6.69v-2h6.69Zm-13.38,0h-6.69v-2h6.69Zm-13.38,0h-6.69v-2h6.69Zm-13.38,0h-6.69v-2h6.69Zm-13.38,0h-6.69v-2h6.69Zm-13.38,0H743v-2h6.69Zm-13.38,0h-6.69v-2h6.69Zm-13.38,0h-6.69v-2h6.69Zm-13.38,0h-6.69v-2h6.69Zm-13.38,0h-6.69v-2h6.69Zm-13.38,0H676.1v-2h6.69Zm-13.38,0h-6.69v-2h6.69ZM656,413h-6.69v-2H656Zm-13.38,0H636v-2h6.69Zm-13.38,0h-6.69v-2h6.69Zm-13.38,0h-6.69v-2h6.69Zm-13.38,0h-6.69v-2h6.69Zm-13.38,0h-6.69v-2h6.69Zm-13.38,0h-6.69v-2h6.69Zm-13.38,0h-6.69v-2h6.69ZM549,413h-6.69v-2H549Zm-13.38,0H529v-2h6.69Zm-13.38,0h-6.69v-2h6.69Zm-13.38,0H502.2v-2h6.69Zm-13.38,0h-6.69v-2h6.69Zm-13.38,0h-6.69v-2h6.69Zm-13.38,0h-6.69v-2h6.69Zm-13.38,0H448.7v-2h6.69ZM442,413h-6.69v-2H442Zm-13.38,0h-6.69v-2h6.69Zm-13.38,0h-6.69v-2h6.69Zm-13.38,0h-6.69v-2h6.69Zm-13.38,0h-6.69v-2h6.69Zm-13.38,0h-6.69v-2h6.69Zm-13.38,0H358.3a31.55,31.55,0,0,1-3.34-.18l.21-2a29.6,29.6,0,0,0,3.13.17h3.44Zm-13.52-1.68a30.92,30.92,0,0,1-6.23-3l1.05-1.7a28.88,28.88,0,0,0,5.83,2.77Zm559.51-.3-.71-1.87a29,29,0,0,0,5.75-2.93l1.1,1.67A31,31,0,0,1,907.74,411Zm-571.17-6.91a31.16,31.16,0,0,1-4.35-5.35l1.68-1.08a29.16,29.16,0,0,0,4.07,5Zm582.6-.63-1.44-1.39a29.13,29.13,0,0,0,3.93-5.12l1.71,1A31.14,31.14,0,0,1,919.18,403.48Zm-590-10.89a30.85,30.85,0,0,1-1.61-6.7l2-.25A28.86,28.86,0,0,0,331,391.9Zm597.1-.85-1.9-.63a28.87,28.87,0,0,0,1.33-6.31l2,.19A30.85,30.85,0,0,1,926.26,391.74Zm-597-12.66h-2v-6.69h2Zm598.52-.87h-2v-6.69h2ZM329.3,365.7h-2V359h2Zm598.52-.87h-2v-6.69h2ZM329.3,352.33h-2v-6.69h2Zm598.52-.87h-2v-6.69h2ZM329.3,338.95h-2v-6.69h2Zm598.52-.87h-2v-6.69h2ZM329.3,325.57h-2v-6.69h2Zm598.52-.87h-2V318h2ZM329.3,312.2h-2v-6.69h2Zm598.52-.87h-2v-6.69h2ZM329.3,298.82h-2v-6.69h2Zm598.52-.87h-2v-6.69h2ZM329.3,285.44h-2v-6.69h2Zm598.52-.87h-2v-6.69h2ZM329.3,272.06h-2v-6.69h2Zm598.52-.87h-2v-6.69h2ZM329.3,258.69h-2V252h2Zm598.52-.87h-2v-6.69h2ZM329.3,245.31h-2v-6.69h2Zm598.52-.87h-2v-6.69h2ZM329.3,231.93h-2v-6.69h2Zm598.52-.87h-2v-6.69h2ZM329.3,218.56h-2v-6.69h2Zm598.52-.87h-2V211h2ZM329.3,205.18h-2v-6.69h2Zm598.52-.87h-2v-6.69h2ZM329.3,191.8h-2v-6.69h2Zm598.52-.87h-2v-6.69h2ZM329.3,178.43h-2v-6.69h2Zm598.52-.87h-2v-6.69h2ZM329.3,165.05h-2v-6.69h2Zm598.52-.87h-2v-6.69h2ZM329.3,151.67h-2V145h2Zm598.52-.87h-2v-6.69h2ZM329.3,138.3h-2v-6.69h2Zm598.52-.87h-2v-6.69h2ZM329.3,124.92h-2v-6.69h2Zm598.52-.87h-2v-6.69h2ZM329.3,111.54h-2v-6.69h2Zm598.52-.87h-2V104h2ZM329.3,98.17h-2V91.48h2Zm598.52-.87h-2V90.61h2ZM329.3,84.79h-2V78.1h2Zm598.52-.87h-2V77.23h2ZM329.3,71.41h-2V64.73h2Zm598.52-.87h-2V63.86h2ZM329.3,58h-2V56.3a31.36,31.36,0,0,1,.42-5.09l2,.33a29.33,29.33,0,0,0-.39,4.77Zm598.52-.87h-2V56.3a29.24,29.24,0,0,0-.54-5.59l2-.38a31.26,31.26,0,0,1,.58,6ZM331.45,45.33l-1.85-.76a31,31,0,0,1,3.31-6.05l1.64,1.15A29,29,0,0,0,331.45,45.33Zm591.89-.77A29,29,0,0,0,920.09,39l1.6-1.2a31,31,0,0,1,3.48,6ZM338.81,34.83l-1.34-1.48a31.12,31.12,0,0,1,5.58-4L344,31A29.12,29.12,0,0,0,338.81,34.83Zm576.87-.55a29.13,29.13,0,0,0-5.33-3.63l.94-1.77a31.17,31.17,0,0,1,5.7,3.88ZM350,28.52l-.57-1.92a31,31,0,0,1,6.79-1.23l.13,2A29,29,0,0,0,350,28.52Zm554.37-.23a29,29,0,0,0-6.38-1l.08-2a31,31,0,0,1,6.82,1Zm-13-1h-6.69v-2h6.69Zm-13.38,0h-6.69v-2h6.69Zm-13.38,0h-6.69v-2h6.69Zm-13.38,0H844.5v-2h6.69Zm-13.38,0h-6.69v-2h6.69Zm-13.38,0h-6.69v-2h6.69Zm-13.38,0h-6.69v-2h6.69Zm-13.38,0H791v-2h6.69Zm-13.38,0h-6.69v-2h6.69Zm-13.38,0h-6.69v-2h6.69Zm-13.38,0h-6.69v-2h6.69Zm-13.38,0h-6.69v-2h6.69Zm-13.38,0h-6.69v-2h6.69Zm-13.38,0h-6.69v-2h6.69ZM704,27.3h-6.69v-2H704Zm-13.38,0H684v-2h6.69Zm-13.38,0H670.6v-2h6.69Zm-13.38,0h-6.69v-2h6.69Zm-13.38,0h-6.69v-2h6.69Zm-13.38,0h-6.69v-2h6.69Zm-13.38,0h-6.69v-2h6.69Zm-13.38,0h-6.69v-2h6.69ZM597,27.3h-6.69v-2H597Zm-13.38,0H577v-2h6.69Zm-13.38,0h-6.69v-2h6.69Zm-13.38,0h-6.69v-2h6.69Zm-13.38,0h-6.69v-2h6.69Zm-13.38,0h-6.69v-2h6.69Zm-13.38,0h-6.69v-2h6.69Zm-13.38,0H496.7v-2h6.69ZM490,27.3h-6.69v-2H490Zm-13.38,0h-6.69v-2h6.69Zm-13.38,0h-6.69v-2h6.69Zm-13.38,0H443.2v-2h6.69Zm-13.38,0h-6.69v-2h6.69Zm-13.38,0h-6.69v-2h6.69Zm-13.38,0h-6.69v-2h6.69Zm-13.38,0h-6.69v-2h6.69ZM383,27.3h-6.69v-2H383Zm-13.38,0h-6.69v-2h6.69Z"/><path class="cls-3" d="M79.51,503.95l0,0a4,4,0,0,1-1.22,2.69,4.08,4.08,0,0,1-2.87,1,3.82,3.82,0,0,1-3.06-1.37,5.29,5.29,0,0,1-1.16-3.55v-1.85a5.31,5.31,0,0,1,1.16-3.55A3.81,3.81,0,0,1,75.44,496a4.13,4.13,0,0,1,2.88,1,3.94,3.94,0,0,1,1.21,2.7l0,0h-.87a3.53,3.53,0,0,0-1-2.16,3.09,3.09,0,0,0-2.22-.75A2.89,2.89,0,0,0,73,497.91a4.67,4.67,0,0,0-.9,3v1.86a4.69,4.69,0,0,0,.9,3,2.89,2.89,0,0,0,2.39,1.15,3.15,3.15,0,0,0,2.23-.73,3.45,3.45,0,0,0,1-2.19Z"/><path class="cls-3" d="M82.87,506.7h5.63v.8H81.93V496.13h.94Z"/><path class="cls-3" d="M91.5,507.5h-.94V496.13h.94Z"/><path class="cls-3" d="M101.09,502H95.62v4.71h6.27v.8h-7.2V496.13h7.16v.8H95.62v4.27h5.48Z"/><path class="cls-3" d="M112.28,507.5h-.93l-6.46-9.78h0v9.77h-.94V496.13h.94l6.46,9.77h0v-9.76h.93Z"/><path class="cls-3" d="M122.89,496.92H119V507.5H118V496.92h-3.91v-.8h8.77Z"/><path class="cls-3" d="M1123.36,464.5h-.94V453.13h.94Z"/><path class="cls-3" d="M1134.92,464.5H1134l-6.46-9.78h0v9.77h-.94V453.13h.94l6.46,9.77h0v-9.76h.93Z"/><path class="cls-3" d="M1145.53,453.92h-3.91V464.5h-.94V453.92h-3.91v-.8h8.77Z"/><path class="cls-3" d="M1153.79,459h-5.48v4.71h6.27v.8h-7.2V453.13h7.16v.8h-6.23v4.27h5.48Z"/><path class="cls-3" d="M1157.51,459.36v5.14h-.93V453.13h3.85a4.32,4.32,0,0,1,2.8.8,2.85,2.85,0,0,1,1,2.34,2.68,2.68,0,0,1-.52,1.62,3,3,0,0,1-1.48,1,2.48,2.48,0,0,1,1.52.95,3,3,0,0,1,.46,1.71v1.07a3.36,3.36,0,0,0,.13,1,1.48,1.48,0,0,0,.41.69v.19h-1a1.56,1.56,0,0,1-.41-.79,4.67,4.67,0,0,1-.12-1.05v-1a2.11,2.11,0,0,0-.68-1.65,2.73,2.73,0,0,0-1.89-.61Zm0-.8h2.8a3.37,3.37,0,0,0,2.25-.62,2.11,2.11,0,0,0,.71-1.68,2.15,2.15,0,0,0-.71-1.73,3.22,3.22,0,0,0-2.14-.61h-2.92Z"/><path class="cls-3" d="M1175.51,464.5h-.93l-6.46-9.78h0v9.77h-.94V453.13h.94l6.46,9.77h0v-9.76h.93Z"/><path class="cls-3" d="M1184.9,459h-5.48v4.71h6.27v.8h-7.2V453.13h7.16v.8h-6.23v4.27h5.48Z"/><path class="cls-3" d="M1195.34,453.92h-3.91V464.5h-.94V453.92h-3.91v-.8h8.77Z"/><path class="cls-3" d="M465.17,124.7h-1.45V114h1.45Z"/><path class="cls-3" d="M467.89,124.7V114h3.27a4.38,4.38,0,0,1,4.63,4.61v1.46a4.37,4.37,0,0,1-4.63,4.6Zm1.44-9.53v8.39h1.83a2.94,2.94,0,0,0,2.33-1,3.65,3.65,0,0,0,.85-2.5v-1.47a3.63,3.63,0,0,0-.85-2.48,2.94,2.94,0,0,0-2.33-1Z"/><path class="cls-3" d="M483.57,122a1.57,1.57,0,0,0-.55-1.22,4.64,4.64,0,0,0-1.95-.83,6.46,6.46,0,0,1-2.64-1.19,2.46,2.46,0,0,1-.95-2,2.59,2.59,0,0,1,1-2.08,4,4,0,0,1,2.65-.84,3.94,3.94,0,0,1,2.79,1,2.83,2.83,0,0,1,1,2.23v0h-1.38a2,2,0,0,0-.62-1.52,3,3,0,0,0-3.43-.09,1.58,1.58,0,0,0-.57,1.27,1.4,1.4,0,0,0,.62,1.16,5.92,5.92,0,0,0,2,.82,5.77,5.77,0,0,1,2.56,1.23,2.63,2.63,0,0,1,.88,2,2.46,2.46,0,0,1-1.05,2.07,4.5,4.5,0,0,1-2.75.78,4.77,4.77,0,0,1-2.82-.87,2.62,2.62,0,0,1-1.19-2.32v0h1.38a1.79,1.79,0,0,0,.75,1.56,3.15,3.15,0,0,0,1.87.53,2.91,2.91,0,0,0,1.73-.46A1.45,1.45,0,0,0,483.57,122Z"/><path class="cls-3" d="M487.15,125.62h-1.23L490.37,114h1.22Z"/><path class="cls-3" d="M499.12,122h-4.47l-1,2.75h-1.47L496.3,114h1.24l4.06,10.66h-1.47Zm-4-1.21h3.59l-1.76-4.86h0Z"/><path class="cls-3" d="M510.28,115.17h-3.43v9.53h-1.44v-9.53H502V114h8.29Z"/><path class="cls-3" d="M513.29,120.43v4.28h-1.44V114h4.08a3.75,3.75,0,0,1,2.65.88,3.32,3.32,0,0,1,0,4.64,3.77,3.77,0,0,1-2.65.87Zm0-1.13h2.64a2.06,2.06,0,1,0,0-4.12h-2.64Z"/><path class="cls-4" d="M1189.8,478h-76a30,30,0,0,1-10.26-58.26,20.48,20.48,0,0,1-1.72-8.24,20.72,20.72,0,0,1,30.4-18.35,39.22,39.22,0,0,1,73.45,19.19c0,.28,0,.55,0,.83A34.35,34.35,0,0,1,1189.8,478Zm-67.28-85.26a18.77,18.77,0,0,0-18.75,18.76,18.55,18.55,0,0,0,2,8.38l.52,1-1.11.36a28,28,0,0,0,8.58,54.72h76a32.35,32.35,0,0,0,14.33-61.34l-.58-.29,0-.65c0-.51,0-.95,0-1.39A37.22,37.22,0,0,0,1133.44,395l-.49.93-.9-.54A18.7,18.7,0,0,0,1122.51,392.76Z"/><path class="cls-5" d="M352.17,377.28V366.61h3.27a4.38,4.38,0,0,1,4.63,4.61v1.46a4.37,4.37,0,0,1-4.63,4.6Zm1.44-9.53v8.39h1.83a2.94,2.94,0,0,0,2.33-1,3.65,3.65,0,0,0,.85-2.5V371.2a3.63,3.63,0,0,0-.85-2.48,2.94,2.94,0,0,0-2.33-1Z"/><path class="cls-5" d="M368.38,372.33h-4.89v3.81h5.63v1.14h-7.08V366.61h7v1.14h-5.55v3.45h4.89Z"/><path class="cls-5" d="M378.35,373.86v0a3.21,3.21,0,0,1-1.05,2.52,4,4,0,0,1-2.86,1,3.76,3.76,0,0,1-2.95-1.28,4.71,4.71,0,0,1-1.14-3.25V371a4.73,4.73,0,0,1,1.14-3.26,3.76,3.76,0,0,1,2.95-1.29,4.14,4.14,0,0,1,2.88,1,3.18,3.18,0,0,1,1,2.55v0H377a2.38,2.38,0,0,0-.66-1.77,2.53,2.53,0,0,0-1.86-.65,2.27,2.27,0,0,0-1.93,1,4,4,0,0,0-.72,2.42v1.91a4,4,0,0,0,.72,2.43,2.27,2.27,0,0,0,1.93,1,2.54,2.54,0,0,0,1.86-.65,2.4,2.4,0,0,0,.66-1.79Z"/><path class="cls-5" d="M381.76,372.66v4.62h-1.44V366.62h3.86a4.05,4.05,0,0,1,2.67.78,2.78,2.78,0,0,1,.92,2.26,2.41,2.41,0,0,1-.43,1.43,2.9,2.9,0,0,1-1.25,1,2.18,2.18,0,0,1,1.26.93,3,3,0,0,1,.38,1.59v1a3.34,3.34,0,0,0,.11.89,1.34,1.34,0,0,0,.38.64v.18h-1.49a1.19,1.19,0,0,1-.37-.73,6.05,6.05,0,0,1-.08-1v-1a1.93,1.93,0,0,0-.51-1.39,1.79,1.79,0,0,0-1.35-.53Zm0-1.14H384a2.68,2.68,0,0,0,1.76-.46,1.76,1.76,0,0,0,.54-1.41,1.82,1.82,0,0,0-.52-1.39,2.31,2.31,0,0,0-1.63-.49h-2.42Z"/><path class="cls-5" d="M393.16,372l2.78-5.42h1.65l-3.74,6.91v3.75h-1.44v-3.85l-3.68-6.82h1.65Z"/><path class="cls-5" d="M400.5,373v4.28h-1.44V366.61h4.08a3.75,3.75,0,0,1,2.65.88,3.32,3.32,0,0,1,0,4.64,3.77,3.77,0,0,1-2.65.87Zm0-1.14h2.64a2.11,2.11,0,0,0,1.61-3.52,2.07,2.07,0,0,0-1.61-.59H400.5Z"/><path class="cls-5" d="M415.89,367.75h-3.43v9.53H411v-9.53H407.6v-1.14h8.29Z"/><path class="cls-5" d="M353.19,394.14h6v1.14h-7.59V394.2l5.7-8.45h-5.62v-1.14h7.27v1Z"/><path class="cls-5" d="M369,390.9a4.55,4.55,0,0,1-1.21,3.24,4.12,4.12,0,0,1-3.15,1.29,3.91,3.91,0,0,1-3-1.29,4.65,4.65,0,0,1-1.17-3.24V389a4.66,4.66,0,0,1,1.17-3.24,3.9,3.9,0,0,1,3-1.3,4.12,4.12,0,0,1,3.15,1.29A4.57,4.57,0,0,1,369,389ZM367.58,389a3.6,3.6,0,0,0-.79-2.4,2.64,2.64,0,0,0-2.12-.94,2.44,2.44,0,0,0-2,.94,3.72,3.72,0,0,0-.75,2.4v1.91a3.74,3.74,0,0,0,.75,2.42,2.44,2.44,0,0,0,2,.94,2.64,2.64,0,0,0,2.13-.93,3.63,3.63,0,0,0,.79-2.42Z"/><path class="cls-5" d="M379.24,395.28H377.8L372.66,387h0v8.23h-1.44V384.61h1.44l5.13,8.23h0v-8.22h1.44Z"/><path class="cls-5" d="M388.21,390.33h-4.89v3.81H389v1.14h-7.08V384.61h7v1.14h-5.55v3.45h4.89Z"/><path class="cls-3" d="M723,124.7V114h3.27a4.38,4.38,0,0,1,4.63,4.61v1.46a4.37,4.37,0,0,1-4.63,4.6Zm1.44-9.53v8.39h1.83a2.94,2.94,0,0,0,2.33-1,3.65,3.65,0,0,0,.85-2.5v-1.47a3.63,3.63,0,0,0-.85-2.48,2.94,2.94,0,0,0-2.33-1Z"/><path class="cls-3" d="M734.37,123.57h5v1.13h-6.49V114h1.44Z"/><path class="cls-3" d="M742.47,120.43v4.28H741V114h4.08a3.75,3.75,0,0,1,2.65.88,3.32,3.32,0,0,1,0,4.64,3.77,3.77,0,0,1-2.65.87Zm0-1.13h2.64a2.06,2.06,0,1,0,0-4.12h-2.64Z"/><path class="cls-3" d="M750.66,125.62h-1.23L753.89,114h1.22Z"/><path class="cls-3" d="M762.64,122h-4.47l-1,2.75h-1.47L759.81,114H761l4.06,10.66h-1.47Zm-4-1.21h3.59l-1.76-4.86h0Z"/><path class="cls-3" d="M769.74,122.05l.24.84h0l.24-.84,2.75-8h1.56l-4,10.66h-1.24l-4-10.66H767Z"/><path class="cls-3" d="M594.23,275.86h-1.45V265.19h1.45Z"/><path class="cls-3" d="M598.39,271.58v4.28h-1.44V265.19H601a3.75,3.75,0,0,1,2.65.88,3.32,3.32,0,0,1,0,4.64,3.77,3.77,0,0,1-2.65.87Zm0-1.13H601a2.06,2.06,0,1,0,0-4.12h-2.64Z"/><path class="cls-3" d="M612.37,273.17a1.57,1.57,0,0,0-.55-1.22,4.64,4.64,0,0,0-1.95-.83,6.46,6.46,0,0,1-2.64-1.19,2.46,2.46,0,0,1-.95-2,2.59,2.59,0,0,1,1-2.08,4,4,0,0,1,2.65-.84,3.94,3.94,0,0,1,2.79,1,2.83,2.83,0,0,1,1,2.23v0h-1.38a2,2,0,0,0-.62-1.52,3,3,0,0,0-3.43-.09,1.58,1.58,0,0,0-.57,1.27,1.4,1.4,0,0,0,.62,1.16,5.92,5.92,0,0,0,2,.82,5.77,5.77,0,0,1,2.56,1.23,2.63,2.63,0,0,1,.88,2,2.46,2.46,0,0,1-1.05,2.07A4.5,4.5,0,0,1,610,276a4.77,4.77,0,0,1-2.82-.87,2.62,2.62,0,0,1-1.19-2.32v0h1.38a1.79,1.79,0,0,0,.75,1.56,3.15,3.15,0,0,0,1.87.53,2.91,2.91,0,0,0,1.73-.46A1.45,1.45,0,0,0,612.37,273.17Z"/><path class="cls-3" d="M615.94,276.77h-1.23l4.45-11.58h1.22Z"/><path class="cls-3" d="M630.2,275.86h-1.44l-5.13-8.25h0v8.23h-1.44V265.19h1.44l5.13,8.23h0v-8.22h1.44Z"/><path class="cls-3" d="M640.56,274.44a3.41,3.41,0,0,1-1.32,1.08,5.26,5.26,0,0,1-2.44.49,4.33,4.33,0,0,1-3.16-1.22,4.23,4.23,0,0,1-1.25-3.16v-2.2a4.4,4.4,0,0,1,1.16-3.16,4,4,0,0,1,3-1.22,4.27,4.27,0,0,1,2.88.9,3,3,0,0,1,1.07,2.32v0h-1.38a2.24,2.24,0,0,0-.71-1.53,2.61,2.61,0,0,0-1.85-.6,2.42,2.42,0,0,0-2,.92,3.55,3.55,0,0,0-.75,2.32v2.21a3.34,3.34,0,0,0,.83,2.34,2.74,2.74,0,0,0,2.12.92,3.89,3.89,0,0,0,1.49-.24,2.08,2.08,0,0,0,.83-.55v-2.42h-2.34v-1.13h3.78Z"/><path class="cls-3" d="M649.37,271.14H644.5v4.72h-1.44V265.19h7.05v1.13H644.5V270h4.86Z"/><path class="cls-3" d="M653.94,272.17l.2,1.33h0l.29-1.34,2-7h1.27l2,7,.29,1.37h0l.21-1.37,1.59-7h1.44l-2.57,10.66h-1.29l-2.1-7.4-.19-1h0l-.18,1-2.14,7.4h-1.29l-2.56-10.66h1.44Z"/><path class="cls-6" d="M721.17,252.69h-5.72v-1a6.71,6.71,0,0,0-6.69-6.71H543.44a6.71,6.71,0,0,0-6.69,6.71v1h-4.14c-2.78,0-5,2-5,4.35v26.12c0,2.4,2.26,4.35,5,4.35h4.14v2.43a6.71,6.71,0,0,0,6.69,6.71H708.76a6.71,6.71,0,0,0,6.69-6.71v-2.43h5.72c2.78,0,5-2,5-4.35V257C726.21,254.65,723.95,252.69,721.17,252.69ZM536.62,285.52h-4c-1.65,0-3-1.08-3-2.35V257c0-1.28,1.4-2.35,3-2.35h4Zm176.83,4.43a4.71,4.71,0,0,1-4.69,4.71H543.44a4.71,4.71,0,0,1-4.69-4.71V251.71a4.71,4.71,0,0,1,4.69-4.71H708.76a4.71,4.71,0,0,1,4.69,4.71Zm10.76-6.78c0,1.28-1.4,2.35-3,2.35h-5.44V254.69h5.44c1.65,0,3,1.08,3,2.35Z"/><path class="cls-3" d="M567.42,493.11h-4.47l-1,2.75h-1.47l4.12-10.66h1.24l4.06,10.66h-1.47Zm-4-1.21H567L565.23,487h0Z"/><path class="cls-3" d="M575,495.86h-1.44V486.6l-2.18,0v-1l3.63-.4Z"/><path class="cls-3" d="M586.09,491.79a4.78,4.78,0,0,1-.9,3.13,3.38,3.38,0,0,1-5,0,4.74,4.74,0,0,1-.92-3.13v-2.53a4.77,4.77,0,0,1,.91-3.13,3.36,3.36,0,0,1,5,0,4.76,4.76,0,0,1,.91,3.13ZM584.65,489a3.57,3.57,0,0,0-.5-2.08,1.86,1.86,0,0,0-2.9,0,3.58,3.58,0,0,0-.5,2.08v3.12a3.58,3.58,0,0,0,.51,2.09,1.68,1.68,0,0,0,1.46.71,1.66,1.66,0,0,0,1.45-.7,3.64,3.64,0,0,0,.49-2.09Z"/><path class="cls-3" d="M599.2,486.33h-3.43v9.53h-1.44v-9.53h-3.42v-1.13h8.29Z"/><path class="cls-3" d="M608.83,495.86h-1.44v-4.71h-5.18v4.71h-1.44V485.19h1.44V490h5.18v-4.82h1.44Z"/><path class="cls-3" d="M619.26,485.19v7.23a3.24,3.24,0,0,1-1.13,2.67,4.53,4.53,0,0,1-3,.92,4.27,4.27,0,0,1-2.85-.93,3.29,3.29,0,0,1-1.1-2.66v-7.23h1.44v7.22a2.35,2.35,0,0,0,.69,1.83,2.6,2.6,0,0,0,1.82.63,2.84,2.84,0,0,0,1.92-.63,2.28,2.28,0,0,0,.73-1.83v-7.22Z"/><path class="cls-3" d="M629.68,495.86h-1.44l-5.13-8.25h0v8.23h-1.44V485.19h1.44l5.13,8.23h0v-8.22h1.44Z"/><path class="cls-3" d="M632.32,495.86V485.19h3.27a4.38,4.38,0,0,1,4.63,4.61v1.46a4.37,4.37,0,0,1-4.63,4.6Zm1.44-9.53v8.39h1.83a2.94,2.94,0,0,0,2.33-1,3.65,3.65,0,0,0,.85-2.5v-1.47a3.63,3.63,0,0,0-.85-2.48,2.94,2.94,0,0,0-2.33-1Z"/><path class="cls-3" d="M648.53,490.91h-4.88v3.81h5.63v1.13H642.2V485.19h7v1.13h-5.55v3.45h4.88Z"/><path class="cls-3" d="M652.41,491.24v4.62H651V485.2h3.86a4.06,4.06,0,0,1,2.67.78,2.78,2.78,0,0,1,.92,2.26,2.41,2.41,0,0,1-.43,1.43,2.9,2.9,0,0,1-1.25,1,2.18,2.18,0,0,1,1.26.93,3,3,0,0,1,.38,1.59v1a3.34,3.34,0,0,0,.11.89,1.34,1.34,0,0,0,.38.64v.18H657.4a1.19,1.19,0,0,1-.37-.73,6,6,0,0,1-.08-1v-1a1.93,1.93,0,0,0-.5-1.39,1.79,1.79,0,0,0-1.36-.53Zm0-1.14h2.27a2.68,2.68,0,0,0,1.76-.46,1.77,1.77,0,0,0,.54-1.42,1.82,1.82,0,0,0-.52-1.39,2.32,2.32,0,0,0-1.63-.49h-2.42Z"/><path class="cls-3" d="M672.17,492.44v0a3.22,3.22,0,0,1-1.05,2.52,4,4,0,0,1-2.86,1,3.76,3.76,0,0,1-2.95-1.28,4.71,4.71,0,0,1-1.14-3.25v-1.9a4.72,4.72,0,0,1,1.14-3.25,3.75,3.75,0,0,1,2.95-1.29,4.14,4.14,0,0,1,2.88,1,3.18,3.18,0,0,1,1,2.55v0h-1.38a2.38,2.38,0,0,0-.66-1.77,2.54,2.54,0,0,0-1.86-.65,2.27,2.27,0,0,0-1.93,1,4,4,0,0,0-.72,2.42v1.91a4,4,0,0,0,.72,2.43,2.27,2.27,0,0,0,1.93,1,2.54,2.54,0,0,0,1.86-.65,2.39,2.39,0,0,0,.66-1.79Z"/><path class="cls-3" d="M680.44,491.14h-4.86v4.72h-1.44V485.19h7.05v1.13h-5.61V490h4.86Z"/><path class="cls-3" d="M685,492.17l.2,1.33h0l.29-1.34,2-7h1.27l2,7,.29,1.37h0l.21-1.37,1.59-7h1.44l-2.57,10.66h-1.29l-2.1-7.4-.19-1h0l-.18,1-2.14,7.4h-1.29l-2.56-10.66h1.44Z"/><path class="cls-6" d="M343.32,505.06H311.24a4.88,4.88,0,0,1-4.87-4.87V475.79a4.88,4.88,0,0,1,4.87-4.87h32.08a4.87,4.87,0,0,1,4.87,4.87V479a1,1,0,0,1-2,0v-3.18a2.87,2.87,0,0,0-2.87-2.87H311.24a2.87,2.87,0,0,0-2.87,2.87v24.39a2.87,2.87,0,0,0,2.87,2.87h32.08a2.87,2.87,0,0,0,2.87-2.87v-3.25a1,1,0,0,1,2,0v3.25A4.87,4.87,0,0,1,343.32,505.06Z"/><path class="cls-6" d="M339.53,472.52a1,1,0,0,1-1-1v-4.73a11.31,11.31,0,0,0-11.3-11.3h-.32a11.31,11.31,0,0,0-11.3,11.3v4.73a1,1,0,1,1-2,0v-4.73a13.32,13.32,0,0,1,13.3-13.3h.32a13.32,13.32,0,0,1,13.3,13.3v4.73A1,1,0,0,1,339.53,472.52Z"/><path class="cls-6" d="M342.52,499.07a11.12,11.12,0,1,1,7.86-3.25A11.09,11.09,0,0,1,342.52,499.07Zm0-20.23A9.12,9.12,0,1,0,349,481.5,9.09,9.09,0,0,0,342.52,478.84Z"/><path class="cls-6" d="M355.51,501.95a1,1,0,0,1-.71-.29L349,495.82a1,1,0,0,1,1.41-1.41l5.84,5.84a1,1,0,0,1-.71,1.71Z"/><path class="cls-6" d="M341.53,491.82a1,1,0,0,1-.71-.29L338,488.71a1,1,0,0,1,1.41-1.41l2.82,2.82a1,1,0,0,1-.71,1.71Z"/><path class="cls-6" d="M341.53,491.82a1,1,0,0,1-.71-1.71l5.66-5.66a1,1,0,0,1,1.41,1.41l-5.66,5.66A1,1,0,0,1,341.53,491.82Z"/><path class="cls-6" d="M937.32,505.06H905.24a4.88,4.88,0,0,1-4.87-4.87V475.79a4.88,4.88,0,0,1,4.87-4.87h32.08a4.88,4.88,0,0,1,4.87,4.87V479a1,1,0,1,1-2,0v-3.18a2.87,2.87,0,0,0-2.87-2.87H905.24a2.87,2.87,0,0,0-2.87,2.87v24.39a2.87,2.87,0,0,0,2.87,2.87h32.08a2.87,2.87,0,0,0,2.87-2.87v-3.25a1,1,0,0,1,2,0v3.25A4.88,4.88,0,0,1,937.32,505.06Z"/><path class="cls-6" d="M933.53,472.52a1,1,0,0,1-1-1v-4.73a11.31,11.31,0,0,0-11.3-11.3h-.32a11.32,11.32,0,0,0-11.3,11.3v4.73a1,1,0,0,1-2,0v-4.73a13.32,13.32,0,0,1,13.3-13.3h.32a13.32,13.32,0,0,1,13.3,13.3v4.73A1,1,0,0,1,933.53,472.52Z"/><path class="cls-6" d="M936.52,499.07a11.12,11.12,0,1,1,7.86-19h0a11.12,11.12,0,0,1-7.86,19Zm0-20.24A9.12,9.12,0,1,0,943,481.5h0A9.06,9.06,0,0,0,936.52,478.83Z"/><path class="cls-6" d="M949.51,501.95a1,1,0,0,1-.71-.29L943,495.82a1,1,0,0,1,1.41-1.41l5.84,5.84a1,1,0,0,1-.71,1.71Z"/><path class="cls-6" d="M935.53,491.82a1,1,0,0,1-.71-.29L932,488.71a1,1,0,0,1,1.41-1.41l2.82,2.82a1,1,0,0,1-.71,1.71Z"/><path class="cls-6" d="M935.53,491.82a1,1,0,0,1-.71-1.71l5.66-5.66a1,1,0,0,1,1.41,1.41l-5.66,5.66A1,1,0,0,1,935.53,491.82Z"/><path class="cls-6" d="M163.39,469.65H44.89V404.33a4.65,4.65,0,0,1,4.65-4.65H158.75a4.65,4.65,0,0,1,4.65,4.65Zm-116.51-2H161.39V404.33a2.65,2.65,0,0,0-2.65-2.65H49.53a2.65,2.65,0,0,0-2.65,2.65Z"/><path class="cls-6" d="M171.47,480.69H36.81A4.65,4.65,0,0,1,32.16,476v-7.93h144V476A4.65,4.65,0,0,1,171.47,480.69ZM34.16,470.11V476a2.65,2.65,0,0,0,2.65,2.65H171.47a2.65,2.65,0,0,0,2.65-2.65v-5.93Z"/><path class="cls-6" d="M78.66,469.08h51a0,0,0,0,1,0,0v1.81a3.26,3.26,0,0,1-3.26,3.26H81.92a3.26,3.26,0,0,1-3.26-3.26v-1.81A0,0,0,0,1,78.66,469.08Z"/><rect class="cls-7" x="182.04" y="439.09" width="296.64" height="2"/><polygon class="cls-7" points="472.05 448.27 470.69 446.81 477.91 440.09 470.69 433.38 472.05 431.91 480.85 440.09 472.05 448.27"/><rect class="cls-7" x="776.04" y="439.09" width="296.64" height="2"/><polygon class="cls-7" points="1066.05 448.27 1064.69 446.81 1071.91 440.09 1064.69 433.38 1066.05 431.91 1074.85 440.09 1066.05 448.27"/><path class="cls-8" d="M558.1,315.44h-1.45V304.77h1.45Z"/><path class="cls-8" d="M561.84,307.51l.1,1.18a2.88,2.88,0,0,1,1-1,2.65,2.65,0,0,1,1.36-.35,2.59,2.59,0,0,1,2,.75,3.29,3.29,0,0,1,.7,2.32v5h-1.44v-5a2.14,2.14,0,0,0-.41-1.49,1.66,1.66,0,0,0-1.26-.44,2,2,0,0,0-1.1.3,2.19,2.19,0,0,0-.77.82v5.78h-1.44v-7.92Z"/><path class="cls-8" d="M570.64,315.44h-1.44V304h1.44Z"/><path class="cls-8" d="M574.42,305.48H573V304h1.44Zm0,10H573v-7.92h1.44Z"/><path class="cls-8" d="M577.92,307.51l.1,1.18a2.88,2.88,0,0,1,1-1,2.65,2.65,0,0,1,1.36-.35,2.59,2.59,0,0,1,2,.75,3.29,3.29,0,0,1,.7,2.32v5h-1.44v-5a2.14,2.14,0,0,0-.41-1.49,1.66,1.66,0,0,0-1.26-.44,2,2,0,0,0-1.1.3,2.19,2.19,0,0,0-.77.82v5.78h-1.44v-7.92Z"/><path class="cls-8" d="M588.45,315.59a3.34,3.34,0,0,1-2.63-1.1,4.15,4.15,0,0,1-1-2.86v-.32a4.06,4.06,0,0,1,1-2.82,3.1,3.1,0,0,1,2.38-1.12,3,3,0,0,1,2.42,1,3.85,3.85,0,0,1,.82,2.58v.9h-5.14l0,0a3.12,3.12,0,0,0,.58,1.87,1.85,1.85,0,0,0,1.56.73,3.62,3.62,0,0,0,1.29-.21,3,3,0,0,0,1-.57l.56.94a3.34,3.34,0,0,1-1.12.7A4.51,4.51,0,0,1,588.45,315.59Zm-.22-7.09a1.56,1.56,0,0,0-1.24.61,2.88,2.88,0,0,0-.63,1.53v0H590v-.19a2.2,2.2,0,0,0-.45-1.42A1.62,1.62,0,0,0,588.23,308.5Z"/><path class="cls-8" d="M602.9,312.75a1.57,1.57,0,0,0-.55-1.22,4.64,4.64,0,0,0-1.95-.83,6.44,6.44,0,0,1-2.64-1.19,2.46,2.46,0,0,1-.95-2,2.59,2.59,0,0,1,1-2.08,4,4,0,0,1,2.65-.84,3.94,3.94,0,0,1,2.79,1,2.83,2.83,0,0,1,1,2.23v0h-1.38a2,2,0,0,0-.62-1.52,3,3,0,0,0-3.43-.09,1.59,1.59,0,0,0-.57,1.27,1.4,1.4,0,0,0,.62,1.16,5.91,5.91,0,0,0,2,.82,5.77,5.77,0,0,1,2.56,1.23,2.63,2.63,0,0,1,.88,2,2.46,2.46,0,0,1-1.05,2.07,4.5,4.5,0,0,1-2.75.78,4.77,4.77,0,0,1-2.82-.87,2.62,2.62,0,0,1-1.19-2.32v0h1.38a1.79,1.79,0,0,0,.75,1.56,3.15,3.15,0,0,0,1.87.53,2.91,2.91,0,0,0,1.73-.46A1.46,1.46,0,0,0,602.9,312.75Z"/><path class="cls-8" d="M609.46,315.59a3.34,3.34,0,0,1-2.63-1.1,4.15,4.15,0,0,1-1-2.86v-.32a4.06,4.06,0,0,1,1-2.82,3.1,3.1,0,0,1,2.38-1.12,3,3,0,0,1,2.42,1,3.85,3.85,0,0,1,.82,2.58v.9h-5.14l0,0a3.12,3.12,0,0,0,.58,1.87,1.85,1.85,0,0,0,1.56.73,3.62,3.62,0,0,0,1.29-.21,3,3,0,0,0,1-.57l.56.94a3.34,3.34,0,0,1-1.12.7A4.51,4.51,0,0,1,609.46,315.59Zm-.22-7.09a1.56,1.56,0,0,0-1.24.61,2.88,2.88,0,0,0-.63,1.53v0H611v-.19a2.2,2.2,0,0,0-.45-1.42A1.62,1.62,0,0,0,609.24,308.5Z"/><path class="cls-8" d="M617.33,314.45a1.94,1.94,0,0,0,1.26-.44,1.35,1.35,0,0,0,.55-1.09h1.3v0a2.23,2.23,0,0,1-.91,1.82,3.33,3.33,0,0,1-2.21.8,3.21,3.21,0,0,1-2.64-1.13,4.35,4.35,0,0,1-.92-2.83v-.31a4.33,4.33,0,0,1,.92-2.82,3.61,3.61,0,0,1,4.91-.31,2.55,2.55,0,0,1,.85,2v0h-1.3a1.67,1.67,0,0,0-.51-1.23,1.76,1.76,0,0,0-1.3-.51,1.74,1.74,0,0,0-1.62.82,3.84,3.84,0,0,0-.49,2v.31a3.89,3.89,0,0,0,.48,2A1.74,1.74,0,0,0,617.33,314.45Z"/><path class="cls-8" d="M627.1,314.26a2.68,2.68,0,0,1-1,1,2.62,2.62,0,0,1-1.35.34,2.55,2.55,0,0,1-2-.83,3.84,3.84,0,0,1-.73-2.58v-4.67h1.44v4.69a3,3,0,0,0,.37,1.74,1.39,1.39,0,0,0,1.16.48,2.37,2.37,0,0,0,1.27-.31,2,2,0,0,0,.76-.88v-5.71h1.44v7.92h-1.3Z"/><path class="cls-8" d="M634.34,308.79l-.74,0a1.65,1.65,0,0,0-1,.27,1.74,1.74,0,0,0-.6.76v5.66h-1.44v-7.92h1.29l.14,1.16a2.76,2.76,0,0,1,.83-1,2,2,0,0,1,1.14-.34l.31,0,.24.06Z"/><path class="cls-8" d="M637.29,305.48h-1.44V304h1.44Zm0,10h-1.44v-7.92h1.44Z"/><path class="cls-8" d="M641.42,305.6v1.91h1.5v1.07h-1.5v4.81a1.08,1.08,0,0,0,.23.78.83.83,0,0,0,.61.23l.27,0,.27-.07.19,1a1.27,1.27,0,0,1-.47.22,2.38,2.38,0,0,1-.63.08,1.87,1.87,0,0,1-1.4-.53,2.31,2.31,0,0,1-.52-1.67v-4.81h-1.26v-1.07H640V305.6Z"/><path class="cls-8" d="M647.12,312.5l.26,1h0l1.95-6H651l-3.33,9.14a4.1,4.1,0,0,1-.86,1.39,2,2,0,0,1-1.51.59,3.16,3.16,0,0,1-.45,0l-.42-.08.15-1.14h.26l.38,0A.89.89,0,0,0,646,317a4.26,4.26,0,0,0,.49-.91l.34-.83-2.94-7.76h1.61Z"/><path class="cls-8" d="M656.24,315.44V304.77h3.27a4.38,4.38,0,0,1,4.63,4.61v1.46a4.37,4.37,0,0,1-4.63,4.6Zm1.44-9.53v8.39h1.83a2.94,2.94,0,0,0,2.33-1,3.65,3.65,0,0,0,.85-2.5v-1.47a3.63,3.63,0,0,0-.85-2.48,2.94,2.94,0,0,0-2.33-1Z"/><path class="cls-8" d="M669.14,315.59a3.34,3.34,0,0,1-2.63-1.1,4.15,4.15,0,0,1-1-2.86v-.32a4.06,4.06,0,0,1,1-2.82,3.1,3.1,0,0,1,2.38-1.12,3,3,0,0,1,2.42,1,3.85,3.85,0,0,1,.82,2.58v.9H667l0,0a3.12,3.12,0,0,0,.58,1.87,1.84,1.84,0,0,0,1.56.73,3.62,3.62,0,0,0,1.29-.21,2.94,2.94,0,0,0,1-.57l.56.94a3.35,3.35,0,0,1-1.12.7A4.51,4.51,0,0,1,669.14,315.59Zm-.22-7.09a1.56,1.56,0,0,0-1.24.61,2.88,2.88,0,0,0-.63,1.53v0h3.65v-.19a2.2,2.2,0,0,0-.45-1.42A1.62,1.62,0,0,0,668.92,308.5Z"/><path class="cls-8" d="M676.33,313.1l.13.56h0l.14-.56,1.82-5.59h1.47L677,315.44h-1.09l-3-7.92h1.48Z"/><path class="cls-8" d="M682.79,305.48h-1.44V304h1.44Zm0,10h-1.44v-7.92h1.44Z"/><path class="cls-8" d="M688.23,314.45a1.94,1.94,0,0,0,1.26-.44,1.35,1.35,0,0,0,.55-1.09h1.3v0a2.23,2.23,0,0,1-.91,1.82,3.33,3.33,0,0,1-2.21.8,3.21,3.21,0,0,1-2.64-1.13,4.35,4.35,0,0,1-.92-2.83v-.31a4.33,4.33,0,0,1,.92-2.82,3.61,3.61,0,0,1,4.91-.31,2.55,2.55,0,0,1,.85,2v0H690a1.67,1.67,0,0,0-.51-1.23,1.76,1.76,0,0,0-1.3-.51,1.74,1.74,0,0,0-1.62.82,3.84,3.84,0,0,0-.49,2v.31a3.89,3.89,0,0,0,.48,2A1.74,1.74,0,0,0,688.23,314.45Z"/><path class="cls-8" d="M696.26,315.59a3.34,3.34,0,0,1-2.63-1.1,4.15,4.15,0,0,1-1-2.86v-.32a4.06,4.06,0,0,1,1-2.82,3.1,3.1,0,0,1,2.38-1.12,3,3,0,0,1,2.42,1,3.85,3.85,0,0,1,.82,2.58v.9h-5.14l0,0a3.12,3.12,0,0,0,.58,1.87,1.85,1.85,0,0,0,1.56.73,3.62,3.62,0,0,0,1.29-.21,3,3,0,0,0,1-.57l.56.94a3.34,3.34,0,0,1-1.12.7A4.51,4.51,0,0,1,696.26,315.59ZM696,308.5a1.57,1.57,0,0,0-1.24.61,2.88,2.88,0,0,0-.63,1.53v0h3.66v-.19a2.2,2.2,0,0,0-.45-1.42A1.62,1.62,0,0,0,696,308.5Z"/><path class="cls-8" d="M711.3,80.94h-1.45V70.28h1.45Z"/><path class="cls-8" d="M721.56,77.52v0a3.21,3.21,0,0,1-1.05,2.52,4,4,0,0,1-2.86,1,3.76,3.76,0,0,1-2.95-1.28,4.72,4.72,0,0,1-1.14-3.25v-1.9a4.73,4.73,0,0,1,1.14-3.26,3.76,3.76,0,0,1,2.95-1.29,4.14,4.14,0,0,1,2.88,1,3.18,3.18,0,0,1,1,2.55v0h-1.38a2.38,2.38,0,0,0-.66-1.77,2.53,2.53,0,0,0-1.86-.65,2.27,2.27,0,0,0-1.93,1,4,4,0,0,0-.72,2.42v1.91a4,4,0,0,0,.72,2.43,2.27,2.27,0,0,0,1.93,1,2.54,2.54,0,0,0,1.86-.65,2.4,2.4,0,0,0,.66-1.79Z"/><path class="cls-8" d="M729.3,78.19h-4.47l-1,2.75h-1.47l4.12-10.66h1.24l4.06,10.66h-1.47Zm-4-1.21h3.59l-1.76-4.86h0Z"/><path class="cls-8" d="M734.67,76.66v4.28h-1.44V70.28h4.08a3.75,3.75,0,0,1,2.65.88,3.32,3.32,0,0,1,0,4.64,3.77,3.77,0,0,1-2.65.87Zm0-1.14h2.64A2.11,2.11,0,0,0,738.92,72a2.07,2.07,0,0,0-1.62-.59h-2.64Z"/><path class="cls-8" d="M746.57,80.94V70.28h3.27a4.38,4.38,0,0,1,4.63,4.61v1.46a4.37,4.37,0,0,1-4.63,4.6ZM748,71.41V79.8h1.83a2.94,2.94,0,0,0,2.33-1,3.64,3.64,0,0,0,.85-2.5V74.87a3.62,3.62,0,0,0-.85-2.48,2.94,2.94,0,0,0-2.33-1Z"/><path class="cls-8" d="M759.47,81.09a3.34,3.34,0,0,1-2.63-1.1,4.15,4.15,0,0,1-1-2.86v-.32a4.06,4.06,0,0,1,1-2.82,3.1,3.1,0,0,1,2.38-1.12,3,3,0,0,1,2.42,1,3.85,3.85,0,0,1,.82,2.58v.9h-5.14l0,0a3.12,3.12,0,0,0,.58,1.87,1.85,1.85,0,0,0,1.56.73,3.62,3.62,0,0,0,1.29-.21,3,3,0,0,0,1-.57l.56.94a3.34,3.34,0,0,1-1.12.7A4.51,4.51,0,0,1,759.47,81.09ZM759.25,74a1.57,1.57,0,0,0-1.24.61,2.88,2.88,0,0,0-.63,1.53v0H761V76a2.2,2.2,0,0,0-.45-1.42A1.62,1.62,0,0,0,759.25,74Z"/><path class="cls-8" d="M766.66,78.6l.12.56h0l.14-.56L768.79,73h1.47l-2.92,7.92h-1.09l-3-7.92h1.48Z"/><path class="cls-8" d="M773.12,71h-1.44V69.51h1.44Zm0,10h-1.44V73h1.44Z"/><path class="cls-8" d="M778.56,80a2,2,0,0,0,1.26-.44,1.35,1.35,0,0,0,.55-1.09h1.3v0a2.23,2.23,0,0,1-.91,1.82,3.33,3.33,0,0,1-2.21.8A3.21,3.21,0,0,1,775.92,80a4.35,4.35,0,0,1-.92-2.83v-.31a4.33,4.33,0,0,1,.92-2.82,3.61,3.61,0,0,1,4.91-.31,2.55,2.55,0,0,1,.85,2v0h-1.3a1.67,1.67,0,0,0-.51-1.23,1.77,1.77,0,0,0-1.3-.51,1.74,1.74,0,0,0-1.62.82,3.84,3.84,0,0,0-.49,2v.31a3.89,3.89,0,0,0,.48,2A1.74,1.74,0,0,0,778.56,80Z"/><path class="cls-8" d="M786.59,81.09A3.34,3.34,0,0,1,784,80a4.15,4.15,0,0,1-1-2.86v-.32A4.06,4.06,0,0,1,784,74a3.1,3.1,0,0,1,2.38-1.12,3,3,0,0,1,2.42,1,3.85,3.85,0,0,1,.82,2.58v.9h-5.14l0,0a3.12,3.12,0,0,0,.58,1.87,1.84,1.84,0,0,0,1.56.73,3.62,3.62,0,0,0,1.29-.21,2.94,2.94,0,0,0,1-.57l.56.94a3.35,3.35,0,0,1-1.12.7A4.51,4.51,0,0,1,786.59,81.09ZM786.37,74a1.56,1.56,0,0,0-1.24.61,2.88,2.88,0,0,0-.63,1.53v0h3.65V76a2.2,2.2,0,0,0-.45-1.42A1.62,1.62,0,0,0,786.37,74Z"/><path class="cls-8" d="M415.48,80.94H414l-5.13-8.25h0v8.23h-1.44V70.28h1.44L414,78.51h0V70.28h1.44Z"/><path class="cls-8" d="M417.5,76.9a4.36,4.36,0,0,1,1-2.9,3.53,3.53,0,0,1,5.19,0,4.35,4.35,0,0,1,1,2.9v.16a4.34,4.34,0,0,1-1,2.9,3.54,3.54,0,0,1-5.19,0,4.34,4.34,0,0,1-1-2.9Zm1.44.16a3.75,3.75,0,0,0,.53,2.08,1.92,1.92,0,0,0,3.15,0,3.73,3.73,0,0,0,.53-2.08V76.9a3.72,3.72,0,0,0-.54-2.07A1.76,1.76,0,0,0,421,74a1.74,1.74,0,0,0-1.56.83,3.76,3.76,0,0,0-.53,2.07Z"/><path class="cls-8" d="M427.66,73l.1,1.18a2.88,2.88,0,0,1,1-1,2.65,2.65,0,0,1,1.36-.35,2.59,2.59,0,0,1,2,.75,3.29,3.29,0,0,1,.7,2.32v5h-1.44V76a2.14,2.14,0,0,0-.41-1.49,1.66,1.66,0,0,0-1.26-.44,2,2,0,0,0-1.1.3,2.19,2.19,0,0,0-.77.82v5.78h-1.44V73Z"/><path class="cls-8" d="M437.69,77H434.1V75.87h3.59Z"/><path class="cls-8" d="M440.8,80.94h-1.45V70.28h1.45Z"/><path class="cls-8" d="M444.53,73l.1,1.18a2.88,2.88,0,0,1,1-1,2.65,2.65,0,0,1,1.36-.35,2.59,2.59,0,0,1,2,.75,3.29,3.29,0,0,1,.7,2.32v5h-1.44V76a2.14,2.14,0,0,0-.41-1.49,1.66,1.66,0,0,0-1.26-.44,2,2,0,0,0-1.1.3,2.19,2.19,0,0,0-.77.82v5.78h-1.44V73Z"/><path class="cls-8" d="M453.33,80.94h-1.44V69.51h1.44Z"/><path class="cls-8" d="M457.11,71h-1.44V69.51h1.44Zm0,10h-1.44V73h1.44Z"/><path class="cls-8" d="M460.62,73l.1,1.18a2.88,2.88,0,0,1,1-1,2.65,2.65,0,0,1,1.36-.35,2.59,2.59,0,0,1,2,.75,3.29,3.29,0,0,1,.7,2.32v5h-1.44V76a2.14,2.14,0,0,0-.41-1.49,1.66,1.66,0,0,0-1.26-.44,2,2,0,0,0-1.1.3,2.19,2.19,0,0,0-.77.82v5.78h-1.44V73Z"/><path class="cls-8" d="M471.14,81.09a3.34,3.34,0,0,1-2.63-1.1,4.15,4.15,0,0,1-1-2.86v-.32a4.06,4.06,0,0,1,1-2.82,3.1,3.1,0,0,1,2.38-1.12,3,3,0,0,1,2.42,1,3.85,3.85,0,0,1,.82,2.58v.9H469l0,0a3.12,3.12,0,0,0,.58,1.87,1.85,1.85,0,0,0,1.56.73,3.62,3.62,0,0,0,1.29-.21,3,3,0,0,0,1-.57l.56.94a3.34,3.34,0,0,1-1.12.7A4.51,4.51,0,0,1,471.14,81.09ZM470.92,74a1.56,1.56,0,0,0-1.24.61,2.88,2.88,0,0,0-.63,1.53v0h3.65V76a2.2,2.2,0,0,0-.45-1.42A1.62,1.62,0,0,0,470.92,74Z"/><path class="cls-8" d="M485.59,78.25A1.57,1.57,0,0,0,485,77a4.64,4.64,0,0,0-1.95-.83A6.44,6.44,0,0,1,480.45,75a2.46,2.46,0,0,1-.95-2,2.59,2.59,0,0,1,1-2.08,4,4,0,0,1,2.65-.84,3.94,3.94,0,0,1,2.79,1,2.83,2.83,0,0,1,1,2.23v0h-1.38a2,2,0,0,0-.62-1.52,3,3,0,0,0-3.43-.09,1.59,1.59,0,0,0-.57,1.27,1.4,1.4,0,0,0,.62,1.16,5.91,5.91,0,0,0,2,.82,5.77,5.77,0,0,1,2.56,1.23,2.63,2.63,0,0,1,.88,2A2.46,2.46,0,0,1,486,80.31a4.5,4.5,0,0,1-2.75.78,4.77,4.77,0,0,1-2.82-.87,2.62,2.62,0,0,1-1.19-2.32v0h1.38a1.79,1.79,0,0,0,.75,1.56,3.15,3.15,0,0,0,1.87.53A2.91,2.91,0,0,0,485,79.5,1.46,1.46,0,0,0,485.59,78.25Z"/><path class="cls-8" d="M492.15,81.09a3.34,3.34,0,0,1-2.63-1.1,4.15,4.15,0,0,1-1-2.86v-.32a4.06,4.06,0,0,1,1-2.82,3.1,3.1,0,0,1,2.38-1.12,3,3,0,0,1,2.42,1,3.85,3.85,0,0,1,.82,2.58v.9H490l0,0a3.12,3.12,0,0,0,.58,1.87,1.85,1.85,0,0,0,1.56.73,3.62,3.62,0,0,0,1.29-.21,3,3,0,0,0,1-.57l.56.94a3.34,3.34,0,0,1-1.12.7A4.51,4.51,0,0,1,492.15,81.09ZM491.93,74a1.56,1.56,0,0,0-1.24.61,2.88,2.88,0,0,0-.63,1.53v0h3.65V76a2.2,2.2,0,0,0-.45-1.42A1.62,1.62,0,0,0,491.93,74Z"/><path class="cls-8" d="M500,80a1.94,1.94,0,0,0,1.26-.44,1.35,1.35,0,0,0,.55-1.09h1.3v0a2.23,2.23,0,0,1-.91,1.82,3.33,3.33,0,0,1-2.21.8A3.21,3.21,0,0,1,497.38,80a4.35,4.35,0,0,1-.92-2.83v-.31a4.33,4.33,0,0,1,.92-2.82,3.61,3.61,0,0,1,4.91-.31,2.55,2.55,0,0,1,.85,2v0h-1.3a1.67,1.67,0,0,0-.51-1.23A1.76,1.76,0,0,0,500,74a1.74,1.74,0,0,0-1.62.82,3.84,3.84,0,0,0-.49,2v.31a3.89,3.89,0,0,0,.48,2A1.74,1.74,0,0,0,500,80Z"/><path class="cls-8" d="M509.79,79.77a2.68,2.68,0,0,1-1,1,2.62,2.62,0,0,1-1.35.34,2.55,2.55,0,0,1-2-.83,3.84,3.84,0,0,1-.73-2.58V73h1.44V77.7a3,3,0,0,0,.37,1.74,1.39,1.39,0,0,0,1.16.48,2.37,2.37,0,0,0,1.27-.31,2,2,0,0,0,.76-.88V73h1.44v7.92h-1.3Z"/><path class="cls-8" d="M517,74.29l-.74,0a1.65,1.65,0,0,0-1,.27,1.74,1.74,0,0,0-.6.76v5.66h-1.44V73h1.29l.14,1.16a2.76,2.76,0,0,1,.83-1,2,2,0,0,1,1.14-.34l.31,0,.24.06Z"/><path class="cls-8" d="M520,71h-1.44V69.51H520Zm0,10h-1.44V73H520Z"/><path class="cls-8" d="M524.11,71.1V73h1.5v1.07h-1.5V78.9a1.08,1.08,0,0,0,.23.78.83.83,0,0,0,.61.23l.27,0,.27-.07.19,1a1.27,1.27,0,0,1-.47.22,2.39,2.39,0,0,1-.63.08,1.87,1.87,0,0,1-1.4-.53,2.31,2.31,0,0,1-.52-1.67V74.08h-1.26V73h1.26V71.1Z"/><path class="cls-8" d="M529.81,78l.26,1h0l1.95-6h1.6l-3.33,9.14a4.1,4.1,0,0,1-.86,1.39,2,2,0,0,1-1.51.59,3.16,3.16,0,0,1-.45,0L527.1,84l.15-1.14h.26l.38,0a.89.89,0,0,0,.75-.41,4.26,4.26,0,0,0,.49-.91l.34-.83L526.53,73h1.61Z"/><path class="cls-8" d="M538.93,80.94V70.28h3.27a4.38,4.38,0,0,1,4.63,4.61v1.46a4.37,4.37,0,0,1-4.63,4.6Zm1.44-9.53V79.8h1.83a2.94,2.94,0,0,0,2.33-1,3.65,3.65,0,0,0,.85-2.5V74.87a3.63,3.63,0,0,0-.85-2.48,2.94,2.94,0,0,0-2.33-1Z"/><path class="cls-8" d="M551.83,81.09A3.34,3.34,0,0,1,549.2,80a4.15,4.15,0,0,1-1-2.86v-.32a4.06,4.06,0,0,1,1-2.82,3.1,3.1,0,0,1,2.38-1.12,3,3,0,0,1,2.42,1,3.85,3.85,0,0,1,.82,2.58v.9h-5.14l0,0a3.12,3.12,0,0,0,.58,1.87,1.85,1.85,0,0,0,1.56.73,3.62,3.62,0,0,0,1.29-.21,3,3,0,0,0,1-.57l.56.94a3.34,3.34,0,0,1-1.12.7A4.51,4.51,0,0,1,551.83,81.09ZM551.61,74a1.56,1.56,0,0,0-1.24.61,2.88,2.88,0,0,0-.63,1.53v0h3.65V76a2.2,2.2,0,0,0-.45-1.42A1.62,1.62,0,0,0,551.61,74Z"/><path class="cls-8" d="M559,78.6l.12.56h0l.14-.56L561.15,73h1.47l-2.92,7.92h-1.09l-3-7.92h1.48Z"/><path class="cls-8" d="M565.48,71H564V69.51h1.44Zm0,10H564V73h1.44Z"/><path class="cls-8" d="M570.93,80a1.94,1.94,0,0,0,1.26-.44,1.35,1.35,0,0,0,.55-1.09H574v0a2.23,2.23,0,0,1-.91,1.82,3.33,3.33,0,0,1-2.21.8A3.21,3.21,0,0,1,568.28,80a4.35,4.35,0,0,1-.92-2.83v-.31a4.33,4.33,0,0,1,.92-2.82,3.61,3.61,0,0,1,4.91-.31,2.55,2.55,0,0,1,.85,2v0h-1.3a1.67,1.67,0,0,0-.51-1.23,1.76,1.76,0,0,0-1.3-.51,1.74,1.74,0,0,0-1.62.82,3.84,3.84,0,0,0-.49,2v.31a3.89,3.89,0,0,0,.48,2A1.74,1.74,0,0,0,570.93,80Z"/><path class="cls-8" d="M579,81.09a3.34,3.34,0,0,1-2.63-1.1,4.15,4.15,0,0,1-1-2.86v-.32a4.06,4.06,0,0,1,1-2.82,3.1,3.1,0,0,1,2.38-1.12,3,3,0,0,1,2.42,1,3.85,3.85,0,0,1,.82,2.58v.9h-5.14l0,0a3.12,3.12,0,0,0,.58,1.87A1.85,1.85,0,0,0,579,80a3.62,3.62,0,0,0,1.29-.21,3,3,0,0,0,1-.57l.56.94a3.34,3.34,0,0,1-1.12.7A4.51,4.51,0,0,1,579,81.09ZM578.73,74a1.56,1.56,0,0,0-1.24.61,2.88,2.88,0,0,0-.63,1.53v0h3.65V76a2.2,2.2,0,0,0-.45-1.42A1.62,1.62,0,0,0,578.73,74Z"/><path class="cls-6" d="M641.36,214.7H605.1a3.58,3.58,0,0,1-3.58-3.58V182.85a3.58,3.58,0,0,1,3.58-3.58h36.27a3.58,3.58,0,0,1,3.58,3.58v4.75a1,1,0,0,1-2,0v-4.75a1.58,1.58,0,0,0-1.58-1.58H605.1a1.58,1.58,0,0,0-1.58,1.58v28.27a1.58,1.58,0,0,0,1.58,1.58h36.27a1.58,1.58,0,0,0,1.58-1.58v-4.83a1,1,0,1,1,2,0v4.83A3.58,3.58,0,0,1,641.36,214.7Z"/><path class="cls-6" d="M610,180.86a1,1,0,0,1-1-1v-4.92a13.81,13.81,0,0,1,13.79-13.79h.34a13.73,13.73,0,0,1,9.48,3.78,1,1,0,1,1-1.37,1.45,11.75,11.75,0,0,0-8.11-3.24h-.34A11.81,11.81,0,0,0,611,174.94v4.92A1,1,0,0,1,610,180.86Z"/><path class="cls-6" d="M639.08,208.48a11.53,11.53,0,1,1,8.15-19.68h0a11.53,11.53,0,0,1-8.15,19.68Zm0-21.06a9.53,9.53,0,1,0,6.74,2.79A9.47,9.47,0,0,0,639.08,187.42Z"/><path class="cls-6" d="M652.6,211.47a1,1,0,0,1-.71-.29l-6.07-6.07a1,1,0,0,1,1.41-1.41l6.07,6.07a1,1,0,0,1-.71,1.71Z"/><path class="cls-6" d="M638.05,200.93a1,1,0,0,1-.71-.29l-2.93-2.93a1,1,0,0,1,1.41-1.41l2.93,2.93a1,1,0,0,1-.71,1.71Z"/><path class="cls-6" d="M638.05,200.93a1,1,0,0,1-.71-1.71l5.89-5.89a1,1,0,0,1,1.41,1.41l-5.89,5.89A1,1,0,0,1,638.05,200.93Z"/><path class="cls-5" d="M500.72,462.76h-7.17c-3.74,0-6.78-2.6-6.78-5.79V419.65c0-3.19,3-5.79,6.78-5.79h7.17v2h-7.17c-2.64,0-4.78,1.7-4.78,3.79V457c0,2.09,2.15,3.79,4.78,3.79h7.17Z"/><path class="cls-5" d="M762.56,462.76h-9.21v-2h9.21c2.64,0,4.78-1.7,4.78-3.79V419.65c0-2.09-2.15-3.79-4.78-3.79h-9.21v-2h9.21c3.74,0,6.78,2.6,6.78,5.79V457C769.35,460.17,766.3,462.76,762.56,462.76Z"/><rect class="cls-5" x="557.07" y="451.1" width="31.81" height="2"/><rect class="cls-5" x="601.8" y="451.1" width="31.81" height="2"/><rect class="cls-5" x="646.53" y="451.1" width="31.81" height="2"/><rect class="cls-5" x="691.26" y="451.1" width="31.81" height="2"/><path class="cls-5" d="M527.75,428.19a2.49,2.49,0,1,1,2.49-2.49A2.49,2.49,0,0,1,527.75,428.19Zm0-3a.49.49,0,1,0,.49.49A.49.49,0,0,0,527.75,425.2Z"/><path class="cls-5" d="M527.75,441.11a2.49,2.49,0,1,1,2.49-2.49A2.49,2.49,0,0,1,527.75,441.11Zm0-3a.49.49,0,1,0,.49.49A.49.49,0,0,0,527.75,438.13Z"/><path class="cls-5" d="M527.75,454a2.49,2.49,0,1,1,2.49-2.49A2.49,2.49,0,0,1,527.75,454Zm0-3a.49.49,0,1,0,.49.49A.49.49,0,0,0,527.75,451Z"/><path class="cls-5" d="M589.64,441.18H556.3v-17.9h33.33Zm-31.33-2h29.33v-13.9H558.3Z"/><path class="cls-5" d="M634.37,441.18H601v-17.9h33.33Zm-31.33-2h29.33v-13.9H603Z"/><path class="cls-5" d="M679.1,441.18H645.77v-17.9H679.1Zm-31.33-2H677.1v-13.9H647.77Z"/><path class="cls-5" d="M723.83,441.18H690.5v-17.9h33.33Zm-31.33-2h29.33v-13.9H692.5Z"/><rect class="cls-5" x="496" y="158.78" width="2" height="237.82"/><polygon class="cls-5" points="488.82 165.4 490.29 166.77 497 159.54 503.71 166.77 505.18 165.4 497 156.61 488.82 165.4"/><polygon class="cls-5" points="511.5 396.6 509.5 396.6 509.5 269.61 524.33 269.52 524.34 271.52 511.5 271.6 511.5 396.6"/><polygon class="cls-5" points="517.65 262.38 516.3 263.85 523.56 270.52 516.38 277.28 517.75 278.73 526.5 270.5 517.65 262.38"/><polygon class="cls-2" points="738.67 394.43 736.67 394.43 736.67 271.61 727.01 271.67 726.99 269.67 738.67 269.6 738.67 394.43"/><polygon class="cls-2" points="729.49 387.8 730.95 386.44 737.66 393.66 744.38 386.44 745.84 387.8 737.66 396.6 729.49 387.8"/><rect class="cls-5" x="753.5" y="158.78" width="2" height="235.65"/><polygon class="cls-5" points="746.32 165.4 747.78 166.77 754.5 159.54 761.21 166.77 762.68 165.4 754.5 156.61 746.32 165.4"/><polygon class="cls-5" points="746.32 387.8 747.78 386.44 754.5 393.66 761.21 386.44 762.68 387.8 754.5 396.6 746.32 387.8"/><path class="cls-6" d="M845.67,102.69H840v-1A6.71,6.71,0,0,0,833.26,95H667.94a6.71,6.71,0,0,0-6.69,6.71v1h-4.14c-2.78,0-5,2-5,4.35v26.12c0,2.4,2.26,4.35,5,4.35h4.14v2.43a6.71,6.71,0,0,0,6.69,6.71H833.26a6.71,6.71,0,0,0,6.69-6.71v-2.43h5.72c2.78,0,5-2,5-4.35V107C850.71,104.65,848.45,102.69,845.67,102.69ZM661.12,135.52h-4c-1.65,0-3-1.08-3-2.35V107c0-1.28,1.4-2.35,3-2.35h4ZM838,139.95a4.71,4.71,0,0,1-4.69,4.71H667.94a4.71,4.71,0,0,1-4.69-4.71V101.71A4.71,4.71,0,0,1,667.94,97H833.26a4.71,4.71,0,0,1,4.69,4.71Zm10.76-6.78c0,1.28-1.4,2.35-3,2.35h-5.44V104.69h5.44c1.65,0,3,1.08,3,2.35Z"/><path class="cls-6" d="M588.17,102.69h-5.72v-1A6.71,6.71,0,0,0,575.76,95H410.44a6.71,6.71,0,0,0-6.69,6.71v1h-4.14c-2.78,0-5,2-5,4.35v26.12c0,2.4,2.26,4.35,5,4.35h4.14v2.43a6.71,6.71,0,0,0,6.69,6.71H575.76a6.71,6.71,0,0,0,6.69-6.71v-2.43h5.72c2.78,0,5-2,5-4.35V107C593.21,104.65,590.95,102.69,588.17,102.69ZM403.62,135.52h-4c-1.65,0-3-1.08-3-2.35V107c0-1.28,1.4-2.35,3-2.35h4Zm176.83,4.43a4.71,4.71,0,0,1-4.69,4.71H410.44a4.71,4.71,0,0,1-4.69-4.71V101.71A4.71,4.71,0,0,1,410.44,97H575.76a4.71,4.71,0,0,1,4.69,4.71Zm10.76-6.78c0,1.28-1.4,2.35-3,2.35h-5.44V104.69h5.44c1.65,0,3,1.08,3,2.35Z"/><path class="cls-5" d="M744.59,475.33H509.49a10.17,10.17,0,0,1-10.15-10.16V411.49a10.17,10.17,0,0,1,10.15-10.15h235.1a10.17,10.17,0,0,1,10.16,10.15v53.69A10.17,10.17,0,0,1,744.59,475.33Zm-235.1-72a8.16,8.16,0,0,0-8.15,8.15v53.69a8.16,8.16,0,0,0,8.15,8.16h235.1a8.16,8.16,0,0,0,8.16-8.16V411.49a8.16,8.16,0,0,0-8.16-8.15Z"/></svg>