<svg id="Layer_1" data-name="Layer 1" xmlns="http://www.w3.org/2000/svg" viewBox="0 0 1250 481"><defs><style>.cls-1{fill:#f2f4f1;}.cls-2{fill:#c46dbe;}.cls-3{fill:#17242d;}.cls-4{fill:#3fa1f2;}.cls-5{fill:#0075c9;}.cls-6{fill:#787878;}.cls-10,.cls-7{fill:none;stroke-width:2px;}.cls-7{stroke:#939596;stroke-miterlimit:10;}.cls-8{fill:#939596;}.cls-9{fill:#fff;}.cls-10{stroke:#0075c9;stroke-linejoin:round;}.cls-11{fill:#e2e2e2;}</style></defs><title>SGI_Firewall_Deployment</title><path class="cls-1" d="M1079.7,26H493.07c-3.28,0-5.95,2.33-5.95,5.21V206c0,2.88,2.66,5.21,5.95,5.21h4.13C542.92,224.62,762.49,301,762.49,301H821.9l254.35-89.77h3.45c3.28,0,5.95-2.33,5.95-5.21V31.21C1085.64,28.33,1083,26,1079.7,26Z"/><path class="cls-2" d="M822,301.5h-2.17v-1h2l1.73-.61.33.94Zm-6.17,0h-4v-1h4Zm-8,0h-4v-1h4Zm-8,0h-4v-1h4Zm-8,0h-4v-1h4Zm-8,0h-4v-1h4Zm-8,0h-4v-1h4Zm-8,0h-4v-1h4Zm-8.06-.92-3.81-1.32.33-.94,3.81,1.32Zm67.89-1.07-.33-.94,3.77-1.33.33.94Zm-75.5-1.57-3.79-1.32.33-.95,3.79,1.32Zm83-1.09-.33-.94,3.77-1.33.33.94Zm-90.63-1.54L740.76,294l.33-.95,3.79,1.31Zm98.17-1.12-.33-.94,3.77-1.33.33.94ZM737,292.68l-3.79-1.31.33-.95,3.79,1.31Zm113.3-1.16-.33-.94,3.77-1.33.33.94ZM729.4,290.05l-3.79-1.31.33-.95,3.79,1.31Zm128.42-1.2-.33-.94,3.77-1.33.33.94Zm-136-1.42L718,286.12l.33-.95,3.79,1.31Zm143.53-1.24-.33-.94,3.77-1.33.33.94Zm-151.11-1.37-3.79-1.31.33-.95,3.79,1.31Zm158.65-1.29-.33-.94,3.77-1.33.33.94ZM706.68,282.2l-3.79-1.31.33-.95,3.79,1.31Zm173.77-1.33-.33-.94,3.77-1.33.33.94Zm-181.34-1.28-3.79-1.31.33-.95,3.79,1.31ZM888,278.2l-.33-.94,3.77-1.33.33.94ZM691.54,277l-3.79-1.3.33-.95,3.79,1.3Zm204-1.44-.33-.94,3.77-1.33.33.94ZM684,274.37l-3.79-1.3.33-.95,3.79,1.3Zm219.11-1.49-.33-.94,3.77-1.33.33.94Zm-226.69-1.12-3.79-1.3.32-.95,3.79,1.3Zm234.23-1.54-.33-.94,3.77-1.33.33.94Zm-241.8-1.06-3.79-1.3.32-.95,3.79,1.3Zm249.35-1.6-.33-.94,3.77-1.33.33.94Zm-256.92-1-3.79-1.3.32-.95,3.79,1.3Zm264.46-1.66-.33-.94,3.77-1.33.33.94Zm-272-.94-3.79-1.3.32-.95L654,263Zm279.58-1.73-.33-.94L936.7,260l.33.94Zm-287.16-.87-3.79-1.3.32-.95,3.79,1.3Zm294.7-1.79-.33-.94,3.77-1.33.33.94Zm-302.28-.8-3.79-1.3.32-.95,3.79,1.3Zm309.82-1.86L948,256l3.77-1.33.33.94Zm-317.4-.73-3.79-1.29.32-.95,3.79,1.29Zm324.94-1.93-.33-.94,3.77-1.33.33.94Zm-332.53-.66-3.8-1.3.32-.95,3.8,1.3Zm340.08-2-.33-.94,3.77-1.33.33.94ZM615.77,251,612,249.7l.32-.95,3.79,1.29ZM971,248.92l-.33-.94,3.77-1.33.33.94Zm-362.78-.5-3.79-1.29.32-.95,3.79,1.29Zm370.32-2.16-.33-.94L982,244l.33.94Zm-377.9-.42-3.79-1.29.32-.95,3.79,1.29Zm385.44-2.25-.33-.94,3.77-1.33.33.94Zm-393-.33L589.25,242l.32-.95,3.79,1.29Zm400.57-2.33-.33-.94,3.77-1.33.33.94Zm-408.16-.23-3.79-1.28.32-.95,3.79,1.28Zm415.7-2.43-.33-.94,3.77-1.33.33.94Zm-423.29-.13-3.79-1.28.32-.95,3.79,1.28Zm430.83-2.53-.33-.94,3.77-1.33.33.94Zm-438.42,0-3.8-1.28.32-.95,3.8,1.28ZM562.69,233l-3.8-1.27.32-.95,3.8,1.27Zm453.55-.08-.33-.94,3.77-1.33.33.94Zm-461.15-2.46-3.8-1.27.32-.95,3.8,1.27Zm468.69-.2-.33-.94,3.77-1.33.33.94ZM547.5,227.95l-3.8-1.26.32-.95,3.8,1.26Zm483.83-.33-.33-.94,3.77-1.33.33.94Zm-491.44-2.2-3.8-1.26.31-.95,3.8,1.26Zm499-.47-.33-.94,3.77-1.33.33.94Zm-506.59-2-3.81-1.25.31-1L532.6,222Zm514.13-.62-.33-.94,3.77-1.33.33.94Zm-521.74-1.88-3.81-1.24.31-1,3.81,1.24Zm529.29-.79-.33-.94,3.77-1.33.33.94ZM517,217.95l-3.82-1.23.3-1,3.82,1.23Zm544.46-1-.33-.94,3.77-1.33.33.94Zm-552.09-1.46-3.83-1.2.3-1,3.83,1.2Zm559.64-1.2-.33-.94,3.77-1.33.33.94Zm-567.29-1.18L497.91,212l.28-1,3.85,1.16Zm577.94-1.39h-3.26v-1h3.26a6.36,6.36,0,0,0,.69,0l.11,1A7.32,7.32,0,0,1,1079.7,211.73Zm-585.61,0h-1A7.12,7.12,0,0,1,490,211l.44-.9a6.12,6.12,0,0,0,2.67.6h1ZM1084.37,210l-.68-.73a4.38,4.38,0,0,0,1.46-3.17h1A5.37,5.37,0,0,1,1084.37,210ZM487,208a5.12,5.12,0,0,1-.38-1.94v-2.21h1V206a4.13,4.13,0,0,0,.31,1.56Zm599.14-5.9h-1v-4h1Zm-598.52-2.24h-1v-4h1Zm598.52-5.76h-1v-4h1Zm-598.52-2.24h-1v-4h1Zm598.52-5.76h-1v-4h1Zm-598.52-2.24h-1v-4h1Zm598.52-5.76h-1v-4h1Zm-598.52-2.24h-1v-4h1Zm598.52-5.76h-1v-4h1Zm-598.52-2.24h-1v-4h1Zm598.52-5.76h-1v-4h1Zm-598.52-2.24h-1v-4h1Zm598.52-5.76h-1v-4h1Zm-598.52-2.24h-1v-4h1Zm598.52-5.76h-1v-4h1Zm-598.52-2.24h-1v-4h1Zm598.52-5.76h-1v-4h1Zm-598.52-2.24h-1v-4h1Zm598.52-5.76h-1v-4h1Zm-598.52-2.24h-1v-4h1Zm598.52-5.76h-1v-4h1Zm-598.52-2.24h-1v-4h1Zm598.52-5.76h-1v-4h1Zm-598.52-2.24h-1v-4h1Zm598.52-5.76h-1v-4h1Zm-598.52-2.24h-1v-4h1Zm598.52-5.76h-1v-4h1ZM487.63,95.81h-1v-4h1Zm598.52-5.76h-1v-4h1ZM487.63,87.81h-1v-4h1Zm598.52-5.76h-1v-4h1ZM487.63,79.81h-1v-4h1Zm598.52-5.76h-1v-4h1ZM487.63,71.81h-1v-4h1Zm598.52-5.76h-1v-4h1ZM487.63,63.81h-1v-4h1Zm598.52-5.76h-1v-4h1ZM487.63,55.81h-1v-4h1Zm598.52-5.76h-1v-4h1ZM487.63,47.81h-1v-4h1Zm598.52-5.76h-1v-4h1ZM487.63,39.81h-1v-4h1Zm598.52-5.76h-1V31.21a4.15,4.15,0,0,0-.13-1l1-.25a5.14,5.14,0,0,1,.16,1.27ZM487.63,31.81h-1v-.6a5.26,5.26,0,0,1,1.29-3.44l.76.65a4.27,4.27,0,0,0-1.06,2.79Zm595.25-4.43a6,6,0,0,0-3.18-.89h-4v-1h4a7,7,0,0,1,3.71,1Zm-591.07-.76-.2-1a7.3,7.3,0,0,1,1.47-.15h2.62v1h-2.62A6.26,6.26,0,0,0,491.81,26.63Zm579.89-.13h-4v-1h4Zm-8,0h-4v-1h4Zm-8,0h-4v-1h4Zm-8,0h-4v-1h4Zm-8,0h-4v-1h4Zm-8,0h-4v-1h4Zm-8,0h-4v-1h4Zm-8,0h-4v-1h4Zm-8,0h-4v-1h4Zm-8,0h-4v-1h4Zm-8,0h-4v-1h4Zm-8,0h-4v-1h4Zm-8,0h-4v-1h4Zm-8,0h-4v-1h4Zm-8,0h-4v-1h4Zm-8,0h-4v-1h4Zm-8,0h-4v-1h4Zm-8,0h-4v-1h4Zm-8,0h-4v-1h4Zm-8,0h-4v-1h4Zm-8,0h-4v-1h4Zm-8,0h-4v-1h4Zm-8,0h-4v-1h4Zm-8,0h-4v-1h4Zm-8,0h-4v-1h4Zm-8,0h-4v-1h4Zm-8,0h-4v-1h4Zm-8,0h-4v-1h4Zm-8,0h-4v-1h4Zm-8,0h-4v-1h4Zm-8,0h-4v-1h4Zm-8,0h-4v-1h4Zm-8,0h-4v-1h4Zm-8,0h-4v-1h4Zm-8,0h-4v-1h4Zm-8,0h-4v-1h4Zm-8,0h-4v-1h4Zm-8,0h-4v-1h4Zm-8,0h-4v-1h4Zm-8,0h-4v-1h4Zm-8,0h-4v-1h4Zm-8,0h-4v-1h4Zm-8,0h-4v-1h4Zm-8,0h-4v-1h4Zm-8,0h-4v-1h4Zm-8,0h-4v-1h4Zm-8,0h-4v-1h4Zm-8,0h-4v-1h4Zm-8,0h-4v-1h4Zm-8,0h-4v-1h4Zm-8,0h-4v-1h4Zm-8,0h-4v-1h4Zm-8,0h-4v-1h4Zm-8,0h-4v-1h4Zm-8,0h-4v-1h4Zm-8,0h-4v-1h4Zm-8,0h-4v-1h4Zm-8,0h-4v-1h4Zm-8,0h-4v-1h4Zm-8,0h-4v-1h4Zm-8,0h-4v-1h4Zm-8,0h-4v-1h4Zm-8,0h-4v-1h4Zm-8,0h-4v-1h4Zm-8,0h-4v-1h4Zm-8,0h-4v-1h4Zm-8,0h-4v-1h4Zm-8,0h-4v-1h4Zm-8,0h-4v-1h4Zm-8,0h-4v-1h4Zm-8,0h-4v-1h4Zm-8,0h-4v-1h4Z"/><path class="cls-3" d="M1140.36,346.5h-.94V335.13h.94Z"/><path class="cls-3" d="M1151.92,346.5H1151l-6.46-9.78h0v9.77h-.94V335.13h.94l6.46,9.77h0v-9.76h.93Z"/><path class="cls-3" d="M1162.53,335.92h-3.91V346.5h-.94V335.92h-3.91v-.8h8.77Z"/><path class="cls-3" d="M1170.79,341h-5.48v4.71h6.27v.8h-7.2V335.13h7.16v.8h-6.23v4.27h5.48Z"/><path class="cls-3" d="M1174.51,341.36v5.14h-.93V335.13h3.85a4.32,4.32,0,0,1,2.8.8,2.85,2.85,0,0,1,1,2.34,2.68,2.68,0,0,1-.52,1.62,3,3,0,0,1-1.48,1,2.48,2.48,0,0,1,1.52.95,3,3,0,0,1,.46,1.71v1.07a3.36,3.36,0,0,0,.13,1,1.48,1.48,0,0,0,.41.69v.19h-1a1.56,1.56,0,0,1-.41-.79,4.67,4.67,0,0,1-.12-1.05v-1a2.11,2.11,0,0,0-.68-1.65,2.73,2.73,0,0,0-1.89-.61Zm0-.8h2.8a3.37,3.37,0,0,0,2.25-.62,2.11,2.11,0,0,0,.71-1.68,2.15,2.15,0,0,0-.71-1.73,3.22,3.22,0,0,0-2.14-.61h-2.92Z"/><path class="cls-3" d="M1192.51,346.5h-.93l-6.46-9.78h0v9.77h-.94V335.13h.94l6.46,9.77h0v-9.76h.93Z"/><path class="cls-3" d="M1201.9,341h-5.48v4.71h6.27v.8h-7.2V335.13h7.16v.8h-6.23v4.27h5.48Z"/><path class="cls-3" d="M1212.34,335.92h-3.91V346.5h-.94V335.92h-3.91v-.8h8.77Z"/><path class="cls-4" d="M1202.71,355H1138.5a25.52,25.52,0,0,1-8.87-49.44,17.43,17.43,0,0,1-1.4-6.87A17.65,17.65,0,0,1,1154,283a33.27,33.27,0,0,1,62.23,16.41c0,.2,0,.4,0,.61a29.16,29.16,0,0,1-13.5,55Zm-56.81-72a15.7,15.7,0,0,0-15.67,15.68,15.52,15.52,0,0,0,1.67,7l.52,1-1.11.36a23.52,23.52,0,0,0,7.2,45.9h64.21a27.16,27.16,0,0,0,12-51.5l-.58-.29,0-.65c0-.39,0-.77,0-1.17a31.27,31.27,0,0,0-59-14.58l-.49.93-.9-.54A15.64,15.64,0,0,0,1145.89,283Z"/><path class="cls-5" d="M751.2,375.25h-3.43v9.53h-1.44v-9.53h-3.42v-1.14h8.29Z"/><path class="cls-5" d="M760.83,384.78h-1.44v-4.71h-5.18v4.71h-1.44V374.12h1.44v4.82h5.18v-4.82h1.44Z"/><path class="cls-5" d="M771.26,374.12v7.23a3.24,3.24,0,0,1-1.13,2.67,4.52,4.52,0,0,1-3,.92,4.26,4.26,0,0,1-2.85-.93,3.29,3.29,0,0,1-1.1-2.66v-7.23h1.44v7.22a2.35,2.35,0,0,0,.69,1.83,2.6,2.6,0,0,0,1.82.63,2.84,2.84,0,0,0,1.92-.63,2.28,2.28,0,0,0,.73-1.83v-7.22Z"/><path class="cls-5" d="M781.68,384.78h-1.44l-5.13-8.25h0v8.23h-1.44V374.12h1.44l5.13,8.23h0v-8.22h1.44Z"/><path class="cls-5" d="M784.32,384.78V374.12h3.27a4.38,4.38,0,0,1,4.63,4.61v1.46a4.37,4.37,0,0,1-4.63,4.6Zm1.44-9.53v8.39h1.83a2.94,2.94,0,0,0,2.33-1,3.64,3.64,0,0,0,.85-2.5v-1.47a3.62,3.62,0,0,0-.85-2.48,2.94,2.94,0,0,0-2.33-1Z"/><path class="cls-5" d="M800.53,379.84h-4.89v3.81h5.63v1.14H794.2V374.12h7v1.14h-5.55v3.45h4.89Z"/><path class="cls-5" d="M804.41,380.16v4.62H803V374.12h3.86a4.05,4.05,0,0,1,2.67.78,2.78,2.78,0,0,1,.92,2.26,2.41,2.41,0,0,1-.43,1.43,2.9,2.9,0,0,1-1.25,1,2.18,2.18,0,0,1,1.26.93,3,3,0,0,1,.38,1.59v1a3.38,3.38,0,0,0,.11.89,1.36,1.36,0,0,0,.38.64v.18h-1.49A1.19,1.19,0,0,1,809,384a6,6,0,0,1-.08-1v-1a1.93,1.93,0,0,0-.5-1.39,1.79,1.79,0,0,0-1.35-.53Zm0-1.14h2.27a2.68,2.68,0,0,0,1.76-.46,1.76,1.76,0,0,0,.54-1.41,1.82,1.82,0,0,0-.52-1.39,2.31,2.31,0,0,0-1.63-.49h-2.42Z"/><path class="cls-5" d="M824.17,381.36v0a3.21,3.21,0,0,1-1.05,2.52,4,4,0,0,1-2.86,1,3.76,3.76,0,0,1-2.95-1.28,4.72,4.72,0,0,1-1.14-3.25v-1.9a4.73,4.73,0,0,1,1.14-3.26,3.75,3.75,0,0,1,2.95-1.29,4.14,4.14,0,0,1,2.88,1,3.18,3.18,0,0,1,1,2.55v0h-1.38a2.38,2.38,0,0,0-.66-1.77,2.53,2.53,0,0,0-1.86-.65,2.27,2.27,0,0,0-1.93,1,4,4,0,0,0-.72,2.42v1.91a4,4,0,0,0,.72,2.43,2.27,2.27,0,0,0,1.93,1,2.54,2.54,0,0,0,1.86-.65,2.4,2.4,0,0,0,.66-1.79Z"/><path class="cls-5" d="M832.44,380.06h-4.86v4.72h-1.44V374.12h7.05v1.14h-5.61v3.68h4.86Z"/><path class="cls-5" d="M837,381.09l.2,1.33h0l.29-1.34,2-7h1.27l2,7,.29,1.37h0l.21-1.37,1.59-7h1.44l-2.57,10.66h-1.29l-2.1-7.4-.19-1h0l-.18,1-2.14,7.4h-1.29l-2.56-10.66h1.44Z"/><path class="cls-5" d="M709.58,60.4a5.46,5.46,0,0,1-2.12,1.72,8.42,8.42,0,0,1-3.9.79,6.93,6.93,0,0,1-5.06-2,6.77,6.77,0,0,1-2-5.06V52.37a7,7,0,0,1,1.86-5.06,6.34,6.34,0,0,1,4.8-2,6.83,6.83,0,0,1,4.61,1.44,4.78,4.78,0,0,1,1.71,3.71l0,.07h-2.2a3.58,3.58,0,0,0-1.13-2.45,4.17,4.17,0,0,0-3-1A3.87,3.87,0,0,0,700,48.63a5.68,5.68,0,0,0-1.2,3.71v3.54a5.35,5.35,0,0,0,1.34,3.74,4.39,4.39,0,0,0,3.4,1.47,6.24,6.24,0,0,0,2.38-.39,3.33,3.33,0,0,0,1.32-.88V56h-3.74V54.14h6Z"/><path class="cls-5" d="M715.64,46.73h-2.31V44.38h2.31Zm0,15.93h-2.31V50h2.31Z"/><path class="cls-5" d="M719.67,64.13h-2l7.13-18.53h2Z"/><path class="cls-5" d="M738.88,58.36a2.51,2.51,0,0,0-.88-2,7.42,7.42,0,0,0-3.12-1.32,10.32,10.32,0,0,1-4.22-1.9A3.93,3.93,0,0,1,729.14,50a4.15,4.15,0,0,1,1.63-3.34A6.47,6.47,0,0,1,735,45.35a6.3,6.3,0,0,1,4.46,1.54,4.53,4.53,0,0,1,1.6,3.56l0,.07h-2.2a3.17,3.17,0,0,0-1-2.43,4.85,4.85,0,0,0-5.48-.15,2.54,2.54,0,0,0-.92,2,2.24,2.24,0,0,0,1,1.86,9.45,9.45,0,0,0,3.23,1.31,9.23,9.23,0,0,1,4.1,2,4.21,4.21,0,0,1,1.41,3.22,3.93,3.93,0,0,1-1.69,3.32,7.2,7.2,0,0,1-4.41,1.25,7.63,7.63,0,0,1-4.52-1.39,4.19,4.19,0,0,1-1.9-3.71l0-.07h2.2a2.87,2.87,0,0,0,1.21,2.5,5,5,0,0,0,3,.86,4.65,4.65,0,0,0,2.77-.73A2.33,2.33,0,0,0,738.88,58.36Z"/><path class="cls-5" d="M756.91,60.4a5.46,5.46,0,0,1-2.12,1.72,8.42,8.42,0,0,1-3.9.79,6.93,6.93,0,0,1-5.06-2,6.77,6.77,0,0,1-2-5.06V52.37a7,7,0,0,1,1.86-5.06,6.34,6.34,0,0,1,4.8-2,6.83,6.83,0,0,1,4.61,1.44,4.78,4.78,0,0,1,1.71,3.71l0,.07h-2.2a3.58,3.58,0,0,0-1.13-2.45,4.17,4.17,0,0,0-3-1,3.87,3.87,0,0,0-3.15,1.46,5.68,5.68,0,0,0-1.2,3.71v3.54a5.35,5.35,0,0,0,1.34,3.74,4.39,4.39,0,0,0,3.4,1.47,6.24,6.24,0,0,0,2.38-.39,3.33,3.33,0,0,0,1.32-.88V56h-3.74V54.14h6Z"/><path class="cls-5" d="M763,46.73h-2.31V44.38H763Zm0,15.93h-2.31V50H763Z"/><path class="cls-5" d="M783,55.11h-7.78v7.55h-2.31V45.6h11.29v1.82h-9V53.3H783Z"/><path class="cls-5" d="M789.34,62.66H787V45.6h2.32Z"/><path class="cls-5" d="M796,55.27v7.39h-2.31V45.61h6.18a6.48,6.48,0,0,1,4.28,1.24,4.45,4.45,0,0,1,1.48,3.61,3.86,3.86,0,0,1-.69,2.29,4.64,4.64,0,0,1-2,1.55,3.5,3.5,0,0,1,2,1.48,4.85,4.85,0,0,1,.62,2.54v1.61a5.35,5.35,0,0,0,.18,1.43,2.14,2.14,0,0,0,.61,1v.28H804a1.91,1.91,0,0,1-.59-1.17,9.68,9.68,0,0,1-.13-1.59V58.34a3.08,3.08,0,0,0-.81-2.23,2.86,2.86,0,0,0-2.17-.84Zm0-1.82h3.63a4.29,4.29,0,0,0,2.82-.74,2.83,2.83,0,0,0,.86-2.26,2.91,2.91,0,0,0-.84-2.23,3.7,3.7,0,0,0-2.61-.79H796Z"/><path class="cls-5" d="M819.71,54.75H811.9v6.09h9v1.82H809.59V45.6h11.19v1.82H811.9v5.52h7.82Z"/><path class="cls-5" d="M827,56.75l.32,2.13h.07l.46-2.14L831,45.6h2l3.15,11.16.47,2.19h.07l.34-2.19,2.54-11.16h2.31l-4.11,17.06h-2.06l-3.36-11.84-.3-1.54H832l-.29,1.54L828.3,62.66h-2.06l-4.1-17.06h2.3Z"/><path class="cls-5" d="M853.56,58.27h-7.15l-1.62,4.39h-2.36L849,45.6h2l6.49,17.06h-2.36Zm-6.43-1.93h5.74l-2.81-7.77H850Z"/><path class="cls-5" d="M862.16,60.84h8.07v1.82H859.85V45.6h2.31Z"/><path class="cls-5" d="M875.12,60.84h8.07v1.82H872.81V45.6h2.31Z"/><path class="cls-2" d="M718.6,402.44a3.41,3.41,0,0,1-1.32,1.08,5.26,5.26,0,0,1-2.44.49,4.33,4.33,0,0,1-3.16-1.22,4.23,4.23,0,0,1-1.25-3.16v-2.2a4.4,4.4,0,0,1,1.17-3.16,4,4,0,0,1,3-1.22,4.27,4.27,0,0,1,2.88.9,3,3,0,0,1,1.07,2.32v0h-1.38a2.23,2.23,0,0,0-.71-1.53,2.6,2.6,0,0,0-1.85-.6,2.42,2.42,0,0,0-2,.92,3.55,3.55,0,0,0-.75,2.32v2.21a3.34,3.34,0,0,0,.83,2.34,2.74,2.74,0,0,0,2.12.92,3.9,3.9,0,0,0,1.49-.24,2.08,2.08,0,0,0,.83-.55v-2.42h-2.34v-1.13h3.78Z"/><path class="cls-2" d="M722.39,393.9h-1.44v-1.47h1.44Zm0,10h-1.44v-7.92h1.44Z"/><path class="cls-2" d="M724.91,404.77h-1.23l4.45-11.58h1.22Z"/><path class="cls-2" d="M736.91,401.17a1.57,1.57,0,0,0-.55-1.22,4.64,4.64,0,0,0-1.95-.83,6.46,6.46,0,0,1-2.64-1.19,2.46,2.46,0,0,1-.95-2,2.59,2.59,0,0,1,1-2.08,4,4,0,0,1,2.65-.84,3.94,3.94,0,0,1,2.79,1,2.83,2.83,0,0,1,1,2.23v0h-1.38a2,2,0,0,0-.62-1.52,3,3,0,0,0-3.43-.09,1.59,1.59,0,0,0-.57,1.27,1.4,1.4,0,0,0,.62,1.16,5.92,5.92,0,0,0,2,.82,5.77,5.77,0,0,1,2.56,1.23,2.63,2.63,0,0,1,.88,2,2.46,2.46,0,0,1-1.05,2.07,4.5,4.5,0,0,1-2.75.78,4.77,4.77,0,0,1-2.82-.87,2.62,2.62,0,0,1-1.19-2.32v0h1.38a1.79,1.79,0,0,0,.75,1.56,3.15,3.15,0,0,0,1.87.53,2.91,2.91,0,0,0,1.73-.46A1.45,1.45,0,0,0,736.91,401.17Z"/><path class="cls-2" d="M748.19,402.44a3.41,3.41,0,0,1-1.32,1.08,5.26,5.26,0,0,1-2.44.49,4.33,4.33,0,0,1-3.16-1.22,4.23,4.23,0,0,1-1.25-3.16v-2.2a4.4,4.4,0,0,1,1.16-3.16,4,4,0,0,1,3-1.22,4.27,4.27,0,0,1,2.88.9,3,3,0,0,1,1.07,2.32v0h-1.38a2.24,2.24,0,0,0-.71-1.53,2.61,2.61,0,0,0-1.85-.6,2.42,2.42,0,0,0-2,.92,3.55,3.55,0,0,0-.75,2.32v2.21a3.34,3.34,0,0,0,.83,2.34,2.74,2.74,0,0,0,2.12.92,3.89,3.89,0,0,0,1.49-.24,2.08,2.08,0,0,0,.83-.55v-2.42h-2.34v-1.13h3.78Z"/><path class="cls-2" d="M752,393.9h-1.44v-1.47H752Zm0,10h-1.44v-7.92H752Z"/><path class="cls-2" d="M759.63,402.72h5v1.13h-6.49V393.19h1.44Z"/><path class="cls-2" d="M772.07,401.11H767.6l-1,2.75h-1.47l4.12-10.66h1.24l4.06,10.66h-1.47Zm-4-1.21h3.59L769.88,395h0Z"/><path class="cls-2" d="M784.07,403.86h-1.44l-5.13-8.25h0v8.23H776V393.19h1.44l5.13,8.23h0v-8.22h1.44Z"/><path class="cls-2" d="M791.88,399.58v4.28h-1.44V393.19h4.08a3.75,3.75,0,0,1,2.65.88,3.32,3.32,0,0,1,0,4.64,3.77,3.77,0,0,1-2.65.87Zm0-1.13h2.64a2.06,2.06,0,1,0,0-4.12h-2.64Z"/><path class="cls-2" d="M801.48,399.24v4.62H800V393.2h3.86a4.05,4.05,0,0,1,2.67.78,2.78,2.78,0,0,1,.92,2.26,2.41,2.41,0,0,1-.43,1.43,2.9,2.9,0,0,1-1.25,1,2.18,2.18,0,0,1,1.26.93,3,3,0,0,1,.38,1.59v1a3.34,3.34,0,0,0,.11.89,1.34,1.34,0,0,0,.38.64v.18h-1.49a1.19,1.19,0,0,1-.37-.73,6.05,6.05,0,0,1-.08-1v-1a1.93,1.93,0,0,0-.51-1.39,1.79,1.79,0,0,0-1.35-.53Zm0-1.14h2.27a2.68,2.68,0,0,0,1.76-.46,1.77,1.77,0,0,0,.54-1.42,1.82,1.82,0,0,0-.52-1.39,2.31,2.31,0,0,0-1.63-.49h-2.42Z"/><path class="cls-2" d="M818.05,399.48a4.55,4.55,0,0,1-1.21,3.25,4.12,4.12,0,0,1-3.15,1.29,3.9,3.9,0,0,1-3-1.29,4.65,4.65,0,0,1-1.17-3.25v-1.9a4.66,4.66,0,0,1,1.17-3.24,3.89,3.89,0,0,1,3-1.3,4.12,4.12,0,0,1,3.15,1.29,4.57,4.57,0,0,1,1.21,3.25Zm-1.44-1.91a3.6,3.6,0,0,0-.79-2.4,2.64,2.64,0,0,0-2.12-.94,2.44,2.44,0,0,0-2,.94,3.72,3.72,0,0,0-.75,2.4v1.91a3.74,3.74,0,0,0,.75,2.42,2.44,2.44,0,0,0,2,.94,2.64,2.64,0,0,0,2.13-.93,3.63,3.63,0,0,0,.79-2.42Z"/><path class="cls-2" d="M827.43,394.33H824v9.53h-1.44v-9.53h-3.42v-1.13h8.29Z"/><path class="cls-2" d="M835.32,398.91h-4.89v3.81h5.63v1.13H829V393.19h7v1.13h-5.55v3.45h4.89Z"/><path class="cls-2" d="M845.3,400.44v0a3.22,3.22,0,0,1-1.05,2.52,4,4,0,0,1-2.86,1,3.76,3.76,0,0,1-2.95-1.28,4.72,4.72,0,0,1-1.14-3.25v-1.9a4.73,4.73,0,0,1,1.14-3.25,3.76,3.76,0,0,1,2.95-1.29,4.14,4.14,0,0,1,2.88,1,3.18,3.18,0,0,1,1,2.55v0h-1.38a2.38,2.38,0,0,0-.66-1.77,2.54,2.54,0,0,0-1.86-.65,2.27,2.27,0,0,0-1.93,1,4,4,0,0,0-.72,2.42v1.91a4,4,0,0,0,.72,2.43,2.27,2.27,0,0,0,1.93,1,2.54,2.54,0,0,0,1.86-.65,2.39,2.39,0,0,0,.66-1.79Z"/><path class="cls-2" d="M854.48,394.33h-3.43v9.53h-1.44v-9.53h-3.42v-1.13h8.29Z"/><path class="cls-2" d="M857.57,403.86h-1.45V393.19h1.45Z"/><path class="cls-2" d="M868.36,399.48a4.55,4.55,0,0,1-1.21,3.25A4.12,4.12,0,0,1,864,404a3.91,3.91,0,0,1-3-1.29,4.65,4.65,0,0,1-1.17-3.25v-1.9a4.66,4.66,0,0,1,1.17-3.24,3.9,3.9,0,0,1,3-1.3,4.12,4.12,0,0,1,3.15,1.29,4.57,4.57,0,0,1,1.21,3.25Zm-1.44-1.91a3.6,3.6,0,0,0-.79-2.4,2.64,2.64,0,0,0-2.12-.94,2.44,2.44,0,0,0-2,.94,3.72,3.72,0,0,0-.75,2.4v1.91a3.74,3.74,0,0,0,.75,2.42,2.44,2.44,0,0,0,2,.94,2.64,2.64,0,0,0,2.13-.93,3.63,3.63,0,0,0,.79-2.42Z"/><path class="cls-2" d="M878.58,403.86h-1.44L872,395.61h0v8.23h-1.44V393.19H872l5.13,8.23h0v-8.22h1.44Z"/><path class="cls-6" d="M645.31,78.33h-3.43v9.53h-1.44V78.33H637V77.19h8.29Z"/><path class="cls-6" d="M654.94,87.86H653.5V83.15h-5.18v4.71h-1.44V77.19h1.44V82h5.18V77.19h1.44Z"/><path class="cls-6" d="M665.37,77.19v7.23a3.24,3.24,0,0,1-1.13,2.67,4.53,4.53,0,0,1-3,.92,4.27,4.27,0,0,1-2.85-.93,3.29,3.29,0,0,1-1.09-2.66V77.19h1.44v7.22a2.35,2.35,0,0,0,.69,1.83,2.6,2.6,0,0,0,1.82.63,2.84,2.84,0,0,0,1.92-.63,2.28,2.28,0,0,0,.73-1.83V77.19Z"/><path class="cls-6" d="M675.79,87.86h-1.44l-5.13-8.25h0v8.23h-1.44V77.19h1.44l5.13,8.23h0V77.19h1.44Z"/><path class="cls-6" d="M678.43,87.86V77.19h3.27a4.38,4.38,0,0,1,4.63,4.61v1.46a4.37,4.37,0,0,1-4.63,4.6Zm1.44-9.53v8.39h1.83a2.94,2.94,0,0,0,2.33-1,3.65,3.65,0,0,0,.85-2.5V81.78A3.63,3.63,0,0,0,684,79.3a2.94,2.94,0,0,0-2.33-1Z"/><path class="cls-6" d="M694.63,82.91h-4.88v3.81h5.63v1.13h-7.08V77.19h7v1.13h-5.55v3.45h4.88Z"/><path class="cls-6" d="M698.52,83.24v4.62h-1.44V77.2h3.86a4.06,4.06,0,0,1,2.67.78,2.78,2.78,0,0,1,.92,2.26,2.41,2.41,0,0,1-.43,1.43,2.9,2.9,0,0,1-1.25,1,2.18,2.18,0,0,1,1.26.93,3,3,0,0,1,.38,1.59v1a3.34,3.34,0,0,0,.11.89,1.34,1.34,0,0,0,.38.64v.18H703.5a1.19,1.19,0,0,1-.37-.73,6,6,0,0,1-.08-1v-1a1.93,1.93,0,0,0-.5-1.39,1.79,1.79,0,0,0-1.36-.53Zm0-1.14h2.27a2.68,2.68,0,0,0,1.76-.46,1.77,1.77,0,0,0,.54-1.42,1.82,1.82,0,0,0-.52-1.39,2.32,2.32,0,0,0-1.63-.49h-2.42Z"/><path class="cls-6" d="M718.28,84.44v0A3.22,3.22,0,0,1,717.24,87a4,4,0,0,1-2.86,1,3.76,3.76,0,0,1-2.95-1.28,4.71,4.71,0,0,1-1.14-3.25v-1.9a4.72,4.72,0,0,1,1.14-3.25A3.75,3.75,0,0,1,714.37,77a4.14,4.14,0,0,1,2.88,1,3.18,3.18,0,0,1,1,2.55v0h-1.38a2.38,2.38,0,0,0-.66-1.77,2.54,2.54,0,0,0-1.86-.65,2.27,2.27,0,0,0-1.93,1,4,4,0,0,0-.72,2.42v1.91a4,4,0,0,0,.72,2.43,2.27,2.27,0,0,0,1.93,1,2.54,2.54,0,0,0,1.86-.65,2.39,2.39,0,0,0,.66-1.79Z"/><path class="cls-6" d="M726.55,83.14h-4.86v4.72h-1.44V77.19h7.05v1.13h-5.61V82h4.86Z"/><path class="cls-6" d="M731.12,84.17l.2,1.33h0l.29-1.34,2-7h1.27l2,7,.29,1.37h0l.21-1.37,1.59-7h1.44l-2.57,10.66h-1.29l-2.1-7.4-.19-1h0l-.18,1-2.14,7.4h-1.29l-2.56-10.66h1.44Z"/><path class="cls-6" d="M748.09,84.17l.2,1.33h0l.29-1.34,2-7h1.27l2,7,.29,1.37h0l.21-1.37,1.59-7h1.44l-2.57,10.66h-1.29l-2.1-7.4-.19-1h0l-.18,1-2.14,7.4H747.6L745,77.19h1.44Z"/><path class="cls-6" d="M760.73,87.86h-1.45V77.19h1.45Z"/><path class="cls-6" d="M770.67,78.33h-3.43v9.53H765.8V78.33h-3.42V77.19h8.29Z"/><path class="cls-6" d="M780.3,87.86h-1.44V83.15h-5.18v4.71h-1.44V77.19h1.44V82h5.18V77.19h1.44Z"/><path class="cls-6" d="M788.19,87.86h-1.45V77.19h1.45Z"/><path class="cls-6" d="M799,87.86h-1.44l-5.13-8.25h0v8.23H790.9V77.19h1.44l5.13,8.23h0V77.19H799Z"/><path class="cls-6" d="M808.83,78.33H805.4v9.53H804V78.33h-3.42V77.19h8.29Z"/><path class="cls-6" d="M816.72,82.91h-4.89v3.81h5.63v1.13h-7.08V77.19h7v1.13h-5.55v3.45h4.89Z"/><path class="cls-6" d="M826.89,86.44a3.41,3.41,0,0,1-1.32,1.08,5.26,5.26,0,0,1-2.44.49A4.33,4.33,0,0,1,820,86.79a4.23,4.23,0,0,1-1.25-3.16v-2.2a4.4,4.4,0,0,1,1.17-3.16,4,4,0,0,1,3-1.22,4.27,4.27,0,0,1,2.88.9,3,3,0,0,1,1.07,2.32v0h-1.38a2.23,2.23,0,0,0-.71-1.53,2.6,2.6,0,0,0-1.85-.6,2.42,2.42,0,0,0-2,.92,3.55,3.55,0,0,0-.75,2.32v2.21A3.34,3.34,0,0,0,821,86a2.74,2.74,0,0,0,2.12.92,3.9,3.9,0,0,0,1.49-.24,2.08,2.08,0,0,0,.83-.55V83.67h-2.34V82.53h3.78Z"/><path class="cls-6" d="M830.83,83.24v4.62h-1.44V77.2h3.86a4.05,4.05,0,0,1,2.67.78,2.78,2.78,0,0,1,.92,2.26,2.41,2.41,0,0,1-.43,1.43,2.9,2.9,0,0,1-1.25,1,2.18,2.18,0,0,1,1.26.93,3,3,0,0,1,.38,1.59v1a3.34,3.34,0,0,0,.11.89,1.34,1.34,0,0,0,.38.64v.18h-1.49a1.19,1.19,0,0,1-.37-.73,6.05,6.05,0,0,1-.08-1v-1a1.93,1.93,0,0,0-.51-1.39,1.79,1.79,0,0,0-1.35-.53Zm0-1.14h2.27a2.68,2.68,0,0,0,1.76-.46,1.77,1.77,0,0,0,.54-1.42,1.82,1.82,0,0,0-.52-1.39,2.31,2.31,0,0,0-1.63-.49h-2.42Z"/><path class="cls-6" d="M845.1,85.11h-4.47l-1,2.75h-1.47l4.12-10.66h1.24l4.06,10.66H846.1Zm-4-1.21h3.59L842.91,79h0Z"/><path class="cls-6" d="M856.26,78.33h-3.43v9.53h-1.44V78.33H848V77.19h8.29Z"/><path class="cls-6" d="M864.15,82.91h-4.89v3.81h5.63v1.13h-7.08V77.19h7v1.13h-5.55v3.45h4.89Z"/><path class="cls-6" d="M866.59,87.86V77.19h3.27a4.38,4.38,0,0,1,4.63,4.61v1.46a4.37,4.37,0,0,1-4.63,4.6ZM868,78.33v8.39h1.83a2.94,2.94,0,0,0,2.33-1,3.64,3.64,0,0,0,.85-2.5V81.78a3.62,3.62,0,0,0-.85-2.48,2.94,2.94,0,0,0-2.33-1Z"/><path class="cls-6" d="M886.51,83.14h-4.86v4.72H880.2V77.19h7.05v1.13h-5.61V82h4.86Z"/><path class="cls-6" d="M890.46,87.86H889V77.19h1.45Z"/><path class="cls-6" d="M894.62,83.24v4.62h-1.44V77.2H897a4.05,4.05,0,0,1,2.67.78,2.78,2.78,0,0,1,.92,2.26,2.41,2.41,0,0,1-.43,1.43,2.9,2.9,0,0,1-1.25,1,2.18,2.18,0,0,1,1.26.93,3,3,0,0,1,.38,1.59v1a3.34,3.34,0,0,0,.11.89,1.34,1.34,0,0,0,.38.64v.18h-1.49a1.19,1.19,0,0,1-.37-.73,6.05,6.05,0,0,1-.08-1v-1a1.93,1.93,0,0,0-.51-1.39,1.79,1.79,0,0,0-1.35-.53Zm0-1.14h2.27a2.68,2.68,0,0,0,1.76-.46,1.77,1.77,0,0,0,.54-1.42,1.82,1.82,0,0,0-.52-1.39,2.31,2.31,0,0,0-1.63-.49h-2.42Z"/><path class="cls-6" d="M909.45,82.91h-4.89v3.81h5.63v1.13h-7.08V77.19h7v1.13h-5.55v3.45h4.89Z"/><path class="cls-6" d="M914,84.17l.2,1.33h0l.29-1.34,2-7h1.27l2,7,.29,1.37h0l.21-1.37,1.59-7h1.44l-2.57,10.66h-1.29l-2.1-7.4-.19-1h0l-.18,1-2.14,7.4h-1.29L911,77.19h1.44Z"/><path class="cls-6" d="M930.91,85.11h-4.47l-1,2.75H924l4.12-10.66h1.24l4.06,10.66h-1.47Zm-4-1.21h3.59L928.72,79h0Z"/><path class="cls-6" d="M936.29,86.72h5v1.13h-6.49V77.19h1.44Z"/><path class="cls-6" d="M944.39,86.72h5v1.13h-6.49V77.19h1.44Z"/><path class="cls-6" d="M952,87.51l-1.1,2.24h-.86l.51-2.31V86.24H952Z"/><path class="cls-6" d="M704.64,102.44v0A3.22,3.22,0,0,1,703.6,105a4,4,0,0,1-2.86,1,3.76,3.76,0,0,1-2.95-1.28,4.72,4.72,0,0,1-1.14-3.25v-1.9a4.73,4.73,0,0,1,1.14-3.25A3.76,3.76,0,0,1,700.74,95a4.14,4.14,0,0,1,2.88,1,3.18,3.18,0,0,1,1,2.55v0h-1.38a2.38,2.38,0,0,0-.66-1.77,2.54,2.54,0,0,0-1.86-.65,2.27,2.27,0,0,0-1.93,1,4,4,0,0,0-.72,2.42v1.91a4,4,0,0,0,.72,2.43,2.27,2.27,0,0,0,1.93,1,2.54,2.54,0,0,0,1.86-.65,2.39,2.39,0,0,0,.66-1.79Z"/><path class="cls-6" d="M714.33,104.44a3.41,3.41,0,0,1-1.32,1.08,5.26,5.26,0,0,1-2.44.49,4.33,4.33,0,0,1-3.16-1.22,4.23,4.23,0,0,1-1.25-3.16v-2.2a4.4,4.4,0,0,1,1.16-3.16,4,4,0,0,1,3-1.22,4.27,4.27,0,0,1,2.88.9,3,3,0,0,1,1.07,2.32v0h-1.38a2.24,2.24,0,0,0-.71-1.53,2.61,2.61,0,0,0-1.85-.6,2.42,2.42,0,0,0-2,.92,3.55,3.55,0,0,0-.75,2.32v2.21a3.34,3.34,0,0,0,.83,2.34,2.74,2.74,0,0,0,2.12.92,3.89,3.89,0,0,0,1.49-.24,2.08,2.08,0,0,0,.83-.55v-2.42h-2.34v-1.13h3.78Z"/><path class="cls-6" d="M724.89,105.86h-1.44l-5.13-8.25h0v8.23h-1.44V95.19h1.44l5.13,8.23h0V95.19h1.44Z"/><path class="cls-6" d="M733.31,103.11h-4.47l-1,2.75h-1.47l4.12-10.66h1.24l4.06,10.66h-1.47Zm-4-1.21h3.59L731.12,97h0Z"/><path class="cls-6" d="M744.46,96.33H741v9.53h-1.44V96.33h-3.42V95.19h8.29Z"/><path class="cls-6" d="M748.91,103a2.48,2.48,0,0,1,.52-1.56,6.29,6.29,0,0,1,1.54-1.34,7.49,7.49,0,0,1-.85-1.29,2.63,2.63,0,0,1-.28-1.17,2.49,2.49,0,0,1,.71-1.91,2.76,2.76,0,0,1,2-.67,2.67,2.67,0,0,1,1.88.67,2.1,2.1,0,0,1,.72,1.6,2,2,0,0,1-.38,1.24,5.25,5.25,0,0,1-1.14,1.07l-.8.59,2.49,3a4.13,4.13,0,0,0,.47-1.05,4.35,4.35,0,0,0,.17-1.22h1.29a5.4,5.4,0,0,1-.29,1.79,4.69,4.69,0,0,1-.83,1.47l1.36,1.63v0h-1.68l-.62-.75a4.41,4.41,0,0,1-1.3.67,4.72,4.72,0,0,1-1.47.23,3.65,3.65,0,0,1-2.53-.84A2.79,2.79,0,0,1,748.91,103Zm3.47,1.89a3.14,3.14,0,0,0,1-.18,3.67,3.67,0,0,0,1-.52L751.75,101l-.29.21a2.78,2.78,0,0,0-.88,1,1.93,1.93,0,0,0-.22.82,1.87,1.87,0,0,0,.52,1.36A2,2,0,0,0,752.38,104.88Zm-1.1-7.27a1.9,1.9,0,0,0,.2.81,4.79,4.79,0,0,0,.59.92l1-.7a1.53,1.53,0,0,0,.57-.6,1.71,1.71,0,0,0,.15-.72,1.07,1.07,0,0,0-.36-.79,1.28,1.28,0,0,0-.93-.34,1.09,1.09,0,0,0-.92.41A1.6,1.6,0,0,0,751.28,97.6Z"/><path class="cls-6" d="M762.83,105.86V95.19h3.27a4.38,4.38,0,0,1,4.63,4.61v1.46a4.37,4.37,0,0,1-4.63,4.6Zm1.44-9.53v8.39h1.83a2.94,2.94,0,0,0,2.33-1,3.64,3.64,0,0,0,.85-2.5V99.78a3.62,3.62,0,0,0-.85-2.48,2.94,2.94,0,0,0-2.33-1Z"/><path class="cls-6" d="M772.71,105.86V95.19H776a4.38,4.38,0,0,1,4.63,4.61v1.46a4.37,4.37,0,0,1-4.63,4.6Zm1.44-9.53v8.39H776a2.94,2.94,0,0,0,2.33-1,3.65,3.65,0,0,0,.85-2.5V99.78a3.63,3.63,0,0,0-.85-2.48,2.94,2.94,0,0,0-2.33-1Z"/><path class="cls-6" d="M782,101.82a4.37,4.37,0,0,1,1-2.9,3.53,3.53,0,0,1,5.19,0,4.35,4.35,0,0,1,1,2.9V102a4.34,4.34,0,0,1-1,2.9,3.54,3.54,0,0,1-5.19,0,4.34,4.34,0,0,1-1-2.9Zm1.44.16a3.74,3.74,0,0,0,.53,2.08,1.92,1.92,0,0,0,3.15,0,3.73,3.73,0,0,0,.54-2.08v-.16a3.72,3.72,0,0,0-.54-2.07,1.76,1.76,0,0,0-1.58-.83,1.74,1.74,0,0,0-1.56.83,3.75,3.75,0,0,0-.53,2.07Z"/><path class="cls-6" d="M796.93,103.17a1.57,1.57,0,0,0-.55-1.22,4.64,4.64,0,0,0-1.95-.83,6.46,6.46,0,0,1-2.64-1.19,2.46,2.46,0,0,1-.95-2,2.59,2.59,0,0,1,1-2.08,4,4,0,0,1,2.65-.84,3.94,3.94,0,0,1,2.79,1,2.83,2.83,0,0,1,1,2.23v0h-1.38a2,2,0,0,0-.62-1.52,3,3,0,0,0-3.43-.09,1.59,1.59,0,0,0-.57,1.27,1.4,1.4,0,0,0,.62,1.16,5.92,5.92,0,0,0,2,.82,5.77,5.77,0,0,1,2.56,1.23,2.63,2.63,0,0,1,.88,2,2.46,2.46,0,0,1-1.05,2.07,4.5,4.5,0,0,1-2.75.78,4.77,4.77,0,0,1-2.82-.87,2.62,2.62,0,0,1-1.19-2.32v0h1.38a1.79,1.79,0,0,0,.75,1.56,3.15,3.15,0,0,0,1.87.53,2.91,2.91,0,0,0,1.73-.46A1.45,1.45,0,0,0,796.93,103.17Z"/><path class="cls-6" d="M805.64,101.58v4.28H804.2V95.19h4.08a3.75,3.75,0,0,1,2.65.88,3.32,3.32,0,0,1,0,4.64,3.77,3.77,0,0,1-2.65.87Zm0-1.13h2.64a2.06,2.06,0,1,0,0-4.12h-2.64Z"/><path class="cls-6" d="M815.25,101.24v4.62h-1.44V95.2h3.86a4.05,4.05,0,0,1,2.67.78,2.78,2.78,0,0,1,.92,2.26,2.41,2.41,0,0,1-.43,1.43,2.9,2.9,0,0,1-1.25,1,2.18,2.18,0,0,1,1.26.93,3,3,0,0,1,.38,1.59v1a3.34,3.34,0,0,0,.11.89,1.34,1.34,0,0,0,.38.64v.18h-1.49a1.19,1.19,0,0,1-.37-.73,6.05,6.05,0,0,1-.08-1v-1a1.93,1.93,0,0,0-.51-1.39,1.79,1.79,0,0,0-1.35-.53Zm0-1.14h2.27a2.68,2.68,0,0,0,1.76-.46,1.77,1.77,0,0,0,.54-1.42,1.82,1.82,0,0,0-.52-1.39,2.31,2.31,0,0,0-1.63-.49h-2.42Z"/><path class="cls-6" d="M831.82,101.48a4.55,4.55,0,0,1-1.21,3.25,4.12,4.12,0,0,1-3.15,1.29,3.9,3.9,0,0,1-3-1.29,4.65,4.65,0,0,1-1.17-3.25v-1.9a4.66,4.66,0,0,1,1.17-3.24,3.89,3.89,0,0,1,3-1.3,4.12,4.12,0,0,1,3.15,1.29,4.57,4.57,0,0,1,1.21,3.25Zm-1.44-1.91a3.6,3.6,0,0,0-.79-2.4,2.64,2.64,0,0,0-2.12-.94,2.44,2.44,0,0,0-2,.94,3.72,3.72,0,0,0-.75,2.4v1.91a3.74,3.74,0,0,0,.75,2.42,2.44,2.44,0,0,0,2,.94,2.64,2.64,0,0,0,2.13-.93,3.63,3.63,0,0,0,.79-2.42Z"/><path class="cls-6" d="M841.2,96.33h-3.43v9.53h-1.44V96.33h-3.42V95.19h8.29Z"/><path class="cls-6" d="M849.09,100.91h-4.89v3.81h5.63v1.13h-7.08V95.19h7v1.13h-5.55v3.45h4.89Z"/><path class="cls-6" d="M859.07,102.44v0A3.22,3.22,0,0,1,858,105a4,4,0,0,1-2.86,1,3.76,3.76,0,0,1-2.95-1.28,4.72,4.72,0,0,1-1.14-3.25v-1.9a4.73,4.73,0,0,1,1.14-3.25A3.76,3.76,0,0,1,855.16,95,4.14,4.14,0,0,1,858,96a3.18,3.18,0,0,1,1,2.55v0h-1.38a2.38,2.38,0,0,0-.66-1.77,2.54,2.54,0,0,0-1.86-.65,2.27,2.27,0,0,0-1.93,1,4,4,0,0,0-.72,2.42v1.91a4,4,0,0,0,.72,2.43,2.27,2.27,0,0,0,1.93,1,2.54,2.54,0,0,0,1.86-.65,2.39,2.39,0,0,0,.66-1.79Z"/><path class="cls-6" d="M868.25,96.33h-3.43v9.53h-1.44V96.33H860V95.19h8.29Z"/><path class="cls-6" d="M871.34,105.86h-1.45V95.19h1.45Z"/><path class="cls-6" d="M882.13,101.48a4.55,4.55,0,0,1-1.21,3.25,4.12,4.12,0,0,1-3.15,1.29,3.91,3.91,0,0,1-3-1.29,4.65,4.65,0,0,1-1.17-3.25v-1.9a4.66,4.66,0,0,1,1.17-3.24,3.9,3.9,0,0,1,3-1.3,4.12,4.12,0,0,1,3.15,1.29,4.57,4.57,0,0,1,1.21,3.25Zm-1.44-1.91a3.6,3.6,0,0,0-.79-2.4,2.64,2.64,0,0,0-2.12-.94,2.44,2.44,0,0,0-2,.94,3.72,3.72,0,0,0-.75,2.4v1.91a3.74,3.74,0,0,0,.75,2.42,2.44,2.44,0,0,0,2,.94,2.64,2.64,0,0,0,2.13-.93,3.63,3.63,0,0,0,.79-2.42Z"/><path class="cls-6" d="M892.35,105.86h-1.44l-5.13-8.25h0v8.23h-1.44V95.19h1.44l5.13,8.23h0V95.19h1.44Z"/><path class="cls-3" d="M391.41,378h-4.89v3.81h5.63v1.14h-7.08V372.28h7v1.14h-5.55v3.45h4.89Z"/><path class="cls-3" d="M397,380.29l.24.84h0l.24-.84,2.75-8h1.56l-4,10.66h-1.24l-4-10.66h1.57Z"/><path class="cls-3" d="M411.31,378.56a4.55,4.55,0,0,1-1.21,3.24,4.12,4.12,0,0,1-3.15,1.29,3.91,3.91,0,0,1-3-1.29,4.65,4.65,0,0,1-1.17-3.24v-1.9a4.66,4.66,0,0,1,1.17-3.24,3.9,3.9,0,0,1,3-1.3,4.12,4.12,0,0,1,3.15,1.29,4.57,4.57,0,0,1,1.21,3.25Zm-1.44-1.91a3.6,3.6,0,0,0-.79-2.4,2.64,2.64,0,0,0-2.12-.94,2.44,2.44,0,0,0-2,.94,3.72,3.72,0,0,0-.75,2.4v1.91a3.74,3.74,0,0,0,.75,2.42,2.44,2.44,0,0,0,2,.94,2.64,2.64,0,0,0,2.13-.93,3.63,3.63,0,0,0,.79-2.42Z"/><path class="cls-3" d="M414.91,381.8h5v1.14h-6.49V372.28h1.44Z"/><path class="cls-3" d="M423.23,380.29l.24.84h0l.24-.84,2.75-8h1.56l-4,10.66h-1.24l-4-10.66h1.57Z"/><path class="cls-3" d="M435.88,378H431v3.81h5.63v1.14h-7.08V372.28h7v1.14H431v3.45h4.89Z"/><path class="cls-3" d="M438.32,382.94V372.28h3.27a4.38,4.38,0,0,1,4.63,4.61v1.46a4.37,4.37,0,0,1-4.63,4.6Zm1.44-9.53v8.39h1.83a2.94,2.94,0,0,0,2.33-1,3.65,3.65,0,0,0,.85-2.5v-1.47a3.63,3.63,0,0,0-.85-2.48,2.94,2.94,0,0,0-2.33-1Z"/><path class="cls-3" d="M348.86,396.66v4.28h-1.44V390.28h4.08a3.75,3.75,0,0,1,2.65.88,3.32,3.32,0,0,1,0,4.64,3.77,3.77,0,0,1-2.65.87Zm0-1.14h2.64a2.11,2.11,0,0,0,1.61-3.52,2.07,2.07,0,0,0-1.61-.59h-2.64Z"/><path class="cls-3" d="M361.51,398.19H357l-1,2.75h-1.47l4.12-10.66h1.24L364,400.94H362.5Zm-4-1.21h3.59l-1.76-4.86h0Z"/><path class="cls-3" d="M373,397.52v0a3.21,3.21,0,0,1-1.05,2.52,4,4,0,0,1-2.86,1,3.76,3.76,0,0,1-2.95-1.28,4.71,4.71,0,0,1-1.14-3.25v-1.9a4.73,4.73,0,0,1,1.14-3.26,3.76,3.76,0,0,1,2.95-1.29,4.14,4.14,0,0,1,2.88,1,3.18,3.18,0,0,1,1,2.55v0h-1.38a2.38,2.38,0,0,0-.66-1.77,2.53,2.53,0,0,0-1.86-.65,2.27,2.27,0,0,0-1.93,1,4,4,0,0,0-.72,2.42v1.91a4,4,0,0,0,.72,2.43,2.27,2.27,0,0,0,1.93,1,2.54,2.54,0,0,0,1.86-.65,2.4,2.4,0,0,0,.66-1.79Z"/><path class="cls-3" d="M377.63,396.13h-1.25v4.81h-1.44V390.28h1.44V395h1.11l3.82-4.72h1.6l0,0-4.14,5.12,4.44,5.47,0,0h-1.72Z"/><path class="cls-3" d="M390.91,396H386v3.81h5.63v1.14h-7.08V390.28h7v1.14H386v3.45h4.89Z"/><path class="cls-3" d="M400.72,391.41h-3.43v9.53h-1.44v-9.53h-3.42v-1.14h8.29Z"/><path class="cls-3" d="M413.55,397.52v0a3.21,3.21,0,0,1-1.05,2.52,4,4,0,0,1-2.86,1,3.76,3.76,0,0,1-2.95-1.28,4.71,4.71,0,0,1-1.14-3.25v-1.9a4.73,4.73,0,0,1,1.14-3.26,3.76,3.76,0,0,1,2.95-1.29,4.14,4.14,0,0,1,2.88,1,3.18,3.18,0,0,1,1,2.55v0h-1.38a2.38,2.38,0,0,0-.66-1.77,2.53,2.53,0,0,0-1.86-.65,2.27,2.27,0,0,0-1.93,1,4,4,0,0,0-.72,2.42v1.91a4,4,0,0,0,.72,2.43,2.27,2.27,0,0,0,1.93,1,2.54,2.54,0,0,0,1.86-.65,2.4,2.4,0,0,0,.66-1.79Z"/><path class="cls-3" d="M423.59,396.56a4.55,4.55,0,0,1-1.21,3.24,4.12,4.12,0,0,1-3.15,1.29,3.91,3.91,0,0,1-3-1.29,4.65,4.65,0,0,1-1.17-3.24v-1.9a4.66,4.66,0,0,1,1.17-3.24,3.9,3.9,0,0,1,3-1.3,4.12,4.12,0,0,1,3.15,1.29,4.57,4.57,0,0,1,1.21,3.25Zm-1.44-1.91a3.6,3.6,0,0,0-.79-2.4,2.64,2.64,0,0,0-2.12-.94,2.44,2.44,0,0,0-2,.94,3.72,3.72,0,0,0-.75,2.4v1.91a3.74,3.74,0,0,0,.75,2.42,2.44,2.44,0,0,0,2,.94,2.64,2.64,0,0,0,2.13-.93,3.63,3.63,0,0,0,.79-2.42Z"/><path class="cls-3" d="M427.18,396.32v4.62h-1.44V390.28h3.86a4.05,4.05,0,0,1,2.67.78,2.78,2.78,0,0,1,.92,2.26,2.41,2.41,0,0,1-.43,1.43,2.9,2.9,0,0,1-1.25,1,2.18,2.18,0,0,1,1.26.93,3,3,0,0,1,.38,1.59v1a3.34,3.34,0,0,0,.11.89,1.34,1.34,0,0,0,.38.64v.18h-1.49a1.19,1.19,0,0,1-.37-.73,6.05,6.05,0,0,1-.08-1v-1a1.93,1.93,0,0,0-.51-1.39,1.79,1.79,0,0,0-1.35-.53Zm0-1.14h2.27a2.68,2.68,0,0,0,1.76-.46,1.76,1.76,0,0,0,.54-1.41,1.82,1.82,0,0,0-.52-1.39,2.31,2.31,0,0,0-1.63-.49h-2.42Z"/><path class="cls-3" d="M442,396h-4.89v3.81h5.63v1.14h-7.08V390.28h7v1.14h-5.55v3.45H442Z"/><path class="cls-3" d="M447.82,396.61a9.8,9.8,0,0,1,1.16-4.93,6.74,6.74,0,0,1,2.45-2.72h0l.28.85a6.24,6.24,0,0,0-1.75,2.51,10.81,10.81,0,0,0-.74,4.27v.1A10.87,10.87,0,0,0,450,401a6.8,6.8,0,0,0,1.75,2.58l-.28.79h0a6.74,6.74,0,0,1-2.45-2.72,9.8,9.8,0,0,1-1.16-4.93Z"/><path class="cls-3" d="M459.48,396h-4.89v3.81h5.63v1.14h-7.08V390.28h7v1.14h-5.55v3.45h4.89Z"/><path class="cls-3" d="M463.36,396.66v4.28h-1.44V390.28H466a3.75,3.75,0,0,1,2.65.88,3.32,3.32,0,0,1,0,4.64,3.77,3.77,0,0,1-2.65.87Zm0-1.14H466a2.11,2.11,0,0,0,1.61-3.52,2.07,2.07,0,0,0-1.61-.59h-2.64Z"/><path class="cls-3" d="M479.06,397.52v0a3.21,3.21,0,0,1-1.05,2.52,4,4,0,0,1-2.86,1,3.76,3.76,0,0,1-2.95-1.28,4.71,4.71,0,0,1-1.14-3.25v-1.9a4.73,4.73,0,0,1,1.14-3.26,3.76,3.76,0,0,1,2.95-1.29,4.14,4.14,0,0,1,2.88,1,3.18,3.18,0,0,1,1,2.55v0h-1.38a2.38,2.38,0,0,0-.66-1.77,2.53,2.53,0,0,0-1.86-.65,2.27,2.27,0,0,0-1.93,1,4,4,0,0,0-.72,2.42v1.91a4,4,0,0,0,.72,2.43,2.27,2.27,0,0,0,1.93,1,2.54,2.54,0,0,0,1.86-.65,2.4,2.4,0,0,0,.66-1.79Z"/><path class="cls-3" d="M483.49,396.68a9.77,9.77,0,0,1-1.17,4.93,6.79,6.79,0,0,1-2.44,2.72h0l-.28-.79A6.24,6.24,0,0,0,481.3,401a11,11,0,0,0,.75-4.32v-.1a10.66,10.66,0,0,0-.77-4.27,7.07,7.07,0,0,0-1.72-2.57l.28-.79h0a6.79,6.79,0,0,1,2.44,2.72,9.78,9.78,0,0,1,1.17,4.93Z"/><path class="cls-3" d="M183.26,378.32v4.62h-1.44V372.28h3.86a4.05,4.05,0,0,1,2.67.78,2.78,2.78,0,0,1,.92,2.26,2.41,2.41,0,0,1-.43,1.43,2.9,2.9,0,0,1-1.25,1,2.18,2.18,0,0,1,1.26.93,3,3,0,0,1,.38,1.59v1a3.34,3.34,0,0,0,.11.89,1.34,1.34,0,0,0,.38.64v.18h-1.49a1.19,1.19,0,0,1-.37-.73,6.05,6.05,0,0,1-.08-1v-1a1.93,1.93,0,0,0-.51-1.39,1.79,1.79,0,0,0-1.35-.53Zm0-1.14h2.27a2.68,2.68,0,0,0,1.76-.46,1.76,1.76,0,0,0,.54-1.41,1.82,1.82,0,0,0-.52-1.39,2.31,2.31,0,0,0-1.63-.49h-2.42Z"/><path class="cls-3" d="M197.54,380.19h-4.47l-1,2.75h-1.47l4.12-10.66h1.24L200,382.94h-1.47Zm-4-1.21h3.59l-1.76-4.86h0Z"/><path class="cls-3" d="M201.47,382.94V372.28h3.27a4.38,4.38,0,0,1,4.63,4.61v1.46a4.37,4.37,0,0,1-4.63,4.6Zm1.44-9.53v8.39h1.83a2.94,2.94,0,0,0,2.33-1,3.65,3.65,0,0,0,.85-2.5v-1.47a3.63,3.63,0,0,0-.85-2.48,2.94,2.94,0,0,0-2.33-1Z"/><path class="cls-3" d="M212.88,382.94h-1.45V372.28h1.45Z"/><path class="cls-3" d="M223.66,378.56a4.55,4.55,0,0,1-1.21,3.24,4.12,4.12,0,0,1-3.15,1.29,3.91,3.91,0,0,1-3-1.29,4.65,4.65,0,0,1-1.17-3.24v-1.9a4.66,4.66,0,0,1,1.17-3.24,3.9,3.9,0,0,1,3-1.3,4.12,4.12,0,0,1,3.15,1.29,4.57,4.57,0,0,1,1.21,3.25Zm-1.44-1.91a3.6,3.6,0,0,0-.79-2.4,2.64,2.64,0,0,0-2.12-.94,2.44,2.44,0,0,0-2,.94,3.72,3.72,0,0,0-.75,2.4v1.91a3.74,3.74,0,0,0,.75,2.42,2.44,2.44,0,0,0,2,.94,2.64,2.64,0,0,0,2.13-.93,3.63,3.63,0,0,0,.79-2.42Z"/><path class="cls-3" d="M235.32,380.19h-4.47l-1,2.75h-1.47l4.12-10.66h1.24l4.06,10.66h-1.47Zm-4-1.21h3.59l-1.76-4.86h0Z"/><path class="cls-3" d="M246.79,379.52v0a3.21,3.21,0,0,1-1.05,2.52,4,4,0,0,1-2.86,1,3.76,3.76,0,0,1-2.95-1.28,4.71,4.71,0,0,1-1.14-3.25v-1.9a4.73,4.73,0,0,1,1.14-3.26,3.76,3.76,0,0,1,2.95-1.29,4.14,4.14,0,0,1,2.88,1,3.18,3.18,0,0,1,1,2.55v0h-1.38a2.38,2.38,0,0,0-.66-1.77,2.53,2.53,0,0,0-1.86-.65,2.27,2.27,0,0,0-1.93,1,4,4,0,0,0-.72,2.42v1.91A4,4,0,0,0,241,381a2.27,2.27,0,0,0,1.93,1,2.54,2.54,0,0,0,1.86-.65,2.4,2.4,0,0,0,.66-1.79Z"/><path class="cls-3" d="M256.29,379.52v0a3.21,3.21,0,0,1-1.05,2.52,4,4,0,0,1-2.86,1,3.76,3.76,0,0,1-2.95-1.28,4.71,4.71,0,0,1-1.14-3.25v-1.9a4.73,4.73,0,0,1,1.14-3.26,3.76,3.76,0,0,1,2.95-1.29,4.14,4.14,0,0,1,2.88,1,3.18,3.18,0,0,1,1,2.55v0h-1.38a2.38,2.38,0,0,0-.66-1.77,2.53,2.53,0,0,0-1.86-.65,2.27,2.27,0,0,0-1.93,1,4,4,0,0,0-.72,2.42v1.91a4,4,0,0,0,.72,2.43,2.27,2.27,0,0,0,1.93,1,2.54,2.54,0,0,0,1.86-.65,2.4,2.4,0,0,0,.66-1.79Z"/><path class="cls-3" d="M264.58,378H259.7v3.81h5.63v1.14h-7.08V372.28h7v1.14H259.7v3.45h4.89Z"/><path class="cls-3" d="M272.83,380.25a1.57,1.57,0,0,0-.55-1.22,4.64,4.64,0,0,0-1.95-.83,6.44,6.44,0,0,1-2.64-1.19,2.46,2.46,0,0,1-.95-2,2.59,2.59,0,0,1,1-2.08,4,4,0,0,1,2.65-.84,3.94,3.94,0,0,1,2.79,1,2.83,2.83,0,0,1,1,2.23v0h-1.38a2,2,0,0,0-.62-1.52,3,3,0,0,0-3.43-.09,1.59,1.59,0,0,0-.57,1.27,1.4,1.4,0,0,0,.62,1.16,5.91,5.91,0,0,0,2,.82,5.77,5.77,0,0,1,2.56,1.23,2.63,2.63,0,0,1,.88,2,2.46,2.46,0,0,1-1.05,2.07,4.5,4.5,0,0,1-2.75.78,4.77,4.77,0,0,1-2.82-.87,2.62,2.62,0,0,1-1.19-2.32v0h1.38a1.79,1.79,0,0,0,.75,1.56,3.15,3.15,0,0,0,1.87.53,2.91,2.91,0,0,0,1.73-.46A1.46,1.46,0,0,0,272.83,380.25Z"/><path class="cls-3" d="M282.19,380.25a1.57,1.57,0,0,0-.55-1.22,4.64,4.64,0,0,0-1.95-.83A6.44,6.44,0,0,1,277,377a2.46,2.46,0,0,1-.95-2,2.59,2.59,0,0,1,1-2.08,4,4,0,0,1,2.65-.84,3.94,3.94,0,0,1,2.79,1,2.83,2.83,0,0,1,1,2.23v0h-1.38a2,2,0,0,0-.62-1.52,3,3,0,0,0-3.43-.09,1.59,1.59,0,0,0-.57,1.27,1.4,1.4,0,0,0,.62,1.16,5.91,5.91,0,0,0,2,.82,5.77,5.77,0,0,1,2.56,1.23,2.63,2.63,0,0,1,.88,2,2.46,2.46,0,0,1-1.05,2.07,4.5,4.5,0,0,1-2.75.78,4.77,4.77,0,0,1-2.82-.87,2.62,2.62,0,0,1-1.19-2.32v0h1.38a1.79,1.79,0,0,0,.75,1.56,3.15,3.15,0,0,0,1.87.53,2.91,2.91,0,0,0,1.73-.46A1.46,1.46,0,0,0,282.19,380.25Z"/><path class="cls-3" d="M207.92,400.94h-1.44l-5.13-8.25h0v8.23h-1.44V390.28h1.44l5.13,8.23h0v-8.22h1.44Z"/><path class="cls-3" d="M216.88,396H212v3.81h5.63v1.14h-7.08V390.28h7v1.14H212v3.45h4.89Z"/><path class="cls-3" d="M226.69,391.41h-3.43v9.53h-1.44v-9.53H218.4v-1.14h8.29Z"/><path class="cls-3" d="M230.51,397.25l.2,1.33h0l.29-1.34,2-7h1.27l2,7,.29,1.37h0l.21-1.37,1.59-7h1.44l-2.57,10.66H236l-2.1-7.4-.19-1h0l-.18,1-2.14,7.4H230l-2.56-10.66h1.44Z"/><path class="cls-3" d="M249.69,396.56a4.55,4.55,0,0,1-1.21,3.24,4.12,4.12,0,0,1-3.15,1.29,3.91,3.91,0,0,1-3-1.29,4.65,4.65,0,0,1-1.17-3.24v-1.9a4.66,4.66,0,0,1,1.17-3.24,3.9,3.9,0,0,1,3-1.3,4.12,4.12,0,0,1,3.15,1.29,4.57,4.57,0,0,1,1.21,3.25Zm-1.44-1.91a3.6,3.6,0,0,0-.79-2.4,2.64,2.64,0,0,0-2.12-.94,2.44,2.44,0,0,0-2,.94,3.72,3.72,0,0,0-.75,2.4v1.91a3.74,3.74,0,0,0,.75,2.42,2.44,2.44,0,0,0,2,.94,2.64,2.64,0,0,0,2.13-.93,3.63,3.63,0,0,0,.79-2.42Z"/><path class="cls-3" d="M253.28,396.32v4.62h-1.44V390.28h3.86a4.05,4.05,0,0,1,2.67.78,2.78,2.78,0,0,1,.92,2.26,2.41,2.41,0,0,1-.43,1.43,2.9,2.9,0,0,1-1.25,1,2.18,2.18,0,0,1,1.26.93,3,3,0,0,1,.38,1.59v1a3.34,3.34,0,0,0,.11.89,1.34,1.34,0,0,0,.38.64v.18h-1.49a1.19,1.19,0,0,1-.37-.73,6.05,6.05,0,0,1-.08-1v-1a1.93,1.93,0,0,0-.51-1.39,1.79,1.79,0,0,0-1.35-.53Zm0-1.14h2.27a2.68,2.68,0,0,0,1.76-.46,1.76,1.76,0,0,0,.54-1.41,1.82,1.82,0,0,0-.52-1.39,2.31,2.31,0,0,0-1.63-.49h-2.42Z"/><path class="cls-3" d="M264.47,396.13h-1.25v4.81h-1.44V390.28h1.44V395h1.11l3.82-4.72h1.6l0,0-4.14,5.12,4.44,5.47,0,0h-1.72Z"/><path class="cls-3" d="M29.49,372.28l3.4,8.66h0l3.4-8.66h1.85v10.66H36.73v-4.22l.15-4.34h0l-3.46,8.56h-1L29,374.4h0l.14,4.31v4.22H27.64V372.28Z"/><path class="cls-3" d="M48.89,378.56a4.55,4.55,0,0,1-1.21,3.24,4.12,4.12,0,0,1-3.15,1.29,3.91,3.91,0,0,1-3-1.29,4.65,4.65,0,0,1-1.17-3.24v-1.9a4.66,4.66,0,0,1,1.17-3.24,3.9,3.9,0,0,1,3-1.3,4.12,4.12,0,0,1,3.15,1.29,4.57,4.57,0,0,1,1.21,3.25Zm-1.44-1.91a3.6,3.6,0,0,0-.79-2.4,2.64,2.64,0,0,0-2.12-.94,2.44,2.44,0,0,0-2,.94,3.72,3.72,0,0,0-.75,2.4v1.91a3.74,3.74,0,0,0,.75,2.42,2.44,2.44,0,0,0,2,.94,2.64,2.64,0,0,0,2.13-.93,3.63,3.63,0,0,0,.79-2.42Z"/><path class="cls-3" d="M51,382.94V372.28h3.48a4.22,4.22,0,0,1,2.61.72,2.55,2.55,0,0,1,.94,2.16,2,2,0,0,1-.45,1.27,2.69,2.69,0,0,1-1.19.83,2.46,2.46,0,0,1,1.52.94,2.8,2.8,0,0,1,.55,1.72,2.72,2.72,0,0,1-.95,2.24,4,4,0,0,1-2.57.77Zm1.44-6.13h2.34a1.92,1.92,0,0,0,1.31-.44,1.78,1.78,0,0,0,0-2.53,2.5,2.5,0,0,0-1.57-.43h-2Zm0,1.14v3.86H55a2.23,2.23,0,0,0,1.53-.49,1.74,1.74,0,0,0,.55-1.37,2.18,2.18,0,0,0-.46-1.47,1.76,1.76,0,0,0-1.41-.53Z"/><path class="cls-3" d="M62.16,382.94H60.71V372.28h1.45Z"/><path class="cls-3" d="M66.32,381.8h5v1.14H64.87V372.28h1.44Z"/><path class="cls-3" d="M79.3,378H74.42v3.81H80v1.14H73V372.28h7v1.14H74.42v3.45H79.3Z"/><path class="cls-3" d="M84.62,380.07a2.48,2.48,0,0,1,.52-1.56,6.27,6.27,0,0,1,1.54-1.34,7.51,7.51,0,0,1-.85-1.29,2.63,2.63,0,0,1-.28-1.17,2.49,2.49,0,0,1,.71-1.91,2.76,2.76,0,0,1,2-.67,2.67,2.67,0,0,1,1.88.67,2.1,2.1,0,0,1,.73,1.6,2,2,0,0,1-.38,1.24,5.21,5.21,0,0,1-1.14,1.07l-.8.59,2.49,3a4.13,4.13,0,0,0,.47-1.05,4.35,4.35,0,0,0,.17-1.22h1.29a5.4,5.4,0,0,1-.29,1.79,4.7,4.7,0,0,1-.83,1.47l1.35,1.63v0H91.48l-.62-.75a4.41,4.41,0,0,1-1.3.67,4.72,4.72,0,0,1-1.47.23,3.65,3.65,0,0,1-2.53-.84A2.79,2.79,0,0,1,84.62,380.07ZM88.09,382a3.13,3.13,0,0,0,1-.18,3.62,3.62,0,0,0,1-.52l-2.64-3.18-.29.21a2.79,2.79,0,0,0-.88,1,1.92,1.92,0,0,0-.22.82,1.87,1.87,0,0,0,.52,1.36A2,2,0,0,0,88.09,382ZM87,374.69a1.9,1.9,0,0,0,.2.81,4.78,4.78,0,0,0,.59.92l1-.7a1.52,1.52,0,0,0,.57-.6,1.7,1.7,0,0,0,.15-.72,1.07,1.07,0,0,0-.36-.79,1.27,1.27,0,0,0-.93-.34,1.09,1.09,0,0,0-.92.41A1.6,1.6,0,0,0,87,374.69Z"/><path class="cls-3" d="M99.83,382.94H98.39V371.51h1.44Z"/><path class="cls-3" d="M101.71,378.9a4.36,4.36,0,0,1,1-2.9,3.53,3.53,0,0,1,5.19,0,4.35,4.35,0,0,1,1,2.9v.16a4.34,4.34,0,0,1-1,2.9,3.54,3.54,0,0,1-5.19,0,4.34,4.34,0,0,1-1-2.9Zm1.44.16a3.75,3.75,0,0,0,.53,2.08,1.92,1.92,0,0,0,3.15,0,3.73,3.73,0,0,0,.53-2.08v-.16a3.72,3.72,0,0,0-.54-2.07,1.76,1.76,0,0,0-1.58-.83,1.74,1.74,0,0,0-1.56.83,3.76,3.76,0,0,0-.53,2.07Z"/><path class="cls-3" d="M118.07,373.41h-3.43v9.53H113.2v-9.53h-3.42v-1.14h8.29Z"/><path class="cls-3" d="M43.64,400.94V390.28h3.27a4.38,4.38,0,0,1,4.63,4.61v1.46a4.37,4.37,0,0,1-4.63,4.6Zm1.44-9.53v8.39h1.83a2.94,2.94,0,0,0,2.33-1,3.65,3.65,0,0,0,.85-2.5v-1.47a3.63,3.63,0,0,0-.85-2.48,2.94,2.94,0,0,0-2.33-1Z"/><path class="cls-3" d="M59.85,396H55v3.81H60.6v1.14H53.52V390.28h7v1.14H55v3.45h4.89Z"/><path class="cls-3" d="M65.45,398.29l.24.84h0l.24-.84,2.75-8H70.3l-4,10.66H65.1l-4-10.66H62.7Z"/><path class="cls-3" d="M73.3,400.94H71.85V390.28H73.3Z"/><path class="cls-3" d="M83.55,397.52v0a3.21,3.21,0,0,1-1.05,2.52,4,4,0,0,1-2.86,1,3.76,3.76,0,0,1-2.95-1.28,4.71,4.71,0,0,1-1.14-3.25v-1.9a4.73,4.73,0,0,1,1.14-3.26,3.76,3.76,0,0,1,2.95-1.29,4.14,4.14,0,0,1,2.88,1,3.18,3.18,0,0,1,1,2.55v0H82.17a2.38,2.38,0,0,0-.66-1.77,2.53,2.53,0,0,0-1.86-.65,2.27,2.27,0,0,0-1.93,1,4,4,0,0,0-.72,2.42v1.91a4,4,0,0,0,.72,2.43,2.27,2.27,0,0,0,1.93,1,2.54,2.54,0,0,0,1.86-.65,2.4,2.4,0,0,0,.66-1.79Z"/><path class="cls-3" d="M91.84,396H87v3.81h5.63v1.14H85.52V390.28h7v1.14H87v3.45h4.89Z"/><path class="cls-3" d="M100.09,398.25a1.57,1.57,0,0,0-.55-1.22,4.64,4.64,0,0,0-1.95-.83A6.44,6.44,0,0,1,95,395a2.46,2.46,0,0,1-.95-2A2.59,2.59,0,0,1,95,391a4,4,0,0,1,2.65-.84,3.94,3.94,0,0,1,2.79,1,2.83,2.83,0,0,1,1,2.23v0h-1.38a2,2,0,0,0-.62-1.52,3,3,0,0,0-3.43-.09,1.59,1.59,0,0,0-.57,1.27,1.4,1.4,0,0,0,.62,1.16,5.91,5.91,0,0,0,2,.82,5.77,5.77,0,0,1,2.56,1.23,2.63,2.63,0,0,1,.88,2,2.46,2.46,0,0,1-1.05,2.07,4.5,4.5,0,0,1-2.75.78,4.77,4.77,0,0,1-2.82-.87,2.62,2.62,0,0,1-1.19-2.32v0H95.1a1.79,1.79,0,0,0,.75,1.56,3.15,3.15,0,0,0,1.87.53,2.91,2.91,0,0,0,1.73-.46A1.46,1.46,0,0,0,100.09,398.25Z"/><path class="cls-7" d="M465,298.62V298a2.86,2.86,0,0,0-2.85-2.85H380A2.86,2.86,0,0,0,377.2,298v18.93a2.86,2.86,0,0,0,2.85,2.85h82.1a2.86,2.86,0,0,0,2.85-2.85V298.62Z"/><rect class="cls-8" x="399.15" y="305.45" width="17.97" height="2.81"/><rect class="cls-8" x="385.97" y="305.45" width="2.8" height="2.81"/><rect class="cls-8" x="447.07" y="309.56" width="2.8" height="2.8"/><rect class="cls-8" x="443.9" y="305.45" width="2.8" height="2.81"/><rect class="cls-8" x="447.07" y="301.35" width="2.8" height="2.8"/><rect class="cls-8" x="453.42" y="309.56" width="2.81" height="2.8"/><rect class="cls-8" x="450.25" y="305.45" width="2.8" height="2.81"/><rect class="cls-8" x="453.42" y="301.35" width="2.81" height="2.8"/><rect class="cls-8" x="440.72" y="309.56" width="2.8" height="2.8"/><rect class="cls-8" x="440.72" y="301.35" width="2.8" height="2.8"/><rect class="cls-8" x="428.02" y="309.56" width="2.8" height="2.8"/><rect class="cls-8" x="424.85" y="305.45" width="2.8" height="2.81"/><rect class="cls-8" x="428.02" y="301.35" width="2.8" height="2.8"/><rect class="cls-8" x="437.55" y="305.45" width="2.8" height="2.81"/><rect class="cls-8" x="431.2" y="305.45" width="2.8" height="2.81"/><rect class="cls-8" x="434.37" y="301.35" width="2.8" height="2.8"/><rect class="cls-8" x="434.37" y="309.56" width="2.8" height="2.8"/><path class="cls-7" d="M465,267.06v-.66a2.86,2.86,0,0,0-2.85-2.85H380a2.86,2.86,0,0,0-2.85,2.85v18.93a2.86,2.86,0,0,0,2.85,2.85h82.1a2.86,2.86,0,0,0,2.85-2.85V267.06Z"/><rect class="cls-8" x="399.15" y="273.89" width="17.97" height="2.81"/><rect class="cls-8" x="385.97" y="273.89" width="2.8" height="2.81"/><rect class="cls-8" x="447.07" y="278" width="2.8" height="2.8"/><rect class="cls-8" x="443.9" y="273.89" width="2.8" height="2.81"/><rect class="cls-8" x="447.07" y="269.79" width="2.8" height="2.8"/><rect class="cls-8" x="453.42" y="278" width="2.81" height="2.8"/><rect class="cls-8" x="450.25" y="273.89" width="2.8" height="2.81"/><rect class="cls-8" x="453.42" y="269.79" width="2.81" height="2.8"/><rect class="cls-8" x="440.72" y="278" width="2.8" height="2.8"/><rect class="cls-8" x="440.72" y="269.79" width="2.8" height="2.8"/><rect class="cls-8" x="428.02" y="278" width="2.8" height="2.8"/><rect class="cls-8" x="424.85" y="273.89" width="2.8" height="2.81"/><rect class="cls-8" x="428.02" y="269.79" width="2.8" height="2.8"/><rect class="cls-8" x="437.55" y="273.89" width="2.8" height="2.81"/><rect class="cls-8" x="431.2" y="273.89" width="2.8" height="2.81"/><rect class="cls-8" x="434.37" y="269.79" width="2.8" height="2.8"/><rect class="cls-8" x="434.37" y="278" width="2.8" height="2.8"/><path class="cls-7" d="M465,330.12v-.66a2.86,2.86,0,0,0-2.85-2.85H380a2.86,2.86,0,0,0-2.85,2.85v18.93a2.86,2.86,0,0,0,2.85,2.85h82.1a2.86,2.86,0,0,0,2.85-2.85V330.12Z"/><rect class="cls-8" x="399.15" y="336.95" width="17.97" height="2.81"/><rect class="cls-8" x="385.97" y="336.95" width="2.8" height="2.81"/><rect class="cls-8" x="447.07" y="341.06" width="2.8" height="2.8"/><rect class="cls-8" x="443.9" y="336.95" width="2.8" height="2.81"/><rect class="cls-8" x="447.07" y="332.85" width="2.8" height="2.8"/><rect class="cls-8" x="453.42" y="341.06" width="2.81" height="2.8"/><rect class="cls-8" x="450.25" y="336.95" width="2.8" height="2.81"/><rect class="cls-8" x="453.42" y="332.85" width="2.81" height="2.8"/><rect class="cls-8" x="440.72" y="341.06" width="2.8" height="2.8"/><rect class="cls-8" x="440.72" y="332.85" width="2.8" height="2.8"/><rect class="cls-8" x="428.02" y="341.06" width="2.8" height="2.8"/><rect class="cls-8" x="424.85" y="336.95" width="2.8" height="2.81"/><rect class="cls-8" x="428.02" y="332.85" width="2.8" height="2.8"/><rect class="cls-8" x="437.55" y="336.95" width="2.8" height="2.81"/><rect class="cls-8" x="431.2" y="336.95" width="2.8" height="2.81"/><rect class="cls-8" x="434.37" y="332.85" width="2.8" height="2.8"/><rect class="cls-8" x="434.37" y="341.06" width="2.8" height="2.8"/><circle class="cls-5" cx="791.06" cy="312.39" r="40"/><path class="cls-9" d="M776.17,335.51l-.61,0a11.5,11.5,0,0,1-10.87-12.08,10.34,10.34,0,0,1,1.53-5.13,12,12,0,0,1,6-5.06l1.31-.64c3.22-1.56,6.25-3,7.15-6.73l.43-1.8,10,10.63-.16.55c-.5,1.72-2.95,9.33-3.74,11.76A11.5,11.5,0,0,1,776.17,335.51ZM782.1,308c-1.5,3.41-4.62,4.92-7.66,6.4l-1.33.66-.12,0a10,10,0,0,0-5.07,4.26,8.29,8.29,0,0,0-1.23,4.18,9.49,9.49,0,0,0,18.65,2.91c.73-2.27,2.84-8.82,3.57-11.21Z"/><path class="cls-9" d="M809.58,334H809a12,12,0,0,1-7.35-2.82l-1.2-.83c-2.92-2.06-5.68-4-9.35-3l-1.78.49,4.44-13.91.56-.13c1.69-.38,9.23-1.88,12.09-2.44a11.49,11.49,0,0,1,7.82,21.47A10.48,10.48,0,0,1,809.58,334Zm-16.41-8.94c3.3,0,5.92,1.84,8.47,3.64l1.22.85.1.08a10,10,0,0,0,6.18,2.37,8.26,8.26,0,0,0,4.25-1,9.49,9.49,0,0,0-6.5-17.72c-2.66.52-9.16,1.81-11.54,2.32l-3,9.47C792.62,325.08,792.9,325.07,793.17,325.07Z"/><path class="cls-9" d="M791.66,311.85l-.4-.41c-1.24-1.29-6.54-7.12-8.33-9.1a11.49,11.49,0,0,1,14.35-17.78,10.32,10.32,0,0,1,3.69,3.89,12,12,0,0,1,1.38,7.75c0,.48-.06,1-.1,1.45-.25,3.57-.49,6.94,2.27,9.55l1.34,1.27Zm-.6-27.14a9.58,9.58,0,0,0-2,.21,9.49,9.49,0,0,0-4.68,16c1.61,1.77,6.24,6.87,7.94,8.69l9.67-2.3c-2.21-3-2-6.46-1.72-9.83,0-.49.07-1,.1-1.48v-.12a10,10,0,0,0-1.17-6.52,8.29,8.29,0,0,0-3-3.15A9.42,9.42,0,0,0,791.06,284.7Z"/><path class="cls-5" d="M665.61,190.39H648.13a1,1,0,0,1,0-2h17.48a9.54,9.54,0,0,0,2.92-18.62,1,1,0,0,1-.59-1.4,6.1,6.1,0,0,0,.66-2.76,6.16,6.16,0,0,0-9.31-5.31,1,1,0,0,1-1.39-.39,12.89,12.89,0,0,0-24.29,6c0,.16,0,.32,0,.48a1,1,0,0,1-.55.94,11.09,11.09,0,0,0-3.57,2.8,1,1,0,1,1-1.53-1.29,13.07,13.07,0,0,1,3.64-3,14.89,14.89,0,0,1,27.57-7.72,8.16,8.16,0,0,1,11.43,7.49,8,8,0,0,1-.44,2.63,11.54,11.54,0,0,1-4.55,22.15Z"/><path class="cls-5" d="M634.89,207H607.27a13.11,13.11,0,0,1-6.38-24.55,14.89,14.89,0,0,1,27.57-7.72,8.27,8.27,0,0,1,7,.23l-.92,1.78a6.22,6.22,0,0,0-6,.18,1,1,0,0,1-1.39-.39,12.89,12.89,0,0,0-24.29,6c0,.16,0,.32,0,.48a1,1,0,0,1-.56.94A11.11,11.11,0,0,0,607.27,205h27.62a9.54,9.54,0,0,0,2.92-18.62,1,1,0,0,1-.59-1.39,6.47,6.47,0,0,0,.66-2.77,6.16,6.16,0,0,0-.07-.91l2-.29a8,8,0,0,1-.36,3.84A11.54,11.54,0,0,1,634.89,207Z"/><path class="cls-5" d="M606.55,198.56l.14.63h0l.16-.62,2-6.28h1.65l-3.28,8.9H606.1l-3.32-8.9h1.66Z"/><path class="cls-5" d="M618.33,197.15H620v1.28h-1.65v2.76h-1.61v-2.76h-5.38v-.91l5.28-8.31h1.71Zm-5.27,0h3.65v-5.62h0l-.16.41Z"/><path class="cls-5" d="M656.79,181.88l.14.63h0l.16-.62,2-6.28h1.65l-3.28,8.9h-1.23L653,175.6h1.66Z"/><path class="cls-5" d="M666.67,172.35a5.41,5.41,0,0,1,1.22.14,4,4,0,0,1,1,.35l-.35,1.24a4.81,4.81,0,0,0-.84-.33,3.74,3.74,0,0,0-1-.13,2.48,2.48,0,0,0-2.07,1,4.3,4.3,0,0,0-.79,2.68v.19a4,4,0,0,1,1.21-.72,4.06,4.06,0,0,1,1.46-.26,3.2,3.2,0,0,1,2.56,1.11,4.16,4.16,0,0,1,1,2.81,4.46,4.46,0,0,1-1,3,3.41,3.41,0,0,1-2.71,1.17,3.76,3.76,0,0,1-2.91-1.28,5.18,5.18,0,0,1-1.15-3.6v-2.29a5.39,5.39,0,0,1,1.28-3.74A4.1,4.1,0,0,1,666.67,172.35Zm-.55,5.41a2.79,2.79,0,0,0-1.42.34,2.29,2.29,0,0,0-.89.9v1a4.06,4.06,0,0,0,.7,2.55,2.14,2.14,0,0,0,1.75.9,1.76,1.76,0,0,0,1.55-.84,3.72,3.72,0,0,0,.56-2.09,3.07,3.07,0,0,0-.6-1.95A2,2,0,0,0,666.12,177.76Z"/><path class="cls-5" d="M627.2,188.69a1,1,0,0,1-.71-1.71l16.34-16.34a1,1,0,0,1,1.41,1.41L627.9,188.4A1,1,0,0,1,627.2,188.69Z"/><path class="cls-5" d="M634.16,189.69h-.1l-7.18-.75a1,1,0,0,1-.89-.87l-.92-7.35a1,1,0,1,1,2-.25l.82,6.57,6.39.67a1,1,0,0,1-.1,2Z"/><path class="cls-5" d="M644.83,179a1,1,0,0,1-1-.9l-.67-6.39-6.57-.82a1,1,0,0,1,.25-2l7.35.92a1,1,0,0,1,.87.89l.75,7.18a1,1,0,0,1-.89,1.1Z"/><path class="cls-5" d="M771,205.87a16.23,16.23,0,0,1-15.2-21.9,1,1,0,0,1,1.87.7,14.24,14.24,0,1,0,3.11-4.91,1,1,0,0,1-1.44-1.39A16.22,16.22,0,1,1,771,205.87Z"/><path class="cls-5" d="M764.2,197.07a1,1,0,0,1-.71-1.71l6.51-6.51v-9.21a1,1,0,0,1,2,0v9.63a1,1,0,0,1-.29.71l-6.8,6.8A1,1,0,0,1,764.2,197.07Z"/><path class="cls-5" d="M758.46,181.16l-1.14-4.58a1,1,0,0,1,1.94-.48l.76,3,3.24-.05h0a1,1,0,0,1,0,2Z"/><path class="cls-5" d="M758.29,205.87H731.07a18.39,18.39,0,0,1-8.73-34.59s0-.1,0-.15a21,21,0,0,1,39-10.64,11.29,11.29,0,0,1,16.15,10.2,1,1,0,0,1-2,0,9.29,9.29,0,0,0-14-8l-.9.54-.49-.93a19,19,0,0,0-35.72,8.83c0,.22,0,.43,0,.64l0,.65-.58.35a16.39,16.39,0,0,0,7.27,31.09h27.22a1,1,0,0,1,0,2Z"/><path class="cls-5" d="M728.67,195.28l.45,1.65h.08l.49-1.65,3.82-10.52h1.61l-5.33,14h-1.25l-5.35-14h1.61Z"/><path class="cls-5" d="M747.54,192.71h3V194h-3v4.76H746V194h-8.86v-.89l8.71-13.24h1.7Zm-8.56,0h7V181.94l-.08,0-.66,1.41Z"/><path class="cls-5" d="M821.86,164.78a1,1,0,0,1-.56-.17L816,161a1,1,0,0,1,.26-1.78l3.92-1.22-.35-4.09a1,1,0,0,1,1.55-.92l5.35,3.59a1,1,0,0,1,.42.64l.64,3.22a1,1,0,0,1-.15.75l-1.72,2.56a1,1,0,0,1-.65.43l-3.19.58Zm-3.06-4.26,3.28,2.2,2.37-.43,1.25-1.86-.48-2.41-3.28-2.2.24,2.81a1,1,0,0,1-.7,1Z"/><path class="cls-10" d="M826.37,167.13l6.84,4.59a3,3,0,0,0,4.12-.81l1.37-2a3,3,0,0,0-.81-4.12l-6.84-4.59a3,3,0,0,0-4.12.81l-1.37,2A3,3,0,0,0,826.37,167.13Z"/><path class="cls-5" d="M835.27,159.74a1,1,0,0,1-.56-.17l-3.61-2.42a1,1,0,0,1,.26-1.78l2.39-.75-.21-2.5a1,1,0,0,1,1.55-.92l3.61,2.42a1,1,0,0,1,.42.64l.43,2.17a1,1,0,0,1-.15.75l-1.16,1.72a1,1,0,0,1-.65.43l-2.15.39ZM834,156.65l1.54,1,1.34-.24.69-1-.27-1.36-1.53-1,.1,1.22a1,1,0,0,1-.7,1Z"/><path class="cls-10" d="M838.37,161l4.61,3.1a2,2,0,0,0,2.78-.55l.92-1.38a2,2,0,0,0-.55-2.78l-4.61-3.1a2,2,0,0,0-2.78.55l-.92,1.38A2,2,0,0,0,838.37,161Z"/><path class="cls-5" d="M823.76,177.69a1,1,0,0,1-.56-.17l-3.38-2.27a1,1,0,0,1,.26-1.78l2.2-.69-.2-2.29a1,1,0,0,1,1.55-.92l3.38,2.27a1,1,0,0,1,.42.64l.4,2a1,1,0,0,1-.15.75l-1.08,1.62a1,1,0,0,1-.65.43l-2,.37Zm-1.09-2.94,1.31.88,1.2-.22.62-.92-.24-1.22-1.31-.88.09,1a1,1,0,0,1-.7,1Z"/><path class="cls-10" d="M826.66,178.82l4.33,2.9a1.88,1.88,0,0,0,2.61-.51l.87-1.29a1.88,1.88,0,0,0-.51-2.61l-4.33-2.9a1.88,1.88,0,0,0-2.61.51l-.87,1.29A1.88,1.88,0,0,0,826.66,178.82Z"/><path class="cls-5" d="M853.5,192.11a1,1,0,0,1-.71-.29l-4.52-4.52a1,1,0,0,1,1.41-1.41l4.52,4.52a1,1,0,0,1-.71,1.71Z"/><path class="cls-5" d="M853.5,192.11a1,1,0,0,1-.71-1.71l9.07-9.07a1,1,0,0,1,1.41,1.41l-9.07,9.07A1,1,0,0,1,853.5,192.11Z"/><path class="cls-5" d="M854.72,207a1.53,1.53,0,0,1-.64-.14c-1.47-.67-14.34-6.78-14.34-15.12V172.42a1.56,1.56,0,0,1,1.55-1.57c10.07,0,12-3.73,12-3.77a1.54,1.54,0,0,1,1.42-.94,1.58,1.58,0,0,1,1.45,1h0s1.89,3.72,12,3.72a1.57,1.57,0,0,1,1.55,1.56v19.33c0,8.41-12.87,14.46-14.34,15.12A1.5,1.5,0,0,1,854.72,207Zm-.2-2h0Zm-12.78-32.19v18.89c0,6.81,11.28,12.41,13,13.21,1.68-.8,13-6.43,13-13.21V172.85c-8.83-.09-12-2.92-13-4.28C853.71,169.92,850.56,172.76,841.74,172.85Z"/><path class="cls-5" d="M948.41,182.13H933.53a1.9,1.9,0,0,1-1.9-1.9v-7.39a1.9,1.9,0,0,1,1.9-1.9h14.88a1.9,1.9,0,0,1,1.9,1.9v7.39A1.9,1.9,0,0,1,948.41,182.13Zm-14.78-2h14.68v-7.19H933.63Z"/><path class="cls-5" d="M938.45,194.48H920.82a1.9,1.9,0,0,1-1.9-1.9v-7.39a1.9,1.9,0,0,1,1.9-1.9h17.63a1.9,1.9,0,0,1,1.9,1.9v7.39A1.9,1.9,0,0,1,938.45,194.48Zm-17.53-2h17.43v-7.19H920.92Z"/><path class="cls-5" d="M960.88,194.48H943.25a1.9,1.9,0,0,1-1.9-1.9v-7.39a1.9,1.9,0,0,1,1.9-1.9h17.63a1.9,1.9,0,0,1,1.9,1.9v7.39A1.9,1.9,0,0,1,960.88,194.48Zm-17.53-2h17.43v-7.19H943.35Z"/><path class="cls-5" d="M961.12,182.13h-7.75a1.9,1.9,0,0,1-1.9-1.9v-7.39a1.9,1.9,0,0,1,1.9-1.9h7.75a1.9,1.9,0,0,1,1.9,1.9v7.39A1.9,1.9,0,0,1,961.12,182.13Zm-7.65-2H961v-7.19h-7.55Z"/><path class="cls-5" d="M928.58,182.13h-7.75a1.9,1.9,0,0,1-1.9-1.9v-7.39a1.9,1.9,0,0,1,1.9-1.9h7.75a1.9,1.9,0,0,1,1.9,1.9v7.39A1.9,1.9,0,0,1,928.58,182.13Zm-7.65-2h7.55v-7.19h-7.55Z"/><path class="cls-5" d="M948.41,207H933.53a1.9,1.9,0,0,1-1.9-1.9v-7.39a1.9,1.9,0,0,1,1.9-1.9h14.88a1.9,1.9,0,0,1,1.9,1.9v7.39A1.9,1.9,0,0,1,948.41,207Zm-14.78-2h14.68v-7.19H933.63Z"/><path class="cls-5" d="M961.12,207h-7.75a1.9,1.9,0,0,1-1.9-1.9v-7.39a1.9,1.9,0,0,1,1.9-1.9h7.75a1.9,1.9,0,0,1,1.9,1.9v7.39A1.9,1.9,0,0,1,961.12,207Zm-7.65-2H961v-7.19h-7.55Z"/><path class="cls-5" d="M928.58,207h-7.75a1.9,1.9,0,0,1-1.9-1.9v-7.39a1.9,1.9,0,0,1,1.9-1.9h7.75a1.9,1.9,0,0,1,1.9,1.9v7.39A1.9,1.9,0,0,1,928.58,207Zm-7.65-2h7.55v-7.19h-7.55Z"/><path class="cls-5" d="M941,167.88a1,1,0,0,1-1-1V152a1,1,0,1,1,2,0v14.85A1,1,0,0,1,941,167.88Z"/><path class="cls-5" d="M941,168.65h0a1,1,0,0,1-.71-.29l-5.74-5.74a1,1,0,0,1,1.41-1.41l5,5,5-5a1,1,0,0,1,1.41,1.41l-5.74,5.74A1,1,0,0,1,941,168.65Z"/><path class="cls-5" d="M907.34,192.63a1,1,0,0,1-.71-.29L904.3,190a1,1,0,0,1,1.41-1.41l2.33,2.33a1,1,0,0,1-.71,1.71Z"/><path class="cls-5" d="M907.34,192.63a1,1,0,0,1-.71-1.71l4.68-4.68a1,1,0,0,1,1.41,1.41L908,192.34A1,1,0,0,1,907.34,192.63Z"/><path class="cls-5" d="M908.23,196.91a8.19,8.19,0,1,1,8.19-8.19A8.2,8.2,0,0,1,908.23,196.91Zm0-14.38a6.19,6.19,0,1,0,6.19,6.19A6.2,6.2,0,0,0,908.23,182.53Z"/><path class="cls-5" d="M971,192.06a1,1,0,0,1-.71-1.71l4.68-4.68a1,1,0,0,1,1.41,1.41l-4.68,4.68A1,1,0,0,1,971,192.06Z"/><path class="cls-5" d="M975.69,192.06a1,1,0,0,1-.71-.29l-4.68-4.68a1,1,0,0,1,1.41-1.41l4.68,4.68a1,1,0,0,1-.71,1.71Z"/><path class="cls-5" d="M973.35,196.91a8.19,8.19,0,1,1,8.19-8.19A8.2,8.2,0,0,1,973.35,196.91Zm0-14.38a6.19,6.19,0,1,0,6.19,6.19A6.2,6.2,0,0,0,973.35,182.53Z"/><path class="cls-8" d="M609.39,339.08a1,1,0,0,1-1-1V319.56a1,1,0,0,1,2,0v18.51A1,1,0,0,1,609.39,339.08Z"/><path class="cls-8" d="M609.39,339.91a1,1,0,0,1-.71-.29l-6.26-6.26a1,1,0,0,1,1.41-1.41l5.56,5.56,5.56-5.56a1,1,0,0,1,1.41,1.41l-6.26,6.26A1,1,0,0,1,609.39,339.91Z"/><path class="cls-8" d="M609.39,306.63a1,1,0,0,1-1-1V287.18a1,1,0,0,1,2,0v18.45A1,1,0,0,1,609.39,306.63Z"/><path class="cls-8" d="M615.66,293.54a1,1,0,0,1-.71-.29l-5.56-5.56-5.56,5.56a1,1,0,0,1-1.41-1.41l6.26-6.26a1,1,0,0,1,1.41,0l6.26,6.26a1,1,0,0,1-.71,1.71Z"/><path class="cls-8" d="M602.44,314.47H583.09a1,1,0,0,1,0-2h19.35a1,1,0,0,1,0,2Z"/><path class="cls-8" d="M596.18,320.73a1,1,0,0,1-.71-1.71l5.56-5.56-5.56-5.56a1,1,0,0,1,1.41-1.41l6.26,6.26a1,1,0,0,1,0,1.41l-6.26,6.26A1,1,0,0,1,596.18,320.73Z"/><path class="cls-8" d="M635.78,314.47H616.43a1,1,0,0,1,0-2h19.35a1,1,0,0,1,0,2Z"/><path class="cls-8" d="M622.69,320.73a1,1,0,0,1-.71-.29l-6.26-6.26a1,1,0,0,1,0-1.41L622,306.5a1,1,0,0,1,1.41,1.41l-5.56,5.56L623.4,319a1,1,0,0,1-.71,1.71Z"/><path class="cls-8" d="M609.39,348A35.61,35.61,0,1,1,645,312.39,35.65,35.65,0,0,1,609.39,348Zm0-69.22A33.61,33.61,0,1,0,643,312.39,33.65,33.65,0,0,0,609.39,278.78Z"/><path class="cls-8" d="M972.39,339.08a1,1,0,0,1-1-1V319.56a1,1,0,0,1,2,0v18.51A1,1,0,0,1,972.39,339.08Z"/><path class="cls-8" d="M972.39,339.91a1,1,0,0,1-.71-.29l-6.26-6.26a1,1,0,0,1,1.41-1.41l5.56,5.56,5.56-5.56a1,1,0,0,1,1.41,1.41l-6.26,6.26A1,1,0,0,1,972.39,339.91Z"/><path class="cls-8" d="M972.39,306.63a1,1,0,0,1-1-1V287.18a1,1,0,0,1,2,0v18.45A1,1,0,0,1,972.39,306.63Z"/><path class="cls-8" d="M978.66,293.54a1,1,0,0,1-.71-.29l-5.56-5.56-5.56,5.56a1,1,0,0,1-1.41-1.41l6.26-6.26a1,1,0,0,1,1.41,0l6.26,6.26a1,1,0,0,1-.71,1.71Z"/><path class="cls-8" d="M965.44,314.47H946.09a1,1,0,0,1,0-2h19.35a1,1,0,0,1,0,2Z"/><path class="cls-8" d="M959.18,320.73a1,1,0,0,1-.71-1.71l5.56-5.56-5.56-5.56a1,1,0,0,1,1.41-1.41l6.26,6.26a1,1,0,0,1,0,1.41l-6.26,6.26A1,1,0,0,1,959.18,320.73Z"/><path class="cls-8" d="M998.78,314.47H979.43a1,1,0,0,1,0-2h19.35a1,1,0,0,1,0,2Z"/><path class="cls-8" d="M985.69,320.73a1,1,0,0,1-.71-.29l-6.26-6.26a1,1,0,0,1,0-1.41L985,306.5a1,1,0,0,1,1.41,1.41l-5.56,5.56L986.4,319a1,1,0,0,1-.71,1.71Z"/><path class="cls-8" d="M972.39,348A35.61,35.61,0,1,1,1008,312.39,35.65,35.65,0,0,1,972.39,348Zm0-69.22A33.61,33.61,0,1,0,1006,312.39,33.65,33.65,0,0,0,972.39,278.78Z"/><path class="cls-8" d="M79.89,347.53H67a1,1,0,1,1,0-2H79.89a1,1,0,1,1,0,2Z"/><path class="cls-8" d="M92.41,353.25H54.48a3.67,3.67,0,0,1-3.67-3.67V297.13a3.67,3.67,0,0,1,3.67-3.67H92.41a3.67,3.67,0,0,1,3.67,3.67v52.45A3.67,3.67,0,0,1,92.41,353.25ZM54.48,295.47a1.67,1.67,0,0,0-1.67,1.67v52.45a1.67,1.67,0,0,0,1.67,1.67H92.41a1.67,1.67,0,0,0,1.67-1.67V297.13a1.67,1.67,0,0,0-1.67-1.67Z"/><path class="cls-8" d="M90.42,341.55H56.47v-41.6H90.42Zm-31.95-2H88.42v-37.6H58.47Z"/><path class="cls-8" d="M37,337.21H18.19a2.93,2.93,0,0,1-2.93-2.93V296.39a2.93,2.93,0,0,1,2.93-2.93H37a2.93,2.93,0,0,1,2.93,2.93v37.89A2.93,2.93,0,0,1,37,337.21ZM18.19,295.47a.93.93,0,0,0-.93.93v37.89a.93.93,0,0,0,.93.93H37a.93.93,0,0,0,.93-.93V296.39a.93.93,0,0,0-.93-.93Z"/><path class="cls-8" d="M34.5,323.88H20.7V299.34H34.5Zm-11.8-2h9.8V301.34H22.7Z"/><circle class="cls-8" cx="27.6" cy="330.15" r="2.29"/><path class="cls-8" d="M102.06,279.25H27.33V238.1a3.28,3.28,0,0,1,3.28-3.28H98.78a3.28,3.28,0,0,1,3.28,3.28Zm-72.73-2h70.73V238.1a1.28,1.28,0,0,0-1.28-1.28H30.61a1.28,1.28,0,0,0-1.28,1.28Z"/><path class="cls-8" d="M106.72,286.14H22.67a3.28,3.28,0,0,1-3.28-3.28v-5.33H110v5.33A3.28,3.28,0,0,1,106.72,286.14Zm-85.33-6.6v3.33a1.28,1.28,0,0,0,1.28,1.28h84.06a1.28,1.28,0,0,0,1.28-1.28v-3.33Z"/><path class="cls-8" d="M48.79,278.52H80.6a0,0,0,0,1,0,0v1.13a2,2,0,0,1-2,2H50.82a2,2,0,0,1-2-2v-1.13A0,0,0,0,1,48.79,278.52Z"/><rect class="cls-11" x="274.54" y="306.89" width="97" height="11"/><rect class="cls-11" x="110.54" y="306.89" width="97" height="11"/><rect class="cls-11" x="471.54" y="306.89" width="97" height="11"/><rect class="cls-11" x="649.54" y="306.89" width="97" height="11"/><rect class="cls-11" x="835.54" y="306.89" width="97" height="11"/><rect class="cls-11" x="1011.54" y="306.89" width="97" height="11"/><path class="cls-8" d="M241,296.64a14.44,14.44,0,1,1,14.44-14.44A14.46,14.46,0,0,1,241,296.64Zm0-26.89a12.44,12.44,0,1,0,12.44,12.44A12.46,12.46,0,0,0,241,269.75Z"/><path class="cls-8" d="M221.63,296.74a1,1,0,0,1-.71-.29,20.17,20.17,0,0,1,0-28.5,1,1,0,0,1,1.41,1.41,18.17,18.17,0,0,0,0,25.67,1,1,0,0,1-.71,1.71Z"/><path class="cls-8" d="M216,302.41a1,1,0,0,1-.71-.29,28.2,28.2,0,0,1,0-39.84,1,1,0,0,1,1.41,1.41,26.2,26.2,0,0,0,0,37,1,1,0,0,1-.71,1.71Z"/><path class="cls-8" d="M260.37,296.74a1,1,0,0,1-.71-1.71,18.17,18.17,0,0,0,0-25.67,1,1,0,0,1,1.41-1.41,20.17,20.17,0,0,1,0,28.5A1,1,0,0,1,260.37,296.74Z"/><path class="cls-8" d="M266,302.41a1,1,0,0,1-.71-1.71,26.2,26.2,0,0,0,0-37,1,1,0,0,1,1.41-1.41,28.2,28.2,0,0,1,0,39.84A1,1,0,0,1,266,302.41Z"/><path class="cls-8" d="M217.49,347.68a1,1,0,0,1-.93-1.36L234,301.1a1,1,0,1,1,1.87.72L218.43,347A1,1,0,0,1,217.49,347.68Z"/><path class="cls-8" d="M264.51,347.68a1,1,0,0,1-.93-.64l-17.4-45.22a1,1,0,1,1,1.87-.72l17.4,45.22a1,1,0,0,1-.93,1.36Z"/><path class="cls-8" d="M252,316.09H229.65a1,1,0,0,1,0-2H252a1,1,0,1,1,0,2Z"/><path class="cls-8" d="M257.91,331H223.64a1,1,0,0,1,0-2h34.27a1,1,0,0,1,0,2Z"/></svg>