<svg id="Layer_1" data-name="Layer 1" xmlns="http://www.w3.org/2000/svg" viewBox="0 0 1250 580.87"><defs><style>.cls-1{fill:#17242d;}.cls-2{fill:#3fa0f1;}.cls-3{fill:#231f20;}.cls-4{fill:#787878;}.cls-5{fill:#42b3e2;}.cls-6{fill:#919394;}.cls-7{fill:#939393;}.cls-8{fill:#6e6f6f;}.cls-9{fill:#0075c9;}</style></defs><title>Artboard 1</title><path class="cls-1" d="M502.76,396.81a1.57,1.57,0,0,0-.55-1.22,4.63,4.63,0,0,0-1.95-.83,6.44,6.44,0,0,1-2.64-1.19,2.46,2.46,0,0,1-.95-2,2.59,2.59,0,0,1,1-2.08,4,4,0,0,1,2.65-.84,3.94,3.94,0,0,1,2.79,1,2.83,2.83,0,0,1,1,2.23l0,0h-1.38a2,2,0,0,0-.62-1.52,3,3,0,0,0-3.43-.09,1.59,1.59,0,0,0-.57,1.27,1.4,1.4,0,0,0,.62,1.16,5.89,5.89,0,0,0,2,.82,5.76,5.76,0,0,1,2.56,1.23,2.63,2.63,0,0,1,.88,2,2.46,2.46,0,0,1-1.05,2.07,4.5,4.5,0,0,1-2.75.78,4.76,4.76,0,0,1-2.82-.87,2.62,2.62,0,0,1-1.19-2.32v0h1.38a1.79,1.79,0,0,0,.75,1.56,3.14,3.14,0,0,0,1.87.53,2.9,2.9,0,0,0,1.73-.46A1.45,1.45,0,0,0,502.76,396.81Z"/><path class="cls-1" d="M512.63,394.55h-4.88v3.81h5.63v1.14H506.3V388.83h7V390h-5.55v3.45h4.88Z"/><path class="cls-1" d="M516.51,394.87v4.62h-1.44V388.84h3.86a4.05,4.05,0,0,1,2.67.78,2.78,2.78,0,0,1,.92,2.26,2.41,2.41,0,0,1-.43,1.43,2.9,2.9,0,0,1-1.25,1,2.18,2.18,0,0,1,1.26.93,3,3,0,0,1,.38,1.59v1a3.3,3.3,0,0,0,.11.89,1.32,1.32,0,0,0,.38.64v.18H521.5a1.19,1.19,0,0,1-.37-.73,6.05,6.05,0,0,1-.08-1v-1a1.93,1.93,0,0,0-.51-1.39,1.79,1.79,0,0,0-1.36-.53Zm0-1.14h2.27a2.68,2.68,0,0,0,1.76-.46,1.77,1.77,0,0,0,.54-1.41,1.82,1.82,0,0,0-.52-1.39,2.31,2.31,0,0,0-1.63-.49h-2.42Z"/><path class="cls-1" d="M528.17,396.84l.24.84h0l.24-.84,2.75-8H533l-4,10.66h-1.24l-4-10.66h1.57Z"/><path class="cls-1" d="M536,399.49h-1.45V388.83H536Z"/><path class="cls-1" d="M546.27,396.07v0a3.21,3.21,0,0,1-1.05,2.52,4,4,0,0,1-2.86,1,3.76,3.76,0,0,1-2.95-1.28,4.72,4.72,0,0,1-1.14-3.25v-1.9a4.73,4.73,0,0,1,1.14-3.26,3.76,3.76,0,0,1,2.95-1.29,4.14,4.14,0,0,1,2.88,1,3.19,3.19,0,0,1,1,2.55v0h-1.38a2.38,2.38,0,0,0-.66-1.77,2.53,2.53,0,0,0-1.86-.65,2.27,2.27,0,0,0-1.93,1,4,4,0,0,0-.72,2.42v1.91a4,4,0,0,0,.72,2.43,2.27,2.27,0,0,0,1.93,1,2.54,2.54,0,0,0,1.86-.65,2.4,2.4,0,0,0,.66-1.79Z"/><path class="cls-1" d="M554.56,394.55h-4.88v3.81h5.63v1.14h-7.08V388.83h7V390h-5.55v3.45h4.88Z"/><path class="cls-1" d="M562.17,395.22v4.28h-1.44V388.83h4.08a3.74,3.74,0,0,1,2.65.88,3.32,3.32,0,0,1,0,4.64,3.77,3.77,0,0,1-2.65.87Zm0-1.14h2.64a2.11,2.11,0,0,0,1.61-3.52,2.07,2.07,0,0,0-1.61-.59h-2.64Z"/><path class="cls-1" d="M571.78,394.87v4.62h-1.44V388.84h3.86a4.05,4.05,0,0,1,2.67.78,2.78,2.78,0,0,1,.92,2.26,2.41,2.41,0,0,1-.43,1.43,2.9,2.9,0,0,1-1.25,1,2.18,2.18,0,0,1,1.26.93,3,3,0,0,1,.38,1.59v1a3.3,3.3,0,0,0,.11.89,1.32,1.32,0,0,0,.38.64v.18h-1.49a1.19,1.19,0,0,1-.37-.73,6.05,6.05,0,0,1-.08-1v-1a1.93,1.93,0,0,0-.51-1.39,1.79,1.79,0,0,0-1.36-.53Zm0-1.14h2.27a2.68,2.68,0,0,0,1.76-.46,1.77,1.77,0,0,0,.54-1.41,1.82,1.82,0,0,0-.52-1.39,2.31,2.31,0,0,0-1.63-.49h-2.42Z"/><path class="cls-1" d="M588.35,395.11a4.55,4.55,0,0,1-1.21,3.24,4.12,4.12,0,0,1-3.15,1.29,3.91,3.91,0,0,1-3-1.29,4.65,4.65,0,0,1-1.17-3.24v-1.9A4.66,4.66,0,0,1,581,390a3.9,3.9,0,0,1,3-1.3,4.12,4.12,0,0,1,3.15,1.29,4.57,4.57,0,0,1,1.21,3.25Zm-1.44-1.91a3.6,3.6,0,0,0-.79-2.4,2.64,2.64,0,0,0-2.12-.94,2.44,2.44,0,0,0-2,.94,3.72,3.72,0,0,0-.75,2.4v1.91a3.74,3.74,0,0,0,.75,2.42,2.44,2.44,0,0,0,2,.94,2.64,2.64,0,0,0,2.13-.93,3.63,3.63,0,0,0,.79-2.42Z"/><path class="cls-1" d="M593.67,396.84l.24.84h0l.24-.84,2.75-8h1.56l-4,10.66h-1.24l-4-10.66h1.57Z"/><path class="cls-1" d="M601.51,399.49h-1.45V388.83h1.45Z"/><path class="cls-1" d="M604.23,399.49V388.83h3.27a4.38,4.38,0,0,1,4.63,4.61v1.46a4.37,4.37,0,0,1-4.63,4.6Zm1.44-9.53v8.39h1.83a2.94,2.94,0,0,0,2.33-1,3.64,3.64,0,0,0,.85-2.5v-1.47a3.62,3.62,0,0,0-.85-2.48,2.94,2.94,0,0,0-2.33-1Z"/><path class="cls-1" d="M620.44,394.55h-4.88v3.81h5.63v1.14h-7.08V388.83h7V390h-5.55v3.45h4.88Z"/><path class="cls-1" d="M624.32,394.87v4.62h-1.44V388.84h3.86a4.05,4.05,0,0,1,2.67.78,2.78,2.78,0,0,1,.92,2.26,2.41,2.41,0,0,1-.43,1.43,2.9,2.9,0,0,1-1.25,1,2.18,2.18,0,0,1,1.26.93,3,3,0,0,1,.38,1.59v1a3.3,3.3,0,0,0,.11.89,1.32,1.32,0,0,0,.38.64v.18h-1.49a1.19,1.19,0,0,1-.37-.73,6.05,6.05,0,0,1-.08-1v-1a1.93,1.93,0,0,0-.51-1.39,1.79,1.79,0,0,0-1.36-.53Zm0-1.14h2.27a2.68,2.68,0,0,0,1.76-.46,1.77,1.77,0,0,0,.54-1.41,1.82,1.82,0,0,0-.52-1.39,2.31,2.31,0,0,0-1.63-.49h-2.42Z"/><path class="cls-1" d="M516.57,413.11a4.55,4.55,0,0,1-1.21,3.24,4.12,4.12,0,0,1-3.15,1.29,3.91,3.91,0,0,1-3-1.29,4.65,4.65,0,0,1-1.17-3.24v-1.9a4.66,4.66,0,0,1,1.17-3.24,3.9,3.9,0,0,1,3-1.3,4.12,4.12,0,0,1,3.15,1.29,4.57,4.57,0,0,1,1.21,3.25Zm-1.44-1.91a3.6,3.6,0,0,0-.79-2.4,2.64,2.64,0,0,0-2.12-.94,2.44,2.44,0,0,0-2,.94,3.72,3.72,0,0,0-.75,2.4v1.91a3.74,3.74,0,0,0,.75,2.42,2.44,2.44,0,0,0,2,.94,2.64,2.64,0,0,0,2.13-.93,3.63,3.63,0,0,0,.79-2.42Z"/><path class="cls-1" d="M520.17,412.87v4.62h-1.44V406.84h3.86a4.05,4.05,0,0,1,2.67.78,2.78,2.78,0,0,1,.92,2.26,2.41,2.41,0,0,1-.43,1.43,2.9,2.9,0,0,1-1.25,1,2.18,2.18,0,0,1,1.26.93,3,3,0,0,1,.38,1.59v1a3.3,3.3,0,0,0,.11.89,1.32,1.32,0,0,0,.38.64v.18h-1.49a1.19,1.19,0,0,1-.37-.73,6.05,6.05,0,0,1-.08-1v-1a1.93,1.93,0,0,0-.51-1.39,1.79,1.79,0,0,0-1.36-.53Zm0-1.14h2.27a2.68,2.68,0,0,0,1.76-.46,1.77,1.77,0,0,0,.54-1.41,1.82,1.82,0,0,0-.52-1.39,2.31,2.31,0,0,0-1.63-.49h-2.42Z"/><path class="cls-1" d="M538.72,412.55h-4.88v3.81h5.63v1.14h-7.08V406.83h7V408h-5.55v3.45h4.88Z"/><path class="cls-1" d="M549.22,417.49h-1.44l-5.13-8.25h0v8.23h-1.44V406.83h1.44l5.13,8.23h0v-8.22h1.44Z"/><path class="cls-1" d="M559.08,408h-3.43v9.53h-1.44V408h-3.42v-1.14h8.29Z"/><path class="cls-1" d="M567,412.55h-4.88v3.81h5.63v1.14h-7.08V406.83h7V408h-5.55v3.45H567Z"/><path class="cls-1" d="M570.86,412.87v4.62h-1.44V406.84h3.86a4.05,4.05,0,0,1,2.67.78,2.78,2.78,0,0,1,.92,2.26,2.41,2.41,0,0,1-.43,1.43,2.9,2.9,0,0,1-1.25,1,2.18,2.18,0,0,1,1.26.93,3,3,0,0,1,.38,1.59v1a3.3,3.3,0,0,0,.11.89,1.32,1.32,0,0,0,.38.64v.18h-1.49a1.19,1.19,0,0,1-.37-.73,6.05,6.05,0,0,1-.08-1v-1a1.93,1.93,0,0,0-.51-1.39,1.79,1.79,0,0,0-1.36-.53Zm0-1.14h2.27a2.68,2.68,0,0,0,1.76-.46,1.77,1.77,0,0,0,.54-1.41,1.82,1.82,0,0,0-.52-1.39,2.31,2.31,0,0,0-1.63-.49h-2.42Z"/><path class="cls-1" d="M580.8,413.22v4.28h-1.44V406.83h4.08a3.74,3.74,0,0,1,2.65.88,3.32,3.32,0,0,1,0,4.64,3.77,3.77,0,0,1-2.65.87Zm0-1.14h2.64a2.11,2.11,0,0,0,1.61-3.52,2.07,2.07,0,0,0-1.61-.59H580.8Z"/><path class="cls-1" d="M590.41,412.87v4.62H589V406.84h3.86a4.05,4.05,0,0,1,2.67.78,2.78,2.78,0,0,1,.92,2.26,2.41,2.41,0,0,1-.43,1.43,2.9,2.9,0,0,1-1.25,1,2.18,2.18,0,0,1,1.26.93,3,3,0,0,1,.38,1.59v1a3.3,3.3,0,0,0,.11.89,1.32,1.32,0,0,0,.38.64v.18h-1.49a1.19,1.19,0,0,1-.37-.73,6.05,6.05,0,0,1-.08-1v-1a1.93,1.93,0,0,0-.51-1.39,1.79,1.79,0,0,0-1.36-.53Zm0-1.14h2.27a2.68,2.68,0,0,0,1.76-.46,1.77,1.77,0,0,0,.54-1.41,1.82,1.82,0,0,0-.52-1.39,2.31,2.31,0,0,0-1.63-.49h-2.42Z"/><path class="cls-1" d="M600.43,417.49H599V406.83h1.45Z"/><path class="cls-1" d="M609,414.81a1.57,1.57,0,0,0-.55-1.22,4.64,4.64,0,0,0-1.95-.83,6.45,6.45,0,0,1-2.64-1.19,2.46,2.46,0,0,1-.95-2,2.59,2.59,0,0,1,1-2.08,4,4,0,0,1,2.65-.84,3.94,3.94,0,0,1,2.79,1,2.83,2.83,0,0,1,1,2.23v0h-1.38a2,2,0,0,0-.62-1.52,3,3,0,0,0-3.43-.09,1.59,1.59,0,0,0-.58,1.27,1.4,1.4,0,0,0,.62,1.16,5.91,5.91,0,0,0,2,.82,5.77,5.77,0,0,1,2.56,1.23,2.63,2.63,0,0,1,.88,2,2.46,2.46,0,0,1-1.05,2.07,4.5,4.5,0,0,1-2.75.78,4.77,4.77,0,0,1-2.82-.87,2.62,2.62,0,0,1-1.19-2.32v0H604a1.79,1.79,0,0,0,.75,1.56,3.15,3.15,0,0,0,1.87.53,2.91,2.91,0,0,0,1.73-.46A1.46,1.46,0,0,0,609,414.81Z"/><path class="cls-1" d="M618.82,412.55h-4.88v3.81h5.63v1.14H612.5V406.83h7V408h-5.55v3.45h4.88Z"/><path class="cls-1" d="M514,435.49h-1.45V424.83H514Z"/><path class="cls-1" d="M518.12,431.22v4.28h-1.44V424.83h4.08a3.74,3.74,0,0,1,2.65.88,3.32,3.32,0,0,1,0,4.64,3.77,3.77,0,0,1-2.65.87Zm0-1.14h2.64a2.11,2.11,0,0,0,1.61-3.52,2.07,2.07,0,0,0-1.61-.59h-2.64Z"/><path class="cls-1" d="M528.66,433.16l.13.56h0l.14-.56,1.82-5.59h1.47l-2.92,7.92h-1.09l-3-7.92h1.48Z"/><path class="cls-1" d="M539.15,431.9h1.47V433h-1.47v2.45h-1.44V433h-4.79v-.81l4.7-7.4h1.52Zm-4.69,0h3.25v-5h0l-.14.37Z"/><path class="cls-1" d="M554.07,435.49h-1.44l-5.13-8.25h0v8.23H546V424.83h1.44l5.13,8.23h0v-8.22h1.44Z"/><path class="cls-1" d="M563,430.55h-4.88v3.81h5.63v1.14h-7.08V424.83h7V426h-5.55v3.45H563Z"/><path class="cls-1" d="M572.7,426h-3.43v9.53h-1.44V426h-3.42v-1.14h8.29Z"/><path class="cls-1" d="M576.4,431.8l.2,1.33h0l.29-1.34,2-7h1.28l2,7,.29,1.37h0l.21-1.37,1.59-7h1.44l-2.57,10.66h-1.29l-2.1-7.4-.19-1h0l-.18,1-2.14,7.4H575.9l-2.56-10.66h1.44Z"/><path class="cls-1" d="M595.58,431.11a4.55,4.55,0,0,1-1.21,3.24,4.12,4.12,0,0,1-3.15,1.29,3.91,3.91,0,0,1-3-1.29,4.65,4.65,0,0,1-1.17-3.24v-1.9a4.66,4.66,0,0,1,1.17-3.24,3.9,3.9,0,0,1,3-1.3,4.12,4.12,0,0,1,3.15,1.29,4.57,4.57,0,0,1,1.21,3.25Zm-1.44-1.91a3.6,3.6,0,0,0-.79-2.4,2.64,2.64,0,0,0-2.12-.94,2.44,2.44,0,0,0-2,.94,3.72,3.72,0,0,0-.75,2.4v1.91a3.74,3.74,0,0,0,.75,2.42,2.44,2.44,0,0,0,2,.94,2.64,2.64,0,0,0,2.13-.93,3.63,3.63,0,0,0,.79-2.42Z"/><path class="cls-1" d="M599.18,430.87v4.62h-1.44V424.84h3.86a4.05,4.05,0,0,1,2.67.78,2.78,2.78,0,0,1,.92,2.26,2.41,2.41,0,0,1-.43,1.43,2.9,2.9,0,0,1-1.25,1,2.18,2.18,0,0,1,1.26.93,3,3,0,0,1,.38,1.59v1a3.3,3.3,0,0,0,.11.89,1.32,1.32,0,0,0,.38.64v.18h-1.49a1.19,1.19,0,0,1-.37-.73,6.05,6.05,0,0,1-.08-1v-1a1.93,1.93,0,0,0-.51-1.39,1.79,1.79,0,0,0-1.36-.53Zm0-1.14h2.27a2.68,2.68,0,0,0,1.76-.46,1.77,1.77,0,0,0,.54-1.41,1.82,1.82,0,0,0-.52-1.39,2.31,2.31,0,0,0-1.63-.49h-2.42Z"/><path class="cls-1" d="M610.36,430.68h-1.24v4.81h-1.44V424.83h1.44v4.72h1.11l3.82-4.72h1.6l0,0L611.53,430l4.44,5.47,0,0h-1.72Z"/><path class="cls-2" d="M593.61,376H529.9a25.33,25.33,0,0,1-8.82-49.07,17.3,17.3,0,0,1-1.39-6.81,17.52,17.52,0,0,1,25.57-15.6A33,33,0,0,1,607,320.79c0,.2,0,.4,0,.6A28.94,28.94,0,0,1,593.61,376Zm-56.37-71.44a15.57,15.57,0,0,0-15.54,15.55,15.39,15.39,0,0,0,1.65,6.95l.52,1-1.11.36A23.33,23.33,0,0,0,529.9,374h63.71a26.94,26.94,0,0,0,11.94-51.09l-.58-.29,0-.65c0-.41,0-.78,0-1.16a31,31,0,0,0-58.49-14.47l-.49.93-.9-.54A15.51,15.51,0,0,0,537.24,304.54Z"/><path class="cls-3" d="M510.61,238.14v0a3.22,3.22,0,0,1-1.05,2.52,4,4,0,0,1-2.86,1,3.76,3.76,0,0,1-2.95-1.28,4.71,4.71,0,0,1-1.14-3.25v-1.9a4.73,4.73,0,0,1,1.14-3.25,3.76,3.76,0,0,1,2.95-1.29,4.14,4.14,0,0,1,2.88,1,3.18,3.18,0,0,1,1,2.55v0h-1.38a2.38,2.38,0,0,0-.66-1.77,2.54,2.54,0,0,0-1.86-.65,2.27,2.27,0,0,0-1.93,1,4,4,0,0,0-.72,2.42v1.91a4,4,0,0,0,.72,2.43,2.27,2.27,0,0,0,1.93,1,2.54,2.54,0,0,0,1.86-.65,2.39,2.39,0,0,0,.66-1.79Z"/><path class="cls-3" d="M520.3,240.15a3.41,3.41,0,0,1-1.32,1.08,5.26,5.26,0,0,1-2.44.49,4.33,4.33,0,0,1-3.16-1.22,4.23,4.23,0,0,1-1.25-3.16v-2.2A4.4,4.4,0,0,1,513.3,232a4,4,0,0,1,3-1.22,4.27,4.27,0,0,1,2.88.9,3,3,0,0,1,1.07,2.32v0h-1.38a2.24,2.24,0,0,0-.71-1.53,2.61,2.61,0,0,0-1.85-.6,2.42,2.42,0,0,0-2,.92,3.55,3.55,0,0,0-.75,2.32v2.21a3.34,3.34,0,0,0,.83,2.34,2.74,2.74,0,0,0,2.12.92,3.9,3.9,0,0,0,1.49-.24,2.08,2.08,0,0,0,.83-.55v-2.42h-2.34v-1.13h3.78Z"/><path class="cls-3" d="M530.86,241.56h-1.44l-5.13-8.25h0v8.23H522.8V230.9h1.44l5.13,8.23h0V230.9h1.44Z"/><path class="cls-3" d="M533.53,242.48H532.3l4.45-11.58H538Z"/><path class="cls-3" d="M547.26,238.14v0a3.22,3.22,0,0,1-1.05,2.52,4,4,0,0,1-2.86,1,3.76,3.76,0,0,1-2.95-1.28,4.71,4.71,0,0,1-1.14-3.25v-1.9a4.73,4.73,0,0,1,1.14-3.25,3.76,3.76,0,0,1,2.95-1.29,4.14,4.14,0,0,1,2.88,1,3.18,3.18,0,0,1,1,2.55v0h-1.38a2.38,2.38,0,0,0-.66-1.77,2.54,2.54,0,0,0-1.86-.65,2.27,2.27,0,0,0-1.93,1,4,4,0,0,0-.72,2.42v1.91a4,4,0,0,0,.72,2.43,2.27,2.27,0,0,0,1.93,1,2.54,2.54,0,0,0,1.86-.65,2.39,2.39,0,0,0,.66-1.79Z"/><path class="cls-3" d="M557,240.15a3.41,3.41,0,0,1-1.32,1.08,5.26,5.26,0,0,1-2.44.49,4.33,4.33,0,0,1-3.16-1.22,4.23,4.23,0,0,1-1.25-3.16v-2.2a4.4,4.4,0,0,1,1.16-3.16,4,4,0,0,1,3-1.22,4.27,4.27,0,0,1,2.88.9A3,3,0,0,1,556.9,234v0h-1.38a2.24,2.24,0,0,0-.71-1.53,2.61,2.61,0,0,0-1.85-.6,2.42,2.42,0,0,0-2,.92,3.55,3.55,0,0,0-.75,2.32v2.21a3.34,3.34,0,0,0,.83,2.34,2.74,2.74,0,0,0,2.12.92,3.9,3.9,0,0,0,1.49-.24,2.08,2.08,0,0,0,.83-.55v-2.42h-2.34v-1.13H557Z"/><path class="cls-3" d="M567.51,241.56h-1.44l-5.13-8.25h0v8.23h-1.44V230.9h1.44l5.13,8.23h0V230.9h1.44Z"/><path class="cls-3" d="M576.06,238.81h-4.47l-1,2.75h-1.47l4.12-10.66h1.24l4.06,10.66h-1.47Zm-4-1.21h3.59l-1.76-4.86h0Z"/><path class="cls-3" d="M587.22,232h-3.43v9.53h-1.44V232h-3.42V230.9h8.29Z"/><path class="cls-3" d="M588.81,242.48h-1.23L592,230.9h1.22Z"/><path class="cls-3" d="M596.45,240.42h5v1.13H595V230.9h1.44Z"/><path class="cls-3" d="M608.92,238.87a1.57,1.57,0,0,0-.55-1.22,4.64,4.64,0,0,0-1.95-.83,6.46,6.46,0,0,1-2.64-1.19,2.46,2.46,0,0,1-.95-2,2.59,2.59,0,0,1,1-2.08,4,4,0,0,1,2.65-.84,3.94,3.94,0,0,1,2.79,1,2.83,2.83,0,0,1,1,2.23v0H608.9a2,2,0,0,0-.62-1.52,3,3,0,0,0-3.43-.09,1.58,1.58,0,0,0-.57,1.27,1.4,1.4,0,0,0,.62,1.16,5.92,5.92,0,0,0,2,.82,5.77,5.77,0,0,1,2.56,1.23,2.63,2.63,0,0,1,.88,2,2.46,2.46,0,0,1-1.05,2.07,4.5,4.5,0,0,1-2.75.78,4.77,4.77,0,0,1-2.82-.87,2.62,2.62,0,0,1-1.19-2.32v0h1.38a1.79,1.79,0,0,0,.75,1.56,3.15,3.15,0,0,0,1.87.53,2.91,2.91,0,0,0,1.73-.46A1.45,1.45,0,0,0,608.92,238.87Z"/><path class="cls-3" d="M620.53,241.56h-1.44l-5.13-8.25h0v8.23h-1.44V230.9h1.44l5.13,8.23h0V230.9h1.44Z"/><rect class="cls-4" x="568.04" y="446.13" width="2" height="17.52"/><rect class="cls-4" x="989.57" y="326.81" width="2" height="33.21"/><rect class="cls-4" x="68.24" y="326.14" width="434.78" height="2"/><path class="cls-2" d="M574,84.58l.82,3H575l.89-3,6.87-18.94h2.9l-9.6,25.27h-2.24l-9.62-25.27h2.9Z"/><path class="cls-2" d="M608,80h5.32v2.38H608v8.57h-2.78V82.34h-16v-1.6L604.95,56.9H608Zm-15.41,0h12.63V60.57l-.14,0-1.19,2.55Z"/><rect class="cls-4" x="627.07" y="325.5" width="364.53" height="2"/><rect class="cls-4" x="708.04" y="184.27" width="531.53" height="2"/><rect class="cls-4" x="1237.49" y="184.28" width="2" height="324.6"/><rect class="cls-4" x="988.96" y="416.07" width="2" height="34.04"/><rect class="cls-4" x="1059.92" y="507.2" width="178.14" height="2" transform="translate(-1.48 3.37) rotate(-0.17)"/><rect class="cls-4" x="67.48" y="326.21" width="2" height="120.03"/><rect class="cls-4" x="568.63" y="109.51" width="2" height="33"/><rect class="cls-4" x="567.93" y="250.29" width="2" height="28.49"/><path class="cls-4" d="M1077.94,244v4.28h-1.44V237.58h4.08a3.74,3.74,0,0,1,2.65.88,3.32,3.32,0,0,1,0,4.64,3.77,3.77,0,0,1-2.65.87Zm0-1.13h2.64a2.06,2.06,0,1,0,0-4.12h-2.64Z"/><path class="cls-4" d="M1089.58,241.59l-.74,0a1.66,1.66,0,0,0-1,.27,1.75,1.75,0,0,0-.6.76v5.66h-1.44v-7.92h1.29l.14,1.16a2.75,2.75,0,0,1,.83-1,1.94,1.94,0,0,1,1.14-.34l.31,0,.24.06Z"/><path class="cls-4" d="M1092.53,238.29h-1.44v-1.47h1.44Zm0,10h-1.44v-7.92h1.44Z"/><path class="cls-4" d="M1097.4,245.91l.13.56h0l.14-.56,1.82-5.59H1101l-2.92,7.92H1097l-3-7.92h1.48Z"/><path class="cls-4" d="M1107.06,248.24q-.07-.36-.11-.63a4.54,4.54,0,0,1,0-.55,3.38,3.38,0,0,1-1.05,1,2.69,2.69,0,0,1-1.4.38,2.59,2.59,0,0,1-1.89-.63,2.33,2.33,0,0,1-.65-1.75,2,2,0,0,1,.92-1.78,4.3,4.3,0,0,1,2.49-.64h1.57v-.78a1.45,1.45,0,0,0-.42-1.1,1.67,1.67,0,0,0-1.2-.41,1.74,1.74,0,0,0-1.13.35,1.07,1.07,0,0,0-.44.85h-1.38v0a1.92,1.92,0,0,1,.82-1.58,3.35,3.35,0,0,1,2.22-.72,3.27,3.27,0,0,1,2.17.68,2.43,2.43,0,0,1,.82,2v3.82a7.42,7.42,0,0,0,0,.82,4.22,4.22,0,0,0,.16.78Zm-2.39-1.06a2.58,2.58,0,0,0,1.41-.4,1.91,1.91,0,0,0,.82-.92v-1.29h-1.62a2.1,2.1,0,0,0-1.4.44,1.31,1.31,0,0,0-.52,1,1.08,1.08,0,0,0,.33.83A1.38,1.38,0,0,0,1104.66,247.18Z"/><path class="cls-4" d="M1112.34,238.41v1.91h1.5v1.07h-1.5v4.81a1.07,1.07,0,0,0,.23.78.83.83,0,0,0,.61.23l.27,0,.27-.07.19,1a1.26,1.26,0,0,1-.47.22,2.36,2.36,0,0,1-.63.08,1.87,1.87,0,0,1-1.4-.53,2.3,2.3,0,0,1-.52-1.67v-4.81h-1.26v-1.07h1.26v-1.91Z"/><path class="cls-4" d="M1118.91,248.4a3.34,3.34,0,0,1-2.63-1.1,4.15,4.15,0,0,1-1-2.86v-.32a4.06,4.06,0,0,1,1-2.82,3.1,3.1,0,0,1,2.38-1.12,3,3,0,0,1,2.42,1,3.86,3.86,0,0,1,.82,2.58v.9h-5.14l0,0a3.12,3.12,0,0,0,.58,1.87,1.85,1.85,0,0,0,1.56.73,3.62,3.62,0,0,0,1.29-.21,2.93,2.93,0,0,0,1-.58l.56.94a3.37,3.37,0,0,1-1.12.7A4.52,4.52,0,0,1,1118.91,248.4Zm-.22-7.09a1.56,1.56,0,0,0-1.24.61,2.88,2.88,0,0,0-.63,1.53l0,0h3.65v-.19a2.2,2.2,0,0,0-.45-1.42A1.62,1.62,0,0,0,1118.69,241.31Z"/><path class="cls-4" d="M1123.85,249.16h-1.23l4.45-11.58h1.22Z"/><path class="cls-4" d="M1137.58,244.82v0a3.22,3.22,0,0,1-1.05,2.52,4,4,0,0,1-2.86,1,3.76,3.76,0,0,1-2.95-1.28,4.72,4.72,0,0,1-1.14-3.25V242a4.73,4.73,0,0,1,1.14-3.25,3.76,3.76,0,0,1,2.95-1.29,4.14,4.14,0,0,1,2.88,1,3.19,3.19,0,0,1,1,2.55v0h-1.38a2.38,2.38,0,0,0-.66-1.77,2.54,2.54,0,0,0-1.86-.65,2.27,2.27,0,0,0-1.93,1A4,4,0,0,0,1131,242v1.91a4,4,0,0,0,.72,2.43,2.27,2.27,0,0,0,1.93,1,2.54,2.54,0,0,0,1.86-.65,2.39,2.39,0,0,0,.66-1.79Z"/><path class="cls-4" d="M1147.27,246.83a3.41,3.41,0,0,1-1.32,1.08,5.26,5.26,0,0,1-2.44.49,4.33,4.33,0,0,1-3.16-1.22,4.23,4.23,0,0,1-1.25-3.16v-2.2a4.4,4.4,0,0,1,1.16-3.16,4,4,0,0,1,3-1.22,4.27,4.27,0,0,1,2.88.9,3,3,0,0,1,1.07,2.32v0h-1.38a2.23,2.23,0,0,0-.71-1.53,2.6,2.6,0,0,0-1.85-.6,2.42,2.42,0,0,0-2,.92,3.55,3.55,0,0,0-.75,2.32V244a3.34,3.34,0,0,0,.83,2.34,2.74,2.74,0,0,0,2.12.92A3.9,3.9,0,0,0,1145,247a2.08,2.08,0,0,0,.83-.55v-2.42h-2.34v-1.13h3.78Z"/><path class="cls-4" d="M1157.84,248.24h-1.44l-5.13-8.25h0v8.23h-1.44V237.58h1.44l5.13,8.23h0v-8.22h1.44Z"/><path class="cls-4" d="M1082.3,263.56a1.57,1.57,0,0,0-.55-1.22,4.64,4.64,0,0,0-1.95-.83,6.46,6.46,0,0,1-2.64-1.19,2.46,2.46,0,0,1-.95-2,2.59,2.59,0,0,1,1-2.08,4,4,0,0,1,2.65-.84,3.94,3.94,0,0,1,2.79,1,2.83,2.83,0,0,1,1,2.23v0h-1.38a2,2,0,0,0-.62-1.52,3,3,0,0,0-3.43-.09,1.59,1.59,0,0,0-.58,1.27,1.4,1.4,0,0,0,.62,1.16,5.92,5.92,0,0,0,2,.82,5.77,5.77,0,0,1,2.56,1.23,2.63,2.63,0,0,1,.88,2,2.46,2.46,0,0,1-1.05,2.07,4.5,4.5,0,0,1-2.75.78,4.77,4.77,0,0,1-2.82-.87,2.62,2.62,0,0,1-1.19-2.32v0h1.38a1.79,1.79,0,0,0,.75,1.56,3.15,3.15,0,0,0,1.87.53,2.91,2.91,0,0,0,1.73-.46A1.45,1.45,0,0,0,1082.3,263.56Z"/><path class="cls-4" d="M1088.8,265.26a1.94,1.94,0,0,0,1.26-.44,1.35,1.35,0,0,0,.55-1.09h1.3l0,0a2.24,2.24,0,0,1-.91,1.82,3.33,3.33,0,0,1-2.21.8,3.2,3.2,0,0,1-2.64-1.13,4.35,4.35,0,0,1-.92-2.83v-.31a4.33,4.33,0,0,1,.92-2.82,3.61,3.61,0,0,1,4.91-.31,2.55,2.55,0,0,1,.85,2v0h-1.3a1.67,1.67,0,0,0-.51-1.23,1.76,1.76,0,0,0-1.3-.51,1.74,1.74,0,0,0-1.62.82,3.84,3.84,0,0,0-.49,2v.31a3.88,3.88,0,0,0,.48,2A1.74,1.74,0,0,0,1088.8,265.26Z"/><path class="cls-4" d="M1093.2,262.21a4.37,4.37,0,0,1,1-2.9,3.53,3.53,0,0,1,5.19,0,4.35,4.35,0,0,1,1,2.9v.16a4.34,4.34,0,0,1-1,2.9,3.54,3.54,0,0,1-5.19,0,4.34,4.34,0,0,1-1-2.9Zm1.44.16a3.74,3.74,0,0,0,.53,2.08,1.92,1.92,0,0,0,3.15,0,3.73,3.73,0,0,0,.54-2.08v-.16a3.72,3.72,0,0,0-.54-2.07,1.76,1.76,0,0,0-1.58-.83,1.74,1.74,0,0,0-1.56.83,3.75,3.75,0,0,0-.53,2.07Z"/><path class="cls-4" d="M1108.81,262.58a4.37,4.37,0,0,1-.82,2.76,2.71,2.71,0,0,1-2.26,1.05,3.13,3.13,0,0,1-1.29-.25,2.44,2.44,0,0,1-.94-.74v3.88h-1.44v-11h1.11l.23,1a2.61,2.61,0,0,1,1-.87,2.89,2.89,0,0,1,1.35-.3,2.63,2.63,0,0,1,2.29,1.17,5.28,5.28,0,0,1,.82,3.09Zm-1.44-.16a4.17,4.17,0,0,0-.53-2.21,1.72,1.72,0,0,0-1.56-.87,1.93,1.93,0,0,0-1.06.28,2.11,2.11,0,0,0-.71.77v3.83a2,2,0,0,0,.71.76,2,2,0,0,0,1.08.27,1.78,1.78,0,0,0,1.55-.75,3.29,3.29,0,0,0,.53-1.93Z"/><path class="cls-4" d="M1113.88,266.4a3.34,3.34,0,0,1-2.63-1.1,4.15,4.15,0,0,1-1-2.86v-.32a4.06,4.06,0,0,1,1-2.82,3.1,3.1,0,0,1,2.38-1.12,3,3,0,0,1,2.42,1,3.86,3.86,0,0,1,.82,2.58v.9h-5.14l0,0a3.12,3.12,0,0,0,.58,1.87,1.85,1.85,0,0,0,1.56.73,3.62,3.62,0,0,0,1.29-.21,2.93,2.93,0,0,0,1-.58l.56.94a3.37,3.37,0,0,1-1.12.7A4.52,4.52,0,0,1,1113.88,266.4Zm-.22-7.09a1.56,1.56,0,0,0-1.24.61,2.88,2.88,0,0,0-.63,1.53l0,0h3.65v-.19a2.2,2.2,0,0,0-.45-1.42A1.62,1.62,0,0,0,1113.66,259.31Z"/><path class="cls-4" d="M1118.19,262.43a5.29,5.29,0,0,1,.82-3.08,2.63,2.63,0,0,1,2.29-1.17,2.84,2.84,0,0,1,1.23.26,2.54,2.54,0,0,1,.92.75v-4.36h1.44v11.43h-1.18l-.17-1a2.57,2.57,0,0,1-1,.84,2.86,2.86,0,0,1-1.31.29,2.72,2.72,0,0,1-2.27-1.05,4.37,4.37,0,0,1-.82-2.76Zm1.44.15a3.37,3.37,0,0,0,.49,1.92,1.71,1.71,0,0,0,1.52.72,1.91,1.91,0,0,0,1.08-.29,2.19,2.19,0,0,0,.72-.82v-3.7a2.22,2.22,0,0,0-.72-.78,1.91,1.91,0,0,0-1.07-.29,1.65,1.65,0,0,0-1.53.86,4.42,4.42,0,0,0-.5,2.23Z"/><path class="cls-4" d="M1132.57,266.24h-1.45V255.58h1.45Z"/><path class="cls-4" d="M1136.73,262v4.28h-1.44V255.58h4.08a3.74,3.74,0,0,1,2.65.88,3.32,3.32,0,0,1,0,4.64,3.77,3.77,0,0,1-2.65.87Zm0-1.13h2.64a2.06,2.06,0,1,0,0-4.12h-2.64Z"/><path class="cls-4" d="M1147.38,263.91l.13.56h0l.14-.56,1.82-5.59H1151l-2.92,7.92H1147l-3-7.92h1.48Z"/><path class="cls-4" d="M1157.86,262.66h1.47v1.14h-1.47v2.45h-1.44v-2.45h-4.79V263l4.7-7.4h1.52Zm-4.69,0h3.25v-5h0l-.14.37Z"/><path class="cls-4" d="M1082.27,281.5h-4.47l-1,2.75h-1.47l4.12-10.66h1.24l4.06,10.66h-1.47Zm-4-1.21h3.59l-1.76-4.86h0Z"/><path class="cls-4" d="M1085.6,280.43a5.29,5.29,0,0,1,.82-3.08,2.63,2.63,0,0,1,2.29-1.17,2.84,2.84,0,0,1,1.23.26,2.54,2.54,0,0,1,.92.75v-4.36h1.44v11.43h-1.18l-.17-1a2.57,2.57,0,0,1-1,.84,2.86,2.86,0,0,1-1.31.29,2.72,2.72,0,0,1-2.27-1.05,4.37,4.37,0,0,1-.82-2.76Zm1.44.15a3.37,3.37,0,0,0,.49,1.92,1.71,1.71,0,0,0,1.52.72,1.91,1.91,0,0,0,1.08-.29,2.19,2.19,0,0,0,.72-.82v-3.7a2.22,2.22,0,0,0-.72-.78,1.91,1.91,0,0,0-1.07-.29,1.65,1.65,0,0,0-1.53.86,4.42,4.42,0,0,0-.5,2.23Z"/><path class="cls-4" d="M1094.13,280.43a5.29,5.29,0,0,1,.82-3.08,2.63,2.63,0,0,1,2.29-1.17,2.84,2.84,0,0,1,1.23.26,2.54,2.54,0,0,1,.92.75v-4.36h1.44v11.43h-1.18l-.17-1a2.57,2.57,0,0,1-1,.84,2.86,2.86,0,0,1-1.31.29,2.72,2.72,0,0,1-2.27-1.05,4.37,4.37,0,0,1-.82-2.76Zm1.44.15a3.37,3.37,0,0,0,.49,1.92,1.71,1.71,0,0,0,1.52.72,1.91,1.91,0,0,0,1.08-.29,2.19,2.19,0,0,0,.72-.82v-3.7a2.22,2.22,0,0,0-.72-.78,1.91,1.91,0,0,0-1.07-.29,1.65,1.65,0,0,0-1.53.86,4.42,4.42,0,0,0-.5,2.23Z"/><path class="cls-4" d="M1106.73,277.59l-.74,0a1.66,1.66,0,0,0-1,.27,1.75,1.75,0,0,0-.6.76v5.66H1103v-7.92h1.29l.14,1.16a2.75,2.75,0,0,1,.83-1,1.94,1.94,0,0,1,1.14-.34l.31,0,.24.06Z"/><path class="cls-4" d="M1111.28,284.4a3.34,3.34,0,0,1-2.63-1.1,4.15,4.15,0,0,1-1-2.86v-.32a4.06,4.06,0,0,1,1-2.82,3.1,3.1,0,0,1,2.38-1.12,3,3,0,0,1,2.42,1,3.86,3.86,0,0,1,.82,2.58v.9h-5.14l0,0a3.12,3.12,0,0,0,.58,1.87,1.85,1.85,0,0,0,1.56.73,3.62,3.62,0,0,0,1.29-.21,2.93,2.93,0,0,0,1-.58l.56.94a3.37,3.37,0,0,1-1.12.7A4.52,4.52,0,0,1,1111.28,284.4Zm-.22-7.09a1.56,1.56,0,0,0-1.24.61,2.88,2.88,0,0,0-.63,1.53l0,0h3.65v-.19a2.2,2.2,0,0,0-.45-1.42A1.62,1.62,0,0,0,1111.06,277.31Z"/><path class="cls-4" d="M1120.53,282.13a1,1,0,0,0-.36-.78,3.42,3.42,0,0,0-1.37-.54,5.78,5.78,0,0,1-2.17-.85,1.73,1.73,0,0,1-.73-1.47,2.07,2.07,0,0,1,.82-1.65,3.74,3.74,0,0,1,4.34,0,2.1,2.1,0,0,1,.78,1.73v0h-1.38a1.26,1.26,0,0,0-.44-.93,1.61,1.61,0,0,0-1.15-.41,1.67,1.67,0,0,0-1.14.34,1.06,1.06,0,0,0-.37.81.9.9,0,0,0,.33.74,3.39,3.39,0,0,0,1.34.48,5.78,5.78,0,0,1,2.23.88A1.77,1.77,0,0,1,1122,282a2,2,0,0,1-.85,1.71,3.58,3.58,0,0,1-2.23.65,3.48,3.48,0,0,1-2.39-.77,2.19,2.19,0,0,1-.83-1.79v0h1.38a1.32,1.32,0,0,0,.57,1.12,2.22,2.22,0,0,0,1.25.35,2,2,0,0,0,1.21-.31A1,1,0,0,0,1120.53,282.13Z"/><path class="cls-4" d="M1128.37,282.13a1,1,0,0,0-.36-.78,3.42,3.42,0,0,0-1.37-.54,5.78,5.78,0,0,1-2.17-.85,1.73,1.73,0,0,1-.73-1.47,2.07,2.07,0,0,1,.82-1.65,3.74,3.74,0,0,1,4.34,0,2.1,2.1,0,0,1,.78,1.73v0h-1.38a1.26,1.26,0,0,0-.44-.93,1.61,1.61,0,0,0-1.15-.41,1.67,1.67,0,0,0-1.14.34,1.06,1.06,0,0,0-.37.81.9.9,0,0,0,.33.74,3.39,3.39,0,0,0,1.34.48,5.78,5.78,0,0,1,2.23.88,1.77,1.77,0,0,1,.73,1.48,2,2,0,0,1-.85,1.71,3.58,3.58,0,0,1-2.23.65,3.48,3.48,0,0,1-2.39-.77,2.19,2.19,0,0,1-.83-1.79v0h1.38a1.32,1.32,0,0,0,.57,1.12,2.22,2.22,0,0,0,1.25.35,2,2,0,0,0,1.21-.31A1,1,0,0,0,1128.37,282.13Z"/><path class="cls-4" d="M1134.89,284.4a3.34,3.34,0,0,1-2.63-1.1,4.15,4.15,0,0,1-1-2.86v-.32a4.06,4.06,0,0,1,1-2.82,3.1,3.1,0,0,1,2.38-1.12,3,3,0,0,1,2.42,1,3.86,3.86,0,0,1,.82,2.58v.9h-5.14l0,0a3.12,3.12,0,0,0,.58,1.87,1.85,1.85,0,0,0,1.56.73,3.62,3.62,0,0,0,1.29-.21,2.93,2.93,0,0,0,1-.58l.56.94a3.37,3.37,0,0,1-1.12.7A4.52,4.52,0,0,1,1134.89,284.4Zm-.22-7.09a1.56,1.56,0,0,0-1.24.61,2.88,2.88,0,0,0-.63,1.53l0,0h3.65v-.19a2.2,2.2,0,0,0-.45-1.42A1.62,1.62,0,0,0,1134.67,277.31Z"/><path class="cls-4" d="M1144.14,282.13a1,1,0,0,0-.36-.78,3.42,3.42,0,0,0-1.37-.54,5.78,5.78,0,0,1-2.17-.85,1.73,1.73,0,0,1-.73-1.47,2.07,2.07,0,0,1,.82-1.65,3.74,3.74,0,0,1,4.34,0,2.1,2.1,0,0,1,.78,1.73v0h-1.38a1.26,1.26,0,0,0-.44-.93,1.61,1.61,0,0,0-1.15-.41,1.67,1.67,0,0,0-1.14.34,1.06,1.06,0,0,0-.37.81.9.9,0,0,0,.33.74,3.39,3.39,0,0,0,1.34.48,5.78,5.78,0,0,1,2.23.88,1.77,1.77,0,0,1,.73,1.48,2,2,0,0,1-.85,1.71,3.58,3.58,0,0,1-2.23.65,3.48,3.48,0,0,1-2.39-.77,2.19,2.19,0,0,1-.83-1.79v0h1.38a1.32,1.32,0,0,0,.57,1.12,2.22,2.22,0,0,0,1.25.35,2,2,0,0,0,1.21-.31A1,1,0,0,0,1144.14,282.13Z"/><path class="cls-4" d="M1082.84,415.43v0a3.22,3.22,0,0,1-1.05,2.52,4,4,0,0,1-2.86,1,3.76,3.76,0,0,1-2.95-1.28,4.72,4.72,0,0,1-1.14-3.25v-1.9a4.73,4.73,0,0,1,1.14-3.25,3.76,3.76,0,0,1,2.95-1.29,4.14,4.14,0,0,1,2.88,1,3.19,3.19,0,0,1,1,2.55v0h-1.38a2.38,2.38,0,0,0-.66-1.77,2.54,2.54,0,0,0-1.86-.65,2.27,2.27,0,0,0-1.93,1,4,4,0,0,0-.72,2.42v1.91a4,4,0,0,0,.72,2.43,2.27,2.27,0,0,0,1.93,1,2.54,2.54,0,0,0,1.86-.65,2.39,2.39,0,0,0,.66-1.79Z"/><path class="cls-4" d="M1084.2,414.81a4.37,4.37,0,0,1,1-2.9,3.53,3.53,0,0,1,5.19,0,4.35,4.35,0,0,1,1,2.9V415a4.34,4.34,0,0,1-1,2.9,3.54,3.54,0,0,1-5.19,0,4.34,4.34,0,0,1-1-2.9Zm1.44.16a3.74,3.74,0,0,0,.53,2.08,1.92,1.92,0,0,0,3.15,0,3.73,3.73,0,0,0,.54-2.08v-.16a3.72,3.72,0,0,0-.54-2.07,1.76,1.76,0,0,0-1.58-.83,1.74,1.74,0,0,0-1.56.83,3.75,3.75,0,0,0-.53,2.07Z"/><path class="cls-4" d="M1094.35,410.92l.1,1.18a2.88,2.88,0,0,1,1-1,2.65,2.65,0,0,1,1.36-.35,2.59,2.59,0,0,1,2,.75,3.3,3.3,0,0,1,.7,2.32v5H1098v-5a2.14,2.14,0,0,0-.41-1.49,1.66,1.66,0,0,0-1.26-.44,2,2,0,0,0-1.1.3,2.2,2.2,0,0,0-.77.82v5.78h-1.44v-7.92Z"/><path class="cls-4" d="M1106.19,416.74a1,1,0,0,0-.36-.78,3.42,3.42,0,0,0-1.37-.54,5.78,5.78,0,0,1-2.17-.85,1.73,1.73,0,0,1-.73-1.47,2.07,2.07,0,0,1,.82-1.65,3.74,3.74,0,0,1,4.34,0,2.1,2.1,0,0,1,.78,1.73v0h-1.38a1.26,1.26,0,0,0-.44-.93,1.61,1.61,0,0,0-1.15-.41,1.67,1.67,0,0,0-1.14.34,1.06,1.06,0,0,0-.37.81.9.9,0,0,0,.33.74,3.39,3.39,0,0,0,1.34.48,5.78,5.78,0,0,1,2.23.88,1.77,1.77,0,0,1,.73,1.48,2,2,0,0,1-.85,1.71,3.58,3.58,0,0,1-2.23.65,3.48,3.48,0,0,1-2.39-.77,2.19,2.19,0,0,1-.83-1.79v0h1.38a1.32,1.32,0,0,0,.57,1.12,2.22,2.22,0,0,0,1.25.35,2,2,0,0,0,1.21-.31A1,1,0,0,0,1106.19,416.74Z"/><path class="cls-4" d="M1114.46,417.68a2.69,2.69,0,0,1-1,1,2.62,2.62,0,0,1-1.35.34,2.55,2.55,0,0,1-2-.83,3.84,3.84,0,0,1-.73-2.58v-4.67h1.44v4.69a3,3,0,0,0,.37,1.74,1.39,1.39,0,0,0,1.17.48,2.38,2.38,0,0,0,1.27-.31,2,2,0,0,0,.76-.88v-5.71h1.44v7.92h-1.3Z"/><path class="cls-4" d="M1119.24,410.92l.1,1a2.68,2.68,0,0,1,1-.87,3,3,0,0,1,1.39-.31,2.45,2.45,0,0,1,1.36.37,2.21,2.21,0,0,1,.85,1.1,3,3,0,0,1,1-1.07,2.6,2.6,0,0,1,1.44-.4,2.37,2.37,0,0,1,1.91.83,3.8,3.8,0,0,1,.7,2.5v4.74h-1.44V414.1a2.63,2.63,0,0,0-.4-1.66,1.47,1.47,0,0,0-1.2-.49,1.53,1.53,0,0,0-1.2.51,2.24,2.24,0,0,0-.54,1.3v5.09h-1.45V414.1a2.59,2.59,0,0,0-.41-1.63,1.43,1.43,0,0,0-1.19-.52,2,2,0,0,0-1.08.27,1.76,1.76,0,0,0-.65.76v5.87H1118v-7.92Z"/><path class="cls-4" d="M1134.35,419a3.34,3.34,0,0,1-2.63-1.1,4.15,4.15,0,0,1-1-2.86v-.32a4.06,4.06,0,0,1,1-2.82,3.1,3.1,0,0,1,2.38-1.12,3,3,0,0,1,2.42,1,3.86,3.86,0,0,1,.82,2.58v.9h-5.14l0,0a3.12,3.12,0,0,0,.58,1.87,1.85,1.85,0,0,0,1.56.73,3.62,3.62,0,0,0,1.29-.21,2.93,2.93,0,0,0,1-.58l.56.94a3.37,3.37,0,0,1-1.12.7A4.52,4.52,0,0,1,1134.35,419Zm-.22-7.09a1.56,1.56,0,0,0-1.24.61,2.88,2.88,0,0,0-.63,1.53l0,0h3.65v-.19a2.2,2.2,0,0,0-.45-1.42A1.62,1.62,0,0,0,1134.13,411.91Z"/><path class="cls-4" d="M1142.75,412.2l-.74,0a1.66,1.66,0,0,0-1,.27,1.75,1.75,0,0,0-.6.76v5.66H1139v-7.92h1.29l.14,1.16a2.75,2.75,0,0,1,.83-1,1.94,1.94,0,0,1,1.14-.34l.31,0,.24.06Z"/><path class="cls-4" d="M1083.37,436.85h-1.44l-5.13-8.25h0v8.23h-1.44V426.19h1.44l5.13,8.23h0v-8.22h1.44Z"/><path class="cls-4" d="M1091.92,434.1h-4.47l-1,2.75H1085l4.12-10.66h1.24l4.06,10.66h-1.47Zm-4-1.21h3.59l-1.76-4.86h0Z"/><path class="cls-4" d="M1103.07,427.32h-3.43v9.53h-1.44v-9.53h-3.42v-1.13h8.29Z"/><path class="cls-4" d="M1104.67,437.77h-1.23l4.45-11.58h1.22Z"/><path class="cls-4" d="M1112.31,432.57v4.28h-1.44V426.19h4.08a3.74,3.74,0,0,1,2.65.88,3.32,3.32,0,0,1,0,4.64,3.77,3.77,0,0,1-2.65.87Zm0-1.13h2.64a2.06,2.06,0,1,0,0-4.12h-2.64Z"/><path class="cls-4" d="M1124,430.2l-.74,0a1.66,1.66,0,0,0-1,.27,1.75,1.75,0,0,0-.6.76v5.66h-1.44v-7.92h1.29l.14,1.16a2.75,2.75,0,0,1,.83-1,1.94,1.94,0,0,1,1.14-.34l.31,0,.24.06Z"/><path class="cls-4" d="M1126.9,426.9h-1.44v-1.47h1.44Zm0,10h-1.44v-7.92h1.44Z"/><path class="cls-4" d="M1131.77,434.51l.13.56h0l.14-.56,1.82-5.59h1.47l-2.92,7.92h-1.09l-3-7.92h1.48Z"/><path class="cls-4" d="M1141.43,436.85q-.07-.36-.11-.63a4.54,4.54,0,0,1,0-.55,3.38,3.38,0,0,1-1.05,1,2.69,2.69,0,0,1-1.4.38,2.59,2.59,0,0,1-1.89-.63,2.33,2.33,0,0,1-.65-1.75,2,2,0,0,1,.92-1.78,4.3,4.3,0,0,1,2.49-.64h1.57v-.78a1.45,1.45,0,0,0-.42-1.1,1.67,1.67,0,0,0-1.2-.41,1.74,1.74,0,0,0-1.13.35,1.07,1.07,0,0,0-.44.85h-1.38v0a1.92,1.92,0,0,1,.82-1.58,3.35,3.35,0,0,1,2.22-.72,3.27,3.27,0,0,1,2.17.68,2.43,2.43,0,0,1,.82,2v3.82a7.42,7.42,0,0,0,0,.82,4.22,4.22,0,0,0,.16.78Zm-2.39-1.06a2.58,2.58,0,0,0,1.41-.4,1.91,1.91,0,0,0,.82-.92v-1.29h-1.62a2.1,2.1,0,0,0-1.4.44,1.31,1.31,0,0,0-.52,1,1.08,1.08,0,0,0,.33.83A1.38,1.38,0,0,0,1139,435.79Z"/><path class="cls-4" d="M1146.71,427v1.91h1.5V430h-1.5v4.81a1.07,1.07,0,0,0,.23.78.83.83,0,0,0,.61.23l.27,0,.27-.07.19,1a1.26,1.26,0,0,1-.47.22,2.36,2.36,0,0,1-.63.08,1.87,1.87,0,0,1-1.4-.53,2.3,2.3,0,0,1-.52-1.67V430H1144v-1.07h1.26V427Z"/><path class="cls-4" d="M1153.28,437a3.34,3.34,0,0,1-2.63-1.1,4.15,4.15,0,0,1-1-2.86v-.32a4.06,4.06,0,0,1,1-2.82,3.1,3.1,0,0,1,2.38-1.12,3,3,0,0,1,2.42,1,3.86,3.86,0,0,1,.82,2.58v.9h-5.14l0,0a3.12,3.12,0,0,0,.58,1.87,1.85,1.85,0,0,0,1.56.73,3.62,3.62,0,0,0,1.29-.21,2.93,2.93,0,0,0,1-.58l.56.94a3.37,3.37,0,0,1-1.12.7A4.52,4.52,0,0,1,1153.28,437Zm-.22-7.09a1.56,1.56,0,0,0-1.24.61,2.88,2.88,0,0,0-.63,1.53l0,0h3.65v-.19a2.2,2.2,0,0,0-.45-1.42A1.62,1.62,0,0,0,1153.06,429.91Z"/><path class="cls-4" d="M1076.83,454.85h-1.45V444.19h1.45Z"/><path class="cls-4" d="M1081,450.57v4.28h-1.44V444.19h4.08a3.74,3.74,0,0,1,2.65.88,3.32,3.32,0,0,1,0,4.64,3.77,3.77,0,0,1-2.65.87Zm0-1.13h2.64a2.06,2.06,0,1,0,0-4.12H1081Z"/><path class="cls-4" d="M1091.64,452.51l.13.56h0l.14-.56,1.82-5.59h1.47l-2.92,7.92h-1.09l-3-7.92h1.48Z"/><path class="cls-4" d="M1102.12,451.26h1.47v1.14h-1.47v2.45h-1.44V452.4h-4.79v-.81l4.7-7.4h1.52Zm-4.69,0h3.25v-5h0l-.14.37Z"/><path class="cls-4" d="M1114.76,452.1h-4.47l-1,2.75h-1.47l4.12-10.66h1.24l4.06,10.66h-1.47Zm-4-1.21h3.59l-1.76-4.86h0Z"/><path class="cls-4" d="M1118.09,451a5.29,5.29,0,0,1,.82-3.08,2.63,2.63,0,0,1,2.29-1.17,2.84,2.84,0,0,1,1.23.26,2.54,2.54,0,0,1,.92.75v-4.36h1.44v11.43h-1.18l-.17-1a2.57,2.57,0,0,1-1,.84,2.86,2.86,0,0,1-1.31.29,2.72,2.72,0,0,1-2.27-1.05,4.37,4.37,0,0,1-.82-2.76Zm1.44.15a3.37,3.37,0,0,0,.49,1.92,1.71,1.71,0,0,0,1.52.72,1.91,1.91,0,0,0,1.08-.29,2.19,2.19,0,0,0,.72-.82V449a2.22,2.22,0,0,0-.72-.78,1.91,1.91,0,0,0-1.07-.29,1.65,1.65,0,0,0-1.53.86,4.42,4.42,0,0,0-.5,2.23Z"/><path class="cls-4" d="M1126.62,451a5.29,5.29,0,0,1,.82-3.08,2.63,2.63,0,0,1,2.29-1.17,2.84,2.84,0,0,1,1.23.26,2.54,2.54,0,0,1,.92.75v-4.36h1.44v11.43h-1.18l-.17-1a2.57,2.57,0,0,1-1,.84,2.86,2.86,0,0,1-1.31.29,2.72,2.72,0,0,1-2.27-1.05,4.37,4.37,0,0,1-.82-2.76Zm1.44.15a3.37,3.37,0,0,0,.49,1.92,1.71,1.71,0,0,0,1.52.72,1.91,1.91,0,0,0,1.08-.29,2.19,2.19,0,0,0,.72-.82V449a2.22,2.22,0,0,0-.72-.78,1.91,1.91,0,0,0-1.07-.29,1.65,1.65,0,0,0-1.53.86,4.42,4.42,0,0,0-.5,2.23Z"/><path class="cls-4" d="M1139.22,448.2l-.74,0a1.66,1.66,0,0,0-1,.27,1.75,1.75,0,0,0-.6.76v5.66h-1.44v-7.92h1.29l.14,1.16a2.75,2.75,0,0,1,.83-1,1.94,1.94,0,0,1,1.14-.34l.31,0,.24.06Z"/><path class="cls-4" d="M1143.76,455a3.34,3.34,0,0,1-2.63-1.1,4.15,4.15,0,0,1-1-2.86v-.32a4.06,4.06,0,0,1,1-2.82,3.1,3.1,0,0,1,2.38-1.12,3,3,0,0,1,2.42,1,3.86,3.86,0,0,1,.82,2.58v.9h-5.14l0,0a3.12,3.12,0,0,0,.58,1.87,1.85,1.85,0,0,0,1.56.73,3.62,3.62,0,0,0,1.29-.21,2.93,2.93,0,0,0,1-.58l.56.94a3.37,3.37,0,0,1-1.12.7A4.52,4.52,0,0,1,1143.76,455Zm-.22-7.09a1.56,1.56,0,0,0-1.24.61,2.88,2.88,0,0,0-.63,1.53l0,0h3.65v-.19a2.2,2.2,0,0,0-.45-1.42A1.62,1.62,0,0,0,1143.54,447.91Z"/><path class="cls-4" d="M1153,452.74a1,1,0,0,0-.36-.78,3.42,3.42,0,0,0-1.37-.54,5.78,5.78,0,0,1-2.17-.85,1.73,1.73,0,0,1-.73-1.47,2.07,2.07,0,0,1,.82-1.65,3.74,3.74,0,0,1,4.34,0,2.1,2.1,0,0,1,.78,1.73v0h-1.38a1.26,1.26,0,0,0-.44-.93,1.61,1.61,0,0,0-1.15-.41,1.67,1.67,0,0,0-1.14.34,1.06,1.06,0,0,0-.37.81.9.9,0,0,0,.33.74,3.39,3.39,0,0,0,1.34.48,5.78,5.78,0,0,1,2.23.88,1.77,1.77,0,0,1,.73,1.48,2,2,0,0,1-.85,1.71,3.58,3.58,0,0,1-2.23.65,3.48,3.48,0,0,1-2.39-.77,2.19,2.19,0,0,1-.83-1.79v0h1.38a1.32,1.32,0,0,0,.57,1.12,2.22,2.22,0,0,0,1.25.35,2,2,0,0,0,1.21-.31A1,1,0,0,0,1153,452.74Z"/><path class="cls-4" d="M1160.86,452.74a1,1,0,0,0-.36-.78,3.42,3.42,0,0,0-1.37-.54,5.78,5.78,0,0,1-2.17-.85,1.73,1.73,0,0,1-.73-1.47,2.07,2.07,0,0,1,.82-1.65,3.74,3.74,0,0,1,4.34,0,2.1,2.1,0,0,1,.78,1.73v0h-1.38a1.26,1.26,0,0,0-.44-.93,1.61,1.61,0,0,0-1.15-.41,1.67,1.67,0,0,0-1.14.34,1.06,1.06,0,0,0-.37.81.9.9,0,0,0,.33.74,3.39,3.39,0,0,0,1.34.48,5.78,5.78,0,0,1,2.23.88,1.77,1.77,0,0,1,.73,1.48,2,2,0,0,1-.85,1.71,3.58,3.58,0,0,1-2.23.65,3.48,3.48,0,0,1-2.39-.77,2.19,2.19,0,0,1-.83-1.79v0h1.38a1.32,1.32,0,0,0,.57,1.12,2.22,2.22,0,0,0,1.25.35,2,2,0,0,0,1.21-.31A1,1,0,0,0,1160.86,452.74Z"/><path class="cls-4" d="M1167.38,455a3.34,3.34,0,0,1-2.63-1.1,4.15,4.15,0,0,1-1-2.86v-.32a4.06,4.06,0,0,1,1-2.82,3.1,3.1,0,0,1,2.38-1.12,3,3,0,0,1,2.42,1,3.86,3.86,0,0,1,.82,2.58v.9h-5.14l0,0a3.12,3.12,0,0,0,.58,1.87,1.85,1.85,0,0,0,1.56.73,3.62,3.62,0,0,0,1.29-.21,2.93,2.93,0,0,0,1-.58l.56.94a3.37,3.37,0,0,1-1.12.7A4.52,4.52,0,0,1,1167.38,455Zm-.22-7.09a1.56,1.56,0,0,0-1.24.61,2.88,2.88,0,0,0-.63,1.53l0,0H1169v-.19a2.2,2.2,0,0,0-.45-1.42A1.62,1.62,0,0,0,1167.16,447.91Z"/><path class="cls-4" d="M1176.63,452.74a1,1,0,0,0-.36-.78,3.42,3.42,0,0,0-1.37-.54,5.78,5.78,0,0,1-2.17-.85,1.73,1.73,0,0,1-.73-1.47,2.07,2.07,0,0,1,.82-1.65,3.74,3.74,0,0,1,4.34,0,2.1,2.1,0,0,1,.78,1.73v0h-1.38a1.26,1.26,0,0,0-.44-.93,1.61,1.61,0,0,0-1.15-.41,1.67,1.67,0,0,0-1.14.34,1.06,1.06,0,0,0-.37.81.9.9,0,0,0,.33.74,3.39,3.39,0,0,0,1.34.48,5.78,5.78,0,0,1,2.23.88,1.77,1.77,0,0,1,.73,1.48,2,2,0,0,1-.85,1.71,3.58,3.58,0,0,1-2.23.65,3.48,3.48,0,0,1-2.39-.77,2.19,2.19,0,0,1-.83-1.79v0h1.38a1.32,1.32,0,0,0,.57,1.12,2.22,2.22,0,0,0,1.25.35,2,2,0,0,0,1.21-.31A1,1,0,0,0,1176.63,452.74Z"/><rect class="cls-5" x="577.06" y="262.15" width="488.2" height="2"/><rect class="cls-5" x="998.19" y="430.82" width="66.46" height="2"/><path class="cls-6" d="M582.65,536.45H555.81a3.75,3.75,0,0,1-3.75-3.75v-54a3.75,3.75,0,0,1,3.75-3.75h26.84a3.75,3.75,0,0,1,3.75,3.75v54A3.75,3.75,0,0,1,582.65,536.45Zm-26.84-59.54a1.75,1.75,0,0,0-1.75,1.75v54a1.75,1.75,0,0,0,1.75,1.75h26.84a1.75,1.75,0,0,0,1.75-1.75v-54a1.75,1.75,0,0,0-1.75-1.75Z"/><path class="cls-6" d="M578.65,517.44H559.82V483.29h18.83Zm-16.83-2h14.83V485.29H561.82Z"/><path class="cls-6" d="M569.23,531.08a4.27,4.27,0,1,1,4.27-4.27A4.28,4.28,0,0,1,569.23,531.08Zm0-6.55a2.27,2.27,0,1,0,2.27,2.27A2.28,2.28,0,0,0,569.23,524.54Z"/><path class="cls-1" d="M38,556.27H33.15v3.81h5.63v1.13H31.71V550.55h7v1.14H33.15v3.45H38Z"/><path class="cls-1" d="M48.54,561.21H47.1L42,553h0v8.23H40.47V550.55h1.44l5.13,8.23h0v-8.22h1.44Z"/><path class="cls-1" d="M58.4,551.68H55v9.53H53.53v-9.53H50.1v-1.14H58.4Z"/><path class="cls-1" d="M66.29,556.27H61.41v3.81H67v1.13H60V550.55h7v1.14H61.41v3.45h4.88Z"/><path class="cls-1" d="M70.17,556.59v4.62H68.73V550.56h3.86a4.05,4.05,0,0,1,2.67.78,2.78,2.78,0,0,1,.92,2.26,2.41,2.41,0,0,1-.43,1.43,2.9,2.9,0,0,1-1.25,1,2.18,2.18,0,0,1,1.26.93,3,3,0,0,1,.38,1.59v1a3.3,3.3,0,0,0,.11.89,1.32,1.32,0,0,0,.38.64v.18H75.16a1.19,1.19,0,0,1-.37-.73,6.05,6.05,0,0,1-.08-1v-1a1.93,1.93,0,0,0-.51-1.39,1.79,1.79,0,0,0-1.36-.53Zm0-1.14h2.27A2.68,2.68,0,0,0,74.2,555a1.77,1.77,0,0,0,.54-1.42,1.82,1.82,0,0,0-.52-1.39,2.31,2.31,0,0,0-1.63-.49H70.17Z"/><path class="cls-1" d="M80.11,556.93v4.28H78.67V550.55h4.08a3.74,3.74,0,0,1,2.65.88,3.32,3.32,0,0,1,0,4.64,3.77,3.77,0,0,1-2.65.87Zm0-1.13h2.64a2.11,2.11,0,0,0,1.61-3.52,2.07,2.07,0,0,0-1.61-.59H80.11Z"/><path class="cls-1" d="M89.72,556.59v4.62H88.28V550.56h3.86a4.05,4.05,0,0,1,2.67.78,2.78,2.78,0,0,1,.92,2.26,2.41,2.41,0,0,1-.43,1.43,2.9,2.9,0,0,1-1.25,1,2.18,2.18,0,0,1,1.26.93,3,3,0,0,1,.38,1.59v1a3.3,3.3,0,0,0,.11.89,1.32,1.32,0,0,0,.38.64v.18H94.71a1.19,1.19,0,0,1-.37-.73,6.05,6.05,0,0,1-.08-1v-1a1.93,1.93,0,0,0-.51-1.39,1.79,1.79,0,0,0-1.36-.53Zm0-1.14H92a2.68,2.68,0,0,0,1.76-.46,1.77,1.77,0,0,0,.54-1.42,1.82,1.82,0,0,0-.52-1.39,2.31,2.31,0,0,0-1.63-.49H89.72Z"/><path class="cls-1" d="M99.74,561.21H98.29V550.55h1.45Z"/><path class="cls-1" d="M108.27,558.53a1.57,1.57,0,0,0-.55-1.22,4.63,4.63,0,0,0-1.95-.83,6.44,6.44,0,0,1-2.64-1.19,2.46,2.46,0,0,1-.95-2,2.59,2.59,0,0,1,1-2.08,4,4,0,0,1,2.65-.84,3.94,3.94,0,0,1,2.79,1,2.83,2.83,0,0,1,1,2.23v0h-1.38a2,2,0,0,0-.62-1.52,3,3,0,0,0-3.43-.09,1.59,1.59,0,0,0-.58,1.27,1.4,1.4,0,0,0,.62,1.16,5.9,5.9,0,0,0,2,.82,5.77,5.77,0,0,1,2.56,1.23,2.63,2.63,0,0,1,.88,2,2.46,2.46,0,0,1-1.05,2.07,4.5,4.5,0,0,1-2.75.78,4.77,4.77,0,0,1-2.82-.87,2.62,2.62,0,0,1-1.19-2.32v0h1.38a1.79,1.79,0,0,0,.75,1.56,3.15,3.15,0,0,0,1.87.53,2.91,2.91,0,0,0,1.73-.46A1.46,1.46,0,0,0,108.27,558.53Z"/><path class="cls-1" d="M118.14,556.27h-4.88v3.81h5.63v1.13h-7.08V550.55h7v1.14h-5.55v3.45h4.88Z"/><path class="cls-1" d="M61.16,579.21H59.72L54.58,571h0v8.23H53.1V568.55h1.44l5.13,8.23h0v-8.22h1.44Z"/><path class="cls-1" d="M69.58,576.47H65.11l-1,2.75H62.62l4.12-10.66H68L72,579.21H70.57Zm-4-1.21h3.59l-1.76-4.86h0Z"/><path class="cls-1" d="M80.73,569.68H77.3v9.53H75.86v-9.53H72.44v-1.14h8.29Z"/><path class="cls-1" d="M87.61,575.62h1.47v1.14H87.61v2.45H86.17v-2.45H81.38v-.81l4.7-7.4h1.52Zm-4.69,0h3.25v-5h0L86,571Z"/><path class="cls-1" d="M96.05,575.62h1.47v1.14H96.05v2.45H94.62v-2.45H89.83v-.81l4.7-7.4h1.52Zm-4.69,0h3.25v-5h0l-.14.37Z"/><rect class="cls-5" x="578.21" y="125.64" width="488.32" height="2"/><path class="cls-4" d="M1078.13,118.51v4.28h-1.44V112.12h4.08a3.74,3.74,0,0,1,2.65.88,3.32,3.32,0,0,1,0,4.64,3.77,3.77,0,0,1-2.65.87Zm0-1.13h2.64a2.06,2.06,0,1,0,0-4.12h-2.64Z"/><path class="cls-4" d="M1091.05,121.61a2.69,2.69,0,0,1-1,1,2.62,2.62,0,0,1-1.35.34,2.55,2.55,0,0,1-2-.83,3.84,3.84,0,0,1-.73-2.58v-4.67h1.44v4.69a3,3,0,0,0,.37,1.74,1.39,1.39,0,0,0,1.17.48,2.38,2.38,0,0,0,1.27-.31,2,2,0,0,0,.76-.88v-5.71h1.44v7.92h-1.3Z"/><path class="cls-4" d="M1101.32,119.12a4.36,4.36,0,0,1-.82,2.76,2.72,2.72,0,0,1-2.27,1.05,2.89,2.89,0,0,1-1.36-.3,2.53,2.53,0,0,1-1-.9l-.18,1h-1.18V111.36H1096v4.44a2.5,2.5,0,0,1,.93-.81,2.84,2.84,0,0,1,1.29-.28,2.63,2.63,0,0,1,2.29,1.17,5.27,5.27,0,0,1,.82,3.08Zm-1.44-.15a4.37,4.37,0,0,0-.5-2.22,1.65,1.65,0,0,0-1.53-.86,1.89,1.89,0,0,0-1.12.33,2.3,2.3,0,0,0-.73.88v3.43a2.36,2.36,0,0,0,.73.92,1.88,1.88,0,0,0,1.14.33,1.72,1.72,0,0,0,1.52-.73,3.33,3.33,0,0,0,.5-1.92Z"/><path class="cls-4" d="M1104.63,122.79h-1.44V111.36h1.44Z"/><path class="cls-4" d="M1108.41,112.83H1107v-1.47h1.44Zm0,10H1107v-7.92h1.44Z"/><path class="cls-4" d="M1113.85,121.8a1.94,1.94,0,0,0,1.26-.44,1.35,1.35,0,0,0,.55-1.09h1.3l0,0a2.24,2.24,0,0,1-.91,1.82,3.33,3.33,0,0,1-2.21.8,3.2,3.2,0,0,1-2.64-1.13,4.35,4.35,0,0,1-.92-2.83v-.31a4.33,4.33,0,0,1,.92-2.82,3.61,3.61,0,0,1,4.91-.31,2.55,2.55,0,0,1,.85,2v0h-1.3a1.67,1.67,0,0,0-.51-1.23,1.76,1.76,0,0,0-1.3-.51,1.74,1.74,0,0,0-1.62.82,3.84,3.84,0,0,0-.49,2V119a3.88,3.88,0,0,0,.48,2A1.74,1.74,0,0,0,1113.85,121.8Z"/><path class="cls-4" d="M1124.12,122.79h-1.45V112.12h1.45Z"/><path class="cls-4" d="M1128.28,118.51v4.28h-1.44V112.12h4.08a3.74,3.74,0,0,1,2.65.88,3.32,3.32,0,0,1,0,4.64,3.77,3.77,0,0,1-2.65.87Zm0-1.13h2.64a2.06,2.06,0,1,0,0-4.12h-2.64Z"/><path class="cls-4" d="M1138.92,120.45l.13.56h0l.14-.56,1.82-5.59h1.47l-2.92,7.92h-1.09l-3-7.92H1137Z"/><path class="cls-4" d="M1149.41,119.2h1.47v1.14h-1.47v2.45H1148v-2.45h-4.79v-.81l4.7-7.4h1.52Zm-4.69,0H1148v-5h0l-.14.37Z"/><path class="cls-4" d="M1082.46,138H1078l-1,2.75h-1.47l4.12-10.66h1.24l4.06,10.66h-1.47Zm-4-1.21H1082l-1.76-4.86h0Z"/><path class="cls-4" d="M1085.8,137a5.29,5.29,0,0,1,.82-3.08,2.63,2.63,0,0,1,2.29-1.17,2.84,2.84,0,0,1,1.23.26,2.54,2.54,0,0,1,.92.75v-4.36h1.44v11.43h-1.18l-.17-1a2.57,2.57,0,0,1-1,.84,2.86,2.86,0,0,1-1.31.29,2.72,2.72,0,0,1-2.27-1.05,4.37,4.37,0,0,1-.82-2.76Zm1.44.15a3.37,3.37,0,0,0,.49,1.92,1.71,1.71,0,0,0,1.52.72,1.91,1.91,0,0,0,1.08-.29,2.19,2.19,0,0,0,.72-.82V135a2.22,2.22,0,0,0-.72-.78,1.91,1.91,0,0,0-1.07-.29,1.65,1.65,0,0,0-1.53.86,4.42,4.42,0,0,0-.5,2.23Z"/><path class="cls-4" d="M1094.32,137a5.29,5.29,0,0,1,.82-3.08,2.63,2.63,0,0,1,2.29-1.17,2.84,2.84,0,0,1,1.23.26,2.54,2.54,0,0,1,.92.75v-4.36H1101v11.43h-1.18l-.17-1a2.57,2.57,0,0,1-1,.84,2.86,2.86,0,0,1-1.31.29,2.72,2.72,0,0,1-2.27-1.05,4.37,4.37,0,0,1-.82-2.76Zm1.44.15a3.37,3.37,0,0,0,.49,1.92,1.71,1.71,0,0,0,1.52.72,1.91,1.91,0,0,0,1.08-.29,2.19,2.19,0,0,0,.72-.82V135a2.22,2.22,0,0,0-.72-.78,1.91,1.91,0,0,0-1.07-.29,1.65,1.65,0,0,0-1.53.86,4.42,4.42,0,0,0-.5,2.23Z"/><path class="cls-4" d="M1106.93,134.14l-.74,0a1.66,1.66,0,0,0-1,.27,1.75,1.75,0,0,0-.6.76v5.66h-1.44v-7.92h1.29l.14,1.16a2.75,2.75,0,0,1,.83-1,1.94,1.94,0,0,1,1.14-.34l.31,0,.24.06Z"/><path class="cls-4" d="M1111.47,140.94a3.34,3.34,0,0,1-2.63-1.1,4.15,4.15,0,0,1-1-2.86v-.32a4.06,4.06,0,0,1,1-2.82,3.1,3.1,0,0,1,2.38-1.12,3,3,0,0,1,2.42,1,3.86,3.86,0,0,1,.82,2.58v.9h-5.14l0,0a3.12,3.12,0,0,0,.58,1.87,1.85,1.85,0,0,0,1.56.73,3.62,3.62,0,0,0,1.29-.21,2.93,2.93,0,0,0,1-.58l.56.94a3.37,3.37,0,0,1-1.12.7A4.52,4.52,0,0,1,1111.47,140.94Zm-.22-7.09a1.56,1.56,0,0,0-1.24.61,2.88,2.88,0,0,0-.63,1.53l0,0H1113v-.19a2.2,2.2,0,0,0-.45-1.42A1.62,1.62,0,0,0,1111.25,133.85Z"/><path class="cls-4" d="M1120.72,138.68a1,1,0,0,0-.36-.78,3.42,3.42,0,0,0-1.37-.54,5.78,5.78,0,0,1-2.17-.85,1.73,1.73,0,0,1-.73-1.47,2.07,2.07,0,0,1,.82-1.65,3.74,3.74,0,0,1,4.34,0,2.1,2.1,0,0,1,.78,1.73v0h-1.38a1.26,1.26,0,0,0-.44-.93,1.61,1.61,0,0,0-1.15-.41,1.67,1.67,0,0,0-1.14.34,1.06,1.06,0,0,0-.37.81.9.9,0,0,0,.33.74,3.39,3.39,0,0,0,1.34.48,5.78,5.78,0,0,1,2.23.88,1.77,1.77,0,0,1,.73,1.48,2,2,0,0,1-.85,1.71,3.58,3.58,0,0,1-2.23.65,3.48,3.48,0,0,1-2.39-.77,2.19,2.19,0,0,1-.83-1.79v0h1.38a1.32,1.32,0,0,0,.57,1.12,2.22,2.22,0,0,0,1.25.35,2,2,0,0,0,1.21-.31A1,1,0,0,0,1120.72,138.68Z"/><path class="cls-4" d="M1128.56,138.68a1,1,0,0,0-.36-.78,3.42,3.42,0,0,0-1.37-.54,5.78,5.78,0,0,1-2.17-.85,1.73,1.73,0,0,1-.73-1.47,2.07,2.07,0,0,1,.82-1.65,3.74,3.74,0,0,1,4.34,0,2.1,2.1,0,0,1,.78,1.73v0h-1.38a1.26,1.26,0,0,0-.44-.93,1.61,1.61,0,0,0-1.15-.41,1.67,1.67,0,0,0-1.14.34,1.06,1.06,0,0,0-.37.81.9.9,0,0,0,.33.74,3.39,3.39,0,0,0,1.34.48,5.78,5.78,0,0,1,2.23.88,1.77,1.77,0,0,1,.73,1.48,2,2,0,0,1-.85,1.71,3.58,3.58,0,0,1-2.23.65,3.48,3.48,0,0,1-2.39-.77,2.19,2.19,0,0,1-.83-1.79v0h1.38a1.32,1.32,0,0,0,.57,1.12,2.22,2.22,0,0,0,1.25.35,2,2,0,0,0,1.21-.31A1,1,0,0,0,1128.56,138.68Z"/><path class="cls-4" d="M1135.09,140.94a3.34,3.34,0,0,1-2.63-1.1,4.15,4.15,0,0,1-1-2.86v-.32a4.06,4.06,0,0,1,1-2.82,3.1,3.1,0,0,1,2.38-1.12,3,3,0,0,1,2.42,1,3.86,3.86,0,0,1,.82,2.58v.9H1133l0,0a3.12,3.12,0,0,0,.58,1.87,1.85,1.85,0,0,0,1.56.73,3.62,3.62,0,0,0,1.29-.21,2.93,2.93,0,0,0,1-.58l.56.94a3.37,3.37,0,0,1-1.12.7A4.52,4.52,0,0,1,1135.09,140.94Zm-.22-7.09a1.56,1.56,0,0,0-1.24.61A2.88,2.88,0,0,0,1133,136l0,0h3.65v-.19a2.2,2.2,0,0,0-.45-1.42A1.62,1.62,0,0,0,1134.87,133.85Z"/><path class="cls-4" d="M1144.34,138.68a1,1,0,0,0-.36-.78,3.42,3.42,0,0,0-1.37-.54,5.78,5.78,0,0,1-2.17-.85,1.73,1.73,0,0,1-.73-1.47,2.07,2.07,0,0,1,.82-1.65,3.74,3.74,0,0,1,4.34,0,2.1,2.1,0,0,1,.78,1.73v0h-1.38a1.26,1.26,0,0,0-.44-.93,1.61,1.61,0,0,0-1.15-.41,1.67,1.67,0,0,0-1.14.34,1.06,1.06,0,0,0-.37.81.9.9,0,0,0,.33.74,3.39,3.39,0,0,0,1.34.48,5.78,5.78,0,0,1,2.23.88,1.77,1.77,0,0,1,.73,1.48,2,2,0,0,1-.85,1.71,3.58,3.58,0,0,1-2.23.65,3.48,3.48,0,0,1-2.39-.77,2.19,2.19,0,0,1-.83-1.79v0h1.38a1.32,1.32,0,0,0,.57,1.12,2.22,2.22,0,0,0,1.25.35,2,2,0,0,0,1.21-.31A1,1,0,0,0,1144.34,138.68Z"/><path class="cls-1" d="M934.22,558.39a1.57,1.57,0,0,0-.55-1.22,4.62,4.62,0,0,0-1.95-.83,6.43,6.43,0,0,1-2.64-1.19,2.46,2.46,0,0,1-.95-2,2.59,2.59,0,0,1,1-2.08,4,4,0,0,1,2.65-.84,3.94,3.94,0,0,1,2.79,1,2.83,2.83,0,0,1,1,2.23l0,0H934.2a2,2,0,0,0-.62-1.52,3,3,0,0,0-3.43-.09,1.59,1.59,0,0,0-.57,1.27,1.4,1.4,0,0,0,.62,1.16,5.88,5.88,0,0,0,2,.82,5.76,5.76,0,0,1,2.56,1.23,2.63,2.63,0,0,1,.88,2,2.46,2.46,0,0,1-1.05,2.07,4.5,4.5,0,0,1-2.75.78,4.76,4.76,0,0,1-2.82-.87,2.62,2.62,0,0,1-1.19-2.32v0h1.38a1.79,1.79,0,0,0,.75,1.56,3.14,3.14,0,0,0,1.87.53,2.9,2.9,0,0,0,1.73-.46A1.46,1.46,0,0,0,934.22,558.39Z"/><path class="cls-1" d="M944.1,556.13h-4.88v3.81h5.63v1.13h-7.08V550.41h7v1.14h-5.55V555h4.88Z"/><path class="cls-1" d="M948,556.45v4.62h-1.44V550.42h3.86a4.05,4.05,0,0,1,2.67.78,2.78,2.78,0,0,1,.92,2.26,2.41,2.41,0,0,1-.43,1.43,2.9,2.9,0,0,1-1.25,1,2.18,2.18,0,0,1,1.26.93,3,3,0,0,1,.38,1.59v1a3.3,3.3,0,0,0,.11.89,1.32,1.32,0,0,0,.38.64v.18H953a1.19,1.19,0,0,1-.37-.73,6.05,6.05,0,0,1-.08-1v-1A1.93,1.93,0,0,0,952,557a1.79,1.79,0,0,0-1.36-.53Zm0-1.14h2.27a2.68,2.68,0,0,0,1.76-.46,1.77,1.77,0,0,0,.54-1.42A1.82,1.82,0,0,0,952,552a2.31,2.31,0,0,0-1.63-.49H948Z"/><path class="cls-1" d="M959.64,558.42l.24.84h0l.24-.84,2.75-8h1.56l-4,10.66h-1.24l-4-10.66h1.57Z"/><path class="cls-1" d="M967.48,561.08H966V550.41h1.45Z"/><path class="cls-1" d="M977.74,557.66v0a3.21,3.21,0,0,1-1.05,2.52,4,4,0,0,1-2.86,1,3.76,3.76,0,0,1-2.95-1.28,4.72,4.72,0,0,1-1.14-3.25v-1.9a4.73,4.73,0,0,1,1.14-3.26,3.76,3.76,0,0,1,2.95-1.29,4.15,4.15,0,0,1,2.88,1,3.19,3.19,0,0,1,1,2.55v0h-1.38a2.38,2.38,0,0,0-.66-1.77,2.53,2.53,0,0,0-1.86-.65,2.27,2.27,0,0,0-1.93,1,4,4,0,0,0-.72,2.42v1.91a4,4,0,0,0,.72,2.43,2.27,2.27,0,0,0,1.93,1,2.54,2.54,0,0,0,1.86-.65,2.39,2.39,0,0,0,.66-1.79Z"/><path class="cls-1" d="M986,556.13h-4.88v3.81h5.63v1.13H979.7V550.41h7v1.14h-5.55V555H986Z"/><path class="cls-1" d="M993.64,556.8v4.28h-1.44V550.41h4.08a3.74,3.74,0,0,1,2.65.88,3.32,3.32,0,0,1,0,4.64,3.77,3.77,0,0,1-2.65.87Zm0-1.13h2.64a2.11,2.11,0,0,0,1.61-3.52,2.07,2.07,0,0,0-1.61-.59h-2.64Z"/><path class="cls-1" d="M1003.25,556.45v4.62h-1.44V550.42h3.86a4.05,4.05,0,0,1,2.67.78,2.78,2.78,0,0,1,.92,2.26,2.41,2.41,0,0,1-.43,1.43,2.9,2.9,0,0,1-1.25,1,2.18,2.18,0,0,1,1.26.93,3,3,0,0,1,.38,1.59v1a3.3,3.3,0,0,0,.11.89,1.32,1.32,0,0,0,.38.64v.18h-1.49a1.19,1.19,0,0,1-.37-.73,6.05,6.05,0,0,1-.08-1v-1a1.93,1.93,0,0,0-.51-1.39,1.79,1.79,0,0,0-1.36-.53Zm0-1.14h2.27a2.68,2.68,0,0,0,1.76-.46,1.77,1.77,0,0,0,.54-1.42,1.82,1.82,0,0,0-.52-1.39,2.31,2.31,0,0,0-1.63-.49h-2.42Z"/><path class="cls-1" d="M1019.81,556.7a4.55,4.55,0,0,1-1.21,3.25,4.12,4.12,0,0,1-3.15,1.29,3.91,3.91,0,0,1-3-1.29,4.65,4.65,0,0,1-1.17-3.25v-1.9a4.66,4.66,0,0,1,1.17-3.25,3.9,3.9,0,0,1,3-1.3,4.12,4.12,0,0,1,3.15,1.29,4.57,4.57,0,0,1,1.21,3.25Zm-1.44-1.91a3.6,3.6,0,0,0-.79-2.4,2.64,2.64,0,0,0-2.12-.94,2.44,2.44,0,0,0-2,.94,3.72,3.72,0,0,0-.75,2.4v1.91a3.74,3.74,0,0,0,.75,2.42,2.44,2.44,0,0,0,2,.94,2.64,2.64,0,0,0,2.13-.93,3.63,3.63,0,0,0,.79-2.42Z"/><path class="cls-1" d="M1025.13,558.42l.24.84h0l.24-.84,2.75-8H1030l-4,10.66h-1.24l-4-10.66h1.57Z"/><path class="cls-1" d="M1033,561.08h-1.45V550.41H1033Z"/><path class="cls-1" d="M1035.69,561.08V550.41H1039a4.38,4.38,0,0,1,4.63,4.61v1.46a4.37,4.37,0,0,1-4.63,4.6Zm1.44-9.53v8.39H1039a2.94,2.94,0,0,0,2.33-1,3.64,3.64,0,0,0,.85-2.5V555a3.63,3.63,0,0,0-.85-2.48,2.94,2.94,0,0,0-2.33-1Z"/><path class="cls-1" d="M1051.9,556.13H1047v3.81h5.63v1.13h-7.08V550.41h7v1.14H1047V555h4.88Z"/><path class="cls-1" d="M1055.78,556.45v4.62h-1.44V550.42h3.86a4.05,4.05,0,0,1,2.67.78,2.78,2.78,0,0,1,.92,2.26,2.41,2.41,0,0,1-.43,1.43,2.9,2.9,0,0,1-1.25,1,2.18,2.18,0,0,1,1.26.93,3,3,0,0,1,.38,1.59v1a3.3,3.3,0,0,0,.11.89,1.32,1.32,0,0,0,.38.64v.18h-1.49a1.19,1.19,0,0,1-.37-.73,6.05,6.05,0,0,1-.08-1v-1a1.93,1.93,0,0,0-.51-1.39,1.79,1.79,0,0,0-1.36-.53Zm0-1.14h2.27a2.68,2.68,0,0,0,1.76-.46,1.77,1.77,0,0,0,.54-1.42,1.82,1.82,0,0,0-.52-1.39,2.31,2.31,0,0,0-1.63-.49h-2.42Z"/><path class="cls-1" d="M977.14,579.08H975.7l-5.13-8.25h0v8.23h-1.44V568.41h1.44l5.13,8.23h0v-8.22h1.44Z"/><path class="cls-1" d="M985.56,576.33h-4.47l-1,2.75h-1.47l4.12-10.66H984L988,579.08h-1.47Zm-4-1.21h3.59l-1.76-4.86h0Z"/><path class="cls-1" d="M996.71,569.55h-3.43v9.53h-1.44v-9.53h-3.42v-1.14h8.29Z"/><path class="cls-1" d="M1003.59,575.49h1.47v1.14h-1.47v2.45h-1.44v-2.45h-4.79v-.81l4.7-7.4h1.52Zm-4.69,0h3.25v-5h0l-.14.37Z"/><path class="cls-1" d="M1012,575.49h1.47v1.14H1012v2.45h-1.44v-2.45h-4.79v-.81l4.7-7.4H1012Zm-4.69,0h3.25v-5h0l-.14.37Z"/><path class="cls-1" d="M1020.48,575.49H1022v1.14h-1.47v2.45H1019v-2.45h-4.79v-.81l4.7-7.4h1.52Zm-4.69,0H1019v-5h0l-.14.37Z"/><path class="cls-1" d="M509.62,550.43l3.4,8.67h0l3.4-8.67h1.85V561.1h-1.44v-4.22l.15-4.34h0l-3.46,8.56h-1l-3.44-8.54h0l.14,4.31v4.22h-1.44V550.43Z"/><path class="cls-1" d="M529,556.72a4.55,4.55,0,0,1-1.21,3.25,4.12,4.12,0,0,1-3.15,1.29,3.91,3.91,0,0,1-3-1.29,4.65,4.65,0,0,1-1.17-3.25v-1.9a4.66,4.66,0,0,1,1.17-3.25,3.9,3.9,0,0,1,3-1.3,4.12,4.12,0,0,1,3.15,1.29,4.57,4.57,0,0,1,1.21,3.25Zm-1.44-1.91a3.6,3.6,0,0,0-.79-2.4,2.64,2.64,0,0,0-2.12-.94,2.44,2.44,0,0,0-2,.94,3.72,3.72,0,0,0-.75,2.4v1.91a3.74,3.74,0,0,0,.75,2.42,2.44,2.44,0,0,0,2,.94,2.64,2.64,0,0,0,2.13-.93,3.63,3.63,0,0,0,.79-2.42Z"/><path class="cls-1" d="M531.17,561.1V550.43h3.48a4.22,4.22,0,0,1,2.62.72,2.55,2.55,0,0,1,.95,2.16,2,2,0,0,1-.46,1.27,2.69,2.69,0,0,1-1.19.83,2.46,2.46,0,0,1,1.52.94,2.79,2.79,0,0,1,.55,1.72,2.72,2.72,0,0,1-.95,2.24,4,4,0,0,1-2.57.77Zm1.44-6.13h2.34a1.91,1.91,0,0,0,1.31-.44,1.78,1.78,0,0,0,0-2.53,2.5,2.5,0,0,0-1.57-.43h-2Zm0,1.13V560h2.5a2.23,2.23,0,0,0,1.53-.49,1.74,1.74,0,0,0,.55-1.37,2.17,2.17,0,0,0-.46-1.47,1.76,1.76,0,0,0-1.41-.53Z"/><path class="cls-1" d="M542.28,561.1h-1.45V550.43h1.45Z"/><path class="cls-1" d="M546.44,560h5v1.13H545V550.43h1.44Z"/><path class="cls-1" d="M559.43,556.16h-4.88V560h5.63v1.13H553.1V550.43h7v1.14h-5.55V555h4.88Z"/><path class="cls-1" d="M567,556.82v4.28h-1.44V550.43h4.08a3.74,3.74,0,0,1,2.65.88,3.32,3.32,0,0,1,0,4.64,3.77,3.77,0,0,1-2.65.87Zm0-1.13h2.64a2.11,2.11,0,0,0,1.61-3.52,2.07,2.07,0,0,0-1.61-.59H567Z"/><path class="cls-1" d="M576.65,556.48v4.62H575.2V550.44h3.86a4.05,4.05,0,0,1,2.67.78,2.78,2.78,0,0,1,.92,2.26,2.41,2.41,0,0,1-.43,1.43,2.9,2.9,0,0,1-1.25,1,2.18,2.18,0,0,1,1.26.93,3,3,0,0,1,.38,1.59v1a3.3,3.3,0,0,0,.11.89,1.32,1.32,0,0,0,.38.64v.18h-1.49a1.19,1.19,0,0,1-.37-.73,6.05,6.05,0,0,1-.08-1v-1a1.93,1.93,0,0,0-.51-1.39,1.79,1.79,0,0,0-1.36-.53Zm0-1.14h2.27a2.68,2.68,0,0,0,1.76-.46,1.77,1.77,0,0,0,.54-1.42,1.82,1.82,0,0,0-.52-1.39,2.31,2.31,0,0,0-1.63-.49h-2.42Z"/><path class="cls-1" d="M593.21,556.72A4.55,4.55,0,0,1,592,560a4.12,4.12,0,0,1-3.15,1.29,3.91,3.91,0,0,1-3-1.29,4.65,4.65,0,0,1-1.17-3.25v-1.9a4.66,4.66,0,0,1,1.17-3.25,3.9,3.9,0,0,1,3-1.3,4.12,4.12,0,0,1,3.15,1.29,4.57,4.57,0,0,1,1.21,3.25Zm-1.44-1.91a3.6,3.6,0,0,0-.79-2.4,2.64,2.64,0,0,0-2.12-.94,2.44,2.44,0,0,0-2,.94,3.72,3.72,0,0,0-.75,2.4v1.91a3.74,3.74,0,0,0,.75,2.42,2.44,2.44,0,0,0,2,.94,2.64,2.64,0,0,0,2.13-.93,3.63,3.63,0,0,0,.79-2.42Z"/><path class="cls-1" d="M598.53,558.45l.24.84h0l.24-.84,2.75-8h1.56l-4,10.66h-1.24l-4-10.66h1.57Z"/><path class="cls-1" d="M606.38,561.1h-1.45V550.43h1.45Z"/><path class="cls-1" d="M609.09,561.1V550.43h3.27A4.38,4.38,0,0,1,617,555v1.46a4.37,4.37,0,0,1-4.63,4.6Zm1.44-9.53V560h1.83a2.94,2.94,0,0,0,2.33-1,3.64,3.64,0,0,0,.85-2.5V555a3.63,3.63,0,0,0-.85-2.48,2.94,2.94,0,0,0-2.33-1Z"/><path class="cls-1" d="M625.3,556.16h-4.88V560H626v1.13H619V550.43h7v1.14h-5.55V555h4.88Z"/><path class="cls-1" d="M629.18,556.48v4.62h-1.44V550.44h3.86a4.05,4.05,0,0,1,2.67.78,2.78,2.78,0,0,1,.92,2.26,2.41,2.41,0,0,1-.43,1.43,2.9,2.9,0,0,1-1.25,1,2.18,2.18,0,0,1,1.26.93,3,3,0,0,1,.38,1.59v1a3.3,3.3,0,0,0,.11.89,1.32,1.32,0,0,0,.38.64v.18h-1.49a1.19,1.19,0,0,1-.37-.73,6.05,6.05,0,0,1-.08-1v-1a1.93,1.93,0,0,0-.51-1.39,1.79,1.79,0,0,0-1.36-.53Zm0-1.14h2.27a2.68,2.68,0,0,0,1.76-.46,1.77,1.77,0,0,0,.54-1.42,1.82,1.82,0,0,0-.52-1.39,2.31,2.31,0,0,0-1.63-.49h-2.42Z"/><path class="cls-1" d="M557.74,579.1H556.3l-5.13-8.25h0v8.23h-1.44V568.43h1.44l5.13,8.23h0v-8.22h1.44Z"/><path class="cls-1" d="M566.16,576.35h-4.47l-1,2.75h-1.47l4.12-10.66h1.24l4.06,10.66h-1.47Zm-4-1.21h3.59L564,570.29h0Z"/><path class="cls-1" d="M577.31,569.57h-3.43v9.53h-1.44v-9.53H569v-1.14h8.29Z"/><path class="cls-1" d="M584.19,575.51h1.47v1.14h-1.47v2.45h-1.44v-2.45H578v-.81l4.7-7.4h1.52Zm-4.69,0h3.25v-5h0l-.14.37Z"/><path class="cls-1" d="M592.64,575.51h1.47v1.14h-1.47v2.45H591.2v-2.45h-4.79v-.81l4.7-7.4h1.52Zm-4.69,0h3.25v-5h0l-.14.37Z"/><path class="cls-3" d="M492.55,131H491.1V120.35h1.45Z"/><path class="cls-3" d="M503.33,131h-1.44l-5.13-8.25h0V131h-1.44V120.35h1.44l5.13,8.23h0v-8.22h1.44Z"/><path class="cls-3" d="M513,121.48h-3.43V131h-1.44v-9.53h-3.42v-1.13H513Z"/><path class="cls-3" d="M520.88,126.07H516v3.81h5.63V131h-7.08V120.35h7v1.13H516v3.45h4.89Z"/><path class="cls-3" d="M524.76,126.39V131h-1.44V120.36h3.86a4.06,4.06,0,0,1,2.67.78,2.78,2.78,0,0,1,.92,2.26,2.41,2.41,0,0,1-.43,1.43,2.9,2.9,0,0,1-1.25,1,2.18,2.18,0,0,1,1.26.93,3,3,0,0,1,.38,1.59v1a3.34,3.34,0,0,0,.11.89,1.34,1.34,0,0,0,.38.64V131h-1.49a1.19,1.19,0,0,1-.37-.73,6.05,6.05,0,0,1-.08-1v-1a1.93,1.93,0,0,0-.51-1.39,1.79,1.79,0,0,0-1.35-.53Zm0-1.14H527a2.68,2.68,0,0,0,1.76-.46,1.77,1.77,0,0,0,.54-1.42,1.82,1.82,0,0,0-.52-1.39,2.31,2.31,0,0,0-1.63-.49h-2.42Z"/><path class="cls-3" d="M541.32,131h-1.44l-5.13-8.25h0V131h-1.44V120.35h1.44l5.13,8.23h0v-8.22h1.44Z"/><path class="cls-3" d="M550.28,126.07H545.4v3.81H551V131H544V120.35h7v1.13H545.4v3.45h4.89Z"/><path class="cls-3" d="M560.09,121.48h-3.43V131h-1.44v-9.53H551.8v-1.13h8.29Z"/><path class="cls-2" d="M605.65,100.61c-.67,0-1.4,0-2.21-.09h-67c-.82.06-1.56.09-2.27.09a32.34,32.34,0,0,1-14.92-61c0-.25,0-.49,0-.74a36.94,36.94,0,0,1,69.14-18.11A19.54,19.54,0,0,1,617,38.05a19.29,19.29,0,0,1-1.6,7.71,28.29,28.29,0,0,1-9.73,54.84Zm-2.13-2.09c.84.06,1.51.09,2.13.09A26.29,26.29,0,0,0,613.7,47.3l-1.11-.36.52-1A17.37,17.37,0,0,0,615,38.05a17.54,17.54,0,0,0-26.5-15.1l-.9.54-.49-.93a34.94,34.94,0,0,0-65.86,16.28c0,.44,0,.87,0,1.31l0,.65-.58.29a30.34,30.34,0,0,0,13.45,57.53c.66,0,1.36,0,2.2-.09Z"/><path class="cls-2" d="M79.75,527.78l.67,2.42h.11l.72-2.42,5.59-15.43h2.36l-7.82,20.58H79.56l-7.84-20.58h2.36Z"/><path class="cls-2" d="M107.42,524h4.34V526h-4.34v7h-2.26v-7h-13v-1.31l12.77-19.41h2.49Zm-12.56,0h10.29V508.22l-.11,0-1,2.07Z"/><path class="cls-2" d="M105.57,541c-.56,0-1.15,0-1.82-.08H49.18c-.66,0-1.27.07-1.85.07A26.53,26.53,0,0,1,35,491c0-.17,0-.33,0-.49a30.28,30.28,0,0,1,56.58-15A16.1,16.1,0,0,1,115,489.88a15.89,15.89,0,0,1-1.24,6.17,23.23,23.23,0,0,1-8.17,45ZM103.83,539c.69.05,1.23.07,1.74.07a21.23,21.23,0,0,0,6.5-41.43l-1.11-.36.52-1a14,14,0,0,0,1.5-6.31,14.1,14.1,0,0,0-21.31-12.14l-.9.54-.49-.93A28.28,28.28,0,0,0,37,490.52c0,.34,0,.68,0,1l0,.65-.58.32A24.53,24.53,0,0,0,47.32,539c.6,0,1.19,0,1.78-.07Z"/><path class="cls-2" d="M1000.56,528l.67,2.42h.11l.72-2.42,5.59-15.43H1010l-7.82,20.58h-1.83l-7.84-20.58h2.36Z"/><path class="cls-2" d="M1028.22,524.26h4.34v1.94h-4.34v7H1026v-7h-13v-1.31l12.76-19.41h2.49Zm-12.56,0H1026V508.47l-.11,0-1,2.07Z"/><path class="cls-2" d="M1026.37,541.27c-.56,0-1.15,0-1.82-.08H970c-.66,0-1.27.07-1.85.07a26.53,26.53,0,0,1-12.34-50c0-.17,0-.33,0-.49a30.28,30.28,0,0,1,56.58-15,16.1,16.1,0,0,1,23.42,14.36,15.9,15.9,0,0,1-1.24,6.17,23.23,23.23,0,0,1-8.17,45Zm-1.74-2.07c.69.05,1.23.07,1.74.07a21.23,21.23,0,0,0,6.5-41.43l-1.11-.36.52-1a14,14,0,0,0,1.5-6.31A14.1,14.1,0,0,0,1012.48,478l-.9.54-.49-.93a28.28,28.28,0,0,0-53.3,13.18c0,.33,0,.66,0,1l0,.65-.58.35a24.53,24.53,0,0,0,10.87,46.51c.6,0,1.19,0,1.78-.07Z"/><path class="cls-2" d="M573.1,360.41l.67,2.42h.11l.72-2.42L580.2,345h2.36l-7.82,20.58h-1.83L565.08,345h2.36Z"/><path class="cls-2" d="M600.77,356.65h4.34v1.94h-4.34v7H598.5v-7h-13v-1.31l12.77-19.41h2.49Zm-12.56,0H598.5V340.86l-.11,0-1,2.07Z"/><rect class="cls-5" x="1064.84" y="111.85" width="2" height="29.03"/><path class="cls-1" d="M1230.7,442.74H1220v-3.27a4.38,4.38,0,0,1,4.61-4.63h1.46a4.37,4.37,0,0,1,4.6,4.63Zm-9.53-1.44h8.39v-1.83a2.94,2.94,0,0,0-1-2.33,3.65,3.65,0,0,0-2.5-.85h-1.47a3.63,3.63,0,0,0-2.48.85,2.94,2.94,0,0,0-1,2.33Z"/><path class="cls-1" d="M1225.76,426.53v4.89h3.81v-5.63h1.13v7.07H1220v-7h1.14v5.55h3.45v-4.89Z"/><path class="cls-1" d="M1226.42,422.65h4.28v1.44H1220V420a3.74,3.74,0,0,1,.88-2.65,3.32,3.32,0,0,1,4.64,0,3.77,3.77,0,0,1,.87,2.65Zm-1.13,0V420a2.11,2.11,0,0,0-3.52-1.61,2.07,2.07,0,0,0-.59,1.61v2.64Z"/><path class="cls-1" d="M1229.57,413v-5h1.13v6.49H1220V413Z"/><path class="cls-1" d="M1226.32,398.31a4.55,4.55,0,0,1,3.25,1.21,4.12,4.12,0,0,1,1.29,3.15,3.91,3.91,0,0,1-1.29,3,4.65,4.65,0,0,1-3.25,1.17h-1.9a4.66,4.66,0,0,1-3.25-1.17,3.9,3.9,0,0,1-1.3-3,4.12,4.12,0,0,1,1.29-3.15,4.57,4.57,0,0,1,3.25-1.21Zm-1.91,1.44a3.6,3.6,0,0,0-2.4.79,2.64,2.64,0,0,0-.94,2.13,2.44,2.44,0,0,0,.94,2,3.72,3.72,0,0,0,2.4.75h1.91a3.74,3.74,0,0,0,2.42-.75,2.44,2.44,0,0,0,.94-2,2.64,2.64,0,0,0-.93-2.13,3.63,3.63,0,0,0-2.42-.79Z"/><path class="cls-1" d="M1225.46,392.89l-5.42-2.78v-1.65l6.91,3.74h3.75v1.44h-3.84l-6.82,3.68v-1.65Z"/><path class="cls-1" d="M1220,385.15l8.67-3.4v0l-8.67-3.4v-1.85h10.66v1.44h-4.22l-4.34-.15v0l8.56,3.46v1l-8.54,3.44v0l4.31-.14h4.22V387H1220Z"/><path class="cls-1" d="M1225.76,367.49v4.88h3.81v-5.63h1.13v7.08H1220v-7h1.14v5.55h3.45v-4.88Z"/><path class="cls-1" d="M1230.7,357v1.44l-8.25,5.13v0h8.23v1.44H1220v-1.44l8.23-5.13v0H1220V357Z"/><path class="cls-1" d="M1221.17,347.13v3.43h9.53V352h-9.53v3.42H1220v-8.29Z"/><path class="cls-1" d="M1225.76,335.51v4.88h3.81v-5.63h1.13v7.08H1220v-7h1.14v5.55h3.45v-4.88Z"/><path class="cls-1" d="M1224.2,329.63l-4.16-2.49v-1.74l5.29,3.38,5.38-3.46V327l-4.23,2.56,4.23,2.56v1.74l-5.38-3.46-5.29,3.38V332.1Z"/><path class="cls-1" d="M1228,317.81v4.47l2.75,1v1.47L1220,320.63V319.4l10.66-4.06v1.47Zm-1.21,4v-3.59l-4.86,1.76v0Z"/><path class="cls-1" d="M1220,312l8.67-3.4v0l-8.67-3.4v-1.85h10.66v1.44h-4.22l-4.34-.15v0l8.56,3.46v1l-8.54,3.44v0l4.31-.14h4.22v1.44H1220Z"/><path class="cls-1" d="M1226.42,299.25h4.28v1.44H1220v-4.08a3.74,3.74,0,0,1,.88-2.65,3.32,3.32,0,0,1,4.64,0,3.77,3.77,0,0,1,.87,2.65Zm-1.13,0v-2.64a2.11,2.11,0,0,0-3.52-1.61,2.07,2.07,0,0,0-.59,1.61v2.64Z"/><path class="cls-1" d="M1229.57,289.64v-5h1.13v6.49H1220v-1.44Z"/><path class="cls-1" d="M1225.76,276.66v4.88h3.81v-5.63h1.13V283H1220v-7h1.14v5.55h3.45v-4.88Z"/><rect class="cls-5" x="1064.29" y="247.93" width="2" height="29.03"/><path class="cls-7" d="M1030.68,409.85h-84a4.12,4.12,0,0,1-3.78-4.35V374.16a4.12,4.12,0,0,1,3.77-4.36h84a4.11,4.11,0,0,1,3.78,4.35V405.5A4.11,4.11,0,0,1,1030.68,409.85Zm-84-38.05c-1,0-1.77,1.06-1.78,2.36V405.5a2.14,2.14,0,0,0,1.78,2.35h84a2.13,2.13,0,0,0,1.78-2.35V374.16c0-1.3-.8-2.35-1.78-2.36Z"/><path class="cls-7" d="M1019.32,390.83H989.69a1,1,0,0,1,0-2h29.63a1,1,0,0,1,0,2Z"/><path class="cls-7" d="M1049.39,376.36h0a1,1,0,0,1-1-1,17.69,17.69,0,0,0-17.31-18.06,1,1,0,0,1,0-2h0a19.69,19.69,0,0,1,19.27,20.11A1,1,0,0,1,1049.39,376.36Z"/><path class="cls-7" d="M1062.73,376.65h0a1,1,0,0,1-1-1,31.07,31.07,0,0,0-30.36-31.69,1,1,0,0,1,0-2h0a33.07,33.07,0,0,1,32.32,33.73A1,1,0,0,1,1062.73,376.65Z"/><path class="cls-7" d="M1076.15,376.93h0a1,1,0,0,1-1-1,44.5,44.5,0,0,0-43.49-45.39,1,1,0,0,1-1-1,1,1,0,0,1,1-1A46.51,46.51,0,0,1,1077.15,376,1,1,0,0,1,1076.15,376.93Z"/><rect class="cls-8" x="958.22" y="387.68" width="4.27" height="4.28"/><path class="cls-7" d="M963.49,393h-6.27v-6.28h6.27Zm-4.27-2h2.27v-2.28h-2.27Z"/><path class="cls-9" d="M448.66,209.81H442c-3.53,0-6.4-2.46-6.4-5.48V169.48c0-3,2.87-5.48,6.4-5.48h6.69v2H442c-2.43,0-4.4,1.56-4.4,3.48v34.85c0,1.92,2,3.48,4.4,3.48h6.69Z"/><path class="cls-9" d="M693.22,209.81h-8.6v-2h8.6c2.43,0,4.4-1.56,4.4-3.48V169.48c0-1.92-2-3.48-4.4-3.48h-8.6v-2h8.6c3.53,0,6.4,2.46,6.4,5.48v34.85C699.62,207.35,696.75,209.81,693.22,209.81Z"/><rect class="cls-9" x="501.29" y="198.79" width="29.71" height="2"/><rect class="cls-9" x="543.06" y="198.79" width="29.71" height="2"/><rect class="cls-9" x="584.84" y="198.79" width="29.71" height="2"/><rect class="cls-9" x="626.62" y="198.79" width="29.71" height="2"/><path class="cls-9" d="M473.9,177.52a2.39,2.39,0,1,1,2.39-2.39A2.4,2.4,0,0,1,473.9,177.52Zm0-2.79a.39.39,0,1,0,.39.39A.39.39,0,0,0,473.9,174.73Z"/><path class="cls-9" d="M473.9,189.58a2.39,2.39,0,1,1,2.39-2.39A2.4,2.4,0,0,1,473.9,189.58Zm0-2.79a.39.39,0,1,0,.39.39A.39.39,0,0,0,473.9,186.8Z"/><path class="cls-9" d="M473.9,201.65a2.39,2.39,0,1,1,2.39-2.39A2.4,2.4,0,0,1,473.9,201.65Zm0-2.79a.39.39,0,1,0,.39.39A.39.39,0,0,0,473.9,198.87Z"/><path class="cls-9" d="M531.77,189.65H500.51V172.79h31.26Zm-29.26-2h27.26V174.79H502.51Z"/><path class="cls-9" d="M573.55,189.65H542.29V172.79h31.26Zm-29.26-2h27.26V174.79H544.29Z"/><path class="cls-9" d="M615.33,189.65H584.07V172.79h31.26Zm-29.26-2h27.26V174.79H586.07Z"/><path class="cls-9" d="M657.11,189.65H625.84V172.79h31.26Zm-29.26-2h27.26V174.79H627.84Z"/><path class="cls-9" d="M676.43,221.55H456.85A9.56,9.56,0,0,1,447.3,212V161.85a9.56,9.56,0,0,1,9.55-9.55H676.43a9.56,9.56,0,0,1,9.55,9.55V212A9.56,9.56,0,0,1,676.43,221.55ZM456.85,154.3a7.56,7.56,0,0,0-7.55,7.55V212a7.56,7.56,0,0,0,7.55,7.55H676.43A7.56,7.56,0,0,0,684,212V161.85a7.56,7.56,0,0,0-7.55-7.55Z"/><rect class="cls-5" x="1063.99" y="417.15" width="2" height="29.03"/></svg>