<?xml version="1.0" encoding="utf-8"?>
<!-- Generator: Adobe Illustrator 21.1.0, SVG Export Plug-In . SVG Version: 6.00 Build 0)  -->
<svg version="1.1" id="Layer_1" xmlns="http://www.w3.org/2000/svg" xmlns:xlink="http://www.w3.org/1999/xlink" x="0px" y="0px"
	 viewBox="0 0 1250 688" style="enable-background:new 0 0 1250 688;" xml:space="preserve">
<style type="text/css">
	.st0{enable-background:new    ;}
	.st1{fill:#231F20;}
	.st2{fill:#17242D;}
	.st3{fill:#929495;}
	.st4{fill:#DA5100;}
	.st5{fill:#787878;}
	.st6{fill:#0075C9;}
	.st7{fill:#3FA1F2;}
	.st8{fill:#939596;}
	.st9{fill:#ED7C13;}
	.st10{fill:#0077C0;}
</style>
<title>SSLi-security-solutions-03</title>
<g class="st0">
	<path class="st1" d="M404.4,665.9h-4.5l-1,2.7h-1.5l4.1-10.7h1.2l4.1,10.7h-1.5L404.4,665.9z M400.4,664.6h3.6l-1.8-4.9h0
		L400.4,664.6z"/>
	<path class="st1" d="M412,668.6h-1.4v-9.3l-2.2,0v-1l3.6-0.4V668.6z"/>
	<path class="st1" d="M423.1,664.5c0,1.4-0.3,2.4-0.9,3.1c-0.6,0.7-1.4,1.1-2.5,1.1s-1.9-0.4-2.5-1.1s-0.9-1.8-0.9-3.1V662
		c0-1.4,0.3-2.4,0.9-3.1c0.6-0.7,1.4-1.1,2.5-1.1c1,0,1.9,0.4,2.5,1.1c0.6,0.7,0.9,1.8,0.9,3.1V664.5z M421.6,661.7
		c0-0.9-0.2-1.6-0.5-2.1c-0.3-0.5-0.8-0.7-1.5-0.7s-1.1,0.2-1.5,0.7s-0.5,1.2-0.5,2.1v3.1c0,0.9,0.2,1.6,0.5,2.1s0.8,0.7,1.5,0.7
		s1.1-0.2,1.4-0.7c0.3-0.5,0.5-1.2,0.5-2.1V661.7z"/>
	<path class="st1" d="M436.7,657.9v7.2c0,1.2-0.4,2.1-1.1,2.7c-0.8,0.6-1.7,0.9-3,0.9c-1.2,0-2.1-0.3-2.9-0.9
		c-0.7-0.6-1.1-1.5-1.1-2.7v-7.2h1.4v7.2c0,0.8,0.2,1.4,0.7,1.8s1.1,0.6,1.8,0.6c0.8,0,1.4-0.2,1.9-0.6s0.7-1,0.7-1.8v-7.2H436.7z"
		/>
	<path class="st1" d="M440.5,664v4.6h-1.4v-10.7h3.9c1.2,0,2.1,0.3,2.7,0.8c0.6,0.5,0.9,1.3,0.9,2.3c0,0.5-0.1,1-0.4,1.4
		c-0.3,0.4-0.7,0.7-1.2,1c0.6,0.2,1,0.5,1.3,0.9c0.3,0.4,0.4,1,0.4,1.6v1c0,0.3,0,0.6,0.1,0.9s0.2,0.5,0.4,0.6v0.2h-1.5
		c-0.2-0.2-0.3-0.4-0.4-0.7s-0.1-0.7-0.1-1v-1c0-0.6-0.2-1-0.5-1.4s-0.8-0.5-1.4-0.5H440.5z M440.5,662.8h2.3c0.8,0,1.4-0.2,1.8-0.5
		c0.4-0.3,0.5-0.8,0.5-1.4c0-0.6-0.2-1.1-0.5-1.4c-0.3-0.3-0.9-0.5-1.6-0.5h-2.4V662.8z"/>
	<path class="st1" d="M450.5,667.5h5v1.1H449v-10.7h1.4V667.5z"/>
</g>
<g class="st0">
	<path class="st1" d="M377.2,683.2L377.2,683.2c0,1-0.3,1.9-1,2.6c-0.7,0.7-1.7,1-2.9,1c-1.2,0-2.2-0.4-2.9-1.3s-1.1-1.9-1.1-3.3
		v-1.9c0-1.3,0.4-2.4,1.1-3.3c0.8-0.9,1.7-1.3,2.9-1.3s2.2,0.3,2.9,1c0.7,0.6,1.1,1.5,1,2.6l0,0h-1.4c0-0.7-0.2-1.3-0.7-1.8
		c-0.4-0.4-1.1-0.7-1.9-0.7c-0.8,0-1.4,0.3-1.9,1c-0.5,0.6-0.7,1.5-0.7,2.4v1.9c0,1,0.2,1.8,0.7,2.4c0.5,0.6,1.1,1,1.9,1
		c0.8,0,1.4-0.2,1.9-0.6c0.4-0.4,0.7-1,0.7-1.8H377.2z"/>
</g>
<g class="st0">
	<path class="st1" d="M380.6,685.5h5v1.1h-6.5v-10.7h1.4V685.5z"/>
</g>
<g class="st0">
	<path class="st1" d="M393.1,683.9h-4.5l-1,2.7h-1.5l4.1-10.7h1.2l4.1,10.7h-1.5L393.1,683.9z M389.1,682.6h3.6l-1.8-4.9h0
		L389.1,682.6z"/>
	<path class="st1" d="M402.8,683.9c0-0.5-0.2-0.9-0.5-1.2c-0.4-0.3-1-0.6-1.9-0.8c-1.1-0.3-2-0.7-2.6-1.2s-0.9-1.2-0.9-2
		c0-0.8,0.3-1.5,1-2.1c0.7-0.6,1.6-0.8,2.6-0.8c1.2,0,2.1,0.3,2.8,1s1,1.4,1,2.2l0,0h-1.4c0-0.6-0.2-1.1-0.6-1.5s-1-0.6-1.8-0.6
		c-0.7,0-1.3,0.2-1.7,0.5c-0.4,0.3-0.6,0.7-0.6,1.3c0,0.5,0.2,0.9,0.6,1.2c0.4,0.3,1.1,0.6,2,0.8c1.1,0.3,2,0.7,2.6,1.2
		s0.9,1.2,0.9,2c0,0.9-0.4,1.6-1.1,2.1s-1.6,0.8-2.8,0.8c-1.1,0-2-0.3-2.8-0.9c-0.8-0.6-1.2-1.4-1.2-2.3l0,0h1.4
		c0,0.7,0.3,1.2,0.8,1.6s1.1,0.5,1.9,0.5c0.7,0,1.3-0.2,1.7-0.5S402.8,684.4,402.8,683.9z"/>
	<path class="st1" d="M412.2,683.9c0-0.5-0.2-0.9-0.5-1.2c-0.4-0.3-1-0.6-1.9-0.8c-1.1-0.3-2-0.7-2.6-1.2s-0.9-1.2-0.9-2
		c0-0.8,0.3-1.5,1-2.1c0.7-0.6,1.6-0.8,2.6-0.8c1.2,0,2.1,0.3,2.8,1s1,1.4,1,2.2l0,0h-1.4c0-0.6-0.2-1.1-0.6-1.5s-1-0.6-1.8-0.6
		c-0.7,0-1.3,0.2-1.7,0.5c-0.4,0.3-0.6,0.7-0.6,1.3c0,0.5,0.2,0.9,0.6,1.2c0.4,0.3,1.1,0.6,2,0.8c1.1,0.3,2,0.7,2.6,1.2
		s0.9,1.2,0.9,2c0,0.9-0.4,1.6-1.1,2.1s-1.6,0.8-2.8,0.8c-1.1,0-2-0.3-2.8-0.9c-0.8-0.6-1.2-1.4-1.2-2.3l0,0h1.4
		c0,0.7,0.3,1.2,0.8,1.6s1.1,0.5,1.9,0.5c0.7,0,1.3-0.2,1.7-0.5S412.2,684.4,412.2,683.9z"/>
	<path class="st1" d="M417.3,686.6h-1.5v-10.7h1.5V686.6z"/>
	<path class="st1" d="M426.3,681.9h-4.9v4.7H420v-10.7h7.1v1.1h-5.6v3.7h4.9V681.9z"/>
	<path class="st1" d="M430.2,686.6h-1.5v-10.7h1.5V686.6z"/>
	<path class="st1" d="M440.5,683.2L440.5,683.2c0,1-0.3,1.9-1,2.6c-0.7,0.7-1.7,1-2.9,1c-1.2,0-2.2-0.4-2.9-1.3s-1.1-1.9-1.1-3.3
		v-1.9c0-1.3,0.4-2.4,1.1-3.3c0.8-0.9,1.7-1.3,2.9-1.3s2.2,0.3,2.9,1c0.7,0.6,1.1,1.5,1,2.6l0,0h-1.4c0-0.7-0.2-1.3-0.7-1.8
		c-0.4-0.4-1.1-0.7-1.9-0.7c-0.8,0-1.4,0.3-1.9,1c-0.5,0.6-0.7,1.5-0.7,2.4v1.9c0,1,0.2,1.8,0.7,2.4c0.5,0.6,1.1,1,1.9,1
		c0.8,0,1.4-0.2,1.9-0.6c0.4-0.4,0.7-1,0.7-1.8H440.5z"/>
	<path class="st1" d="M448.2,683.9h-4.5l-1,2.7h-1.5l4.1-10.7h1.2l4.1,10.7h-1.5L448.2,683.9z M444.2,682.6h3.6l-1.8-4.9h0
		L444.2,682.6z"/>
	<path class="st1" d="M459.4,677.1H456v9.5h-1.4v-9.5h-3.4v-1.1h8.3V677.1z"/>
	<path class="st1" d="M462.5,686.6H461v-10.7h1.5V686.6z"/>
	<path class="st1" d="M473.3,682.2c0,1.3-0.4,2.4-1.2,3.2c-0.8,0.9-1.9,1.3-3.1,1.3c-1.2,0-2.3-0.4-3-1.3c-0.8-0.9-1.2-1.9-1.2-3.2
		v-1.9c0-1.3,0.4-2.4,1.2-3.2c0.8-0.9,1.8-1.3,3-1.3c1.3,0,2.3,0.4,3.1,1.3c0.8,0.9,1.2,1.9,1.2,3.2V682.2z M471.8,680.3
		c0-1-0.3-1.8-0.8-2.4s-1.2-0.9-2.1-0.9c-0.8,0-1.5,0.3-2,0.9c-0.5,0.6-0.8,1.4-0.8,2.4v1.9c0,1,0.2,1.8,0.8,2.4
		c0.5,0.6,1.2,0.9,2,0.9c0.9,0,1.6-0.3,2.1-0.9c0.5-0.6,0.8-1.4,0.8-2.4V680.3z"/>
	<path class="st1" d="M483.5,686.6H482l-5.1-8.2l0,0v8.2h-1.4v-10.7h1.4l5.1,8.2l0,0v-8.2h1.4V686.6z"/>
</g>
<g class="st0">
	<path class="st1" d="M604.6,665.9h-4.5l-1,2.7h-1.5l4.1-10.7h1.2l4.1,10.7h-1.5L604.6,665.9z M600.6,664.6h3.6l-1.8-4.9h0
		L600.6,664.6z"/>
	<path class="st1" d="M612.2,668.6h-1.4v-9.3l-2.2,0v-1l3.6-0.4V668.6z"/>
	<path class="st1" d="M623.3,664.5c0,1.4-0.3,2.4-0.9,3.1c-0.6,0.7-1.4,1.1-2.5,1.1s-1.9-0.4-2.5-1.1s-0.9-1.8-0.9-3.1V662
		c0-1.4,0.3-2.4,0.9-3.1c0.6-0.7,1.4-1.1,2.5-1.1c1,0,1.9,0.4,2.5,1.1c0.6,0.7,0.9,1.8,0.9,3.1V664.5z M621.8,661.7
		c0-0.9-0.2-1.6-0.5-2.1c-0.3-0.5-0.8-0.7-1.5-0.7s-1.1,0.2-1.5,0.7s-0.5,1.2-0.5,2.1v3.1c0,0.9,0.2,1.6,0.5,2.1s0.8,0.7,1.5,0.7
		s1.1-0.2,1.4-0.7c0.3-0.5,0.5-1.2,0.5-2.1V661.7z"/>
	<path class="st1" d="M636.4,659.1h-3.4v9.5h-1.4v-9.5h-3.4v-1.1h8.3V659.1z"/>
	<path class="st1" d="M646,668.6h-1.4v-4.7h-5.2v4.7h-1.4v-10.7h1.4v4.8h5.2v-4.8h1.4V668.6z"/>
	<path class="st1" d="M650.1,664v4.6h-1.4v-10.7h3.9c1.2,0,2.1,0.3,2.7,0.8c0.6,0.5,0.9,1.3,0.9,2.3c0,0.5-0.1,1-0.4,1.4
		c-0.3,0.4-0.7,0.7-1.2,1c0.6,0.2,1,0.5,1.3,0.9c0.3,0.4,0.4,1,0.4,1.6v1c0,0.3,0,0.6,0.1,0.9s0.2,0.5,0.4,0.6v0.2h-1.5
		c-0.2-0.2-0.3-0.4-0.4-0.7c-0.1-0.3-0.1-0.7-0.1-1v-1c0-0.6-0.2-1-0.5-1.4c-0.3-0.4-0.8-0.5-1.4-0.5H650.1z M650.1,662.8h2.3
		c0.8,0,1.4-0.2,1.8-0.5c0.4-0.3,0.5-0.8,0.5-1.4c0-0.6-0.2-1.1-0.5-1.4c-0.3-0.3-0.9-0.5-1.6-0.5h-2.4V662.8z"/>
	<path class="st1" d="M664.9,663.7H660v3.8h5.6v1.1h-7.1v-10.7h7v1.1H660v3.5h4.9V663.7z"/>
	<path class="st1" d="M673.1,665.9h-4.5l-1,2.7h-1.5l4.1-10.7h1.2l4.1,10.7h-1.5L673.1,665.9z M669.1,664.6h3.6l-1.8-4.9h0
		L669.1,664.6z"/>
	<path class="st1" d="M684.3,659.1h-3.4v9.5h-1.4v-9.5H676v-1.1h8.3V659.1z"/>
</g>
<g class="st0">
	<path class="st1" d="M593.5,686.6h-1.5v-10.7h1.5V686.6z"/>
</g>
<g class="st0">
	<path class="st1" d="M604.3,686.6h-1.4l-5.1-8.2l0,0v8.2h-1.4v-10.7h1.4l5.1,8.2l0,0v-8.2h1.4V686.6z"/>
</g>
<g class="st0">
	<path class="st1" d="M613.9,677.1h-3.4v9.5h-1.4v-9.5h-3.4v-1.1h8.3V677.1z"/>
	<path class="st1" d="M621.8,681.7H617v3.8h5.6v1.1h-7.1v-10.7h7v1.1H617v3.5h4.9V681.7z"/>
	<path class="st1" d="M625.7,685.5h5v1.1h-6.5v-10.7h1.4V685.5z"/>
	<path class="st1" d="M633.8,685.5h5v1.1h-6.5v-10.7h1.4V685.5z"/>
	<path class="st1" d="M642,686.6h-1.5v-10.7h1.5V686.6z"/>
	<path class="st1" d="M652.4,685.2c-0.3,0.4-0.7,0.8-1.3,1.1c-0.6,0.3-1.4,0.5-2.4,0.5c-1.3,0-2.3-0.4-3.2-1.2
		c-0.8-0.8-1.2-1.9-1.2-3.2v-2.2c0-1.3,0.4-2.3,1.2-3.2s1.8-1.2,3-1.2c1.2,0,2.2,0.3,2.9,0.9s1.1,1.4,1.1,2.3l0,0H651
		c0-0.6-0.3-1.1-0.7-1.5c-0.4-0.4-1-0.6-1.8-0.6c-0.8,0-1.5,0.3-2,0.9c-0.5,0.6-0.7,1.4-0.7,2.3v2.2c0,0.9,0.3,1.7,0.8,2.3
		s1.3,0.9,2.1,0.9c0.6,0,1.1-0.1,1.5-0.2c0.4-0.2,0.7-0.3,0.8-0.5v-2.4h-2.3v-1.1h3.8V685.2z"/>
	<path class="st1" d="M661.3,681.7h-4.9v3.8h5.6v1.1h-7.1v-10.7h7v1.1h-5.6v3.5h4.9V681.7z"/>
	<path class="st1" d="M671.8,686.6h-1.4l-5.1-8.2l0,0v8.2h-1.4v-10.7h1.4l5.1,8.2l0,0v-8.2h1.4V686.6z"/>
	<path class="st1" d="M681.9,683.2L681.9,683.2c0,1-0.3,1.9-1,2.6c-0.7,0.7-1.7,1-2.9,1c-1.2,0-2.2-0.4-2.9-1.3
		c-0.8-0.9-1.1-1.9-1.1-3.3v-1.9c0-1.3,0.4-2.4,1.1-3.3c0.8-0.9,1.7-1.3,2.9-1.3s2.2,0.3,2.9,1c0.7,0.6,1.1,1.5,1,2.6l0,0h-1.4
		c0-0.7-0.2-1.3-0.7-1.8c-0.4-0.4-1.1-0.7-1.9-0.7c-0.8,0-1.4,0.3-1.9,1c-0.5,0.6-0.7,1.5-0.7,2.4v1.9c0,1,0.2,1.8,0.7,2.4
		c0.5,0.6,1.1,1,1.9,1c0.8,0,1.4-0.2,1.9-0.6c0.4-0.4,0.7-1,0.7-1.8H681.9z"/>
	<path class="st1" d="M690.2,681.7h-4.9v3.8h5.6v1.1h-7.1v-10.7h7v1.1h-5.6v3.5h4.9V681.7z"/>
</g>
<g class="st0">
	<path class="st1" d="M823,665.9h-4.5l-1,2.7H816l4.1-10.7h1.2l4.1,10.7H824L823,665.9z M819,664.6h3.6l-1.8-4.9h0L819,664.6z"/>
	<path class="st1" d="M830.6,668.6h-1.4v-9.3l-2.2,0v-1l3.6-0.4V668.6z"/>
	<path class="st1" d="M841.7,664.5c0,1.4-0.3,2.4-0.9,3.1c-0.6,0.7-1.4,1.1-2.5,1.1s-1.9-0.4-2.5-1.1s-0.9-1.8-0.9-3.1V662
		c0-1.4,0.3-2.4,0.9-3.1c0.6-0.7,1.4-1.1,2.5-1.1c1,0,1.9,0.4,2.5,1.1c0.6,0.7,0.9,1.8,0.9,3.1V664.5z M840.2,661.7
		c0-0.9-0.2-1.6-0.5-2.1c-0.3-0.5-0.8-0.7-1.5-0.7s-1.1,0.2-1.5,0.7s-0.5,1.2-0.5,2.1v3.1c0,0.9,0.2,1.6,0.5,2.1s0.8,0.7,1.5,0.7
		s1.1-0.2,1.4-0.7c0.3-0.5,0.5-1.2,0.5-2.1V661.7z"/>
	<path class="st1" d="M855.3,657.9v7.2c0,1.2-0.4,2.1-1.1,2.7c-0.8,0.6-1.7,0.9-3,0.9c-1.2,0-2.1-0.3-2.9-0.9
		c-0.7-0.6-1.1-1.5-1.1-2.7v-7.2h1.4v7.2c0,0.8,0.2,1.4,0.7,1.8s1.1,0.6,1.8,0.6c0.8,0,1.4-0.2,1.9-0.6c0.5-0.4,0.7-1,0.7-1.8v-7.2
		H855.3z"/>
	<path class="st1" d="M859.1,664v4.6h-1.4v-10.7h3.9c1.2,0,2.1,0.3,2.7,0.8c0.6,0.5,0.9,1.3,0.9,2.3c0,0.5-0.1,1-0.4,1.4
		c-0.3,0.4-0.7,0.7-1.2,1c0.6,0.2,1,0.5,1.3,0.9c0.3,0.4,0.4,1,0.4,1.6v1c0,0.3,0,0.6,0.1,0.9s0.2,0.5,0.4,0.6v0.2h-1.5
		c-0.2-0.2-0.3-0.4-0.4-0.7s-0.1-0.7-0.1-1v-1c0-0.6-0.2-1-0.5-1.4s-0.8-0.5-1.4-0.5H859.1z M859.1,662.8h2.3c0.8,0,1.4-0.2,1.8-0.5
		c0.4-0.3,0.5-0.8,0.5-1.4c0-0.6-0.2-1.1-0.5-1.4c-0.3-0.3-0.9-0.5-1.6-0.5h-2.4V662.8z"/>
	<path class="st1" d="M869.1,667.5h5v1.1h-6.5v-10.7h1.4V667.5z"/>
</g>
<g class="st0">
	<path class="st1" d="M816.6,681.9h-4.9v4.7h-1.4v-10.7h7.1v1.1h-5.6v3.7h4.9V681.9z"/>
	<path class="st1" d="M820.6,686.6h-1.5v-10.7h1.5V686.6z"/>
</g>
<g class="st0">
	<path class="st1" d="M824.8,685.5h5v1.1h-6.5v-10.7h1.4V685.5z"/>
</g>
<g class="st0">
	<path class="st1" d="M837.1,677.1h-3.4v9.5h-1.4v-9.5h-3.4v-1.1h8.3V677.1z"/>
	<path class="st1" d="M845,681.7h-4.9v3.8h5.6v1.1h-7.1v-10.7h7v1.1h-5.6v3.5h4.9V681.7z"/>
	<path class="st1" d="M848.9,682v4.6h-1.4v-10.7h3.9c1.2,0,2.1,0.3,2.7,0.8c0.6,0.5,0.9,1.3,0.9,2.3c0,0.5-0.1,1-0.4,1.4
		c-0.3,0.4-0.7,0.7-1.2,1c0.6,0.2,1,0.5,1.3,0.9c0.3,0.4,0.4,1,0.4,1.6v1c0,0.3,0,0.6,0.1,0.9s0.2,0.5,0.4,0.6v0.2h-1.5
		c-0.2-0.2-0.3-0.4-0.4-0.7s-0.1-0.7-0.1-1v-1c0-0.6-0.2-1-0.5-1.4s-0.8-0.5-1.4-0.5H848.9z M848.9,680.8h2.3c0.8,0,1.4-0.2,1.8-0.5
		c0.4-0.3,0.5-0.8,0.5-1.4c0-0.6-0.2-1.1-0.5-1.4c-0.3-0.3-0.9-0.5-1.6-0.5h-2.4V680.8z"/>
	<path class="st1" d="M858.9,686.6h-1.5v-10.7h1.5V686.6z"/>
	<path class="st1" d="M869.7,686.6h-1.4l-5.1-8.2l0,0v8.2h-1.4v-10.7h1.4l5.1,8.2l0,0v-8.2h1.4V686.6z"/>
	<path class="st1" d="M880.1,685.2c-0.3,0.4-0.7,0.8-1.3,1.1c-0.6,0.3-1.4,0.5-2.4,0.5c-1.3,0-2.3-0.4-3.2-1.2
		c-0.8-0.8-1.2-1.9-1.2-3.2v-2.2c0-1.3,0.4-2.3,1.2-3.2s1.8-1.2,3-1.2c1.2,0,2.2,0.3,2.9,0.9s1.1,1.4,1.1,2.3l0,0h-1.4
		c0-0.6-0.3-1.1-0.7-1.5c-0.4-0.4-1-0.6-1.8-0.6c-0.8,0-1.5,0.3-2,0.9c-0.5,0.6-0.7,1.4-0.7,2.3v2.2c0,0.9,0.3,1.7,0.8,2.3
		s1.3,0.9,2.1,0.9c0.6,0,1.1-0.1,1.5-0.2c0.4-0.2,0.7-0.3,0.8-0.5v-2.4h-2.3v-1.1h3.8V685.2z"/>
</g>
<g class="st0">
	<path class="st2" d="M108.7,433.7c0-0.6-0.2-1.1-0.7-1.4s-1.2-0.7-2.3-1c-1.2-0.3-2.1-0.7-2.7-1.1s-0.9-1.1-0.9-1.9
		c0-0.8,0.3-1.5,1-2s1.5-0.8,2.6-0.8c1.1,0,2,0.3,2.7,0.9s1,1.4,1,2.2l0,0h-0.8c0-0.7-0.3-1.3-0.8-1.8c-0.5-0.5-1.2-0.7-2.1-0.7
		c-0.9,0-1.5,0.2-2,0.6s-0.7,0.9-0.7,1.4c0,0.5,0.2,1,0.7,1.3c0.4,0.4,1.2,0.7,2.3,0.9c1.1,0.3,2,0.7,2.6,1.2s0.9,1.2,0.9,2
		c0,0.8-0.3,1.5-1,2c-0.7,0.5-1.6,0.8-2.7,0.8c-1.1,0-2-0.3-2.8-0.8c-0.8-0.5-1.2-1.3-1.2-2.3l0,0h0.8c0,0.8,0.3,1.4,0.9,1.8
		c0.6,0.4,1.4,0.6,2.2,0.6c0.8,0,1.5-0.2,2-0.6C108.4,434.8,108.7,434.3,108.7,433.7z"/>
	<path class="st2" d="M117.7,433.7c0-0.6-0.2-1.1-0.7-1.4s-1.2-0.7-2.3-1c-1.2-0.3-2.1-0.7-2.7-1.1s-0.9-1.1-0.9-1.9
		c0-0.8,0.3-1.5,1-2s1.5-0.8,2.6-0.8c1.1,0,2,0.3,2.7,0.9s1,1.4,1,2.2l0,0h-0.8c0-0.7-0.3-1.3-0.8-1.8c-0.5-0.5-1.2-0.7-2.1-0.7
		c-0.9,0-1.5,0.2-2,0.6s-0.7,0.9-0.7,1.4c0,0.5,0.2,1,0.7,1.3c0.4,0.4,1.2,0.7,2.3,0.9c1.1,0.3,2,0.7,2.6,1.2s0.9,1.2,0.9,2
		c0,0.8-0.3,1.5-1,2c-0.7,0.5-1.6,0.8-2.7,0.8c-1.1,0-2-0.3-2.8-0.8c-0.8-0.5-1.2-1.3-1.2-2.3l0,0h0.8c0,0.8,0.3,1.4,0.9,1.8
		c0.6,0.4,1.4,0.6,2.2,0.6c0.8,0,1.5-0.2,2-0.6C117.5,434.8,117.7,434.3,117.7,433.7z"/>
	<path class="st2" d="M121.5,435.6h5.3v0.7h-6.2v-10.7h0.9V435.6z"/>
	<path class="st2" d="M128.2,437.2h-0.8l4.5-11.6h0.8L128.2,437.2z"/>
	<path class="st2" d="M141.6,426.4H138v9.9h-0.9v-9.9h-3.7v-0.7h8.2V426.4z"/>
	<path class="st2" d="M144.3,435.6h5.3v0.7h-6.2v-10.7h0.9V435.6z"/>
	<path class="st2" d="M157.4,433.7c0-0.6-0.2-1.1-0.7-1.4s-1.2-0.7-2.3-1c-1.2-0.3-2.1-0.7-2.7-1.1s-0.9-1.1-0.9-1.9
		c0-0.8,0.3-1.5,1-2s1.5-0.8,2.6-0.8c1.1,0,2,0.3,2.7,0.9s1,1.4,1,2.2l0,0h-0.8c0-0.7-0.3-1.3-0.8-1.8c-0.5-0.5-1.2-0.7-2.1-0.7
		c-0.9,0-1.5,0.2-2,0.6s-0.7,0.9-0.7,1.4c0,0.5,0.2,1,0.7,1.3c0.4,0.4,1.2,0.7,2.3,0.9c1.1,0.3,2,0.7,2.6,1.2s0.9,1.2,0.9,2
		c0,0.8-0.3,1.5-1,2c-0.7,0.5-1.6,0.8-2.7,0.8c-1.1,0-2-0.3-2.8-0.8c-0.8-0.5-1.2-1.3-1.2-2.3l0,0h0.8c0,0.8,0.3,1.4,0.9,1.8
		c0.6,0.4,1.4,0.6,2.2,0.6c0.8,0,1.5-0.2,2-0.6C157.1,434.8,157.4,434.3,157.4,433.7z"/>
</g>
<g class="st0">
	<path class="st2" d="M1036,433.7c0-0.6-0.2-1.1-0.7-1.4c-0.4-0.4-1.2-0.7-2.3-1c-1.2-0.3-2.1-0.7-2.7-1.1c-0.6-0.5-0.9-1.1-0.9-1.9
		c0-0.8,0.3-1.5,1-2s1.5-0.8,2.6-0.8c1.1,0,2,0.3,2.7,0.9s1,1.4,1,2.2l0,0h-0.8c0-0.7-0.3-1.3-0.8-1.8c-0.5-0.5-1.2-0.7-2.1-0.7
		c-0.9,0-1.5,0.2-2,0.6s-0.7,0.9-0.7,1.4c0,0.5,0.2,1,0.7,1.3c0.4,0.4,1.2,0.7,2.3,0.9c1.1,0.3,2,0.7,2.6,1.2s0.9,1.2,0.9,2
		c0,0.8-0.3,1.5-1,2c-0.7,0.5-1.6,0.8-2.7,0.8c-1.1,0-2-0.3-2.8-0.8c-0.8-0.5-1.2-1.3-1.2-2.3l0,0h0.8c0,0.8,0.3,1.4,0.9,1.8
		c0.6,0.4,1.4,0.6,2.2,0.6c0.8,0,1.5-0.2,2-0.6C1035.7,434.8,1036,434.3,1036,433.7z"/>
	<path class="st2" d="M1045,433.7c0-0.6-0.2-1.1-0.7-1.4s-1.2-0.7-2.3-1c-1.2-0.3-2.1-0.7-2.7-1.1s-0.9-1.1-0.9-1.9
		c0-0.8,0.3-1.5,1-2c0.7-0.5,1.5-0.8,2.6-0.8c1.1,0,2,0.3,2.7,0.9s1,1.4,1,2.2l0,0h-0.8c0-0.7-0.3-1.3-0.8-1.8
		c-0.5-0.5-1.2-0.7-2.1-0.7c-0.9,0-1.5,0.2-2,0.6c-0.5,0.4-0.7,0.9-0.7,1.4c0,0.5,0.2,1,0.7,1.3c0.4,0.4,1.2,0.7,2.3,0.9
		c1.1,0.3,2,0.7,2.6,1.2c0.6,0.5,0.9,1.2,0.9,2c0,0.8-0.3,1.5-1,2s-1.6,0.8-2.7,0.8c-1.1,0-2-0.3-2.8-0.8c-0.8-0.5-1.2-1.3-1.2-2.3
		l0,0h0.8c0,0.8,0.3,1.4,0.9,1.8c0.6,0.4,1.4,0.6,2.2,0.6c0.8,0,1.5-0.2,2-0.6C1044.8,434.8,1045,434.3,1045,433.7z"/>
	<path class="st2" d="M1048.8,435.6h5.3v0.7h-6.2v-10.7h0.9V435.6z"/>
	<path class="st2" d="M1055.5,437.2h-0.8l4.5-11.6h0.8L1055.5,437.2z"/>
	<path class="st2" d="M1068.9,426.4h-3.7v9.9h-0.9v-9.9h-3.7v-0.7h8.2V426.4z"/>
	<path class="st2" d="M1071.6,435.6h5.3v0.7h-6.2v-10.7h0.9V435.6z"/>
	<path class="st2" d="M1084.7,433.7c0-0.6-0.2-1.1-0.7-1.4c-0.4-0.4-1.2-0.7-2.3-1c-1.2-0.3-2.1-0.7-2.7-1.1
		c-0.6-0.5-0.9-1.1-0.9-1.9c0-0.8,0.3-1.5,1-2s1.5-0.8,2.6-0.8c1.1,0,2,0.3,2.7,0.9s1,1.4,1,2.2l0,0h-0.8c0-0.7-0.3-1.3-0.8-1.8
		c-0.5-0.5-1.2-0.7-2.1-0.7c-0.9,0-1.5,0.2-2,0.6s-0.7,0.9-0.7,1.4c0,0.5,0.2,1,0.7,1.3c0.4,0.4,1.2,0.7,2.3,0.9
		c1.1,0.3,2,0.7,2.6,1.2s0.9,1.2,0.9,2c0,0.8-0.3,1.5-1,2c-0.7,0.5-1.6,0.8-2.7,0.8c-1.1,0-2-0.3-2.8-0.8c-0.8-0.5-1.2-1.3-1.2-2.3
		l0,0h0.8c0,0.8,0.3,1.4,0.9,1.8c0.6,0.4,1.3,0.6,2.2,0.6c0.8,0,1.5-0.2,2-0.6C1084.4,434.8,1084.7,434.3,1084.7,433.7z"/>
</g>
<path class="st3" d="M85.8,440.5H10.2v-41.6c0-1.8,1.5-3.3,3.3-3.3h69c1.8,0,3.3,1.5,3.3,3.3V440.5z M12.2,438.5h71.6v-39.6
	c0-0.7-0.6-1.3-1.3-1.3h-69c-0.7,0-1.3,0.6-1.3,1.3V438.5z"/>
<path class="st3" d="M90.6,447.5H5.5c-1.8,0-3.3-1.5-3.3-3.3v-5.4h91.7v5.4C93.9,446,92.4,447.5,90.6,447.5z M4.2,440.8v3.4
	c0,0.7,0.6,1.3,1.3,1.3h85.1c0.7,0,1.3-0.6,1.3-1.3v-3.4H4.2z"/>
<path class="st3" d="M62,444H34c-1.7,0-3.1-1.4-3.1-3.1v-2.1h34.2v2.1C65.1,442.6,63.7,444,62,444z M32.9,440.8v0.1
	c0,0.6,0.5,1.1,1.1,1.1h28c0.6,0,1.1-0.5,1.1-1.1v-0.1H32.9z"/>
<path class="st4" d="M84.1,382H11.4v-46.3c0-1,0.4-1.9,1.1-2.6c0.7-0.7,1.6-1.1,2.6-1.1l0.1,0h65.2c2,0,3.7,1.7,3.7,3.7V382z
	 M13.4,380h68.7v-44.3c0-0.9-0.8-1.7-1.7-1.7l-65.3,0c-0.5,0-0.9,0.2-1.2,0.5c-0.3,0.3-0.5,0.7-0.5,1.2V380z"/>
<path class="st4" d="M90,390.3H5.7c-2,0-3.7-1.7-3.7-3.7v-6.2h91.7v6.2C93.7,388.6,92,390.3,90,390.3z M4,382.4v4.2
	c0,0.9,0.8,1.7,1.7,1.7H90c0.9,0,1.7-0.8,1.7-1.7v-4.2H4z"/>
<path class="st4" d="M56.2,386.2H39.4c-1.9,0-3.4-1.5-3.4-3.4v-1.4h0.9v-1h22.7v2.4C59.6,384.7,58.1,386.2,56.2,386.2z M38,382.4
	v0.4c0,0.8,0.6,1.4,1.4,1.4h16.8c0.8,0,1.4-0.6,1.4-1.4v-0.4H38z"/>
<path class="st4" d="M45.5,368.7c-0.1,0-0.2,0-0.3,0c-2.7-0.7-4.9-2.4-6.3-4.8c-1.4-2.4-1.8-5.2-1-7.9l0.1-0.2
	c0.2-0.5,0.7-0.8,1.2-0.7s0.8,0.7,0.7,1.2l0,0.2c-0.6,2.2-0.3,4.4,0.8,6.4s2.9,3.3,5.1,3.9c0.5,0.1,0.9,0.7,0.7,1.2
	C46.3,368.4,45.9,368.7,45.5,368.7z"/>
<path class="st4" d="M50.3,368.8l-0.3-1l-0.2-1c2.2-0.5,4-1.9,5.2-3.8c1.2-1.9,1.5-4.2,1-6.4c-0.1-0.5,0.2-1.1,0.7-1.2
	c0.5-0.1,1.1,0.2,1.2,0.7c0.7,2.7,0.2,5.5-1.2,7.9S53,368.1,50.3,368.8z"/>
<path class="st4" d="M41,353.3c-0.2,0-0.5-0.1-0.7-0.3c-0.4-0.4-0.4-1-0.1-1.4c3.9-4.2,10.5-4.5,14.7-0.6c0.2,0.1,0.3,0.3,0.5,0.5
	c0.4,0.4,0.4,1,0,1.4c-0.4,0.4-1,0.4-1.4,0c-0.1-0.1-0.2-0.2-0.4-0.4c-3.4-3.1-8.7-2.9-11.9,0.5C41.5,353.2,41.3,353.3,41,353.3z"/>
<path class="st4" d="M37.8,353.9c-0.5,0-0.9-0.4-1-0.8c-0.9-5.8,2.7-11.3,8.3-12.7c0.5-0.1,1.1,0.2,1.2,0.7c0.1,0.5-0.2,1.1-0.7,1.2
	c-4.7,1.2-7.6,5.7-6.9,10.5c0.1,0.5-0.3,1.1-0.8,1.1C37.9,353.9,37.9,353.9,37.8,353.9z"/>
<path class="st4" d="M41.2,373.8c-3,0-5.9-1.2-8.1-3.4c-0.4-0.4-0.4-1,0-1.4c0.4-0.4,1-0.4,1.4,0c2.1,2.2,5.2,3.2,8.2,2.7
	c2.4-0.4,4.5-1.7,6-3.8s2-4.4,1.6-6.9c-0.1-0.5,0.2-1,0.7-1.1c3-1,5.3-3.5,6-6.7c1.1-4.9-2-9.9-6.9-11c-0.5-0.1-0.9-0.7-0.8-1.2
	c0.1-0.5,0.7-0.9,1.2-0.8c6,1.4,9.8,7.4,8.4,13.4c-0.8,3.5-3.2,6.4-6.5,7.8c0.3,2.7-0.4,5.3-2,7.5c-1.7,2.4-4.3,4.1-7.3,4.6
	C42.5,373.8,41.9,373.8,41.2,373.8z"/>
<path class="st4" d="M31.4,366.4c-0.4,0-0.8-0.3-1-0.7c-1.8-5.9,1.5-12.2,7.4-14c3.4-1,7-0.4,9.9,1.7c4.7-3.5,11.3-2.8,15.2,1.7
	c2.5,2.9,3.3,6.9,2.2,10.5c-0.2,0.5-0.7,0.8-1.2,0.7c-0.5-0.2-0.8-0.7-0.7-1.2c0.9-3,0.2-6.3-1.8-8.7c-3.3-3.9-9.1-4.3-13-1
	c-0.2,0.2-0.4,0.2-0.7,0.2c-0.2,0-0.6-0.1-0.7-0.2c-2.4-2-5.6-2.6-8.6-1.7c-4.9,1.5-7.6,6.6-6.1,11.5c0.2,0.5-0.1,1.1-0.7,1.2
	C31.6,366.4,31.5,366.4,31.4,366.4z"/>
<path class="st4" d="M47.8,371.4c-0.2,0-0.5-0.1-0.6-0.2c-2.8-2.4-4.3-6.1-3.9-9.7c-3.3-1.6-5.8-4.7-6.4-8.4
	c-0.1-0.5,0.3-1.1,0.8-1.2c0.5-0.1,1.1,0.3,1.2,0.8c0.6,3.2,2.8,6,5.9,7.1c0.4,0.2,0.7,0.6,0.6,1.1c-0.6,3.2,0.7,6.6,3.2,8.7
	c0.4,0.4,0.5,1,0.1,1.4C48.4,371.3,48.1,371.4,47.8,371.4z"/>
<path class="st4" d="M54.4,373.8c-2.6,0-5.1-0.9-7.2-2.6c-0.4-0.4-0.5-1-0.1-1.4c0.4-0.4,1-0.5,1.4-0.1c3.7,3.1,9.3,2.8,12.6-0.7
	c0.4-0.4,1-0.4,1.4,0c0.4,0.4,0.4,1,0,1.4C60.3,372.6,57.4,373.8,54.4,373.8z"/>
<path class="st4" d="M47.8,362.9c-2.3,0-4.2-1.9-4.2-4.2s1.9-4.2,4.2-4.2s4.2,1.9,4.2,4.2S50.1,362.9,47.8,362.9z M47.8,356.5
	c-1.2,0-2.2,1-2.2,2.2s1,2.2,2.2,2.2c1.2,0,2.2-1,2.2-2.2S49,356.5,47.8,356.5z"/>
<path class="st3" d="M641.6,648.7h-1.2l-0.2-0.1c-0.3-0.1-25.2-10.3-25.2-24.3l0-39c0.1-1,1-1.8,2-1.8c0,0,0,0,0,0
	c18.2,0,21.9-6.1,22.2-6.5l0-0.1c0.3-0.7,1-1.2,1.8-1.2c0.8,0,1.5,0.4,1.8,1.1l0,0c0.7,1.1,4.8,6.7,22.2,6.7c0,0,0,0,0,0
	c1,0,1.9,0.8,2,1.8l0,0.1v38.9c0,5.8-4.2,11.6-12.4,17.2c-6.4,4.4-12.8,7.1-12.9,7.1L641.6,648.7z M640.8,646.7h0.4
	c1-0.4,6.7-2.9,12.3-6.8c5.2-3.6,11.5-9.3,11.5-15.6v-38.8c-17.8,0-22.8-5.7-23.9-7.6l0,0l-0.1-0.2c-0.8,1.9-6.1,7.8-24,7.8v38.8
	c0,6.3,6.3,12,11.5,15.6C634.1,643.8,639.8,646.3,640.8,646.7z"/>
<path class="st3" d="M644.6,625.3h-7l-0.1-0.9c-0.4-4.2-3-9.1-3-9.1c-0.7-1.2-1.1-2.6-1.1-4c0-4.2,3.5-7.7,7.7-7.7c0,0,0,0,0,0
	c4.2,0,7.7,3.5,7.7,7.7c0,1.6-0.5,3.2-1.4,4.5c-1.5,2.6-2.4,5.5-2.7,8.6L644.6,625.3z M639.4,623.3h3.4c0.4-3,1.4-5.9,2.9-8.6
	c0.7-1.1,1.1-2.2,1.1-3.4v0c0-3.1-2.5-5.7-5.7-5.7c0,0,0,0,0,0c-3.1,0-5.7,2.5-5.7,5.7c0,1.1,0.3,2.1,0.9,3
	C636.4,614.5,638.7,618.9,639.4,623.3z"/>
<rect x="638.3" y="626.2" class="st3" width="5.5" height="2"/>
<rect x="628.1" y="608.2" transform="matrix(0.1058 -0.9944 0.9944 0.1058 -44.616 1171.4857)" class="st3" width="2" height="4.7"/>
<rect x="630" y="601.2" transform="matrix(0.5051 -0.863 0.863 0.5051 -208.6435 843.3335)" class="st3" width="2" height="4.8"/>
<rect x="636.3" y="597" transform="matrix(0.8858 -0.464 0.464 0.8858 -205.3702 364.159)" class="st3" width="2" height="4.7"/>
<rect x="650.6" y="609.6" transform="matrix(0.9944 -0.1055 0.1055 0.9944 -60.7682 72.2923)" class="st3" width="4.7" height="2"/>
<rect x="648.6" y="602.6" transform="matrix(0.8632 -0.5048 0.5048 0.8632 -215.6804 411.1925)" class="st3" width="4.8" height="2"/>
<rect x="642.3" y="598.4" transform="matrix(0.4639 -0.8859 0.8859 0.4639 -185.3887 892.4379)" class="st3" width="4.7" height="2"/>
<rect x="409.1" y="610.8" class="st3" width="15.5" height="2"/>
<polygon class="st3" points="423.3,616.6 421.9,615.2 425.3,611.8 421.9,608.4 423.3,607 428.1,611.8 "/>
<rect x="414.3" y="620.7" transform="matrix(0.7809 -0.6247 0.6247 0.7809 -302.9581 397.6283)" class="st3" width="2" height="19.8"/>
<polygon class="st3" points="423.9,640.9 417.1,640.9 417.1,638.9 421.9,638.9 421.9,634 423.9,634 "/>
<rect x="404.8" y="592.8" transform="matrix(0.6757 -0.7372 0.7372 0.6757 -303.0925 498.7515)" class="st3" width="21" height="2"/>
<polygon class="st3" points="424.8,590.4 422.8,590.4 422.8,585.6 418,585.6 418,583.6 424.8,583.6 "/>
<path class="st3" d="M444.4,598.2h-14v-14h14V598.2z M432.4,596.2h10v-10h-10V596.2z"/>
<path class="st3" d="M437.4,619.1c-3.9,0-7-3.1-7-7s3.1-7,7-7s7,3.1,7,7S441.3,619.1,437.4,619.1z M437.4,607.1c-2.8,0-5,2.2-5,5
	s2.2,5,5,5s5-2.2,5-5S440.2,607.1,437.4,607.1z"/>
<path class="st3" d="M400.8,619.1c-3.9,0-7-3.1-7-7s3.1-7,7-7s7,3.1,7,7S404.7,619.1,400.8,619.1z M400.8,607.1c-2.8,0-5,2.2-5,5
	s2.2,5,5,5s5-2.2,5-5S403.6,607.1,400.8,607.1z"/>
<path class="st3" d="M446.1,640h-17.4l8.6-15L446.1,640z M432.2,638h10.4l-5.3-9L432.2,638z"/>
<path class="st3" d="M852.5,643.9h-14.4v-13.4l-19-22.7h52.6l-19.2,22.7V643.9z M840.1,641.9h10.4v-12.2l16.8-19.9h-44l16.8,19.9
	V641.9z"/>
<path class="st3" d="M829.5,604.3H819v-10.5h10.5V604.3z M821,602.3h6.5v-6.5H821V602.3z"/>
<path class="st3" d="M843.4,604.3h-10.5v-10.5h10.5V604.3z M834.9,602.3h6.5v-6.5h-6.5V602.3z"/>
<path class="st3" d="M857.3,604.3h-10.5v-10.5h10.5V604.3z M848.8,602.3h6.5v-6.5h-6.5V602.3z"/>
<path class="st3" d="M871.2,604.3h-10.5v-10.5h10.5V604.3z M862.7,602.3h6.5v-6.5h-6.5V602.3z"/>
<path class="st3" d="M835.9,591.1h-10.5v-10.5h10.5V591.1z M827.4,589.1h6.5v-6.5h-6.5V589.1z"/>
<path class="st3" d="M849.8,591.1h-10.5v-10.5h10.5V591.1z M841.3,589.1h6.5v-6.5h-6.5V589.1z"/>
<path class="st3" d="M863.7,591.1h-10.5v-10.5h10.5V591.1z M855.2,589.1h6.5v-6.5h-6.5V589.1z"/>
<path class="st5" d="M434,566h-2v-4h2V566z M849.5,564.5h-2v-4h2V564.5z M434,558h-2v-4h2V558z M849.5,556.5h-2v-4h2V556.5z
	 M434,550h-2v-4h2V550z M849.5,548.5h-2v-4h2V548.5z M434,542h-2v-4h2V542z M849.5,540.5h-2v-4h2V540.5z M846,536h-4v-2h4V536z
	 M838,536h-4v-2h4V536z M830,536h-4v-2h4V536z M822,536h-4v-2h4V536z M814,536h-4v-2h4V536z M806,536h-4v-2h4V536z M798,536h-4v-2h4
	V536z M790,536h-4v-2h4V536z M782,536h-4v-2h4V536z M774,536h-4v-2h4V536z M766,536h-4v-2h4V536z M758,536h-4v-2h4V536z M750,536h-4
	v-2h4V536z M742,536h-4v-2h4V536z M734,536h-4v-2h4V536z M726,536h-4v-2h4V536z M718,536h-4v-2h4V536z M710,536h-4v-2h4V536z
	 M702,536h-4v-2h4V536z M694,536h-4v-2h4V536z M686,536h-4v-2h4V536z M678,536h-4v-2h4V536z M670,536h-4v-2h4V536z M662,536h-4v-2h4
	V536z M654,536h-4v-2h4V536z M646,536h-4v-2h4V536z M638,536h-4v-2h4V536z M630,536h-4v-2h4V536z M622,536h-4v-2h4V536z M614,536h-4
	v-2h4V536z M606,536h-4v-2h4V536z M598,536h-4v-2h4V536z M590,536h-4v-2h4V536z M582,536h-4v-2h4V536z M574,536h-4v-2h4V536z
	 M566,536h-4v-2h4V536z M558,536h-4v-2h4V536z M550,536h-4v-2h4V536z M542,536h-4v-2h4V536z M534,536h-4v-2h4V536z M526,536h-4v-2h4
	V536z M518,536h-4v-2h4V536z M510,536h-4v-2h4V536z M502,536h-4v-2h4V536z M494,536h-4v-2h4V536z M486,536h-4v-2h4V536z M478,536h-4
	v-2h4V536z M470,536h-4v-2h4V536z M462,536h-4v-2h4V536z M454,536h-4v-2h4V536z M446,536h-4v-2h4V536z M438,536h-4v-2h4V536z"/>
<path class="st5" d="M641.3,567h-2v-4h2V567z M641.3,559h-2v-4h2V559z M641.3,551h-2v-4h2V551z M641.3,543h-2v-4h2V543z M641.3,535
	h-2v-4h2V535z M641.3,527h-2v-4h2V527z M641.3,519h-2v-4h2V519z M641.3,511h-2v-4h2V511z M641.3,503h-2v-4h2V503z"/>
<polygon class="st5" points="648.5,503.1 647,504.5 640.3,497.3 633.6,504.5 632.2,503.1 640.3,494.3 "/>
<path class="st6" d="M931.2,391h-0.5v-2h0.5c1,0,2-0.2,3-0.7l0.8,1.8C933.8,390.7,932.5,391,931.2,391z M926.7,391h-4v-2h4V391z
	 M918.7,391h-4v-2h4V391z M910.7,391h-4v-2h4V391z M902.7,391h-4v-2h4V391z M894.7,391h-4v-2h4V391z M886.7,391h-4v-2h4V391z
	 M878.7,391h-4v-2h4V391z M870.7,391h-4v-2h4V391z M862.7,391h-4v-2h4V391z M854.7,391h-4v-2h4V391z M846.7,391h-4v-2h4V391z
	 M838.7,391h-4v-2h4V391z M830.7,391h-4v-2h4V391z M822.7,391h-4v-2h4V391z M814.7,391h-4v-2h4V391z M806.7,391h-4v-2h4V391z
	 M798.7,391h-4v-2h4V391z M790.7,391h-4v-2h4V391z M782.7,391h-4v-2h4V391z M500,391h-4v-2h4V391z M492,391h-4v-2h4V391z M484,391
	h-4v-2h4V391z M476,391h-4v-2h4V391z M468,391h-4v-2h4V391z M460,391h-4v-2h4V391z M452,391h-4v-2h4V391z M444,391h-4v-2h4V391z
	 M436,391h-4v-2h4V391z M428,391h-4v-2h4V391z M420,391h-4v-2h4V391z M412,391h-4v-2h4V391z M404,391h-4v-2h4V391z M396,391h-4v-2h4
	V391z M388,391h-4v-2h4V391z M380,391h-4v-2h4V391z M372,391h-4v-2h4V391z M364,391h-4v-2h4V391z M356,391h-4v-2h4V391z M347.9,391
	c-1.5-0.1-3-0.6-4.2-1.5l1.1-1.7c1,0.6,2.1,1,3.3,1.1L347.9,391z M938.4,387.3l-1.6-1.2c0.7-0.9,1.1-2.1,1.3-3.2l2,0.3
	C939.9,384.7,939.3,386.1,938.4,387.3z M340.7,386.2c-0.7-1.3-1-2.7-1-4.2v-0.1h2v0.1c0,1.1,0.3,2.3,0.8,3.3L340.7,386.2z
	 M940.2,379.1h-2v-4h2V379.1z M341.7,377.9h-2v-4h2V377.9z M940.2,371.1h-2v-4h2V371.1z M341.7,369.9h-2v-4h2V369.9z M940.2,363.1
	h-2v-4h2V363.1z M341.7,361.9h-2v-4h2V361.9z M940.2,355.1h-2v-4h2V355.1z M341.7,353.9h-2v-4h2V353.9z M940.2,347.1h-2v-4h2V347.1z
	 M341.7,345.9h-2v-4h2V345.9z M940.2,339.1h-2v-4h2V339.1z M341.7,337.9h-2v-4h2V337.9z M940.2,331.1h-2v-4h2V331.1z M341.7,329.9
	h-2v-4h2V329.9z M940.2,323.1h-2v-4h2V323.1z M341.7,321.9h-2v-4h2V321.9z M940.2,315.1h-2v-4h2V315.1z M341.7,313.9h-2v-4h2V313.9z
	 M940.2,307.1h-2v-4h2V307.1z M341.7,305.9h-2v-4h2V305.9z M940.2,299.1h-2v-4h2V299.1z M341.7,297.9h-2v-4h2V297.9z M940.2,291.1
	h-2v-4h2V291.1z M341.7,289.9h-2v-4h2V289.9z M940.2,283.1h-2v-4h2V283.1z M341.7,281.9h-2v-4h2V281.9z M940.2,275.1h-2v-4h2V275.1z
	 M341.7,273.9h-2v-4h2V273.9z M940.2,267.1h-2v-4h2V267.1z M341.7,265.9h-2v-4h2V265.9z M940.2,259.1h-2v-4h2V259.1z M341.7,257.9
	h-2v-4h2V257.9z M940.2,251.1h-2v-4h2V251.1z M341.7,249.9h-2v-4h2V249.9z M940.2,243.1h-2v-4h2V243.1z M341.7,241.9h-2v-4h2V241.9z
	 M940.2,235.1h-2v-4h2V235.1z M341.7,233.9h-2v-4h2V233.9z M940.2,227.1h-2v-4h2V227.1z M341.7,225.9h-2v-4h2V225.9z M940.2,219.1
	h-2v-4h2V219.1z M341.7,217.9h-2v-4h2V217.9z M940.2,211.1h-2v-4h2V211.1z M341.7,209.9h-2v-4h2V209.9z M940.2,203.1h-2v-4h2V203.1z
	 M341.7,201.9h-2v-4h2V201.9z M940.2,195.1h-2v-4h2V195.1z M341.7,193.9h-2v-4h2V193.9z M940.2,187.1h-2v-4h2V187.1z M341.7,185.9
	h-2v-4h2V185.9z M940.2,179.1h-2v-4h2V179.1z M341.7,177.9h-2v-4h2V177.9z M940.2,171.1h-2v-4h2V171.1z M341.7,169.9h-2v-4h2V169.9z
	 M940.2,163.1h-2v-4h2V163.1z M341.7,161.9h-2v-4h2V161.9z M940.2,155.1h-2v-4h2V155.1z M341.7,153.9h-2v-4h2V153.9z M940.2,147.1
	h-2v-4h2V147.1z M341.7,145.9h-2v-4h2V145.9z M940.2,139.1h-2v-4h2V139.1z M341.7,137.9h-2v-4h2V137.9z M940.2,131.1h-2v-4h2V131.1z
	 M341.7,129.9h-2v-4h2V129.9z M940.2,123.1h-2v-4h2V123.1z M341.7,121.9h-2v-4h2V121.9z M940.2,115.1h-2v-4h2V115.1z M341.7,113.9
	h-2v-4h2V113.9z M940.2,107.1h-2v-4h2V107.1z M341.7,105.9h-2v-4h2V105.9z M940.2,99.1h-2v-4h2V99.1z M341.7,97.9h-2v-4h2V97.9z
	 M940.2,91.1h-2v-4h2V91.1z M341.7,89.9h-2v-4h2V89.9z M940.2,83.1h-2v-4h2V83.1z M341.7,81.9h-2v-4h2V81.9z M940.2,75.1h-2v-4h2
	V75.1z M341.7,73.9h-2v-4h2V73.9z M940.2,67.1h-2v-4h2V67.1z M341.7,65.9h-2v-4h2V65.9z M940.2,59.1h-2v-4h2V59.1z M341.7,57.9h-2
	v-4h2V57.9z M940.2,51.1h-2v-4h2V51.1z M341.7,49.9h-2v-4h2V49.9z M940.2,43.1h-2v-4h2V43.1z M341.7,41.9h-2v-4h2V41.9z M940.2,35.1
	h-2v-4h2V35.1z M341.7,33.9h-2v-4h2V33.9z M940.2,27.1h-2v-4h2V27.1z M341.7,25.9h-2v-4h2V25.9z M940.2,19.1h-2v-4h2V19.1z
	 M341.7,17.9h-2v-4h2V17.9z M938.1,11.2c-0.2-1.2-0.6-2.3-1.4-3.2l1.6-1.2c0.9,1.2,1.5,2.6,1.7,4.1L938.1,11.2z M342,10.2l-1.9-0.6
	c0.4-1.4,1.3-2.7,2.3-3.8l1.4,1.4C343,8.1,342.4,9.1,342,10.2z M934,5.9c-0.9-0.4-1.9-0.6-2.8-0.6h-0.6v-2h0.6
	c1.3,0,2.5,0.3,3.7,0.8L934,5.9z M346.8,5.5l-0.5-1.9c0.8-0.2,1.6-0.3,2.4-0.3h1.9v2h-1.9C348.1,5.3,347.4,5.4,346.8,5.5z
	 M926.6,5.3h-4v-2h4V5.3z M918.6,5.3h-4v-2h4V5.3z M910.6,5.3h-4v-2h4V5.3z M902.6,5.3h-4v-2h4V5.3z M894.6,5.3h-4v-2h4V5.3z
	 M886.6,5.3h-4v-2h4V5.3z M878.6,5.3h-4v-2h4V5.3z M870.6,5.3h-4v-2h4V5.3z M862.6,5.3h-4v-2h4V5.3z M854.6,5.3h-4v-2h4V5.3z
	 M846.6,5.3h-4v-2h4V5.3z M838.6,5.3h-4v-2h4V5.3z M830.6,5.3h-4v-2h4V5.3z M822.6,5.3h-4v-2h4V5.3z M814.6,5.3h-4v-2h4V5.3z
	 M806.6,5.3h-4v-2h4V5.3z M798.6,5.3h-4v-2h4V5.3z M790.6,5.3h-4v-2h4V5.3z M782.6,5.3h-4v-2h4V5.3z M774.6,5.3h-4v-2h4V5.3z
	 M766.6,5.3h-4v-2h4V5.3z M758.6,5.3h-4v-2h4V5.3z M750.6,5.3h-4v-2h4V5.3z M742.6,5.3h-4v-2h4V5.3z M734.6,5.3h-4v-2h4V5.3z
	 M726.6,5.3h-4v-2h4V5.3z M718.6,5.3h-4v-2h4V5.3z M710.6,5.3h-4v-2h4V5.3z M702.6,5.3h-4v-2h4V5.3z M694.6,5.3h-4v-2h4V5.3z
	 M686.6,5.3h-4v-2h4V5.3z M678.6,5.3h-4v-2h4V5.3z M670.6,5.3h-4v-2h4V5.3z M662.6,5.3h-4v-2h4V5.3z M654.6,5.3h-4v-2h4V5.3z
	 M646.6,5.3h-4v-2h4V5.3z M638.6,5.3h-4v-2h4V5.3z M630.6,5.3h-4v-2h4V5.3z M622.6,5.3h-4v-2h4V5.3z M614.6,5.3h-4v-2h4V5.3z
	 M606.6,5.3h-4v-2h4V5.3z M598.6,5.3h-4v-2h4V5.3z M590.6,5.3h-4v-2h4V5.3z M582.6,5.3h-4v-2h4V5.3z M574.6,5.3h-4v-2h4V5.3z
	 M566.6,5.3h-4v-2h4V5.3z M558.6,5.3h-4v-2h4V5.3z M550.6,5.3h-4v-2h4V5.3z M542.6,5.3h-4v-2h4V5.3z M534.6,5.3h-4v-2h4V5.3z
	 M526.6,5.3h-4v-2h4V5.3z M518.6,5.3h-4v-2h4V5.3z M510.6,5.3h-4v-2h4V5.3z M502.6,5.3h-4v-2h4V5.3z M494.6,5.3h-4v-2h4V5.3z
	 M486.6,5.3h-4v-2h4V5.3z M478.6,5.3h-4v-2h4V5.3z M470.6,5.3h-4v-2h4V5.3z M462.6,5.3h-4v-2h4V5.3z M454.6,5.3h-4v-2h4V5.3z
	 M446.6,5.3h-4v-2h4V5.3z M438.6,5.3h-4v-2h4V5.3z M430.6,5.3h-4v-2h4V5.3z M422.6,5.3h-4v-2h4V5.3z M414.6,5.3h-4v-2h4V5.3z
	 M406.6,5.3h-4v-2h4V5.3z M398.6,5.3h-4v-2h4V5.3z M390.6,5.3h-4v-2h4V5.3z M382.6,5.3h-4v-2h4V5.3z M374.6,5.3h-4v-2h4V5.3z
	 M366.6,5.3h-4v-2h4V5.3z M358.6,5.3h-4v-2h4V5.3z"/>
<g class="st0">
	<path class="st1" d="M32.1,470.5L32.1,470.5c0,1-0.3,1.9-1,2.6c-0.7,0.7-1.7,1-2.9,1c-1.2,0-2.2-0.4-2.9-1.3s-1.1-1.9-1.1-3.3v-1.9
		c0-1.3,0.4-2.4,1.1-3.3c0.8-0.9,1.7-1.3,2.9-1.3s2.2,0.3,2.9,1c0.7,0.6,1.1,1.5,1,2.6l0,0h-1.4c0-0.7-0.2-1.3-0.7-1.8
		c-0.4-0.4-1.1-0.7-1.9-0.7c-0.8,0-1.4,0.3-1.9,1c-0.5,0.6-0.7,1.5-0.7,2.4v1.9c0,1,0.2,1.8,0.7,2.4c0.5,0.6,1.1,1,1.9,1
		c0.8,0,1.4-0.2,1.9-0.6c0.4-0.4,0.7-1,0.7-1.8H32.1z"/>
	<path class="st1" d="M35.5,472.8h5v1.1H34v-10.7h1.4V472.8z"/>
	<path class="st1" d="M43.6,473.9h-1.5v-10.7h1.5V473.9z"/>
	<path class="st1" d="M52.7,469h-4.9v3.8h5.6v1.1h-7.1v-10.7h7v1.1h-5.6v3.5h4.9V469z"/>
</g>
<g class="st0">
	<path class="st1" d="M63.2,473.9h-1.4l-5.1-8.2l0,0v8.2h-1.4v-10.7h1.4l5.1,8.2l0,0v-8.2h1.4V473.9z"/>
</g>
<g class="st0">
	<path class="st1" d="M72.8,464.4h-3.4v9.5H68v-9.5h-3.4v-1.1h8.3V464.4z"/>
</g>
<g class="st0">
	<path class="st2" d="M1149,442.5h-0.9v-10.7h0.9V442.5z"/>
	<path class="st2" d="M1159.8,442.5h-0.9l-6.1-9.2l0,0v9.2h-0.9v-10.7h0.9l6.1,9.2l0,0v-9.1h0.9V442.5z"/>
	<path class="st2" d="M1169.5,432.6h-3.7v9.9h-0.9v-9.9h-3.7v-0.7h8.2V432.6z"/>
	<path class="st2" d="M1177.3,437.3h-5.1v4.4h5.9v0.7h-6.8v-10.7h6.7v0.7h-5.8v4h5.1V437.3z"/>
	<path class="st2" d="M1180.8,437.7v4.8h-0.9v-10.7h3.6c1.1,0,2,0.2,2.6,0.8c0.6,0.5,0.9,1.2,0.9,2.2c0,0.6-0.2,1.1-0.5,1.5
		c-0.3,0.4-0.8,0.8-1.4,1c0.7,0.2,1.1,0.5,1.4,0.9c0.3,0.4,0.4,1,0.4,1.6v1c0,0.3,0,0.6,0.1,0.9s0.2,0.5,0.4,0.6v0.2h-0.9
		c-0.2-0.2-0.3-0.4-0.4-0.7c-0.1-0.3-0.1-0.6-0.1-1v-1c0-0.7-0.2-1.2-0.6-1.5c-0.4-0.4-1-0.6-1.8-0.6H1180.8z M1180.8,436.9h2.6
		c1,0,1.7-0.2,2.1-0.6c0.4-0.4,0.7-0.9,0.7-1.6c0-0.7-0.2-1.2-0.7-1.6c-0.4-0.4-1.1-0.6-2-0.6h-2.7V436.9z"/>
	<path class="st2" d="M1197.6,442.5h-0.9l-6.1-9.2l0,0v9.2h-0.9v-10.7h0.9l6.1,9.2l0,0v-9.1h0.9V442.5z"/>
	<path class="st2" d="M1206.4,437.3h-5.1v4.4h5.9v0.7h-6.8v-10.7h6.7v0.7h-5.8v4h5.1V437.3z"/>
	<path class="st2" d="M1216.4,432.6h-3.7v9.9h-0.9v-9.9h-3.7v-0.7h8.2V432.6z"/>
</g>
<g class="st0">
	<path class="st2" d="M477.5,102.7h-1.5V92h1.5V102.7z"/>
	<path class="st2" d="M480.3,102.7V92h3.3c1.4,0,2.5,0.4,3.4,1.3c0.8,0.9,1.3,2,1.3,3.3v1.5c0,1.4-0.4,2.5-1.3,3.3
		c-0.8,0.9-2,1.3-3.4,1.3H480.3z M481.7,93.2v8.4h1.8c1,0,1.8-0.3,2.3-1c0.6-0.6,0.9-1.5,0.9-2.5v-1.5c0-1-0.3-1.8-0.9-2.5
		c-0.6-0.6-1.3-1-2.3-1H481.7z"/>
	<path class="st2" d="M495.9,100c0-0.5-0.2-0.9-0.5-1.2c-0.4-0.3-1-0.6-1.9-0.8c-1.1-0.3-2-0.7-2.6-1.2s-0.9-1.2-0.9-2
		c0-0.8,0.3-1.5,1-2.1c0.7-0.6,1.6-0.8,2.6-0.8c1.2,0,2.1,0.3,2.8,1s1,1.4,1,2.2l0,0h-1.4c0-0.6-0.2-1.1-0.6-1.5s-1-0.6-1.8-0.6
		c-0.7,0-1.3,0.2-1.7,0.5c-0.4,0.3-0.6,0.7-0.6,1.3c0,0.5,0.2,0.9,0.6,1.2c0.4,0.3,1.1,0.6,2,0.8c1.1,0.3,2,0.7,2.6,1.2
		s0.9,1.2,0.9,2c0,0.9-0.4,1.6-1.1,2.1s-1.6,0.8-2.8,0.8c-1.1,0-2-0.3-2.8-0.9c-0.8-0.6-1.2-1.4-1.2-2.3l0,0h1.4
		c0,0.7,0.3,1.2,0.8,1.6s1.1,0.5,1.9,0.5c0.7,0,1.3-0.2,1.7-0.5S495.9,100.5,495.9,100z"/>
	<path class="st2" d="M499.5,103.6h-1.2l4.5-11.6h1.2L499.5,103.6z"/>
	<path class="st2" d="M511.5,100H507l-1,2.7h-1.5l4.1-10.7h1.2l4.1,10.7h-1.5L511.5,100z M507.5,98.7h3.6l-1.8-4.9h0L507.5,98.7z"/>
	<path class="st2" d="M522.7,93.2h-3.4v9.5h-1.4v-9.5h-3.4V92h8.3V93.2z"/>
	<path class="st2" d="M525.7,98.4v4.3h-1.4V92h4.1c1.1,0,2,0.3,2.7,0.9s0.9,1.4,0.9,2.3c0,1-0.3,1.7-0.9,2.3
		c-0.6,0.6-1.5,0.9-2.7,0.9H525.7z M525.7,97.3h2.6c0.7,0,1.3-0.2,1.6-0.6c0.4-0.4,0.5-0.9,0.5-1.5s-0.2-1.1-0.5-1.5
		c-0.4-0.4-0.9-0.6-1.6-0.6h-2.6V97.3z"/>
</g>
<path class="st7" d="M1137,455.9c-7.9,0-15.3-3-21-8.6c-5.7-5.6-8.9-13.1-9-21.1c-0.1-12.7,8-24.3,19.9-28.6
	c-2-4.7-2.3-9.8-0.7-14.7c1.7-5.3,5.4-9.5,10.3-12c6.1-3.1,13.1-3,19.1,0.2c4.9-8.8,12.8-15.3,22.5-18.4c10-3.2,20.6-2.2,29.9,2.6
	c13.1,6.8,21.2,20.2,21.1,35v0.8c16.5,8.7,23.1,29.2,14.6,45.9c-5.8,11.5-17.5,18.8-30.4,18.9h-76
	C1137.2,455.9,1137.1,455.9,1137,455.9z M1127.8,399.5c-11.2,3.9-18.9,14.8-18.8,26.8c0.1,7.5,3.1,14.5,8.4,19.7
	c5.3,5.2,12.4,8.1,19.9,8h76c12.2-0.1,23.1-6.9,28.6-17.8c8.1-15.9,1.7-35.5-14.3-43.5l-0.5-0.3v-2c0.1-14-7.6-26.7-20.1-33.2
	c-8.8-4.6-18.9-5.5-28.4-2.5c-9.5,3-17.2,9.5-21.8,18.3l-0.5,0.9l-0.9-0.5c-5.5-3.3-12.3-3.6-18.1-0.6c-8.9,4.5-12.7,15.3-8.6,24.3
	l3.2-1l-4,3.9L1127.8,399.5z"/>
<g class="st0">
	<path class="st6" d="M354.5,354.3v-10.7h3.3c1.4,0,2.5,0.4,3.4,1.3c0.8,0.9,1.3,2,1.3,3.3v1.5c0,1.4-0.4,2.5-1.3,3.3
		c-0.8,0.9-2,1.3-3.4,1.3H354.5z M356,344.8v8.4h1.8c1,0,1.8-0.3,2.3-1c0.6-0.6,0.9-1.5,0.9-2.5v-1.5c0-1-0.3-1.8-0.9-2.5
		c-0.6-0.6-1.3-1-2.3-1H356z"/>
	<path class="st6" d="M370.7,349.4h-4.9v3.8h5.6v1.1h-7.1v-10.7h7v1.1h-5.6v3.5h4.9V349.4z"/>
	<path class="st6" d="M380.7,350.9L380.7,350.9c0,1-0.3,1.9-1,2.6c-0.7,0.7-1.7,1-2.9,1c-1.2,0-2.2-0.4-2.9-1.3s-1.1-1.9-1.1-3.3
		V348c0-1.3,0.4-2.4,1.1-3.3c0.8-0.9,1.7-1.3,2.9-1.3s2.2,0.3,2.9,1c0.7,0.6,1.1,1.5,1,2.6l0,0h-1.4c0-0.7-0.2-1.3-0.7-1.8
		c-0.4-0.4-1.1-0.7-1.9-0.7c-0.8,0-1.4,0.3-1.9,1c-0.5,0.6-0.7,1.5-0.7,2.4v1.9c0,1,0.2,1.8,0.7,2.4c0.5,0.6,1.1,1,1.9,1
		c0.8,0,1.4-0.2,1.9-0.6c0.4-0.4,0.7-1,0.7-1.8H380.7z"/>
</g>
<g class="st0">
	<path class="st6" d="M384.1,349.7v4.6h-1.4v-10.7h3.9c1.2,0,2.1,0.3,2.7,0.8c0.6,0.5,0.9,1.3,0.9,2.3c0,0.5-0.1,1-0.4,1.4
		c-0.3,0.4-0.7,0.7-1.2,1c0.6,0.2,1,0.5,1.3,0.9c0.3,0.4,0.4,1,0.4,1.6v1c0,0.3,0,0.6,0.1,0.9s0.2,0.5,0.4,0.6v0.2H389
		c-0.2-0.2-0.3-0.4-0.4-0.7s-0.1-0.7-0.1-1v-1c0-0.6-0.2-1-0.5-1.4s-0.8-0.5-1.4-0.5H384.1z M384.1,348.5h2.3c0.8,0,1.4-0.2,1.8-0.5
		c0.4-0.3,0.5-0.8,0.5-1.4c0-0.6-0.2-1.1-0.5-1.4c-0.3-0.3-0.9-0.5-1.6-0.5h-2.4V348.5z"/>
</g>
<g class="st0">
	<path class="st6" d="M395.5,349.1l2.8-5.4h1.6l-3.7,6.9v3.8h-1.4v-3.8l-3.7-6.8h1.6L395.5,349.1z"/>
	<path class="st6" d="M402.8,350v4.3h-1.4v-10.7h4.1c1.1,0,2,0.3,2.7,0.9s0.9,1.4,0.9,2.3c0,1-0.3,1.7-0.9,2.3
		c-0.6,0.6-1.5,0.9-2.7,0.9H402.8z M402.8,348.9h2.6c0.7,0,1.3-0.2,1.6-0.6c0.4-0.4,0.5-0.9,0.5-1.5s-0.2-1.1-0.5-1.5
		c-0.4-0.4-0.9-0.6-1.6-0.6h-2.6V348.9z"/>
	<path class="st6" d="M418.2,344.8h-3.4v9.5h-1.4v-9.5h-3.4v-1.1h8.3V344.8z"/>
</g>
<g class="st0">
	<path class="st6" d="M355.5,371.2h6v1.1h-7.6v-1.1l5.7-8.5H354v-1.1h7.3v1L355.5,371.2z"/>
</g>
<g class="st0">
	<path class="st6" d="M371.4,367.9c0,1.3-0.4,2.4-1.2,3.2c-0.8,0.9-1.9,1.3-3.1,1.3c-1.2,0-2.3-0.4-3-1.3c-0.8-0.9-1.2-1.9-1.2-3.2
		V366c0-1.3,0.4-2.4,1.2-3.2c0.8-0.9,1.8-1.3,3-1.3c1.3,0,2.3,0.4,3.1,1.3c0.8,0.9,1.2,1.9,1.2,3.2V367.9z M369.9,366
		c0-1-0.3-1.8-0.8-2.4s-1.2-0.9-2.1-0.9c-0.8,0-1.5,0.3-2,0.9c-0.5,0.6-0.8,1.4-0.8,2.4v1.9c0,1,0.2,1.8,0.8,2.4
		c0.5,0.6,1.2,0.9,2,0.9c0.9,0,1.6-0.3,2.1-0.9c0.5-0.6,0.8-1.4,0.8-2.4V366z"/>
	<path class="st6" d="M381.6,372.3h-1.4l-5.1-8.2l0,0v8.2h-1.4v-10.7h1.4l5.1,8.2l0,0v-8.2h1.4V372.3z"/>
	<path class="st6" d="M390.6,367.4h-4.9v3.8h5.6v1.1h-7.1v-10.7h7v1.1h-5.6v3.5h4.9V367.4z"/>
</g>
<path class="st8" d="M588.4,124.2H422.8c-3.7-0.1-6.7-3.1-6.7-6.8V79.2c0-3.7,3-6.7,6.7-6.8h165.6c3.7,0,6.8,3.1,6.8,6.8v38.2
	C595.2,121.1,592.1,124.2,588.4,124.2z M422.8,74.4c-2.6,0-4.7,2.2-4.7,4.8v38.2c0,2.6,2.1,4.8,4.7,4.8h165.6c2.6,0,4.8-2.2,4.8-4.8
	V79.2c0-2.6-2.2-4.8-4.8-4.8H422.8z"/>
<path class="st8" d="M417,115.5h-5c-2.8,0-5-2-5-4.4V85c0-2.4,2.3-4.4,5-4.4h5v2h-5c-1.6,0-3,1.1-3,2.4v26.1c0,1.3,1.3,2.4,3,2.4h5
	V115.5z"/>
<path class="st8" d="M599.5,115.6h-6.4v-2h6.4c1.6,0,3-1.1,3-2.4V85.1c0-1.3-1.3-2.4-3-2.4h-6.4v-2h6.4c2.8,0,5,2,5,4.4v26.1
	C604.5,113.6,602.2,115.6,599.5,115.6z"/>
<g class="st0">
	<path class="st2" d="M735.4,102.7V92h3.3c1.4,0,2.5,0.4,3.4,1.3c0.8,0.9,1.3,2,1.3,3.3v1.5c0,1.4-0.4,2.5-1.3,3.3
		c-0.8,0.9-2,1.3-3.4,1.3H735.4z M736.9,93.2v8.4h1.8c1,0,1.8-0.3,2.3-1c0.6-0.6,0.9-1.5,0.9-2.5v-1.5c0-1-0.3-1.8-0.9-2.5
		c-0.6-0.6-1.3-1-2.3-1H736.9z"/>
	<path class="st2" d="M746.7,101.6h5v1.1h-6.5V92h1.4V101.6z"/>
	<path class="st2" d="M754.8,98.4v4.3h-1.4V92h4.1c1.1,0,2,0.3,2.7,0.9s0.9,1.4,0.9,2.3c0,1-0.3,1.7-0.9,2.3
		c-0.6,0.6-1.5,0.9-2.7,0.9H754.8z M754.8,97.3h2.6c0.7,0,1.3-0.2,1.6-0.6c0.4-0.4,0.5-0.9,0.5-1.5s-0.2-1.1-0.5-1.5
		c-0.4-0.4-0.9-0.6-1.6-0.6h-2.6V97.3z"/>
	<path class="st2" d="M763,103.6h-1.2l4.5-11.6h1.2L763,103.6z"/>
	<path class="st2" d="M775,100h-4.5l-1,2.7h-1.5l4.1-10.7h1.2l4.1,10.7H776L775,100z M771,98.7h3.6l-1.8-4.9h0L771,98.7z"/>
	<path class="st2" d="M782.1,100l0.2,0.8h0l0.2-0.8l2.8-8h1.6l-4,10.7h-1.2l-4-10.7h1.6L782.1,100z"/>
</g>
<path class="st8" d="M845.4,124.2H679.8c-3.7-0.1-6.7-3.1-6.7-6.8V79.2c0-3.7,3-6.7,6.7-6.8h165.6c3.7,0,6.8,3.1,6.8,6.8v38.2
	C852.2,121.1,849.1,124.2,845.4,124.2z M679.8,74.4c-2.6,0-4.7,2.2-4.7,4.8v38.2c0,2.6,2.1,4.8,4.7,4.8h165.6c2.6,0,4.8-2.2,4.8-4.8
	V79.2c0-2.6-2.2-4.8-4.8-4.8H679.8z"/>
<path class="st8" d="M674,115.5h-5c-2.8,0-5-2-5-4.4V85c0-2.4,2.3-4.4,5-4.4h5v2h-5c-1.6,0-3,1.1-3,2.4v26.1c0,1.3,1.3,2.4,3,2.4h5
	V115.5z"/>
<path class="st8" d="M856.5,115.6h-6.4v-2h6.4c1.6,0,3-1.1,3-2.4V85.1c0-1.3-1.3-2.4-3-2.4h-6.4v-2h6.4c2.8,0,5,2,5,4.4v26.1
	C861.5,113.6,859.2,115.6,856.5,115.6z"/>
<g class="st0">
	<path class="st2" d="M606.6,249.9h-1.5v-10.7h1.5V249.9z"/>
	<path class="st2" d="M610.8,245.6v4.3h-1.4v-10.7h4.1c1.1,0,2,0.3,2.7,0.9s0.9,1.4,0.9,2.3c0,1-0.3,1.7-0.9,2.3
		c-0.6,0.6-1.5,0.9-2.7,0.9H610.8z M610.8,244.5h2.6c0.7,0,1.3-0.2,1.6-0.6c0.4-0.4,0.5-0.9,0.5-1.5s-0.2-1.1-0.5-1.5
		c-0.4-0.4-0.9-0.6-1.6-0.6h-2.6V244.5z"/>
	<path class="st2" d="M624.8,247.2c0-0.5-0.2-0.9-0.5-1.2c-0.4-0.3-1-0.6-1.9-0.8c-1.1-0.3-2-0.7-2.6-1.2s-0.9-1.2-0.9-2
		c0-0.8,0.3-1.5,1-2.1c0.7-0.6,1.6-0.8,2.6-0.8c1.2,0,2.1,0.3,2.8,1c0.7,0.6,1,1.4,1,2.2l0,0h-1.4c0-0.6-0.2-1.1-0.6-1.5
		s-1-0.6-1.8-0.6c-0.7,0-1.3,0.2-1.7,0.5c-0.4,0.3-0.6,0.7-0.6,1.3c0,0.5,0.2,0.9,0.6,1.2c0.4,0.3,1.1,0.6,2,0.8
		c1.1,0.3,2,0.7,2.6,1.2c0.6,0.5,0.9,1.2,0.9,2c0,0.9-0.4,1.6-1.1,2.1c-0.7,0.5-1.6,0.8-2.8,0.8c-1.1,0-2-0.3-2.8-0.9
		c-0.8-0.6-1.2-1.4-1.2-2.3l0,0h1.4c0,0.7,0.3,1.2,0.8,1.6s1.1,0.5,1.9,0.5c0.7,0,1.3-0.2,1.7-0.5S624.8,247.7,624.8,247.2z"/>
	<path class="st2" d="M628.4,250.8h-1.2l4.5-11.6h1.2L628.4,250.8z"/>
	<path class="st2" d="M642.6,249.9h-1.4l-5.1-8.2l0,0v8.2h-1.4v-10.7h1.4l5.1,8.2l0,0v-8.2h1.4V249.9z"/>
	<path class="st2" d="M653,248.5c-0.3,0.4-0.7,0.8-1.3,1.1c-0.6,0.3-1.4,0.5-2.4,0.5c-1.3,0-2.3-0.4-3.2-1.2
		c-0.8-0.8-1.2-1.9-1.2-3.2v-2.2c0-1.3,0.4-2.3,1.2-3.2s1.8-1.2,3-1.2c1.2,0,2.2,0.3,2.9,0.9s1.1,1.4,1.1,2.3l0,0h-1.4
		c0-0.6-0.3-1.1-0.7-1.5c-0.4-0.4-1-0.6-1.8-0.6c-0.8,0-1.5,0.3-2,0.9c-0.5,0.6-0.7,1.4-0.7,2.3v2.2c0,0.9,0.3,1.7,0.8,2.3
		s1.3,0.9,2.1,0.9c0.6,0,1.1-0.1,1.5-0.2c0.4-0.2,0.7-0.3,0.8-0.5v-2.4h-2.3v-1.1h3.8V248.5z"/>
	<path class="st2" d="M661.8,245.2h-4.9v4.7h-1.4v-10.7h7.1v1.1h-5.6v3.7h4.9V245.2z"/>
	<path class="st2" d="M666.3,246.2l0.2,1.3l0,0l0.3-1.3l2-7h1.3l2,7l0.3,1.4h0l0.2-1.4l1.6-7h1.4l-2.6,10.7h-1.3l-2.1-7.4l-0.2-1h0
		l-0.2,1l-2.1,7.4h-1.3l-2.6-10.7h1.4L666.3,246.2z"/>
</g>
<g class="st0">
	<path class="st2" d="M578.4,471.2h-4.5l-1,2.7h-1.5l4.1-10.7h1.2l4.1,10.7h-1.5L578.4,471.2z M574.4,469.9h3.6l-1.8-4.9h0
		L574.4,469.9z"/>
	<path class="st2" d="M586,473.9h-1.4v-9.3l-2.2,0v-1l3.6-0.4V473.9z"/>
	<path class="st2" d="M597.1,469.8c0,1.4-0.3,2.4-0.9,3.1c-0.6,0.7-1.4,1.1-2.5,1.1s-1.9-0.4-2.5-1.1s-0.9-1.8-0.9-3.1v-2.5
		c0-1.4,0.3-2.4,0.9-3.1c0.6-0.7,1.4-1.1,2.5-1.1c1,0,1.9,0.4,2.5,1.1c0.6,0.7,0.9,1.8,0.9,3.1V469.8z M595.6,467
		c0-0.9-0.2-1.6-0.5-2.1c-0.3-0.5-0.8-0.7-1.5-0.7s-1.1,0.2-1.5,0.7s-0.5,1.2-0.5,2.1v3.1c0,0.9,0.2,1.6,0.5,2.1s0.8,0.7,1.5,0.7
		s1.1-0.2,1.4-0.7c0.3-0.5,0.5-1.2,0.5-2.1V467z"/>
	<path class="st2" d="M610.2,464.4h-3.4v9.5h-1.4v-9.5h-3.4v-1.1h8.3V464.4z"/>
	<path class="st2" d="M619.8,473.9h-1.4v-4.7h-5.2v4.7h-1.4v-10.7h1.4v4.8h5.2v-4.8h1.4V473.9z"/>
	<path class="st2" d="M630.2,463.2v7.2c0,1.2-0.4,2.1-1.1,2.7c-0.8,0.6-1.7,0.9-3,0.9c-1.2,0-2.1-0.3-2.9-0.9
		c-0.7-0.6-1.1-1.5-1.1-2.7v-7.2h1.4v7.2c0,0.8,0.2,1.4,0.7,1.8s1.1,0.6,1.8,0.6c0.8,0,1.4-0.2,1.9-0.6c0.5-0.4,0.7-1,0.7-1.8v-7.2
		H630.2z"/>
	<path class="st2" d="M640.7,473.9h-1.4l-5.1-8.2l0,0v8.2h-1.4v-10.7h1.4l5.1,8.2l0,0v-8.2h1.4V473.9z"/>
	<path class="st2" d="M643.3,473.9v-10.7h3.3c1.4,0,2.5,0.4,3.4,1.3c0.8,0.9,1.3,2,1.3,3.3v1.5c0,1.4-0.4,2.5-1.3,3.3
		c-0.8,0.9-2,1.3-3.4,1.3H643.3z M644.7,464.4v8.4h1.8c1,0,1.8-0.3,2.3-1c0.6-0.6,0.9-1.5,0.9-2.5v-1.5c0-1-0.3-1.8-0.9-2.5
		c-0.6-0.6-1.3-1-2.3-1H644.7z"/>
	<path class="st2" d="M659.5,469h-4.9v3.8h5.6v1.1h-7.1v-10.7h7v1.1h-5.6v3.5h4.9V469z"/>
	<path class="st2" d="M663.4,469.3v4.6h-1.4v-10.7h3.9c1.2,0,2.1,0.3,2.7,0.8c0.6,0.5,0.9,1.3,0.9,2.3c0,0.5-0.1,1-0.4,1.4
		c-0.3,0.4-0.7,0.7-1.2,1c0.6,0.2,1,0.5,1.3,0.9c0.3,0.4,0.4,1,0.4,1.6v1c0,0.3,0,0.6,0.1,0.9s0.2,0.5,0.4,0.6v0.2h-1.5
		c-0.2-0.2-0.3-0.4-0.4-0.7s-0.1-0.7-0.1-1v-1c0-0.6-0.2-1-0.5-1.4s-0.8-0.5-1.4-0.5H663.4z M663.4,468.1h2.3c0.8,0,1.4-0.2,1.8-0.5
		c0.4-0.3,0.5-0.8,0.5-1.4c0-0.6-0.2-1.1-0.5-1.4c-0.3-0.3-0.9-0.5-1.6-0.5h-2.4V468.1z"/>
	<path class="st2" d="M681.4,471.2c0-0.5-0.2-0.9-0.5-1.2c-0.4-0.3-1-0.6-1.9-0.8c-1.1-0.3-2-0.7-2.6-1.2c-0.6-0.5-0.9-1.2-0.9-2
		c0-0.8,0.3-1.5,1-2.1c0.7-0.6,1.6-0.8,2.6-0.8c1.2,0,2.1,0.3,2.8,1c0.7,0.6,1,1.4,1,2.2l0,0h-1.4c0-0.6-0.2-1.1-0.6-1.5
		c-0.4-0.4-1-0.6-1.8-0.6c-0.7,0-1.3,0.2-1.7,0.5c-0.4,0.3-0.6,0.7-0.6,1.3c0,0.5,0.2,0.9,0.6,1.2c0.4,0.3,1.1,0.6,2,0.8
		c1.1,0.3,2,0.7,2.6,1.2s0.9,1.2,0.9,2c0,0.9-0.4,1.6-1.1,2.1s-1.6,0.8-2.8,0.8c-1.1,0-2-0.3-2.8-0.9c-0.8-0.6-1.2-1.4-1.2-2.3l0,0
		h1.4c0,0.7,0.3,1.2,0.8,1.6s1.1,0.5,1.9,0.5c0.7,0,1.3-0.2,1.7-0.5S681.4,471.7,681.4,471.2z"/>
	<path class="st2" d="M690.8,471.2c0-0.5-0.2-0.9-0.5-1.2c-0.4-0.3-1-0.6-1.9-0.8c-1.1-0.3-2-0.7-2.6-1.2c-0.6-0.5-0.9-1.2-0.9-2
		c0-0.8,0.3-1.5,1-2.1c0.7-0.6,1.6-0.8,2.6-0.8c1.2,0,2.1,0.3,2.8,1c0.7,0.6,1,1.4,1,2.2l0,0h-1.4c0-0.6-0.2-1.1-0.6-1.5
		c-0.4-0.4-1-0.6-1.8-0.6c-0.7,0-1.3,0.2-1.7,0.5c-0.4,0.3-0.6,0.7-0.6,1.3c0,0.5,0.2,0.9,0.6,1.2c0.4,0.3,1.1,0.6,2,0.8
		c1.1,0.3,2,0.7,2.6,1.2s0.9,1.2,0.9,2c0,0.9-0.4,1.6-1.1,2.1s-1.6,0.8-2.8,0.8c-1.1,0-2-0.3-2.8-0.9c-0.8-0.6-1.2-1.4-1.2-2.3l0,0
		h1.4c0,0.7,0.3,1.2,0.8,1.6s1.1,0.5,1.9,0.5c0.7,0,1.3-0.2,1.7-0.5S690.8,471.7,690.8,471.2z"/>
	<path class="st2" d="M695.8,472.8h5v1.1h-6.5v-10.7h1.4V472.8z"/>
	<path class="st2" d="M703.7,463.9h-1.4v-1.5h1.4V463.9z M703.7,473.9h-1.4V466h1.4V473.9z"/>
</g>
<path class="st8" d="M722.6,270.1H556.9c-3.7-0.1-6.7-3.1-6.7-6.8v-38.2c0-3.7,3-6.7,6.7-6.8h165.7c3.8,0,6.8,3.1,6.8,6.8v38.2
	C729.4,267,726.3,270.1,722.6,270.1z M556.9,220.3c-2.6,0-4.7,2.2-4.7,4.8v38.2c0,2.6,2.1,4.8,4.7,4.8h165.7c2.6,0,4.8-2.2,4.8-4.8
	v-38.2c0-2.6-2.2-4.8-4.8-4.8H556.9z"/>
<path class="st8" d="M551.2,261.4h-5c-2.8,0-5-2-5-4.4v-26.1c0-2.4,2.3-4.4,5-4.4h5v2h-5c-1.6,0-3,1.1-3,2.4V257
	c0,1.3,1.3,2.4,3,2.4h5V261.4z"/>
<path class="st8" d="M733.7,261.4h-6.4v-2h6.4c1.6,0,3-1.1,3-2.4v-26.1c0-1.3-1.3-2.4-3-2.4h-6.4v-2h6.4c2.8,0,5,2,5,4.4V257
	C738.7,259.4,736.4,261.4,733.7,261.4z"/>
<path class="st8" d="M477,483.1h-32c-2.7,0-4.9-2.2-4.9-4.9v-24.4c0-2.7,2.2-4.9,4.9-4.9h32c2.7,0,4.9,2.2,4.9,4.9v3.2
	c0,0.6-0.4,1-1,1s-1-0.4-1-1v-3.2c0-1.6-1.3-2.9-2.9-2.9h-32c-1.6,0-2.9,1.3-2.9,2.9v24.4c0,1.6,1.3,2.9,2.9,2.9h32
	c1.6,0,2.9-1.3,2.9-2.9v-3.3c0-0.6,0.4-1,1-1s1,0.4,1,1v3.3C481.9,480.9,479.7,483.1,477,483.1z"/>
<path class="st8" d="M473.3,450.5c-0.6,0-1-0.4-1-1v-4.7c0-6.2-5.1-11.3-11.3-11.3h-0.3c-6.2,0-11.3,5.1-11.3,11.3v4.7
	c0,0.6-0.4,1-1,1s-1-0.4-1-1v-4.7c0-7.3,6-13.3,13.3-13.3h0.3c7.3,0,13.3,6,13.3,13.3v4.7C474.3,450.1,473.9,450.5,473.3,450.5z"/>
<path class="st8" d="M476.2,477.1c-2.8,0-5.7-1.1-7.8-3.2c-4.3-4.3-4.3-11.4,0-15.7c4.3-4.3,11.4-4.3,15.7,0s4.3,11.4,0,15.7
	C481.9,476,479.1,477.1,476.2,477.1z M476.2,456.9c-2.3,0-4.7,0.9-6.4,2.7c-3.5,3.5-3.5,9.3,0,12.9c3.5,3.5,9.3,3.5,12.9,0
	c3.5-3.5,3.5-9.3,0-12.9C480.9,457.8,478.6,456.9,476.2,456.9z"/>
<path class="st8" d="M489.2,479.9c-0.3,0-0.5-0.1-0.7-0.3l-5.8-5.8c-0.4-0.4-0.4-1,0-1.4s1-0.4,1.4,0l5.8,5.8c0.4,0.4,0.4,1,0,1.4
	C489.7,479.8,489.5,479.9,489.2,479.9z"/>
<path class="st8" d="M475.3,469.8c-0.2,0-0.5-0.1-0.7-0.3l-2.9-2.8c-0.4-0.4-0.4-1,0-1.4c0.4-0.4,1-0.4,1.4,0l2.9,2.8
	c0.4,0.4,0.4,1,0,1.4C475.8,469.7,475.6,469.8,475.3,469.8z"/>
<path class="st8" d="M475.3,469.8c-0.3,0-0.5-0.1-0.7-0.3c-0.4-0.4-0.4-1,0-1.4l5.6-5.6c0.4-0.4,1-0.4,1.4,0s0.4,1,0,1.4l-5.6,5.6
	C475.8,469.7,475.6,469.8,475.3,469.8z"/>
<path class="st8" d="M827.7,483.1h-32.1c-2.7,0-4.9-2.2-4.9-4.9v-24.4c0-2.7,2.2-4.9,4.9-4.9h32.1c2.7,0,4.9,2.2,4.9,4.9v3.2
	c0,0.6-0.4,1-1,1s-1-0.4-1-1v-3.2c0-1.6-1.3-2.9-2.9-2.9h-32.1c-1.6,0-2.9,1.3-2.9,2.9v24.4c0,1.6,1.3,2.9,2.9,2.9h32.1
	c1.6,0,2.9-1.3,2.9-2.9v-3.3c0-0.6,0.4-1,1-1s1,0.4,1,1v3.3C832.6,480.9,830.4,483.1,827.7,483.1z"/>
<path class="st8" d="M823.9,450.5c-0.6,0-1-0.4-1-1v-4.7c0-6.2-5.1-11.3-11.3-11.3h-0.3c-6.2,0-11.3,5.1-11.3,11.3v4.7
	c0,0.6-0.4,1-1,1s-1-0.4-1-1v-4.7c0-7.3,6-13.3,13.3-13.3h0.3c7.3,0,13.3,6,13.3,13.3v4.7C824.9,450.1,824.5,450.5,823.9,450.5z"/>
<path class="st8" d="M826.9,477.1c-2.8,0-5.7-1.1-7.8-3.2c-4.3-4.3-4.3-11.4,0-15.7c4.3-4.3,11.4-4.3,15.7,0
	c2.1,2.1,3.3,4.9,3.3,7.8c0,3-1.2,5.8-3.3,7.8C832.6,476,829.8,477.1,826.9,477.1z M826.9,456.9c-2.3,0-4.7,0.9-6.4,2.7
	c-3.5,3.5-3.5,9.3,0,12.9c3.5,3.5,9.3,3.5,12.9,0c1.7-1.7,2.7-4,2.7-6.4s-0.9-4.7-2.7-6.4C831.6,457.8,829.2,456.9,826.9,456.9z"/>
<path class="st8" d="M839.9,479.9c-0.3,0-0.5-0.1-0.7-0.3l-5.8-5.8c-0.4-0.4-0.4-1,0-1.4s1-0.4,1.4,0l5.8,5.8c0.4,0.4,0.4,1,0,1.4
	C840.4,479.8,840.2,479.9,839.9,479.9z"/>
<path class="st8" d="M825.9,469.8c-0.3,0-0.5-0.1-0.7-0.3l-2.8-2.8c-0.4-0.4-0.4-1,0-1.4s1-0.4,1.4,0l2.8,2.8c0.4,0.4,0.4,1,0,1.4
	C826.4,469.7,826.2,469.8,825.9,469.8z"/>
<path class="st8" d="M825.9,469.8c-0.3,0-0.5-0.1-0.7-0.3c-0.4-0.4-0.4-1,0-1.4l5.7-5.6c0.4-0.4,1-0.4,1.4,0c0.4,0.4,0.4,1,0,1.4
	l-5.7,5.6C826.4,469.7,826.2,469.8,825.9,469.8z"/>
<rect x="101" y="417.1" class="st9" width="390.1" height="2"/>
<polygon class="st9" points="484.4,426.3 483.1,424.8 490.3,418.1 483.1,411.4 484.4,409.9 493.2,418.1 "/>
<rect x="788.4" y="417.1" class="st9" width="309.4" height="2"/>
<polygon class="st9" points="1091.2,426.3 1089.8,424.8 1097.1,418.1 1089.8,411.4 1091.2,409.9 1100,418.1 "/>
<g class="st0">
	<path class="st5" d="M570.5,291.4h-1.5v-10.7h1.5V291.4z"/>
	<path class="st5" d="M574.3,283.5l0.1,1.2c0.3-0.4,0.6-0.7,1-1c0.4-0.2,0.9-0.3,1.4-0.3c0.9,0,1.5,0.2,2,0.8
		c0.5,0.5,0.7,1.3,0.7,2.3v5H578v-5c0-0.7-0.1-1.2-0.4-1.5s-0.7-0.4-1.3-0.4c-0.4,0-0.8,0.1-1.1,0.3c-0.3,0.2-0.6,0.5-0.8,0.8v5.8
		H573v-7.9H574.3z"/>
	<path class="st5" d="M583.1,291.4h-1.4V280h1.4V291.4z"/>
	<path class="st5" d="M586.9,281.4h-1.4V280h1.4V281.4z M586.9,291.4h-1.4v-7.9h1.4V291.4z"/>
	<path class="st5" d="M590.4,283.5l0.1,1.2c0.3-0.4,0.6-0.7,1-1c0.4-0.2,0.9-0.3,1.4-0.3c0.9,0,1.5,0.2,2,0.8
		c0.5,0.5,0.7,1.3,0.7,2.3v5h-1.4v-5c0-0.7-0.1-1.2-0.4-1.5s-0.7-0.4-1.3-0.4c-0.4,0-0.8,0.1-1.1,0.3c-0.3,0.2-0.6,0.5-0.8,0.8v5.8
		h-1.4v-7.9H590.4z"/>
	<path class="st5" d="M600.9,291.6c-1.1,0-2-0.4-2.6-1.1c-0.7-0.7-1-1.7-1-2.9v-0.3c0-1.1,0.3-2.1,1-2.8c0.7-0.7,1.5-1.1,2.4-1.1
		c1.1,0,1.9,0.3,2.4,1s0.8,1.5,0.8,2.6v0.9h-5.1l0,0c0,0.8,0.2,1.4,0.6,1.9s0.9,0.7,1.6,0.7c0.5,0,0.9-0.1,1.3-0.2
		c0.4-0.1,0.7-0.3,1-0.6l0.6,0.9c-0.3,0.3-0.7,0.5-1.1,0.7C602.1,291.5,601.5,291.6,600.9,291.6z M600.7,284.5
		c-0.5,0-0.9,0.2-1.2,0.6s-0.6,0.9-0.6,1.5l0,0h3.7v-0.2c0-0.6-0.2-1-0.5-1.4C601.7,284.7,601.3,284.5,600.7,284.5z"/>
	<path class="st5" d="M615.3,288.7c0-0.5-0.2-0.9-0.5-1.2c-0.4-0.3-1-0.6-1.9-0.8c-1.1-0.3-2-0.7-2.6-1.2s-0.9-1.2-0.9-2
		c0-0.8,0.3-1.5,1-2.1c0.7-0.6,1.6-0.8,2.6-0.8c1.2,0,2.1,0.3,2.8,1s1,1.4,1,2.2l0,0h-1.4c0-0.6-0.2-1.1-0.6-1.5s-1-0.6-1.8-0.6
		c-0.7,0-1.3,0.2-1.7,0.5c-0.4,0.3-0.6,0.7-0.6,1.3c0,0.5,0.2,0.9,0.6,1.2c0.4,0.3,1.1,0.6,2,0.8c1.1,0.3,2,0.7,2.6,1.2
		s0.9,1.2,0.9,2c0,0.9-0.4,1.6-1.1,2.1s-1.6,0.8-2.8,0.8c-1.1,0-2-0.3-2.8-0.9c-0.8-0.6-1.2-1.4-1.2-2.3l0,0h1.4
		c0,0.7,0.3,1.2,0.8,1.6s1.1,0.5,1.9,0.5c0.7,0,1.3-0.2,1.7-0.5S615.3,289.2,615.3,288.7z"/>
	<path class="st5" d="M621.9,291.6c-1.1,0-2-0.4-2.6-1.1c-0.7-0.7-1-1.7-1-2.9v-0.3c0-1.1,0.3-2.1,1-2.8c0.7-0.7,1.5-1.1,2.4-1.1
		c1.1,0,1.9,0.3,2.4,1s0.8,1.5,0.8,2.6v0.9h-5.1l0,0c0,0.8,0.2,1.4,0.6,1.9s0.9,0.7,1.6,0.7c0.5,0,0.9-0.1,1.3-0.2
		c0.4-0.1,0.7-0.3,1-0.6l0.6,0.9c-0.3,0.3-0.7,0.5-1.1,0.7C623.1,291.5,622.6,291.6,621.9,291.6z M621.7,284.5
		c-0.5,0-0.9,0.2-1.2,0.6s-0.6,0.9-0.6,1.5l0,0h3.7v-0.2c0-0.6-0.2-1-0.5-1.4C622.7,284.7,622.3,284.5,621.7,284.5z"/>
	<path class="st5" d="M629.8,290.4c0.5,0,0.9-0.1,1.3-0.4c0.4-0.3,0.5-0.7,0.5-1.1h1.3l0,0c0,0.7-0.3,1.3-0.9,1.8
		c-0.6,0.5-1.4,0.8-2.2,0.8c-1.2,0-2-0.4-2.6-1.1c-0.6-0.8-0.9-1.7-0.9-2.8v-0.3c0-1.1,0.3-2.1,0.9-2.8c0.6-0.8,1.5-1.1,2.6-1.1
		c0.9,0,1.7,0.3,2.3,0.8c0.6,0.5,0.9,1.2,0.9,2l0,0h-1.3c0-0.5-0.2-0.9-0.5-1.2c-0.3-0.3-0.8-0.5-1.3-0.5c-0.8,0-1.3,0.3-1.6,0.8
		c-0.3,0.5-0.5,1.2-0.5,2v0.3c0,0.8,0.2,1.5,0.5,2S629,290.4,629.8,290.4z"/>
	<path class="st5" d="M639.5,290.2c-0.2,0.4-0.6,0.8-1,1s-0.8,0.3-1.4,0.3c-0.9,0-1.5-0.3-2-0.8s-0.7-1.4-0.7-2.6v-4.7h1.4v4.7
		c0,0.8,0.1,1.4,0.4,1.7s0.6,0.5,1.2,0.5c0.5,0,0.9-0.1,1.3-0.3c0.3-0.2,0.6-0.5,0.8-0.9v-5.7h1.4v7.9h-1.3L639.5,290.2z"/>
	<path class="st5" d="M646.8,284.7l-0.7,0c-0.4,0-0.7,0.1-1,0.3c-0.3,0.2-0.5,0.4-0.6,0.8v5.7H643v-7.9h1.3l0.1,1.2
		c0.2-0.4,0.5-0.7,0.8-1c0.3-0.2,0.7-0.3,1.1-0.3c0.1,0,0.2,0,0.3,0c0.1,0,0.2,0,0.2,0.1L646.8,284.7z"/>
	<path class="st5" d="M649.7,281.4h-1.4V280h1.4V281.4z M649.7,291.4h-1.4v-7.9h1.4V291.4z"/>
	<path class="st5" d="M653.9,281.6v1.9h1.5v1.1h-1.5v4.8c0,0.4,0.1,0.6,0.2,0.8c0.2,0.2,0.4,0.2,0.6,0.2c0.1,0,0.2,0,0.3,0
		c0.1,0,0.2,0,0.3-0.1l0.2,1c-0.1,0.1-0.3,0.2-0.5,0.2c-0.2,0.1-0.4,0.1-0.6,0.1c-0.6,0-1.1-0.2-1.4-0.5c-0.3-0.4-0.5-0.9-0.5-1.7
		v-4.8h-1.3v-1.1h1.3v-1.9H653.9z"/>
	<path class="st5" d="M659.6,288.5l0.3,1h0l1.9-6h1.6l-3.3,9.1c-0.2,0.5-0.5,1-0.9,1.4c-0.4,0.4-0.9,0.6-1.5,0.6c-0.1,0-0.3,0-0.4,0
		c-0.2,0-0.3-0.1-0.4-0.1l0.1-1.1c0,0,0.1,0,0.3,0c0.2,0,0.3,0,0.4,0c0.3,0,0.6-0.1,0.8-0.4s0.4-0.6,0.5-0.9l0.3-0.8l-2.9-7.8h1.6
		L659.6,288.5z"/>
	<path class="st5" d="M668.7,291.4v-10.7h3.3c1.4,0,2.5,0.4,3.4,1.3c0.8,0.9,1.3,2,1.3,3.3v1.5c0,1.4-0.4,2.5-1.3,3.3
		c-0.8,0.9-2,1.3-3.4,1.3H668.7z M670.1,281.9v8.4h1.8c1,0,1.8-0.3,2.3-1c0.6-0.6,0.9-1.5,0.9-2.5v-1.5c0-1-0.3-1.8-0.9-2.5
		c-0.6-0.6-1.3-1-2.3-1H670.1z"/>
</g>
<g class="st0">
	<path class="st5" d="M681.5,291.6c-1.1,0-2-0.4-2.6-1.1c-0.7-0.7-1-1.7-1-2.9v-0.3c0-1.1,0.3-2.1,1-2.8c0.7-0.7,1.5-1.1,2.4-1.1
		c1.1,0,1.9,0.3,2.4,1s0.8,1.5,0.8,2.6v0.9h-5.1l0,0c0,0.8,0.2,1.4,0.6,1.9s0.9,0.7,1.6,0.7c0.5,0,0.9-0.1,1.3-0.2
		c0.4-0.1,0.7-0.3,1-0.6l0.6,0.9c-0.3,0.3-0.7,0.5-1.1,0.7C682.8,291.5,682.2,291.6,681.5,291.6z M681.3,284.5
		c-0.5,0-0.9,0.2-1.2,0.6s-0.6,0.9-0.6,1.5l0,0h3.7v-0.2c0-0.6-0.2-1-0.5-1.4C682.4,284.7,681.9,284.5,681.3,284.5z"/>
</g>
<g class="st0">
	<path class="st5" d="M688.8,289.1l0.1,0.6h0l0.1-0.6l1.8-5.6h1.5l-2.9,7.9h-1.1l-3-7.9h1.5L688.8,289.1z"/>
	<path class="st5" d="M695.3,281.4h-1.4V280h1.4V281.4z M695.3,291.4h-1.4v-7.9h1.4V291.4z"/>
	<path class="st5" d="M700.7,290.4c0.5,0,0.9-0.1,1.3-0.4c0.4-0.3,0.5-0.7,0.5-1.1h1.3l0,0c0,0.7-0.3,1.3-0.9,1.8
		c-0.6,0.5-1.4,0.8-2.2,0.8c-1.2,0-2-0.4-2.6-1.1c-0.6-0.8-0.9-1.7-0.9-2.8v-0.3c0-1.1,0.3-2.1,0.9-2.8c0.6-0.8,1.5-1.1,2.6-1.1
		c0.9,0,1.7,0.3,2.3,0.8c0.6,0.5,0.9,1.2,0.9,2l0,0h-1.3c0-0.5-0.2-0.9-0.5-1.2c-0.3-0.3-0.8-0.5-1.3-0.5c-0.8,0-1.3,0.3-1.6,0.8
		c-0.3,0.5-0.5,1.2-0.5,2v0.3c0,0.8,0.2,1.5,0.5,2S699.9,290.4,700.7,290.4z"/>
	<path class="st5" d="M708.7,291.6c-1.1,0-2-0.4-2.6-1.1c-0.7-0.7-1-1.7-1-2.9v-0.3c0-1.1,0.3-2.1,1-2.8c0.7-0.7,1.5-1.1,2.4-1.1
		c1.1,0,1.9,0.3,2.4,1s0.8,1.5,0.8,2.6v0.9h-5.1l0,0c0,0.8,0.2,1.4,0.6,1.9s0.9,0.7,1.6,0.7c0.5,0,0.9-0.1,1.3-0.2
		c0.4-0.1,0.7-0.3,1-0.6l0.6,0.9c-0.3,0.3-0.7,0.5-1.1,0.7C709.9,291.5,709.4,291.6,708.7,291.6z M708.5,284.5
		c-0.5,0-0.9,0.2-1.2,0.6s-0.6,0.9-0.6,1.5l0,0h3.7v-0.2c0-0.6-0.2-1-0.5-1.4C709.5,284.7,709.1,284.5,708.5,284.5z"/>
</g>
<g class="st0">
	<path class="st5" d="M723.7,58.9h-1.5V48.2h1.5V58.9z"/>
	<path class="st5" d="M734,55.5L734,55.5c0,1-0.3,1.9-1,2.6c-0.7,0.7-1.7,1-2.9,1c-1.2,0-2.2-0.4-2.9-1.3c-0.8-0.9-1.1-1.9-1.1-3.3
		v-1.9c0-1.3,0.4-2.4,1.1-3.3c0.8-0.9,1.7-1.3,2.9-1.3s2.2,0.3,2.9,1c0.7,0.6,1.1,1.5,1,2.6l0,0h-1.4c0-0.7-0.2-1.3-0.7-1.8
		c-0.4-0.4-1.1-0.7-1.9-0.7c-0.8,0-1.4,0.3-1.9,1c-0.5,0.6-0.7,1.5-0.7,2.4v1.9c0,1,0.2,1.8,0.7,2.4c0.5,0.6,1.1,1,1.9,1
		c0.8,0,1.4-0.2,1.9-0.6c0.4-0.4,0.7-1,0.7-1.8H734z"/>
	<path class="st5" d="M741.7,56.2h-4.5l-1,2.7h-1.5l4.1-10.7h1.2l4.1,10.7h-1.5L741.7,56.2z M737.7,54.9h3.6l-1.8-4.9h0L737.7,54.9z
		"/>
	<path class="st5" d="M747.1,54.6v4.3h-1.4V48.2h4.1c1.1,0,2,0.3,2.7,0.9s0.9,1.4,0.9,2.3c0,1-0.3,1.7-0.9,2.3
		c-0.6,0.6-1.5,0.9-2.7,0.9H747.1z M747.1,53.5h2.6c0.7,0,1.3-0.2,1.6-0.6c0.4-0.4,0.5-0.9,0.5-1.5s-0.2-1.1-0.5-1.5
		c-0.4-0.4-0.9-0.6-1.6-0.6h-2.6V53.5z"/>
	<path class="st5" d="M759,58.9V48.2h3.3c1.4,0,2.5,0.4,3.4,1.3c0.8,0.9,1.3,2,1.3,3.3v1.5c0,1.4-0.4,2.5-1.3,3.3
		c-0.8,0.9-2,1.3-3.4,1.3H759z M760.5,49.4v8.4h1.8c1,0,1.8-0.3,2.3-1c0.6-0.6,0.9-1.5,0.9-2.5v-1.5c0-1-0.3-1.8-0.9-2.5
		c-0.6-0.6-1.3-1-2.3-1H760.5z"/>
</g>
<g class="st0">
	<path class="st5" d="M771.9,59.1c-1.1,0-2-0.4-2.6-1.1c-0.7-0.7-1-1.7-1-2.9v-0.3c0-1.1,0.3-2.1,1-2.8c0.7-0.7,1.5-1.1,2.4-1.1
		c1.1,0,1.9,0.3,2.4,1s0.8,1.5,0.8,2.6v0.9h-5.1l0,0c0,0.8,0.2,1.4,0.6,1.9s0.9,0.7,1.6,0.7c0.5,0,0.9-0.1,1.3-0.2
		c0.4-0.1,0.7-0.3,1-0.6l0.6,0.9c-0.3,0.3-0.7,0.5-1.1,0.7C773.2,59,772.6,59.1,771.9,59.1z M771.7,52c-0.5,0-0.9,0.2-1.2,0.6
		s-0.6,0.9-0.6,1.5l0,0h3.7v-0.2c0-0.6-0.2-1-0.5-1.4C772.8,52.2,772.3,52,771.7,52z"/>
</g>
<g class="st0">
	<path class="st5" d="M779.1,56.6l0.1,0.6h0l0.1-0.6l1.8-5.6h1.5l-2.9,7.9h-1.1l-3-7.9h1.5L779.1,56.6z"/>
	<path class="st5" d="M785.6,48.9h-1.4v-1.5h1.4V48.9z M785.6,58.9h-1.4V51h1.4V58.9z"/>
	<path class="st5" d="M791,57.9c0.5,0,0.9-0.1,1.3-0.4c0.4-0.3,0.5-0.7,0.5-1.1h1.3l0,0c0,0.7-0.3,1.3-0.9,1.8
		c-0.6,0.5-1.4,0.8-2.2,0.8c-1.2,0-2-0.4-2.6-1.1c-0.6-0.8-0.9-1.7-0.9-2.8v-0.3c0-1.1,0.3-2.1,0.9-2.8c0.6-0.8,1.5-1.1,2.6-1.1
		c0.9,0,1.7,0.3,2.3,0.8c0.6,0.5,0.9,1.2,0.9,2l0,0h-1.3c0-0.5-0.2-0.9-0.5-1.2c-0.3-0.3-0.8-0.5-1.3-0.5c-0.8,0-1.3,0.3-1.6,0.8
		c-0.3,0.5-0.5,1.2-0.5,2v0.3c0,0.8,0.2,1.5,0.5,2S790.2,57.9,791,57.9z"/>
	<path class="st5" d="M799,59.1c-1.1,0-2-0.4-2.6-1.1c-0.7-0.7-1-1.7-1-2.9v-0.3c0-1.1,0.3-2.1,1-2.8c0.7-0.7,1.5-1.1,2.4-1.1
		c1.1,0,1.9,0.3,2.4,1s0.8,1.5,0.8,2.6v0.9h-5.1l0,0c0,0.8,0.2,1.4,0.6,1.9s0.9,0.7,1.6,0.7c0.5,0,0.9-0.1,1.3-0.2
		c0.4-0.1,0.7-0.3,1-0.6l0.6,0.9c-0.3,0.3-0.7,0.5-1.1,0.7C800.2,59,799.7,59.1,799,59.1z M798.8,52c-0.5,0-0.9,0.2-1.2,0.6
		s-0.6,0.9-0.6,1.5l0,0h3.7v-0.2c0-0.6-0.2-1-0.5-1.4C799.8,52.2,799.4,52,798.8,52z"/>
</g>
<g class="st0">
	<path class="st5" d="M427.9,58.9h-1.4l-5.1-8.2l0,0v8.2h-1.4V48.2h1.4l5.1,8.2l0,0v-8.2h1.4V58.9z"/>
	<path class="st5" d="M429.9,54.9c0-1.2,0.3-2.1,1-2.9c0.6-0.8,1.5-1.1,2.6-1.1c1.1,0,2,0.4,2.6,1.1c0.6,0.8,1,1.7,1,2.9V55
		c0,1.2-0.3,2.1-1,2.9c-0.6,0.8-1.5,1.1-2.6,1.1s-2-0.4-2.6-1.1c-0.6-0.8-1-1.7-1-2.9V54.9z M431.4,55c0,0.8,0.2,1.5,0.5,2.1
		c0.4,0.5,0.9,0.8,1.6,0.8c0.7,0,1.2-0.3,1.6-0.8s0.5-1.2,0.5-2.1v-0.2c0-0.8-0.2-1.5-0.5-2.1c-0.4-0.6-0.9-0.8-1.6-0.8
		c-0.7,0-1.2,0.3-1.6,0.8c-0.4,0.6-0.5,1.2-0.5,2.1V55z"/>
	<path class="st5" d="M440.1,51l0.1,1.2c0.3-0.4,0.6-0.7,1-1c0.4-0.2,0.9-0.3,1.4-0.3c0.9,0,1.5,0.2,2,0.8c0.5,0.5,0.7,1.3,0.7,2.3
		v5h-1.4v-5c0-0.7-0.1-1.2-0.4-1.5s-0.7-0.4-1.3-0.4c-0.4,0-0.8,0.1-1.1,0.3c-0.3,0.2-0.6,0.5-0.8,0.8v5.8h-1.4V51H440.1z"/>
	<path class="st5" d="M450.1,55h-3.6v-1.1h3.6V55z"/>
	<path class="st5" d="M453.2,58.9h-1.5V48.2h1.5V58.9z"/>
	<path class="st5" d="M456.9,51l0.1,1.2c0.3-0.4,0.6-0.7,1-1c0.4-0.2,0.9-0.3,1.4-0.3c0.9,0,1.5,0.2,2,0.8c0.5,0.5,0.7,1.3,0.7,2.3
		v5h-1.4v-5c0-0.7-0.1-1.2-0.4-1.5S459.5,52,459,52c-0.4,0-0.8,0.1-1.1,0.3c-0.3,0.2-0.6,0.5-0.8,0.8v5.8h-1.4V51H456.9z"/>
	<path class="st5" d="M465.7,58.9h-1.4V47.5h1.4V58.9z"/>
	<path class="st5" d="M469.5,48.9h-1.4v-1.5h1.4V48.9z M469.5,58.9h-1.4V51h1.4V58.9z"/>
	<path class="st5" d="M473,51l0.1,1.2c0.3-0.4,0.6-0.7,1-1c0.4-0.2,0.9-0.3,1.4-0.3c0.9,0,1.5,0.2,2,0.8c0.5,0.5,0.7,1.3,0.7,2.3v5
		h-1.4v-5c0-0.7-0.1-1.2-0.4-1.5S475.6,52,475,52c-0.4,0-0.8,0.1-1.1,0.3c-0.3,0.2-0.6,0.5-0.8,0.8v5.8h-1.4V51H473z"/>
	<path class="st5" d="M483.5,59.1c-1.1,0-2-0.4-2.6-1.1c-0.7-0.7-1-1.7-1-2.9v-0.3c0-1.1,0.3-2.1,1-2.8c0.7-0.7,1.5-1.1,2.4-1.1
		c1.1,0,1.9,0.3,2.4,1s0.8,1.5,0.8,2.6v0.9h-5.1l0,0c0,0.8,0.2,1.4,0.6,1.9s0.9,0.7,1.6,0.7c0.5,0,0.9-0.1,1.3-0.2
		c0.4-0.1,0.7-0.3,1-0.6l0.6,0.9c-0.3,0.3-0.7,0.5-1.1,0.7C484.8,59,484.2,59.1,483.5,59.1z M483.3,52c-0.5,0-0.9,0.2-1.2,0.6
		s-0.6,0.9-0.6,1.5l0,0h3.7v-0.2c0-0.6-0.2-1-0.5-1.4C484.4,52.2,483.9,52,483.3,52z"/>
	<path class="st5" d="M498,56.2c0-0.5-0.2-0.9-0.5-1.2c-0.4-0.3-1-0.6-1.9-0.8c-1.1-0.3-2-0.7-2.6-1.2s-0.9-1.2-0.9-2
		c0-0.8,0.3-1.5,1-2.1c0.7-0.6,1.6-0.8,2.6-0.8c1.2,0,2.1,0.3,2.8,1s1,1.4,1,2.2l0,0H498c0-0.6-0.2-1.1-0.6-1.5s-1-0.6-1.8-0.6
		c-0.7,0-1.3,0.2-1.7,0.5c-0.4,0.3-0.6,0.7-0.6,1.3c0,0.5,0.2,0.9,0.6,1.2c0.4,0.3,1.1,0.6,2,0.8c1.1,0.3,2,0.7,2.6,1.2
		s0.9,1.2,0.9,2c0,0.9-0.4,1.6-1.1,2.1s-1.6,0.8-2.8,0.8c-1.1,0-2-0.3-2.8-0.9c-0.8-0.6-1.2-1.4-1.2-2.3l0,0h1.4
		c0,0.7,0.3,1.2,0.8,1.6s1.1,0.5,1.9,0.5c0.7,0,1.3-0.2,1.7-0.5S498,56.7,498,56.2z"/>
	<path class="st5" d="M504.6,59.1c-1.1,0-2-0.4-2.6-1.1c-0.7-0.7-1-1.7-1-2.9v-0.3c0-1.1,0.3-2.1,1-2.8c0.7-0.7,1.5-1.1,2.4-1.1
		c1.1,0,1.9,0.3,2.4,1s0.8,1.5,0.8,2.6v0.9h-5.1l0,0c0,0.8,0.2,1.4,0.6,1.9s0.9,0.7,1.6,0.7c0.5,0,0.9-0.1,1.3-0.2
		c0.4-0.1,0.7-0.3,1-0.6l0.6,0.9c-0.3,0.3-0.7,0.5-1.1,0.7C505.8,59,505.2,59.1,504.6,59.1z M504.3,52c-0.5,0-0.9,0.2-1.2,0.6
		s-0.6,0.9-0.6,1.5l0,0h3.7v-0.2c0-0.6-0.2-1-0.5-1.4C505.4,52.2,504.9,52,504.3,52z"/>
	<path class="st5" d="M512.4,57.9c0.5,0,0.9-0.1,1.3-0.4c0.4-0.3,0.5-0.7,0.5-1.1h1.3l0,0c0,0.7-0.3,1.3-0.9,1.8
		c-0.6,0.5-1.4,0.8-2.2,0.8c-1.2,0-2-0.4-2.6-1.1c-0.6-0.8-0.9-1.7-0.9-2.8v-0.3c0-1.1,0.3-2.1,0.9-2.8c0.6-0.8,1.5-1.1,2.6-1.1
		c0.9,0,1.7,0.3,2.3,0.8s0.9,1.2,0.9,2l0,0h-1.3c0-0.5-0.2-0.9-0.5-1.2c-0.3-0.3-0.8-0.5-1.3-0.5c-0.8,0-1.3,0.3-1.6,0.8
		s-0.5,1.2-0.5,2v0.3c0,0.8,0.2,1.5,0.5,2S511.7,57.9,512.4,57.9z"/>
	<path class="st5" d="M522.2,57.7c-0.2,0.4-0.6,0.8-1,1s-0.8,0.3-1.4,0.3c-0.9,0-1.5-0.3-2-0.8s-0.7-1.4-0.7-2.6V51h1.4v4.7
		c0,0.8,0.1,1.4,0.4,1.7s0.6,0.5,1.2,0.5c0.5,0,0.9-0.1,1.3-0.3c0.3-0.2,0.6-0.5,0.8-0.9V51h1.4v7.9h-1.3L522.2,57.7z"/>
	<path class="st5" d="M529.4,52.2l-0.7,0c-0.4,0-0.7,0.1-1,0.3c-0.3,0.2-0.5,0.4-0.6,0.8v5.7h-1.4V51h1.3l0.1,1.2
		c0.2-0.4,0.5-0.7,0.8-1c0.3-0.2,0.7-0.3,1.1-0.3c0.1,0,0.2,0,0.3,0c0.1,0,0.2,0,0.2,0.1L529.4,52.2z"/>
	<path class="st5" d="M532.4,48.9h-1.4v-1.5h1.4V48.9z M532.4,58.9h-1.4V51h1.4V58.9z"/>
	<path class="st5" d="M536.5,49.1V51h1.5V52h-1.5v4.8c0,0.4,0.1,0.6,0.2,0.8c0.2,0.2,0.4,0.2,0.6,0.2c0.1,0,0.2,0,0.3,0
		c0.1,0,0.2,0,0.3-0.1l0.2,1c-0.1,0.1-0.3,0.2-0.5,0.2c-0.2,0.1-0.4,0.1-0.6,0.1c-0.6,0-1.1-0.2-1.4-0.5c-0.3-0.4-0.5-0.9-0.5-1.7
		V52h-1.3V51h1.3v-1.9H536.5z"/>
	<path class="st5" d="M542.2,56l0.3,1h0l1.9-6h1.6l-3.3,9.1c-0.2,0.5-0.5,1-0.9,1.4c-0.4,0.4-0.9,0.6-1.5,0.6c-0.1,0-0.3,0-0.4,0
		c-0.2,0-0.3-0.1-0.4-0.1l0.1-1.1c0,0,0.1,0,0.3,0c0.2,0,0.3,0,0.4,0c0.3,0,0.6-0.1,0.8-0.4s0.4-0.6,0.5-0.9l0.3-0.8l-2.9-7.8h1.6
		L542.2,56z"/>
	<path class="st5" d="M551.3,58.9V48.2h3.3c1.4,0,2.5,0.4,3.4,1.3c0.8,0.9,1.3,2,1.3,3.3v1.5c0,1.4-0.4,2.5-1.3,3.3
		c-0.8,0.9-2,1.3-3.4,1.3H551.3z M552.8,49.4v8.4h1.8c1,0,1.8-0.3,2.3-1c0.6-0.6,0.9-1.5,0.9-2.5v-1.5c0-1-0.3-1.8-0.9-2.5
		c-0.6-0.6-1.3-1-2.3-1H552.8z"/>
</g>
<g class="st0">
	<path class="st5" d="M564.2,59.1c-1.1,0-2-0.4-2.6-1.1c-0.7-0.7-1-1.7-1-2.9v-0.3c0-1.1,0.3-2.1,1-2.8c0.7-0.7,1.5-1.1,2.4-1.1
		c1.1,0,1.9,0.3,2.4,1s0.8,1.5,0.8,2.6v0.9h-5.1l0,0c0,0.8,0.2,1.4,0.6,1.9s0.9,0.7,1.6,0.7c0.5,0,0.9-0.1,1.3-0.2
		c0.4-0.1,0.7-0.3,1-0.6l0.6,0.9c-0.3,0.3-0.7,0.5-1.1,0.7C565.5,59,564.9,59.1,564.2,59.1z M564,52c-0.5,0-0.9,0.2-1.2,0.6
		s-0.6,0.9-0.6,1.5l0,0h3.7v-0.2c0-0.6-0.2-1-0.5-1.4C565.1,52.2,564.6,52,564,52z"/>
</g>
<g class="st0">
	<path class="st5" d="M571.4,56.6l0.1,0.6h0l0.1-0.6l1.8-5.6h1.5l-2.9,7.9H571l-3-7.9h1.5L571.4,56.6z"/>
	<path class="st5" d="M577.9,48.9h-1.4v-1.5h1.4V48.9z M577.9,58.9h-1.4V51h1.4V58.9z"/>
	<path class="st5" d="M583.3,57.9c0.5,0,0.9-0.1,1.3-0.4c0.4-0.3,0.5-0.7,0.5-1.1h1.3l0,0c0,0.7-0.3,1.3-0.9,1.8
		c-0.6,0.5-1.4,0.8-2.2,0.8c-1.2,0-2-0.4-2.6-1.1c-0.6-0.8-0.9-1.7-0.9-2.8v-0.3c0-1.1,0.3-2.1,0.9-2.8c0.6-0.8,1.5-1.1,2.6-1.1
		c0.9,0,1.7,0.3,2.3,0.8s0.9,1.2,0.9,2l0,0h-1.3c0-0.5-0.2-0.9-0.5-1.2c-0.3-0.3-0.8-0.5-1.3-0.5c-0.8,0-1.3,0.3-1.6,0.8
		s-0.5,1.2-0.5,2v0.3c0,0.8,0.2,1.5,0.5,2S582.5,57.9,583.3,57.9z"/>
	<path class="st5" d="M591.3,59.1c-1.1,0-2-0.4-2.6-1.1c-0.7-0.7-1-1.7-1-2.9v-0.3c0-1.1,0.3-2.1,1-2.8c0.7-0.7,1.5-1.1,2.4-1.1
		c1.1,0,1.9,0.3,2.4,1s0.8,1.5,0.8,2.6v0.9h-5.1l0,0c0,0.8,0.2,1.4,0.6,1.9s0.9,0.7,1.6,0.7c0.5,0,0.9-0.1,1.3-0.2
		c0.4-0.1,0.7-0.3,1-0.6l0.6,0.9c-0.3,0.3-0.7,0.5-1.1,0.7C592.5,59,592,59.1,591.3,59.1z M591.1,52c-0.5,0-0.9,0.2-1.2,0.6
		s-0.6,0.9-0.6,1.5l0,0h3.7v-0.2c0-0.6-0.2-1-0.5-1.4C592.1,52.2,591.7,52,591.1,52z"/>
</g>
<path class="st8" d="M653.7,192.7h-36.2c-2,0-3.6-1.6-3.6-3.6v-28.2c0-2,1.6-3.6,3.6-3.6h36.3c2,0,3.6,1.6,3.6,3.6v4.8
	c0,0.6-0.4,1-1,1s-1-0.4-1-1v-4.8c0-0.9-0.7-1.6-1.6-1.6h-36.3c-0.9,0-1.6,0.7-1.6,1.6v28.2c0,0.9,0.7,1.6,1.6,1.6h36.2
	c0.9,0,1.6-0.7,1.6-1.6v-4.8c0-0.6,0.4-1,1-1s1,0.4,1,1v4.8C657.3,191.1,655.7,192.7,653.7,192.7z"/>
<path class="st8" d="M622.5,158.9c-0.6,0-1-0.4-1-1V153c0-7.6,6.2-13.8,13.8-13.8h0.3c0,0,0,0,0,0c3.5,0,6.9,1.3,9.5,3.8
	c0.4,0.4,0.4,1,0,1.4c-0.4,0.4-1,0.4-1.4,0c-2.2-2.1-5.1-3.2-8.1-3.2c0,0,0,0,0,0h-0.3c-6.5,0-11.8,5.3-11.8,11.8v4.9
	C623.5,158.5,623.1,158.9,622.5,158.9z"/>
<path class="st8" d="M651.5,186.5c-3.1,0-6-1.2-8.1-3.4c-4.5-4.5-4.5-11.8,0-16.3l0,0c2.2-2.2,5.1-3.4,8.1-3.4c3.1,0,6,1.2,8.1,3.4
	c4.5,4.5,4.5,11.8,0,16.3C657.5,185.3,654.6,186.5,651.5,186.5z M651.5,165.5c-2.5,0-4.9,1-6.7,2.8l0,0c-3.7,3.7-3.7,9.7,0,13.4
	c1.8,1.8,4.2,2.8,6.7,2.8c2.5,0,4.9-1,6.7-2.8c3.7-3.7,3.7-9.7,0-13.4C656.4,166.5,654.1,165.5,651.5,165.5z"/>
<path class="st8" d="M665,189.5c-0.3,0-0.5-0.1-0.7-0.3l-6.1-6.1c-0.4-0.4-0.4-1,0-1.4s1-0.4,1.4,0l6.1,6.1c0.4,0.4,0.4,1,0,1.4
	C665.5,189.4,665.3,189.5,665,189.5z"/>
<path class="st8" d="M650.5,178.9c-0.2,0-0.5-0.1-0.7-0.3l-3-2.9c-0.4-0.4-0.4-1,0-1.4c0.4-0.4,1-0.4,1.4,0l3,2.9
	c0.4,0.4,0.4,1,0,1.4C651,178.8,650.8,178.9,650.5,178.9z"/>
<path class="st8" d="M650.5,178.9c-0.3,0-0.5-0.1-0.7-0.3c-0.4-0.4-0.4-1,0-1.4l5.8-5.9c0.4-0.4,1-0.4,1.4,0c0.4,0.4,0.4,1,0,1.4
	l-5.8,5.9C651,178.8,650.8,178.9,650.5,178.9z"/>
<path class="st6" d="M521.3,453.1c-5.1,0-9.2-4.1-9.2-9.2v-54.6c0-5.1,4.1-9.2,9.2-9.2h236.8c5.1,0.1,9.1,4.1,9.2,9.2v54.6
	c-0.1,5.1-4.1,9.1-9.2,9.2H521.3z M758.1,382.1H521.3c-4,0-7.2,3.2-7.2,7.2v54.6c0,4,3.2,7.2,7.2,7.2h236.8c4,0,7.2-3.2,7.2-7.2
	v-54.6C765.2,385.3,762.1,382.1,758.1,382.1z"/>
<path class="st6" d="M513.1,440.8H506c-3.7,0-6.8-2.6-6.8-5.8v-37.3c0-3.2,3.1-5.8,6.8-5.8h7.2v2H506c-2.6,0-4.8,1.7-4.8,3.8V435
	c0,2.1,2.2,3.8,4.8,3.8h7.1V440.8z"/>
<path class="st6" d="M774,440.8h-7.2v-2h7.2c2.6,0,4.8-1.7,4.8-3.8v-37.3c0-2.1-2.2-3.8-4.8-3.8h-7.2v-2h7.2c3.7,0,6.8,2.6,6.8,5.8
	V435C780.8,438.2,777.7,440.8,774,440.8z"/>
<rect x="569.5" y="429.1" class="st6" width="31.8" height="2"/>
<rect x="614.2" y="429.1" class="st6" width="31.8" height="2"/>
<rect x="658.9" y="429.1" class="st6" width="31.8" height="2"/>
<rect x="703.7" y="429.1" class="st6" width="31.8" height="2"/>
<path class="st6" d="M540.1,406.2c-1.4,0-2.5-1.1-2.5-2.5s1.1-2.5,2.5-2.5s2.5,1.1,2.5,2.5S541.5,406.2,540.1,406.2z M540.1,403.2
	c-0.3,0-0.5,0.2-0.5,0.5s0.2,0.5,0.5,0.5s0.5-0.2,0.5-0.5S540.4,403.2,540.1,403.2z"/>
<path class="st6" d="M540.1,419.1c-1.4,0-2.5-1.1-2.5-2.5s1.1-2.5,2.5-2.5s2.5,1.1,2.5,2.5S541.5,419.1,540.1,419.1z M540.1,416.1
	c-0.3,0-0.5,0.2-0.5,0.5s0.2,0.5,0.5,0.5s0.5-0.2,0.5-0.5S540.4,416.1,540.1,416.1z"/>
<path class="st6" d="M540.1,432c-1.4,0-2.5-1.1-2.5-2.5s1.1-2.5,2.5-2.5s2.5,1.1,2.5,2.5S541.5,432,540.1,432z M540.1,429
	c-0.3,0-0.5,0.2-0.5,0.5s0.2,0.5,0.5,0.5s0.5-0.2,0.5-0.5S540.4,429,540.1,429z"/>
<path class="st6" d="M602,419.2h-33.3v-17.9H602V419.2z M570.7,417.2H600v-13.9h-29.3V417.2z"/>
<path class="st6" d="M646.7,419.2h-33.3v-17.9h33.3V419.2z M615.4,417.2h29.3v-13.9h-29.3V417.2z"/>
<path class="st6" d="M691.5,419.2h-33.3v-17.9h33.3V419.2z M660.2,417.2h29.3v-13.9h-29.3V417.2z"/>
<path class="st6" d="M736.2,419.2h-33.3v-17.9h33.3V419.2z M704.9,417.2h29.3v-13.9h-29.3V417.2z"/>
<rect x="508.4" y="136.8" class="st6" width="2" height="237.8"/>
<polygon class="st6" points="501.2,143.4 502.7,144.8 509.4,137.5 516.1,144.8 517.6,143.4 509.4,134.6 "/>
<polygon class="st6" points="523.9,374.6 521.9,374.6 521.9,247.6 536.7,247.5 536.7,249.5 523.9,249.6 "/>
<polygon class="st6" points="530,240.4 528.7,241.8 536,248.5 528.8,255.3 530.2,256.7 538.9,248.5 "/>
<polygon class="st10" points="751.1,372.4 749.1,372.4 749.1,249.6 739.4,249.7 739.4,247.7 751.1,247.6 "/>
<polygon class="st10" points="741.9,365.8 743.3,364.4 750.1,371.7 756.8,364.4 758.2,365.8 750.1,374.6 "/>
<rect x="765.9" y="136.8" class="st6" width="2" height="235.6"/>
<polygon class="st6" points="758.7,143.4 760.2,144.8 766.9,137.5 773.6,144.8 775.1,143.4 766.9,134.6 "/>
<polygon class="st6" points="758.7,365.8 760.2,364.4 766.9,371.7 773.6,364.4 775.1,365.8 766.9,374.6 "/>
</svg>
