<?xml version="1.0" encoding="utf-8"?>
<!-- Generator: Adobe Illustrator 21.1.0, SVG Export Plug-In . SVG Version: 6.00 Build 0)  -->
<svg version="1.1" id="Layer_1" xmlns="http://www.w3.org/2000/svg" xmlns:xlink="http://www.w3.org/1999/xlink" x="0px" y="0px"
	 viewBox="0 0 1250 418" style="enable-background:new 0 0 1250 418;" xml:space="preserve">
<style type="text/css">
	.st0{fill:#787979;}
	.st1{enable-background:new    ;}
	.st2{fill:#17242D;}
	.st3{fill:#959595;}
	.st4{fill:#939596;}
	.st5{fill:#0075C9;}
</style>
<title>Desktop</title>
<path class="st0" d="M291.7,138.6h-153c-0.6,0-1-0.4-1-1s0.4-1,1-1h153c0.6,0,1,0.4,1,1S292.3,138.6,291.7,138.6z"/>
<path class="st0" d="M1034.7,138.6h-109c-0.6,0-1-0.4-1-1s0.4-1,1-1h109c0.6,0,1,0.4,1,1S1035.3,138.6,1034.7,138.6z"/>
<path class="st0" d="M820,138.6H398.7c-0.6,0-1-0.4-1-1s0.4-1,1-1H820c0.6,0,1,0.4,1,1S820.6,138.6,820,138.6z"/>
<g class="st1">
	<path class="st2" d="M305.9,199h-4.9v3.8h5.6v1.1h-7.1v-10.7h7v1.1h-5.6v3.5h4.9V199z"/>
	<path class="st2" d="M308.4,203.9v-10.7h3.3c1.4,0,2.5,0.4,3.4,1.3c0.8,0.9,1.3,2,1.3,3.3v1.5c0,1.4-0.4,2.5-1.3,3.3
		c-0.8,0.9-2,1.3-3.4,1.3H308.4z M309.8,194.4v8.4h1.8c1,0,1.8-0.3,2.3-1c0.6-0.6,0.9-1.5,0.9-2.5v-1.5c0-1-0.3-1.8-0.9-2.5
		c-0.6-0.6-1.3-1-2.3-1H309.8z"/>
	<path class="st2" d="M326,202.5c-0.3,0.4-0.7,0.8-1.3,1.1c-0.6,0.3-1.4,0.5-2.4,0.5c-1.3,0-2.3-0.4-3.2-1.2
		c-0.8-0.8-1.2-1.9-1.2-3.2v-2.2c0-1.3,0.4-2.3,1.2-3.2s1.8-1.2,3-1.2c1.2,0,2.2,0.3,2.9,0.9s1.1,1.4,1.1,2.3l0,0h-1.4
		c0-0.6-0.3-1.1-0.7-1.5s-1-0.6-1.8-0.6c-0.8,0-1.5,0.3-2,0.9c-0.5,0.6-0.7,1.4-0.7,2.3v2.2c0,0.9,0.3,1.7,0.8,2.3s1.3,0.9,2.1,0.9
		c0.6,0,1.1-0.1,1.5-0.2c0.4-0.2,0.7-0.3,0.8-0.5v-2.4h-2.3v-1.1h3.8V202.5z"/>
	<path class="st2" d="M334.8,199h-4.9v3.8h5.6v1.1h-7.1v-10.7h7v1.1h-5.6v3.5h4.9V199z"/>
	<path class="st2" d="M342.4,199.3v4.6H341v-10.7h3.9c1.2,0,2.1,0.3,2.7,0.8c0.6,0.5,0.9,1.3,0.9,2.3c0,0.5-0.1,1-0.4,1.4
		c-0.3,0.4-0.7,0.7-1.2,1c0.6,0.2,1,0.5,1.3,0.9c0.3,0.4,0.4,1,0.4,1.6v1c0,0.3,0,0.6,0.1,0.9s0.2,0.5,0.4,0.6v0.2h-1.5
		c-0.2-0.2-0.3-0.4-0.4-0.7s-0.1-0.7-0.1-1v-1c0-0.6-0.2-1-0.5-1.4s-0.8-0.5-1.4-0.5H342.4z M342.4,198.1h2.3c0.8,0,1.4-0.2,1.8-0.5
		c0.4-0.3,0.5-0.8,0.5-1.4c0-0.6-0.2-1.1-0.5-1.4c-0.3-0.3-0.9-0.5-1.6-0.5h-2.4V198.1z"/>
	<path class="st2" d="M359,199.5c0,1.3-0.4,2.4-1.2,3.2c-0.8,0.9-1.9,1.3-3.1,1.3c-1.2,0-2.3-0.4-3-1.3c-0.8-0.9-1.2-1.9-1.2-3.2
		v-1.9c0-1.3,0.4-2.4,1.2-3.2c0.8-0.9,1.8-1.3,3-1.3c1.3,0,2.3,0.4,3.1,1.3c0.8,0.9,1.2,1.9,1.2,3.2V199.5z M357.6,197.6
		c0-1-0.3-1.8-0.8-2.4s-1.2-0.9-2.1-0.9c-0.8,0-1.5,0.3-2,0.9c-0.5,0.6-0.8,1.4-0.8,2.4v1.9c0,1,0.2,1.8,0.8,2.4
		c0.5,0.6,1.2,0.9,2,0.9c0.9,0,1.6-0.3,2.1-0.9c0.5-0.6,0.8-1.4,0.8-2.4V197.6z"/>
	<path class="st2" d="M368.9,193.2v7.2c0,1.2-0.4,2.1-1.1,2.7c-0.8,0.6-1.7,0.9-3,0.9c-1.2,0-2.1-0.3-2.9-0.9
		c-0.7-0.6-1.1-1.5-1.1-2.7v-7.2h1.4v7.2c0,0.8,0.2,1.4,0.7,1.8s1.1,0.6,1.8,0.6c0.8,0,1.4-0.2,1.9-0.6s0.7-1,0.7-1.8v-7.2H368.9z"
		/>
	<path class="st2" d="M378.5,194.4h-3.4v9.5h-1.4v-9.5h-3.4v-1.1h8.3V194.4z"/>
	<path class="st2" d="M386.4,199h-4.9v3.8h5.6v1.1h-7.1v-10.7h7v1.1h-5.6v3.5h4.9V199z"/>
	<path class="st2" d="M390.3,199.3v4.6h-1.4v-10.7h3.9c1.2,0,2.1,0.3,2.7,0.8c0.6,0.5,0.9,1.3,0.9,2.3c0,0.5-0.1,1-0.4,1.4
		c-0.3,0.4-0.7,0.7-1.2,1c0.6,0.2,1,0.5,1.3,0.9c0.3,0.4,0.4,1,0.4,1.6v1c0,0.3,0,0.6,0.1,0.9s0.2,0.5,0.4,0.6v0.2h-1.5
		c-0.2-0.2-0.3-0.4-0.4-0.7s-0.1-0.7-0.1-1v-1c0-0.6-0.2-1-0.5-1.4s-0.8-0.5-1.4-0.5H390.3z M390.3,198.1h2.3c0.8,0,1.4-0.2,1.8-0.5
		c0.4-0.3,0.5-0.8,0.5-1.4c0-0.6-0.2-1.1-0.5-1.4c-0.3-0.3-0.9-0.5-1.6-0.5h-2.4V198.1z"/>
</g>
<g class="st1">
	<path class="st2" d="M554.7,221.9v-10.7h3.3c1.4,0,2.5,0.4,3.4,1.3c0.8,0.9,1.3,2,1.3,3.3v1.5c0,1.4-0.4,2.5-1.3,3.3
		c-0.8,0.9-2,1.3-3.4,1.3H554.7z M556.2,212.4v8.4h1.8c1,0,1.8-0.3,2.3-1c0.6-0.6,0.9-1.5,0.9-2.5v-1.5c0-1-0.3-1.8-0.9-2.5
		c-0.6-0.6-1.3-1-2.3-1H556.2z"/>
	<path class="st2" d="M572.4,211.2v7.2c0,1.2-0.4,2.1-1.1,2.7c-0.8,0.6-1.7,0.9-3,0.9c-1.2,0-2.1-0.3-2.9-0.9
		c-0.7-0.6-1.1-1.5-1.1-2.7v-7.2h1.4v7.2c0,0.8,0.2,1.4,0.7,1.8s1.1,0.6,1.8,0.6c0.8,0,1.4-0.2,1.9-0.6s0.7-1,0.7-1.8v-7.2H572.4z"
		/>
	<path class="st2" d="M576.2,217.6v4.3h-1.4v-10.7h4.1c1.1,0,2,0.3,2.7,0.9s0.9,1.4,0.9,2.3c0,1-0.3,1.7-0.9,2.3
		c-0.6,0.6-1.5,0.9-2.7,0.9H576.2z M576.2,216.5h2.6c0.7,0,1.3-0.2,1.6-0.6c0.4-0.4,0.5-0.9,0.5-1.5s-0.2-1.1-0.5-1.5
		c-0.4-0.4-0.9-0.6-1.6-0.6h-2.6V216.5z"/>
	<path class="st2" d="M585.8,220.8h5v1.1h-6.5v-10.7h1.4V220.8z"/>
	<path class="st2" d="M594,221.9h-1.5v-10.7h1.5V221.9z"/>
	<path class="st2" d="M604.2,218.5L604.2,218.5c0,1-0.3,1.9-1,2.6c-0.7,0.7-1.7,1-2.9,1c-1.2,0-2.2-0.4-2.9-1.3s-1.1-1.9-1.1-3.3
		v-1.9c0-1.3,0.4-2.4,1.1-3.3c0.8-0.9,1.7-1.3,2.9-1.3s2.2,0.3,2.9,1c0.7,0.6,1.1,1.5,1,2.6l0,0h-1.4c0-0.7-0.2-1.3-0.7-1.8
		c-0.4-0.4-1.1-0.7-1.9-0.7c-0.8,0-1.4,0.3-1.9,1c-0.5,0.6-0.7,1.5-0.7,2.4v1.9c0,1,0.2,1.8,0.7,2.4c0.5,0.6,1.1,1,1.9,1
		c0.8,0,1.4-0.2,1.9-0.6c0.4-0.4,0.7-1,0.7-1.8H604.2z"/>
	<path class="st2" d="M612,219.2h-4.5l-1,2.7H605l4.1-10.7h1.2l4.1,10.7H613L612,219.2z M608,217.9h3.6l-1.8-4.9h0L608,217.9z"/>
	<path class="st2" d="M623.1,212.4h-3.4v9.5h-1.4v-9.5h-3.4v-1.1h8.3V212.4z"/>
	<path class="st2" d="M631,217h-4.9v3.8h5.6v1.1h-7.1v-10.7h7v1.1h-5.6v3.5h4.9V217z"/>
	<path class="st2" d="M633.5,221.9v-10.7h3.3c1.4,0,2.5,0.4,3.4,1.3c0.8,0.9,1.3,2,1.3,3.3v1.5c0,1.4-0.4,2.5-1.3,3.3
		c-0.8,0.9-2,1.3-3.4,1.3H633.5z M634.9,212.4v8.4h1.8c1,0,1.8-0.3,2.3-1c0.6-0.6,0.9-1.5,0.9-2.5v-1.5c0-1-0.3-1.8-0.9-2.5
		c-0.6-0.6-1.3-1-2.3-1H634.9z"/>
</g>
<g class="st1">
	<path class="st2" d="M576.9,230.4h-3.4v9.5H572v-9.5h-3.4v-1.1h8.3V230.4z"/>
	<path class="st2" d="M579.9,235.3v4.6h-1.4v-10.7h3.9c1.2,0,2.1,0.3,2.7,0.8c0.6,0.5,0.9,1.3,0.9,2.3c0,0.5-0.1,1-0.4,1.4
		c-0.3,0.4-0.7,0.7-1.2,1c0.6,0.2,1,0.5,1.3,0.9c0.3,0.4,0.4,1,0.4,1.6v1c0,0.3,0,0.6,0.1,0.9s0.2,0.5,0.4,0.6v0.2h-1.5
		c-0.2-0.2-0.3-0.4-0.4-0.7s-0.1-0.7-0.1-1v-1c0-0.6-0.2-1-0.5-1.4s-0.8-0.5-1.4-0.5H579.9z M579.9,234.1h2.3c0.8,0,1.4-0.2,1.8-0.5
		c0.4-0.3,0.5-0.8,0.5-1.4c0-0.6-0.2-1.1-0.5-1.4c-0.3-0.3-0.9-0.5-1.6-0.5h-2.4V234.1z"/>
	<path class="st2" d="M594.1,237.2h-4.5l-1,2.7h-1.5l4.1-10.7h1.2l4.1,10.7h-1.5L594.1,237.2z M590.1,235.9h3.6l-1.8-4.9h0
		L590.1,235.9z"/>
	<path class="st2" d="M604.4,235.2h-4.9v4.7h-1.4v-10.7h7.1v1.1h-5.6v3.7h4.9V235.2z"/>
	<path class="st2" d="M613.1,235.2h-4.9v4.7h-1.4v-10.7h7.1v1.1h-5.6v3.7h4.9V235.2z"/>
	<path class="st2" d="M617.1,239.9h-1.5v-10.7h1.5V239.9z"/>
	<path class="st2" d="M627.3,236.5L627.3,236.5c0,1-0.3,1.9-1,2.6c-0.7,0.7-1.7,1-2.9,1c-1.2,0-2.2-0.4-2.9-1.3s-1.1-1.9-1.1-3.3
		v-1.9c0-1.3,0.4-2.4,1.1-3.3c0.8-0.9,1.7-1.3,2.9-1.3s2.2,0.3,2.9,1c0.7,0.6,1.1,1.5,1,2.6l0,0h-1.4c0-0.7-0.2-1.3-0.7-1.8
		c-0.4-0.4-1.1-0.7-1.9-0.7c-0.8,0-1.4,0.3-1.9,1c-0.5,0.6-0.7,1.5-0.7,2.4v1.9c0,1,0.2,1.8,0.7,2.4c0.5,0.6,1.1,1,1.9,1
		c0.8,0,1.4-0.2,1.9-0.6c0.4-0.4,0.7-1,0.7-1.8H627.3z"/>
</g>
<g class="st1">
	<path class="st2" d="M581.7,29.6h-4.5l-1,2.7h-1.5l4.1-10.7h1.2l4.1,10.7h-1.5L581.7,29.6z M577.7,28.3h3.6l-1.8-4.9h0L577.7,28.3z
		"/>
	<path class="st2" d="M587.1,31.2h5v1.1h-6.5V21.6h1.4V31.2z"/>
	<path class="st2" d="M595.2,31.2h5v1.1h-6.5V21.6h1.4V31.2z"/>
	<path class="st2" d="M612.8,22.8h-3.4v9.5h-1.4v-9.5h-3.4v-1.1h8.3V22.8z"/>
	<path class="st2" d="M615.8,27.7v4.6h-1.4V21.6h3.9c1.2,0,2.1,0.3,2.7,0.8c0.6,0.5,0.9,1.3,0.9,2.3c0,0.5-0.1,1-0.4,1.4
		c-0.3,0.4-0.7,0.7-1.2,1c0.6,0.2,1,0.5,1.3,0.9c0.3,0.4,0.4,1,0.4,1.6v1c0,0.3,0,0.6,0.1,0.9s0.2,0.5,0.4,0.6v0.2h-1.5
		c-0.2-0.2-0.3-0.4-0.4-0.7s-0.1-0.7-0.1-1v-1c0-0.6-0.2-1-0.5-1.4s-0.8-0.5-1.4-0.5H615.8z M615.8,26.5h2.3c0.8,0,1.4-0.2,1.8-0.5
		c0.4-0.3,0.5-0.8,0.5-1.4c0-0.6-0.2-1.1-0.5-1.4c-0.3-0.3-0.9-0.5-1.6-0.5h-2.4V26.5z"/>
	<path class="st2" d="M630.1,29.6h-4.5l-1,2.7h-1.5l4.1-10.7h1.2l4.1,10.7h-1.5L630.1,29.6z M626,28.3h3.6l-1.8-4.9h0L626,28.3z"/>
	<path class="st2" d="M640.3,27.6h-4.9v4.7H634V21.6h7.1v1.1h-5.6v3.7h4.9V27.6z"/>
	<path class="st2" d="M649,27.6h-4.9v4.7h-1.4V21.6h7.1v1.1h-5.6v3.7h4.9V27.6z"/>
	<path class="st2" d="M653,32.3h-1.5V21.6h1.5V32.3z"/>
	<path class="st2" d="M663.3,28.9L663.3,28.9c0,1-0.3,1.9-1,2.6c-0.7,0.7-1.7,1-2.9,1c-1.2,0-2.2-0.4-2.9-1.3
		c-0.8-0.9-1.1-1.9-1.1-3.3V26c0-1.3,0.4-2.4,1.1-3.3c0.8-0.9,1.7-1.3,2.9-1.3s2.2,0.3,2.9,1c0.7,0.6,1.1,1.5,1,2.6l0,0h-1.4
		c0-0.7-0.2-1.3-0.7-1.8c-0.4-0.4-1.1-0.7-1.9-0.7c-0.8,0-1.4,0.3-1.9,1c-0.5,0.6-0.7,1.5-0.7,2.4v1.9c0,1,0.2,1.8,0.7,2.4
		c0.5,0.6,1.1,1,1.9,1c0.8,0,1.4-0.2,1.9-0.6c0.4-0.4,0.7-1,0.7-1.8H663.3z"/>
</g>
<g class="st1">
	<path class="st2" d="M821.4,201.2h-4.5l-1,2.7h-1.5l4.1-10.7h1.2l4.1,10.7h-1.5L821.4,201.2z M817.4,199.9h3.6l-1.8-4.9h0
		L817.4,199.9z"/>
	<path class="st2" d="M832.9,200.5L832.9,200.5c0,1-0.3,1.9-1,2.6c-0.7,0.7-1.7,1-2.9,1c-1.2,0-2.2-0.4-2.9-1.3
		c-0.8-0.9-1.1-1.9-1.1-3.3v-1.9c0-1.3,0.4-2.4,1.1-3.3c0.8-0.9,1.7-1.3,2.9-1.3s2.2,0.3,2.9,1c0.7,0.6,1.1,1.5,1,2.6l0,0h-1.4
		c0-0.7-0.2-1.3-0.7-1.8c-0.4-0.4-1.1-0.7-1.9-0.7c-0.8,0-1.4,0.3-1.9,1c-0.5,0.6-0.7,1.5-0.7,2.4v1.9c0,1,0.2,1.8,0.7,2.4
		c0.5,0.6,1.1,1,1.9,1c0.8,0,1.4-0.2,1.9-0.6c0.4-0.4,0.7-1,0.7-1.8H832.9z"/>
	<path class="st2" d="M842.4,200.5L842.4,200.5c0,1-0.3,1.9-1,2.6c-0.7,0.7-1.7,1-2.9,1c-1.2,0-2.2-0.4-2.9-1.3
		c-0.8-0.9-1.1-1.9-1.1-3.3v-1.9c0-1.3,0.4-2.4,1.1-3.3c0.8-0.9,1.7-1.3,2.9-1.3s2.2,0.3,2.9,1c0.7,0.6,1.1,1.5,1,2.6l0,0H841
		c0-0.7-0.2-1.3-0.7-1.8c-0.4-0.4-1.1-0.7-1.9-0.7c-0.8,0-1.4,0.3-1.9,1c-0.5,0.6-0.7,1.5-0.7,2.4v1.9c0,1,0.2,1.8,0.7,2.4
		c0.5,0.6,1.1,1,1.9,1c0.8,0,1.4-0.2,1.9-0.6c0.4-0.4,0.7-1,0.7-1.8H842.4z"/>
	<path class="st2" d="M850.7,199h-4.9v3.8h5.6v1.1h-7.1v-10.7h7v1.1h-5.6v3.5h4.9V199z"/>
	<path class="st2" d="M858.9,201.2c0-0.5-0.2-0.9-0.5-1.2c-0.4-0.3-1-0.6-1.9-0.8c-1.1-0.3-2-0.7-2.6-1.2c-0.6-0.5-0.9-1.2-0.9-2
		c0-0.8,0.3-1.5,1-2.1c0.7-0.6,1.6-0.8,2.6-0.8c1.2,0,2.1,0.3,2.8,1c0.7,0.6,1,1.4,1,2.2l0,0h-1.4c0-0.6-0.2-1.1-0.6-1.5
		c-0.4-0.4-1-0.6-1.8-0.6c-0.7,0-1.3,0.2-1.7,0.5c-0.4,0.3-0.6,0.7-0.6,1.3c0,0.5,0.2,0.9,0.6,1.2c0.4,0.3,1.1,0.6,2,0.8
		c1.1,0.3,2,0.7,2.6,1.2s0.9,1.2,0.9,2c0,0.9-0.4,1.6-1.1,2.1s-1.6,0.8-2.8,0.8c-1.1,0-2-0.3-2.8-0.9c-0.8-0.6-1.2-1.4-1.2-2.3l0,0
		h1.4c0,0.7,0.3,1.2,0.8,1.6s1.1,0.5,1.9,0.5c0.7,0,1.3-0.2,1.7-0.5S858.9,201.7,858.9,201.2z"/>
	<path class="st2" d="M868.3,201.2c0-0.5-0.2-0.9-0.5-1.2c-0.4-0.3-1-0.6-1.9-0.8c-1.1-0.3-2-0.7-2.6-1.2c-0.6-0.5-0.9-1.2-0.9-2
		c0-0.8,0.3-1.5,1-2.1c0.7-0.6,1.6-0.8,2.6-0.8c1.2,0,2.1,0.3,2.8,1c0.7,0.6,1,1.4,1,2.2l0,0h-1.4c0-0.6-0.2-1.1-0.6-1.5
		c-0.4-0.4-1-0.6-1.8-0.6c-0.7,0-1.3,0.2-1.7,0.5c-0.4,0.3-0.6,0.7-0.6,1.3c0,0.5,0.2,0.9,0.6,1.2c0.4,0.3,1.1,0.6,2,0.8
		c1.1,0.3,2,0.7,2.6,1.2s0.9,1.2,0.9,2c0,0.9-0.4,1.6-1.1,2.1s-1.6,0.8-2.8,0.8c-1.1,0-2-0.3-2.8-0.9c-0.8-0.6-1.2-1.4-1.2-2.3l0,0
		h1.4c0,0.7,0.3,1.2,0.8,1.6s1.1,0.5,1.9,0.5c0.7,0,1.3-0.2,1.7-0.5S868.3,201.7,868.3,201.2z"/>
	<path class="st2" d="M877,199.3v4.6h-1.4v-10.7h3.9c1.2,0,2.1,0.3,2.7,0.8c0.6,0.5,0.9,1.3,0.9,2.3c0,0.5-0.1,1-0.4,1.4
		c-0.3,0.4-0.7,0.7-1.2,1c0.6,0.2,1,0.5,1.3,0.9c0.3,0.4,0.4,1,0.4,1.6v1c0,0.3,0,0.6,0.1,0.9s0.2,0.5,0.4,0.6v0.2H882
		c-0.2-0.2-0.3-0.4-0.4-0.7s-0.1-0.7-0.1-1v-1c0-0.6-0.2-1-0.5-1.4s-0.8-0.5-1.4-0.5H877z M877,198.1h2.3c0.8,0,1.4-0.2,1.8-0.5
		c0.4-0.3,0.5-0.8,0.5-1.4c0-0.6-0.2-1.1-0.5-1.4c-0.3-0.3-0.9-0.5-1.6-0.5H877V198.1z"/>
	<path class="st2" d="M893.5,199.5c0,1.3-0.4,2.4-1.2,3.2c-0.8,0.9-1.9,1.3-3.1,1.3c-1.2,0-2.3-0.4-3-1.3c-0.8-0.9-1.2-1.9-1.2-3.2
		v-1.9c0-1.3,0.4-2.4,1.2-3.2c0.8-0.9,1.8-1.3,3-1.3c1.3,0,2.3,0.4,3.1,1.3c0.8,0.9,1.2,1.9,1.2,3.2V199.5z M892.1,197.6
		c0-1-0.3-1.8-0.8-2.4s-1.2-0.9-2.1-0.9c-0.8,0-1.5,0.3-2,0.9c-0.5,0.6-0.8,1.4-0.8,2.4v1.9c0,1,0.2,1.8,0.8,2.4
		c0.5,0.6,1.2,0.9,2,0.9c0.9,0,1.6-0.3,2.1-0.9c0.5-0.6,0.8-1.4,0.8-2.4V197.6z"/>
	<path class="st2" d="M903.5,193.2v7.2c0,1.2-0.4,2.1-1.1,2.7c-0.8,0.6-1.7,0.9-3,0.9c-1.2,0-2.1-0.3-2.9-0.9
		c-0.7-0.6-1.1-1.5-1.1-2.7v-7.2h1.4v7.2c0,0.8,0.2,1.4,0.7,1.8s1.1,0.6,1.8,0.6c0.8,0,1.4-0.2,1.9-0.6c0.5-0.4,0.7-1,0.7-1.8v-7.2
		H903.5z"/>
	<path class="st2" d="M913.1,194.4h-3.4v9.5h-1.4v-9.5h-3.4v-1.1h8.3V194.4z"/>
	<path class="st2" d="M921,199h-4.9v3.8h5.6v1.1h-7.1v-10.7h7v1.1h-5.6v3.5h4.9V199z"/>
	<path class="st2" d="M924.8,199.3v4.6h-1.4v-10.7h3.9c1.2,0,2.1,0.3,2.7,0.8c0.6,0.5,0.9,1.3,0.9,2.3c0,0.5-0.1,1-0.4,1.4
		c-0.3,0.4-0.7,0.7-1.2,1c0.6,0.2,1,0.5,1.3,0.9c0.3,0.4,0.4,1,0.4,1.6v1c0,0.3,0,0.6,0.1,0.9s0.2,0.5,0.4,0.6v0.2h-1.5
		c-0.2-0.2-0.3-0.4-0.4-0.7s-0.1-0.7-0.1-1v-1c0-0.6-0.2-1-0.5-1.4s-0.8-0.5-1.4-0.5H924.8z M924.8,198.1h2.3c0.8,0,1.4-0.2,1.8-0.5
		c0.4-0.3,0.5-0.8,0.5-1.4c0-0.6-0.2-1.1-0.5-1.4c-0.3-0.3-0.9-0.5-1.6-0.5h-2.4V198.1z"/>
</g>
<g class="st1">
	<path class="st2" d="M577.5,387.4h-3.4v9.5h-1.4v-9.5h-3.4v-1.1h8.3V387.4z"/>
	<path class="st2" d="M587.2,396.9h-1.4v-4.7h-5.2v4.7h-1.4v-10.7h1.4v4.8h5.2v-4.8h1.4V396.9z"/>
	<path class="st2" d="M597.6,386.2v7.2c0,1.2-0.4,2.1-1.1,2.7c-0.8,0.6-1.7,0.9-3,0.9c-1.2,0-2.1-0.3-2.9-0.9
		c-0.7-0.6-1.1-1.5-1.1-2.7v-7.2h1.4v7.2c0,0.8,0.2,1.4,0.7,1.8s1.1,0.6,1.8,0.6c0.8,0,1.4-0.2,1.9-0.6s0.7-1,0.7-1.8v-7.2H597.6z"
		/>
	<path class="st2" d="M608,396.9h-1.4l-5.1-8.2l0,0v8.2H600v-10.7h1.4l5.1,8.2l0,0v-8.2h1.4V396.9z"/>
	<path class="st2" d="M610.7,396.9v-10.7h3.3c1.4,0,2.5,0.4,3.4,1.3c0.8,0.9,1.3,2,1.3,3.3v1.5c0,1.4-0.4,2.5-1.3,3.3
		c-0.8,0.9-2,1.3-3.4,1.3H610.7z M612.1,387.4v8.4h1.8c1,0,1.8-0.3,2.3-1c0.6-0.6,0.9-1.5,0.9-2.5v-1.5c0-1-0.3-1.8-0.9-2.5
		c-0.6-0.6-1.3-1-2.3-1H612.1z"/>
	<path class="st2" d="M626.9,392H622v3.8h5.6v1.1h-7.1v-10.7h7v1.1H622v3.5h4.9V392z"/>
	<path class="st2" d="M630.8,392.3v4.6h-1.4v-10.7h3.9c1.2,0,2.1,0.3,2.7,0.8c0.6,0.5,0.9,1.3,0.9,2.3c0,0.5-0.1,1-0.4,1.4
		c-0.3,0.4-0.7,0.7-1.2,1c0.6,0.2,1,0.5,1.3,0.9c0.3,0.4,0.4,1,0.4,1.6v1c0,0.3,0,0.6,0.1,0.9c0.1,0.3,0.2,0.5,0.4,0.6v0.2h-1.5
		c-0.2-0.2-0.3-0.4-0.4-0.7s-0.1-0.7-0.1-1v-1c0-0.6-0.2-1-0.5-1.4s-0.8-0.5-1.4-0.5H630.8z M630.8,391.1h2.3c0.8,0,1.4-0.2,1.8-0.5
		c0.4-0.3,0.5-0.8,0.5-1.4c0-0.6-0.2-1.1-0.5-1.4c-0.3-0.3-0.9-0.5-1.6-0.5h-2.4V391.1z"/>
	<path class="st2" d="M650.2,387.4h-3.4v9.5h-1.4v-9.5h-3.4v-1.1h8.3V387.4z"/>
	<path class="st2" d="M653.2,392.6v4.3h-1.4v-10.7h4.1c1.1,0,2,0.3,2.7,0.9c0.6,0.6,0.9,1.4,0.9,2.3c0,1-0.3,1.7-0.9,2.3
		c-0.6,0.6-1.5,0.9-2.7,0.9H653.2z M653.2,391.5h2.6c0.7,0,1.3-0.2,1.6-0.6c0.4-0.4,0.5-0.9,0.5-1.5s-0.2-1.1-0.5-1.5
		c-0.4-0.4-0.9-0.6-1.6-0.6h-2.6V391.5z"/>
	<path class="st2" d="M667.2,394.2c0-0.5-0.2-0.9-0.5-1.2c-0.4-0.3-1-0.6-1.9-0.8c-1.1-0.3-2-0.7-2.6-1.2s-0.9-1.2-0.9-2
		c0-0.8,0.3-1.5,1-2.1c0.7-0.6,1.6-0.8,2.6-0.8c1.2,0,2.1,0.3,2.8,1s1,1.4,1,2.2l0,0h-1.4c0-0.6-0.2-1.1-0.6-1.5s-1-0.6-1.8-0.6
		c-0.7,0-1.3,0.2-1.7,0.5c-0.4,0.3-0.6,0.7-0.6,1.3c0,0.5,0.2,0.9,0.6,1.2c0.4,0.3,1.1,0.6,2,0.8c1.1,0.3,2,0.7,2.6,1.2
		s0.9,1.2,0.9,2c0,0.9-0.4,1.6-1.1,2.1s-1.6,0.8-2.8,0.8c-1.1,0-2-0.3-2.8-0.9c-0.8-0.6-1.2-1.4-1.2-2.3l0,0h1.4
		c0,0.7,0.3,1.2,0.8,1.6c0.5,0.4,1.1,0.5,1.9,0.5c0.7,0,1.3-0.2,1.7-0.5S667.2,394.7,667.2,394.2z"/>
</g>
<g class="st1">
	<path class="st2" d="M1114.9,201.2c0-0.5-0.2-0.9-0.5-1.2c-0.4-0.3-1-0.6-1.9-0.8c-1.1-0.3-2-0.7-2.6-1.2c-0.6-0.5-0.9-1.2-0.9-2
		c0-0.8,0.3-1.5,1-2.1c0.7-0.6,1.6-0.8,2.6-0.8c1.2,0,2.1,0.3,2.8,1c0.7,0.6,1,1.4,1,2.2l0,0h-1.4c0-0.6-0.2-1.1-0.6-1.5
		c-0.4-0.4-1-0.6-1.8-0.6c-0.7,0-1.3,0.2-1.7,0.5c-0.4,0.3-0.6,0.7-0.6,1.3c0,0.5,0.2,0.9,0.6,1.2c0.4,0.3,1.1,0.6,2,0.8
		c1.1,0.3,2,0.7,2.6,1.2s0.9,1.2,0.9,2c0,0.9-0.4,1.6-1.1,2.1s-1.6,0.8-2.8,0.8c-1.1,0-2-0.3-2.8-0.9c-0.8-0.6-1.2-1.4-1.2-2.3l0,0
		h1.4c0,0.7,0.3,1.2,0.8,1.6s1.1,0.5,1.9,0.5c0.7,0,1.3-0.2,1.7-0.5S1114.9,201.7,1114.9,201.2z"/>
	<path class="st2" d="M1124.8,199h-4.9v3.8h5.6v1.1h-7.1v-10.7h7v1.1h-5.6v3.5h4.9V199z"/>
</g>
<g class="st1">
	<path class="st2" d="M1128.7,199.3v4.6h-1.4v-10.7h3.9c1.2,0,2.1,0.3,2.7,0.8c0.6,0.5,0.9,1.3,0.9,2.3c0,0.5-0.1,1-0.4,1.4
		c-0.3,0.4-0.7,0.7-1.2,1c0.6,0.2,1,0.5,1.3,0.9c0.3,0.4,0.4,1,0.4,1.6v1c0,0.3,0,0.6,0.1,0.9s0.2,0.5,0.4,0.6v0.2h-1.5
		c-0.2-0.2-0.3-0.4-0.4-0.7s-0.1-0.7-0.1-1v-1c0-0.6-0.2-1-0.5-1.4s-0.8-0.5-1.4-0.5H1128.7z M1128.7,198.1h2.3
		c0.8,0,1.4-0.2,1.8-0.5c0.4-0.3,0.5-0.8,0.5-1.4c0-0.6-0.2-1.1-0.5-1.4c-0.3-0.3-0.9-0.5-1.6-0.5h-2.4V198.1z"/>
</g>
<g class="st1">
	<path class="st2" d="M1140.2,201.2l0.2,0.8h0l0.2-0.8l2.8-8h1.6l-4,10.7h-1.2l-4-10.7h1.6L1140.2,201.2z"/>
	<path class="st2" d="M1148,203.9h-1.5v-10.7h1.5V203.9z"/>
	<path class="st2" d="M1158.3,200.5L1158.3,200.5c0,1-0.3,1.9-1,2.6c-0.7,0.7-1.7,1-2.9,1c-1.2,0-2.2-0.4-2.9-1.3
		c-0.8-0.9-1.1-1.9-1.1-3.3v-1.9c0-1.3,0.4-2.4,1.1-3.3c0.8-0.9,1.7-1.3,2.9-1.3s2.2,0.3,2.9,1c0.7,0.6,1.1,1.5,1,2.6l0,0h-1.4
		c0-0.7-0.2-1.3-0.7-1.8c-0.4-0.4-1.1-0.7-1.9-0.7c-0.8,0-1.4,0.3-1.9,1c-0.5,0.6-0.7,1.5-0.7,2.4v1.9c0,1,0.2,1.8,0.7,2.4
		c0.5,0.6,1.1,1,1.9,1c0.8,0,1.4-0.2,1.9-0.6c0.4-0.4,0.7-1,0.7-1.8H1158.3z"/>
	<path class="st2" d="M1166.6,199h-4.9v3.8h5.6v1.1h-7.1v-10.7h7v1.1h-5.6v3.5h4.9V199z"/>
</g>
<path class="st3" d="M108.6,178c-0.1,0-0.2,0-0.4,0H48.4c-10.5,0.2-20.3-5.9-24.8-15.4c-3.2-6.5-3.6-13.9-1.2-20.8
	c2.3-6.7,7-12.1,13.3-15.2v-0.5c0-11.5,6.4-22,16.5-27.4c7.3-3.9,15.8-4.7,23.7-2.2c7.6,2.3,13.9,7.4,17.8,14.3
	c4.7-2.4,10.3-2.5,15-0.1c7.8,3.9,11.1,13.2,7.8,21.1c9.5,3.4,16,12.6,15.8,22.8c-0.1,6.4-2.7,12.3-7.2,16.7
	C120.7,175.6,114.9,178,108.6,178z M108.3,176c5.8,0.1,11.3-2.1,15.5-6.2c4.2-4.1,6.5-9.5,6.6-15.3c0.1-9.6-6.2-18.3-15.4-21.1
	c-0.3-0.1-0.5-0.2-0.7-0.4c-0.2-0.3-0.2-0.7-0.1-1c3.6-7.1,0.8-15.9-6.4-19.5c-4.5-2.3-9.7-2.1-14,0.5c-0.2,0.1-0.5,0.2-0.8,0.1
	c-0.3-0.1-0.5-0.3-0.6-0.5c-3.6-6.9-9.7-11.9-17.2-14.2c-7.4-2.3-15.3-1.5-22.2,2.1c-9.5,5-15.5,14.9-15.5,25.6v1.1
	c0,0.4-0.2,0.7-0.6,0.9c-6.1,2.9-10.6,8-12.8,14.4c-2.2,6.4-1.8,13.2,1.1,19.3c4.2,8.8,13.3,14.4,23,14.3H108.3z"/>
<path class="st3" d="M1225.1,164.8h-174.7c-3.9,0-7.1-3.2-7.1-7.1v-40.3c0-3.9,3.2-7.1,7.1-7.1h174.7c3.9,0,7.1,3.2,7.1,7.1v40.3
	C1232.2,161.6,1229,164.8,1225.1,164.8z M1050.4,112.3c-2.8,0-5.1,2.3-5.1,5.1v40.3c0,2.8,2.3,5.1,5.1,5.1h174.7
	c2.8,0,5.1-2.3,5.1-5.1v-40.3c0-2.8-2.3-5.1-5.1-5.1H1050.4z"/>
<rect x="1091" y="133.4" class="st4" width="38.2" height="6"/>
<rect x="1063" y="133.4" class="st4" width="6" height="6"/>
<rect x="1193" y="142.1" class="st4" width="6" height="6"/>
<rect x="1186.3" y="133.4" class="st4" width="6" height="6"/>
<rect x="1193" y="124.6" class="st4" width="6" height="6"/>
<rect x="1206.6" y="142.1" class="st4" width="6" height="6"/>
<rect x="1199.8" y="133.4" class="st4" width="6" height="6"/>
<rect x="1206.6" y="124.6" class="st4" width="6" height="6"/>
<rect x="1179.5" y="142.1" class="st4" width="6" height="6"/>
<rect x="1179.5" y="124.6" class="st4" width="6" height="6"/>
<rect x="1152.5" y="142.1" class="st4" width="6" height="6"/>
<rect x="1145.7" y="133.4" class="st4" width="6" height="6"/>
<rect x="1152.5" y="124.6" class="st4" width="6" height="6"/>
<rect x="1172.8" y="133.4" class="st4" width="6" height="6"/>
<rect x="1159.3" y="133.4" class="st4" width="6" height="6"/>
<rect x="1166" y="124.6" class="st4" width="6" height="6"/>
<rect x="1166" y="142.1" class="st4" width="6" height="6"/>
<path class="st3" d="M1183.9,43.7H52.4c-0.6,0-1-0.4-1-1s0.4-1,1-1h1131.5c0.6,0,1,0.4,1,1S1184.5,43.7,1183.9,43.7z"/>
<polygon class="st3" points="1177.3,50.9 1175.9,49.4 1183.1,42.7 1175.9,36 1177.3,34.5 1186.1,42.7 "/>
<path class="st3" d="M589.8,286.7c-0.3,0-0.6-0.2-0.8-0.4l-81.8-123.9H398.7c-0.6,0-1-0.4-1-1s0.4-1,1-1h109c0.3,0,0.6,0.2,0.8,0.4
	l82.1,124.3c0.3,0.5,0.2,1.1-0.3,1.4C590.2,286.6,590,286.7,589.8,286.7z"/>
<polygon class="st3" points="579.3,284.7 579.8,282.8 589.4,285.1 591,275.4 593,275.7 591,287.5 "/>
<path class="st5" d="M513.9,360.5h-6c-3.2,0-5.8-2.2-5.8-5v-31c0-2.8,2.6-5,5.8-5h6v2h-6c-2.1,0-3.8,1.4-3.8,3v31c0,1.6,1.7,3,3.8,3
	h6V360.5z"/>
<path class="st5" d="M730.5,360.6h-5.4v-2h5.4c2.1,0,3.8-1.4,3.8-3v-31c0-1.6-1.7-3-3.8-3h-5.4v-2h5.4c3.2,0,5.8,2.2,5.8,5v31
	C736.3,358.4,733.7,360.6,730.5,360.6z"/>
<path class="st5" d="M717.7,370.7H520.3c-4,0-7.3-3.3-7.3-7.3V317c0-4,3.3-7.3,7.3-7.3h197.4c4,0,7.3,3.3,7.3,7.3v46.4
	C725,367.4,721.7,370.7,717.7,370.7z M520.3,311.7c-2.9,0-5.3,2.4-5.3,5.3v46.4c0,2.9,2.4,5.3,5.3,5.3h197.4c2.9,0,5.3-2.4,5.3-5.3
	V317c0-2.9-2.4-5.3-5.3-5.3H520.3z"/>
<rect x="560.7" y="350.5" class="st5" width="26.4" height="2"/>
<rect x="597.8" y="350.5" class="st5" width="26.4" height="2"/>
<rect x="635" y="350.5" class="st5" width="26.4" height="2"/>
<rect x="672.1" y="350.5" class="st5" width="26.4" height="2"/>
<path class="st5" d="M536.3,331.8c-1.2,0-2.2-1-2.2-2.2s1-2.2,2.2-2.2c1.2,0,2.2,1,2.2,2.2S537.5,331.8,536.3,331.8z M536.3,329.4
	c-0.1,0-0.2,0.1-0.2,0.2c0,0.2,0.4,0.2,0.4,0C536.5,329.5,536.4,329.4,536.3,329.4z"/>
<path class="st5" d="M536.3,342.5c-1.2,0-2.2-1-2.2-2.2s1-2.2,2.2-2.2c1.2,0,2.2,1,2.2,2.2S537.5,342.5,536.3,342.5z M536.3,340.1
	c-0.1,0-0.2,0.1-0.2,0.2c0,0.2,0.4,0.2,0.4,0C536.5,340.2,536.4,340.1,536.3,340.1z"/>
<path class="st5" d="M536.3,353.2c-1.2,0-2.2-1-2.2-2.2s1-2.2,2.2-2.2c1.2,0,2.2,1,2.2,2.2S537.5,353.2,536.3,353.2z M536.3,350.8
	c-0.1,0-0.2,0.1-0.2,0.2c0,0.2,0.4,0.2,0.4,0C536.5,350.9,536.4,350.8,536.3,350.8z"/>
<path class="st5" d="M587.9,342.6h-28v-15.2h28V342.6z M561.9,340.6h24v-11.2h-24V340.6z"/>
<path class="st5" d="M625,342.6h-28v-15.2h28V342.6z M599,340.6h24v-11.2h-24V340.6z"/>
<path class="st5" d="M662.2,342.6h-28v-15.2h28V342.6z M636.2,340.6h24v-11.2h-24V340.6z"/>
<path class="st5" d="M699.3,342.6h-28v-15.2h28V342.6z M673.3,340.6h24v-11.2h-24V340.6z"/>
<path class="st3" d="M347.9,180.3c-23.7,0-42.9-19.2-42.9-42.9s19.2-42.9,42.9-42.9s42.9,19.2,42.9,42.9S371.6,180.3,347.9,180.3z
	 M347.9,96.5c-22.6,0-40.9,18.3-40.9,40.9s18.3,40.9,40.9,40.9s40.9-18.3,40.9-40.9S370.5,96.5,347.9,96.5z"/>
<path class="st3" d="M378.8,138.5h-22.4c-0.6,0-1-0.4-1-1s0.4-1,1-1h22.4c0.6,0,1,0.4,1,1S379.4,138.5,378.8,138.5z"/>
<path class="st3" d="M372.2,146.1c-0.3,0-0.5-0.1-0.7-0.3c-0.4-0.4-0.4-1,0-1.4l6.9-6.9l-6.9-6.9c-0.4-0.4-0.4-1,0-1.4s1-0.4,1.4,0
	l7.6,7.6c0.4,0.4,0.4,1,0,1.4l-7.6,7.6C372.7,146,372.5,146.1,372.2,146.1z"/>
<path class="st3" d="M339.5,138.5h-22.4c-0.6,0-1-0.4-1-1s0.4-1,1-1h22.4c0.6,0,1,0.4,1,1S340.1,138.5,339.5,138.5z"/>
<path class="st3" d="M323.6,146.1c-0.3,0-0.5-0.1-0.7-0.3l-7.6-7.6c-0.4-0.4-0.4-1,0-1.4l7.6-7.6c0.4-0.4,1-0.4,1.4,0s0.4,1,0,1.4
	l-6.9,6.9l6.9,6.9c0.4,0.4,0.4,1,0,1.4C324.1,146,323.9,146.1,323.6,146.1z"/>
<path class="st3" d="M349,170.3c-0.6,0-1-0.4-1-1v-23.4c0-0.6,0.4-1,1-1s1,0.4,1,1v23.4C350,169.9,349.6,170.3,349,170.3z"/>
<path class="st3" d="M356.6,154.5c-0.3,0-0.5-0.1-0.7-0.3l-6.9-6.9l-6.9,6.9c-0.4,0.4-1,0.4-1.4,0s-0.4-1,0-1.4l7.6-7.6
	c0.4-0.4,1-0.4,1.4,0l7.6,7.6c0.4,0.4,0.4,1,0,1.4C357.1,154.4,356.9,154.5,356.6,154.5z"/>
<path class="st3" d="M349,129.9c-0.6,0-1-0.4-1-1v-23.4c0-0.6,0.4-1,1-1s1,0.4,1,1v23.4C350,129.5,349.6,129.9,349,129.9z"/>
<path class="st3" d="M349,129.9c-0.3,0-0.5-0.1-0.7-0.3l-7.6-7.6c-0.4-0.4-0.4-1,0-1.4s1-0.4,1.4,0l6.9,6.9l6.9-6.9
	c0.4-0.4,1-0.4,1.4,0s0.4,1,0,1.4l-7.6,7.6C349.5,129.8,349.3,129.9,349,129.9z"/>
<path class="st3" d="M873.2,180.3c-23.7,0-42.9-19.2-42.9-42.9s19.2-42.9,42.9-42.9s42.9,19.2,42.9,42.9S896.9,180.3,873.2,180.3z
	 M873.2,96.5c-22.6,0-40.9,18.3-40.9,40.9s18.3,40.9,40.9,40.9c22.6,0,40.9-18.3,40.9-40.9S895.8,96.5,873.2,96.5z"/>
<path class="st3" d="M904.1,138.5h-22.5c-0.6,0-1-0.4-1-1s0.4-1,1-1h22.5c0.6,0,1,0.4,1,1S904.7,138.5,904.1,138.5z"/>
<path class="st3" d="M897.5,146.1c-0.3,0-0.5-0.1-0.7-0.3c-0.4-0.4-0.4-1,0-1.4l6.9-6.9l-6.9-6.9c-0.4-0.4-0.4-1,0-1.4s1-0.4,1.4,0
	l7.6,7.6c0.4,0.4,0.4,1,0,1.4l-7.6,7.6C898,146,897.8,146.1,897.5,146.1z"/>
<path class="st3" d="M864.7,138.5h-22.3c-0.6,0-1-0.4-1-1s0.4-1,1-1h22.3c0.6,0,1,0.4,1,1S865.3,138.5,864.7,138.5z"/>
<path class="st3" d="M848.9,146.1c-0.3,0-0.5-0.1-0.7-0.3l-7.6-7.6c-0.2-0.2-0.3-0.4-0.3-0.7s0.1-0.5,0.3-0.7l7.6-7.6
	c0.4-0.4,1-0.4,1.4,0s0.4,1,0,1.4l-6.9,6.9l6.9,6.9c0.4,0.4,0.4,1,0,1.4C849.4,146,849.2,146.1,848.9,146.1z"/>
<path class="st3" d="M874.2,170.3c-0.6,0-1-0.4-1-1v-23.4c0-0.6,0.4-1,1-1s1,0.4,1,1v23.4C875.2,169.9,874.8,170.3,874.2,170.3z"/>
<path class="st3" d="M881.8,154.5c-0.3,0-0.5-0.1-0.7-0.3l-6.9-6.9l-6.9,6.9c-0.4,0.4-1,0.4-1.4,0s-0.4-1,0-1.4l7.6-7.6
	c0.2-0.2,0.4-0.3,0.7-0.3l0,0c0.3,0,0.5,0.1,0.7,0.3l7.6,7.6c0.4,0.4,0.4,1,0,1.4C882.3,154.4,882.1,154.5,881.8,154.5z"/>
<path class="st3" d="M874.2,129.9c-0.6,0-1-0.4-1-1v-23.4c0-0.6,0.4-1,1-1s1,0.4,1,1v23.4C875.2,129.5,874.8,129.9,874.2,129.9z"/>
<path class="st3" d="M874.2,129.9c-0.3,0-0.5-0.1-0.7-0.3l-7.6-7.6c-0.4-0.4-0.4-1,0-1.4s1-0.4,1.4,0l6.9,6.9l6.9-6.9
	c0.4-0.4,1-0.4,1.4,0s0.4,1,0,1.4l-7.6,7.6C874.7,129.8,874.5,129.9,874.2,129.9z"/>
</svg>
