<?xml version="1.0" encoding="utf-8"?>
<!-- Generator: Adobe Illustrator 21.1.0, SVG Export Plug-In . SVG Version: 6.00 Build 0)  -->
<svg version="1.1" id="Layer_1" xmlns="http://www.w3.org/2000/svg" xmlns:xlink="http://www.w3.org/1999/xlink" x="0px" y="0px"
	 viewBox="0 0 1250 217.7" style="enable-background:new 0 0 1250 217.7;" xml:space="preserve">
<style type="text/css">
	.st0{fill:#787878;}
	.st1{enable-background:new    ;}
	.st2{fill:#17242D;}
	.st3{fill:#959595;}
	.st4{fill:#939596;}
	.st5{fill:#0075C9;}
	.st6{fill:#3C8770;}
</style>
<title>Desktop</title>
<path class="st0" d="M266.5,132.3h-136c-0.6,0-1-0.4-1-1s0.4-1,1-1h136c0.6,0,1,0.4,1,1S267.1,132.3,266.5,132.3z"/>
<path class="st0" d="M498.5,132.3h-137c-0.6,0-1-0.4-1-1s0.4-1,1-1h137c0.6,0,1,0.4,1,1S499.1,132.3,498.5,132.3z"/>
<path class="st0" d="M844.4,132.3H705.3c-0.6,0-1-0.4-1-1s0.4-1,1-1h139.1c0.6,0,1,0.4,1,1S845,132.3,844.4,132.3z"/>
<path class="st0" d="M1080.9,132.3H940.8c-0.6,0-1-0.4-1-1s0.4-1,1-1h140.1c0.6,0,1,0.4,1,1S1081.5,132.3,1080.9,132.3z"/>
<g class="st1">
	<path class="st2" d="M270.8,189.4H266v3.8h5.6v1.1h-7.1v-10.7h7v1.1H266v3.5h4.9V189.4z"/>
	<path class="st2" d="M273.3,194.3v-10.7h3.3c1.4,0,2.5,0.4,3.4,1.3c0.8,0.9,1.3,2,1.3,3.3v1.5c0,1.4-0.4,2.5-1.3,3.3
		c-0.8,0.9-2,1.3-3.4,1.3H273.3z M274.7,184.8v8.4h1.8c1,0,1.8-0.3,2.3-1c0.6-0.6,0.9-1.5,0.9-2.5v-1.5c0-1-0.3-1.8-0.9-2.5
		c-0.6-0.6-1.3-1-2.3-1H274.7z"/>
	<path class="st2" d="M290.9,192.9c-0.3,0.4-0.7,0.8-1.3,1.1c-0.6,0.3-1.4,0.5-2.4,0.5c-1.3,0-2.3-0.4-3.2-1.2
		c-0.8-0.8-1.2-1.9-1.2-3.2v-2.2c0-1.3,0.4-2.3,1.2-3.2s1.8-1.2,3-1.2c1.2,0,2.2,0.3,2.9,0.9s1.1,1.4,1.1,2.3l0,0h-1.4
		c0-0.6-0.3-1.1-0.7-1.5s-1-0.6-1.8-0.6c-0.8,0-1.5,0.3-2,0.9c-0.5,0.6-0.7,1.4-0.7,2.3v2.2c0,0.9,0.3,1.7,0.8,2.3s1.3,0.9,2.1,0.9
		c0.6,0,1.1-0.1,1.5-0.2c0.4-0.2,0.7-0.3,0.8-0.5v-2.4h-2.3V189h3.8V192.9z"/>
	<path class="st2" d="M299.7,189.4h-4.9v3.8h5.6v1.1h-7.1v-10.7h7v1.1h-5.6v3.5h4.9V189.4z"/>
	<path class="st2" d="M307.3,189.7v4.6h-1.4v-10.7h3.9c1.2,0,2.1,0.3,2.7,0.8c0.6,0.5,0.9,1.3,0.9,2.3c0,0.5-0.1,1-0.4,1.4
		c-0.3,0.4-0.7,0.7-1.2,1c0.6,0.2,1,0.5,1.3,0.9c0.3,0.4,0.4,1,0.4,1.6v1c0,0.3,0,0.6,0.1,0.9s0.2,0.5,0.4,0.6v0.2h-1.5
		c-0.2-0.2-0.3-0.4-0.4-0.7s-0.1-0.7-0.1-1v-1c0-0.6-0.2-1-0.5-1.4s-0.8-0.5-1.4-0.5H307.3z M307.3,188.5h2.3c0.8,0,1.4-0.2,1.8-0.5
		c0.4-0.3,0.5-0.8,0.5-1.4c0-0.6-0.2-1.1-0.5-1.4c-0.3-0.3-0.9-0.5-1.6-0.5h-2.4V188.5z"/>
	<path class="st2" d="M323.9,189.9c0,1.3-0.4,2.4-1.2,3.2c-0.8,0.9-1.9,1.3-3.1,1.3c-1.2,0-2.3-0.4-3-1.3c-0.8-0.9-1.2-1.9-1.2-3.2
		V188c0-1.3,0.4-2.4,1.2-3.2c0.8-0.9,1.8-1.3,3-1.3c1.3,0,2.3,0.4,3.1,1.3c0.8,0.9,1.2,1.9,1.2,3.2V189.9z M322.5,188
		c0-1-0.3-1.8-0.8-2.4s-1.2-0.9-2.1-0.9c-0.8,0-1.5,0.3-2,0.9c-0.5,0.6-0.8,1.4-0.8,2.4v1.9c0,1,0.2,1.8,0.8,2.4
		c0.5,0.6,1.2,0.9,2,0.9c0.9,0,1.6-0.3,2.1-0.9c0.5-0.6,0.8-1.4,0.8-2.4V188z"/>
	<path class="st2" d="M333.8,183.6v7.2c0,1.2-0.4,2.1-1.1,2.7c-0.8,0.6-1.7,0.9-3,0.9c-1.2,0-2.1-0.3-2.9-0.9
		c-0.7-0.6-1.1-1.5-1.1-2.7v-7.2h1.4v7.2c0,0.8,0.2,1.4,0.7,1.8s1.1,0.6,1.8,0.6c0.8,0,1.4-0.2,1.9-0.6s0.7-1,0.7-1.8v-7.2H333.8z"
		/>
	<path class="st2" d="M343.4,184.8H340v9.5h-1.4v-9.5h-3.4v-1.1h8.3V184.8z"/>
	<path class="st2" d="M351.3,189.4h-4.9v3.8h5.6v1.1H345v-10.7h7v1.1h-5.6v3.5h4.9V189.4z"/>
	<path class="st2" d="M355.2,189.7v4.6h-1.4v-10.7h3.9c1.2,0,2.1,0.3,2.7,0.8c0.6,0.5,0.9,1.3,0.9,2.3c0,0.5-0.1,1-0.4,1.4
		c-0.3,0.4-0.7,0.7-1.2,1c0.6,0.2,1,0.5,1.3,0.9c0.3,0.4,0.4,1,0.4,1.6v1c0,0.3,0,0.6,0.1,0.9s0.2,0.5,0.4,0.6v0.2h-1.5
		c-0.2-0.2-0.3-0.4-0.4-0.7s-0.1-0.7-0.1-1v-1c0-0.6-0.2-1-0.5-1.4s-0.8-0.5-1.4-0.5H355.2z M355.2,188.5h2.3c0.8,0,1.4-0.2,1.8-0.5
		c0.4-0.3,0.5-0.8,0.5-1.4c0-0.6-0.2-1.1-0.5-1.4c-0.3-0.3-0.9-0.5-1.6-0.5h-2.4V188.5z"/>
</g>
<g class="st1">
	<path class="st2" d="M298.3,29.4h-4.5l-1,2.7h-1.5l4.1-10.7h1.2l4.1,10.7h-1.5L298.3,29.4z M294.3,28.1h3.6l-1.8-4.9h0L294.3,28.1z
		"/>
	<path class="st2" d="M303.7,31h5v1.1h-6.5V21.4h1.4V31z"/>
	<path class="st2" d="M311.8,31h5v1.1h-6.5V21.4h1.4V31z"/>
	<path class="st2" d="M329.4,22.6H326v9.5h-1.4v-9.5h-3.4v-1.1h8.3V22.6z"/>
	<path class="st2" d="M332.4,27.5v4.6h-1.4V21.4h3.9c1.2,0,2.1,0.3,2.7,0.8c0.6,0.5,0.9,1.3,0.9,2.3c0,0.5-0.1,1-0.4,1.4
		c-0.3,0.4-0.7,0.7-1.2,1c0.6,0.2,1,0.5,1.3,0.9c0.3,0.4,0.4,1,0.4,1.6v1c0,0.3,0,0.6,0.1,0.9s0.2,0.5,0.4,0.6v0.2h-1.5
		c-0.2-0.2-0.3-0.4-0.4-0.7s-0.1-0.7-0.1-1v-1c0-0.6-0.2-1-0.5-1.4s-0.8-0.5-1.4-0.5H332.4z M332.4,26.3h2.3c0.8,0,1.4-0.2,1.8-0.5
		c0.4-0.3,0.5-0.8,0.5-1.4c0-0.6-0.2-1.1-0.5-1.4c-0.3-0.3-0.9-0.5-1.6-0.5h-2.4V26.3z"/>
	<path class="st2" d="M346.7,29.4h-4.5l-1,2.7h-1.5l4.1-10.7h1.2l4.1,10.7h-1.5L346.7,29.4z M342.6,28.1h3.6l-1.8-4.9h0L342.6,28.1z
		"/>
	<path class="st2" d="M356.9,27.4H352v4.7h-1.4V21.4h7.1v1.1H352v3.7h4.9V27.4z"/>
	<path class="st2" d="M365.6,27.4h-4.9v4.7h-1.4V21.4h7.1v1.1h-5.6v3.7h4.9V27.4z"/>
	<path class="st2" d="M369.6,32.1h-1.5V21.4h1.5V32.1z"/>
	<path class="st2" d="M379.9,28.7L379.9,28.7c0,1-0.3,1.9-1,2.6c-0.7,0.7-1.7,1-2.9,1c-1.2,0-2.2-0.4-2.9-1.3s-1.1-1.9-1.1-3.3v-1.9
		c0-1.3,0.4-2.4,1.1-3.3c0.8-0.9,1.7-1.3,2.9-1.3s2.2,0.3,2.9,1c0.7,0.6,1.1,1.5,1,2.6l0,0h-1.4c0-0.7-0.2-1.3-0.7-1.8
		c-0.4-0.4-1.1-0.7-1.9-0.7c-0.8,0-1.4,0.3-1.9,1c-0.5,0.6-0.7,1.5-0.7,2.4v1.9c0,1,0.2,1.8,0.7,2.4c0.5,0.6,1.1,1,1.9,1
		c0.8,0,1.4-0.2,1.9-0.6c0.4-0.4,0.7-1,0.7-1.8H379.9z"/>
</g>
<g class="st1">
	<path class="st2" d="M848.5,28.7L848.5,28.7c0,1-0.3,1.9-1,2.6c-0.7,0.7-1.7,1-2.9,1c-1.2,0-2.2-0.4-2.9-1.3
		c-0.8-0.9-1.1-1.9-1.1-3.3v-1.9c0-1.3,0.4-2.4,1.1-3.3c0.8-0.9,1.7-1.3,2.9-1.3s2.2,0.3,2.9,1c0.7,0.6,1.1,1.5,1,2.6l0,0h-1.4
		c0-0.7-0.2-1.3-0.7-1.8c-0.4-0.4-1.1-0.7-1.9-0.7c-0.8,0-1.4,0.3-1.9,1c-0.5,0.6-0.7,1.5-0.7,2.4v1.9c0,1,0.2,1.8,0.7,2.4
		c0.5,0.6,1.1,1,1.9,1c0.8,0,1.4-0.2,1.9-0.6c0.4-0.4,0.7-1,0.7-1.8H848.5z"/>
	<path class="st2" d="M851.9,31h5v1.1h-6.5V21.4h1.4V31z"/>
	<path class="st2" d="M864.8,27.2H860V31h5.6v1.1h-7.1V21.4h7v1.1H860V26h4.9V27.2z"/>
	<path class="st2" d="M873.1,29.4h-4.5l-1,2.7h-1.5l4.1-10.7h1.2l4.1,10.7h-1.5L873.1,29.4z M869,28.1h3.6l-1.8-4.9h0L869,28.1z"/>
	<path class="st2" d="M885.1,32.1h-1.4l-5.1-8.2l0,0v8.2H877V21.4h1.4l5.1,8.2l0,0v-8.2h1.4V32.1z"/>
	<path class="st2" d="M898.6,22.6h-3.4v9.5h-1.4v-9.5h-3.4v-1.1h8.3V22.6z"/>
	<path class="st2" d="M901.7,27.5v4.6h-1.4V21.4h3.9c1.2,0,2.1,0.3,2.7,0.8c0.6,0.5,0.9,1.3,0.9,2.3c0,0.5-0.1,1-0.4,1.4
		c-0.3,0.4-0.7,0.7-1.2,1c0.6,0.2,1,0.5,1.3,0.9c0.3,0.4,0.4,1,0.4,1.6v1c0,0.3,0,0.6,0.1,0.9s0.2,0.5,0.4,0.6v0.2h-1.5
		c-0.2-0.2-0.3-0.4-0.4-0.7s-0.1-0.7-0.1-1v-1c0-0.6-0.2-1-0.5-1.4s-0.8-0.5-1.4-0.5H901.7z M901.7,26.3h2.3c0.8,0,1.4-0.2,1.8-0.5
		c0.4-0.3,0.5-0.8,0.5-1.4c0-0.6-0.2-1.1-0.5-1.4c-0.3-0.3-0.9-0.5-1.6-0.5h-2.4V26.3z"/>
	<path class="st2" d="M915.9,29.4h-4.5l-1,2.7H909l4.1-10.7h1.2l4.1,10.7h-1.5L915.9,29.4z M911.9,28.1h3.6l-1.8-4.9h0L911.9,28.1z"
		/>
	<path class="st2" d="M926.2,27.4h-4.9v4.7h-1.4V21.4h7.1v1.1h-5.6v3.7h4.9V27.4z"/>
	<path class="st2" d="M934.9,27.4H930v4.7h-1.4V21.4h7.1v1.1H930v3.7h4.9V27.4z"/>
	<path class="st2" d="M938.9,32.1h-1.5V21.4h1.5V32.1z"/>
	<path class="st2" d="M949.1,28.7L949.1,28.7c0,1-0.3,1.9-1,2.6c-0.7,0.7-1.7,1-2.9,1c-1.2,0-2.2-0.4-2.9-1.3
		c-0.8-0.9-1.1-1.9-1.1-3.3v-1.9c0-1.3,0.4-2.4,1.1-3.3c0.8-0.9,1.7-1.3,2.9-1.3s2.2,0.3,2.9,1c0.7,0.6,1.1,1.5,1,2.6l0,0h-1.4
		c0-0.7-0.2-1.3-0.7-1.8c-0.4-0.4-1.1-0.7-1.9-0.7c-0.8,0-1.4,0.3-1.9,1c-0.5,0.6-0.7,1.5-0.7,2.4v1.9c0,1,0.2,1.8,0.7,2.4
		c0.5,0.6,1.1,1,1.9,1c0.8,0,1.4-0.2,1.9-0.6c0.4-0.4,0.7-1,0.7-1.8H949.1z"/>
</g>
<g class="st1">
	<path class="st2" d="M841.4,191.6h-4.5l-1,2.7h-1.5l4.1-10.7h1.2l4.1,10.7h-1.5L841.4,191.6z M837.4,190.3h3.6l-1.8-4.9h0
		L837.4,190.3z"/>
	<path class="st2" d="M852.9,190.9L852.9,190.9c0,1-0.3,1.9-1,2.6c-0.7,0.7-1.7,1-2.9,1c-1.2,0-2.2-0.4-2.9-1.3
		c-0.8-0.9-1.1-1.9-1.1-3.3V188c0-1.3,0.4-2.4,1.1-3.3c0.8-0.9,1.7-1.3,2.9-1.3s2.2,0.3,2.9,1c0.7,0.6,1.1,1.5,1,2.6l0,0h-1.4
		c0-0.7-0.2-1.3-0.7-1.8c-0.4-0.4-1.1-0.7-1.9-0.7c-0.8,0-1.4,0.3-1.9,1c-0.5,0.6-0.7,1.5-0.7,2.4v1.9c0,1,0.2,1.8,0.7,2.4
		c0.5,0.6,1.1,1,1.9,1c0.8,0,1.4-0.2,1.9-0.6c0.4-0.4,0.7-1,0.7-1.8H852.9z"/>
	<path class="st2" d="M862.4,190.9L862.4,190.9c0,1-0.3,1.9-1,2.6c-0.7,0.7-1.7,1-2.9,1c-1.2,0-2.2-0.4-2.9-1.3
		c-0.8-0.9-1.1-1.9-1.1-3.3V188c0-1.3,0.4-2.4,1.1-3.3c0.8-0.9,1.7-1.3,2.9-1.3s2.2,0.3,2.9,1c0.7,0.6,1.1,1.5,1,2.6l0,0H861
		c0-0.7-0.2-1.3-0.7-1.8c-0.4-0.4-1.1-0.7-1.9-0.7c-0.8,0-1.4,0.3-1.9,1c-0.5,0.6-0.7,1.5-0.7,2.4v1.9c0,1,0.2,1.8,0.7,2.4
		c0.5,0.6,1.1,1,1.9,1c0.8,0,1.4-0.2,1.9-0.6c0.4-0.4,0.7-1,0.7-1.8H862.4z"/>
	<path class="st2" d="M870.7,189.4h-4.9v3.8h5.6v1.1h-7.1v-10.7h7v1.1h-5.6v3.5h4.9V189.4z"/>
	<path class="st2" d="M878.9,191.6c0-0.5-0.2-0.9-0.5-1.2c-0.4-0.3-1-0.6-1.9-0.8c-1.1-0.3-2-0.7-2.6-1.2c-0.6-0.5-0.9-1.2-0.9-2
		c0-0.8,0.3-1.5,1-2.1c0.7-0.6,1.6-0.8,2.6-0.8c1.2,0,2.1,0.3,2.8,1c0.7,0.6,1,1.4,1,2.2l0,0h-1.4c0-0.6-0.2-1.1-0.6-1.5
		c-0.4-0.4-1-0.6-1.8-0.6c-0.7,0-1.3,0.2-1.7,0.5c-0.4,0.3-0.6,0.7-0.6,1.3c0,0.5,0.2,0.9,0.6,1.2c0.4,0.3,1.1,0.6,2,0.8
		c1.1,0.3,2,0.7,2.6,1.2s0.9,1.2,0.9,2c0,0.9-0.4,1.6-1.1,2.1s-1.6,0.8-2.8,0.8c-1.1,0-2-0.3-2.8-0.9c-0.8-0.6-1.2-1.4-1.2-2.3l0,0
		h1.4c0,0.7,0.3,1.2,0.8,1.6s1.1,0.5,1.9,0.5c0.7,0,1.3-0.2,1.7-0.5S878.9,192.1,878.9,191.6z"/>
	<path class="st2" d="M888.3,191.6c0-0.5-0.2-0.9-0.5-1.2c-0.4-0.3-1-0.6-1.9-0.8c-1.1-0.3-2-0.7-2.6-1.2c-0.6-0.5-0.9-1.2-0.9-2
		c0-0.8,0.3-1.5,1-2.1c0.7-0.6,1.6-0.8,2.6-0.8c1.2,0,2.1,0.3,2.8,1c0.7,0.6,1,1.4,1,2.2l0,0h-1.4c0-0.6-0.2-1.1-0.6-1.5
		c-0.4-0.4-1-0.6-1.8-0.6c-0.7,0-1.3,0.2-1.7,0.5c-0.4,0.3-0.6,0.7-0.6,1.3c0,0.5,0.2,0.9,0.6,1.2c0.4,0.3,1.1,0.6,2,0.8
		c1.1,0.3,2,0.7,2.6,1.2s0.9,1.2,0.9,2c0,0.9-0.4,1.6-1.1,2.1s-1.6,0.8-2.8,0.8c-1.1,0-2-0.3-2.8-0.9c-0.8-0.6-1.2-1.4-1.2-2.3l0,0
		h1.4c0,0.7,0.3,1.2,0.8,1.6s1.1,0.5,1.9,0.5c0.7,0,1.3-0.2,1.7-0.5S888.3,192.1,888.3,191.6z"/>
	<path class="st2" d="M897,189.7v4.6h-1.4v-10.7h3.9c1.2,0,2.1,0.3,2.7,0.8c0.6,0.5,0.9,1.3,0.9,2.3c0,0.5-0.1,1-0.4,1.4
		c-0.3,0.4-0.7,0.7-1.2,1c0.6,0.2,1,0.5,1.3,0.9c0.3,0.4,0.4,1,0.4,1.6v1c0,0.3,0,0.6,0.1,0.9s0.2,0.5,0.4,0.6v0.2H902
		c-0.2-0.2-0.3-0.4-0.4-0.7s-0.1-0.7-0.1-1v-1c0-0.6-0.2-1-0.5-1.4s-0.8-0.5-1.4-0.5H897z M897,188.5h2.3c0.8,0,1.4-0.2,1.8-0.5
		c0.4-0.3,0.5-0.8,0.5-1.4c0-0.6-0.2-1.1-0.5-1.4c-0.3-0.3-0.9-0.5-1.6-0.5H897V188.5z"/>
	<path class="st2" d="M913.5,189.9c0,1.3-0.4,2.4-1.2,3.2c-0.8,0.9-1.9,1.3-3.1,1.3c-1.2,0-2.3-0.4-3-1.3c-0.8-0.9-1.2-1.9-1.2-3.2
		V188c0-1.3,0.4-2.4,1.2-3.2c0.8-0.9,1.8-1.3,3-1.3c1.3,0,2.3,0.4,3.1,1.3c0.8,0.9,1.2,1.9,1.2,3.2V189.9z M912.1,188
		c0-1-0.3-1.8-0.8-2.4s-1.2-0.9-2.1-0.9c-0.8,0-1.5,0.3-2,0.9c-0.5,0.6-0.8,1.4-0.8,2.4v1.9c0,1,0.2,1.8,0.8,2.4
		c0.5,0.6,1.2,0.9,2,0.9c0.9,0,1.6-0.3,2.1-0.9c0.5-0.6,0.8-1.4,0.8-2.4V188z"/>
	<path class="st2" d="M923.5,183.6v7.2c0,1.2-0.4,2.1-1.1,2.7c-0.8,0.6-1.7,0.9-3,0.9c-1.2,0-2.1-0.3-2.9-0.9
		c-0.7-0.6-1.1-1.5-1.1-2.7v-7.2h1.4v7.2c0,0.8,0.2,1.4,0.7,1.8s1.1,0.6,1.8,0.6c0.8,0,1.4-0.2,1.9-0.6c0.5-0.4,0.7-1,0.7-1.8v-7.2
		H923.5z"/>
	<path class="st2" d="M933.1,184.8h-3.4v9.5h-1.4v-9.5h-3.4v-1.1h8.3V184.8z"/>
	<path class="st2" d="M941,189.4h-4.9v3.8h5.6v1.1h-7.1v-10.7h7v1.1h-5.6v3.5h4.9V189.4z"/>
	<path class="st2" d="M944.8,189.7v4.6h-1.4v-10.7h3.9c1.2,0,2.1,0.3,2.7,0.8c0.6,0.5,0.9,1.3,0.9,2.3c0,0.5-0.1,1-0.4,1.4
		c-0.3,0.4-0.7,0.7-1.2,1c0.6,0.2,1,0.5,1.3,0.9c0.3,0.4,0.4,1,0.4,1.6v1c0,0.3,0,0.6,0.1,0.9s0.2,0.5,0.4,0.6v0.2h-1.5
		c-0.2-0.2-0.3-0.4-0.4-0.7s-0.1-0.7-0.1-1v-1c0-0.6-0.2-1-0.5-1.4s-0.8-0.5-1.4-0.5H944.8z M944.8,188.5h2.3c0.8,0,1.4-0.2,1.8-0.5
		c0.4-0.3,0.5-0.8,0.5-1.4c0-0.6-0.2-1.1-0.5-1.4c-0.3-0.3-0.9-0.5-1.6-0.5h-2.4V188.5z"/>
</g>
<g class="st1">
	<path class="st2" d="M559.9,184.8h-3.4v9.5h-1.4v-9.5h-3.4v-1.1h8.3V184.8z"/>
	<path class="st2" d="M569.6,194.3h-1.4v-4.7H563v4.7h-1.4v-10.7h1.4v4.8h5.2v-4.8h1.4V194.3z"/>
	<path class="st2" d="M580,183.6v7.2c0,1.2-0.4,2.1-1.1,2.7c-0.8,0.6-1.7,0.9-3,0.9c-1.2,0-2.1-0.3-2.9-0.9
		c-0.7-0.6-1.1-1.5-1.1-2.7v-7.2h1.4v7.2c0,0.8,0.2,1.4,0.7,1.8s1.1,0.6,1.8,0.6c0.8,0,1.4-0.2,1.9-0.6s0.7-1,0.7-1.8v-7.2H580z"/>
	<path class="st2" d="M590.4,194.3H589l-5.1-8.2l0,0v8.2h-1.4v-10.7h1.4l5.1,8.2l0,0v-8.2h1.4V194.3z"/>
	<path class="st2" d="M593.1,194.3v-10.7h3.3c1.4,0,2.5,0.4,3.4,1.3c0.8,0.9,1.3,2,1.3,3.3v1.5c0,1.4-0.4,2.5-1.3,3.3
		c-0.8,0.9-2,1.3-3.4,1.3H593.1z M594.5,184.8v8.4h1.8c1,0,1.8-0.3,2.3-1c0.6-0.6,0.9-1.5,0.9-2.5v-1.5c0-1-0.3-1.8-0.9-2.5
		c-0.6-0.6-1.3-1-2.3-1H594.5z"/>
	<path class="st2" d="M609.3,189.4h-4.9v3.8h5.6v1.1h-7.1v-10.7h7v1.1h-5.6v3.5h4.9V189.4z"/>
	<path class="st2" d="M613.2,189.7v4.6h-1.4v-10.7h3.9c1.2,0,2.1,0.3,2.7,0.8c0.6,0.5,0.9,1.3,0.9,2.3c0,0.5-0.1,1-0.4,1.4
		c-0.3,0.4-0.7,0.7-1.2,1c0.6,0.2,1,0.5,1.3,0.9c0.3,0.4,0.4,1,0.4,1.6v1c0,0.3,0,0.6,0.1,0.9s0.2,0.5,0.4,0.6v0.2h-1.5
		c-0.2-0.2-0.3-0.4-0.4-0.7s-0.1-0.7-0.1-1v-1c0-0.6-0.2-1-0.5-1.4s-0.8-0.5-1.4-0.5H613.2z M613.2,188.5h2.3c0.8,0,1.4-0.2,1.8-0.5
		c0.4-0.3,0.5-0.8,0.5-1.4c0-0.6-0.2-1.1-0.5-1.4c-0.3-0.3-0.9-0.5-1.6-0.5h-2.4V188.5z"/>
	<path class="st2" d="M632.6,184.8h-3.4v9.5h-1.4v-9.5h-3.4v-1.1h8.3V184.8z"/>
	<path class="st2" d="M635.6,190v4.3h-1.4v-10.7h4.1c1.1,0,2,0.3,2.7,0.9s0.9,1.4,0.9,2.3c0,1-0.3,1.7-0.9,2.3
		c-0.6,0.6-1.5,0.9-2.7,0.9H635.6z M635.6,188.9h2.6c0.7,0,1.3-0.2,1.6-0.6c0.4-0.4,0.5-0.9,0.5-1.5s-0.2-1.1-0.5-1.5
		c-0.4-0.4-0.9-0.6-1.6-0.6h-2.6V188.9z"/>
	<path class="st2" d="M649.6,191.6c0-0.5-0.2-0.9-0.5-1.2c-0.4-0.3-1-0.6-1.9-0.8c-1.1-0.3-2-0.7-2.6-1.2c-0.6-0.5-0.9-1.2-0.9-2
		c0-0.8,0.3-1.5,1-2.1c0.7-0.6,1.6-0.8,2.6-0.8c1.2,0,2.1,0.3,2.8,1c0.7,0.6,1,1.4,1,2.2l0,0h-1.4c0-0.6-0.2-1.1-0.6-1.5
		c-0.4-0.4-1-0.6-1.8-0.6c-0.7,0-1.3,0.2-1.7,0.5c-0.4,0.3-0.6,0.7-0.6,1.3c0,0.5,0.2,0.9,0.6,1.2c0.4,0.3,1.1,0.6,2,0.8
		c1.1,0.3,2,0.7,2.6,1.2s0.9,1.2,0.9,2c0,0.9-0.4,1.6-1.1,2.1s-1.6,0.8-2.8,0.8c-1.1,0-2-0.3-2.8-0.9c-0.8-0.6-1.2-1.4-1.2-2.3l0,0
		h1.4c0,0.7,0.3,1.2,0.8,1.6s1.1,0.5,1.9,0.5c0.7,0,1.3-0.2,1.7-0.5S649.6,192.1,649.6,191.6z"/>
</g>
<g class="st1">
	<path class="st2" d="M1137,191.6c0-0.5-0.2-0.9-0.5-1.2c-0.4-0.3-1-0.6-1.9-0.8c-1.1-0.3-2-0.7-2.6-1.2c-0.6-0.5-0.9-1.2-0.9-2
		c0-0.8,0.3-1.5,1-2.1c0.7-0.6,1.6-0.8,2.6-0.8c1.2,0,2.1,0.3,2.8,1c0.7,0.6,1,1.4,1,2.2l0,0h-1.4c0-0.6-0.2-1.1-0.6-1.5
		c-0.4-0.4-1-0.6-1.8-0.6c-0.7,0-1.3,0.2-1.7,0.5c-0.4,0.3-0.6,0.7-0.6,1.3c0,0.5,0.2,0.9,0.6,1.2c0.4,0.3,1.1,0.6,2,0.8
		c1.1,0.3,2,0.7,2.6,1.2s0.9,1.2,0.9,2c0,0.9-0.4,1.6-1.1,2.1s-1.6,0.8-2.8,0.8c-1.1,0-2-0.3-2.8-0.9c-0.8-0.6-1.2-1.4-1.2-2.3l0,0
		h1.4c0,0.7,0.3,1.2,0.8,1.6s1.1,0.5,1.9,0.5c0.7,0,1.3-0.2,1.7-0.5S1137,192.1,1137,191.6z"/>
	<path class="st2" d="M1146.9,189.4h-4.9v3.8h5.6v1.1h-7.1v-10.7h7v1.1h-5.6v3.5h4.9V189.4z"/>
</g>
<g class="st1">
	<path class="st2" d="M1150.8,189.7v4.6h-1.4v-10.7h3.9c1.2,0,2.1,0.3,2.7,0.8c0.6,0.5,0.9,1.3,0.9,2.3c0,0.5-0.1,1-0.4,1.4
		c-0.3,0.4-0.7,0.7-1.2,1c0.6,0.2,1,0.5,1.3,0.9c0.3,0.4,0.4,1,0.4,1.6v1c0,0.3,0,0.6,0.1,0.9c0.1,0.3,0.2,0.5,0.4,0.6v0.2h-1.5
		c-0.2-0.2-0.3-0.4-0.4-0.7s-0.1-0.7-0.1-1v-1c0-0.6-0.2-1-0.5-1.4s-0.8-0.5-1.4-0.5H1150.8z M1150.8,188.5h2.3
		c0.8,0,1.4-0.2,1.8-0.5c0.4-0.3,0.5-0.8,0.5-1.4c0-0.6-0.2-1.1-0.5-1.4c-0.3-0.3-0.9-0.5-1.6-0.5h-2.4V188.5z"/>
</g>
<g class="st1">
	<path class="st2" d="M1162.3,191.6l0.2,0.8h0l0.2-0.8l2.8-8h1.6l-4,10.7h-1.2l-4-10.7h1.6L1162.3,191.6z"/>
	<path class="st2" d="M1170.1,194.3h-1.5v-10.7h1.5V194.3z"/>
	<path class="st2" d="M1180.4,190.9L1180.4,190.9c0,1-0.3,1.9-1,2.6c-0.7,0.7-1.7,1-2.9,1c-1.2,0-2.2-0.4-2.9-1.3
		c-0.8-0.9-1.1-1.9-1.1-3.3V188c0-1.3,0.4-2.4,1.1-3.3c0.8-0.9,1.7-1.3,2.9-1.3s2.2,0.3,2.9,1c0.7,0.6,1.1,1.5,1,2.6l0,0h-1.4
		c0-0.7-0.2-1.3-0.7-1.8c-0.4-0.4-1.1-0.7-1.9-0.7c-0.8,0-1.4,0.3-1.9,1c-0.5,0.6-0.7,1.5-0.7,2.4v1.9c0,1,0.2,1.8,0.7,2.4
		c0.5,0.6,1.1,1,1.9,1c0.8,0,1.4-0.2,1.9-0.6c0.4-0.4,0.7-1,0.7-1.8H1180.4z"/>
	<path class="st2" d="M1188.7,189.4h-4.9v3.8h5.6v1.1h-7.1v-10.7h7v1.1h-5.6v3.5h4.9V189.4z"/>
</g>
<path class="st3" d="M46.5,169.2c-9.7,0-18.6-5.6-22.9-14.3c-3-6.1-3.4-13-1.2-19.5c2.1-6.2,6.5-11.3,12.3-14.4v-0.5
	c0-10.9,6-20.8,15.6-25.9c13.9-7.3,31.1-2.1,38.8,11.4c4.4-2.3,9.6-2.3,14.1,0c7.3,3.7,10.4,12.4,7.3,19.8
	c8.5,3.3,14.1,11.4,14.3,20.6c0.2,12.3-9.8,22.5-22.1,22.7h-56C46.6,169.2,46.5,169.2,46.5,169.2z M63.8,93.4c-4.2,0-8.5,1-12.5,3.1
	c-9,4.7-14.6,13.9-14.5,24.1v1.7l-0.6,0.3c-5.6,2.8-9.9,7.6-11.9,13.5c-2,5.9-1.6,12.3,1.1,18c3.9,8,12.2,13.2,21.1,13.2
	c0,0,0.1,0,0.1,0h56c11.2-0.1,20.3-9.4,20.1-20.7c-0.1-8.7-5.7-16.4-13.9-19.1l-1.1-0.4l0.5-1c3.4-6.6,0.7-14.8-5.9-18.2
	c-4.2-2.1-9.1-2-13.1,0.5l-0.9,0.5l-0.5-0.9C83,98.7,73.5,93.4,63.8,93.4z"/>
<path class="st3" d="M312.8,171.7c-22.3,0-40.4-18.1-40.4-40.4c0-22.3,18.1-40.4,40.4-40.4c22.3,0,40.4,18.1,40.4,40.4
	C353.2,153.6,335.1,171.7,312.8,171.7z M312.8,92.9c-21.2,0-38.4,17.2-38.4,38.4s17.2,38.4,38.4,38.4s38.4-17.2,38.4-38.4
	S334,92.9,312.8,92.9z"/>
<path class="st3" d="M342.1,132.3H321c-0.6,0-1-0.4-1-1s0.4-1,1-1h21.1c0.6,0,1,0.4,1,1S342.7,132.3,342.1,132.3z"/>
<path class="st3" d="M335.9,139.5c-0.3,0-0.5-0.1-0.7-0.3c-0.4-0.4-0.4-1,0-1.4l6.4-6.5l-6.4-6.4c-0.4-0.4-0.4-1,0-1.4s1-0.4,1.4,0
	l7.1,7.1c0.4,0.4,0.4,1,0,1.4l-7.1,7.2C336.4,139.4,336.2,139.5,335.9,139.5z"/>
<path class="st3" d="M305.1,132.3h-20.9c-0.6,0-1-0.4-1-1s0.4-1,1-1h20.9c0.6,0,1,0.4,1,1S305.7,132.3,305.1,132.3z"/>
<path class="st3" d="M290.3,139.5c-0.3,0-0.5-0.1-0.7-0.3l-7.2-7.2c-0.2-0.2-0.3-0.4-0.3-0.7c0-0.3,0.1-0.5,0.3-0.7l7.2-7.1
	c0.4-0.4,1-0.4,1.4,0c0.4,0.4,0.4,1,0,1.4l-6.5,6.4l6.5,6.5c0.4,0.4,0.4,1,0,1.4C290.8,139.4,290.6,139.5,290.3,139.5z"/>
<path class="st3" d="M314.1,162.3c-0.6,0-1-0.4-1-1v-22c0-0.6,0.4-1,1-1s1,0.4,1,1v22C315.1,161.9,314.7,162.3,314.1,162.3z"/>
<path class="st3" d="M306.9,147.4c-0.3,0-0.5-0.1-0.7-0.3c-0.4-0.4-0.4-1,0-1.4l7.2-7.1c0.4-0.4,1-0.4,1.4,0l7.1,7.1
	c0.4,0.4,0.4,1,0,1.4s-1,0.4-1.4,0l-6.4-6.4l-6.5,6.4C307.4,147.3,307.2,147.4,306.9,147.4z"/>
<path class="st3" d="M314.1,124.3c-0.6,0-1-0.4-1-1v-22c0-0.6,0.4-1,1-1s1,0.4,1,1v22C315.1,123.9,314.7,124.3,314.1,124.3z"/>
<path class="st3" d="M314.1,124.3c-0.3,0-0.5-0.1-0.7-0.3l-7.2-7.1c-0.4-0.4-0.4-1,0-1.4c0.4-0.4,1-0.4,1.4,0l6.5,6.4l6.4-6.4
	c0.4-0.4,1-0.4,1.4,0s0.4,1,0,1.4l-7.1,7.1C314.6,124.2,314.4,124.3,314.1,124.3z"/>
<path class="st3" d="M893.2,171.7c-22.3,0-40.4-18.1-40.4-40.4c0-22.3,18.1-40.4,40.4-40.4s40.4,18.1,40.4,40.4
	C933.6,153.6,915.5,171.7,893.2,171.7z M893.2,92.9c-21.2,0-38.4,17.2-38.4,38.4s17.2,38.4,38.4,38.4s38.4-17.2,38.4-38.4
	S914.4,92.9,893.2,92.9z"/>
<path class="st3" d="M922.4,132.3h-21.1c-0.6,0-1-0.4-1-1s0.4-1,1-1h21.1c0.6,0,1,0.4,1,1S923,132.3,922.4,132.3z"/>
<path class="st3" d="M916.2,139.5c-0.3,0-0.5-0.1-0.7-0.3c-0.4-0.4-0.4-1,0-1.4l6.4-6.5l-6.4-6.4c-0.4-0.4-0.4-1,0-1.4s1-0.4,1.4,0
	l7.1,7.1c0.4,0.4,0.4,1,0,1.4l-7.1,7.2C916.7,139.4,916.5,139.5,916.2,139.5z"/>
<path class="st3" d="M885.5,132.3h-21c-0.6,0-1-0.4-1-1s0.4-1,1-1h21c0.6,0,1,0.4,1,1S886.1,132.3,885.5,132.3z"/>
<path class="st3" d="M870.6,139.5c-0.3,0-0.5-0.1-0.7-0.3l-7.1-7.2c-0.4-0.4-0.4-1,0-1.4l7.1-7.1c0.4-0.4,1-0.4,1.4,0s0.4,1,0,1.4
	l-6.4,6.4l6.4,6.5c0.4,0.4,0.4,1,0,1.4C871.1,139.4,870.9,139.5,870.6,139.5z"/>
<path class="st3" d="M894.4,162.3c-0.6,0-1-0.4-1-1v-22c0-0.6,0.4-1,1-1s1,0.4,1,1v22C895.4,161.9,895,162.3,894.4,162.3z"/>
<path class="st3" d="M901.5,147.4c-0.3,0-0.5-0.1-0.7-0.3l-6.4-6.4l-6.4,6.4c-0.4,0.4-1,0.4-1.4,0s-0.4-1,0-1.4l7.1-7.1
	c0.2-0.2,0.4-0.3,0.7-0.3l0,0c0.3,0,0.5,0.1,0.7,0.3l7.1,7.1c0.4,0.4,0.4,1,0,1.4C902,147.3,901.8,147.4,901.5,147.4z"/>
<path class="st3" d="M894.4,124.3c-0.6,0-1-0.4-1-1v-22c0-0.6,0.4-1,1-1s1,0.4,1,1v22C895.4,123.9,895,124.3,894.4,124.3z"/>
<path class="st3" d="M894.4,124.3c-0.3,0-0.5-0.1-0.7-0.3l-7.1-7.1c-0.4-0.4-0.4-1,0-1.4s1-0.4,1.4,0l6.4,6.4l6.4-6.4
	c0.4-0.4,1-0.4,1.4,0s0.4,1,0,1.4l-7.1,7.1C894.9,124.2,894.7,124.3,894.4,124.3z"/>
<path class="st4" d="M1224.5,151.8h-129.4c-3,0-5.5-2.5-5.5-5.5v-29.8c0-3,2.5-5.5,5.5-5.5h129.4c3,0,5.5,2.5,5.5,5.5v29.8
	C1230,149.3,1227.5,151.8,1224.5,151.8z M1095.1,113c-1.9,0-3.5,1.6-3.5,3.5v29.8c0,1.9,1.6,3.5,3.5,3.5h129.4
	c1.9,0,3.5-1.6,3.5-3.5v-29.8c0-1.9-1.6-3.5-3.5-3.5H1095.1z"/>
<rect x="1125.2" y="128.2" class="st4" width="28.3" height="4.4"/>
<rect x="1104.4" y="128.2" class="st4" width="4.4" height="4.4"/>
<rect x="1200.7" y="134.7" class="st4" width="4.4" height="4.4"/>
<rect x="1195.7" y="128.2" class="st4" width="4.4" height="4.4"/>
<rect x="1200.7" y="121.8" class="st4" width="4.4" height="4.4"/>
<rect x="1210.8" y="134.7" class="st4" width="4.4" height="4.4"/>
<rect x="1205.7" y="128.2" class="st4" width="4.4" height="4.4"/>
<rect x="1210.8" y="121.8" class="st4" width="4.4" height="4.4"/>
<rect x="1190.7" y="134.7" class="st4" width="4.4" height="4.4"/>
<rect x="1190.7" y="121.8" class="st4" width="4.4" height="4.4"/>
<rect x="1170.7" y="134.7" class="st4" width="4.4" height="4.4"/>
<rect x="1165.7" y="128.2" class="st4" width="4.4" height="4.4"/>
<rect x="1170.7" y="121.8" class="st4" width="4.4" height="4.4"/>
<rect x="1185.7" y="128.2" class="st4" width="4.4" height="4.4"/>
<rect x="1175.7" y="128.2" class="st4" width="4.4" height="4.4"/>
<rect x="1180.7" y="121.8" class="st4" width="4.4" height="4.4"/>
<rect x="1180.7" y="134.7" class="st4" width="4.4" height="4.4"/>
<path class="st5" d="M682.2,157.1H520.6c-3.6,0-6.6-3-6.6-6.6v-37.3c0-3.6,3-6.6,6.6-6.6h161.7c3.6,0,6.6,3,6.6,6.6v0l-0.1,37.3
	C688.8,154.1,685.8,157.1,682.2,157.1z M520.6,108.6c-2.5,0-4.6,2.1-4.6,4.6v37.3c0,2.5,2.1,4.6,4.6,4.6h161.6
	c2.5,0,4.6-2.1,4.6-4.6l0.1-37.3c0-2.5-2.1-4.6-4.6-4.6H520.6z"/>
<path class="st5" d="M515,148.6h-4.9c-2.7,0-4.9-1.9-4.9-4.3v-25.4c0-2.3,2.2-4.3,4.9-4.3h4.9v2h-4.9c-1.5,0-2.9,1.1-2.9,2.3v25.4
	c0,1.3,1.3,2.3,2.9,2.3h4.9V148.6z"/>
<path class="st5" d="M693.1,148.7h-6.3v-2h6.3c1.5,0,2.9-1.1,2.9-2.3v-25.5c0-1.3-1.3-2.3-2.9-2.3h-6.3v-2h6.3
	c2.7,0,4.9,1.9,4.9,4.3v25.5C698,146.7,695.8,148.7,693.1,148.7z"/>
<rect x="553.5" y="140" class="st5" width="21.7" height="2"/>
<rect x="584" y="140" class="st5" width="21.7" height="2"/>
<rect x="614.6" y="140" class="st5" width="21.7" height="2"/>
<rect x="645.1" y="140" class="st5" width="21.7" height="2"/>
<circle class="st5" cx="533.4" cy="123" r="2"/>
<circle class="st5" cx="533.4" cy="131.8" r="2"/>
<circle class="st5" cx="533.4" cy="140.6" r="2"/>
<path class="st5" d="M576,133.9h-23.4V121H576V133.9z M554.6,131.9H574V123h-19.4V131.9z"/>
<path class="st5" d="M606.6,133.9h-23.4V121h23.4V133.9z M585.2,131.9h19.4V123h-19.4V131.9z"/>
<path class="st5" d="M637.1,133.9h-23.4V121h23.4V133.9z M615.7,131.9h19.4V123h-19.4V131.9z"/>
<path class="st5" d="M667.7,133.9h-23.4V121h23.4V133.9z M646.3,131.9h19.4V123h-19.4V131.9z"/>
<path class="st3" d="M545.8,93.7c-0.2,0-0.5-0.1-0.6-0.2l-64.2-53.6H123.4c-0.6,0-1-0.4-1-1s0.4-1,1-1h358.3l64.8,54
	c0.4,0.4,0.5,1,0.1,1.4C546.4,93.6,546.1,93.7,545.8,93.7z"/>
<polygon class="st3" points="535.5,94.7 535.3,92.7 545.2,92.2 543.9,82.4 545.9,82.1 547.4,94.1 "/>
<polygon class="st6" points="660.8,94.9 659.6,93.3 726,37.9 1082.1,37.9 1082.1,39.9 726.8,39.9 "/>
<polygon class="st6" points="1075.4,30.7 1074.1,32.2 1081.3,38.9 1074.1,45.6 1075.4,47.1 1084.2,38.9 "/>
</svg>
